<svg width="50" height="50" viewBox="0 0 50 50" fill="none" xmlns="http://www.w3.org/2000/svg">
<g clip-path="url(#clip0_70_5415)">
<mask id="mask0_70_5415" style="mask-type:luminance" maskUnits="userSpaceOnUse" x="-770" y="-928" width="2331" height="1693">
<path d="M-769.118 -927.441H1560.29V764.559H-769.118V-927.441Z" fill="white"/>
</mask>
<g mask="url(#mask0_70_5415)">
<path fill-rule="evenodd" clip-rule="evenodd" d="M45.5881 43.8C44.4116 44.9059 42.4999 44.9059 41.3234 43.8L12.4998 16.7059V38.1323C12.4998 39.6529 11.1763 40.897 9.55869 40.897C7.79398 40.897 6.47043 39.6529 6.47043 38.1323V9.93233C6.47043 8.41173 7.79398 7.16762 9.55869 7.16762H39.4116C41.0293 7.16762 42.3528 8.41173 42.3528 9.93233C42.3528 11.4529 41.0293 12.697 39.4116 12.697H16.7646L45.5881 39.7911C46.7646 40.897 46.7646 42.6941 45.5881 43.8ZM297.794 160.609C297.794 144.021 312.059 130.612 329.706 130.612C347.353 130.612 361.617 144.021 361.617 160.609C361.617 177.197 347.353 190.606 329.706 190.606C312.059 190.606 297.794 177.197 297.794 160.609ZM326.617 172.774C326.617 174.294 327.941 175.538 329.706 175.538C331.323 175.538 332.647 174.294 332.647 172.774V155.632L340.441 163.374C341.617 164.618 343.382 164.618 344.706 163.65C345.882 162.544 345.882 160.747 344.853 159.641L331.912 146.509C331.323 145.956 330.441 145.541 329.706 145.541C328.823 145.541 328.088 145.956 327.5 146.509L314.559 159.641C313.382 160.747 313.382 162.544 314.706 163.65C315.882 164.618 317.794 164.618 318.823 163.374L326.617 155.632V172.774ZM-251.03 25.8294C-251.03 27.35 -252.353 28.5941 -254.118 28.5941H-280.588L-271.912 35.9205C-270.735 37.0264 -270.735 38.8235 -271.912 39.9294C-272.941 41.0353 -274.853 41.1735 -276.03 40.0676L-290 27.9029C-290.588 27.35 -291.03 26.5206 -291.03 25.8294C-291.03 25 -290.588 24.3088 -290 23.7559L-276.03 11.5912C-274.853 10.4853 -272.941 10.6235 -271.912 11.7294C-270.735 12.8353 -270.735 14.6323 -271.912 15.6L-280.588 23.0647H-254.118C-252.353 23.0647 -251.03 24.3088 -251.03 25.8294ZM594.853 145.541C593.088 145.541 591.765 146.785 591.765 148.306V180.238C591.765 181.759 593.088 183.003 594.853 183.003H628.823C630.441 183.003 631.765 181.759 631.765 180.238V165.171C631.765 163.65 633.088 162.406 634.706 162.406C636.47 162.406 637.794 163.65 637.794 165.171V180.238C637.794 184.938 633.676 188.671 628.823 188.671H594.853C589.853 188.671 585.735 184.938 585.735 180.238V148.306C585.735 143.606 589.853 139.874 594.853 139.874H614.706C616.47 139.874 617.794 141.118 617.794 142.638C617.794 144.297 616.47 145.541 614.706 145.541H594.853ZM602.941 168.765L639.117 137.938H628.823C627.206 137.938 625.882 136.694 625.882 135.173C625.882 133.653 627.206 132.409 628.823 132.409H646.912C648.529 132.409 649.853 133.653 649.853 135.173V152.038C649.853 153.559 648.529 154.941 646.912 154.941C645.147 154.941 643.823 153.559 643.823 152.038V141.532L606.912 172.912C605.735 174.018 603.823 173.879 602.647 172.774C601.617 171.529 601.618 169.871 602.941 168.765ZM-142.794 25.8294C-142.794 24.3088 -141.471 23.0647 -139.853 23.0647H-113.235L-121.912 15.6C-123.088 14.6323 -123.088 12.8353 -122.059 11.7294C-120.882 10.6235 -118.971 10.4853 -117.794 11.5912L-103.824 23.7559C-103.235 24.3088 -102.941 25 -102.941 25.8294C-102.941 26.5206 -103.235 27.35 -103.824 27.9029L-117.794 40.0676C-118.971 41.1735 -120.882 41.0353 -122.059 39.9294C-123.088 38.8235 -123.088 37.0264 -121.912 35.9205L-113.235 28.5941H-139.853C-141.471 28.5941 -142.794 27.35 -142.794 25.8294ZM172.206 34.1235C173.382 35.2294 173.382 37.0264 172.206 38.1323C171.029 39.2382 169.117 39.2382 167.941 38.1323L161.176 31.7735C161.372 35.7363 161.716 39.699 162.206 43.6617C162.353 44.7676 163.382 45.7353 164.706 45.8735C169.412 46.2421 174.216 46.4264 179.118 46.4264C183.921 46.4264 188.676 46.2421 193.382 45.8735C194.706 45.7353 195.735 44.7676 195.882 43.6617C196.176 41.7264 196.372 39.7451 196.47 37.7176C196.618 36.197 198.088 35.0912 199.706 35.2294C201.323 35.3676 202.647 36.6117 202.5 38.2706C202.304 40.298 202.059 42.2794 201.765 44.2147C201.323 48.0853 198.088 51.1264 193.97 51.4029C189.068 51.8637 184.118 52.0941 179.118 52.0941C174.02 52.0941 169.019 51.8637 164.118 51.4029C160 51.1264 156.765 48.0853 156.323 44.2147C155.735 40.0676 155.392 35.8745 155.294 31.6353L148.235 38.1323C147.059 39.2382 145.147 39.2382 144.117 38.1323C142.941 37.0264 142.941 35.2294 144.117 34.1235L156.029 22.9264C157.206 21.8206 159.117 21.8206 160.294 22.9264L172.206 34.1235ZM164.706 5.78526C163.382 5.92349 162.353 6.75291 162.206 7.99704C161.912 9.93233 161.716 11.8676 161.617 13.8029C161.47 15.3235 160 16.5676 158.382 16.4294C156.765 16.2912 155.441 14.9088 155.588 13.3882C155.784 11.3607 155.98 9.33331 156.176 7.30586C156.765 3.43527 160 0.532318 164.118 0.117615C169.019 -0.251007 173.97 -0.435318 178.97 -0.435318C184.068 -0.435318 189.068 -0.251007 193.97 0.117615C198.088 0.532318 201.323 3.43527 201.765 7.30586C202.353 11.5451 202.696 15.7843 202.794 20.0235L209.853 13.5264C211.029 12.4206 212.941 12.4206 213.97 13.5264C215.147 14.6323 215.147 16.2912 213.97 17.397L202.059 28.7323C200.882 29.8382 198.97 29.8382 197.794 28.7323L185.882 17.397C184.706 16.2912 184.706 14.6323 185.882 13.5264C187.059 12.4206 188.97 12.4206 190.147 13.5264L196.912 19.747C196.716 15.7843 196.372 11.8676 195.882 7.99704C195.735 6.75291 194.706 5.92349 193.382 5.78526C188.676 5.32448 183.872 5.09409 178.97 5.09409C174.167 5.09409 169.412 5.32448 164.706 5.78526ZM463.97 11.1764C460 11.1764 456.765 8.13527 456.765 4.40291C456.765 0.532318 460 -2.50885 463.97 -2.50885C468.088 -2.50885 471.323 0.532318 471.323 4.40291C471.323 8.13527 468.088 11.1764 463.97 11.1764ZM477.647 6.89114C476.176 6.89114 475 5.78526 475 4.40291C475 2.88232 476.176 1.77644 477.647 1.77644H497.647C499.265 1.77644 500.441 2.88232 500.441 4.40291C500.441 5.78526 499.265 6.89114 497.647 6.89114H477.647ZM453.088 4.40291C453.088 5.78526 451.912 6.89114 450.441 6.89114H445C443.382 6.89114 442.206 5.78526 442.206 4.40291C442.206 3.02055 443.382 1.77644 445 1.77644H450.441C451.912 1.77644 453.088 3.02055 453.088 4.40291ZM445 49.7441C443.382 49.7441 442.206 48.6382 442.206 47.1176C442.206 45.7353 443.382 44.6294 445 44.6294H450.441C451.912 44.6294 453.088 45.7353 453.088 47.1176C453.088 48.6382 451.912 49.7441 450.441 49.7441H445ZM477.794 49.7441C476.176 49.7441 475 48.6382 475 47.1176C475 45.7353 476.176 44.6294 477.794 44.6294H497.794C499.265 44.6294 500.441 45.7353 500.441 47.1176C500.441 48.6382 499.265 49.7441 497.794 49.7441H477.794ZM467.794 25.8294C467.794 27.2117 466.47 28.3176 465 28.3176H445C443.529 28.3176 442.206 27.2117 442.206 25.8294C442.206 24.3088 443.529 23.2029 445 23.2029H465C466.47 23.2029 467.794 24.3088 467.794 25.8294ZM492.353 28.3176C490.882 28.3176 489.559 27.2117 489.559 25.8294C489.559 24.3088 490.882 23.2029 492.353 23.2029H497.794C499.265 23.2029 500.588 24.3088 500.588 25.8294C500.588 27.2117 499.265 28.3176 497.794 28.3176H492.353ZM478.676 32.6029C474.706 32.6029 471.47 29.5617 471.47 25.8294C471.47 21.9588 474.706 18.9176 478.676 18.9176C482.794 18.9176 486.029 21.9588 486.029 25.8294C486.029 29.5617 482.794 32.6029 478.676 32.6029ZM464.117 54.0294C460.147 54.0294 456.912 50.9882 456.912 47.1176C456.912 43.3853 460.147 40.3441 464.117 40.3441C468.088 40.3441 471.47 43.3853 471.47 47.1176C471.47 50.9882 468.088 54.0294 464.117 54.0294ZM1045.29 -135.906C1046.91 -135.906 1048.24 -134.662 1048.24 -133.141V-86.2794C1048.24 -84.7589 1046.91 -83.5147 1045.29 -83.5147H1039.26C1037.65 -83.5147 1036.32 -84.7589 1036.32 -86.2794V-133.141C1036.32 -134.662 1037.65 -135.906 1039.26 -135.906H1045.29ZM1073.24 -135.906C1074.85 -135.906 1076.32 -134.662 1076.32 -133.141V-86.2794C1076.32 -84.7589 1074.85 -83.5147 1073.24 -83.5147H1067.35C1065.59 -83.5147 1064.26 -84.7589 1064.26 -86.2794V-133.141C1064.26 -134.662 1065.59 -135.906 1067.35 -135.906H1073.24ZM897.059 -94.85L902.059 -106.6C902.941 -108.535 904.117 -110.194 905.588 -111.715L933.235 -137.565C936.47 -140.744 941.912 -140.744 945.147 -137.565C948.529 -134.524 948.529 -129.409 945.147 -126.368L917.647 -100.379C916.029 -98.9971 914.265 -97.8912 912.206 -97.0618L899.706 -92.3618C898.088 -91.6706 896.47 -93.1912 897.059 -94.85ZM889.411 -89.7353C889.411 -87.2471 891.618 -85.0353 894.265 -85.0353H932.206C935 -85.0353 937.206 -87.2471 937.206 -89.7353V-109.503C937.206 -111.024 938.529 -112.268 940.147 -112.268C941.911 -112.268 943.235 -111.024 943.235 -109.503V-89.7353C943.235 -84.0677 938.235 -79.5059 932.206 -79.5059H894.265C888.235 -79.5059 883.382 -84.0677 883.382 -89.7353V-125.4C883.382 -131.068 888.235 -135.768 894.265 -135.768H915.294C916.912 -135.768 918.235 -134.524 918.235 -132.865C918.235 -131.344 916.912 -130.1 915.294 -130.1H894.265C891.618 -130.1 889.411 -128.027 889.411 -125.4V-89.7353ZM741.912 -97.753L785.441 -138.671C788.823 -141.85 794.117 -141.85 797.5 -138.671C800.735 -135.629 800.735 -130.515 797.5 -127.474L753.823 -86.5559C752.353 -85.0353 750.588 -83.9294 748.529 -83.2383L735.882 -78.4C734.265 -77.8471 732.647 -79.3677 733.382 -80.8883L738.382 -92.6383C739.118 -94.5736 740.441 -96.3706 741.912 -97.753ZM586.029 1.49997C586.029 -1.67944 588.676 -4.16768 591.912 -4.16768H596.617C599.412 -4.16768 601.765 -2.37062 602.353 0.255859L605.294 12.2823C605.882 15.1853 604.117 18.0882 601.029 18.9176L597.353 19.8853C595.735 20.4382 594.706 21.9588 595.441 23.4794C600 34.1235 609.117 42.5559 620.294 46.9794C621.912 47.5323 623.676 46.7029 624.117 45.1823L625.147 41.5882C626.029 38.8235 629.117 37.0264 632.206 37.7176L645.147 40.3441C647.794 40.897 649.853 43.247 649.853 45.8735V50.1588C649.853 53.3382 647.059 55.8264 643.823 55.8264H637.794C633.235 55.8264 628.823 55.2735 624.559 54.1676C606.617 49.7441 592.5 36.4735 587.647 19.4706C586.617 15.6 586.029 11.3147 586.029 7.02939V1.49997Z" fill="#0F172A"/>
<path fill-rule="evenodd" clip-rule="evenodd" d="M-9.41187 -127.335C-9.41187 -132.035 -5.44128 -135.768 -0.441277 -135.768H53.3823C58.3823 -135.768 62.3529 -132.035 62.3529 -127.335V-91.8089C62.3529 -87.1089 58.3823 -83.3765 53.3823 -83.3765H-0.441277C-5.44128 -83.3765 -9.41187 -87.1089 -9.41187 -91.8089V-127.335ZM-3.52951 -105.494V-91.6706C-3.52951 -90.1501 -2.05892 -88.9059 -0.441277 -88.9059H53.3823C54.9999 -88.9059 56.3234 -90.1501 56.3234 -91.6706V-101.762L47.4999 -110.056C46.3234 -111.162 44.4117 -111.162 43.2352 -110.056L35.7352 -102.868L37.4999 -101.209C38.6764 -100.103 38.6764 -98.3059 37.4999 -97.2001C36.3234 -96.0942 34.5587 -96.0942 33.3823 -97.2001L12.647 -116.691C11.4705 -117.797 9.55873 -117.797 8.38225 -116.691L-3.52951 -105.494ZM30.4411 -124.432C28.2352 -124.432 26.3234 -122.774 26.3234 -120.7C26.3234 -118.627 28.2352 -116.968 30.4411 -116.968C32.647 -116.968 34.4117 -118.627 34.4117 -120.7C34.4117 -122.774 32.647 -124.432 30.4411 -124.432ZM297.647 -109.365C297.647 -125.953 311.912 -139.362 329.559 -139.362C347.206 -139.362 361.471 -125.953 361.471 -109.365C361.471 -92.9148 347.206 -79.3677 329.559 -79.3677C311.912 -79.3677 297.647 -92.9148 297.647 -109.365ZM321.618 -117.797V-100.932C321.618 -99.9648 322.206 -98.9971 323.235 -98.5824C324.118 -98.0295 325.294 -98.0295 326.176 -98.5824L340.147 -107.015C341.029 -107.568 341.618 -108.535 341.618 -109.365C341.618 -110.332 341.029 -111.3 340.147 -111.853L326.176 -120.285C325.294 -120.838 324.118 -120.838 323.235 -120.285C322.206 -119.871 321.618 -118.903 321.618 -117.797ZM191.765 -131.897C193.529 -131.897 194.853 -130.653 194.853 -129.132V-89.7353C194.853 -88.2148 193.529 -86.9706 191.765 -86.9706H189.853C188.235 -86.9706 186.912 -88.2148 186.912 -89.7353V-129.132C186.912 -130.653 188.235 -131.897 189.853 -131.897H191.765ZM211.765 -131.897C213.382 -131.897 214.706 -130.653 214.706 -129.132V-89.7353C214.706 -88.2148 213.382 -86.9706 211.765 -86.9706H209.706C208.088 -86.9706 206.765 -88.2148 206.765 -89.7353V-129.132C206.765 -130.653 208.088 -131.897 209.706 -131.897H211.765ZM177.353 -114.203C181.029 -111.991 181.029 -106.877 177.353 -104.665L152.059 -90.0118C148.088 -87.6618 142.941 -90.4265 142.941 -94.7118V-124.018C142.941 -128.441 148.088 -131.206 152.059 -128.856L177.353 -114.203ZM493.088 -114.203C496.765 -111.991 496.765 -106.877 493.088 -104.665L455.735 -82.5471C451.765 -80.1971 446.618 -82.9618 446.618 -87.3853V-131.482C446.618 -135.906 451.765 -138.671 455.735 -136.321L493.088 -114.203ZM439.412 160.747C439.412 144.159 453.676 130.75 471.323 130.75C488.971 130.75 503.235 144.159 503.235 160.747C503.235 177.335 488.971 190.744 471.323 190.744C453.676 190.744 439.412 177.335 439.412 160.747ZM474.265 148.582C474.265 147.062 472.941 145.818 471.323 145.818C469.706 145.818 468.235 147.062 468.235 148.582V157.982H458.382C456.618 157.982 455.294 159.226 455.294 160.747C455.294 162.406 456.618 163.65 458.382 163.65H468.235V172.912C468.235 174.571 469.706 175.815 471.323 175.815C472.941 175.815 474.265 174.571 474.265 172.912V163.65H484.265C485.882 163.65 487.206 162.406 487.206 160.747C487.206 159.226 485.882 157.982 484.265 157.982H474.265V148.582Z" fill="#0F172A"/>
<path fill-rule="evenodd" clip-rule="evenodd" d="M1030.29 281.841C1030.29 277.279 1034.26 273.547 1039.12 273.547H1078.82C1083.68 273.547 1087.65 277.279 1087.65 281.841V315.018C1087.65 319.579 1083.68 323.312 1078.82 323.312H1039.12C1034.26 323.312 1030.29 319.579 1030.29 315.018V281.841ZM1042.06 287.509L1047.06 292.209L1042.06 297.047C1041.18 297.876 1041.18 299.12 1042.06 299.95C1042.94 300.779 1044.26 300.779 1045.15 299.95L1051.76 293.729C1052.65 292.9 1052.65 291.656 1051.76 290.826L1045.15 284.606C1044.26 283.776 1042.94 283.776 1042.06 284.606C1041.18 285.435 1041.18 286.679 1042.06 287.509ZM1054.56 296.356C1053.38 296.356 1052.35 297.323 1052.35 298.429C1052.35 299.673 1053.38 300.503 1054.56 300.503H1063.38C1064.71 300.503 1065.59 299.673 1065.59 298.429C1065.59 297.323 1064.71 296.356 1063.38 296.356H1054.56ZM-299.706 -128.303C-299.706 -132.865 -295.735 -136.597 -290.883 -136.597H-251.177C-246.324 -136.597 -242.353 -132.865 -242.353 -128.303V-101.347C-242.353 -96.6472 -246.324 -93.0531 -251.177 -93.0531H-260V-92.2236C-260 -90.5648 -259.265 -89.0442 -258.088 -87.9383L-256.177 -86.1413C-255.588 -85.5883 -255.441 -84.6207 -255.735 -83.9295C-256.03 -83.1001 -256.912 -82.6854 -257.794 -82.6854H-284.265C-285.147 -82.6854 -285.883 -83.1001 -286.324 -83.9295C-286.618 -84.6207 -286.471 -85.5883 -285.735 -86.1413L-283.971 -87.9383C-282.794 -89.0442 -282.059 -90.5648 -282.059 -92.2236V-93.0531H-290.883C-295.735 -93.0531 -299.706 -96.6472 -299.706 -101.347V-128.303ZM-295.294 -128.303V-107.568C-295.294 -105.218 -293.235 -103.421 -290.883 -103.421H-251.177C-248.677 -103.421 -246.765 -105.218 -246.765 -107.568V-128.303C-246.765 -130.515 -248.677 -132.45 -251.177 -132.45H-290.883C-293.235 -132.45 -295.294 -130.515 -295.294 -128.303ZM-257.794 310.87H-284.265V285.988H-257.794V310.87Z" fill="#0F172A"/>
<path fill-rule="evenodd" clip-rule="evenodd" d="M795.147 298.43C795.147 313.359 782.206 325.385 766.471 325.385C750.588 325.385 737.794 313.359 737.794 298.43C737.794 283.638 750.588 271.474 766.471 271.474C782.206 271.474 795.147 283.638 795.147 298.43ZM763.088 283.915C756.471 283.915 751.029 289.03 751.029 295.388C751.029 301.609 756.471 306.724 763.088 306.724C765.735 306.724 768.088 306.032 770 304.788L775.882 310.318C776.765 311.147 778.088 311.147 778.971 310.318C779.853 309.488 779.853 308.244 778.971 307.415L773.088 301.885C774.412 299.95 775.294 297.738 775.294 295.388C775.294 289.03 769.853 283.915 763.088 283.915ZM646.471 271.474C647.647 271.474 648.676 272.441 648.676 273.547C648.676 274.791 647.647 275.621 646.471 275.621H644.265V304.65C644.265 309.212 640.294 312.944 635.441 312.944H631.912L635.294 322.759C635.735 323.727 635 324.971 633.971 325.385C632.794 325.662 631.471 325.109 631.176 324.003L630.147 321.238H605.441L604.412 324.003C603.971 325.109 602.794 325.662 601.618 325.385C600.441 324.971 599.853 323.727 600.294 322.759L603.676 312.944H600.147C595.294 312.944 591.323 309.212 591.323 304.65V275.621H589.118C587.794 275.621 586.912 274.791 586.912 273.547C586.912 272.441 587.794 271.474 589.118 271.474H646.471ZM620 290.135C620 289.03 618.971 288.062 617.794 288.062C616.471 288.062 615.588 289.03 615.588 290.135V300.503C615.588 301.747 616.471 302.577 617.794 302.577C618.971 302.577 620 301.747 620 300.503V290.135ZM628.823 283.915C628.823 282.809 627.794 281.841 626.618 281.841C625.294 281.841 624.412 282.809 624.412 283.915V300.503C624.412 301.747 625.294 302.577 626.618 302.577C627.794 302.577 628.823 301.747 628.823 300.503V283.915ZM628.676 317.091L627.206 312.944H608.382L606.912 317.091H628.676ZM611.029 296.356C611.029 295.25 610.147 294.282 608.823 294.282C607.647 294.282 606.618 295.25 606.618 296.356V300.503C606.618 301.747 607.647 302.577 608.823 302.577C610.147 302.577 611.029 301.747 611.029 300.503V296.356ZM927.5 131.58C930.441 131.58 932.941 133.93 932.941 136.694V144.988C934.216 145.173 935.49 145.357 936.765 145.541C941.029 146.094 943.971 149.55 943.971 153.559V170.977C943.971 175.538 940 179.271 935.147 179.271H934.412L934.853 183.971C935.147 187.012 932.647 189.638 929.412 189.638H901.323C898.088 189.638 895.588 187.012 895.882 183.971L896.323 179.271H895.441C890.588 179.271 886.618 175.538 886.618 170.977V153.559C886.618 149.55 889.706 146.094 893.971 145.541C895.147 145.357 896.373 145.173 897.647 144.988V136.694C897.647 133.93 900.147 131.58 903.235 131.58H927.5ZM932.941 158.535C934.265 158.535 935.147 157.568 935.147 156.462C935.147 155.356 934.265 154.388 932.941 154.388C931.765 154.388 930.735 155.356 930.735 156.462C930.735 157.568 931.765 158.535 932.941 158.535ZM915.294 166.83C911.078 166.83 906.912 167.014 902.794 167.382C902.206 167.521 901.765 167.797 901.765 168.35L900.147 184.385C900.147 184.938 900.588 185.491 901.323 185.491H929.412C930 185.491 930.441 184.938 930.441 184.385L928.971 168.35C928.823 167.797 928.382 167.521 927.941 167.382C923.823 167.014 919.608 166.83 915.294 166.83ZM928.529 144.574V136.694C928.529 136.141 928.088 135.727 927.5 135.727H903.235C902.647 135.727 902.059 136.141 902.059 136.694V144.574C906.471 144.205 910.882 144.021 915.294 144.021C919.804 144.021 924.216 144.205 928.529 144.574ZM924.118 154.388C922.941 154.388 921.912 155.356 921.912 156.462C921.912 157.568 922.941 158.535 924.118 158.535C925.441 158.535 926.323 157.568 926.323 156.462C926.323 155.356 925.441 154.388 924.118 154.388ZM442.5 302.577C442.5 289.997 453.382 279.768 466.765 279.768C467.941 279.768 468.97 280.735 468.97 281.841V300.503H488.823C490 300.503 491.029 301.471 491.029 302.577C491.029 315.156 480.147 325.385 466.765 325.385C453.382 325.385 442.5 315.156 442.5 302.577ZM473.382 273.547C473.382 272.441 474.412 271.474 475.588 271.474C488.97 271.474 499.853 281.703 499.853 294.282C499.853 295.527 498.823 296.356 497.647 296.356H475.588C474.412 296.356 473.382 295.527 473.382 294.282V273.547ZM-95.0001 -86.1411C-94.1178 -85.3117 -94.1178 -84.0675 -95.0001 -83.2381C-95.8825 -82.4087 -97.206 -82.4087 -98.0883 -83.2381L-151.03 -133.003C-151.912 -133.832 -151.912 -135.076 -151.03 -135.906C-150.147 -136.735 -148.824 -136.735 -147.941 -135.906L-95.0001 -86.1411ZM-92.206 -93.8822C-92.206 -92.4999 -92.7942 -91.5322 -93.6766 -90.7028L-107.647 -103.835V-120.838L-99.706 -128.303C-96.9119 -130.791 -92.206 -128.994 -92.206 -125.262V-93.8822ZM-112.059 -122.082V-108.12L-135.735 -130.376H-120.882C-115.882 -130.376 -112.059 -126.644 -112.059 -122.082ZM-153.971 -122.082C-153.971 -124.294 -153.088 -126.229 -151.618 -127.75L-113.824 -92.2234C-115.441 -90.1499 -117.941 -88.9058 -120.882 -88.9058H-145.147C-150 -88.9058 -153.971 -92.6381 -153.971 -97.1999V-122.082Z" fill="#0F172A"/>
</g>
</g>
<defs>
<clipPath id="clip0_70_5415">
<rect width="50" height="50" fill="white"/>
</clipPath>
</defs>
</svg>
