<svg width="50" height="50" viewBox="0 0 50 50" fill="none" xmlns="http://www.w3.org/2000/svg">
<g clip-path="url(#clip0_70_5414)">
<mask id="mask0_70_5414" style="mask-type:luminance" maskUnits="userSpaceOnUse" x="-459" y="-1119" width="2264" height="2029">
<path d="M-458.571 -1118.43H1804.29V909.914H-458.571V-1118.43Z" fill="white"/>
</mask>
<g mask="url(#mask0_70_5414)">
<path d="M22.1834 -95.3951V-3.80029H11.0918V-95.3951H22.1834ZM118.128 -66.7717H107.036C106.38 -69.962 105.232 -72.7647 103.592 -75.1798C101.982 -77.5949 100.014 -79.6224 97.6887 -81.2623C95.3929 -82.932 92.8436 -84.1843 90.0409 -85.0191C87.2382 -85.854 84.3162 -86.2714 81.275 -86.2714C75.7292 -86.2714 70.7052 -84.87 66.203 -82.0673C61.7306 -79.2646 58.1676 -75.1351 55.5139 -69.6788C52.8901 -64.2225 51.5782 -57.5288 51.5782 -49.5977C51.5782 -41.6666 52.8901 -34.9729 55.5139 -29.5166C58.1676 -24.0603 61.7306 -19.9308 66.203 -17.1281C70.7052 -14.3253 75.7292 -12.924 81.275 -12.924C84.3162 -12.924 87.2382 -13.3414 90.0409 -14.1763C92.8436 -15.0111 95.3929 -16.2485 97.6887 -17.8884C100.014 -19.5581 101.982 -21.6005 103.592 -24.0156C105.232 -26.4605 106.38 -29.2632 107.036 -32.4237H118.128C117.293 -27.7426 115.772 -23.5534 113.566 -19.8562C111.359 -16.159 108.616 -13.0134 105.337 -10.4194C102.057 -7.85527 98.3745 -5.90232 94.2897 -4.5606C90.2347 -3.21888 85.8965 -2.54802 81.275 -2.54802C73.4632 -2.54802 66.5161 -4.45625 60.4336 -8.2727C54.3511 -12.0891 49.5656 -17.5157 46.0772 -24.5522C42.5887 -31.5888 40.8445 -39.9373 40.8445 -49.5977C40.8445 -59.2581 42.5887 -67.6066 46.0772 -74.6431C49.5656 -81.6797 54.3511 -87.1062 60.4336 -90.9227C66.5161 -94.7391 73.4632 -96.6474 81.275 -96.6474C85.8965 -96.6474 90.2347 -95.9765 94.2897 -94.6348C98.3745 -93.2931 102.057 -91.3252 105.337 -88.7312C108.616 -86.167 111.359 -83.0364 113.566 -79.3392C115.772 -75.6718 117.293 -71.4827 118.128 -66.7717ZM213.334 -49.5977C213.334 -39.9373 211.59 -31.5888 208.101 -24.5522C204.613 -17.5157 199.827 -12.0891 193.745 -8.2727C187.662 -4.45625 180.715 -2.54802 172.903 -2.54802C165.092 -2.54802 158.144 -4.45625 152.062 -8.2727C145.979 -12.0891 141.194 -17.5157 137.706 -24.5522C134.217 -31.5888 132.473 -39.9373 132.473 -49.5977C132.473 -59.2581 134.217 -67.6066 137.706 -74.6431C141.194 -81.6797 145.979 -87.1062 152.062 -90.9227C158.144 -94.7391 165.092 -96.6474 172.903 -96.6474C180.715 -96.6474 187.662 -94.7391 193.745 -90.9227C199.827 -87.1062 204.613 -81.6797 208.101 -74.6431C211.59 -67.6066 213.334 -59.2581 213.334 -49.5977ZM202.6 -49.5977C202.6 -57.5288 201.273 -64.2225 198.62 -69.6788C195.996 -75.1351 192.433 -79.2646 187.931 -82.0673C183.458 -84.87 178.449 -86.2714 172.903 -86.2714C167.358 -86.2714 162.334 -84.87 157.831 -82.0673C153.359 -79.2646 149.796 -75.1351 147.142 -69.6788C144.518 -64.2225 143.207 -57.5288 143.207 -49.5977C143.207 -41.6666 144.518 -34.9729 147.142 -29.5166C149.796 -24.0603 153.359 -19.9308 157.831 -17.1281C162.334 -14.3253 167.358 -12.924 172.903 -12.924C178.449 -12.924 183.458 -14.3253 187.931 -17.1281C192.433 -19.9308 195.996 -24.0603 198.62 -29.5166C201.273 -34.9729 202.6 -41.6666 202.6 -49.5977ZM304.616 -95.3951V-3.80029H293.882L243.97 -75.7165H243.075V-3.80029H231.984V-95.3951H242.718L292.808 -23.3H293.703V-95.3951H304.616ZM61.1827 79.5036C60.646 74.9716 58.4695 71.4533 54.653 68.9487C50.8366 66.4442 46.1554 65.1919 40.6097 65.1919C36.5547 65.1919 33.0066 65.8479 29.9653 67.1598C26.9539 68.4717 24.5985 70.2755 22.8989 72.5714C21.2292 74.8672 20.3944 77.4761 20.3944 80.3981C20.3944 82.843 20.9758 84.945 22.1386 86.7042C23.3313 88.4335 24.8519 89.8796 26.7005 91.0424C28.5491 92.1754 30.4871 93.1146 32.5146 93.86C34.5421 94.5756 36.4056 95.157 38.1051 95.6043L47.4077 98.1088C49.793 98.7349 52.4466 99.5996 55.3686 100.703C58.3204 101.806 61.138 103.312 63.8214 105.22C66.5347 107.098 68.7709 109.513 70.53 112.465C72.2892 115.417 73.1688 119.04 73.1688 123.333C73.1688 128.283 71.8718 132.755 69.2778 136.75C66.7136 140.746 62.9568 143.921 58.0073 146.277C53.0877 148.632 47.1096 149.81 40.073 149.81C33.5134 149.81 27.8335 148.751 23.0331 146.634C18.2626 144.517 14.5057 141.566 11.7627 137.779C9.04941 133.992 7.51388 129.595 7.15609 124.585H18.6054C18.9036 128.044 20.0664 130.906 22.0939 133.172C24.1512 135.409 26.7452 137.078 29.8759 138.182C33.0364 139.255 36.4354 139.792 40.073 139.792C44.3068 139.792 48.1084 139.106 51.4776 137.734C54.8468 136.333 57.5153 134.395 59.4832 131.92C61.4511 129.416 62.435 126.494 62.435 123.154C62.435 120.113 61.5852 117.638 59.8857 115.73C58.1862 113.822 55.95 112.271 53.1771 111.079C50.4042 109.886 47.4077 108.843 44.1876 107.948L32.9171 104.728C25.7613 102.671 20.0962 99.7338 15.922 95.9173C11.7478 92.1009 9.66063 87.1067 9.66063 80.9348C9.66063 75.8064 11.0471 71.334 13.82 67.5176C16.6227 63.6713 20.3795 60.6897 25.0904 58.5728C29.8312 56.426 35.1235 55.3526 40.9675 55.3526C46.871 55.3526 52.1186 56.4111 56.7103 58.528C61.302 60.6152 64.9395 63.4775 67.623 67.115C70.3362 70.7526 71.7674 74.8821 71.9165 79.5036H61.1827Z" fill="#231F20"/>
<path fill-rule="evenodd" clip-rule="evenodd" d="M332.857 45.8798C331.714 47.2055 329.857 47.2055 328.714 45.8798L300.714 13.3997V39.0855C300.714 40.9083 299.429 42.3997 297.857 42.3997C296.143 42.3997 294.857 40.9083 294.857 39.0855V5.27975C294.857 3.45689 296.143 1.96547 297.857 1.96547H326.857C328.429 1.96547 329.714 3.45689 329.714 5.27975C329.714 7.1026 328.429 8.59404 326.857 8.59404H304.857L332.857 41.074C334 42.3997 334 44.554 332.857 45.8798ZM577.857 185.908C577.857 166.023 591.714 149.948 608.857 149.948C626 149.948 639.857 166.023 639.857 185.908C639.857 205.794 626 221.868 608.857 221.868C591.714 221.868 577.857 205.794 577.857 185.908ZM605.857 200.491C605.857 202.314 607.143 203.805 608.857 203.805C610.429 203.805 611.714 202.314 611.714 200.491V179.943L619.286 189.223C620.429 190.714 622.143 190.714 623.429 189.554C624.571 188.228 624.571 186.074 623.571 184.748L611 169.005C610.429 168.343 609.571 167.845 608.857 167.845C608 167.845 607.286 168.343 606.714 169.005L594.143 184.748C593 186.074 593 188.228 594.286 189.554C595.429 190.714 597.286 190.714 598.286 189.223L605.857 179.943V200.491ZM44.7143 24.3369C44.7143 26.1597 43.4286 27.6512 41.7143 27.6512H16L24.4286 36.434C25.5715 37.7597 25.5715 39.914 24.4286 41.2398C23.4286 42.5655 21.5715 42.7312 20.4286 41.4055L6.85718 26.8226C6.28575 26.1597 5.85718 25.1655 5.85718 24.3369C5.85718 23.3426 6.28575 22.514 6.85718 21.8512L20.4286 7.26833C21.5715 5.94261 23.4286 6.10832 24.4286 7.43404C25.5715 8.75975 25.5715 10.914 24.4286 12.0741L16 21.0226H41.7143C43.4286 21.0226 44.7143 22.514 44.7143 24.3369ZM866.429 167.845C864.714 167.845 863.429 169.337 863.429 171.16V209.44C863.429 211.263 864.714 212.754 866.429 212.754H899.429C901 212.754 902.286 211.263 902.286 209.44V191.377C902.286 189.554 903.571 188.063 905.143 188.063C906.857 188.063 908.143 189.554 908.143 191.377V209.44C908.143 215.074 904.143 219.548 899.429 219.548H866.429C861.572 219.548 857.571 215.074 857.571 209.44V171.16C857.571 165.525 861.572 161.051 866.429 161.051H885.714C887.429 161.051 888.714 162.543 888.714 164.365C888.714 166.354 887.429 167.845 885.714 167.845H866.429ZM874.286 195.685L909.429 158.731H899.429C897.857 158.731 896.571 157.24 896.571 155.417C896.571 153.594 897.857 152.103 899.429 152.103H917C918.572 152.103 919.857 153.594 919.857 155.417V175.634C919.857 177.457 918.572 179.114 917 179.114C915.286 179.114 914 177.457 914 175.634V163.04L878.143 200.657C877 201.983 875.143 201.817 874 200.491C873 199 873 197.011 874.286 195.685ZM149.857 24.3369C149.857 22.514 151.143 21.0226 152.714 21.0226H178.571L170.143 12.0741C169 10.914 169 8.75975 170 7.43404C171.143 6.10832 173 5.94261 174.143 7.26833L187.714 21.8512C188.286 22.514 188.571 23.3426 188.571 24.3369C188.571 25.1655 188.286 26.1597 187.714 26.8226L174.143 41.4055C173 42.7312 171.143 42.5655 170 41.2398C169 39.914 169 37.7597 170.143 36.434L178.571 27.6512H152.714C151.143 27.6512 149.857 26.1597 149.857 24.3369ZM455.857 34.2798C457 35.6055 457 37.7598 455.857 39.0855C454.714 40.4112 452.857 40.4112 451.714 39.0855L445.143 31.4626C445.333 36.2131 445.667 40.9636 446.143 45.714C446.286 47.0397 447.286 48.1998 448.571 48.3655C453.143 48.8074 457.81 49.0283 462.571 49.0283C467.238 49.0283 471.857 48.8074 476.429 48.3655C477.714 48.1998 478.714 47.0397 478.857 45.714C479.143 43.394 479.333 41.0188 479.429 38.5883C479.571 36.7655 481 35.4398 482.571 35.6055C484.143 35.7712 485.429 37.2626 485.286 39.2512C485.095 41.6817 484.857 44.0569 484.571 46.3769C484.143 51.0169 481 54.6626 477 54.994C472.238 55.5464 467.429 55.8226 462.571 55.8226C457.619 55.8226 452.762 55.5464 448 54.994C444 54.6626 440.857 51.0169 440.429 46.3769C439.857 41.4055 439.524 36.3788 439.429 31.2969L432.571 39.0855C431.429 40.4112 429.571 40.4112 428.571 39.0855C427.429 37.7598 427.429 35.6055 428.571 34.2798L440.143 20.8569C441.286 19.5312 443.143 19.5312 444.286 20.8569L455.857 34.2798ZM448.571 0.308319C447.286 0.47403 446.286 1.46832 446.143 2.95976C445.857 5.27975 445.667 7.59975 445.571 9.91975C445.429 11.7426 444 13.234 442.429 13.0683C440.857 12.9026 439.571 11.2455 439.714 9.42261C439.905 6.99213 440.095 4.56166 440.286 2.13118C440.857 -2.50882 444 -5.98882 448 -6.48596C452.762 -6.92787 457.571 -7.14882 462.429 -7.14882C467.381 -7.14882 472.238 -6.92787 477 -6.48596C481 -5.98882 484.143 -2.50882 484.571 2.13118C485.143 7.21309 485.476 12.295 485.571 17.3769L492.429 9.58833C493.571 8.26262 495.429 8.26262 496.429 9.58833C497.571 10.914 497.571 12.9026 496.429 14.2283L484.857 27.8169C483.714 29.1426 481.857 29.1426 480.714 27.8169L469.143 14.2283C468 12.9026 468 10.914 469.143 9.58833C470.286 8.26262 472.143 8.26262 473.286 9.58833L479.857 17.0455C479.667 12.295 479.333 7.59976 478.857 2.95976C478.714 1.46832 477.714 0.47403 476.429 0.308319C471.857 -0.244064 467.191 -0.520248 462.429 -0.520248C457.762 -0.520248 453.143 -0.244064 448.571 0.308319ZM739.286 6.77118C735.429 6.77118 732.286 3.12546 732.286 -1.34882C732.286 -5.98882 735.429 -9.63454 739.286 -9.63454C743.286 -9.63454 746.429 -5.98882 746.429 -1.34882C746.429 3.12546 743.286 6.77118 739.286 6.77118ZM752.571 1.63403C751.143 1.63403 750 0.308319 750 -1.34882C750 -3.17168 751.143 -4.49739 752.571 -4.49739H772C773.572 -4.49739 774.714 -3.17168 774.714 -1.34882C774.714 0.308319 773.572 1.63403 772 1.63403H752.571ZM728.714 -1.34882C728.714 0.308319 727.571 1.63403 726.143 1.63403H720.857C719.286 1.63403 718.143 0.308319 718.143 -1.34882C718.143 -3.00597 719.286 -4.49739 720.857 -4.49739H726.143C727.571 -4.49739 728.714 -3.00597 728.714 -1.34882ZM720.857 53.0055C719.286 53.0055 718.143 51.6797 718.143 49.8569C718.143 48.1998 719.286 46.874 720.857 46.874H726.143C727.571 46.874 728.714 48.1998 728.714 49.8569C728.714 51.6797 727.571 53.0055 726.143 53.0055H720.857ZM752.714 53.0055C751.143 53.0055 750 51.6797 750 49.8569C750 48.1998 751.143 46.874 752.714 46.874H772.143C773.572 46.874 774.714 48.1998 774.714 49.8569C774.714 51.6797 773.572 53.0055 772.143 53.0055H752.714ZM743 24.3369C743 25.994 741.714 27.3197 740.286 27.3197H720.857C719.429 27.3197 718.143 25.994 718.143 24.3369C718.143 22.514 719.429 21.1883 720.857 21.1883H740.286C741.714 21.1883 743 22.514 743 24.3369ZM766.857 27.3197C765.429 27.3197 764.143 25.994 764.143 24.3369C764.143 22.514 765.429 21.1883 766.857 21.1883H772.143C773.572 21.1883 774.857 22.514 774.857 24.3369C774.857 25.994 773.572 27.3197 772.143 27.3197H766.857ZM753.572 32.4569C749.714 32.4569 746.571 28.8112 746.571 24.3369C746.571 19.6969 749.714 16.0512 753.572 16.0512C757.572 16.0512 760.714 19.6969 760.714 24.3369C760.714 28.8112 757.572 32.4569 753.572 32.4569ZM739.429 58.1426C735.571 58.1426 732.429 54.4969 732.429 49.8569C732.429 45.3826 735.571 41.7369 739.429 41.7369C743.286 41.7369 746.571 45.3826 746.571 49.8569C746.571 54.4969 743.286 58.1426 739.429 58.1426ZM1304 -169.549C1305.57 -169.549 1306.86 -168.057 1306.86 -166.235V-110.057C1306.86 -108.235 1305.57 -106.743 1304 -106.743H1298.14C1296.57 -106.743 1295.29 -108.235 1295.29 -110.057V-166.235C1295.29 -168.057 1296.57 -169.549 1298.14 -169.549H1304ZM1331.14 -169.549C1332.71 -169.549 1334.14 -168.057 1334.14 -166.235V-110.057C1334.14 -108.235 1332.71 -106.743 1331.14 -106.743H1325.43C1323.71 -106.743 1322.43 -108.235 1322.43 -110.057V-166.235C1322.43 -168.057 1323.71 -169.549 1325.43 -169.549H1331.14ZM1160 -120.332L1164.86 -134.417C1165.71 -136.737 1166.86 -138.726 1168.29 -140.549L1195.14 -171.537C1198.29 -175.349 1203.57 -175.349 1206.71 -171.537C1210 -167.892 1210 -161.76 1206.71 -158.115L1180 -126.96C1178.43 -125.303 1176.71 -123.977 1174.71 -122.983L1162.57 -117.349C1161 -116.52 1159.43 -118.343 1160 -120.332ZM1152.57 -114.2C1152.57 -111.217 1154.71 -108.566 1157.29 -108.566H1194.14C1196.86 -108.566 1199 -111.217 1199 -114.2V-137.897C1199 -139.72 1200.29 -141.212 1201.86 -141.212C1203.57 -141.212 1204.86 -139.72 1204.86 -137.897V-114.2C1204.86 -107.406 1200 -101.937 1194.14 -101.937H1157.29C1151.43 -101.937 1146.71 -107.406 1146.71 -114.2V-156.955C1146.71 -163.749 1151.43 -169.383 1157.29 -169.383H1177.71C1179.29 -169.383 1180.57 -167.892 1180.57 -165.903C1180.57 -164.08 1179.29 -162.589 1177.71 -162.589H1157.29C1154.71 -162.589 1152.57 -160.103 1152.57 -156.955V-114.2ZM1009.29 -123.812L1051.57 -172.863C1054.86 -176.675 1060 -176.675 1063.29 -172.863C1066.43 -169.217 1066.43 -163.086 1063.29 -159.44L1020.86 -110.389C1019.43 -108.566 1017.71 -107.24 1015.71 -106.412L1003.43 -100.612C1001.86 -99.9488 1000.29 -101.772 1001 -103.595L1005.86 -117.68C1006.57 -120 1007.86 -122.155 1009.29 -123.812ZM857.857 -4.82883C857.857 -8.64024 860.429 -11.6231 863.572 -11.6231H868.143C870.857 -11.6231 873.143 -9.46883 873.714 -6.32025L876.571 8.09689C877.143 11.5769 875.429 15.0569 872.429 16.0512L868.857 17.2112C867.286 17.874 866.286 19.6969 867 21.5198C871.429 34.2798 880.286 44.3883 891.143 49.6912C892.714 50.354 894.429 49.3598 894.857 47.5369L895.857 43.2283C896.714 39.914 899.714 37.7598 902.714 38.5883L915.286 41.7369C917.857 42.3998 919.857 45.2169 919.857 48.3655V53.5026C919.857 57.314 917.143 60.2969 914 60.2969H908.143C903.714 60.2969 899.429 59.634 895.286 58.3083C877.857 53.0055 864.143 37.0969 859.429 16.714C858.429 12.074 857.857 6.93689 857.857 1.79974V-4.82883Z" fill="#0F172A"/>
<path fill-rule="evenodd" clip-rule="evenodd" d="M1289.43 331.24C1289.43 325.771 1293.29 321.297 1298 321.297H1336.57C1341.29 321.297 1345.14 325.771 1345.14 331.24V371.011C1345.14 376.48 1341.29 380.954 1336.57 380.954H1298C1293.29 380.954 1289.43 376.48 1289.43 371.011V331.24ZM1300.86 338.034L1305.71 343.668L1300.86 349.468C1300 350.463 1300 351.954 1300.86 352.948C1301.71 353.943 1303 353.943 1303.86 352.948L1310.29 345.491C1311.14 344.497 1311.14 343.005 1310.29 342.011L1303.86 334.554C1303 333.56 1301.71 333.56 1300.86 334.554C1300 335.548 1300 337.04 1300.86 338.034ZM1313 348.64C1311.86 348.64 1310.86 349.8 1310.86 351.125C1310.86 352.617 1311.86 353.611 1313 353.611H1321.57C1322.86 353.611 1323.71 352.617 1323.71 351.125C1323.71 349.8 1322.86 348.64 1321.57 348.64H1313ZM-2.57129 -160.435C-2.57129 -165.903 1.28585 -170.377 6.00014 -170.377H44.5716C49.2859 -170.377 53.143 -165.903 53.143 -160.435V-128.12C53.143 -122.486 49.2859 -118.177 44.5716 -118.177H36.0001V-117.183C36.0001 -115.195 36.7144 -113.372 37.8573 -112.046L39.7144 -109.892C40.2859 -109.229 40.4287 -108.069 40.143 -107.24C39.8573 -106.246 39.0001 -105.749 38.143 -105.749H12.4287C11.5716 -105.749 10.8573 -106.246 10.4287 -107.24C10.143 -108.069 10.2859 -109.229 11.0001 -109.892L12.7144 -112.046C13.8573 -113.372 14.5716 -115.195 14.5716 -117.183V-118.177H6.00014C1.28585 -118.177 -2.57129 -122.486 -2.57129 -128.12V-160.435ZM1.71443 -160.435V-135.577C1.71443 -132.76 3.71443 -130.606 6.00014 -130.606H44.5716C47.0001 -130.606 48.8573 -132.76 48.8573 -135.577V-160.435C48.8573 -163.086 47.0001 -165.406 44.5716 -165.406H6.00014C3.71443 -165.406 1.71443 -163.086 1.71443 -160.435ZM38.143 366.04H12.4287V336.211H38.143V366.04Z" fill="#0F172A"/>
</g>
</g>
<defs>
<clipPath id="clip0_70_5414">
<rect width="50" height="50" fill="white"/>
</clipPath>
</defs>
</svg>
