<svg width="50" height="50" viewBox="0 0 50 50" fill="none" xmlns="http://www.w3.org/2000/svg">
<g clip-path="url(#clip0_70_5425)">
<mask id="mask0_70_5425" style="mask-type:luminance" maskUnits="userSpaceOnUse" x="-516" y="-762" width="1584" height="1224">
<path d="M-516 -762H1068V462H-516V-762Z" fill="white"/>
</mask>
<g mask="url(#mask0_70_5425)">
<path fill-rule="evenodd" clip-rule="evenodd" d="M37.9998 -59.4C37.1998 -58.6 35.8999 -58.6 35.0999 -59.4L15.4998 -79V-63.5C15.4998 -62.4 14.5999 -61.5 13.4998 -61.5C12.2999 -61.5 11.3998 -62.4 11.3998 -63.5V-83.9C11.3998 -85 12.2999 -85.9 13.4998 -85.9H33.7999C34.8999 -85.9 35.7999 -85 35.7999 -83.9C35.7999 -82.8 34.8999 -81.9 33.7999 -81.9H18.3998L37.9998 -62.3C38.7999 -61.5 38.7999 -60.2 37.9998 -59.4ZM209.5 25.1C209.5 13.1 219.2 3.39999 231.2 3.39999C243.2 3.39999 252.9 13.1 252.9 25.1C252.9 37.1 243.2 46.8 231.2 46.8C219.2 46.8 209.5 37.1 209.5 25.1ZM229.1 33.9C229.1 35 230 35.9 231.2 35.9C232.3 35.9 233.2 35 233.2 33.9V21.5L238.5 27.1C239.3 28 240.5 28 241.4 27.3C242.2 26.5 242.2 25.2 241.5 24.4L232.7 14.9C232.3 14.5 231.7 14.2 231.2 14.2C230.6 14.2 230.1 14.5 229.7 14.9L220.9 24.4C220.1 25.2 220.1 26.5 221 27.3C221.8 28 223.1 28 223.8 27.1L229.1 21.5V33.9ZM-163.7 -72.4C-163.7 -71.3 -164.6 -70.4 -165.8 -70.4H-183.8L-177.9 -65.1C-177.1 -64.3 -177.1 -63 -177.9 -62.2C-178.6 -61.4 -179.9 -61.3 -180.7 -62.1L-190.2 -70.9C-190.6 -71.3 -190.9 -71.9 -190.9 -72.4C-190.9 -73 -190.6 -73.5 -190.2 -73.9L-180.7 -82.7C-179.9 -83.5 -178.6 -83.4 -177.9 -82.6C-177.1 -81.8 -177.1 -80.5 -177.9 -79.8L-183.8 -74.4H-165.8C-164.6 -74.4 -163.7 -73.5 -163.7 -72.4ZM411.5 14.2C410.3 14.2 409.4 15.1 409.4 16.2V39.3C409.4 40.4 410.3 41.3 411.5 41.3H434.6C435.7 41.3 436.6 40.4 436.6 39.3V28.4C436.6 27.3 437.5 26.4 438.6 26.4C439.8 26.4 440.7 27.3 440.7 28.4V39.3C440.7 42.7 437.9 45.4 434.6 45.4H411.5C408.1 45.4 405.3 42.7 405.3 39.3V16.2C405.3 12.8 408.1 10.1 411.5 10.1H425C426.2 10.1 427.1 11 427.1 12.1C427.1 13.3 426.2 14.2 425 14.2H411.5ZM417 31L441.6 8.7H434.6C433.5 8.7 432.6 7.8 432.6 6.7C432.6 5.59999 433.5 4.7 434.6 4.7H446.9C448 4.7 448.9 5.59999 448.9 6.7V18.9C448.9 20 448 21 446.9 21C445.7 21 444.8 20 444.8 18.9V11.3L419.7 34C418.9 34.8 417.6 34.7 416.8 33.9C416.1 33 416.1 31.8 417 31ZM-90.1002 -72.4C-90.1002 -73.5 -89.2001 -74.4 -88.1002 -74.4H-70.0002L-75.9002 -79.8C-76.7002 -80.5 -76.7001 -81.8 -76.0002 -82.6C-75.2001 -83.4 -73.9002 -83.5 -73.1002 -82.7L-63.6002 -73.9C-63.2001 -73.5 -63.0002 -73 -63.0002 -72.4C-63.0002 -71.9 -63.2001 -71.3 -63.6002 -70.9L-73.1002 -62.1C-73.9002 -61.3 -75.2001 -61.4 -76.0002 -62.2C-76.7001 -63 -76.7002 -64.3 -75.9002 -65.1L-70.0002 -70.4H-88.1002C-89.2001 -70.4 -90.1002 -71.3 -90.1002 -72.4ZM124.1 -66.4C124.9 -65.6 124.9 -64.3 124.1 -63.5C123.3 -62.7 122 -62.7 121.2 -63.5L116.6 -68.1C116.733 -65.2333 116.967 -62.3667 117.3 -59.5C117.4 -58.7 118.1 -58 119 -57.9C122.2 -57.6333 125.467 -57.5 128.8 -57.5C132.067 -57.5 135.3 -57.6333 138.5 -57.9C139.4 -58 140.1 -58.7 140.2 -59.5C140.4 -60.9 140.533 -62.3333 140.6 -63.8C140.7 -64.9 141.7 -65.7 142.8 -65.6C143.9 -65.5 144.8 -64.6 144.7 -63.4C144.566 -61.9333 144.4 -60.5 144.2 -59.1C143.9 -56.3 141.7 -54.1 138.9 -53.9C135.566 -53.5667 132.2 -53.4 128.8 -53.4C125.333 -53.4 121.933 -53.5667 118.6 -53.9C115.8 -54.1 113.6 -56.3 113.3 -59.1C112.9 -62.1 112.667 -65.1333 112.6 -68.2L107.8 -63.5C107 -62.7 105.7 -62.7 105 -63.5C104.2 -64.3 104.2 -65.6 105 -66.4L113.1 -74.5C113.9 -75.3 115.2 -75.3 116 -74.5L124.1 -66.4ZM119 -86.9C118.1 -86.8 117.4 -86.2 117.3 -85.3C117.1 -83.9 116.967 -82.5 116.9 -81.1C116.8 -80 115.8 -79.1 114.7 -79.2C113.6 -79.3 112.7 -80.3 112.8 -81.4C112.933 -82.8667 113.066 -84.3333 113.2 -85.8C113.6 -88.6 115.8 -90.7 118.6 -91C121.933 -91.2667 125.3 -91.4 128.7 -91.4C132.167 -91.4 135.566 -91.2667 138.9 -91C141.7 -90.7 143.9 -88.6 144.2 -85.8C144.6 -82.7333 144.833 -79.6667 144.9 -76.6L149.7 -81.3C150.5 -82.1 151.8 -82.1 152.5 -81.3C153.3 -80.5 153.3 -79.3 152.5 -78.5L144.4 -70.3C143.6 -69.5 142.3 -69.5 141.5 -70.3L133.4 -78.5C132.6 -79.3 132.6 -80.5 133.4 -81.3C134.2 -82.1 135.5 -82.1 136.3 -81.3L140.9 -76.8C140.767 -79.6667 140.533 -82.5 140.2 -85.3C140.1 -86.2 139.4 -86.8 138.5 -86.9C135.3 -87.2333 132.033 -87.4 128.7 -87.4C125.433 -87.4 122.2 -87.2333 119 -86.9ZM322.5 -83C319.8 -83 317.6 -85.2 317.6 -87.9C317.6 -90.7 319.8 -92.9 322.5 -92.9C325.3 -92.9 327.5 -90.7 327.5 -87.9C327.5 -85.2 325.3 -83 322.5 -83ZM331.8 -86.1C330.8 -86.1 330 -86.9 330 -87.9C330 -89 330.8 -89.8 331.8 -89.8H345.4C346.5 -89.8 347.3 -89 347.3 -87.9C347.3 -86.9 346.5 -86.1 345.4 -86.1H331.8ZM315.1 -87.9C315.1 -86.9 314.3 -86.1 313.3 -86.1H309.6C308.5 -86.1 307.7 -86.9 307.7 -87.9C307.7 -88.9 308.5 -89.8 309.6 -89.8H313.3C314.3 -89.8 315.1 -88.9 315.1 -87.9ZM309.6 -55.1C308.5 -55.1 307.7 -55.9 307.7 -57C307.7 -58 308.5 -58.8 309.6 -58.8H313.3C314.3 -58.8 315.1 -58 315.1 -57C315.1 -55.9 314.3 -55.1 313.3 -55.1H309.6ZM331.9 -55.1C330.8 -55.1 330 -55.9 330 -57C330 -58 330.8 -58.8 331.9 -58.8H345.5C346.5 -58.8 347.3 -58 347.3 -57C347.3 -55.9 346.5 -55.1 345.5 -55.1H331.9ZM325.1 -72.4C325.1 -71.4 324.2 -70.6 323.2 -70.6H309.6C308.6 -70.6 307.7 -71.4 307.7 -72.4C307.7 -73.5 308.6 -74.3 309.6 -74.3H323.2C324.2 -74.3 325.1 -73.5 325.1 -72.4ZM341.8 -70.6C340.8 -70.6 339.9 -71.4 339.9 -72.4C339.9 -73.5 340.8 -74.3 341.8 -74.3H345.5C346.5 -74.3 347.4 -73.5 347.4 -72.4C347.4 -71.4 346.5 -70.6 345.5 -70.6H341.8ZM332.5 -67.5C329.8 -67.5 327.6 -69.7 327.6 -72.4C327.6 -75.2 329.8 -77.4 332.5 -77.4C335.3 -77.4 337.5 -75.2 337.5 -72.4C337.5 -69.7 335.3 -67.5 332.5 -67.5ZM322.6 -52C319.9 -52 317.7 -54.2 317.7 -57C317.7 -59.7 319.9 -61.9 322.6 -61.9C325.3 -61.9 327.6 -59.7 327.6 -57C327.6 -54.2 325.3 -52 322.6 -52ZM717.8 -189.4C718.9 -189.4 719.8 -188.5 719.8 -187.4V-153.5C719.8 -152.4 718.9 -151.5 717.8 -151.5H713.7C712.6 -151.5 711.7 -152.4 711.7 -153.5V-187.4C711.7 -188.5 712.6 -189.4 713.7 -189.4H717.8ZM736.8 -189.4C737.9 -189.4 738.9 -188.5 738.9 -187.4V-153.5C738.9 -152.4 737.9 -151.5 736.8 -151.5H732.8C731.6 -151.5 730.7 -152.4 730.7 -153.5V-187.4C730.7 -188.5 731.6 -189.4 732.8 -189.4H736.8ZM617 -159.7L620.4 -168.2C621 -169.6 621.8 -170.8 622.8 -171.9L641.6 -190.6C643.8 -192.9 647.5 -192.9 649.7 -190.6C652 -188.4 652 -184.7 649.7 -182.5L631 -163.7C629.9 -162.7 628.7 -161.9 627.3 -161.3L618.8 -157.9C617.7 -157.4 616.6 -158.5 617 -159.7ZM611.8 -156C611.8 -154.2 613.3 -152.6 615.1 -152.6H640.9C642.8 -152.6 644.3 -154.2 644.3 -156V-170.3C644.3 -171.4 645.2 -172.3 646.3 -172.3C647.5 -172.3 648.4 -171.4 648.4 -170.3V-156C648.4 -151.9 645 -148.6 640.9 -148.6H615.1C611 -148.6 607.7 -151.9 607.7 -156V-181.8C607.7 -185.9 611 -189.3 615.1 -189.3H629.4C630.5 -189.3 631.4 -188.4 631.4 -187.2C631.4 -186.1 630.5 -185.2 629.4 -185.2H615.1C613.3 -185.2 611.8 -183.7 611.8 -181.8V-156ZM511.5 -161.8L541.1 -191.4C543.4 -193.7 547 -193.7 549.3 -191.4C551.5 -189.2 551.5 -185.5 549.3 -183.3L519.6 -153.7C518.6 -152.6 517.4 -151.8 516 -151.3L507.4 -147.8C506.3 -147.4 505.2 -148.5 505.7 -149.6L509.1 -158.1C509.6 -159.5 510.5 -160.8 511.5 -161.8ZM405.5 -90C405.5 -92.3 407.3 -94.1 409.5 -94.1H412.7C414.6 -94.1 416.2 -92.8 416.6 -90.9L418.6 -82.2C419 -80.1 417.8 -78 415.7 -77.4L413.2 -76.7C412.1 -76.3 411.4 -75.2 411.9 -74.1C415 -66.4 421.2 -60.3 428.8 -57.1C429.9 -56.7 431.1 -57.3 431.4 -58.4L432.1 -61C432.7 -63 434.8 -64.3 436.9 -63.8L445.7 -61.9C447.5 -61.5 448.9 -59.8 448.9 -57.9V-54.8C448.9 -52.5 447 -50.7 444.8 -50.7H440.7C437.6 -50.7 434.6 -51.1 431.7 -51.9C419.5 -55.1 409.9 -64.7 406.6 -77C405.9 -79.8 405.5 -82.9 405.5 -86V-90Z" fill="#0F172A"/>
<path fill-rule="evenodd" clip-rule="evenodd" d="M0.599854 -183.2C0.599854 -186.6 3.29985 -189.3 6.69985 -189.3H43.2999C46.6999 -189.3 49.3999 -186.6 49.3999 -183.2V-157.5C49.3999 -154.1 46.6999 -151.4 43.2999 -151.4H6.69985C3.29985 -151.4 0.599854 -154.1 0.599854 -157.5V-183.2ZM4.59985 -167.4V-157.4C4.59985 -156.3 5.59985 -155.4 6.69985 -155.4H43.2999C44.3999 -155.4 45.2999 -156.3 45.2999 -157.4V-164.7L39.2999 -170.7C38.4999 -171.5 37.1999 -171.5 36.3999 -170.7L31.2999 -165.5L32.4999 -164.3C33.2999 -163.5 33.2999 -162.2 32.4999 -161.4C31.6999 -160.6 30.4999 -160.6 29.6999 -161.4L15.5999 -175.5C14.7999 -176.3 13.4999 -176.3 12.6999 -175.5L4.59985 -167.4ZM27.6999 -181.1C26.1999 -181.1 24.8999 -179.9 24.8999 -178.4C24.8999 -176.9 26.1999 -175.7 27.6999 -175.7C29.1999 -175.7 30.3999 -176.9 30.3999 -178.4C30.3999 -179.9 29.1999 -181.1 27.6999 -181.1ZM209.4 -170.2C209.4 -182.2 219.1 -191.9 231.1 -191.9C243.1 -191.9 252.8 -182.2 252.8 -170.2C252.8 -158.3 243.1 -148.5 231.1 -148.5C219.1 -148.5 209.4 -158.3 209.4 -170.2ZM225.7 -176.3V-164.1C225.7 -163.4 226.1 -162.7 226.8 -162.4C227.4 -162 228.2 -162 228.8 -162.4L238.3 -168.5C238.9 -168.9 239.3 -169.6 239.3 -170.2C239.3 -170.9 238.9 -171.6 238.3 -172L228.8 -178.1C228.2 -178.5 227.4 -178.5 226.8 -178.1C226.1 -177.8 225.7 -177.1 225.7 -176.3ZM137.4 -186.5C138.6 -186.5 139.5 -185.6 139.5 -184.5V-156C139.5 -154.9 138.6 -154 137.4 -154H136.1C135 -154 134.1 -154.9 134.1 -156V-184.5C134.1 -185.6 135 -186.5 136.1 -186.5H137.4ZM151 -186.5C152.1 -186.5 153 -185.6 153 -184.5V-156C153 -154.9 152.1 -154 151 -154H149.6C148.5 -154 147.6 -154.9 147.6 -156V-184.5C147.6 -185.6 148.5 -186.5 149.6 -186.5H151ZM127.6 -173.7C130.1 -172.1 130.1 -168.4 127.6 -166.8L110.4 -156.2C107.7 -154.5 104.2 -156.5 104.2 -159.6V-180.8C104.2 -184 107.7 -186 110.4 -184.3L127.6 -173.7ZM342.3 -173.7C344.8 -172.1 344.8 -168.4 342.3 -166.8L316.9 -150.8C314.2 -149.1 310.7 -151.1 310.7 -154.3V-186.2C310.7 -189.4 314.2 -191.4 316.9 -189.7L342.3 -173.7ZM305.8 25.2001C305.8 13.2001 315.5 3.50009 327.5 3.50009C339.5 3.50009 349.2 13.2001 349.2 25.2001C349.2 37.2001 339.5 46.9001 327.5 46.9001C315.5 46.9001 305.8 37.2001 305.8 25.2001ZM329.5 16.4001C329.5 15.3001 328.6 14.4001 327.5 14.4001C326.4 14.4001 325.4 15.3001 325.4 16.4001V23.2001H318.7C317.5 23.2001 316.6 24.1001 316.6 25.2001C316.6 26.4001 317.5 27.3001 318.7 27.3001H325.4V34.0001C325.4 35.2001 326.4 36.1001 327.5 36.1001C328.6 36.1001 329.5 35.2001 329.5 34.0001V27.3001H336.3C337.4 27.3001 338.3 26.4001 338.3 25.2001C338.3 24.1001 337.4 23.2001 336.3 23.2001H329.5V16.4001Z" fill="#0F172A"/>
<path fill-rule="evenodd" clip-rule="evenodd" d="M707.6 112.8C707.6 109.5 710.3 106.8 713.6 106.8H740.6C743.9 106.8 746.6 109.5 746.6 112.8V136.8C746.6 140.1 743.9 142.8 740.6 142.8H713.6C710.3 142.8 707.6 140.1 707.6 136.8V112.8ZM715.6 116.9L719 120.3L715.6 123.8C715 124.4 715 125.3 715.6 125.9C716.2 126.5 717.1 126.5 717.7 125.9L722.2 121.4C722.8 120.8 722.8 119.9 722.2 119.3L717.7 114.8C717.1 114.2 716.2 114.2 715.6 114.8C715 115.4 715 116.3 715.6 116.9ZM724.1 123.3C723.3 123.3 722.6 124 722.6 124.8C722.6 125.7 723.3 126.3 724.1 126.3H730.1C731 126.3 731.6 125.7 731.6 124.8C731.6 124 731 123.3 730.1 123.3H724.1ZM-196.8 -183.9C-196.8 -187.2 -194.1 -189.9 -190.8 -189.9H-163.8C-160.5 -189.9 -157.8 -187.2 -157.8 -183.9V-164.4C-157.8 -161 -160.5 -158.4 -163.8 -158.4H-169.8V-157.8C-169.8 -156.6 -169.3 -155.5 -168.5 -154.7L-167.2 -153.4C-166.8 -153 -166.7 -152.3 -166.9 -151.8C-167.1 -151.2 -167.7 -150.9 -168.3 -150.9H-186.3C-186.9 -150.9 -187.4 -151.2 -187.7 -151.8C-187.9 -152.3 -187.8 -153 -187.3 -153.4L-186.1 -154.7C-185.3 -155.5 -184.8 -156.6 -184.8 -157.8V-158.4H-190.8C-194.1 -158.4 -196.8 -161 -196.8 -164.4V-183.9ZM-193.8 -183.9V-168.9C-193.8 -167.2 -192.4 -165.9 -190.8 -165.9H-163.8C-162.1 -165.9 -160.8 -167.2 -160.8 -168.9V-183.9C-160.8 -185.5 -162.1 -186.9 -163.8 -186.9H-190.8C-192.4 -186.9 -193.8 -185.5 -193.8 -183.9ZM-168.3 133.8H-186.3V115.8H-168.3V133.8Z" fill="#0F172A"/>
<path fill-rule="evenodd" clip-rule="evenodd" d="M-55.6 135.3C-55.6 138.6 -58.3 141.3 -61.6 141.3H-91.6C-94.9 141.3 -97.6 138.6 -97.6 135.3V120.3H-55.6V135.3ZM-90.1 129.3H-78.1C-77.3 129.3 -76.6 128.7 -76.6 127.8C-76.6 127 -77.3 126.3 -78.1 126.3H-90.1C-90.9 126.3 -91.6 127 -91.6 127.8C-91.6 128.7 -90.9 129.3 -90.1 129.3ZM-90.1 132.3C-90.9 132.3 -91.6 133 -91.6 133.8C-91.6 134.7 -90.9 135.3 -90.1 135.3H-84.1C-83.3 135.3 -82.6 134.7 -82.6 133.8C-82.6 133 -83.3 132.3 -84.1 132.3H-90.1ZM-190 4.1001H-183.3C-179.1 4.1001 -175.8 7.4001 -175.8 11.6001V15.3001C-175.8 17.4001 -174.1 19.1001 -172 19.1001H-168.3C-164.1 19.1001 -160.8 22.4001 -160.8 26.6001V42.3001C-160.8 44.4001 -162.5 46.1001 -164.5 46.1001H-190C-192.1 46.1001 -193.8 44.4001 -193.8 42.3001V7.8001C-193.8 5.8001 -192.1 4.1001 -190 4.1001ZM-178.8 31.1001V37.1001C-178.8 37.9001 -178.1 38.6001 -177.3 38.6001C-176.5 38.6001 -175.8 37.9001 -175.8 37.1001V31.1001C-175.8 30.3001 -176.5 29.6001 -177.3 29.6001C-178.1 29.6001 -178.8 30.3001 -178.8 31.1001ZM-181.8 35.6001C-181.8 34.8001 -182.5 34.1001 -183.3 34.1001C-184.1 34.1001 -184.8 34.8001 -184.8 35.6001V37.1001C-184.8 37.9001 -184.1 38.6001 -183.3 38.6001C-182.5 38.6001 -181.8 37.9001 -181.8 37.1001V35.6001ZM-169.8 26.6001C-169.8 25.8001 -170.5 25.1001 -171.3 25.1001C-172.1 25.1001 -172.8 25.8001 -172.8 26.6001V37.1001C-172.8 37.9001 -172.1 38.6001 -171.3 38.6001C-170.5 38.6001 -169.8 37.9001 -169.8 37.1001V26.6001ZM-172.8 11.6001C-172.8 9.0001 -173.8 6.6001 -175.3 4.7001C-168.5 6.5001 -163.2 11.8001 -161.4 18.6001C-163.3 17.0001 -165.7 16.1001 -168.3 16.1001H-172C-172.5 16.1001 -172.8 15.7001 -172.8 15.3001V11.6001ZM26.5 11.6001V15.4001C26.5 17.5001 28.2 19.1001 30.2 19.1001H34C38.1 19.1001 41.5 22.5001 41.5 26.6001V42.4001C41.5 44.5001 39.8 46.1001 37.7 46.1001H12.2C10.2 46.1001 8.49995 44.5001 8.49995 42.4001V7.9001C8.49995 5.8001 10.2 4.1001 12.2 4.1001H19C23.1 4.1001 26.5 7.5001 26.5 11.6001ZM32.2 26.0001C32.7 25.3001 32.5 24.4001 31.8999 23.9001C31.2 23.4001 30.3 23.6001 29.8 24.3001L23.3 33.3001L20.1 30.1001C19.5 29.5001 18.5 29.5001 17.8999 30.1001C17.2999 30.7001 17.2999 31.6001 17.8999 32.2001L22.3999 36.7001C22.7 37.0001 23.2 37.2001 23.6 37.1001C24.1 37.1001 24.5 36.9001 24.7 36.5001L32.2 26.0001ZM40.9 18.7001C39 17.1001 36.6 16.1001 34 16.1001H30.2C29.8 16.1001 29.5 15.8001 29.5 15.4001V11.6001C29.5 9.0001 28.5 6.6001 26.8999 4.8001C33.7 6.5001 39.1 11.9001 40.9 18.7001ZM-81.1 30.4001C-81.1 28.3001 -79.4 26.6001 -77.4 26.6001C-75.3 26.6001 -73.6 28.3001 -73.6 30.4001C-73.6 32.5001 -75.3 34.1001 -77.4 34.1001C-79.4 34.1001 -81.1 32.5001 -81.1 30.4001Z" fill="#0F172A"/>
<path fill-rule="evenodd" clip-rule="evenodd" d="M-89.4001 4.1001H-82.6001C-78.5001 4.1001 -75.1001 7.4001 -75.1001 11.6001V15.3001C-75.1001 17.4001 -73.4001 19.1001 -71.4001 19.1001H-67.6001C-63.5001 19.1001 -60.1001 22.4001 -60.1001 26.6001V42.3001C-60.1001 44.4001 -61.8001 46.1001 -63.9001 46.1001H-89.4001C-91.4001 46.1001 -93.1001 44.4001 -93.1001 42.3001V7.8001C-93.1001 5.8001 -91.4001 4.1001 -89.4001 4.1001ZM-77.4001 37.1001C-76.0001 37.1001 -74.8001 36.7001 -73.8001 36.0001L-71.7001 38.1001C-71.1001 38.7001 -70.1001 38.7001 -69.6001 38.1001C-69.0001 37.6001 -69.0001 36.6001 -69.6001 36.0001L-71.7001 33.9001C-71.0001 32.9001 -70.6001 31.7001 -70.6001 30.3001C-70.6001 26.6001 -73.6001 23.6001 -77.4001 23.6001C-81.1001 23.6001 -84.1001 26.6001 -84.1001 30.3001C-84.1001 34.1001 -81.1001 37.1001 -77.4001 37.1001ZM-72.1001 11.6001C-72.1001 9.0001 -73.1001 6.6001 -74.7001 4.7001C-67.9001 6.5001 -62.5001 11.8001 -60.7001 18.6001C-62.6001 17.0001 -65.0001 16.1001 -67.6001 16.1001H-71.4001C-71.8001 16.1001 -72.1001 15.7001 -72.1001 15.3001V11.6001ZM113.7 45.8001C110.4 45.8001 107.7 43.1001 107.7 39.8001V23.5001L121.4 31.5001L114.5 35.3001C113.7 35.7001 113.5 36.6001 113.9 37.3001C114.2 38.0001 115.2 38.3001 115.9 37.9001L127.3 31.8001C128.1 31.3001 129.2 31.3001 130.1 31.8001L141.5 37.9001C142.2 38.3001 143.1 38.0001 143.5 37.3001C143.9 36.6001 143.6 35.7001 142.9 35.3001L135.9 31.5001L149.7 23.5001V39.8001C149.7 43.1001 147 45.8001 143.7 45.8001H113.7ZM107.7 20.0001V18.5001C107.7 16.3001 108.9 14.3001 110.8 13.2001L125.8 5.2001C127.6 4.2001 129.7 4.2001 131.5 5.2001L146.5 13.2001C148.5 14.3001 149.7 16.3001 149.7 18.5001V20.0001L132.8 29.9001L131.5 29.2001C129.7 28.2001 127.6 28.2001 125.8 29.2001L124.5 29.9001L107.7 20.0001ZM228.2 136.8C228.2 135.2 229.6 133.8 231.2 133.8C232.9 133.8 234.2 135.2 234.2 136.8C234.2 138.5 232.9 139.8 231.2 139.8C229.6 139.8 228.2 138.5 228.2 136.8ZM228.2 124.8C228.2 123.2 229.6 121.8 231.2 121.8C232.9 121.8 234.2 123.2 234.2 124.8C234.2 126.5 232.9 127.8 231.2 127.8C229.6 127.8 228.2 126.5 228.2 124.8ZM228.2 112.8C228.2 111.2 229.6 109.8 231.2 109.8C232.9 109.8 234.2 111.2 234.2 112.8C234.2 114.5 232.9 115.8 231.2 115.8C229.6 115.8 228.2 114.5 228.2 112.8ZM125.6 129.2C127.5 130.3 129.9 130.3 131.9 129.2L149.7 118.2V135.3C149.7 138.6 147 141.3 143.7 141.3H113.7C110.4 141.3 107.7 138.6 107.7 135.3V118.2L125.6 129.2ZM130.3 126.6C129.4 127.2 128.2 127.2 127.2 126.6L107.8 114.7V114.3C107.8 111 110.5 108.3 113.8 108.3H143.8C147.1 108.3 149.8 111 149.8 114.3V114.7L130.3 126.6ZM16.3999 135.3C16.3999 134.5 17.0999 133.8 17.8999 133.8H41.8999C42.6999 133.8 43.3999 134.5 43.3999 135.3C43.3999 136.1 42.6999 136.8 41.8999 136.8H17.8999C17.0999 136.8 16.3999 136.1 16.3999 135.3ZM6.5999 135.3C6.5999 134 7.5999 133 8.8999 133C10.0999 133 11.0999 134 11.0999 135.3C11.0999 136.5 10.0999 137.5 8.8999 137.5C7.5999 137.5 6.5999 136.5 6.5999 135.3ZM16.3999 124.8C16.3999 124 17.0999 123.3 17.8999 123.3H41.8999C42.6999 123.3 43.3999 124 43.3999 124.8C43.3999 125.6 42.6999 126.3 41.8999 126.3H17.8999C17.0999 126.3 16.3999 125.6 16.3999 124.8ZM6.5999 124.8C6.5999 123.5 7.5999 122.5 8.8999 122.5C10.0999 122.5 11.0999 123.5 11.0999 124.8C11.0999 126 10.0999 127 8.8999 127C7.5999 127 6.5999 126 6.5999 124.8ZM16.3999 114.3C16.3999 113.5 17.0999 112.8 17.8999 112.8H41.8999C42.6999 112.8 43.3999 113.5 43.3999 114.3C43.3999 115.1 42.6999 115.8 41.8999 115.8H17.8999C17.0999 115.8 16.3999 115.1 16.3999 114.3ZM6.5999 114.3C6.5999 113 7.5999 112 8.8999 112C10.0999 112 11.0999 113 11.0999 114.3C11.0999 115.5 10.0999 116.5 8.8999 116.5C7.5999 116.5 6.5999 115.5 6.5999 114.3ZM520.7 122.5C520.7 119.6 523 117.3 525.9 117.3C528.8 117.3 531.2 119.6 531.2 122.5C531.2 124 530.6 125.3 529.7 126.3C528.7 127.2 527.4 127.8 525.9 127.8C523 127.8 520.7 125.4 520.7 122.5Z" fill="#0F172A"/>
<path fill-rule="evenodd" clip-rule="evenodd" d="M547.7 124.8C547.7 135.6 538.9 144.3 528.2 144.3C517.4 144.3 508.7 135.6 508.7 124.8C508.7 114.1 517.4 105.3 528.2 105.3C538.9 105.3 547.7 114.1 547.7 124.8ZM525.9 114.3C521.4 114.3 517.7 118 517.7 122.6C517.7 127.1 521.4 130.8 525.9 130.8C527.7 130.8 529.3 130.3 530.6 129.4L534.6 133.4C535.2 134 536.1 134 536.7 133.4C537.3 132.8 537.3 131.9 536.7 131.3L532.7 127.3C533.6 125.9 534.2 124.3 534.2 122.6C534.2 118 530.5 114.3 525.9 114.3ZM446.6 105.3C447.4 105.3 448.1 106 448.1 106.8C448.1 107.7 447.4 108.3 446.6 108.3H445.1V129.3C445.1 132.6 442.4 135.3 439.1 135.3H436.7L439 142.4C439.3 143.1 438.8 144 438.1 144.3C437.3 144.5 436.4 144.1 436.2 143.3L435.5 141.3H418.7L418 143.3C417.7 144.1 416.9 144.5 416.1 144.3C415.3 144 414.9 143.1 415.2 142.4L417.5 135.3H415.1C411.8 135.3 409.1 132.6 409.1 129.3V108.3H407.6C406.7 108.3 406.1 107.7 406.1 106.8C406.1 106 406.7 105.3 407.6 105.3H446.6ZM428.6 118.8C428.6 118 427.9 117.3 427.1 117.3C426.2 117.3 425.6 118 425.6 118.8V126.3C425.6 127.2 426.2 127.8 427.1 127.8C427.9 127.8 428.6 127.2 428.6 126.3V118.8ZM434.6 114.3C434.6 113.5 433.9 112.8 433.1 112.8C432.2 112.8 431.6 113.5 431.6 114.3V126.3C431.6 127.2 432.2 127.8 433.1 127.8C433.9 127.8 434.6 127.2 434.6 126.3V114.3ZM434.5 138.3L433.5 135.3H420.7L419.7 138.3H434.5ZM422.5 123.3C422.5 122.5 421.9 121.8 421 121.8C420.2 121.8 419.5 122.5 419.5 123.3V126.3C419.5 127.2 420.2 127.8 421 127.8C421.9 127.8 422.5 127.2 422.5 126.3V123.3ZM637.7 4.0999C639.7 4.0999 641.4 5.7999 641.4 7.7999V13.7999C642.267 13.9332 643.133 14.0666 644 14.1999C646.9 14.5999 648.9 17.0999 648.9 19.9999V32.5999C648.9 35.8999 646.2 38.5999 642.9 38.5999H642.4L642.7 41.9999C642.9 44.1999 641.2 46.0999 639 46.0999H619.9C617.7 46.0999 616 44.1999 616.2 41.9999L616.5 38.5999H615.9C612.6 38.5999 609.9 35.8999 609.9 32.5999V19.9999C609.9 17.0999 612 14.5999 614.9 14.1999C615.7 14.0666 616.533 13.9332 617.4 13.7999V7.7999C617.4 5.7999 619.1 4.0999 621.2 4.0999H637.7ZM641.4 23.5999C642.3 23.5999 642.9 22.8999 642.9 22.0999C642.9 21.2999 642.3 20.5999 641.4 20.5999C640.6 20.5999 639.9 21.2999 639.9 22.0999C639.9 22.8999 640.6 23.5999 641.4 23.5999ZM629.4 29.5999C626.533 29.5999 623.7 29.7332 620.9 29.9999C620.5 30.0999 620.2 30.2999 620.2 30.6999L619.1 42.2999C619.1 42.6999 619.4 43.0999 619.9 43.0999H639C639.4 43.0999 639.7 42.6999 639.7 42.2999L638.7 30.6999C638.6 30.2999 638.3 30.0999 638 29.9999C635.2 29.7332 632.333 29.5999 629.4 29.5999ZM638.4 13.4999V7.7999C638.4 7.3999 638.1 7.0999 637.7 7.0999H621.2C620.8 7.0999 620.4 7.3999 620.4 7.7999V13.4999C623.4 13.2332 626.4 13.0999 629.4 13.0999C632.467 13.0999 635.467 13.2332 638.4 13.4999ZM635.4 20.5999C634.6 20.5999 633.9 21.2999 633.9 22.0999C633.9 22.8999 634.6 23.5999 635.4 23.5999C636.3 23.5999 636.9 22.8999 636.9 22.0999C636.9 21.2999 636.3 20.5999 635.4 20.5999ZM307.9 127.8C307.9 118.7 315.3 111.3 324.4 111.3C325.2 111.3 325.9 112 325.9 112.8V126.3H339.4C340.2 126.3 340.9 127 340.9 127.8C340.9 136.9 333.5 144.3 324.4 144.3C315.3 144.3 307.9 136.9 307.9 127.8ZM328.9 106.8C328.9 106 329.6 105.3 330.4 105.3C339.5 105.3 346.9 112.7 346.9 121.8C346.9 122.7 346.2 123.3 345.4 123.3H330.4C329.6 123.3 328.9 122.7 328.9 121.8V106.8ZM-57.6 -153.4C-57 -152.8 -57 -151.9 -57.6 -151.3C-58.2 -150.7 -59.1 -150.7 -59.7 -151.3L-95.7 -187.3C-96.3 -187.9 -96.3 -188.8 -95.7 -189.4C-95.1 -190 -94.2 -190 -93.6 -189.4L-57.6 -153.4ZM-55.7 -159C-55.7 -158 -56.1 -157.3 -56.7 -156.7L-66.2 -166.2V-178.5L-60.8 -183.9C-58.9 -185.7 -55.7 -184.4 -55.7 -181.7V-159ZM-69.2 -179.4V-169.3L-85.3 -185.4H-75.2C-71.8 -185.4 -69.2 -182.7 -69.2 -179.4ZM-97.7 -179.4C-97.7 -181 -97.1 -182.4 -96.1 -183.5L-70.4 -157.8C-71.5 -156.3 -73.2 -155.4 -75.2 -155.4H-91.7C-95 -155.4 -97.7 -158.1 -97.7 -161.4V-179.4Z" fill="#0F172A"/>
</g>
</g>
<defs>
<clipPath id="clip0_70_5425">
<rect width="50" height="50" fill="white"/>
</clipPath>
</defs>
</svg>
