<svg width="50" height="50" viewBox="0 0 50 50" fill="none" xmlns="http://www.w3.org/2000/svg">
<g clip-path="url(#clip0_70_5406)">
<mask id="mask0_70_5406" style="mask-type:luminance" maskUnits="userSpaceOnUse" x="-722" y="-566" width="1584" height="1224">
<path d="M-722 -566H862V658H-722V-566Z" fill="white"/>
</mask>
<g mask="url(#mask0_70_5406)">
<path fill-rule="evenodd" clip-rule="evenodd" d="M-168 136.6C-168.8 137.4 -170.1 137.4 -170.9 136.6L-190.5 117V132.5C-190.5 133.6 -191.4 134.5 -192.5 134.5C-193.7 134.5 -194.6 133.6 -194.6 132.5V112.1C-194.6 111 -193.7 110.1 -192.5 110.1H-172.2C-171.1 110.1 -170.2 111 -170.2 112.1C-170.2 113.2 -171.1 114.1 -172.2 114.1H-187.6L-168 133.7C-167.2 134.5 -167.2 135.8 -168 136.6ZM3.49985 221.1C3.49985 209.1 13.1999 199.4 25.1999 199.4C37.1999 199.4 46.8998 209.1 46.8998 221.1C46.8998 233.1 37.1999 242.8 25.1999 242.8C13.1999 242.8 3.49985 233.1 3.49985 221.1ZM23.0999 229.9C23.0999 231 23.9998 231.9 25.1999 231.9C26.2999 231.9 27.1999 231 27.1999 229.9V217.5L32.4998 223.1C33.2998 224 34.4998 224 35.3998 223.3C36.1998 222.5 36.1999 221.2 35.4998 220.4L26.6999 210.9C26.2999 210.5 25.6999 210.2 25.1999 210.2C24.5999 210.2 24.0999 210.5 23.6999 210.9L14.8998 220.4C14.0999 221.2 14.0999 222.5 14.9998 223.3C15.7998 224 17.0998 224 17.7998 223.1L23.0999 217.5V229.9ZM-369.7 123.6C-369.7 124.7 -370.6 125.6 -371.8 125.6H-389.8L-383.9 130.9C-383.1 131.7 -383.1 133 -383.9 133.8C-384.6 134.6 -385.9 134.7 -386.7 133.9L-396.2 125.1C-396.6 124.7 -396.9 124.1 -396.9 123.6C-396.9 123 -396.6 122.5 -396.2 122.1L-386.7 113.3C-385.9 112.5 -384.6 112.6 -383.9 113.4C-383.1 114.2 -383.1 115.5 -383.9 116.2L-389.8 121.6H-371.8C-370.6 121.6 -369.7 122.5 -369.7 123.6ZM205.5 210.2C204.3 210.2 203.4 211.1 203.4 212.2V235.3C203.4 236.4 204.3 237.3 205.5 237.3H228.6C229.7 237.3 230.6 236.4 230.6 235.3V224.4C230.6 223.3 231.5 222.4 232.6 222.4C233.8 222.4 234.7 223.3 234.7 224.4V235.3C234.7 238.7 231.9 241.4 228.6 241.4H205.5C202.1 241.4 199.3 238.7 199.3 235.3V212.2C199.3 208.8 202.1 206.1 205.5 206.1H219C220.2 206.1 221.1 207 221.1 208.1C221.1 209.3 220.2 210.2 219 210.2H205.5ZM211 227L235.6 204.7H228.6C227.5 204.7 226.6 203.8 226.6 202.7C226.6 201.6 227.5 200.7 228.6 200.7H240.9C242 200.7 242.9 201.6 242.9 202.7V214.9C242.9 216 242 217 240.9 217C239.7 217 238.8 216 238.8 214.9V207.3L213.7 230C212.9 230.8 211.6 230.7 210.8 229.9C210.1 229 210.1 227.8 211 227ZM-296.1 123.6C-296.1 122.5 -295.2 121.6 -294.1 121.6H-276L-281.9 116.2C-282.7 115.5 -282.7 114.2 -282 113.4C-281.2 112.6 -279.9 112.5 -279.1 113.3L-269.6 122.1C-269.2 122.5 -269 123 -269 123.6C-269 124.1 -269.2 124.7 -269.6 125.1L-279.1 133.9C-279.9 134.7 -281.2 134.6 -282 133.8C-282.7 133 -282.7 131.7 -281.9 130.9L-276 125.6H-294.1C-295.2 125.6 -296.1 124.7 -296.1 123.6ZM-81.9001 129.6C-81.1002 130.4 -81.1002 131.7 -81.9001 132.5C-82.7001 133.3 -84.0002 133.3 -84.8002 132.5L-89.4001 127.9C-89.2668 130.767 -89.0335 133.633 -88.7001 136.5C-88.6001 137.3 -87.9001 138 -87.0002 138.1C-83.8001 138.367 -80.5335 138.5 -77.2001 138.5C-73.9335 138.5 -70.7002 138.367 -67.5002 138.1C-66.6002 138 -65.9002 137.3 -65.8002 136.5C-65.6002 135.1 -65.4668 133.667 -65.4001 132.2C-65.3001 131.1 -64.3002 130.3 -63.2002 130.4C-62.1002 130.5 -61.2001 131.4 -61.3001 132.6C-61.4335 134.067 -61.6001 135.5 -61.8001 136.9C-62.1001 139.7 -64.3002 141.9 -67.1002 142.1C-70.4335 142.433 -73.8001 142.6 -77.2001 142.6C-80.6668 142.6 -84.0668 142.433 -87.4001 142.1C-90.2001 141.9 -92.4001 139.7 -92.7001 136.9C-93.1001 133.9 -93.3335 130.867 -93.4001 127.8L-98.2001 132.5C-99.0001 133.3 -100.3 133.3 -101 132.5C-101.8 131.7 -101.8 130.4 -101 129.6L-92.9001 121.5C-92.1002 120.7 -90.8001 120.7 -90.0002 121.5L-81.9001 129.6ZM-87.0002 109.1C-87.9001 109.2 -88.6001 109.8 -88.7001 110.7C-88.9001 112.1 -89.0335 113.5 -89.1002 114.9C-89.2002 116 -90.2002 116.9 -91.3002 116.8C-92.4002 116.7 -93.3001 115.7 -93.2001 114.6C-93.0668 113.133 -92.9335 111.667 -92.8002 110.2C-92.4002 107.4 -90.2001 105.3 -87.4001 105C-84.0668 104.733 -80.7002 104.6 -77.3002 104.6C-73.8335 104.6 -70.4335 104.733 -67.1002 105C-64.3002 105.3 -62.1001 107.4 -61.8001 110.2C-61.4001 113.267 -61.1668 116.333 -61.1002 119.4L-56.3001 114.7C-55.5002 113.9 -54.2002 113.9 -53.5002 114.7C-52.7002 115.5 -52.7002 116.7 -53.5002 117.5L-61.6002 125.7C-62.4001 126.5 -63.7002 126.5 -64.5002 125.7L-72.6002 117.5C-73.4001 116.7 -73.4001 115.5 -72.6002 114.7C-71.8002 113.9 -70.5001 113.9 -69.7001 114.7L-65.1002 119.2C-65.2335 116.333 -65.4668 113.5 -65.8002 110.7C-65.9002 109.8 -66.6002 109.2 -67.5002 109.1C-70.7002 108.767 -73.9668 108.6 -77.3002 108.6C-80.5668 108.6 -83.8001 108.767 -87.0002 109.1ZM116.5 113C113.8 113 111.6 110.8 111.6 108.1C111.6 105.3 113.8 103.1 116.5 103.1C119.3 103.1 121.5 105.3 121.5 108.1C121.5 110.8 119.3 113 116.5 113ZM125.8 109.9C124.8 109.9 124 109.1 124 108.1C124 107 124.8 106.2 125.8 106.2H139.4C140.5 106.2 141.3 107 141.3 108.1C141.3 109.1 140.5 109.9 139.4 109.9H125.8ZM109.1 108.1C109.1 109.1 108.3 109.9 107.3 109.9H103.6C102.5 109.9 101.7 109.1 101.7 108.1C101.7 107.1 102.5 106.2 103.6 106.2H107.3C108.3 106.2 109.1 107.1 109.1 108.1ZM103.6 140.9C102.5 140.9 101.7 140.1 101.7 139C101.7 138 102.5 137.2 103.6 137.2H107.3C108.3 137.2 109.1 138 109.1 139C109.1 140.1 108.3 140.9 107.3 140.9H103.6ZM125.9 140.9C124.8 140.9 124 140.1 124 139C124 138 124.8 137.2 125.9 137.2H139.5C140.5 137.2 141.3 138 141.3 139C141.3 140.1 140.5 140.9 139.5 140.9H125.9ZM119.1 123.6C119.1 124.6 118.2 125.4 117.2 125.4H103.6C102.6 125.4 101.7 124.6 101.7 123.6C101.7 122.5 102.6 121.7 103.6 121.7H117.2C118.2 121.7 119.1 122.5 119.1 123.6ZM135.8 125.4C134.8 125.4 133.9 124.6 133.9 123.6C133.9 122.5 134.8 121.7 135.8 121.7H139.5C140.5 121.7 141.4 122.5 141.4 123.6C141.4 124.6 140.5 125.4 139.5 125.4H135.8ZM126.5 128.5C123.8 128.5 121.6 126.3 121.6 123.6C121.6 120.8 123.8 118.6 126.5 118.6C129.3 118.6 131.5 120.8 131.5 123.6C131.5 126.3 129.3 128.5 126.5 128.5ZM116.6 144C113.9 144 111.7 141.8 111.7 139C111.7 136.3 113.9 134.1 116.6 134.1C119.3 134.1 121.6 136.3 121.6 139C121.6 141.8 119.3 144 116.6 144ZM511.8 6.6C512.9 6.6 513.8 7.5 513.8 8.6V42.5C513.8 43.6 512.9 44.5 511.8 44.5H507.7C506.6 44.5 505.7 43.6 505.7 42.5V8.6C505.7 7.5 506.6 6.6 507.7 6.6H511.8ZM530.8 6.6C531.9 6.6 532.9 7.5 532.9 8.6V42.5C532.9 43.6 531.9 44.5 530.8 44.5H526.8C525.6 44.5 524.7 43.6 524.7 42.5V8.6C524.7 7.5 525.6 6.6 526.8 6.6H530.8ZM411 36.3L414.4 27.8C415 26.4 415.8 25.2 416.8 24.1L435.6 5.4C437.8 3.1 441.5 3.1 443.7 5.4C446 7.6 446 11.3 443.7 13.5L425 32.3C423.9 33.3 422.7 34.1 421.3 34.7L412.8 38.1C411.7 38.6 410.6 37.5 411 36.3ZM405.8 40C405.8 41.8 407.3 43.4 409.1 43.4H434.9C436.8 43.4 438.3 41.8 438.3 40V25.7C438.3 24.6 439.2 23.7 440.3 23.7C441.5 23.7 442.4 24.6 442.4 25.7V40C442.4 44.1 439 47.4 434.9 47.4H409.1C405 47.4 401.7 44.1 401.7 40V14.2C401.7 10.1 405 6.7 409.1 6.7H423.4C424.5 6.7 425.4 7.6 425.4 8.8C425.4 9.9 424.5 10.8 423.4 10.8H409.1C407.3 10.8 405.8 12.3 405.8 14.2V40ZM305.5 34.2L335.1 4.6C337.4 2.3 341 2.3 343.3 4.6C345.5 6.8 345.5 10.5 343.3 12.7L313.6 42.3C312.6 43.4 311.4 44.2 310 44.7L301.4 48.2C300.3 48.6 299.2 47.5 299.7 46.4L303.1 37.9C303.6 36.5 304.5 35.2 305.5 34.2ZM199.5 106C199.5 103.7 201.3 101.9 203.5 101.9H206.7C208.6 101.9 210.2 103.2 210.6 105.1L212.6 113.8C213 115.9 211.8 118 209.7 118.6L207.2 119.3C206.1 119.7 205.4 120.8 205.9 121.9C209 129.6 215.2 135.7 222.8 138.9C223.9 139.3 225.1 138.7 225.4 137.6L226.1 135C226.7 133 228.8 131.7 230.9 132.2L239.7 134.1C241.5 134.5 242.9 136.2 242.9 138.1V141.2C242.9 143.5 241 145.3 238.8 145.3H234.7C231.6 145.3 228.6 144.9 225.7 144.1C213.5 140.9 203.9 131.3 200.6 119C199.9 116.2 199.5 113.1 199.5 110V106Z" fill="#0F172A"/>
<path fill-rule="evenodd" clip-rule="evenodd" d="M-205.4 12.8001C-205.4 9.4001 -202.7 6.7001 -199.3 6.7001H-162.7C-159.3 6.7001 -156.6 9.4001 -156.6 12.8001V38.5001C-156.6 41.9001 -159.3 44.6001 -162.7 44.6001H-199.3C-202.7 44.6001 -205.4 41.9001 -205.4 38.5001V12.8001ZM-201.4 28.6001V38.6001C-201.4 39.7001 -200.4 40.6001 -199.3 40.6001H-162.7C-161.6 40.6001 -160.7 39.7001 -160.7 38.6001V31.3001L-166.7 25.3001C-167.5 24.5001 -168.8 24.5001 -169.6 25.3001L-174.7 30.5001L-173.5 31.7001C-172.7 32.5001 -172.7 33.8001 -173.5 34.6001C-174.3 35.4001 -175.5 35.4001 -176.3 34.6001L-190.4 20.5001C-191.2 19.7001 -192.5 19.7001 -193.3 20.5001L-201.4 28.6001ZM-178.3 14.9001C-179.8 14.9001 -181.1 16.1001 -181.1 17.6001C-181.1 19.1001 -179.8 20.3001 -178.3 20.3001C-176.8 20.3001 -175.6 19.1001 -175.6 17.6001C-175.6 16.1001 -176.8 14.9001 -178.3 14.9001ZM3.39984 25.8001C3.39984 13.8001 13.0999 4.1001 25.0999 4.1001C37.0999 4.1001 46.7999 13.8001 46.7999 25.8001C46.7999 37.7001 37.0999 47.5001 25.0999 47.5001C13.0999 47.5001 3.39984 37.7001 3.39984 25.8001ZM19.6998 19.7001V31.9001C19.6998 32.6001 20.0999 33.3001 20.7999 33.6001C21.3999 34.0001 22.1998 34.0001 22.7999 33.6001L32.2999 27.5001C32.8999 27.1001 33.2999 26.4001 33.2999 25.8001C33.2999 25.1001 32.8999 24.4001 32.2999 24.0001L22.7999 17.9001C22.1998 17.5001 21.3999 17.5001 20.7999 17.9001C20.0999 18.2001 19.6998 18.9001 19.6998 19.7001ZM-68.6002 9.5001C-67.4002 9.5001 -66.5002 10.4001 -66.5002 11.5001V40.0001C-66.5002 41.1001 -67.4002 42.0001 -68.6002 42.0001H-69.9001C-71.0002 42.0001 -71.9001 41.1001 -71.9001 40.0001V11.5001C-71.9001 10.4001 -71.0002 9.5001 -69.9001 9.5001H-68.6002ZM-55.0002 9.5001C-53.9001 9.5001 -53.0002 10.4001 -53.0002 11.5001V40.0001C-53.0002 41.1001 -53.9001 42.0001 -55.0002 42.0001H-56.4001C-57.5002 42.0001 -58.4001 41.1001 -58.4001 40.0001V11.5001C-58.4001 10.4001 -57.5002 9.5001 -56.4001 9.5001H-55.0002ZM-78.4002 22.3001C-75.9001 23.9001 -75.9001 27.6001 -78.4002 29.2001L-95.6002 39.8001C-98.3001 41.5001 -101.8 39.5001 -101.8 36.4001V15.2001C-101.8 12.0001 -98.3001 10.0001 -95.6002 11.7001L-78.4002 22.3001ZM136.3 22.3001C138.8 23.9001 138.8 27.6001 136.3 29.2001L110.9 45.2001C108.2 46.9001 104.7 44.9001 104.7 41.7001V9.8001C104.7 6.6001 108.2 4.6001 110.9 6.3001L136.3 22.3001ZM99.7999 221.2C99.7999 209.2 109.5 199.5 121.5 199.5C133.5 199.5 143.2 209.2 143.2 221.2C143.2 233.2 133.5 242.9 121.5 242.9C109.5 242.9 99.7999 233.2 99.7999 221.2ZM123.5 212.4C123.5 211.3 122.6 210.4 121.5 210.4C120.4 210.4 119.4 211.3 119.4 212.4V219.2H112.7C111.5 219.2 110.6 220.1 110.6 221.2C110.6 222.4 111.5 223.3 112.7 223.3H119.4V230C119.4 231.2 120.4 232.1 121.5 232.1C122.6 232.1 123.5 231.2 123.5 230V223.3H130.3C131.4 223.3 132.3 222.4 132.3 221.2C132.3 220.1 131.4 219.2 130.3 219.2H123.5V212.4Z" fill="#0F172A"/>
<path fill-rule="evenodd" clip-rule="evenodd" d="M43.4998 104.7C46.7998 104.7 49.5998 107.4 49.5998 110.8V136.5C49.5998 139.9 46.7998 142.6 43.4998 142.6H6.8998C3.4998 142.6 0.799805 139.9 0.799805 136.5V110.8C0.799805 107.4 3.4998 104.7 6.8998 104.7H43.4998ZM14.9998 112.8C14.9998 113.9 15.8998 114.9 16.9998 114.9C18.1998 114.9 19.0998 113.9 19.0998 112.8C19.0998 111.7 18.1998 110.8 16.9998 110.8C15.8998 110.8 14.9998 111.7 14.9998 112.8ZM8.8998 110.7C7.7998 110.7 6.7998 111.6 6.7998 112.8C6.7998 113.9 7.7998 114.8 8.8998 114.8C9.9998 114.8 10.8998 113.9 10.8998 112.8C10.8998 111.6 9.9998 110.7 8.8998 110.7ZM4.7998 120.9V136.5C4.7998 137.6 5.6998 138.5 6.8998 138.5H43.4998C44.5998 138.5 45.4998 137.6 45.4998 136.5V120.9H4.7998ZM25.1998 110.7C23.9998 110.7 23.0998 111.6 23.0998 112.8C23.0998 113.9 23.9998 114.8 25.1998 114.8C26.2998 114.8 27.1998 113.9 27.1998 112.8C27.1998 111.6 26.2998 110.7 25.1998 110.7ZM428.9 139.9C430.4 139.9 431.6 141.1 431.6 142.6C431.6 144.1 430.4 145.3 428.9 145.3C427.4 145.3 426.2 144.1 426.2 142.6C426.2 141.1 427.4 139.9 428.9 139.9ZM439.7 142.6C439.7 141.1 440.9 139.9 442.4 139.9C443.9 139.9 445.2 141.1 445.2 142.6C445.2 144.1 443.9 145.3 442.4 145.3C440.9 145.3 439.7 144.1 439.7 142.6ZM442.4 126.3C443.9 126.3 445.2 127.6 445.2 129.1C445.2 130.6 443.9 131.8 442.4 131.8C440.9 131.8 439.7 130.6 439.7 129.1C439.7 127.6 440.9 126.3 442.4 126.3ZM426.1 129.1C426.1 127.6 427.3 126.3 428.8 126.3H428.9C430.4 126.3 431.6 127.6 431.6 129.1C431.6 130.6 430.4 131.8 428.9 131.8H428.8C427.3 131.8 426.1 130.6 426.1 129.1ZM435.6 133.1C437.1 133.1 438.3 134.4 438.3 135.9C438.3 137.4 437.1 138.6 435.6 138.6C434.1 138.6 432.9 137.4 432.9 135.9C432.9 134.4 434.1 133.1 435.6 133.1ZM415.9 126.4C418.6 126.4 420.7 128.5 420.7 131.1V140.6C420.7 143.2 418.6 145.4 415.9 145.4H406.5C403.8 145.4 401.7 143.2 401.7 140.6V131.1C401.7 128.5 403.8 126.4 406.5 126.4H415.9ZM426 106.7C426 104.1 428.2 102 430.8 102H440.3C442.9 102 445 104.1 445 106.7V116.2C445 118.8 442.9 120.9 440.3 120.9H430.8C428.2 120.9 426 118.8 426 116.2V106.7ZM415.9 102C418.5 102 420.6 104.1 420.6 106.7V116.2C420.6 118.8 418.5 120.9 415.9 120.9H406.4C403.7 120.9 401.6 118.8 401.6 116.2V106.7C401.6 104.1 403.7 102 406.4 102H415.9ZM430.8 106C430.4 106 430.1 106.3 430.1 106.7V116.2C430.1 116.6 430.4 116.9 430.8 116.9H440.3C440.6 116.9 441 116.6 441 116.2V106.7C441 106.3 440.6 106 440.3 106H430.8ZM435.5 108.7C437 108.7 438.2 109.9 438.2 111.4V111.5C438.2 113 437 114.2 435.5 114.2C434 114.2 432.8 113 432.8 111.5V111.4C432.8 109.9 434 108.7 435.5 108.7ZM405.7 140.6C405.7 141 406 141.3 406.3 141.3H415.8C416.2 141.3 416.5 141 416.5 140.6V131.1C416.5 130.7 416.2 130.4 415.8 130.4H406.3C406 130.4 405.7 130.7 405.7 131.1V140.6ZM411.1 133.1C412.6 133.1 413.8 134.4 413.8 135.9C413.8 137.4 412.6 138.6 411.1 138.6C409.6 138.6 408.3 137.4 408.3 135.9C408.3 134.4 409.6 133.1 411.1 133.1ZM405.6 116.2C405.6 116.6 405.9 116.9 406.3 116.9H415.8C416.2 116.9 416.5 116.6 416.5 116.2V106.7C416.5 106.3 416.2 106 415.8 106H406.3C405.9 106 405.6 106.3 405.6 106.7V116.2ZM411.1 108.7C412.6 108.7 413.8 110 413.8 111.5C413.8 113 412.6 114.2 411.1 114.2H411C409.5 114.2 408.3 113 408.3 111.5C408.3 110 409.5 108.7 411 108.7H411.1ZM230.6 14.8002C234 14.6669 237.366 14.3669 240.7 13.9002C241.8 13.8002 242.8 14.6002 243 15.7002C243.4 18.5002 243.666 21.3669 243.8 24.3002C243.9 25.8002 242.7 27.1002 241.2 27.1002C240.1 27.1002 239.2 26.4002 238.5 25.6002C237.8 24.8002 236.9 24.4002 235.9 24.4002C233.7 24.4002 231.8 26.8002 231.8 29.8002C231.8 32.8002 233.7 35.2002 235.9 35.2002C236.9 35.2002 237.8 34.8002 238.5 34.0002C239.2 33.2002 240.1 32.5002 241.2 32.5002C242.8 32.5002 244 33.8002 244 35.3002C243.866 38.9002 243.566 42.4669 243.1 46.0002C242.9 46.9002 242.2 47.7002 241.3 47.8002C237.766 48.2669 234.2 48.5669 230.6 48.7002C229 48.8002 227.8 47.5002 227.8 46.0002C227.8 44.9002 228.5 43.9002 229.3 43.2002C230 42.5002 230.5 41.6002 230.5 40.6002C230.5 38.4002 228.1 36.6002 225.1 36.6002C222.1 36.6002 219.6 38.4002 219.6 40.6002C219.6 41.6002 220.1 42.5002 220.9 43.2002C221.7 43.9002 222.3 44.8002 222.3 45.9002C222.3 47.4002 221.1 48.7002 219.6 48.6002C216.666 48.4002 213.766 48.1002 210.9 47.7002C209.8 47.5002 209 46.5002 209.2 45.4002C209.666 42.0669 209.966 38.7002 210.1 35.3002C210.1 33.8002 208.9 32.5002 207.3 32.5002C206.2 32.5002 205.3 33.2002 204.6 34.0002C203.9 34.8002 203 35.2002 202 35.2002C199.8 35.2002 197.9 32.8002 197.9 29.8002C197.9 26.8002 199.8 24.4002 202 24.4002C203 24.4002 203.9 24.8002 204.6 25.6002C205.3 26.4002 206.2 27.1002 207.3 27.1002C208.8 27.1002 210 25.8002 209.9 24.3002C209.766 21.5669 209.5 18.8335 209.1 16.1002C209 15.5002 209.2 14.8002 209.7 14.4002C210.1 13.9002 210.8 13.7002 211.4 13.8002C214.066 14.2002 216.8 14.5002 219.6 14.7002C221.1 14.7002 222.3 13.5002 222.3 12.0002C222.3 10.9002 221.7 10.0002 220.9 9.3002C220.1 8.6002 219.6 7.7002 219.6 6.7002C219.6 4.5002 222.1 2.7002 225.1 2.7002C228.1 2.7002 230.5 4.5002 230.5 6.7002C230.5 7.7002 230 8.6002 229.3 9.3002C228.5 10.0002 227.8 11.0002 227.8 12.1002C227.8 13.6002 229 14.8002 230.6 14.8002Z" fill="#0F172A"/>
<path fill-rule="evenodd" clip-rule="evenodd" d="M501.6 308.8C501.6 305.5 504.3 302.8 507.6 302.8H534.6C537.9 302.8 540.6 305.5 540.6 308.8V332.8C540.6 336.1 537.9 338.8 534.6 338.8H507.6C504.3 338.8 501.6 336.1 501.6 332.8V308.8ZM509.6 312.9L513 316.3L509.6 319.8C509 320.4 509 321.3 509.6 321.9C510.2 322.5 511.1 322.5 511.7 321.9L516.2 317.4C516.8 316.8 516.8 315.9 516.2 315.3L511.7 310.8C511.1 310.2 510.2 310.2 509.6 310.8C509 311.4 509 312.3 509.6 312.9ZM518.1 319.3C517.3 319.3 516.6 320 516.6 320.8C516.6 321.7 517.3 322.3 518.1 322.3H524.1C525 322.3 525.6 321.7 525.6 320.8C525.6 320 525 319.3 524.1 319.3H518.1ZM-402.8 12.1001C-402.8 8.8001 -400.1 6.1001 -396.8 6.1001H-369.8C-366.5 6.1001 -363.8 8.8001 -363.8 12.1001V31.6001C-363.8 35.0001 -366.5 37.6001 -369.8 37.6001H-375.8V38.2001C-375.8 39.4001 -375.3 40.5001 -374.5 41.3001L-373.2 42.6001C-372.8 43.0001 -372.7 43.7001 -372.9 44.2001C-373.1 44.8001 -373.7 45.1001 -374.3 45.1001H-392.3C-392.9 45.1001 -393.4 44.8001 -393.7 44.2001C-393.9 43.7001 -393.8 43.0001 -393.3 42.6001L-392.1 41.3001C-391.3 40.5001 -390.8 39.4001 -390.8 38.2001V37.6001H-396.8C-400.1 37.6001 -402.8 35.0001 -402.8 31.6001V12.1001ZM-399.8 12.1001V27.1001C-399.8 28.8001 -398.4 30.1001 -396.8 30.1001H-369.8C-368.1 30.1001 -366.8 28.8001 -366.8 27.1001V12.1001C-366.8 10.5001 -368.1 9.1001 -369.8 9.1001H-396.8C-398.4 9.1001 -399.8 10.5001 -399.8 12.1001ZM-374.3 329.8H-392.3V311.8H-374.3V329.8Z" fill="#0F172A"/>
<path fill-rule="evenodd" clip-rule="evenodd" d="M341.7 320.8C341.7 331.6 332.9 340.3 322.2 340.3C311.4 340.3 302.7 331.6 302.7 320.8C302.7 310.1 311.4 301.3 322.2 301.3C332.9 301.3 341.7 310.1 341.7 320.8ZM319.9 310.3C315.4 310.3 311.7 314 311.7 318.6C311.7 323.1 315.4 326.8 319.9 326.8C321.7 326.8 323.3 326.3 324.6 325.4L328.6 329.4C329.2 330 330.1 330 330.7 329.4C331.3 328.8 331.3 327.9 330.7 327.3L326.7 323.3C327.6 321.9 328.2 320.3 328.2 318.6C328.2 314 324.5 310.3 319.9 310.3ZM240.6 301.3C241.4 301.3 242.1 302 242.1 302.8C242.1 303.7 241.4 304.3 240.6 304.3H239.1V325.3C239.1 328.6 236.4 331.3 233.1 331.3H230.7L233 338.4C233.3 339.1 232.8 340 232.1 340.3C231.3 340.5 230.4 340.1 230.2 339.3L229.5 337.3H212.7L212 339.3C211.7 340.1 210.9 340.5 210.1 340.3C209.3 340 208.9 339.1 209.2 338.4L211.5 331.3H209.1C205.8 331.3 203.1 328.6 203.1 325.3V304.3H201.6C200.7 304.3 200.1 303.7 200.1 302.8C200.1 302 200.7 301.3 201.6 301.3H240.6ZM222.6 314.8C222.6 314 221.9 313.3 221.1 313.3C220.2 313.3 219.6 314 219.6 314.8V322.3C219.6 323.2 220.2 323.8 221.1 323.8C221.9 323.8 222.6 323.2 222.6 322.3V314.8ZM228.6 310.3C228.6 309.5 227.9 308.8 227.1 308.8C226.2 308.8 225.6 309.5 225.6 310.3V322.3C225.6 323.2 226.2 323.8 227.1 323.8C227.9 323.8 228.6 323.2 228.6 322.3V310.3ZM228.5 334.3L227.5 331.3H214.7L213.7 334.3H228.5ZM216.5 319.3C216.5 318.5 215.9 317.8 215 317.8C214.2 317.8 213.5 318.5 213.5 319.3V322.3C213.5 323.2 214.2 323.8 215 323.8C215.9 323.8 216.5 323.2 216.5 322.3V319.3ZM431.7 200.1C433.7 200.1 435.4 201.8 435.4 203.8V209.8C436.266 209.933 437.133 210.067 438 210.2C440.9 210.6 442.9 213.1 442.9 216V228.6C442.9 231.9 440.2 234.6 436.9 234.6H436.4L436.7 238C436.9 240.2 435.2 242.1 433 242.1H413.9C411.7 242.1 410 240.2 410.2 238L410.5 234.6H409.9C406.6 234.6 403.9 231.9 403.9 228.6V216C403.9 213.1 406 210.6 408.9 210.2C409.7 210.067 410.533 209.933 411.4 209.8V203.8C411.4 201.8 413.1 200.1 415.2 200.1H431.7ZM435.4 219.6C436.3 219.6 436.9 218.9 436.9 218.1C436.9 217.3 436.3 216.6 435.4 216.6C434.6 216.6 433.9 217.3 433.9 218.1C433.9 218.9 434.6 219.6 435.4 219.6ZM423.4 225.6C420.533 225.6 417.7 225.733 414.9 226C414.5 226.1 414.2 226.3 414.2 226.7L413.1 238.3C413.1 238.7 413.4 239.1 413.9 239.1H433C433.4 239.1 433.7 238.7 433.7 238.3L432.7 226.7C432.6 226.3 432.3 226.1 432 226C429.2 225.733 426.333 225.6 423.4 225.6ZM432.4 209.5V203.8C432.4 203.4 432.1 203.1 431.7 203.1H415.2C414.8 203.1 414.4 203.4 414.4 203.8V209.5C417.4 209.233 420.4 209.1 423.4 209.1C426.466 209.1 429.466 209.233 432.4 209.5ZM429.4 216.6C428.6 216.6 427.9 217.3 427.9 218.1C427.9 218.9 428.6 219.6 429.4 219.6C430.3 219.6 430.9 218.9 430.9 218.1C430.9 217.3 430.3 216.6 429.4 216.6ZM101.9 323.8C101.9 314.7 109.3 307.3 118.4 307.3C119.2 307.3 119.9 308 119.9 308.8V322.3H133.4C134.2 322.3 134.9 323 134.9 323.8C134.9 332.9 127.5 340.3 118.4 340.3C109.3 340.3 101.9 332.9 101.9 323.8ZM122.9 302.8C122.9 302 123.6 301.3 124.4 301.3C133.5 301.3 140.9 308.7 140.9 317.8C140.9 318.7 140.2 319.3 139.4 319.3H124.4C123.6 319.3 122.9 318.7 122.9 317.8V302.8ZM-263.6 42.5999C-263 43.1999 -263 44.0999 -263.6 44.6999C-264.2 45.2999 -265.1 45.2999 -265.7 44.6999L-301.7 8.6999C-302.3 8.0999 -302.3 7.1999 -301.7 6.5999C-301.1 5.9999 -300.2 5.9999 -299.6 6.5999L-263.6 42.5999ZM-261.7 36.9999C-261.7 37.9999 -262.1 38.6999 -262.7 39.2999L-272.2 29.7999V17.4999L-266.8 12.0999C-264.9 10.2999 -261.7 11.5999 -261.7 14.2999V36.9999ZM-275.2 16.5999V26.6999L-291.3 10.5999H-281.2C-277.8 10.5999 -275.2 13.2999 -275.2 16.5999ZM-303.7 16.5999C-303.7 14.9999 -303.1 13.5999 -302.1 12.4999L-276.4 38.1999C-277.5 39.6999 -279.2 40.5999 -281.2 40.5999H-297.7C-301 40.5999 -303.7 37.8999 -303.7 34.5999V16.5999Z" fill="#0F172A"/>
</g>
</g>
<defs>
<clipPath id="clip0_70_5406">
<rect width="50" height="50" fill="white"/>
</clipPath>
</defs>
</svg>
