<svg width="50" height="50" viewBox="0 0 50 50" fill="none" xmlns="http://www.w3.org/2000/svg">
<g clip-path="url(#clip0_70_5429)">
<mask id="mask0_70_5429" style="mask-type:luminance" maskUnits="userSpaceOnUse" x="-414" y="-862" width="1584" height="1224">
<path d="M-414 -862H1170V362H-414V-862Z" fill="white"/>
</mask>
<g mask="url(#mask0_70_5429)">
<path fill-rule="evenodd" clip-rule="evenodd" d="M809.6 12.8001C809.6 9.50009 812.3 6.80008 815.6 6.80008H842.6C845.9 6.80008 848.6 9.50009 848.6 12.8001V36.8001C848.6 40.1001 845.9 42.8001 842.6 42.8001H815.6C812.3 42.8001 809.6 40.1001 809.6 36.8001V12.8001ZM817.6 16.9001L821 20.3001L817.6 23.8001C817 24.4001 817 25.3001 817.6 25.9001C818.2 26.5001 819.1 26.5001 819.7 25.9001L824.2 21.4001C824.8 20.8001 824.8 19.9001 824.2 19.3001L819.7 14.8001C819.1 14.2001 818.2 14.2001 817.6 14.8001C817 15.4001 817 16.3001 817.6 16.9001ZM826.1 23.3001C825.3 23.3001 824.6 24.0001 824.6 24.8001C824.6 25.7001 825.3 26.3001 826.1 26.3001H832.1C833 26.3001 833.6 25.7001 833.6 24.8001C833.6 24.0001 833 23.3001 832.1 23.3001H826.1ZM-94.8 -283.9C-94.8 -287.2 -92.1 -289.9 -88.8 -289.9H-61.8C-58.5 -289.9 -55.8 -287.2 -55.8 -283.9V-264.4C-55.8 -261 -58.5 -258.4 -61.8 -258.4H-67.8V-257.8C-67.8 -256.6 -67.3 -255.5 -66.5 -254.7L-65.2 -253.4C-64.8 -253 -64.7 -252.3 -64.9 -251.8C-65.1 -251.2 -65.7 -250.9 -66.3 -250.9H-84.3C-84.9 -250.9 -85.4 -251.2 -85.7 -251.8C-85.9 -252.3 -85.8 -253 -85.3 -253.4L-84.1 -254.7C-83.3 -255.5 -82.8 -256.6 -82.8 -257.8V-258.4H-88.8C-92.1 -258.4 -94.8 -261 -94.8 -264.4V-283.9ZM-91.8 -283.9V-268.9C-91.8 -267.2 -90.4 -265.9 -88.8 -265.9H-61.8C-60.1 -265.9 -58.8 -267.2 -58.8 -268.9V-283.9C-58.8 -285.5 -60.1 -286.9 -61.8 -286.9H-88.8C-90.4 -286.9 -91.8 -285.5 -91.8 -283.9ZM-66.3 33.8001H-84.3V15.8001H-66.3V33.8001Z" fill="#0F172A"/>
<path fill-rule="evenodd" clip-rule="evenodd" d="M-82.8 5.2998C-82 5.2998 -81.3 5.9998 -81.3 6.7998V8.2998H-76.8V6.7998C-76.8 5.9998 -76.1 5.2998 -75.3 5.2998C-74.5 5.2998 -73.8 5.9998 -73.8 6.7998V8.2998H-69.3V6.7998C-69.3 5.9998 -68.6 5.2998 -67.8 5.2998C-67 5.2998 -66.3 5.9998 -66.3 6.7998V8.2998H-64.8C-61.5 8.2998 -58.8 10.9998 -58.8 14.2998V15.7998H-57.3C-56.5 15.7998 -55.8 16.4998 -55.8 17.2998C-55.8 18.1998 -56.5 18.7998 -57.3 18.7998H-58.8V23.2998H-57.3C-56.5 23.2998 -55.8 23.9998 -55.8 24.7998C-55.8 25.6998 -56.5 26.2998 -57.3 26.2998H-58.8V30.7998H-57.3C-56.5 30.7998 -55.8 31.4998 -55.8 32.2998C-55.8 33.1998 -56.5 33.7998 -57.3 33.7998H-58.8V35.2998C-58.8 38.5998 -61.5 41.2998 -64.8 41.2998H-66.3V42.7998C-66.3 43.6998 -67 44.2998 -67.8 44.2998C-68.6 44.2998 -69.3 43.6998 -69.3 42.7998V41.2998H-73.8V42.7998C-73.8 43.6998 -74.5 44.2998 -75.3 44.2998C-76.1 44.2998 -76.8 43.6998 -76.8 42.7998V41.2998H-81.3V42.7998C-81.3 43.6998 -82 44.2998 -82.8 44.2998C-83.6 44.2998 -84.3 43.6998 -84.3 42.7998V41.2998H-85.8C-89.1 41.2998 -91.8 38.5998 -91.8 35.2998V33.7998H-93.3C-94.1 33.7998 -94.8 33.1998 -94.8 32.2998C-94.8 31.4998 -94.1 30.7998 -93.3 30.7998H-91.8V26.2998H-93.3C-94.1 26.2998 -94.8 25.6998 -94.8 24.7998C-94.8 23.9998 -94.1 23.2998 -93.3 23.2998H-91.8V18.7998H-93.3C-94.1 18.7998 -94.8 18.1998 -94.8 17.2998C-94.8 16.4998 -94.1 15.7998 -93.3 15.7998H-91.8V14.2998C-91.8 10.9998 -89.1 8.2998 -85.8 8.2998H-84.3V6.7998C-84.3 5.9998 -83.6 5.2998 -82.8 5.2998ZM-87.3 35.2998C-87.3 36.1998 -86.6 36.7998 -85.8 36.7998H-64.8C-64 36.7998 -63.3 36.1998 -63.3 35.2998V14.2998C-63.3 13.4998 -64 12.7998 -64.8 12.7998H-85.8C-86.6 12.7998 -87.3 13.4998 -87.3 14.2998V35.2998ZM40.4 8.2998C43.7 8.2998 46.4 10.9998 46.4 14.2998V15.7998H4.39996V14.2998C4.39996 10.9998 7.09995 8.2998 10.4 8.2998H40.4Z" fill="#0F172A"/>
<path fill-rule="evenodd" clip-rule="evenodd" d="M46.4 35.3001C46.4 38.6001 43.7 41.3001 40.4 41.3001H10.4C7.09995 41.3001 4.39996 38.6001 4.39996 35.3001V20.3001H46.4V35.3001ZM11.9 29.3001H23.9C24.7 29.3001 25.4 28.7001 25.4 27.8001C25.4 27.0001 24.7 26.3001 23.9 26.3001H11.9C11.1 26.3001 10.4 27.0001 10.4 27.8001C10.4 28.7001 11.1 29.3001 11.9 29.3001ZM11.9 32.3001C11.1 32.3001 10.4 33.0001 10.4 33.8001C10.4 34.7001 11.1 35.3001 11.9 35.3001H17.9C18.7 35.3001 19.4 34.7001 19.4 33.8001C19.4 33.0001 18.7 32.3001 17.9 32.3001H11.9ZM-88 -95.8999H-81.3C-77.1 -95.8999 -73.8 -92.5999 -73.8 -88.3999V-84.6999C-73.8 -82.5999 -72.1 -80.8999 -70 -80.8999H-66.3C-62.1 -80.8999 -58.8 -77.5999 -58.8 -73.3999V-57.6999C-58.8 -55.5999 -60.5 -53.8999 -62.5 -53.8999H-88C-90.1 -53.8999 -91.8 -55.5999 -91.8 -57.6999V-92.1999C-91.8 -94.1999 -90.1 -95.8999 -88 -95.8999ZM-76.8 -68.8999V-62.8999C-76.8 -62.0999 -76.1 -61.3999 -75.3 -61.3999C-74.5 -61.3999 -73.8 -62.0999 -73.8 -62.8999V-68.8999C-73.8 -69.6999 -74.5 -70.3999 -75.3 -70.3999C-76.1 -70.3999 -76.8 -69.6999 -76.8 -68.8999ZM-79.8 -64.3999C-79.8 -65.1999 -80.5 -65.8999 -81.3 -65.8999C-82.1 -65.8999 -82.8 -65.1999 -82.8 -64.3999V-62.8999C-82.8 -62.0999 -82.1 -61.3999 -81.3 -61.3999C-80.5 -61.3999 -79.8 -62.0999 -79.8 -62.8999V-64.3999ZM-67.8 -73.3999C-67.8 -74.1999 -68.5 -74.8999 -69.3 -74.8999C-70.1 -74.8999 -70.8 -74.1999 -70.8 -73.3999V-62.8999C-70.8 -62.0999 -70.1 -61.3999 -69.3 -61.3999C-68.5 -61.3999 -67.8 -62.0999 -67.8 -62.8999V-73.3999ZM-70.8 -88.3999C-70.8 -90.9999 -71.8 -93.3999 -73.3 -95.2999C-66.5 -93.4999 -61.2 -88.1999 -59.4 -81.3999C-61.3 -82.9999 -63.7 -83.8999 -66.3 -83.8999H-70C-70.5 -83.8999 -70.8 -84.2999 -70.8 -84.6999V-88.3999ZM128.5 -88.3999V-84.5999C128.5 -82.4999 130.2 -80.8999 132.2 -80.8999H136C140.1 -80.8999 143.5 -77.4999 143.5 -73.3999V-57.5999C143.5 -55.4999 141.8 -53.8999 139.7 -53.8999H114.2C112.2 -53.8999 110.5 -55.4999 110.5 -57.5999V-92.0999C110.5 -94.1999 112.2 -95.8999 114.2 -95.8999H121C125.1 -95.8999 128.5 -92.4999 128.5 -88.3999ZM134.2 -73.9999C134.7 -74.6999 134.5 -75.5999 133.9 -76.0999C133.2 -76.5999 132.3 -76.3999 131.8 -75.6999L125.3 -66.6999L122.1 -69.8999C121.5 -70.4999 120.5 -70.4999 119.9 -69.8999C119.3 -69.2999 119.3 -68.3999 119.9 -67.7999L124.4 -63.2999C124.7 -62.9999 125.2 -62.7999 125.6 -62.8999C126.1 -62.8999 126.5 -63.0999 126.7 -63.4999L134.2 -73.9999ZM142.9 -81.2999C141 -82.8999 138.6 -83.8999 136 -83.8999H132.2C131.8 -83.8999 131.5 -84.1999 131.5 -84.5999V-88.3999C131.5 -90.9999 130.5 -93.3999 128.9 -95.1999C135.7 -93.4999 141.1 -88.0999 142.9 -81.2999ZM20.9 -69.5999C20.9 -71.6999 22.6 -73.3999 24.6 -73.3999C26.7 -73.3999 28.4 -71.6999 28.4 -69.5999C28.4 -67.4999 26.7 -65.8999 24.6 -65.8999C22.6 -65.8999 20.9 -67.4999 20.9 -69.5999Z" fill="#0F172A"/>
<path fill-rule="evenodd" clip-rule="evenodd" d="M12.5999 -95.8999H19.3999C23.4999 -95.8999 26.8999 -92.5999 26.8999 -88.3999V-84.6999C26.8999 -82.5999 28.5999 -80.8999 30.5999 -80.8999H34.3999C38.4999 -80.8999 41.8999 -77.5999 41.8999 -73.3999V-57.6999C41.8999 -55.5999 40.1999 -53.8999 38.0999 -53.8999H12.5999C10.5999 -53.8999 8.8999 -55.5999 8.8999 -57.6999V-92.1999C8.8999 -94.1999 10.5999 -95.8999 12.5999 -95.8999ZM24.5999 -62.8999C25.9999 -62.8999 27.1999 -63.2999 28.1999 -63.9999L30.2999 -61.8999C30.8999 -61.2999 31.8999 -61.2999 32.3999 -61.8999C32.9999 -62.3999 32.9999 -63.3999 32.3999 -63.9999L30.2999 -66.0999C30.9999 -67.0999 31.3999 -68.2999 31.3999 -69.6999C31.3999 -73.3999 28.3999 -76.3999 24.5999 -76.3999C20.8999 -76.3999 17.8999 -73.3999 17.8999 -69.6999C17.8999 -65.8999 20.8999 -62.8999 24.5999 -62.8999ZM29.8999 -88.3999C29.8999 -90.9999 28.8999 -93.3999 27.2999 -95.2999C34.0999 -93.4999 39.4999 -88.1999 41.2999 -81.3999C39.3999 -82.9999 36.9999 -83.8999 34.3999 -83.8999H30.5999C30.1999 -83.8999 29.8999 -84.2999 29.8999 -84.6999V-88.3999ZM215.7 -54.1999C212.4 -54.1999 209.7 -56.8999 209.7 -60.1999V-76.4999L223.4 -68.4999L216.5 -64.6999C215.7 -64.2999 215.5 -63.3999 215.9 -62.6999C216.2 -61.9999 217.2 -61.6999 217.9 -62.0999L229.3 -68.1999C230.1 -68.6999 231.2 -68.6999 232.1 -68.1999L243.5 -62.0999C244.2 -61.6999 245.1 -61.9999 245.5 -62.6999C245.9 -63.3999 245.6 -64.2999 244.9 -64.6999L237.9 -68.4999L251.7 -76.4999V-60.1999C251.7 -56.8999 249 -54.1999 245.7 -54.1999H215.7ZM209.7 -79.9999V-81.4999C209.7 -83.6999 210.9 -85.6999 212.8 -86.7999L227.8 -94.7999C229.6 -95.7999 231.7 -95.7999 233.5 -94.7999L248.5 -86.7999C250.5 -85.6999 251.7 -83.6999 251.7 -81.4999V-79.9999L234.8 -70.0999L233.5 -70.7999C231.7 -71.7999 229.6 -71.7999 227.8 -70.7999L226.5 -70.0999L209.7 -79.9999ZM330.2 36.8001C330.2 35.2001 331.6 33.8001 333.2 33.8001C334.9 33.8001 336.2 35.2001 336.2 36.8001C336.2 38.5001 334.9 39.8001 333.2 39.8001C331.6 39.8001 330.2 38.5001 330.2 36.8001ZM330.2 24.8001C330.2 23.2001 331.6 21.8001 333.2 21.8001C334.9 21.8001 336.2 23.2001 336.2 24.8001C336.2 26.5001 334.9 27.8001 333.2 27.8001C331.6 27.8001 330.2 26.5001 330.2 24.8001ZM330.2 12.8001C330.2 11.2001 331.6 9.8001 333.2 9.8001C334.9 9.8001 336.2 11.2001 336.2 12.8001C336.2 14.5001 334.9 15.8001 333.2 15.8001C331.6 15.8001 330.2 14.5001 330.2 12.8001ZM227.6 29.2001C229.5 30.3001 231.9 30.3001 233.9 29.2001L251.7 18.2001V35.3001C251.7 38.6001 249 41.3001 245.7 41.3001H215.7C212.4 41.3001 209.7 38.6001 209.7 35.3001V18.2001L227.6 29.2001ZM232.3 26.6001C231.4 27.2001 230.2 27.2001 229.2 26.6001L209.8 14.7001V14.3001C209.8 11.0001 212.5 8.3001 215.8 8.3001H245.8C249.1 8.3001 251.8 11.0001 251.8 14.3001V14.7001L232.3 26.6001ZM118.4 35.3001C118.4 34.5001 119.1 33.8001 119.9 33.8001H143.9C144.7 33.8001 145.4 34.5001 145.4 35.3001C145.4 36.1001 144.7 36.8001 143.9 36.8001H119.9C119.1 36.8001 118.4 36.1001 118.4 35.3001ZM108.6 35.3001C108.6 34.0001 109.6 33.0001 110.9 33.0001C112.1 33.0001 113.1 34.0001 113.1 35.3001C113.1 36.5001 112.1 37.5001 110.9 37.5001C109.6 37.5001 108.6 36.5001 108.6 35.3001ZM118.4 24.8001C118.4 24.0001 119.1 23.3001 119.9 23.3001H143.9C144.7 23.3001 145.4 24.0001 145.4 24.8001C145.4 25.6001 144.7 26.3001 143.9 26.3001H119.9C119.1 26.3001 118.4 25.6001 118.4 24.8001ZM108.6 24.8001C108.6 23.5001 109.6 22.5001 110.9 22.5001C112.1 22.5001 113.1 23.5001 113.1 24.8001C113.1 26.0001 112.1 27.0001 110.9 27.0001C109.6 27.0001 108.6 26.0001 108.6 24.8001ZM118.4 14.3001C118.4 13.5001 119.1 12.8001 119.9 12.8001H143.9C144.7 12.8001 145.4 13.5001 145.4 14.3001C145.4 15.1001 144.7 15.8001 143.9 15.8001H119.9C119.1 15.8001 118.4 15.1001 118.4 14.3001ZM108.6 14.3001C108.6 13.0001 109.6 12.0001 110.9 12.0001C112.1 12.0001 113.1 13.0001 113.1 14.3001C113.1 15.5001 112.1 16.5001 110.9 16.5001C109.6 16.5001 108.6 15.5001 108.6 14.3001ZM622.7 22.5001C622.7 19.6001 625 17.3001 627.9 17.3001C630.8 17.3001 633.2 19.6001 633.2 22.5001C633.2 24.0001 632.6 25.3001 631.7 26.3001C630.7 27.2001 629.4 27.8001 627.9 27.8001C625 27.8001 622.7 25.4001 622.7 22.5001Z" fill="#0F172A"/>
<path fill-rule="evenodd" clip-rule="evenodd" d="M649.7 24.7999C649.7 35.5999 640.9 44.2999 630.2 44.2999C619.4 44.2999 610.7 35.5999 610.7 24.7999C610.7 14.0999 619.4 5.2999 630.2 5.2999C640.9 5.2999 649.7 14.0999 649.7 24.7999ZM627.9 14.2999C623.4 14.2999 619.7 17.9999 619.7 22.5999C619.7 27.0999 623.4 30.7999 627.9 30.7999C629.7 30.7999 631.3 30.2999 632.6 29.3999L636.6 33.3999C637.2 33.9999 638.1 33.9999 638.7 33.3999C639.3 32.7999 639.3 31.8999 638.7 31.2999L634.7 27.2999C635.6 25.8999 636.2 24.2999 636.2 22.5999C636.2 17.9999 632.5 14.2999 627.9 14.2999ZM548.6 5.2999C549.4 5.2999 550.1 5.99991 550.1 6.7999C550.1 7.69989 549.4 8.2999 548.6 8.2999H547.1V29.2999C547.1 32.5999 544.4 35.2999 541.1 35.2999H538.7L541 42.3999C541.3 43.0999 540.8 43.9999 540.1 44.2999C539.3 44.4999 538.4 44.0999 538.2 43.2999L537.5 41.2999H520.7L520 43.2999C519.7 44.0999 518.9 44.4999 518.1 44.2999C517.3 43.9999 516.9 43.0999 517.2 42.3999L519.5 35.2999H517.1C513.8 35.2999 511.1 32.5999 511.1 29.2999V8.2999H509.6C508.7 8.2999 508.1 7.69989 508.1 6.7999C508.1 5.99991 508.7 5.2999 509.6 5.2999H548.6ZM530.6 18.7999C530.6 17.9999 529.9 17.2999 529.1 17.2999C528.2 17.2999 527.6 17.9999 527.6 18.7999V26.2999C527.6 27.1999 528.2 27.7999 529.1 27.7999C529.9 27.7999 530.6 27.1999 530.6 26.2999V18.7999ZM536.6 14.2999C536.6 13.4999 535.9 12.7999 535.1 12.7999C534.2 12.7999 533.6 13.4999 533.6 14.2999V26.2999C533.6 27.1999 534.2 27.7999 535.1 27.7999C535.9 27.7999 536.6 27.1999 536.6 26.2999V14.2999ZM536.5 38.2999L535.5 35.2999H522.7L521.7 38.2999H536.5ZM524.5 23.2999C524.5 22.4999 523.9 21.7999 523 21.7999C522.2 21.7999 521.5 22.4999 521.5 23.2999V26.2999C521.5 27.1999 522.2 27.7999 523 27.7999C523.9 27.7999 524.5 27.1999 524.5 26.2999V23.2999ZM739.7 -95.9001C741.7 -95.9001 743.4 -94.2001 743.4 -92.2001V-86.2001C744.267 -86.0668 745.133 -85.9334 746 -85.8001C748.9 -85.4001 750.9 -82.9001 750.9 -80.0001V-67.4001C750.9 -64.1001 748.2 -61.4001 744.9 -61.4001H744.4L744.7 -58.0001C744.9 -55.8001 743.2 -53.9001 741 -53.9001H721.9C719.7 -53.9001 718 -55.8001 718.2 -58.0001L718.5 -61.4001H717.9C714.6 -61.4001 711.9 -64.1001 711.9 -67.4001V-80.0001C711.9 -82.9001 714 -85.4001 716.9 -85.8001C717.7 -85.9334 718.533 -86.0668 719.4 -86.2001V-92.2001C719.4 -94.2001 721.1 -95.9001 723.2 -95.9001H739.7ZM743.4 -76.4001C744.3 -76.4001 744.9 -77.1001 744.9 -77.9001C744.9 -78.7001 744.3 -79.4001 743.4 -79.4001C742.6 -79.4001 741.9 -78.7001 741.9 -77.9001C741.9 -77.1001 742.6 -76.4001 743.4 -76.4001ZM731.4 -70.4001C728.533 -70.4001 725.7 -70.2668 722.9 -70.0001C722.5 -69.9001 722.2 -69.7001 722.2 -69.3001L721.1 -57.7001C721.1 -57.3001 721.4 -56.9001 721.9 -56.9001H741C741.4 -56.9001 741.7 -57.3001 741.7 -57.7001L740.7 -69.3001C740.6 -69.7001 740.3 -69.9001 740 -70.0001C737.2 -70.2668 734.333 -70.4001 731.4 -70.4001ZM740.4 -86.5001V-92.2001C740.4 -92.6001 740.1 -92.9001 739.7 -92.9001H723.2C722.8 -92.9001 722.4 -92.6001 722.4 -92.2001V-86.5001C725.4 -86.7668 728.4 -86.9001 731.4 -86.9001C734.467 -86.9001 737.467 -86.7668 740.4 -86.5001ZM737.4 -79.4001C736.6 -79.4001 735.9 -78.7001 735.9 -77.9001C735.9 -77.1001 736.6 -76.4001 737.4 -76.4001C738.3 -76.4001 738.9 -77.1001 738.9 -77.9001C738.9 -78.7001 738.3 -79.4001 737.4 -79.4001ZM409.9 27.7999C409.9 18.6999 417.3 11.2999 426.4 11.2999C427.2 11.2999 427.9 11.9999 427.9 12.7999V26.2999H441.4C442.2 26.2999 442.9 26.9999 442.9 27.7999C442.9 36.8999 435.5 44.2999 426.4 44.2999C417.3 44.2999 409.9 36.8999 409.9 27.7999ZM430.9 6.7999C430.9 5.99991 431.6 5.2999 432.4 5.2999C441.5 5.2999 448.9 12.6999 448.9 21.7999C448.9 22.6999 448.2 23.2999 447.4 23.2999H432.4C431.6 23.2999 430.9 22.6999 430.9 21.7999V6.7999ZM44.4001 -253.4C45 -252.8 45 -251.9 44.4001 -251.3C43.8001 -250.7 42.9 -250.7 42.3 -251.3L6.30005 -287.3C5.70005 -287.9 5.70005 -288.8 6.30005 -289.4C6.90005 -290 7.80005 -290 8.40005 -289.4L44.4001 -253.4ZM46.3 -259C46.3 -258 45.9 -257.3 45.3 -256.7L35.8 -266.2V-278.5L41.2001 -283.9C43.1001 -285.7 46.3 -284.4 46.3 -281.7V-259ZM32.8 -279.4V-269.3L16.7 -285.4H26.8C30.2 -285.4 32.8 -282.7 32.8 -279.4ZM4.30005 -279.4C4.30005 -281 4.90005 -282.4 5.90005 -283.5L31.6 -257.8C30.5 -256.3 28.8 -255.4 26.8 -255.4H10.3C7.00005 -255.4 4.30005 -258.1 4.30005 -261.4V-279.4Z" fill="#0F172A"/>
</g>
</g>
<defs>
<clipPath id="clip0_70_5429">
<rect width="50" height="50" fill="white"/>
</clipPath>
</defs>
</svg>
