<svg width="56" height="50" viewBox="0 0 56 50" fill="none" xmlns="http://www.w3.org/2000/svg">
<g clip-path="url(#clip0_72_5504)">
<mask id="mask0_72_5504" style="mask-type:luminance" maskUnits="userSpaceOnUse" x="-720" y="-664" width="1584" height="1224">
<path d="M-720 -664H864V560H-720V-664Z" fill="white"/>
</mask>
<g mask="url(#mask0_72_5504)">
<path fill-rule="evenodd" clip-rule="evenodd" d="M-166 38.6C-166.8 39.4 -168.1 39.4 -168.9 38.6L-188.5 19V34.5C-188.5 35.6 -189.4 36.5 -190.5 36.5C-191.7 36.5 -192.6 35.6 -192.6 34.5V14.1C-192.6 13 -191.7 12.1 -190.5 12.1H-170.2C-169.1 12.1 -168.2 13 -168.2 14.1C-168.2 15.2 -169.1 16.1 -170.2 16.1H-185.6L-166 35.7C-165.2 36.5 -165.2 37.8 -166 38.6ZM5.49985 123.1C5.49985 111.1 15.1999 101.4 27.1999 101.4C39.1999 101.4 48.8998 111.1 48.8998 123.1C48.8998 135.1 39.1999 144.8 27.1999 144.8C15.1999 144.8 5.49985 135.1 5.49985 123.1ZM25.0999 131.9C25.0999 133 25.9998 133.9 27.1999 133.9C28.2999 133.9 29.1999 133 29.1999 131.9V119.5L34.4998 125.1C35.2998 126 36.4998 126 37.3998 125.3C38.1998 124.5 38.1999 123.2 37.4998 122.4L28.6999 112.9C28.2999 112.5 27.6999 112.2 27.1999 112.2C26.5999 112.2 26.0999 112.5 25.6999 112.9L16.8998 122.4C16.0999 123.2 16.0999 124.5 16.9998 125.3C17.7998 126 19.0998 126 19.7998 125.1L25.0999 119.5V131.9ZM-367.7 25.6C-367.7 26.7 -368.6 27.6 -369.8 27.6H-387.8L-381.9 32.9C-381.1 33.7 -381.1 35 -381.9 35.8C-382.6 36.6 -383.9 36.7 -384.7 35.9L-394.2 27.1C-394.6 26.7 -394.9 26.1 -394.9 25.6C-394.9 25 -394.6 24.5 -394.2 24.1L-384.7 15.3C-383.9 14.5 -382.6 14.6 -381.9 15.4C-381.1 16.2 -381.1 17.5 -381.9 18.2L-387.8 23.6H-369.8C-368.6 23.6 -367.7 24.5 -367.7 25.6ZM207.5 112.2C206.3 112.2 205.4 113.1 205.4 114.2V137.3C205.4 138.4 206.3 139.3 207.5 139.3H230.6C231.7 139.3 232.6 138.4 232.6 137.3V126.4C232.6 125.3 233.5 124.4 234.6 124.4C235.8 124.4 236.7 125.3 236.7 126.4V137.3C236.7 140.7 233.9 143.4 230.6 143.4H207.5C204.1 143.4 201.3 140.7 201.3 137.3V114.2C201.3 110.8 204.1 108.1 207.5 108.1H221C222.2 108.1 223.1 109 223.1 110.1C223.1 111.3 222.2 112.2 221 112.2H207.5ZM213 129L237.6 106.7H230.6C229.5 106.7 228.6 105.8 228.6 104.7C228.6 103.6 229.5 102.7 230.6 102.7H242.9C244 102.7 244.9 103.6 244.9 104.7V116.9C244.9 118 244 119 242.9 119C241.7 119 240.8 118 240.8 116.9V109.3L215.7 132C214.9 132.8 213.6 132.7 212.8 131.9C212.1 131 212.1 129.8 213 129ZM-294.1 25.6C-294.1 24.5 -293.2 23.6 -292.1 23.6H-274L-279.9 18.2C-280.7 17.5 -280.7 16.2 -280 15.4C-279.2 14.6 -277.9 14.5 -277.1 15.3L-267.6 24.1C-267.2 24.5 -267 25 -267 25.6C-267 26.1 -267.2 26.7 -267.6 27.1L-277.1 35.9C-277.9 36.7 -279.2 36.6 -280 35.8C-280.7 35 -280.7 33.7 -279.9 32.9L-274 27.6H-292.1C-293.2 27.6 -294.1 26.7 -294.1 25.6ZM-79.9001 31.6C-79.1002 32.4 -79.1002 33.7 -79.9001 34.5C-80.7001 35.3 -82.0002 35.3 -82.8002 34.5L-87.4001 29.9C-87.2668 32.7667 -87.0335 35.6333 -86.7001 38.5C-86.6001 39.3 -85.9001 40 -85.0002 40.1C-81.8001 40.3667 -78.5335 40.5 -75.2001 40.5C-71.9335 40.5 -68.7002 40.3667 -65.5002 40.1C-64.6002 40 -63.9001 39.3 -63.8001 38.5C-63.6001 37.1 -63.4668 35.6667 -63.4001 34.2C-63.3001 33.1 -62.3002 32.3 -61.2002 32.4C-60.1002 32.5 -59.2001 33.4 -59.3001 34.6C-59.4335 36.0667 -59.6001 37.5 -59.8001 38.9C-60.1001 41.7 -62.3002 43.9 -65.1002 44.1C-68.4335 44.4333 -71.8001 44.6 -75.2001 44.6C-78.6668 44.6 -82.0668 44.4333 -85.4001 44.1C-88.2001 43.9 -90.4001 41.7 -90.7001 38.9C-91.1001 35.9 -91.3335 32.8667 -91.4001 29.8L-96.2001 34.5C-97.0001 35.3 -98.3001 35.3 -99.0002 34.5C-99.8001 33.7 -99.8001 32.4 -99.0002 31.6L-90.9001 23.5C-90.1002 22.7 -88.8001 22.7 -88.0002 23.5L-79.9001 31.6ZM-85.0002 11.1C-85.9001 11.2 -86.6001 11.8 -86.7001 12.7C-86.9001 14.1 -87.0335 15.5 -87.1002 16.9C-87.2002 18 -88.2002 18.9 -89.3002 18.8C-90.4002 18.7 -91.3001 17.7 -91.2001 16.6C-91.0668 15.1333 -90.9335 13.6667 -90.8002 12.2C-90.4002 9.4 -88.2001 7.3 -85.4001 7C-82.0668 6.73333 -78.7002 6.6 -75.3002 6.6C-71.8335 6.6 -68.4335 6.73333 -65.1002 7C-62.3002 7.3 -60.1001 9.4 -59.8001 12.2C-59.4001 15.2667 -59.1668 18.3333 -59.1002 21.4L-54.3001 16.7C-53.5002 15.9 -52.2002 15.9 -51.5002 16.7C-50.7002 17.5 -50.7002 18.7 -51.5002 19.5L-59.6002 27.7C-60.4001 28.5 -61.7002 28.5 -62.5002 27.7L-70.6002 19.5C-71.4001 18.7 -71.4001 17.5 -70.6002 16.7C-69.8002 15.9 -68.5001 15.9 -67.7001 16.7L-63.1002 21.2C-63.2335 18.3333 -63.4668 15.5 -63.8001 12.7C-63.9001 11.8 -64.6002 11.2 -65.5002 11.1C-68.7002 10.7667 -71.9668 10.6 -75.3002 10.6C-78.5668 10.6 -81.8001 10.7667 -85.0002 11.1ZM118.5 15C115.8 15 113.6 12.8 113.6 10.1C113.6 7.3 115.8 5.1 118.5 5.1C121.3 5.1 123.5 7.3 123.5 10.1C123.5 12.8 121.3 15 118.5 15ZM127.8 11.9C126.8 11.9 126 11.1 126 10.1C126 9 126.8 8.2 127.8 8.2H141.4C142.5 8.2 143.3 9 143.3 10.1C143.3 11.1 142.5 11.9 141.4 11.9H127.8ZM111.1 10.1C111.1 11.1 110.3 11.9 109.3 11.9H105.6C104.5 11.9 103.7 11.1 103.7 10.1C103.7 9.1 104.5 8.2 105.6 8.2H109.3C110.3 8.2 111.1 9.1 111.1 10.1ZM105.6 42.9C104.5 42.9 103.7 42.1 103.7 41C103.7 40 104.5 39.2 105.6 39.2H109.3C110.3 39.2 111.1 40 111.1 41C111.1 42.1 110.3 42.9 109.3 42.9H105.6ZM127.9 42.9C126.8 42.9 126 42.1 126 41C126 40 126.8 39.2 127.9 39.2H141.5C142.5 39.2 143.3 40 143.3 41C143.3 42.1 142.5 42.9 141.5 42.9H127.9ZM121.1 25.6C121.1 26.6 120.2 27.4 119.2 27.4H105.6C104.6 27.4 103.7 26.6 103.7 25.6C103.7 24.5 104.6 23.7 105.6 23.7H119.2C120.2 23.7 121.1 24.5 121.1 25.6ZM137.8 27.4C136.8 27.4 135.9 26.6 135.9 25.6C135.9 24.5 136.8 23.7 137.8 23.7H141.5C142.5 23.7 143.4 24.5 143.4 25.6C143.4 26.6 142.5 27.4 141.5 27.4H137.8ZM128.5 30.5C125.8 30.5 123.6 28.3 123.6 25.6C123.6 22.8 125.8 20.6 128.5 20.6C131.3 20.6 133.5 22.8 133.5 25.6C133.5 28.3 131.3 30.5 128.5 30.5ZM118.6 46C115.9 46 113.7 43.8 113.7 41C113.7 38.3 115.9 36.1 118.6 36.1C121.3 36.1 123.6 38.3 123.6 41C123.6 43.8 121.3 46 118.6 46ZM513.8 -91.4C514.9 -91.4 515.8 -90.5 515.8 -89.4V-55.5C515.8 -54.4 514.9 -53.5 513.8 -53.5H509.7C508.6 -53.5 507.7 -54.4 507.7 -55.5V-89.4C507.7 -90.5 508.6 -91.4 509.7 -91.4H513.8ZM532.8 -91.4C533.9 -91.4 534.9 -90.5 534.9 -89.4V-55.5C534.9 -54.4 533.9 -53.5 532.8 -53.5H528.8C527.6 -53.5 526.7 -54.4 526.7 -55.5V-89.4C526.7 -90.5 527.6 -91.4 528.8 -91.4H532.8ZM413 -61.7L416.4 -70.2C417 -71.6 417.8 -72.8 418.8 -73.9L437.6 -92.6C439.8 -94.9 443.5 -94.9 445.7 -92.6C448 -90.4 448 -86.7 445.7 -84.5L427 -65.7C425.9 -64.7 424.7 -63.9 423.3 -63.3L414.8 -59.9C413.7 -59.4 412.6 -60.5 413 -61.7ZM407.8 -58C407.8 -56.2 409.3 -54.6 411.1 -54.6H436.9C438.8 -54.6 440.3 -56.2 440.3 -58V-72.3C440.3 -73.4 441.2 -74.3 442.3 -74.3C443.5 -74.3 444.4 -73.4 444.4 -72.3V-58C444.4 -53.9 441 -50.6 436.9 -50.6H411.1C407 -50.6 403.7 -53.9 403.7 -58V-83.8C403.7 -87.9 407 -91.3 411.1 -91.3H425.4C426.5 -91.3 427.4 -90.4 427.4 -89.2C427.4 -88.1 426.5 -87.2 425.4 -87.2H411.1C409.3 -87.2 407.8 -85.7 407.8 -83.8V-58ZM307.5 -63.8L337.1 -93.4C339.4 -95.7 343 -95.7 345.3 -93.4C347.5 -91.2 347.5 -87.5 345.3 -85.3L315.6 -55.7C314.6 -54.6 313.4 -53.8 312 -53.3L303.4 -49.8C302.3 -49.4 301.2 -50.5 301.7 -51.6L305.1 -60.1C305.6 -61.5 306.5 -62.8 307.5 -63.8ZM201.5 8C201.5 5.7 203.3 3.9 205.5 3.9H208.7C210.6 3.9 212.2 5.2 212.6 7.1L214.6 15.8C215 17.9 213.8 20 211.7 20.6L209.2 21.3C208.1 21.7 207.4 22.8 207.9 23.9C211 31.6 217.2 37.7 224.8 40.9C225.9 41.3 227.1 40.7 227.4 39.6L228.1 37C228.7 35 230.8 33.7 232.9 34.2L241.7 36.1C243.5 36.5 244.9 38.2 244.9 40.1V43.2C244.9 45.5 243 47.3 240.8 47.3H236.7C233.6 47.3 230.6 46.9 227.7 46.1C215.5 42.9 205.9 33.3 202.6 21C201.9 18.2 201.5 15.1 201.5 12V8Z" fill="#0F172A"/>
<path fill-rule="evenodd" clip-rule="evenodd" d="M-203.4 -85.1999C-203.4 -88.5999 -200.7 -91.2999 -197.3 -91.2999H-160.7C-157.3 -91.2999 -154.6 -88.5999 -154.6 -85.1999V-59.4999C-154.6 -56.0999 -157.3 -53.3999 -160.7 -53.3999H-197.3C-200.7 -53.3999 -203.4 -56.0999 -203.4 -59.4999V-85.1999ZM-199.4 -69.3999V-59.3999C-199.4 -58.2999 -198.4 -57.3999 -197.3 -57.3999H-160.7C-159.6 -57.3999 -158.7 -58.2999 -158.7 -59.3999V-66.6999L-164.7 -72.6999C-165.5 -73.4999 -166.8 -73.4999 -167.6 -72.6999L-172.7 -67.4999L-171.5 -66.2999C-170.7 -65.4999 -170.7 -64.1999 -171.5 -63.3999C-172.3 -62.5999 -173.5 -62.5999 -174.3 -63.3999L-188.4 -77.4999C-189.2 -78.2999 -190.5 -78.2999 -191.3 -77.4999L-199.4 -69.3999ZM-176.3 -83.0999C-177.8 -83.0999 -179.1 -81.8999 -179.1 -80.3999C-179.1 -78.8999 -177.8 -77.6999 -176.3 -77.6999C-174.8 -77.6999 -173.6 -78.8999 -173.6 -80.3999C-173.6 -81.8999 -174.8 -83.0999 -176.3 -83.0999ZM5.39984 -72.1999C5.39984 -84.1999 15.0999 -93.8999 27.0999 -93.8999C39.0999 -93.8999 48.7999 -84.1999 48.7999 -72.1999C48.7999 -60.2999 39.0999 -50.4999 27.0999 -50.4999C15.0999 -50.4999 5.39984 -60.2999 5.39984 -72.1999ZM21.6998 -78.2999V-66.0999C21.6998 -65.3999 22.0999 -64.6999 22.7999 -64.3999C23.3999 -63.9999 24.1998 -63.9999 24.7999 -64.3999L34.2999 -70.4999C34.8999 -70.8999 35.2999 -71.5999 35.2999 -72.1999C35.2999 -72.8999 34.8999 -73.5999 34.2999 -73.9999L24.7999 -80.0999C24.1998 -80.4999 23.3999 -80.4999 22.7999 -80.0999C22.0999 -79.7999 21.6998 -79.0999 21.6998 -78.2999ZM-66.6002 -88.4999C-65.4002 -88.4999 -64.5002 -87.5999 -64.5002 -86.4999V-57.9999C-64.5002 -56.8999 -65.4002 -55.9999 -66.6002 -55.9999H-67.9001C-69.0002 -55.9999 -69.9001 -56.8999 -69.9001 -57.9999V-86.4999C-69.9001 -87.5999 -69.0002 -88.4999 -67.9001 -88.4999H-66.6002ZM-53.0002 -88.4999C-51.9001 -88.4999 -51.0002 -87.5999 -51.0002 -86.4999V-57.9999C-51.0002 -56.8999 -51.9001 -55.9999 -53.0002 -55.9999H-54.4001C-55.5002 -55.9999 -56.4001 -56.8999 -56.4001 -57.9999V-86.4999C-56.4001 -87.5999 -55.5002 -88.4999 -54.4001 -88.4999H-53.0002ZM-76.4002 -75.6999C-73.9001 -74.0999 -73.9001 -70.3999 -76.4002 -68.7999L-93.6002 -58.1999C-96.3001 -56.4999 -99.8002 -58.4999 -99.8002 -61.5999V-82.7999C-99.8002 -85.9999 -96.3001 -87.9999 -93.6002 -86.2999L-76.4002 -75.6999ZM138.3 -75.6999C140.8 -74.0999 140.8 -70.3999 138.3 -68.7999L112.9 -52.7999C110.2 -51.0999 106.7 -53.0999 106.7 -56.2999V-88.1999C106.7 -91.3999 110.2 -93.3999 112.9 -91.6999L138.3 -75.6999ZM101.8 123.2C101.8 111.2 111.5 101.5 123.5 101.5C135.5 101.5 145.2 111.2 145.2 123.2C145.2 135.2 135.5 144.9 123.5 144.9C111.5 144.9 101.8 135.2 101.8 123.2ZM125.5 114.4C125.5 113.3 124.6 112.4 123.5 112.4C122.4 112.4 121.4 113.3 121.4 114.4V121.2H114.7C113.5 121.2 112.6 122.1 112.6 123.2C112.6 124.4 113.5 125.3 114.7 125.3H121.4V132C121.4 133.2 122.4 134.1 123.5 134.1C124.6 134.1 125.5 133.2 125.5 132V125.3H132.3C133.4 125.3 134.3 124.4 134.3 123.2C134.3 122.1 133.4 121.2 132.3 121.2H125.5V114.4Z" fill="#0F172A"/>
<path fill-rule="evenodd" clip-rule="evenodd" d="M45.4998 6.7002C48.7998 6.7002 51.5998 9.4002 51.5998 12.8002V38.5002C51.5998 41.9002 48.7998 44.6002 45.4998 44.6002H8.8998C5.4998 44.6002 2.7998 41.9002 2.7998 38.5002V12.8002C2.7998 9.4002 5.4998 6.7002 8.8998 6.7002H45.4998ZM16.9998 14.8002C16.9998 15.9002 17.8998 16.9002 18.9998 16.9002C20.1998 16.9002 21.0998 15.9002 21.0998 14.8002C21.0998 13.7002 20.1998 12.8002 18.9998 12.8002C17.8998 12.8002 16.9998 13.7002 16.9998 14.8002ZM10.8998 12.7002C9.7998 12.7002 8.7998 13.6002 8.7998 14.8002C8.7998 15.9002 9.7998 16.8002 10.8998 16.8002C11.9998 16.8002 12.8998 15.9002 12.8998 14.8002C12.8998 13.6002 11.9998 12.7002 10.8998 12.7002ZM6.7998 22.9002V38.5002C6.7998 39.6002 7.6998 40.5002 8.8998 40.5002H45.4998C46.5998 40.5002 47.4998 39.6002 47.4998 38.5002V22.9002H6.7998ZM27.1998 12.7002C25.9998 12.7002 25.0998 13.6002 25.0998 14.8002C25.0998 15.9002 25.9998 16.8002 27.1998 16.8002C28.2998 16.8002 29.1998 15.9002 29.1998 14.8002C29.1998 13.6002 28.2998 12.7002 27.1998 12.7002ZM430.9 41.9002C432.4 41.9002 433.6 43.1002 433.6 44.6002C433.6 46.1002 432.4 47.3002 430.9 47.3002C429.4 47.3002 428.2 46.1002 428.2 44.6002C428.2 43.1002 429.4 41.9002 430.9 41.9002ZM441.7 44.6002C441.7 43.1002 442.9 41.9002 444.4 41.9002C445.9 41.9002 447.2 43.1002 447.2 44.6002C447.2 46.1002 445.9 47.3002 444.4 47.3002C442.9 47.3002 441.7 46.1002 441.7 44.6002ZM444.4 28.3002C445.9 28.3002 447.2 29.6002 447.2 31.1002C447.2 32.6002 445.9 33.8002 444.4 33.8002C442.9 33.8002 441.7 32.6002 441.7 31.1002C441.7 29.6002 442.9 28.3002 444.4 28.3002ZM428.1 31.1002C428.1 29.6002 429.3 28.3002 430.8 28.3002H430.9C432.4 28.3002 433.6 29.6002 433.6 31.1002C433.6 32.6002 432.4 33.8002 430.9 33.8002H430.8C429.3 33.8002 428.1 32.6002 428.1 31.1002ZM437.6 35.1002C439.1 35.1002 440.3 36.4002 440.3 37.9002C440.3 39.4002 439.1 40.6002 437.6 40.6002C436.1 40.6002 434.9 39.4002 434.9 37.9002C434.9 36.4002 436.1 35.1002 437.6 35.1002ZM417.9 28.4002C420.6 28.4002 422.7 30.5002 422.7 33.1002V42.6002C422.7 45.2002 420.6 47.4002 417.9 47.4002H408.5C405.8 47.4002 403.7 45.2002 403.7 42.6002V33.1002C403.7 30.5002 405.8 28.4002 408.5 28.4002H417.9ZM428 8.7002C428 6.1002 430.2 4.0002 432.8 4.0002H442.3C444.9 4.0002 447 6.1002 447 8.7002V18.2002C447 20.8002 444.9 22.9002 442.3 22.9002H432.8C430.2 22.9002 428 20.8002 428 18.2002V8.7002ZM417.9 4.0002C420.5 4.0002 422.6 6.1002 422.6 8.7002V18.2002C422.6 20.8002 420.5 22.9002 417.9 22.9002H408.4C405.7 22.9002 403.6 20.8002 403.6 18.2002V8.7002C403.6 6.1002 405.7 4.0002 408.4 4.0002H417.9ZM432.8 8.0002C432.4 8.0002 432.1 8.30019 432.1 8.7002V18.2002C432.1 18.6002 432.4 18.9002 432.8 18.9002H442.3C442.6 18.9002 443 18.6002 443 18.2002V8.7002C443 8.30019 442.6 8.0002 442.3 8.0002H432.8ZM437.5 10.7002C439 10.7002 440.2 11.9002 440.2 13.4002V13.5002C440.2 15.0002 439 16.2002 437.5 16.2002C436 16.2002 434.8 15.0002 434.8 13.5002V13.4002C434.8 11.9002 436 10.7002 437.5 10.7002ZM407.7 42.6002C407.7 43.0002 408 43.3002 408.3 43.3002H417.8C418.2 43.3002 418.5 43.0002 418.5 42.6002V33.1002C418.5 32.7002 418.2 32.4002 417.8 32.4002H408.3C408 32.4002 407.7 32.7002 407.7 33.1002V42.6002ZM413.1 35.1002C414.6 35.1002 415.8 36.4002 415.8 37.9002C415.8 39.4002 414.6 40.6002 413.1 40.6002C411.6 40.6002 410.3 39.4002 410.3 37.9002C410.3 36.4002 411.6 35.1002 413.1 35.1002ZM407.6 18.2002C407.6 18.6002 407.9 18.9002 408.3 18.9002H417.8C418.2 18.9002 418.5 18.6002 418.5 18.2002V8.7002C418.5 8.30019 418.2 8.0002 417.8 8.0002H408.3C407.9 8.0002 407.6 8.30019 407.6 8.7002V18.2002ZM413.1 10.7002C414.6 10.7002 415.8 12.0002 415.8 13.5002C415.8 15.0002 414.6 16.2002 413.1 16.2002H413C411.5 16.2002 410.3 15.0002 410.3 13.5002C410.3 12.0002 411.5 10.7002 413 10.7002H413.1ZM232.6 -83.1998C236 -83.3331 239.366 -83.6331 242.7 -84.0998C243.8 -84.1998 244.8 -83.3998 245 -82.2998C245.4 -79.4998 245.666 -76.6331 245.8 -73.6998C245.9 -72.1998 244.7 -70.8998 243.2 -70.8998C242.1 -70.8998 241.2 -71.5998 240.5 -72.3998C239.8 -73.1998 238.9 -73.5998 237.9 -73.5998C235.7 -73.5998 233.8 -71.1998 233.8 -68.1998C233.8 -65.1998 235.7 -62.7998 237.9 -62.7998C238.9 -62.7998 239.8 -63.1998 240.5 -63.9998C241.2 -64.7998 242.1 -65.4998 243.2 -65.4998C244.8 -65.4998 246 -64.1998 246 -62.6998C245.866 -59.0998 245.566 -55.5331 245.1 -51.9998C244.9 -51.0998 244.2 -50.2998 243.3 -50.1998C239.766 -49.7331 236.2 -49.4331 232.6 -49.2998C231 -49.1998 229.8 -50.4998 229.8 -51.9998C229.8 -53.0998 230.5 -54.0998 231.3 -54.7998C232 -55.4998 232.5 -56.3998 232.5 -57.3998C232.5 -59.5998 230.1 -61.3998 227.1 -61.3998C224.1 -61.3998 221.6 -59.5998 221.6 -57.3998C221.6 -56.3998 222.1 -55.4998 222.9 -54.7998C223.7 -54.0998 224.3 -53.1998 224.3 -52.0998C224.3 -50.5998 223.1 -49.2998 221.6 -49.3998C218.666 -49.5998 215.766 -49.8998 212.9 -50.2998C211.8 -50.4998 211 -51.4998 211.2 -52.5998C211.666 -55.9331 211.966 -59.2998 212.1 -62.6998C212.1 -64.1998 210.9 -65.4998 209.3 -65.4998C208.2 -65.4998 207.3 -64.7998 206.6 -63.9998C205.9 -63.1998 205 -62.7998 204 -62.7998C201.8 -62.7998 199.9 -65.1998 199.9 -68.1998C199.9 -71.1998 201.8 -73.5998 204 -73.5998C205 -73.5998 205.9 -73.1998 206.6 -72.3998C207.3 -71.5998 208.2 -70.8998 209.3 -70.8998C210.8 -70.8998 212 -72.1998 211.9 -73.6998C211.766 -76.4331 211.5 -79.1665 211.1 -81.8998C211 -82.4998 211.2 -83.1998 211.7 -83.5998C212.1 -84.0998 212.8 -84.2998 213.4 -84.1998C216.066 -83.7998 218.8 -83.4998 221.6 -83.2998C223.1 -83.2998 224.3 -84.4998 224.3 -85.9998C224.3 -87.0998 223.7 -87.9998 222.9 -88.6998C222.1 -89.3998 221.6 -90.2998 221.6 -91.2998C221.6 -93.4998 224.1 -95.2998 227.1 -95.2998C230.1 -95.2998 232.5 -93.4998 232.5 -91.2998C232.5 -90.2998 232 -89.3998 231.3 -88.6998C230.5 -87.9998 229.8 -86.9998 229.8 -85.8998C229.8 -84.3998 231 -83.1998 232.6 -83.1998Z" fill="#0F172A"/>
<path fill-rule="evenodd" clip-rule="evenodd" d="M503.6 210.8C503.6 207.5 506.3 204.8 509.6 204.8H536.6C539.9 204.8 542.6 207.5 542.6 210.8V234.8C542.6 238.1 539.9 240.8 536.6 240.8H509.6C506.3 240.8 503.6 238.1 503.6 234.8V210.8ZM511.6 214.9L515 218.3L511.6 221.8C511 222.4 511 223.3 511.6 223.9C512.2 224.5 513.1 224.5 513.7 223.9L518.2 219.4C518.8 218.8 518.8 217.9 518.2 217.3L513.7 212.8C513.1 212.2 512.2 212.2 511.6 212.8C511 213.4 511 214.3 511.6 214.9ZM520.1 221.3C519.3 221.3 518.6 222 518.6 222.8C518.6 223.7 519.3 224.3 520.1 224.3H526.1C527 224.3 527.6 223.7 527.6 222.8C527.6 222 527 221.3 526.1 221.3H520.1ZM-400.8 -85.8999C-400.8 -89.1999 -398.1 -91.8999 -394.8 -91.8999H-367.8C-364.5 -91.8999 -361.8 -89.1999 -361.8 -85.8999V-66.3999C-361.8 -62.9999 -364.5 -60.3999 -367.8 -60.3999H-373.8V-59.7999C-373.8 -58.5999 -373.3 -57.4999 -372.5 -56.6999L-371.2 -55.3999C-370.8 -54.9999 -370.7 -54.2999 -370.9 -53.7999C-371.1 -53.1999 -371.7 -52.8999 -372.3 -52.8999H-390.3C-390.9 -52.8999 -391.4 -53.1999 -391.7 -53.7999C-391.9 -54.2999 -391.8 -54.9999 -391.3 -55.3999L-390.1 -56.6999C-389.3 -57.4999 -388.8 -58.5999 -388.8 -59.7999V-60.3999H-394.8C-398.1 -60.3999 -400.8 -62.9999 -400.8 -66.3999V-85.8999ZM-397.8 -85.8999V-70.8999C-397.8 -69.1999 -396.4 -67.8999 -394.8 -67.8999H-367.8C-366.1 -67.8999 -364.8 -69.1999 -364.8 -70.8999V-85.8999C-364.8 -87.4999 -366.1 -88.8999 -367.8 -88.8999H-394.8C-396.4 -88.8999 -397.8 -87.4999 -397.8 -85.8999ZM-372.3 231.8H-390.3V213.8H-372.3V231.8Z" fill="#0F172A"/>
<path fill-rule="evenodd" clip-rule="evenodd" d="M343.7 222.8C343.7 233.6 334.9 242.3 324.2 242.3C313.4 242.3 304.7 233.6 304.7 222.8C304.7 212.1 313.4 203.3 324.2 203.3C334.9 203.3 343.7 212.1 343.7 222.8ZM321.9 212.3C317.4 212.3 313.7 216 313.7 220.6C313.7 225.1 317.4 228.8 321.9 228.8C323.7 228.8 325.3 228.3 326.6 227.4L330.6 231.4C331.2 232 332.1 232 332.7 231.4C333.3 230.8 333.3 229.9 332.7 229.3L328.7 225.3C329.6 223.9 330.2 222.3 330.2 220.6C330.2 216 326.5 212.3 321.9 212.3ZM242.6 203.3C243.4 203.3 244.1 204 244.1 204.8C244.1 205.7 243.4 206.3 242.6 206.3H241.1V227.3C241.1 230.6 238.4 233.3 235.1 233.3H232.7L235 240.4C235.3 241.1 234.8 242 234.1 242.3C233.3 242.5 232.4 242.1 232.2 241.3L231.5 239.3H214.7L214 241.3C213.7 242.1 212.9 242.5 212.1 242.3C211.3 242 210.9 241.1 211.2 240.4L213.5 233.3H211.1C207.8 233.3 205.1 230.6 205.1 227.3V206.3H203.6C202.7 206.3 202.1 205.7 202.1 204.8C202.1 204 202.7 203.3 203.6 203.3H242.6ZM224.6 216.8C224.6 216 223.9 215.3 223.1 215.3C222.2 215.3 221.6 216 221.6 216.8V224.3C221.6 225.2 222.2 225.8 223.1 225.8C223.9 225.8 224.6 225.2 224.6 224.3V216.8ZM230.6 212.3C230.6 211.5 229.9 210.8 229.1 210.8C228.2 210.8 227.6 211.5 227.6 212.3V224.3C227.6 225.2 228.2 225.8 229.1 225.8C229.9 225.8 230.6 225.2 230.6 224.3V212.3ZM230.5 236.3L229.5 233.3H216.7L215.7 236.3H230.5ZM218.5 221.3C218.5 220.5 217.9 219.8 217 219.8C216.2 219.8 215.5 220.5 215.5 221.3V224.3C215.5 225.2 216.2 225.8 217 225.8C217.9 225.8 218.5 225.2 218.5 224.3V221.3ZM433.7 102.1C435.7 102.1 437.4 103.8 437.4 105.8V111.8C438.266 111.933 439.133 112.067 440 112.2C442.9 112.6 444.9 115.1 444.9 118V130.6C444.9 133.9 442.2 136.6 438.9 136.6H438.4L438.7 140C438.9 142.2 437.2 144.1 435 144.1H415.9C413.7 144.1 412 142.2 412.2 140L412.5 136.6H411.9C408.6 136.6 405.9 133.9 405.9 130.6V118C405.9 115.1 408 112.6 410.9 112.2C411.7 112.067 412.533 111.933 413.4 111.8V105.8C413.4 103.8 415.1 102.1 417.2 102.1H433.7ZM437.4 121.6C438.3 121.6 438.9 120.9 438.9 120.1C438.9 119.3 438.3 118.6 437.4 118.6C436.6 118.6 435.9 119.3 435.9 120.1C435.9 120.9 436.6 121.6 437.4 121.6ZM425.4 127.6C422.533 127.6 419.7 127.733 416.9 128C416.5 128.1 416.2 128.3 416.2 128.7L415.1 140.3C415.1 140.7 415.4 141.1 415.9 141.1H435C435.4 141.1 435.7 140.7 435.7 140.3L434.7 128.7C434.6 128.3 434.3 128.1 434 128C431.2 127.733 428.333 127.6 425.4 127.6ZM434.4 111.5V105.8C434.4 105.4 434.1 105.1 433.7 105.1H417.2C416.8 105.1 416.4 105.4 416.4 105.8V111.5C419.4 111.233 422.4 111.1 425.4 111.1C428.466 111.1 431.466 111.233 434.4 111.5ZM431.4 118.6C430.6 118.6 429.9 119.3 429.9 120.1C429.9 120.9 430.6 121.6 431.4 121.6C432.3 121.6 432.9 120.9 432.9 120.1C432.9 119.3 432.3 118.6 431.4 118.6ZM103.9 225.8C103.9 216.7 111.3 209.3 120.4 209.3C121.2 209.3 121.9 210 121.9 210.8V224.3H135.4C136.2 224.3 136.9 225 136.9 225.8C136.9 234.9 129.5 242.3 120.4 242.3C111.3 242.3 103.9 234.9 103.9 225.8ZM124.9 204.8C124.9 204 125.6 203.3 126.4 203.3C135.5 203.3 142.9 210.7 142.9 219.8C142.9 220.7 142.2 221.3 141.4 221.3H126.4C125.6 221.3 124.9 220.7 124.9 219.8V204.8ZM-261.6 -55.4001C-261 -54.8001 -261 -53.9001 -261.6 -53.3001C-262.2 -52.7001 -263.1 -52.7001 -263.7 -53.3001L-299.7 -89.3001C-300.3 -89.9001 -300.3 -90.8001 -299.7 -91.4001C-299.1 -92.0001 -298.2 -92.0001 -297.6 -91.4001L-261.6 -55.4001ZM-259.7 -61.0001C-259.7 -60.0001 -260.1 -59.3001 -260.7 -58.7001L-270.2 -68.2001V-80.5001L-264.8 -85.9001C-262.9 -87.7001 -259.7 -86.4001 -259.7 -83.7001V-61.0001ZM-273.2 -81.4001V-71.3001L-289.3 -87.4001H-279.2C-275.8 -87.4001 -273.2 -84.7001 -273.2 -81.4001ZM-301.7 -81.4001C-301.7 -83.0001 -301.1 -84.4001 -300.1 -85.5001L-274.4 -59.8001C-275.5 -58.3001 -277.2 -57.4001 -279.2 -57.4001H-295.7C-299 -57.4001 -301.7 -60.1001 -301.7 -63.4001V-81.4001Z" fill="#0F172A"/>
</g>
</g>
<defs>
<clipPath id="clip0_72_5504">
<rect width="56" height="50" fill="white"/>
</clipPath>
</defs>
</svg>
