<svg width="67" height="50" viewBox="0 0 67 50" fill="none" xmlns="http://www.w3.org/2000/svg">
<g clip-path="url(#clip0_70_5418)">
<mask id="mask0_70_5418" style="mask-type:luminance" maskUnits="userSpaceOnUse" x="-1562" y="-859" width="2032" height="1570">
<path d="M-1561.37 -858.974H469.397V710.256H-1561.37V-858.974Z" fill="white"/>
</mask>
<g mask="url(#mask0_70_5418)">
<path fill-rule="evenodd" clip-rule="evenodd" d="M-851.116 41.7949C-852.141 42.8205 -853.808 42.8205 -854.834 41.7949L-879.962 16.6666V36.5384C-879.962 37.9487 -881.116 39.1025 -882.526 39.1025C-884.064 39.1025 -885.218 37.9487 -885.218 36.5384V10.3846C-885.218 8.97433 -884.064 7.8205 -882.526 7.8205H-856.5C-855.09 7.8205 -853.936 8.97433 -853.936 10.3846C-853.936 11.7948 -855.09 12.9487 -856.5 12.9487H-876.244L-851.116 38.0769C-850.09 39.1025 -850.09 40.7692 -851.116 41.7949ZM-631.244 150.128C-631.244 134.744 -618.808 122.308 -603.423 122.308C-588.039 122.308 -575.603 134.744 -575.603 150.128C-575.603 165.513 -588.039 177.949 -603.423 177.949C-618.808 177.949 -631.244 165.513 -631.244 150.128ZM-606.116 161.41C-606.116 162.82 -604.962 163.974 -603.423 163.974C-602.013 163.974 -600.859 162.82 -600.859 161.41V145.513L-594.064 152.692C-593.039 153.846 -591.5 153.846 -590.346 152.949C-589.321 151.923 -589.321 150.256 -590.218 149.231L-601.5 137.051C-602.013 136.538 -602.782 136.154 -603.423 136.154C-604.192 136.154 -604.833 136.538 -605.346 137.051L-616.628 149.231C-617.654 150.256 -617.654 151.923 -616.5 152.949C-615.475 153.846 -613.808 153.846 -612.91 152.692L-606.116 145.513V161.41ZM-1109.71 25.1282C-1109.71 26.5384 -1110.86 27.6923 -1112.4 27.6923H-1135.47L-1127.91 34.4872C-1126.88 35.5128 -1126.88 37.1795 -1127.91 38.2051C-1128.81 39.2308 -1130.47 39.3589 -1131.5 38.3333L-1143.68 27.0513C-1144.19 26.5384 -1144.58 25.7692 -1144.58 25.1282C-1144.58 24.3589 -1144.19 23.7179 -1143.68 23.2051L-1131.5 11.9231C-1130.47 10.8974 -1128.81 11.0256 -1127.91 12.0513C-1126.88 13.0769 -1126.88 14.7436 -1127.91 15.641L-1135.47 22.5641H-1112.4C-1110.86 22.5641 -1109.71 23.7179 -1109.71 25.1282ZM-372.269 136.154C-373.808 136.154 -374.962 137.308 -374.962 138.718V168.333C-374.962 169.744 -373.808 170.897 -372.269 170.897H-342.654C-341.244 170.897 -340.09 169.744 -340.09 168.333V154.359C-340.09 152.949 -338.936 151.795 -337.526 151.795C-335.987 151.795 -334.833 152.949 -334.833 154.359V168.333C-334.833 172.692 -338.423 176.154 -342.654 176.154H-372.269C-376.628 176.154 -380.218 172.692 -380.218 168.333V138.718C-380.218 134.359 -376.628 130.897 -372.269 130.897H-354.962C-353.423 130.897 -352.269 132.051 -352.269 133.462C-352.269 135 -353.423 136.154 -354.962 136.154H-372.269ZM-365.218 157.692L-333.68 129.103H-342.654C-344.064 129.103 -345.218 127.949 -345.218 126.538C-345.218 125.128 -344.064 123.974 -342.654 123.974H-326.885C-325.474 123.974 -324.321 125.128 -324.321 126.538V142.179C-324.321 143.59 -325.474 144.872 -326.885 144.872C-328.423 144.872 -329.577 143.59 -329.577 142.179V132.436L-361.757 161.538C-362.782 162.564 -364.449 162.436 -365.475 161.41C-366.372 160.256 -366.372 158.718 -365.218 157.692ZM-1015.35 25.1282C-1015.35 23.7179 -1014.19 22.5641 -1012.78 22.5641H-989.577L-997.141 15.641C-998.167 14.7436 -998.167 13.0769 -997.269 12.0513C-996.244 11.0256 -994.577 10.8974 -993.551 11.9231L-981.372 23.2051C-980.859 23.7179 -980.603 24.3589 -980.603 25.1282C-980.603 25.7692 -980.859 26.5384 -981.372 27.0513L-993.551 38.3333C-994.577 39.3589 -996.244 39.2308 -997.269 38.2051C-998.167 37.1795 -998.167 35.5128 -997.141 34.4872L-989.577 27.6923H-1012.78C-1014.19 27.6923 -1015.35 26.5384 -1015.35 25.1282ZM-740.731 32.8205C-739.705 33.8461 -739.705 35.5128 -740.731 36.5384C-741.757 37.5641 -743.423 37.5641 -744.449 36.5384L-750.346 30.641C-750.175 34.3162 -749.876 37.9914 -749.449 41.6666C-749.321 42.6923 -748.423 43.5897 -747.269 43.7179C-743.167 44.0598 -738.979 44.2307 -734.705 44.2307C-730.517 44.2307 -726.372 44.0598 -722.269 43.7179C-721.116 43.5897 -720.218 42.6923 -720.09 41.6666C-719.833 39.8718 -719.663 38.0342 -719.577 36.1538C-719.449 34.7436 -718.167 33.7179 -716.757 33.8461C-715.346 33.9743 -714.192 35.1282 -714.321 36.6667C-714.492 38.547 -714.705 40.3846 -714.962 42.1795C-715.346 45.7692 -718.167 48.5897 -721.757 48.8461C-726.03 49.2735 -730.346 49.4872 -734.705 49.4872C-739.15 49.4872 -743.509 49.2735 -747.782 48.8461C-751.372 48.5897 -754.193 45.7692 -754.577 42.1795C-755.09 38.3333 -755.389 34.4444 -755.475 30.5128L-761.628 36.5384C-762.654 37.5641 -764.321 37.5641 -765.218 36.5384C-766.244 35.5128 -766.244 33.8461 -765.218 32.8205L-754.834 22.4359C-753.808 21.4102 -752.141 21.4102 -751.116 22.4359L-740.731 32.8205ZM-747.269 6.53844C-748.423 6.66664 -749.321 7.43588 -749.449 8.58972C-749.705 10.3846 -749.876 12.1795 -749.962 13.9743C-750.09 15.3846 -751.372 16.5385 -752.782 16.4102C-754.192 16.282 -755.346 15 -755.218 13.5897C-755.047 11.7094 -754.876 9.82904 -754.705 7.9487C-754.192 4.35896 -751.372 1.66664 -747.782 1.28203C-743.509 0.940155 -739.192 0.769211 -734.833 0.769211C-730.389 0.769211 -726.03 0.940155 -721.757 1.28203C-718.167 1.66664 -715.346 4.35896 -714.962 7.9487C-714.449 11.8803 -714.15 15.812 -714.064 19.7436L-707.91 13.7179C-706.885 12.6923 -705.218 12.6923 -704.321 13.7179C-703.295 14.7436 -703.295 16.282 -704.321 17.3077L-714.705 27.8205C-715.731 28.8461 -717.398 28.8461 -718.423 27.8205L-728.808 17.3077C-729.833 16.282 -729.833 14.7436 -728.808 13.7179C-727.782 12.6923 -726.116 12.6923 -725.09 13.7179L-719.192 19.4872C-719.363 15.812 -719.663 12.1795 -720.09 8.58972C-720.218 7.43588 -721.116 6.66664 -722.269 6.53844C-726.372 6.11108 -730.56 5.89742 -734.833 5.89742C-739.022 5.89742 -743.167 6.11108 -747.269 6.53844ZM-486.372 11.5384C-489.833 11.5384 -492.654 8.71793 -492.654 5.25639C-492.654 1.66664 -489.833 -1.15387 -486.372 -1.15387C-482.782 -1.15387 -479.962 1.66664 -479.962 5.25639C-479.962 8.71793 -482.782 11.5384 -486.372 11.5384ZM-474.449 7.56409C-475.731 7.56409 -476.757 6.53844 -476.757 5.25639C-476.757 3.84613 -475.731 2.8205 -474.449 2.8205H-457.013C-455.603 2.8205 -454.577 3.84613 -454.577 5.25639C-454.577 6.53844 -455.603 7.56409 -457.013 7.56409H-474.449ZM-495.859 5.25639C-495.859 6.53844 -496.885 7.56409 -498.167 7.56409H-502.91C-504.321 7.56409 -505.346 6.53844 -505.346 5.25639C-505.346 3.97433 -504.321 2.8205 -502.91 2.8205H-498.167C-496.885 2.8205 -495.859 3.97433 -495.859 5.25639ZM-502.91 47.3077C-504.321 47.3077 -505.346 46.282 -505.346 44.8718C-505.346 43.5897 -504.321 42.5641 -502.91 42.5641H-498.167C-496.885 42.5641 -495.859 43.5897 -495.859 44.8718C-495.859 46.282 -496.885 47.3077 -498.167 47.3077H-502.91ZM-474.321 47.3077C-475.731 47.3077 -476.757 46.282 -476.757 44.8718C-476.757 43.5897 -475.731 42.5641 -474.321 42.5641H-456.885C-455.603 42.5641 -454.577 43.5897 -454.577 44.8718C-454.577 46.282 -455.603 47.3077 -456.885 47.3077H-474.321ZM-483.039 25.1282C-483.039 26.4102 -484.192 27.4359 -485.474 27.4359H-502.91C-504.192 27.4359 -505.346 26.4102 -505.346 25.1282C-505.346 23.7179 -504.192 22.6923 -502.91 22.6923H-485.474C-484.192 22.6923 -483.039 23.7179 -483.039 25.1282ZM-461.628 27.4359C-462.91 27.4359 -464.064 26.4102 -464.064 25.1282C-464.064 23.7179 -462.91 22.6923 -461.628 22.6923H-456.885C-455.603 22.6923 -454.449 23.7179 -454.449 25.1282C-454.449 26.4102 -455.603 27.4359 -456.885 27.4359H-461.628ZM-473.551 31.4102C-477.013 31.4102 -479.834 28.5897 -479.834 25.1282C-479.834 21.5384 -477.013 18.7179 -473.551 18.7179C-469.962 18.7179 -467.141 21.5384 -467.141 25.1282C-467.141 28.5897 -469.962 31.4102 -473.551 31.4102ZM-486.244 51.282C-489.705 51.282 -492.526 48.4615 -492.526 44.8718C-492.526 41.4102 -489.705 38.5897 -486.244 38.5897C-482.782 38.5897 -479.834 41.4102 -479.834 44.8718C-479.834 48.4615 -482.782 51.282 -486.244 51.282ZM20.4229 -124.872C21.8331 -124.872 22.9871 -123.718 22.9871 -122.308V-78.8462C22.9871 -77.4359 21.8331 -76.2821 20.4229 -76.2821H15.1665C13.7562 -76.2821 12.6024 -77.4359 12.6024 -78.8462V-122.308C12.6024 -123.718 13.7562 -124.872 15.1665 -124.872H20.4229ZM44.7819 -124.872C46.1921 -124.872 47.4742 -123.718 47.4742 -122.308V-78.8462C47.4742 -77.4359 46.1921 -76.2821 44.7819 -76.2821H39.6537C38.1152 -76.2821 36.9614 -77.4359 36.9614 -78.8462V-122.308C36.9614 -123.718 38.1152 -124.872 39.6537 -124.872H44.7819ZM-108.808 -86.7949L-104.449 -97.6923C-103.68 -99.4872 -102.654 -101.026 -101.372 -102.436L-77.2694 -126.41C-74.4489 -129.359 -69.7053 -129.359 -66.8848 -126.41C-63.936 -123.59 -63.936 -118.846 -66.8848 -116.026L-90.8591 -91.9231C-92.2694 -90.641 -93.8079 -89.6154 -95.6028 -88.8462L-106.5 -84.4872C-107.91 -83.8462 -109.321 -85.2564 -108.808 -86.7949ZM-115.474 -82.0513C-115.474 -79.7436 -113.552 -77.6923 -111.244 -77.6923H-78.1667C-75.731 -77.6923 -73.8079 -79.7436 -73.8079 -82.0513V-100.385C-73.8079 -101.795 -72.6541 -102.949 -71.2438 -102.949C-69.7053 -102.949 -68.5514 -101.795 -68.5514 -100.385V-82.0513C-68.5514 -76.7949 -72.9104 -72.5641 -78.1667 -72.5641H-111.244C-116.5 -72.5641 -120.731 -76.7949 -120.731 -82.0513V-115.128C-120.731 -120.385 -116.5 -124.744 -111.244 -124.744H-92.9104C-91.5001 -124.744 -90.3463 -123.59 -90.3463 -122.051C-90.3463 -120.641 -91.5001 -119.487 -92.9104 -119.487H-111.244C-113.552 -119.487 -115.474 -117.564 -115.474 -115.128V-82.0513ZM-244.064 -89.4872L-206.116 -127.436C-203.167 -130.385 -198.551 -130.385 -195.603 -127.436C-192.782 -124.615 -192.782 -119.872 -195.603 -117.051L-233.68 -79.1026C-234.962 -77.6923 -236.5 -76.6667 -238.295 -76.0257L-249.321 -71.5385C-250.731 -71.0257 -252.141 -72.4359 -251.5 -73.8462L-247.141 -84.7436C-246.5 -86.5385 -245.346 -88.2052 -244.064 -89.4872ZM-379.962 2.56409C-379.962 -0.384644 -377.654 -2.69233 -374.833 -2.69233H-370.731C-368.295 -2.69233 -366.244 -1.02567 -365.731 1.41023L-363.167 12.5641C-362.654 15.2564 -364.192 17.9487 -366.885 18.7179L-370.09 19.6154C-371.5 20.1282 -372.398 21.5384 -371.757 22.9487C-367.782 32.8205 -359.833 40.641 -350.09 44.7436C-348.68 45.2564 -347.141 44.4872 -346.757 43.0769L-345.859 39.7436C-345.09 37.1795 -342.398 35.5128 -339.705 36.1538L-328.423 38.5897C-326.116 39.1026 -324.321 41.282 -324.321 43.7179V47.6923C-324.321 50.641 -326.757 52.9487 -329.577 52.9487H-334.833C-338.808 52.9487 -342.654 52.4359 -346.372 51.4102C-362.013 47.3077 -374.321 35 -378.551 19.2307C-379.449 15.641 -379.962 11.6666 -379.962 7.69229V2.56409Z" fill="#0F172A"/>
<path fill-rule="evenodd" clip-rule="evenodd" d="M-253.936 -1.79478C-253.936 -3.20504 -252.782 -4.35889 -251.372 -4.35889H-194.064C-192.526 -4.35889 -191.372 -3.20504 -191.372 -1.79478C-191.372 -0.384528 -192.526 0.897523 -194.064 0.897523H-194.833V31.2821C-194.833 36.5386 -199.192 40.7693 -204.449 40.7693H-208.167L-205.346 51.4103C-205.09 52.8206 -205.859 54.2309 -207.269 54.6155C-208.68 55.0001 -210.09 54.2309 -210.475 52.8206L-210.859 51.2821H-234.577L-234.962 52.8206C-235.346 54.2309 -236.757 55.0001 -238.167 54.6155C-239.577 54.2309 -240.346 52.8206 -239.962 51.4103L-237.269 40.7693H-240.987C-246.244 40.7693 -250.475 36.5386 -250.475 31.2821V0.897523H-251.372C-252.782 0.897523 -253.936 -0.384528 -253.936 -1.79478ZM-236.628 22.5642V27.8206C-236.628 29.2309 -235.475 30.3847 -233.936 30.3847C-232.526 30.3847 -231.372 29.2309 -231.372 27.8206V22.5642C-231.372 21.1539 -232.526 20.0001 -233.936 20.0001C-235.475 20.0001 -236.628 21.1539 -236.628 22.5642ZM-214.064 8.71804V27.8206C-214.064 29.2309 -212.782 30.3847 -211.372 30.3847C-209.962 30.3847 -208.808 29.2309 -208.808 27.8206V8.71804C-208.808 7.17958 -209.962 6.02573 -211.372 6.02573C-212.782 6.02573 -214.064 7.17958 -214.064 8.71804ZM-231.885 40.7693L-233.167 46.0257H-212.141L-213.551 40.7693H-231.885ZM-220.09 15.6411C-220.09 14.2309 -221.372 12.9488 -222.782 12.9488C-224.192 12.9488 -225.346 14.2309 -225.346 15.6411V27.8206C-225.346 29.2309 -224.192 30.3847 -222.782 30.3847C-221.372 30.3847 -220.09 29.2309 -220.09 27.8206V15.6411ZM-236.757 132.821C-235.859 133.718 -235.859 135.257 -236.757 136.154C-244.449 143.846 -244.449 156.41 -236.757 164.103C-229.064 171.795 -216.5 171.795 -208.808 164.103C-200.987 156.41 -200.987 143.846 -208.808 136.154C-209.705 135.257 -209.705 133.718 -208.808 132.821C-207.91 132.051 -206.372 132.051 -205.474 132.821C-195.987 142.436 -195.987 157.821 -205.474 167.308C-215.09 176.795 -230.475 176.795 -239.962 167.308C-249.449 157.821 -249.449 142.436 -239.962 132.821C-239.064 132.051 -237.654 132.051 -236.757 132.821ZM-222.782 125.769C-221.5 125.769 -220.475 126.795 -220.475 128.077V150.898C-220.475 152.18 -221.5 153.205 -222.782 153.205C-224.064 153.205 -225.09 152.18 -225.09 150.898V128.077C-225.09 126.795 -224.064 125.769 -222.782 125.769ZM20.8076 127.051C21.8332 127.051 22.7307 127.949 22.7307 128.974C22.7307 130 21.8332 130.898 20.8076 130.898H16.9614C14.7819 130.898 13.1153 132.564 13.1153 134.744V138.59C13.1153 139.615 12.2178 140.513 11.1922 140.513C10.1665 140.513 9.2691 139.615 9.2691 138.59V134.744C9.2691 130.513 12.7307 127.051 16.9614 127.051H20.8076ZM47.7306 127.051C51.9614 127.051 55.4229 130.513 55.4229 134.744V138.59C55.4229 139.615 54.5255 140.513 53.4998 140.513C52.4742 140.513 51.5768 139.615 51.5768 138.59V134.744C51.5768 132.564 49.7819 130.898 47.7306 130.898H43.8845C42.8588 130.898 41.9614 130 41.9614 128.974C41.9614 127.949 42.8588 127.051 43.8845 127.051H47.7306ZM41.9614 150.128C41.9614 155.385 37.6024 159.744 32.346 159.744C26.9614 159.744 22.7307 155.385 22.7307 150.128C22.7307 144.744 26.9614 140.513 32.346 140.513C37.6024 140.513 41.9614 144.744 41.9614 150.128ZM13.1153 165.513C13.1153 167.564 14.7819 169.359 16.9614 169.359H20.8076C21.8332 169.359 22.7307 170.257 22.7307 171.282C22.7307 172.308 21.8332 173.205 20.8076 173.205H16.9614C12.7307 173.205 9.2691 169.744 9.2691 165.513V161.667C9.2691 160.641 10.1665 159.744 11.1922 159.744C12.2178 159.744 13.1153 160.641 13.1153 161.667V165.513ZM55.4229 165.513C55.4229 169.744 51.9614 173.205 47.7306 173.205H43.8845C42.8588 173.205 41.9614 172.308 41.9614 171.282C41.9614 170.257 42.8588 169.359 43.8845 169.359H47.7306C49.7819 169.359 51.5768 167.564 51.5768 165.513V161.667C51.5768 160.641 52.4742 159.744 53.4998 159.744C54.5255 159.744 55.4229 160.641 55.4229 161.667V165.513ZM29.6537 40.7693C31.1922 39.2309 33.6281 39.2309 35.1665 40.7693C35.8076 41.5386 35.8076 42.6924 35.1665 43.4616L33.7563 44.7437C33.3717 45.1283 32.8589 45.3847 32.346 45.3847C31.8332 45.3847 31.4486 45.1283 31.064 44.7437L29.6537 43.4616C28.8845 42.6924 28.8845 41.5386 29.6537 40.7693ZM21.4486 32.5642C27.4742 26.5385 37.2178 26.5385 43.2434 32.5642C44.0127 33.3334 44.0127 34.4873 43.2434 35.2565L41.9614 36.6668C41.5768 37.0514 41.064 37.1796 40.5511 37.1796C40.0383 37.1796 39.5255 37.0514 39.1409 36.6668C35.4229 32.9488 29.3973 32.9488 25.5511 36.6668C24.7819 37.436 23.6281 37.436 22.8588 36.6668L21.4486 35.2565C20.8076 34.4873 20.8076 33.3334 21.4486 32.5642ZM13.2434 24.3591C23.7563 13.8462 40.8076 13.8462 51.3204 24.3591C52.0896 25.1283 52.0896 26.4103 51.3204 27.1796L50.0383 28.4616C49.6537 28.8462 49.1409 29.1027 48.6281 29.1027C48.1153 29.1027 47.6024 28.8462 47.346 28.4616C39.0127 20.2565 25.6794 20.2565 17.346 28.4616C16.5768 29.2309 15.4229 29.2309 14.6537 28.4616L13.2434 27.1796C12.987 26.795 12.7307 26.2821 12.7307 25.7693C12.7307 25.2565 12.987 24.7437 13.2434 24.3591ZM5.16653 16.2821C20.1665 1.28214 44.5255 1.28214 59.5255 16.2821C60.2947 17.0514 60.2947 18.2052 59.5255 18.9744L58.1152 20.3847C57.8588 20.6411 57.346 20.8975 56.8332 20.8975C56.3204 20.8975 55.8076 20.6411 55.4229 20.3847C42.7306 7.56419 21.9614 7.56419 9.2691 20.3847C8.88449 20.6411 8.37167 20.8975 7.85886 20.8975C7.34601 20.8975 6.83319 20.6411 6.44858 20.3847L5.16653 18.9744C4.39731 18.2052 4.39731 17.0514 5.16653 16.2821ZM-111.244 254.359C-105.261 253.419 -99.1497 252.949 -92.9104 252.949C-86.6711 252.949 -80.56 253.419 -74.5771 254.359C-69.4489 255 -65.9873 259.487 -65.9873 264.487V279.872C-65.9873 284.872 -69.4489 289.359 -74.5771 290.128C-77.483 290.556 -80.4318 290.898 -83.4232 291.154C-83.8078 291.154 -84.0642 291.282 -84.1924 291.539L-91.2437 302.18C-91.6283 302.692 -92.2694 302.949 -92.9104 302.949C-93.5514 302.949 -94.1924 302.692 -94.4489 302.18L-101.5 291.539C-101.757 291.282 -102.013 291.154 -102.269 291.154C-105.346 290.898 -108.338 290.556 -111.244 290.128C-116.244 289.359 -119.833 284.872 -119.833 279.872V264.487C-119.833 259.487 -116.244 255 -111.244 254.359ZM-104.449 270.257H-81.3719C-80.3463 270.257 -79.4488 269.487 -79.4488 268.333C-79.4488 267.308 -80.3463 266.41 -81.3719 266.41H-104.449C-105.474 266.41 -106.372 267.308 -106.372 268.333C-106.372 269.487 -105.474 270.257 -104.449 270.257ZM-104.449 274.103C-105.474 274.103 -106.372 275 -106.372 276.026C-106.372 277.18 -105.474 277.949 -104.449 277.949H-92.9104C-91.8848 277.949 -90.9873 277.18 -90.9873 276.026C-90.9873 275 -91.8848 274.103 -92.9104 274.103H-104.449Z" fill="#0F172A"/>
<path fill-rule="evenodd" clip-rule="evenodd" d="M7.34607 262.564C7.34607 258.333 10.8076 254.872 15.0383 254.872H49.6538C53.8845 254.872 57.3461 258.333 57.3461 262.564V293.333C57.3461 297.564 53.8845 301.026 49.6538 301.026H15.0383C10.8076 301.026 7.34607 297.564 7.34607 293.333V262.564ZM17.6024 267.821L21.9614 272.18L17.6024 276.667C16.8333 277.436 16.8333 278.59 17.6024 279.359C18.3717 280.128 19.5256 280.128 20.2948 279.359L26.0641 273.59C26.8333 272.821 26.8333 271.667 26.0641 270.898L20.2948 265.128C19.5256 264.359 18.3717 264.359 17.6024 265.128C16.8333 265.898 16.8333 267.051 17.6024 267.821ZM28.4999 276.026C27.4742 276.026 26.5768 276.923 26.5768 277.949C26.5768 279.103 27.4742 279.872 28.4999 279.872H36.1923C37.3461 279.872 38.1152 279.103 38.1152 277.949C38.1152 276.923 37.3461 276.026 36.1923 276.026H28.4999ZM-1152.14 -117.82C-1152.14 -122.051 -1148.68 -125.513 -1144.45 -125.513H-1109.83C-1105.6 -125.513 -1102.14 -122.051 -1102.14 -117.82V-92.8204C-1102.14 -88.4614 -1105.6 -85.1281 -1109.83 -85.1281H-1117.53V-84.3588C-1117.53 -82.8204 -1116.88 -81.4101 -1115.86 -80.3845L-1114.19 -78.7178C-1113.68 -78.205 -1113.55 -77.3076 -1113.81 -76.6665C-1114.06 -75.8973 -1114.83 -75.5127 -1115.6 -75.5127H-1138.68C-1139.45 -75.5127 -1140.09 -75.8973 -1140.47 -76.6665C-1140.73 -77.3076 -1140.6 -78.205 -1139.96 -78.7178L-1138.42 -80.3845C-1137.4 -81.4101 -1136.76 -82.8204 -1136.76 -84.3588V-85.1281H-1144.45C-1148.68 -85.1281 -1152.14 -88.4614 -1152.14 -92.8204V-117.82ZM-1148.29 -117.82V-98.5896C-1148.29 -96.4101 -1146.5 -94.7435 -1144.45 -94.7435H-1109.83C-1107.65 -94.7435 -1105.99 -96.4101 -1105.99 -98.5896V-117.82C-1105.99 -119.872 -1107.65 -121.667 -1109.83 -121.667H-1144.45C-1146.5 -121.667 -1148.29 -119.872 -1148.29 -117.82ZM-1115.6 289.487H-1138.68V266.41H-1115.6V289.487Z" fill="#0F172A"/>
</g>
</g>
<defs>
<clipPath id="clip0_70_5418">
<rect width="67" height="50" fill="white"/>
</clipPath>
</defs>
</svg>
