<svg width="24" height="24" viewBox="0 0 24 24" fill="none" xmlns="http://www.w3.org/2000/svg">
<path fill-rule="evenodd" clip-rule="evenodd" d="M12 2.572C13.6202 2.572 15.2225 2.66565 16.8045 2.85018C17.2333 2.8993 17.5732 3.32437 17.6243 3.8743C17.7896 5.65262 17.9017 7.45298 17.9577 9.27169L15.7074 6.37699C15.3161 5.87526 14.6831 5.87526 14.2928 6.37699C13.9026 6.87872 13.9026 7.69305 14.2928 8.19479L18.2923 13.3383C18.6825 13.8401 19.3159 13.8401 19.7061 13.3383L23.7073 8.19616C24.0976 7.69305 24.0976 6.87918 23.7073 6.37745C23.3171 5.87571 22.6837 5.87571 22.2928 6.37745L19.9628 9.37314C19.9068 7.41625 19.7889 5.4814 19.6108 3.56858C19.4476 1.81413 18.3544 0.447564 16.9859 0.289654C15.3432 0.0986935 13.6805 0 12.0004 0C10.3202 0 8.65678 0.0986935 7.01481 0.289654C5.64632 0.447564 4.5531 1.81413 4.38994 3.56858C4.30425 4.48253 4.23356 5.4029 4.17572 6.32787C4.13145 7.03571 4.54239 7.65495 5.09292 7.71188C5.64346 7.76742 6.12509 7.24044 6.16937 6.5326C6.22435 5.6416 6.29325 4.7552 6.37573 3.8743C6.42571 3.32437 6.76703 2.89976 7.19475 2.85018C8.77746 2.66565 10.3802 2.572 12.0004 2.572M5.70773 10.663C5.3175 10.1613 4.68413 10.1613 4.29389 10.663L0.292674 15.8052C-0.0975581 16.3069 -0.0975581 17.1213 0.292674 17.6239C0.682907 18.1257 1.31628 18.1257 1.70651 17.6239L4.03755 14.6282C4.0936 16.5851 4.21142 18.52 4.38958 20.4328C4.55274 22.1872 5.64596 23.5524 7.01445 23.7117C8.65643 23.9027 10.3198 24 12 24C13.6802 24 15.3425 23.9027 16.9856 23.7117C18.354 23.5524 19.4473 22.1872 19.6104 20.4328C19.695 19.5175 19.7668 18.5976 19.8246 17.6708C19.8678 16.9629 19.458 16.3437 18.9074 16.2867C18.3569 16.2312 17.8753 16.7582 17.831 17.466C17.7749 18.3584 17.706 19.2457 17.6246 20.1266C17.5736 20.6752 17.2333 21.1012 16.8049 21.1503C15.2229 21.3348 13.6206 21.4285 12.0004 21.4285C10.3802 21.4285 8.77782 21.3348 7.19475 21.1503C6.76703 21.1012 6.42607 20.6752 6.37573 20.1266C6.20971 18.3483 6.09832 16.5479 6.04262 14.7292L8.29297 17.6239C8.68321 18.1257 9.31657 18.1257 9.70681 17.6239C10.0981 17.1222 10.0981 16.3069 9.70788 15.8052L5.70844 10.663H5.70773Z" fill="#1D1D1B"/>
</svg>
