<svg width="50" height="50" viewBox="0 0 50 50" fill="none" xmlns="http://www.w3.org/2000/svg">
<g clip-path="url(#clip0_70_5431)">
<mask id="mask0_70_5431" style="mask-type:luminance" maskUnits="userSpaceOnUse" x="-722" y="-861" width="1584" height="1224">
<path d="M-722 -861H862V363H-722V-861Z" fill="white"/>
</mask>
<g mask="url(#mask0_70_5431)">
<path fill-rule="evenodd" clip-rule="evenodd" d="M501.6 13.8001C501.6 10.5001 504.3 7.80008 507.6 7.80008H534.6C537.9 7.80008 540.6 10.5001 540.6 13.8001V37.8001C540.6 41.1001 537.9 43.8001 534.6 43.8001H507.6C504.3 43.8001 501.6 41.1001 501.6 37.8001V13.8001ZM509.6 17.9001L513 21.3001L509.6 24.8001C509 25.4001 509 26.3001 509.6 26.9001C510.2 27.5001 511.1 27.5001 511.7 26.9001L516.2 22.4001C516.8 21.8001 516.8 20.9001 516.2 20.3001L511.7 15.8001C511.1 15.2001 510.2 15.2001 509.6 15.8001C509 16.4001 509 17.3001 509.6 17.9001ZM518.1 24.3001C517.3 24.3001 516.6 25.0001 516.6 25.8001C516.6 26.7001 517.3 27.3001 518.1 27.3001H524.1C525 27.3001 525.6 26.7001 525.6 25.8001C525.6 25.0001 525 24.3001 524.1 24.3001H518.1ZM-402.8 -282.9C-402.8 -286.2 -400.1 -288.9 -396.8 -288.9H-369.8C-366.5 -288.9 -363.8 -286.2 -363.8 -282.9V-263.4C-363.8 -260 -366.5 -257.4 -369.8 -257.4H-375.8V-256.8C-375.8 -255.6 -375.3 -254.5 -374.5 -253.7L-373.2 -252.4C-372.8 -252 -372.7 -251.3 -372.9 -250.8C-373.1 -250.2 -373.7 -249.9 -374.3 -249.9H-392.3C-392.9 -249.9 -393.4 -250.2 -393.7 -250.8C-393.9 -251.3 -393.8 -252 -393.3 -252.4L-392.1 -253.7C-391.3 -254.5 -390.8 -255.6 -390.8 -256.8V-257.4H-396.8C-400.1 -257.4 -402.8 -260 -402.8 -263.4V-282.9ZM-399.8 -282.9V-267.9C-399.8 -266.2 -398.4 -264.9 -396.8 -264.9H-369.8C-368.1 -264.9 -366.8 -266.2 -366.8 -267.9V-282.9C-366.8 -284.5 -368.1 -285.9 -369.8 -285.9H-396.8C-398.4 -285.9 -399.8 -284.5 -399.8 -282.9ZM-374.3 34.8001H-392.3V16.8001H-374.3V34.8001Z" fill="#0F172A"/>
<path fill-rule="evenodd" clip-rule="evenodd" d="M-295.4 -94.8999H-288.6C-284.5 -94.8999 -281.1 -91.5999 -281.1 -87.3999V-83.6999C-281.1 -81.5999 -279.4 -79.8999 -277.4 -79.8999H-273.6C-269.5 -79.8999 -266.1 -76.5999 -266.1 -72.3999V-56.6999C-266.1 -54.5999 -267.8 -52.8999 -269.9 -52.8999H-295.4C-297.4 -52.8999 -299.1 -54.5999 -299.1 -56.6999V-91.1999C-299.1 -93.1999 -297.4 -94.8999 -295.4 -94.8999ZM-283.4 -61.8999C-282 -61.8999 -280.8 -62.2999 -279.8 -62.9999L-277.7 -60.8999C-277.1 -60.2999 -276.1 -60.2999 -275.6 -60.8999C-275 -61.3999 -275 -62.3999 -275.6 -62.9999L-277.7 -65.0999C-277 -66.0999 -276.6 -67.2999 -276.6 -68.6999C-276.6 -72.3999 -279.6 -75.3999 -283.4 -75.3999C-287.1 -75.3999 -290.1 -72.3999 -290.1 -68.6999C-290.1 -64.8999 -287.1 -61.8999 -283.4 -61.8999ZM-278.1 -87.3999C-278.1 -89.9999 -279.1 -92.3999 -280.7 -94.2999C-273.9 -92.4999 -268.5 -87.1999 -266.7 -80.3999C-268.6 -81.9999 -271 -82.8999 -273.6 -82.8999H-277.4C-277.8 -82.8999 -278.1 -83.2999 -278.1 -83.6999V-87.3999ZM-92.3001 -53.1999C-95.6001 -53.1999 -98.3001 -55.8999 -98.3001 -59.1999V-75.4999L-84.6001 -67.4999L-91.5001 -63.6999C-92.3001 -63.2999 -92.5001 -62.3999 -92.1001 -61.6999C-91.8001 -60.9999 -90.8001 -60.6999 -90.1001 -61.0999L-78.7001 -67.1999C-77.9001 -67.6999 -76.8001 -67.6999 -75.9001 -67.1999L-64.5001 -61.0999C-63.8001 -60.6999 -62.9001 -60.9999 -62.5001 -61.6999C-62.1001 -62.3999 -62.4001 -63.2999 -63.1001 -63.6999L-70.1001 -67.4999L-56.3001 -75.4999V-59.1999C-56.3001 -55.8999 -59.0001 -53.1999 -62.3001 -53.1999H-92.3001ZM-98.3001 -78.9999V-80.4999C-98.3001 -82.6999 -97.1001 -84.6999 -95.2001 -85.7999L-80.2001 -93.7999C-78.4001 -94.7999 -76.3001 -94.7999 -74.5001 -93.7999L-59.5001 -85.7999C-57.5001 -84.6999 -56.3001 -82.6999 -56.3001 -80.4999V-78.9999L-73.2001 -69.0999L-74.5001 -69.7999C-76.3001 -70.7999 -78.4001 -70.7999 -80.2001 -69.7999L-81.5001 -69.0999L-98.3001 -78.9999ZM22.1999 37.8001C22.1999 36.2001 23.5999 34.8001 25.1999 34.8001C26.8999 34.8001 28.1999 36.2001 28.1999 37.8001C28.1999 39.5001 26.8999 40.8001 25.1999 40.8001C23.5999 40.8001 22.1999 39.5001 22.1999 37.8001ZM22.1999 25.8001C22.1999 24.2001 23.5999 22.8001 25.1999 22.8001C26.8999 22.8001 28.1999 24.2001 28.1999 25.8001C28.1999 27.5001 26.8999 28.8001 25.1999 28.8001C23.5999 28.8001 22.1999 27.5001 22.1999 25.8001ZM22.1999 13.8001C22.1999 12.2001 23.5999 10.8001 25.1999 10.8001C26.8999 10.8001 28.1999 12.2001 28.1999 13.8001C28.1999 15.5001 26.8999 16.8001 25.1999 16.8001C23.5999 16.8001 22.1999 15.5001 22.1999 13.8001ZM-80.4001 30.2001C-78.5001 31.3001 -76.1001 31.3001 -74.1001 30.2001L-56.3001 19.2001V36.3001C-56.3001 39.6001 -59.0001 42.3001 -62.3001 42.3001H-92.3001C-95.6001 42.3001 -98.3001 39.6001 -98.3001 36.3001V19.2001L-80.4001 30.2001ZM-75.7001 27.6001C-76.6001 28.2001 -77.8001 28.2001 -78.8001 27.6001L-98.2001 15.7001V15.3001C-98.2001 12.0001 -95.5001 9.3001 -92.2001 9.3001H-62.2001C-58.9001 9.3001 -56.2001 12.0001 -56.2001 15.3001V15.7001L-75.7001 27.6001ZM-189.6 36.3001C-189.6 35.5001 -188.9 34.8001 -188.1 34.8001H-164.1C-163.3 34.8001 -162.6 35.5001 -162.6 36.3001C-162.6 37.1001 -163.3 37.8001 -164.1 37.8001H-188.1C-188.9 37.8001 -189.6 37.1001 -189.6 36.3001ZM-199.4 36.3001C-199.4 35.0001 -198.4 34.0001 -197.1 34.0001C-195.9 34.0001 -194.9 35.0001 -194.9 36.3001C-194.9 37.5001 -195.9 38.5001 -197.1 38.5001C-198.4 38.5001 -199.4 37.5001 -199.4 36.3001ZM-189.6 25.8001C-189.6 25.0001 -188.9 24.3001 -188.1 24.3001H-164.1C-163.3 24.3001 -162.6 25.0001 -162.6 25.8001C-162.6 26.6001 -163.3 27.3001 -164.1 27.3001H-188.1C-188.9 27.3001 -189.6 26.6001 -189.6 25.8001ZM-199.4 25.8001C-199.4 24.5001 -198.4 23.5001 -197.1 23.5001C-195.9 23.5001 -194.9 24.5001 -194.9 25.8001C-194.9 27.0001 -195.9 28.0001 -197.1 28.0001C-198.4 28.0001 -199.4 27.0001 -199.4 25.8001ZM-189.6 15.3001C-189.6 14.5001 -188.9 13.8001 -188.1 13.8001H-164.1C-163.3 13.8001 -162.6 14.5001 -162.6 15.3001C-162.6 16.1001 -163.3 16.8001 -164.1 16.8001H-188.1C-188.9 16.8001 -189.6 16.1001 -189.6 15.3001ZM-199.4 15.3001C-199.4 14.0001 -198.4 13.0001 -197.1 13.0001C-195.9 13.0001 -194.9 14.0001 -194.9 15.3001C-194.9 16.5001 -195.9 17.5001 -197.1 17.5001C-198.4 17.5001 -199.4 16.5001 -199.4 15.3001ZM314.7 23.5001C314.7 20.6001 317 18.3001 319.9 18.3001C322.8 18.3001 325.2 20.6001 325.2 23.5001C325.2 25.0001 324.6 26.3001 323.7 27.3001C322.7 28.2001 321.4 28.8001 319.9 28.8001C317 28.8001 314.7 26.4001 314.7 23.5001Z" fill="#0F172A"/>
<path fill-rule="evenodd" clip-rule="evenodd" d="M341.7 25.7999C341.7 36.5999 332.9 45.2999 322.2 45.2999C311.4 45.2999 302.7 36.5999 302.7 25.7999C302.7 15.0999 311.4 6.2999 322.2 6.2999C332.9 6.2999 341.7 15.0999 341.7 25.7999ZM319.9 15.2999C315.4 15.2999 311.7 18.9999 311.7 23.5999C311.7 28.0999 315.4 31.7999 319.9 31.7999C321.7 31.7999 323.3 31.2999 324.6 30.3999L328.6 34.3999C329.2 34.9999 330.1 34.9999 330.7 34.3999C331.3 33.7999 331.3 32.8999 330.7 32.2999L326.7 28.2999C327.6 26.8999 328.2 25.2999 328.2 23.5999C328.2 18.9999 324.5 15.2999 319.9 15.2999ZM240.6 6.2999C241.4 6.2999 242.1 6.99991 242.1 7.7999C242.1 8.69989 241.4 9.2999 240.6 9.2999H239.1V30.2999C239.1 33.5999 236.4 36.2999 233.1 36.2999H230.7L233 43.3999C233.3 44.0999 232.8 44.9999 232.1 45.2999C231.3 45.4999 230.4 45.0999 230.2 44.2999L229.5 42.2999H212.7L212 44.2999C211.7 45.0999 210.9 45.4999 210.1 45.2999C209.3 44.9999 208.9 44.0999 209.2 43.3999L211.5 36.2999H209.1C205.8 36.2999 203.1 33.5999 203.1 30.2999V9.2999H201.6C200.7 9.2999 200.1 8.69989 200.1 7.7999C200.1 6.99991 200.7 6.2999 201.6 6.2999H240.6ZM222.6 19.7999C222.6 18.9999 221.9 18.2999 221.1 18.2999C220.2 18.2999 219.6 18.9999 219.6 19.7999V27.2999C219.6 28.1999 220.2 28.7999 221.1 28.7999C221.9 28.7999 222.6 28.1999 222.6 27.2999V19.7999ZM228.6 15.2999C228.6 14.4999 227.9 13.7999 227.1 13.7999C226.2 13.7999 225.6 14.4999 225.6 15.2999V27.2999C225.6 28.1999 226.2 28.7999 227.1 28.7999C227.9 28.7999 228.6 28.1999 228.6 27.2999V15.2999ZM228.5 39.2999L227.5 36.2999H214.7L213.7 39.2999H228.5ZM216.5 24.2999C216.5 23.4999 215.9 22.7999 215 22.7999C214.2 22.7999 213.5 23.4999 213.5 24.2999V27.2999C213.5 28.1999 214.2 28.7999 215 28.7999C215.9 28.7999 216.5 28.1999 216.5 27.2999V24.2999ZM431.7 -94.9001C433.7 -94.9001 435.4 -93.2001 435.4 -91.2001V-85.2001C436.266 -85.0668 437.133 -84.9334 438 -84.8001C440.9 -84.4001 442.9 -81.9001 442.9 -79.0001V-66.4001C442.9 -63.1001 440.2 -60.4001 436.9 -60.4001H436.4L436.7 -57.0001C436.9 -54.8001 435.2 -52.9001 433 -52.9001H413.9C411.7 -52.9001 410 -54.8001 410.2 -57.0001L410.5 -60.4001H409.9C406.6 -60.4001 403.9 -63.1001 403.9 -66.4001V-79.0001C403.9 -81.9001 406 -84.4001 408.9 -84.8001C409.7 -84.9334 410.533 -85.0668 411.4 -85.2001V-91.2001C411.4 -93.2001 413.1 -94.9001 415.2 -94.9001H431.7ZM435.4 -75.4001C436.3 -75.4001 436.9 -76.1001 436.9 -76.9001C436.9 -77.7001 436.3 -78.4001 435.4 -78.4001C434.6 -78.4001 433.9 -77.7001 433.9 -76.9001C433.9 -76.1001 434.6 -75.4001 435.4 -75.4001ZM423.4 -69.4001C420.533 -69.4001 417.7 -69.2668 414.9 -69.0001C414.5 -68.9001 414.2 -68.7001 414.2 -68.3001L413.1 -56.7001C413.1 -56.3001 413.4 -55.9001 413.9 -55.9001H433C433.4 -55.9001 433.7 -56.3001 433.7 -56.7001L432.7 -68.3001C432.6 -68.7001 432.3 -68.9001 432 -69.0001C429.2 -69.2668 426.333 -69.4001 423.4 -69.4001ZM432.4 -85.5001V-91.2001C432.4 -91.6001 432.1 -91.9001 431.7 -91.9001H415.2C414.8 -91.9001 414.4 -91.6001 414.4 -91.2001V-85.5001C417.4 -85.7668 420.4 -85.9001 423.4 -85.9001C426.466 -85.9001 429.466 -85.7668 432.4 -85.5001ZM429.4 -78.4001C428.6 -78.4001 427.9 -77.7001 427.9 -76.9001C427.9 -76.1001 428.6 -75.4001 429.4 -75.4001C430.3 -75.4001 430.9 -76.1001 430.9 -76.9001C430.9 -77.7001 430.3 -78.4001 429.4 -78.4001ZM101.9 28.7999C101.9 19.6999 109.3 12.2999 118.4 12.2999C119.2 12.2999 119.9 12.9999 119.9 13.7999V27.2999H133.4C134.2 27.2999 134.9 27.9999 134.9 28.7999C134.9 37.8999 127.5 45.2999 118.4 45.2999C109.3 45.2999 101.9 37.8999 101.9 28.7999ZM122.9 7.7999C122.9 6.99991 123.6 6.2999 124.4 6.2999C133.5 6.2999 140.9 13.6999 140.9 22.7999C140.9 23.6999 140.2 24.2999 139.4 24.2999H124.4C123.6 24.2999 122.9 23.6999 122.9 22.7999V7.7999ZM-263.6 -252.4C-263 -251.8 -263 -250.9 -263.6 -250.3C-264.2 -249.7 -265.1 -249.7 -265.7 -250.3L-301.7 -286.3C-302.3 -286.9 -302.3 -287.8 -301.7 -288.4C-301.1 -289 -300.2 -289 -299.6 -288.4L-263.6 -252.4ZM-261.7 -258C-261.7 -257 -262.1 -256.3 -262.7 -255.7L-272.2 -265.2V-277.5L-266.8 -282.9C-264.9 -284.7 -261.7 -283.4 -261.7 -280.7V-258ZM-275.2 -278.4V-268.3L-291.3 -284.4H-281.2C-277.8 -284.4 -275.2 -281.7 -275.2 -278.4ZM-303.7 -278.4C-303.7 -280 -303.1 -281.4 -302.1 -282.5L-276.4 -256.8C-277.5 -255.3 -279.2 -254.4 -281.2 -254.4H-297.7C-301 -254.4 -303.7 -257.1 -303.7 -260.4V-278.4Z" fill="#0F172A"/>
</g>
</g>
<defs>
<clipPath id="clip0_70_5431">
<rect width="50" height="50" fill="white"/>
</clipPath>
</defs>
</svg>
