<svg width="65" height="50" viewBox="0 0 65 50" fill="none" xmlns="http://www.w3.org/2000/svg">
<g clip-path="url(#clip0_70_5407)">
<mask id="mask0_70_5407" style="mask-type:luminance" maskUnits="userSpaceOnUse" x="-717" y="-663" width="1840" height="1421">
<path d="M-716.161 -662.723H1122.41V757.991H-716.161V-662.723Z" fill="white"/>
</mask>
<g mask="url(#mask0_70_5407)">
<path fill-rule="evenodd" clip-rule="evenodd" d="M-73.125 152.795C-74.0536 153.723 -75.5625 153.723 -76.4911 152.795L-99.2411 130.045V148.036C-99.2411 149.312 -100.286 150.357 -101.563 150.357C-102.955 150.357 -104 149.312 -104 148.036V124.357C-104 123.08 -102.955 122.036 -101.563 122.036H-78C-76.7232 122.036 -75.6786 123.08 -75.6786 124.357C-75.6786 125.634 -76.7232 126.679 -78 126.679H-95.875L-73.125 149.429C-72.1964 150.357 -72.1964 151.866 -73.125 152.795ZM125.938 250.875C125.938 236.946 137.196 225.687 151.125 225.687C165.054 225.687 176.312 236.946 176.312 250.875C176.312 264.804 165.054 276.062 151.125 276.062C137.196 276.062 125.938 264.804 125.938 250.875ZM148.688 261.089C148.688 262.366 149.732 263.411 151.125 263.411C152.402 263.411 153.446 262.366 153.446 261.089V246.696L159.598 253.196C160.527 254.241 161.92 254.241 162.964 253.429C163.893 252.5 163.893 250.991 163.08 250.062L152.866 239.036C152.402 238.571 151.705 238.223 151.125 238.223C150.429 238.223 149.848 238.571 149.384 239.036L139.17 250.062C138.241 250.991 138.241 252.5 139.286 253.429C140.214 254.241 141.723 254.241 142.536 253.196L148.688 246.696V261.089ZM-307.241 137.705C-307.241 138.982 -308.286 140.027 -309.679 140.027H-330.571L-323.723 146.179C-322.795 147.107 -322.795 148.616 -323.723 149.545C-324.536 150.473 -326.045 150.589 -326.973 149.661L-338 139.446C-338.464 138.982 -338.812 138.286 -338.812 137.705C-338.812 137.009 -338.464 136.429 -338 135.964L-326.973 125.75C-326.045 124.821 -324.536 124.938 -323.723 125.866C-322.795 126.795 -322.795 128.304 -323.723 129.116L-330.571 135.384H-309.679C-308.286 135.384 -307.241 136.429 -307.241 137.705ZM360.402 238.223C359.009 238.223 357.964 239.268 357.964 240.545V267.357C357.964 268.634 359.009 269.679 360.402 269.679H387.214C388.491 269.679 389.536 268.634 389.536 267.357V254.705C389.536 253.429 390.58 252.384 391.857 252.384C393.25 252.384 394.295 253.429 394.295 254.705V267.357C394.295 271.304 391.045 274.438 387.214 274.438H360.402C356.455 274.438 353.205 271.304 353.205 267.357V240.545C353.205 236.598 356.455 233.464 360.402 233.464H376.071C377.464 233.464 378.509 234.509 378.509 235.786C378.509 237.179 377.464 238.223 376.071 238.223H360.402ZM366.786 257.723L395.339 231.839H387.214C385.938 231.839 384.893 230.795 384.893 229.518C384.893 228.241 385.938 227.196 387.214 227.196H401.491C402.768 227.196 403.812 228.241 403.812 229.518V243.679C403.812 244.955 402.768 246.116 401.491 246.116C400.098 246.116 399.054 244.955 399.054 243.679V234.857L369.92 261.205C368.991 262.134 367.482 262.018 366.554 261.089C365.741 260.045 365.741 258.652 366.786 257.723ZM-221.813 137.705C-221.813 136.429 -220.768 135.384 -219.491 135.384H-198.482L-205.33 129.116C-206.259 128.304 -206.259 126.795 -205.446 125.866C-204.518 124.938 -203.009 124.821 -202.08 125.75L-191.054 135.964C-190.589 136.429 -190.357 137.009 -190.357 137.705C-190.357 138.286 -190.589 138.982 -191.054 139.446L-202.08 149.661C-203.009 150.589 -204.518 150.473 -205.446 149.545C-206.259 148.616 -206.259 147.107 -205.33 146.179L-198.482 140.027H-219.491C-220.768 140.027 -221.813 138.982 -221.813 137.705ZM26.8125 144.67C27.7411 145.598 27.7411 147.107 26.8125 148.036C25.8839 148.964 24.375 148.964 23.4464 148.036L18.1071 142.696C18.2619 146.024 18.5327 149.351 18.9196 152.679C19.0357 153.607 19.8482 154.42 20.8929 154.536C24.6071 154.845 28.3988 155 32.2678 155C36.0595 155 39.8125 154.845 43.5268 154.536C44.5714 154.42 45.3839 153.607 45.5 152.679C45.7321 151.054 45.8869 149.39 45.9643 147.688C46.0804 146.411 47.2411 145.482 48.5178 145.598C49.7946 145.714 50.8393 146.759 50.7232 148.152C50.5685 149.854 50.375 151.518 50.1429 153.143C49.7946 156.393 47.2411 158.946 43.9911 159.179C40.122 159.565 36.2143 159.759 32.2678 159.759C28.244 159.759 24.2976 159.565 20.4286 159.179C17.1786 158.946 14.625 156.393 14.2768 153.143C13.8125 149.661 13.5417 146.14 13.4643 142.58L7.89282 148.036C6.96426 148.964 5.45535 148.964 4.64285 148.036C3.71426 147.107 3.71426 145.598 4.64285 144.67L14.0446 135.268C14.9732 134.339 16.4821 134.339 17.4107 135.268L26.8125 144.67ZM20.8929 120.875C19.8482 120.991 19.0357 121.687 18.9196 122.732C18.6875 124.357 18.5327 125.982 18.4554 127.607C18.3393 128.884 17.1786 129.929 15.9018 129.812C14.625 129.696 13.5803 128.536 13.6964 127.259C13.8512 125.557 14.006 123.854 14.1607 122.152C14.625 118.902 17.1786 116.464 20.4286 116.116C24.2976 115.807 28.2054 115.652 32.1518 115.652C36.1756 115.652 40.122 115.807 43.9911 116.116C47.2411 116.464 49.7946 118.902 50.1429 122.152C50.6071 125.711 50.878 129.271 50.9553 132.83L56.5268 127.375C57.4554 126.446 58.9643 126.446 59.7768 127.375C60.7054 128.304 60.7054 129.696 59.7768 130.625L50.375 140.143C49.4464 141.071 47.9375 141.071 47.0089 140.143L37.6071 130.625C36.6786 129.696 36.6786 128.304 37.6071 127.375C38.5357 126.446 40.0446 126.446 40.9732 127.375L46.3125 132.598C46.1577 129.271 45.8869 125.982 45.5 122.732C45.3839 121.687 44.5714 120.991 43.5268 120.875C39.8125 120.488 36.0208 120.295 32.1518 120.295C28.3601 120.295 24.6071 120.488 20.8929 120.875ZM257.098 125.402C253.964 125.402 251.411 122.848 251.411 119.714C251.411 116.464 253.964 113.911 257.098 113.911C260.348 113.911 262.902 116.464 262.902 119.714C262.902 122.848 260.348 125.402 257.098 125.402ZM267.893 121.804C266.732 121.804 265.804 120.875 265.804 119.714C265.804 118.438 266.732 117.509 267.893 117.509H283.679C284.955 117.509 285.884 118.438 285.884 119.714C285.884 120.875 284.955 121.804 283.679 121.804H267.893ZM248.509 119.714C248.509 120.875 247.58 121.804 246.42 121.804H242.125C240.848 121.804 239.92 120.875 239.92 119.714C239.92 118.554 240.848 117.509 242.125 117.509H246.42C247.58 117.509 248.509 118.554 248.509 119.714ZM242.125 157.786C240.848 157.786 239.92 156.857 239.92 155.58C239.92 154.42 240.848 153.491 242.125 153.491H246.42C247.58 153.491 248.509 154.42 248.509 155.58C248.509 156.857 247.58 157.786 246.42 157.786H242.125ZM268.009 157.786C266.732 157.786 265.804 156.857 265.804 155.58C265.804 154.42 266.732 153.491 268.009 153.491H283.795C284.955 153.491 285.884 154.42 285.884 155.58C285.884 156.857 284.955 157.786 283.795 157.786H268.009ZM260.116 137.705C260.116 138.866 259.071 139.795 257.911 139.795H242.125C240.964 139.795 239.92 138.866 239.92 137.705C239.92 136.429 240.964 135.5 242.125 135.5H257.911C259.071 135.5 260.116 136.429 260.116 137.705ZM279.5 139.795C278.339 139.795 277.295 138.866 277.295 137.705C277.295 136.429 278.339 135.5 279.5 135.5H283.795C284.955 135.5 286 136.429 286 137.705C286 138.866 284.955 139.795 283.795 139.795H279.5ZM268.705 143.393C265.571 143.393 263.018 140.839 263.018 137.705C263.018 134.455 265.571 131.902 268.705 131.902C271.955 131.902 274.509 134.455 274.509 137.705C274.509 140.839 271.955 143.393 268.705 143.393ZM257.214 161.384C254.08 161.384 251.527 158.83 251.527 155.58C251.527 152.446 254.08 149.893 257.214 149.893C260.348 149.893 263.018 152.446 263.018 155.58C263.018 158.83 260.348 161.384 257.214 161.384ZM715.928 1.90179C717.205 1.90179 718.25 2.94643 718.25 4.22321V43.5714C718.25 44.8482 717.205 45.8929 715.928 45.8929H711.17C709.893 45.8929 708.848 44.8482 708.848 43.5714V4.22321C708.848 2.94643 709.893 1.90179 711.17 1.90179H715.928ZM737.982 1.90179C739.259 1.90179 740.42 2.94643 740.42 4.22321V43.5714C740.42 44.8482 739.259 45.8929 737.982 45.8929H733.339C731.946 45.8929 730.902 44.8482 730.902 43.5714V4.22321C730.902 2.94643 731.946 1.90179 733.339 1.90179H737.982ZM598.929 36.375L602.875 26.5089C603.571 24.8839 604.5 23.4911 605.661 22.2143L627.482 0.508929C630.036 -2.16071 634.33 -2.16071 636.884 0.508929C639.554 3.0625 639.554 7.35714 636.884 9.91071L615.179 31.7321C613.902 32.8929 612.509 33.8214 610.884 34.5179L601.018 38.4643C599.741 39.0446 598.464 37.7679 598.929 36.375ZM592.893 40.6696C592.893 42.7589 594.634 44.6161 596.723 44.6161H626.67C628.875 44.6161 630.616 42.7589 630.616 40.6696V24.0714C630.616 22.7946 631.661 21.75 632.937 21.75C634.33 21.75 635.375 22.7946 635.375 24.0714V40.6696C635.375 45.4286 631.429 49.2589 626.67 49.2589H596.723C591.964 49.2589 588.134 45.4286 588.134 40.6696V10.7232C588.134 5.96429 591.964 2.01786 596.723 2.01786H613.321C614.598 2.01786 615.643 3.0625 615.643 4.45536C615.643 5.73214 614.598 6.77679 613.321 6.77679H596.723C594.634 6.77679 592.893 8.51786 592.893 10.7232V40.6696ZM476.473 33.9375L510.83 -0.419643C513.5 -3.08929 517.679 -3.08929 520.348 -0.419643C522.902 2.13393 522.902 6.42857 520.348 8.98214L485.875 43.3393C484.714 44.6161 483.321 45.5446 481.696 46.125L471.714 50.1875C470.438 50.6518 469.161 49.375 469.741 48.0982L473.688 38.2321C474.268 36.6071 475.312 35.0982 476.473 33.9375ZM353.438 117.277C353.438 114.607 355.527 112.518 358.08 112.518H361.795C364 112.518 365.857 114.027 366.321 116.232L368.643 126.33C369.107 128.768 367.714 131.205 365.277 131.902L362.375 132.714C361.098 133.179 360.286 134.455 360.866 135.732C364.464 144.67 371.661 151.75 380.482 155.464C381.759 155.929 383.152 155.232 383.5 153.955L384.312 150.938C385.009 148.616 387.446 147.107 389.884 147.688L400.098 149.893C402.187 150.357 403.812 152.33 403.812 154.536V158.134C403.812 160.804 401.607 162.893 399.054 162.893H394.295C390.696 162.893 387.214 162.429 383.848 161.5C369.687 157.786 358.545 146.643 354.714 132.366C353.902 129.116 353.438 125.518 353.438 121.92V117.277Z" fill="#0F172A"/>
<path fill-rule="evenodd" clip-rule="evenodd" d="M-116.536 9.09821C-116.536 5.15179 -113.402 2.01786 -109.455 2.01786H-66.9731C-63.0267 2.01786 -59.8928 5.15179 -59.8928 9.09821V38.9286C-59.8928 42.875 -63.0267 46.0089 -66.9731 46.0089H-109.455C-113.402 46.0089 -116.536 42.875 -116.536 38.9286V9.09821ZM-111.893 27.4375V39.0446C-111.893 40.3214 -110.732 41.3661 -109.455 41.3661H-66.9731C-65.6964 41.3661 -64.6517 40.3214 -64.6517 39.0446V30.5714L-71.616 23.6071C-72.5446 22.6786 -74.0535 22.6786 -74.9821 23.6071L-80.9017 29.6429L-79.5089 31.0357C-78.5803 31.9643 -78.5803 33.4732 -79.5089 34.4018C-80.4374 35.3304 -81.8303 35.3304 -82.7589 34.4018L-99.1249 18.0357C-100.054 17.1071 -101.562 17.1071 -102.491 18.0357L-111.893 27.4375ZM-85.0803 11.5357C-86.8214 11.5357 -88.3303 12.9286 -88.3303 14.6696C-88.3303 16.4107 -86.8214 17.8036 -85.0803 17.8036C-83.3392 17.8036 -81.9464 16.4107 -81.9464 14.6696C-81.9464 12.9286 -83.3392 11.5357 -85.0803 11.5357ZM125.822 24.1875C125.822 10.2589 137.08 -1 151.009 -1C164.938 -1 176.197 10.2589 176.197 24.1875C176.197 38 164.938 49.375 151.009 49.375C137.08 49.375 125.822 38 125.822 24.1875ZM144.741 17.1071V31.2679C144.741 32.0804 145.205 32.8929 146.018 33.2411C146.714 33.7054 147.643 33.7054 148.339 33.2411L159.366 26.1607C160.063 25.6964 160.527 24.8839 160.527 24.1875C160.527 23.375 160.063 22.5625 159.366 22.0982L148.339 15.0179C147.643 14.5536 146.714 14.5536 146.018 15.0179C145.205 15.3661 144.741 16.1786 144.741 17.1071ZM42.2501 5.26786C43.6429 5.26786 44.6876 6.3125 44.6876 7.58929V40.6696C44.6876 41.9464 43.6429 42.9911 42.2501 42.9911H40.7411C39.4644 42.9911 38.4197 41.9464 38.4197 40.6696V7.58929C38.4197 6.3125 39.4644 5.26786 40.7411 5.26786H42.2501ZM58.0358 5.26786C59.3126 5.26786 60.3572 6.3125 60.3572 7.58929V40.6696C60.3572 41.9464 59.3126 42.9911 58.0358 42.9911H56.4108C55.134 42.9911 54.0894 41.9464 54.0894 40.6696V7.58929C54.0894 6.3125 55.134 5.26786 56.4108 5.26786H58.0358ZM30.8751 20.125C33.7769 21.9821 33.7769 26.2768 30.8751 28.1339L10.9108 40.4375C7.77686 42.4107 3.71436 40.0893 3.71436 36.4911V11.8839C3.71436 8.16964 7.77686 5.84821 10.9108 7.82143L30.8751 20.125ZM280.08 20.125C282.982 21.9821 282.982 26.2768 280.08 28.1339L250.598 46.7054C247.464 48.6786 243.402 46.3571 243.402 42.6429V5.61607C243.402 1.90179 247.464 -0.419643 250.598 1.55357L280.08 20.125ZM237.714 250.991C237.714 237.062 248.973 225.804 262.902 225.804C276.83 225.804 288.089 237.062 288.089 250.991C288.089 264.92 276.83 276.179 262.902 276.179C248.973 276.179 237.714 264.92 237.714 250.991ZM265.223 240.777C265.223 239.5 264.179 238.455 262.902 238.455C261.625 238.455 260.464 239.5 260.464 240.777V248.67H252.688C251.295 248.67 250.25 249.714 250.25 250.991C250.25 252.384 251.295 253.429 252.688 253.429H260.464V261.205C260.464 262.598 261.625 263.643 262.902 263.643C264.179 263.643 265.223 262.598 265.223 261.205V253.429H273.116C274.393 253.429 275.438 252.384 275.438 250.991C275.438 249.714 274.393 248.67 273.116 248.67H265.223V240.777Z" fill="#0F172A"/>
<path fill-rule="evenodd" clip-rule="evenodd" d="M704.089 352.669C704.089 348.839 707.223 345.705 711.054 345.705H742.393C746.223 345.705 749.357 348.839 749.357 352.669V380.527C749.357 384.357 746.223 387.491 742.393 387.491H711.054C707.223 387.491 704.089 384.357 704.089 380.527V352.669ZM713.375 357.428L717.321 361.375L713.375 365.437C712.679 366.134 712.679 367.178 713.375 367.875C714.071 368.571 715.116 368.571 715.812 367.875L721.036 362.652C721.732 361.955 721.732 360.911 721.036 360.214L715.812 354.991C715.116 354.294 714.071 354.294 713.375 354.991C712.679 355.687 712.679 356.732 713.375 357.428ZM723.241 364.857C722.312 364.857 721.5 365.669 721.5 366.598C721.5 367.643 722.312 368.339 723.241 368.339H730.205C731.25 368.339 731.946 367.643 731.946 366.598C731.946 365.669 731.25 364.857 730.205 364.857H723.241ZM-345.661 8.28557C-345.661 4.45522 -342.527 1.32129 -338.696 1.32129H-307.357C-303.527 1.32129 -300.393 4.45522 -300.393 8.28557V30.9195C-300.393 34.8659 -303.527 37.8838 -307.357 37.8838H-314.321V38.5802C-314.321 39.9731 -313.741 41.2499 -312.812 42.1784L-311.304 43.6874C-310.839 44.1516 -310.723 44.9641 -310.955 45.5445C-311.187 46.2409 -311.884 46.5891 -312.58 46.5891H-333.473C-334.17 46.5891 -334.75 46.2409 -335.098 45.5445C-335.33 44.9641 -335.214 44.1516 -334.634 43.6874L-333.241 42.1784C-332.312 41.2499 -331.732 39.9731 -331.732 38.5802V37.8838H-338.696C-342.527 37.8838 -345.661 34.8659 -345.661 30.9195V8.28557ZM-342.179 8.28557V25.6963C-342.179 27.6695 -340.554 29.1784 -338.696 29.1784H-307.357C-305.384 29.1784 -303.875 27.6695 -303.875 25.6963V8.28557C-303.875 6.42843 -305.384 4.80343 -307.357 4.80343H-338.696C-340.554 4.80343 -342.179 6.42843 -342.179 8.28557ZM-312.58 377.044H-333.473V356.152H-312.58V377.044Z" fill="#0F172A"/>
<path fill-rule="evenodd" clip-rule="evenodd" d="M518.491 366.598C518.491 379.134 508.277 389.232 495.857 389.232C483.322 389.232 473.223 379.134 473.223 366.598C473.223 354.178 483.322 343.964 495.857 343.964C508.277 343.964 518.491 354.178 518.491 366.598ZM493.188 354.411C487.964 354.411 483.67 358.705 483.67 364.045C483.67 369.268 487.964 373.562 493.188 373.562C495.277 373.562 497.134 372.982 498.643 371.937L503.286 376.58C503.982 377.277 505.027 377.277 505.723 376.58C506.42 375.884 506.42 374.839 505.723 374.143L501.081 369.5C502.125 367.875 502.822 366.018 502.822 364.045C502.822 358.705 498.527 354.411 493.188 354.411ZM401.143 343.964C402.072 343.964 402.884 344.777 402.884 345.705C402.884 346.75 402.072 347.446 401.143 347.446H399.402V371.821C399.402 375.652 396.268 378.786 392.438 378.786H389.652L392.322 387.027C392.67 387.839 392.089 388.884 391.277 389.232C390.348 389.464 389.304 389 389.072 388.071L388.259 385.75H368.759L367.947 388.071C367.598 389 366.67 389.464 365.741 389.232C364.813 388.884 364.348 387.839 364.697 387.027L367.366 378.786H364.58C360.75 378.786 357.616 375.652 357.616 371.821V347.446H355.875C354.83 347.446 354.134 346.75 354.134 345.705C354.134 344.777 354.83 343.964 355.875 343.964H401.143ZM380.25 359.634C380.25 358.705 379.438 357.893 378.509 357.893C377.464 357.893 376.768 358.705 376.768 359.634V368.339C376.768 369.384 377.464 370.08 378.509 370.08C379.438 370.08 380.25 369.384 380.25 368.339V359.634ZM387.214 354.411C387.214 353.482 386.402 352.67 385.473 352.67C384.429 352.67 383.732 353.482 383.732 354.411V368.339C383.732 369.384 384.429 370.08 385.473 370.08C386.402 370.08 387.214 369.384 387.214 368.339V354.411ZM387.098 382.268L385.938 378.786H371.081L369.92 382.268H387.098ZM373.17 364.857C373.17 363.928 372.473 363.116 371.429 363.116C370.5 363.116 369.688 363.928 369.688 364.857V368.339C369.688 369.384 370.5 370.08 371.429 370.08C372.473 370.08 373.17 369.384 373.17 368.339V364.857ZM622.956 226.5C625.277 226.5 627.25 228.473 627.25 230.795V237.759C628.256 237.914 629.262 238.068 630.268 238.223C633.634 238.687 635.956 241.589 635.956 244.955V259.58C635.956 263.411 632.822 266.545 628.991 266.545H628.411L628.759 270.491C628.991 273.045 627.018 275.25 624.464 275.25H602.295C599.741 275.25 597.768 273.045 598 270.491L598.348 266.545H597.652C593.822 266.545 590.688 263.411 590.688 259.58V244.955C590.688 241.589 593.125 238.687 596.491 238.223C597.42 238.068 598.387 237.914 599.393 237.759V230.795C599.393 228.473 601.366 226.5 603.804 226.5H622.956ZM627.25 249.134C628.295 249.134 628.991 248.321 628.991 247.393C628.991 246.464 628.295 245.652 627.25 245.652C626.322 245.652 625.509 246.464 625.509 247.393C625.509 248.321 626.322 249.134 627.25 249.134ZM613.322 256.098C609.994 256.098 606.706 256.253 603.456 256.562C602.991 256.679 602.643 256.911 602.643 257.375L601.366 270.839C601.366 271.303 601.714 271.768 602.295 271.768H624.464C624.929 271.768 625.277 271.303 625.277 270.839L624.116 257.375C624 256.911 623.652 256.679 623.304 256.562C620.054 256.253 616.726 256.098 613.322 256.098ZM623.768 237.411V230.795C623.768 230.33 623.42 229.982 622.956 229.982H603.804C603.339 229.982 602.875 230.33 602.875 230.795V237.411C606.357 237.101 609.839 236.946 613.322 236.946C616.881 236.946 620.363 237.101 623.768 237.411ZM620.286 245.652C619.357 245.652 618.545 246.464 618.545 247.393C618.545 248.321 619.357 249.134 620.286 249.134C621.331 249.134 622.027 248.321 622.027 247.393C622.027 246.464 621.331 245.652 620.286 245.652ZM240.152 370.08C240.152 359.518 248.741 350.928 259.304 350.928C260.232 350.928 261.045 351.741 261.045 352.67V368.339H276.714C277.643 368.339 278.455 369.152 278.455 370.08C278.455 380.643 269.866 389.232 259.304 389.232C248.741 389.232 240.152 380.643 240.152 370.08ZM264.527 345.705C264.527 344.777 265.339 343.964 266.268 343.964C276.83 343.964 285.42 352.553 285.42 363.116C285.42 364.161 284.607 364.857 283.679 364.857H266.268C265.339 364.857 264.527 364.161 264.527 363.116V345.705ZM-184.089 43.6874C-183.393 44.3839 -183.393 45.4285 -184.089 46.1249C-184.786 46.8214 -185.83 46.8214 -186.527 46.1249L-228.312 4.33922C-229.009 3.64279 -229.009 2.59814 -228.312 1.90172C-227.616 1.20529 -226.571 1.20529 -225.875 1.90172L-184.089 43.6874ZM-181.884 37.1874C-181.884 38.3481 -182.348 39.1606 -183.045 39.8571L-194.071 28.8303V14.5535L-187.803 8.28564C-185.598 6.19636 -181.884 7.70529 -181.884 10.8392V37.1874ZM-197.553 13.5089V25.2321L-216.241 6.54457H-204.518C-200.571 6.54457 -197.553 9.6785 -197.553 13.5089ZM-230.634 13.5089C-230.634 11.6517 -229.937 10.0267 -228.777 8.74993L-198.946 38.5803C-200.223 40.3214 -202.196 41.366 -204.518 41.366H-223.67C-227.5 41.366 -230.634 38.2321 -230.634 34.4017V13.5089Z" fill="#0F172A"/>
</g>
</g>
<defs>
<clipPath id="clip0_70_5407">
<rect width="65" height="50" fill="white"/>
</clipPath>
</defs>
</svg>
