<svg width="50" height="50" viewBox="0 0 50 50" fill="none" xmlns="http://www.w3.org/2000/svg">
<g clip-path="url(#clip0_70_5413)">
<mask id="mask0_70_5413" style="mask-type:luminance" maskUnits="userSpaceOnUse" x="-1755" y="-1119" width="2264" height="2029">
<path d="M508.572 -1118.43H-1754.29V909.914H508.572V-1118.43Z" fill="white"/>
</mask>
<g mask="url(#mask0_70_5413)">
<path d="M27.8169 -95.3951V-3.80029H38.9084V-95.3951H27.8169ZM-68.1273 -66.7717H-57.0358C-56.3798 -69.962 -55.2319 -72.7647 -53.592 -75.1798C-51.982 -77.5949 -50.0141 -79.6224 -47.6885 -81.2623C-45.3926 -82.932 -42.8434 -84.1843 -40.0406 -85.0191C-37.2379 -85.854 -34.316 -86.2714 -31.2747 -86.2714C-25.729 -86.2714 -20.705 -84.87 -16.2027 -82.0673C-11.7303 -79.2646 -8.16732 -75.1351 -5.5137 -69.6788C-2.88989 -64.2225 -1.57799 -57.5288 -1.57799 -49.5977C-1.57799 -41.6666 -2.88989 -34.9729 -5.5137 -29.5166C-8.16732 -24.0603 -11.7303 -19.9308 -16.2027 -17.1281C-20.705 -14.3253 -25.729 -12.924 -31.2747 -12.924C-34.316 -12.924 -37.2379 -13.3414 -40.0406 -14.1763C-42.8434 -15.0111 -45.3926 -16.2485 -47.6885 -17.8884C-50.0141 -19.5581 -51.982 -21.6005 -53.592 -24.0156C-55.2319 -26.4605 -56.3798 -29.2632 -57.0358 -32.4237H-68.1273C-67.2925 -27.7426 -65.7719 -23.5534 -63.5655 -19.8562C-61.3591 -16.159 -58.616 -13.0134 -55.3363 -10.4194C-52.0565 -7.85527 -48.3742 -5.90232 -44.2894 -4.5606C-40.2345 -3.21888 -35.8962 -2.54802 -31.2747 -2.54802C-23.4629 -2.54802 -16.5158 -4.45625 -10.4333 -8.2727C-4.35087 -12.0891 0.434596 -17.5157 3.92307 -24.5522C7.41154 -31.5888 9.15578 -39.9373 9.15578 -49.5977C9.15578 -59.2581 7.41154 -67.6066 3.92307 -74.6431C0.434596 -81.6797 -4.35087 -87.1062 -10.4333 -90.9227C-16.5158 -94.7391 -23.4629 -96.6474 -31.2747 -96.6474C-35.8962 -96.6474 -40.2345 -95.9765 -44.2894 -94.6348C-48.3742 -93.2931 -52.0565 -91.3252 -55.3363 -88.7312C-58.616 -86.167 -61.3591 -83.0364 -63.5655 -79.3392C-65.7719 -75.6718 -67.2925 -71.4827 -68.1273 -66.7717ZM-163.334 -49.5977C-163.334 -39.9373 -161.589 -31.5888 -158.101 -24.5522C-154.612 -17.5157 -149.827 -12.0891 -143.744 -8.2727C-137.662 -4.45625 -130.715 -2.54802 -122.903 -2.54802C-115.091 -2.54802 -108.144 -4.45625 -102.062 -8.2727C-95.9792 -12.0891 -91.1938 -17.5157 -87.7053 -24.5522C-84.2168 -31.5888 -82.4726 -39.9373 -82.4726 -49.5977C-82.4726 -59.2581 -84.2168 -67.6066 -87.7053 -74.6431C-91.1938 -81.6797 -95.9792 -87.1062 -102.062 -90.9227C-108.144 -94.7391 -115.091 -96.6474 -122.903 -96.6474C-130.715 -96.6474 -137.662 -94.7391 -143.744 -90.9227C-149.827 -87.1062 -154.612 -81.6797 -158.101 -74.6431C-161.589 -67.6066 -163.334 -59.2581 -163.334 -49.5977ZM-152.6 -49.5977C-152.6 -57.5288 -151.273 -64.2225 -148.619 -69.6788C-145.996 -75.1351 -142.433 -79.2646 -137.93 -82.0673C-133.458 -84.87 -128.449 -86.2714 -122.903 -86.2714C-117.357 -86.2714 -112.333 -84.87 -107.831 -82.0673C-103.359 -79.2646 -99.7957 -75.1351 -97.142 -69.6788C-94.5182 -64.2225 -93.2063 -57.5288 -93.2063 -49.5977C-93.2063 -41.6666 -94.5182 -34.9729 -97.142 -29.5166C-99.7957 -24.0603 -103.359 -19.9308 -107.831 -17.1281C-112.333 -14.3253 -117.357 -12.924 -122.903 -12.924C-128.449 -12.924 -133.458 -14.3253 -137.93 -17.1281C-142.433 -19.9308 -145.996 -24.0603 -148.619 -29.5166C-151.273 -34.9729 -152.6 -41.6666 -152.6 -49.5977ZM-254.615 -95.3951V-3.80029H-243.882L-193.97 -75.7165H-193.075V-3.80029H-181.984V-95.3951H-192.717L-242.808 -23.3H-243.703V-95.3951H-254.615ZM-11.1825 79.5036C-10.6458 74.9716 -8.46921 71.4533 -4.65276 68.9487C-0.836311 66.4442 3.8448 65.1919 9.39058 65.1919C13.4456 65.1919 16.9937 65.8479 20.0349 67.1598C23.0463 68.4717 25.4018 70.2755 27.1013 72.5714C28.771 74.8672 29.6058 77.4761 29.6058 80.3981C29.6058 82.843 29.0244 84.945 27.8616 86.7042C26.669 88.4335 25.1483 89.8796 23.2998 91.0424C21.4512 92.1754 19.5131 93.1146 17.4856 93.86C15.4581 94.5756 13.5946 95.157 11.8951 95.6043L2.59253 98.1088C0.20725 98.7349 -2.44638 99.5996 -5.36834 100.703C-8.32013 101.806 -11.1377 103.312 -13.8212 105.22C-16.5344 107.098 -18.7706 109.513 -20.5298 112.465C-22.2889 115.417 -23.1685 119.04 -23.1685 123.333C-23.1685 128.283 -21.8715 132.755 -19.2775 136.75C-16.7133 140.746 -12.9565 143.921 -8.00706 146.277C-3.08742 148.632 2.89069 149.81 9.92727 149.81C16.4868 149.81 22.1667 148.751 26.9671 146.634C31.7377 144.517 35.4945 141.566 38.2376 137.779C40.9508 133.992 42.4864 129.595 42.8442 124.585H31.3948C31.0966 128.044 29.9338 130.906 27.9063 133.172C25.849 135.409 23.255 137.078 20.1243 138.182C16.9639 139.255 13.5648 139.792 9.92727 139.792C5.6934 139.792 1.89185 139.106 -1.47736 137.734C-4.84657 136.333 -7.5151 134.395 -9.48296 131.92C-11.4508 129.416 -12.4347 126.494 -12.4347 123.154C-12.4347 120.113 -11.585 117.638 -9.88547 115.73C-8.18596 113.822 -5.94976 112.271 -3.17687 111.079C-0.403979 109.886 2.59253 108.843 5.81266 107.948L17.0831 104.728C24.239 102.671 29.904 99.7338 34.0782 95.9173C38.2525 92.1009 40.3396 87.1067 40.3396 80.9348C40.3396 75.8064 38.9532 71.334 36.1803 67.5176C33.3776 63.6713 29.6208 60.6897 24.9098 58.5728C20.1691 56.426 14.8767 55.3526 9.03279 55.3526C3.12922 55.3526 -2.1184 56.4111 -6.71006 58.528C-11.3017 60.6152 -14.9393 63.4775 -17.6227 67.115C-20.336 70.7526 -21.7672 74.8821 -21.9162 79.5036H-11.1825Z" fill="#231F20"/>
<path fill-rule="evenodd" clip-rule="evenodd" d="M-282.857 45.8798C-281.714 47.2055 -279.857 47.2055 -278.714 45.8798L-250.714 13.3997V39.0855C-250.714 40.9083 -249.428 42.3997 -247.857 42.3997C-246.143 42.3997 -244.857 40.9083 -244.857 39.0855V5.27975C-244.857 3.45689 -246.143 1.96547 -247.857 1.96547H-276.857C-278.428 1.96547 -279.714 3.45689 -279.714 5.27975C-279.714 7.1026 -278.428 8.59404 -276.857 8.59404H-254.857L-282.857 41.074C-284 42.3997 -284 44.554 -282.857 45.8798ZM-527.857 185.908C-527.857 166.023 -541.714 149.948 -558.857 149.948C-576 149.948 -589.857 166.023 -589.857 185.908C-589.857 205.794 -576 221.868 -558.857 221.868C-541.714 221.868 -527.857 205.794 -527.857 185.908ZM-555.857 200.491C-555.857 202.314 -557.143 203.805 -558.857 203.805C-560.428 203.805 -561.714 202.314 -561.714 200.491V179.943L-569.286 189.223C-570.428 190.714 -572.143 190.714 -573.428 189.554C-574.571 188.228 -574.571 186.074 -573.571 184.748L-561 169.005C-560.428 168.343 -559.571 167.845 -558.857 167.845C-558 167.845 -557.286 168.343 -556.714 169.005L-544.143 184.748C-543 186.074 -543 188.228 -544.286 189.554C-545.428 190.714 -547.286 190.714 -548.286 189.223L-555.857 179.943V200.491ZM5.28592 24.3369C5.28592 26.1597 6.57164 27.6512 8.28592 27.6512H34.0002L25.5716 36.434C24.4288 37.7597 24.4288 39.914 25.5716 41.2398C26.5716 42.5655 28.4288 42.7312 29.5716 41.4055L43.1431 26.8226C43.7145 26.1597 44.1431 25.1655 44.1431 24.3369C44.1431 23.3426 43.7145 22.514 43.1431 21.8512L29.5716 7.26833C28.4288 5.94261 26.5716 6.10832 25.5716 7.43404C24.4288 8.75975 24.4288 10.914 25.5716 12.0741L34.0002 21.0226H8.28592C6.57164 21.0226 5.28592 22.514 5.28592 24.3369ZM-816.428 167.845C-814.714 167.845 -813.428 169.337 -813.428 171.16V209.44C-813.428 211.263 -814.714 212.754 -816.428 212.754H-849.428C-851 212.754 -852.286 211.263 -852.286 209.44V191.377C-852.286 189.554 -853.571 188.063 -855.143 188.063C-856.857 188.063 -858.143 189.554 -858.143 191.377V209.44C-858.143 215.074 -854.143 219.548 -849.428 219.548H-816.428C-811.571 219.548 -807.571 215.074 -807.571 209.44V171.16C-807.571 165.525 -811.571 161.051 -816.428 161.051H-835.714C-837.428 161.051 -838.714 162.543 -838.714 164.365C-838.714 166.354 -837.428 167.845 -835.714 167.845H-816.428ZM-824.286 195.685L-859.428 158.731H-849.428C-847.857 158.731 -846.571 157.24 -846.571 155.417C-846.571 153.594 -847.857 152.103 -849.428 152.103H-867C-868.571 152.103 -869.857 153.594 -869.857 155.417V175.634C-869.857 177.457 -868.571 179.114 -867 179.114C-865.286 179.114 -864 177.457 -864 175.634V163.04L-828.143 200.657C-827 201.983 -825.143 201.817 -824 200.491C-823 199 -823 197.011 -824.286 195.685ZM-99.8569 24.3369C-99.8569 22.514 -101.143 21.0226 -102.714 21.0226H-128.571L-120.143 12.0741C-119 10.914 -119 8.75975 -120 7.43404C-121.143 6.10832 -123 5.94261 -124.143 7.26833L-137.714 21.8512C-138.286 22.514 -138.571 23.3426 -138.571 24.3369C-138.571 25.1655 -138.286 26.1597 -137.714 26.8226L-124.143 41.4055C-123 42.7312 -121.143 42.5655 -120 41.2398C-119 39.914 -119 37.7597 -120.143 36.434L-128.571 27.6512H-102.714C-101.143 27.6512 -99.8569 26.1597 -99.8569 24.3369ZM-405.857 34.2798C-407 35.6055 -407 37.7598 -405.857 39.0855C-404.714 40.4112 -402.857 40.4112 -401.714 39.0855L-395.143 31.4626C-395.333 36.2131 -395.666 40.9636 -396.143 45.714C-396.285 47.0397 -397.285 48.1998 -398.571 48.3655C-403.143 48.8074 -407.809 49.0283 -412.571 49.0283C-417.238 49.0283 -421.857 48.8074 -426.428 48.3655C-427.714 48.1998 -428.714 47.0397 -428.857 45.714C-429.143 43.394 -429.333 41.0188 -429.428 38.5883C-429.571 36.7655 -431 35.4398 -432.571 35.6055C-434.143 35.7712 -435.428 37.2626 -435.286 39.2512C-435.095 41.6817 -434.857 44.0569 -434.571 46.3769C-434.143 51.0169 -431 54.6626 -427 54.994C-422.238 55.5464 -417.428 55.8226 -412.571 55.8226C-407.619 55.8226 -402.762 55.5464 -398 54.994C-394 54.6626 -390.857 51.0169 -390.428 46.3769C-389.857 41.4055 -389.524 36.3788 -389.428 31.2969L-382.571 39.0855C-381.428 40.4112 -379.571 40.4112 -378.571 39.0855C-377.428 37.7598 -377.428 35.6055 -378.571 34.2798L-390.143 20.8569C-391.286 19.5312 -393.143 19.5312 -394.285 20.8569L-405.857 34.2798ZM-398.571 0.308319C-397.285 0.47403 -396.285 1.46832 -396.143 2.95976C-395.857 5.27975 -395.666 7.59975 -395.571 9.91975C-395.428 11.7426 -394 13.234 -392.428 13.0683C-390.857 12.9026 -389.571 11.2455 -389.714 9.42261C-389.905 6.99213 -390.095 4.56166 -390.286 2.13118C-390.857 -2.50882 -394 -5.98882 -398 -6.48596C-402.762 -6.92787 -407.571 -7.14882 -412.428 -7.14882C-417.381 -7.14882 -422.238 -6.92787 -427 -6.48596C-431 -5.98882 -434.143 -2.50882 -434.571 2.13118C-435.143 7.21309 -435.476 12.295 -435.571 17.3769L-442.428 9.58833C-443.571 8.26262 -445.428 8.26262 -446.428 9.58833C-447.571 10.914 -447.571 12.9026 -446.428 14.2283L-434.857 27.8169C-433.714 29.1426 -431.857 29.1426 -430.714 27.8169L-419.143 14.2283C-418 12.9026 -418 10.914 -419.143 9.58833C-420.285 8.26262 -422.143 8.26262 -423.285 9.58833L-429.857 17.0455C-429.666 12.295 -429.333 7.59976 -428.857 2.95976C-428.714 1.46832 -427.714 0.47403 -426.428 0.308319C-421.857 -0.244064 -417.19 -0.520248 -412.428 -0.520248C-407.762 -0.520248 -403.143 -0.244064 -398.571 0.308319ZM-689.286 6.77118C-685.428 6.77118 -682.285 3.12546 -682.285 -1.34882C-682.285 -5.98882 -685.428 -9.63454 -689.286 -9.63454C-693.286 -9.63454 -696.428 -5.98882 -696.428 -1.34882C-696.428 3.12546 -693.286 6.77118 -689.286 6.77118ZM-702.571 1.63403C-701.143 1.63403 -700 0.308319 -700 -1.34882C-700 -3.17168 -701.143 -4.49739 -702.571 -4.49739H-722C-723.571 -4.49739 -724.714 -3.17168 -724.714 -1.34882C-724.714 0.308319 -723.571 1.63403 -722 1.63403H-702.571ZM-678.714 -1.34882C-678.714 0.308319 -677.571 1.63403 -676.143 1.63403H-670.857C-669.286 1.63403 -668.143 0.308319 -668.143 -1.34882C-668.143 -3.00597 -669.286 -4.49739 -670.857 -4.49739H-676.143C-677.571 -4.49739 -678.714 -3.00597 -678.714 -1.34882ZM-670.857 53.0055C-669.286 53.0055 -668.143 51.6797 -668.143 49.8569C-668.143 48.1998 -669.286 46.874 -670.857 46.874H-676.143C-677.571 46.874 -678.714 48.1998 -678.714 49.8569C-678.714 51.6797 -677.571 53.0055 -676.143 53.0055H-670.857ZM-702.714 53.0055C-701.143 53.0055 -700 51.6797 -700 49.8569C-700 48.1998 -701.143 46.874 -702.714 46.874H-722.143C-723.571 46.874 -724.714 48.1998 -724.714 49.8569C-724.714 51.6797 -723.571 53.0055 -722.143 53.0055H-702.714ZM-693 24.3369C-693 25.994 -691.714 27.3197 -690.286 27.3197H-670.857C-669.428 27.3197 -668.143 25.994 -668.143 24.3369C-668.143 22.514 -669.428 21.1883 -670.857 21.1883H-690.286C-691.714 21.1883 -693 22.514 -693 24.3369ZM-716.857 27.3197C-715.428 27.3197 -714.143 25.994 -714.143 24.3369C-714.143 22.514 -715.428 21.1883 -716.857 21.1883H-722.143C-723.571 21.1883 -724.857 22.514 -724.857 24.3369C-724.857 25.994 -723.571 27.3197 -722.143 27.3197H-716.857ZM-703.571 32.4569C-699.714 32.4569 -696.571 28.8112 -696.571 24.3369C-696.571 19.6969 -699.714 16.0512 -703.571 16.0512C-707.571 16.0512 -710.714 19.6969 -710.714 24.3369C-710.714 28.8112 -707.571 32.4569 -703.571 32.4569ZM-689.428 58.1426C-685.571 58.1426 -682.428 54.4969 -682.428 49.8569C-682.428 45.3826 -685.571 41.7369 -689.428 41.7369C-693.286 41.7369 -696.571 45.3826 -696.571 49.8569C-696.571 54.4969 -693.286 58.1426 -689.428 58.1426ZM-1254 -169.549C-1255.57 -169.549 -1256.86 -168.057 -1256.86 -166.235V-110.057C-1256.86 -108.235 -1255.57 -106.743 -1254 -106.743H-1248.14C-1246.57 -106.743 -1245.29 -108.235 -1245.29 -110.057V-166.235C-1245.29 -168.057 -1246.57 -169.549 -1248.14 -169.549H-1254ZM-1281.14 -169.549C-1282.71 -169.549 -1284.14 -168.057 -1284.14 -166.235V-110.057C-1284.14 -108.235 -1282.71 -106.743 -1281.14 -106.743H-1275.43C-1273.71 -106.743 -1272.43 -108.235 -1272.43 -110.057V-166.235C-1272.43 -168.057 -1273.71 -169.549 -1275.43 -169.549H-1281.14ZM-1110 -120.332L-1114.86 -134.417C-1115.71 -136.737 -1116.86 -138.726 -1118.29 -140.549L-1145.14 -171.537C-1148.29 -175.349 -1153.57 -175.349 -1156.71 -171.537C-1160 -167.892 -1160 -161.76 -1156.71 -158.115L-1130 -126.96C-1128.43 -125.303 -1126.71 -123.977 -1124.71 -122.983L-1112.57 -117.349C-1111 -116.52 -1109.43 -118.343 -1110 -120.332ZM-1102.57 -114.2C-1102.57 -111.217 -1104.71 -108.566 -1107.29 -108.566H-1144.14C-1146.86 -108.566 -1149 -111.217 -1149 -114.2V-137.897C-1149 -139.72 -1150.29 -141.212 -1151.86 -141.212C-1153.57 -141.212 -1154.86 -139.72 -1154.86 -137.897V-114.2C-1154.86 -107.406 -1150 -101.937 -1144.14 -101.937H-1107.29C-1101.43 -101.937 -1096.71 -107.406 -1096.71 -114.2V-156.955C-1096.71 -163.749 -1101.43 -169.383 -1107.29 -169.383H-1127.71C-1129.29 -169.383 -1130.57 -167.892 -1130.57 -165.903C-1130.57 -164.08 -1129.29 -162.589 -1127.71 -162.589H-1107.29C-1104.71 -162.589 -1102.57 -160.103 -1102.57 -156.955V-114.2ZM-959.286 -123.812L-1001.57 -172.863C-1004.86 -176.675 -1010 -176.675 -1013.29 -172.863C-1016.43 -169.217 -1016.43 -163.086 -1013.29 -159.44L-970.857 -110.389C-969.428 -108.566 -967.714 -107.24 -965.714 -106.412L-953.428 -100.612C-951.857 -99.9488 -950.286 -101.772 -951 -103.595L-955.857 -117.68C-956.571 -120 -957.857 -122.155 -959.286 -123.812ZM-807.857 -4.82883C-807.857 -8.64024 -810.428 -11.6231 -813.571 -11.6231H-818.143C-820.857 -11.6231 -823.143 -9.46883 -823.714 -6.32025L-826.571 8.09689C-827.143 11.5769 -825.428 15.0569 -822.428 16.0512L-818.857 17.2112C-817.286 17.874 -816.286 19.6969 -817 21.5198C-821.428 34.2798 -830.286 44.3883 -841.143 49.6912C-842.714 50.354 -844.428 49.3598 -844.857 47.5369L-845.857 43.2283C-846.714 39.914 -849.714 37.7598 -852.714 38.5883L-865.286 41.7369C-867.857 42.3998 -869.857 45.2169 -869.857 48.3655V53.5026C-869.857 57.314 -867.143 60.2969 -864 60.2969H-858.143C-853.714 60.2969 -849.428 59.634 -845.286 58.3083C-827.857 53.0055 -814.143 37.0969 -809.428 16.714C-808.428 12.074 -807.857 6.93689 -807.857 1.79974V-4.82883Z" fill="#0F172A"/>
<path fill-rule="evenodd" clip-rule="evenodd" d="M-1239.43 331.24C-1239.43 325.771 -1243.29 321.297 -1248 321.297H-1286.57C-1291.29 321.297 -1295.14 325.771 -1295.14 331.24V371.011C-1295.14 376.48 -1291.29 380.954 -1286.57 380.954H-1248C-1243.29 380.954 -1239.43 376.48 -1239.43 371.011V331.24ZM-1250.86 338.034L-1255.71 343.668L-1250.86 349.468C-1250 350.463 -1250 351.954 -1250.86 352.948C-1251.71 353.943 -1253 353.943 -1253.86 352.948L-1260.29 345.491C-1261.14 344.497 -1261.14 343.005 -1260.29 342.011L-1253.86 334.554C-1253 333.56 -1251.71 333.56 -1250.86 334.554C-1250 335.548 -1250 337.04 -1250.86 338.034ZM-1263 348.64C-1261.86 348.64 -1260.86 349.8 -1260.86 351.125C-1260.86 352.617 -1261.86 353.611 -1263 353.611H-1271.57C-1272.86 353.611 -1273.71 352.617 -1273.71 351.125C-1273.71 349.8 -1272.86 348.64 -1271.57 348.64H-1263ZM52.5715 -160.435C52.5715 -165.903 48.7144 -170.377 44.0001 -170.377H5.42868C0.71439 -170.377 -3.14275 -165.903 -3.14275 -160.435V-128.12C-3.14275 -122.486 0.71439 -118.177 5.42868 -118.177H14.0001V-117.183C14.0001 -115.195 13.2858 -113.372 12.143 -112.046L10.2858 -109.892C9.71439 -109.229 9.57153 -108.069 9.85725 -107.24C10.143 -106.246 11.0001 -105.749 11.8572 -105.749H37.5715C38.4287 -105.749 39.143 -106.246 39.5715 -107.24C39.8572 -108.069 39.7144 -109.229 39.0001 -109.892L37.2858 -112.046C36.143 -113.372 35.4287 -115.195 35.4287 -117.183V-118.177H44.0001C48.7144 -118.177 52.5715 -122.486 52.5715 -128.12V-160.435ZM48.2858 -160.435V-135.577C48.2858 -132.76 46.2858 -130.606 44.0001 -130.606H5.42868C3.0001 -130.606 1.14296 -132.76 1.14296 -135.577V-160.435C1.14296 -163.086 3.0001 -165.406 5.42868 -165.406H44.0001C46.2858 -165.406 48.2858 -163.086 48.2858 -160.435ZM11.8572 366.04H37.5715V336.211H11.8572V366.04Z" fill="#0F172A"/>
</g>
</g>
<defs>
<clipPath id="clip0_70_5413">
<rect width="50" height="50" fill="white" transform="matrix(-1 0 0 1 50 0)"/>
</clipPath>
</defs>
</svg>
