<svg width="50" height="50" viewBox="0 0 50 50" fill="none" xmlns="http://www.w3.org/2000/svg">
<g clip-path="url(#clip0_70_5434)">
<mask id="mask0_70_5434" style="mask-type:luminance" maskUnits="userSpaceOnUse" x="-918" y="-860" width="1584" height="1224">
<path d="M-918 -860H666V364H-918V-860Z" fill="white"/>
</mask>
<g mask="url(#mask0_70_5434)">
<path fill-rule="evenodd" clip-rule="evenodd" d="M305.6 14.8001C305.6 11.5001 308.3 8.80008 311.6 8.80008H338.6C341.9 8.80008 344.6 11.5001 344.6 14.8001V38.8001C344.6 42.1001 341.9 44.8001 338.6 44.8001H311.6C308.3 44.8001 305.6 42.1001 305.6 38.8001V14.8001ZM313.6 18.9001L317 22.3001L313.6 25.8001C313 26.4001 313 27.3001 313.6 27.9001C314.2 28.5001 315.1 28.5001 315.7 27.9001L320.2 23.4001C320.8 22.8001 320.8 21.9001 320.2 21.3001L315.7 16.8001C315.1 16.2001 314.2 16.2001 313.6 16.8001C313 17.4001 313 18.3001 313.6 18.9001ZM322.1 25.3001C321.3 25.3001 320.6 26.0001 320.6 26.8001C320.6 27.7001 321.3 28.3001 322.1 28.3001H328.1C329 28.3001 329.6 27.7001 329.6 26.8001C329.6 26.0001 329 25.3001 328.1 25.3001H322.1ZM-598.8 -281.9C-598.8 -285.2 -596.1 -287.9 -592.8 -287.9H-565.8C-562.5 -287.9 -559.8 -285.2 -559.8 -281.9V-262.4C-559.8 -259 -562.5 -256.4 -565.8 -256.4H-571.8V-255.8C-571.8 -254.6 -571.3 -253.5 -570.5 -252.7L-569.2 -251.4C-568.8 -251 -568.7 -250.3 -568.9 -249.8C-569.1 -249.2 -569.7 -248.9 -570.3 -248.9H-588.3C-588.9 -248.9 -589.4 -249.2 -589.7 -249.8C-589.9 -250.3 -589.8 -251 -589.3 -251.4L-588.1 -252.7C-587.3 -253.5 -586.8 -254.6 -586.8 -255.8V-256.4H-592.8C-596.1 -256.4 -598.8 -259 -598.8 -262.4V-281.9ZM-595.8 -281.9V-266.9C-595.8 -265.2 -594.4 -263.9 -592.8 -263.9H-565.8C-564.1 -263.9 -562.8 -265.2 -562.8 -266.9V-281.9C-562.8 -283.5 -564.1 -284.9 -565.8 -284.9H-592.8C-594.4 -284.9 -595.8 -283.5 -595.8 -281.9ZM-570.3 35.8001H-588.3V17.8001H-570.3V35.8001Z" fill="#0F172A"/>
<path fill-rule="evenodd" clip-rule="evenodd" d="M-491.4 -93.8999H-484.6C-480.5 -93.8999 -477.1 -90.5999 -477.1 -86.3999V-82.6999C-477.1 -80.5999 -475.4 -78.8999 -473.4 -78.8999H-469.6C-465.5 -78.8999 -462.1 -75.5999 -462.1 -71.3999V-55.6999C-462.1 -53.5999 -463.8 -51.8999 -465.9 -51.8999H-491.4C-493.4 -51.8999 -495.1 -53.5999 -495.1 -55.6999V-90.1999C-495.1 -92.1999 -493.4 -93.8999 -491.4 -93.8999ZM-479.4 -60.8999C-478 -60.8999 -476.8 -61.2999 -475.8 -61.9999L-473.7 -59.8999C-473.1 -59.2999 -472.1 -59.2999 -471.6 -59.8999C-471 -60.3999 -471 -61.3999 -471.6 -61.9999L-473.7 -64.0999C-473 -65.0999 -472.6 -66.2999 -472.6 -67.6999C-472.6 -71.3999 -475.6 -74.3999 -479.4 -74.3999C-483.1 -74.3999 -486.1 -71.3999 -486.1 -67.6999C-486.1 -63.8999 -483.1 -60.8999 -479.4 -60.8999ZM-474.1 -86.3999C-474.1 -88.9999 -475.1 -91.3999 -476.7 -93.2999C-469.9 -91.4999 -464.5 -86.1999 -462.7 -79.3999C-464.6 -80.9999 -467 -81.8999 -469.6 -81.8999H-473.4C-473.8 -81.8999 -474.1 -82.2999 -474.1 -82.6999V-86.3999ZM-288.3 -52.1999C-291.6 -52.1999 -294.3 -54.8999 -294.3 -58.1999V-74.4999L-280.6 -66.4999L-287.5 -62.6999C-288.3 -62.2999 -288.5 -61.3999 -288.1 -60.6999C-287.8 -59.9999 -286.8 -59.6999 -286.1 -60.0999L-274.7 -66.1999C-273.9 -66.6999 -272.8 -66.6999 -271.9 -66.1999L-260.5 -60.0999C-259.8 -59.6999 -258.9 -59.9999 -258.5 -60.6999C-258.1 -61.3999 -258.4 -62.2999 -259.1 -62.6999L-266.1 -66.4999L-252.3 -74.4999V-58.1999C-252.3 -54.8999 -255 -52.1999 -258.3 -52.1999H-288.3ZM-294.3 -77.9999V-79.4999C-294.3 -81.6999 -293.1 -83.6999 -291.2 -84.7999L-276.2 -92.7999C-274.4 -93.7999 -272.3 -93.7999 -270.5 -92.7999L-255.5 -84.7999C-253.5 -83.6999 -252.3 -81.6999 -252.3 -79.4999V-77.9999L-269.2 -68.0999L-270.5 -68.7999C-272.3 -69.7999 -274.4 -69.7999 -276.2 -68.7999L-277.5 -68.0999L-294.3 -77.9999ZM-173.8 38.8001C-173.8 37.2001 -172.4 35.8001 -170.8 35.8001C-169.1 35.8001 -167.8 37.2001 -167.8 38.8001C-167.8 40.5001 -169.1 41.8001 -170.8 41.8001C-172.4 41.8001 -173.8 40.5001 -173.8 38.8001ZM-173.8 26.8001C-173.8 25.2001 -172.4 23.8001 -170.8 23.8001C-169.1 23.8001 -167.8 25.2001 -167.8 26.8001C-167.8 28.5001 -169.1 29.8001 -170.8 29.8001C-172.4 29.8001 -173.8 28.5001 -173.8 26.8001ZM-173.8 14.8001C-173.8 13.2001 -172.4 11.8001 -170.8 11.8001C-169.1 11.8001 -167.8 13.2001 -167.8 14.8001C-167.8 16.5001 -169.1 17.8001 -170.8 17.8001C-172.4 17.8001 -173.8 16.5001 -173.8 14.8001ZM-276.4 31.2001C-274.5 32.3001 -272.1 32.3001 -270.1 31.2001L-252.3 20.2001V37.3001C-252.3 40.6001 -255 43.3001 -258.3 43.3001H-288.3C-291.6 43.3001 -294.3 40.6001 -294.3 37.3001V20.2001L-276.4 31.2001ZM-271.7 28.6001C-272.6 29.2001 -273.8 29.2001 -274.8 28.6001L-294.2 16.7001V16.3001C-294.2 13.0001 -291.5 10.3001 -288.2 10.3001H-258.2C-254.9 10.3001 -252.2 13.0001 -252.2 16.3001V16.7001L-271.7 28.6001ZM-385.6 37.3001C-385.6 36.5001 -384.9 35.8001 -384.1 35.8001H-360.1C-359.3 35.8001 -358.6 36.5001 -358.6 37.3001C-358.6 38.1001 -359.3 38.8001 -360.1 38.8001H-384.1C-384.9 38.8001 -385.6 38.1001 -385.6 37.3001ZM-395.4 37.3001C-395.4 36.0001 -394.4 35.0001 -393.1 35.0001C-391.9 35.0001 -390.9 36.0001 -390.9 37.3001C-390.9 38.5001 -391.9 39.5001 -393.1 39.5001C-394.4 39.5001 -395.4 38.5001 -395.4 37.3001ZM-385.6 26.8001C-385.6 26.0001 -384.9 25.3001 -384.1 25.3001H-360.1C-359.3 25.3001 -358.6 26.0001 -358.6 26.8001C-358.6 27.6001 -359.3 28.3001 -360.1 28.3001H-384.1C-384.9 28.3001 -385.6 27.6001 -385.6 26.8001ZM-395.4 26.8001C-395.4 25.5001 -394.4 24.5001 -393.1 24.5001C-391.9 24.5001 -390.9 25.5001 -390.9 26.8001C-390.9 28.0001 -391.9 29.0001 -393.1 29.0001C-394.4 29.0001 -395.4 28.0001 -395.4 26.8001ZM-385.6 16.3001C-385.6 15.5001 -384.9 14.8001 -384.1 14.8001H-360.1C-359.3 14.8001 -358.6 15.5001 -358.6 16.3001C-358.6 17.1001 -359.3 17.8001 -360.1 17.8001H-384.1C-384.9 17.8001 -385.6 17.1001 -385.6 16.3001ZM-395.4 16.3001C-395.4 15.0001 -394.4 14.0001 -393.1 14.0001C-391.9 14.0001 -390.9 15.0001 -390.9 16.3001C-390.9 17.5001 -391.9 18.5001 -393.1 18.5001C-394.4 18.5001 -395.4 17.5001 -395.4 16.3001ZM118.7 24.5001C118.7 21.6001 121 19.3001 123.9 19.3001C126.8 19.3001 129.2 21.6001 129.2 24.5001C129.2 26.0001 128.6 27.3001 127.7 28.3001C126.7 29.2001 125.4 29.8001 123.9 29.8001C121 29.8001 118.7 27.4001 118.7 24.5001Z" fill="#0F172A"/>
<path fill-rule="evenodd" clip-rule="evenodd" d="M145.7 26.7999C145.7 37.5999 136.9 46.2999 126.2 46.2999C115.4 46.2999 106.7 37.5999 106.7 26.7999C106.7 16.0999 115.4 7.2999 126.2 7.2999C136.9 7.2999 145.7 16.0999 145.7 26.7999ZM123.9 16.2999C119.4 16.2999 115.7 19.9999 115.7 24.5999C115.7 29.0999 119.4 32.7999 123.9 32.7999C125.7 32.7999 127.3 32.2999 128.6 31.3999L132.6 35.3999C133.2 35.9999 134.1 35.9999 134.7 35.3999C135.3 34.7999 135.3 33.8999 134.7 33.2999L130.7 29.2999C131.6 27.8999 132.2 26.2999 132.2 24.5999C132.2 19.9999 128.5 16.2999 123.9 16.2999ZM44.5998 7.2999C45.3998 7.2999 46.0998 7.99991 46.0998 8.7999C46.0998 9.69989 45.3998 10.2999 44.5998 10.2999H43.0998V31.2999C43.0998 34.5999 40.3998 37.2999 37.0998 37.2999H34.6998L36.9998 44.3999C37.2998 45.0999 36.7998 45.9999 36.0998 46.2999C35.2998 46.4999 34.3998 46.0999 34.1998 45.2999L33.4998 43.2999H16.6998L15.9998 45.2999C15.6998 46.0999 14.8998 46.4999 14.0998 46.2999C13.2998 45.9999 12.8998 45.0999 13.1998 44.3999L15.4998 37.2999H13.0998C9.7998 37.2999 7.09982 34.5999 7.09982 31.2999V10.2999H5.59982C4.69983 10.2999 4.09982 9.69989 4.09982 8.7999C4.09982 7.99991 4.69983 7.2999 5.59982 7.2999H44.5998ZM26.5998 20.7999C26.5998 19.9999 25.8998 19.2999 25.0998 19.2999C24.1998 19.2999 23.5998 19.9999 23.5998 20.7999V28.2999C23.5998 29.1999 24.1998 29.7999 25.0998 29.7999C25.8998 29.7999 26.5998 29.1999 26.5998 28.2999V20.7999ZM32.5998 16.2999C32.5998 15.4999 31.8998 14.7999 31.0998 14.7999C30.1998 14.7999 29.5998 15.4999 29.5998 16.2999V28.2999C29.5998 29.1999 30.1998 29.7999 31.0998 29.7999C31.8998 29.7999 32.5998 29.1999 32.5998 28.2999V16.2999ZM32.4998 40.2999L31.4998 37.2999H18.6998L17.6998 40.2999H32.4998ZM20.4998 25.2999C20.4998 24.4999 19.8998 23.7999 18.9998 23.7999C18.1998 23.7999 17.4998 24.4999 17.4998 25.2999V28.2999C17.4998 29.1999 18.1998 29.7999 18.9998 29.7999C19.8998 29.7999 20.4998 29.1999 20.4998 28.2999V25.2999ZM235.7 -93.9001C237.7 -93.9001 239.4 -92.2001 239.4 -90.2001V-84.2001C240.266 -84.0668 241.133 -83.9334 242 -83.8001C244.9 -83.4001 246.9 -80.9001 246.9 -78.0001V-65.4001C246.9 -62.1001 244.2 -59.4001 240.9 -59.4001H240.4L240.7 -56.0001C240.9 -53.8001 239.2 -51.9001 237 -51.9001H217.9C215.7 -51.9001 214 -53.8001 214.2 -56.0001L214.5 -59.4001H213.9C210.6 -59.4001 207.9 -62.1001 207.9 -65.4001V-78.0001C207.9 -80.9001 210 -83.4001 212.9 -83.8001C213.7 -83.9334 214.533 -84.0668 215.4 -84.2001V-90.2001C215.4 -92.2001 217.1 -93.9001 219.2 -93.9001H235.7ZM239.4 -74.4001C240.3 -74.4001 240.9 -75.1001 240.9 -75.9001C240.9 -76.7001 240.3 -77.4001 239.4 -77.4001C238.6 -77.4001 237.9 -76.7001 237.9 -75.9001C237.9 -75.1001 238.6 -74.4001 239.4 -74.4001ZM227.4 -68.4001C224.533 -68.4001 221.7 -68.2668 218.9 -68.0001C218.5 -67.9001 218.2 -67.7001 218.2 -67.3001L217.1 -55.7001C217.1 -55.3001 217.4 -54.9001 217.9 -54.9001H237C237.4 -54.9001 237.7 -55.3001 237.7 -55.7001L236.7 -67.3001C236.6 -67.7001 236.3 -67.9001 236 -68.0001C233.2 -68.2668 230.333 -68.4001 227.4 -68.4001ZM236.4 -84.5001V-90.2001C236.4 -90.6001 236.1 -90.9001 235.7 -90.9001H219.2C218.8 -90.9001 218.4 -90.6001 218.4 -90.2001V-84.5001C221.4 -84.7668 224.4 -84.9001 227.4 -84.9001C230.466 -84.9001 233.466 -84.7668 236.4 -84.5001ZM233.4 -77.4001C232.6 -77.4001 231.9 -76.7001 231.9 -75.9001C231.9 -75.1001 232.6 -74.4001 233.4 -74.4001C234.3 -74.4001 234.9 -75.1001 234.9 -75.9001C234.9 -76.7001 234.3 -77.4001 233.4 -77.4001ZM-94.1002 29.7999C-94.1002 20.6999 -86.7002 13.2999 -77.6002 13.2999C-76.8002 13.2999 -76.1002 13.9999 -76.1002 14.7999V28.2999H-62.6002C-61.8002 28.2999 -61.1002 28.9999 -61.1002 29.7999C-61.1002 38.8999 -68.5002 46.2999 -77.6002 46.2999C-86.7002 46.2999 -94.1002 38.8999 -94.1002 29.7999ZM-73.1002 8.7999C-73.1002 7.99991 -72.4002 7.2999 -71.6002 7.2999C-62.5002 7.2999 -55.1002 14.6999 -55.1002 23.7999C-55.1002 24.6999 -55.8002 25.2999 -56.6002 25.2999H-71.6002C-72.4002 25.2999 -73.1002 24.6999 -73.1002 23.7999V8.7999ZM-459.6 -251.4C-459 -250.8 -459 -249.9 -459.6 -249.3C-460.2 -248.7 -461.1 -248.7 -461.7 -249.3L-497.7 -285.3C-498.3 -285.9 -498.3 -286.8 -497.7 -287.4C-497.1 -288 -496.2 -288 -495.6 -287.4L-459.6 -251.4ZM-457.7 -257C-457.7 -256 -458.1 -255.3 -458.7 -254.7L-468.2 -264.2V-276.5L-462.8 -281.9C-460.9 -283.7 -457.7 -282.4 -457.7 -279.7V-257ZM-471.2 -277.4V-267.3L-487.3 -283.4H-477.2C-473.8 -283.4 -471.2 -280.7 -471.2 -277.4ZM-499.7 -277.4C-499.7 -279 -499.1 -280.4 -498.1 -281.5L-472.4 -255.8C-473.5 -254.3 -475.2 -253.4 -477.2 -253.4H-493.7C-497 -253.4 -499.7 -256.1 -499.7 -259.4V-277.4Z" fill="#0F172A"/>
</g>
</g>
<defs>
<clipPath id="clip0_70_5434">
<rect width="50" height="50" fill="white"/>
</clipPath>
</defs>
</svg>
