<svg width="50" height="50" viewBox="0 0 50 50" fill="none" xmlns="http://www.w3.org/2000/svg">
<g clip-path="url(#clip0_70_5439)">
<mask id="mask0_70_5439" style="mask-type:luminance" maskUnits="userSpaceOnUse" x="-314" y="-762" width="1584" height="1224">
<path d="M-314 -762H1270V462H-314V-762Z" fill="white"/>
</mask>
<g mask="url(#mask0_70_5439)">
<path fill-rule="evenodd" clip-rule="evenodd" d="M240 -59.4C239.2 -58.6 237.9 -58.6 237.1 -59.4L217.5 -79V-63.5C217.5 -62.4 216.6 -61.5 215.5 -61.5C214.3 -61.5 213.4 -62.4 213.4 -63.5V-83.9C213.4 -85 214.3 -85.9 215.5 -85.9H235.8C236.9 -85.9 237.8 -85 237.8 -83.9C237.8 -82.8 236.9 -81.9 235.8 -81.9H220.4L240 -62.3C240.8 -61.5 240.8 -60.2 240 -59.4ZM411.5 25.1C411.5 13.1 421.2 3.39999 433.2 3.39999C445.2 3.39999 454.9 13.1 454.9 25.1C454.9 37.1 445.2 46.8 433.2 46.8C421.2 46.8 411.5 37.1 411.5 25.1ZM431.1 33.9C431.1 35 432 35.9 433.2 35.9C434.3 35.9 435.2 35 435.2 33.9V21.5L440.5 27.1C441.3 28 442.5 28 443.4 27.3C444.2 26.5 444.2 25.2 443.5 24.4L434.7 14.9C434.3 14.5 433.7 14.2 433.2 14.2C432.6 14.2 432.1 14.5 431.7 14.9L422.9 24.4C422.1 25.2 422.1 26.5 423 27.3C423.8 28 425.1 28 425.8 27.1L431.1 21.5V33.9ZM38.2999 -72.4C38.2999 -71.3 37.3999 -70.4 36.1999 -70.4H18.1999L24.0999 -65.1C24.8999 -64.3 24.8999 -63 24.0999 -62.2C23.3999 -61.4 22.0999 -61.3 21.2999 -62.1L11.7999 -70.9C11.3999 -71.3 11.0999 -71.9 11.0999 -72.4C11.0999 -73 11.3999 -73.5 11.7999 -73.9L21.2999 -82.7C22.0999 -83.5 23.3999 -83.4 24.0999 -82.6C24.8999 -81.8 24.8999 -80.5 24.0999 -79.8L18.1999 -74.4H36.1999C37.3999 -74.4 38.2999 -73.5 38.2999 -72.4ZM613.5 14.2C612.3 14.2 611.4 15.1 611.4 16.2V39.3C611.4 40.4 612.3 41.3 613.5 41.3H636.6C637.7 41.3 638.6 40.4 638.6 39.3V28.4C638.6 27.3 639.5 26.4 640.6 26.4C641.8 26.4 642.7 27.3 642.7 28.4V39.3C642.7 42.7 639.9 45.4 636.6 45.4H613.5C610.1 45.4 607.3 42.7 607.3 39.3V16.2C607.3 12.8 610.1 10.1 613.5 10.1H627C628.2 10.1 629.1 11 629.1 12.1C629.1 13.3 628.2 14.2 627 14.2H613.5ZM619 31L643.6 8.7H636.6C635.5 8.7 634.6 7.8 634.6 6.7C634.6 5.59999 635.5 4.7 636.6 4.7H648.9C650 4.7 650.9 5.59999 650.9 6.7V18.9C650.9 20 650 21 648.9 21C647.7 21 646.8 20 646.8 18.9V11.3L621.7 34C620.9 34.8 619.6 34.7 618.8 33.9C618.1 33 618.1 31.8 619 31ZM111.9 -72.4C111.9 -73.5 112.8 -74.4 113.9 -74.4H132L126.1 -79.8C125.3 -80.5 125.3 -81.8 126 -82.6C126.8 -83.4 128.1 -83.5 128.9 -82.7L138.4 -73.9C138.8 -73.5 139 -73 139 -72.4C139 -71.9 138.8 -71.3 138.4 -70.9L128.9 -62.1C128.1 -61.3 126.8 -61.4 126 -62.2C125.3 -63 125.3 -64.3 126.1 -65.1L132 -70.4H113.9C112.8 -70.4 111.9 -71.3 111.9 -72.4ZM326.1 -66.4C326.9 -65.6 326.9 -64.3 326.1 -63.5C325.3 -62.7 324 -62.7 323.2 -63.5L318.6 -68.1C318.733 -65.2333 318.966 -62.3667 319.3 -59.5C319.4 -58.7 320.1 -58 321 -57.9C324.2 -57.6333 327.466 -57.5 330.8 -57.5C334.066 -57.5 337.3 -57.6333 340.5 -57.9C341.4 -58 342.1 -58.7 342.2 -59.5C342.4 -60.9 342.533 -62.3333 342.6 -63.8C342.7 -64.9 343.7 -65.7 344.8 -65.6C345.9 -65.5 346.8 -64.6 346.7 -63.4C346.567 -61.9333 346.4 -60.5 346.2 -59.1C345.9 -56.3 343.7 -54.1 340.9 -53.9C337.566 -53.5667 334.2 -53.4 330.8 -53.4C327.333 -53.4 323.933 -53.5667 320.6 -53.9C317.8 -54.1 315.6 -56.3 315.3 -59.1C314.9 -62.1 314.667 -65.1333 314.6 -68.2L309.8 -63.5C309 -62.7 307.7 -62.7 307 -63.5C306.2 -64.3 306.2 -65.6 307 -66.4L315.1 -74.5C315.9 -75.3 317.2 -75.3 318 -74.5L326.1 -66.4ZM321 -86.9C320.1 -86.8 319.4 -86.2 319.3 -85.3C319.1 -83.9 318.967 -82.5 318.9 -81.1C318.8 -80 317.8 -79.1 316.7 -79.2C315.6 -79.3 314.7 -80.3 314.8 -81.4C314.933 -82.8667 315.067 -84.3333 315.2 -85.8C315.6 -88.6 317.8 -90.7 320.6 -91C323.933 -91.2667 327.3 -91.4 330.7 -91.4C334.167 -91.4 337.566 -91.2667 340.9 -91C343.7 -90.7 345.9 -88.6 346.2 -85.8C346.6 -82.7333 346.833 -79.6667 346.9 -76.6L351.7 -81.3C352.5 -82.1 353.8 -82.1 354.5 -81.3C355.3 -80.5 355.3 -79.3 354.5 -78.5L346.4 -70.3C345.6 -69.5 344.3 -69.5 343.5 -70.3L335.4 -78.5C334.6 -79.3 334.6 -80.5 335.4 -81.3C336.2 -82.1 337.5 -82.1 338.3 -81.3L342.9 -76.8C342.767 -79.6667 342.533 -82.5 342.2 -85.3C342.1 -86.2 341.4 -86.8 340.5 -86.9C337.3 -87.2333 334.033 -87.4 330.7 -87.4C327.433 -87.4 324.2 -87.2333 321 -86.9ZM524.5 -83C521.8 -83 519.6 -85.2 519.6 -87.9C519.6 -90.7 521.8 -92.9 524.5 -92.9C527.3 -92.9 529.5 -90.7 529.5 -87.9C529.5 -85.2 527.3 -83 524.5 -83ZM533.8 -86.1C532.8 -86.1 532 -86.9 532 -87.9C532 -89 532.8 -89.8 533.8 -89.8H547.4C548.5 -89.8 549.3 -89 549.3 -87.9C549.3 -86.9 548.5 -86.1 547.4 -86.1H533.8ZM517.1 -87.9C517.1 -86.9 516.3 -86.1 515.3 -86.1H511.6C510.5 -86.1 509.7 -86.9 509.7 -87.9C509.7 -88.9 510.5 -89.8 511.6 -89.8H515.3C516.3 -89.8 517.1 -88.9 517.1 -87.9ZM511.6 -55.1C510.5 -55.1 509.7 -55.9 509.7 -57C509.7 -58 510.5 -58.8 511.6 -58.8H515.3C516.3 -58.8 517.1 -58 517.1 -57C517.1 -55.9 516.3 -55.1 515.3 -55.1H511.6ZM533.9 -55.1C532.8 -55.1 532 -55.9 532 -57C532 -58 532.8 -58.8 533.9 -58.8H547.5C548.5 -58.8 549.3 -58 549.3 -57C549.3 -55.9 548.5 -55.1 547.5 -55.1H533.9ZM527.1 -72.4C527.1 -71.4 526.2 -70.6 525.2 -70.6H511.6C510.6 -70.6 509.7 -71.4 509.7 -72.4C509.7 -73.5 510.6 -74.3 511.6 -74.3H525.2C526.2 -74.3 527.1 -73.5 527.1 -72.4ZM543.8 -70.6C542.8 -70.6 541.9 -71.4 541.9 -72.4C541.9 -73.5 542.8 -74.3 543.8 -74.3H547.5C548.5 -74.3 549.4 -73.5 549.4 -72.4C549.4 -71.4 548.5 -70.6 547.5 -70.6H543.8ZM534.5 -67.5C531.8 -67.5 529.6 -69.7 529.6 -72.4C529.6 -75.2 531.8 -77.4 534.5 -77.4C537.3 -77.4 539.5 -75.2 539.5 -72.4C539.5 -69.7 537.3 -67.5 534.5 -67.5ZM524.6 -52C521.9 -52 519.7 -54.2 519.7 -57C519.7 -59.7 521.9 -61.9 524.6 -61.9C527.3 -61.9 529.6 -59.7 529.6 -57C529.6 -54.2 527.3 -52 524.6 -52ZM919.8 -189.4C920.9 -189.4 921.8 -188.5 921.8 -187.4V-153.5C921.8 -152.4 920.9 -151.5 919.8 -151.5H915.7C914.6 -151.5 913.7 -152.4 913.7 -153.5V-187.4C913.7 -188.5 914.6 -189.4 915.7 -189.4H919.8ZM938.8 -189.4C939.9 -189.4 940.9 -188.5 940.9 -187.4V-153.5C940.9 -152.4 939.9 -151.5 938.8 -151.5H934.8C933.6 -151.5 932.7 -152.4 932.7 -153.5V-187.4C932.7 -188.5 933.6 -189.4 934.8 -189.4H938.8ZM819 -159.7L822.4 -168.2C823 -169.6 823.8 -170.8 824.8 -171.9L843.6 -190.6C845.8 -192.9 849.5 -192.9 851.7 -190.6C854 -188.4 854 -184.7 851.7 -182.5L833 -163.7C831.9 -162.7 830.7 -161.9 829.3 -161.3L820.8 -157.9C819.7 -157.4 818.6 -158.5 819 -159.7ZM813.8 -156C813.8 -154.2 815.3 -152.6 817.1 -152.6H842.9C844.8 -152.6 846.3 -154.2 846.3 -156V-170.3C846.3 -171.4 847.2 -172.3 848.3 -172.3C849.5 -172.3 850.4 -171.4 850.4 -170.3V-156C850.4 -151.9 847 -148.6 842.9 -148.6H817.1C813 -148.6 809.7 -151.9 809.7 -156V-181.8C809.7 -185.9 813 -189.3 817.1 -189.3H831.4C832.5 -189.3 833.4 -188.4 833.4 -187.2C833.4 -186.1 832.5 -185.2 831.4 -185.2H817.1C815.3 -185.2 813.8 -183.7 813.8 -181.8V-156ZM713.5 -161.8L743.1 -191.4C745.4 -193.7 749 -193.7 751.3 -191.4C753.5 -189.2 753.5 -185.5 751.3 -183.3L721.6 -153.7C720.6 -152.6 719.4 -151.8 718 -151.3L709.4 -147.8C708.3 -147.4 707.2 -148.5 707.7 -149.6L711.1 -158.1C711.6 -159.5 712.5 -160.8 713.5 -161.8ZM607.5 -90C607.5 -92.3 609.3 -94.1 611.5 -94.1H614.7C616.6 -94.1 618.2 -92.8 618.6 -90.9L620.6 -82.2C621 -80.1 619.8 -78 617.7 -77.4L615.2 -76.7C614.1 -76.3 613.4 -75.2 613.9 -74.1C617 -66.4 623.2 -60.3 630.8 -57.1C631.9 -56.7 633.1 -57.3 633.4 -58.4L634.1 -61C634.7 -63 636.8 -64.3 638.9 -63.8L647.7 -61.9C649.5 -61.5 650.9 -59.8 650.9 -57.9V-54.8C650.9 -52.5 649 -50.7 646.8 -50.7H642.7C639.6 -50.7 636.6 -51.1 633.7 -51.9C621.5 -55.1 611.9 -64.7 608.6 -77C607.9 -79.8 607.5 -82.9 607.5 -86V-90Z" fill="#0F172A"/>
<path fill-rule="evenodd" clip-rule="evenodd" d="M909.6 112.8C909.6 109.5 912.3 106.8 915.6 106.8H942.6C945.9 106.8 948.6 109.5 948.6 112.8V136.8C948.6 140.1 945.9 142.8 942.6 142.8H915.6C912.3 142.8 909.6 140.1 909.6 136.8V112.8ZM917.6 116.9L921 120.3L917.6 123.8C917 124.4 917 125.3 917.6 125.9C918.2 126.5 919.1 126.5 919.7 125.9L924.2 121.4C924.8 120.8 924.8 119.9 924.2 119.3L919.7 114.8C919.1 114.2 918.2 114.2 917.6 114.8C917 115.4 917 116.3 917.6 116.9ZM926.1 123.3C925.3 123.3 924.6 124 924.6 124.8C924.6 125.7 925.3 126.3 926.1 126.3H932.1C933 126.3 933.6 125.7 933.6 124.8C933.6 124 933 123.3 932.1 123.3H926.1ZM5.19995 -183.9C5.19995 -187.2 7.89995 -189.9 11.2 -189.9H38.2C41.5 -189.9 44.2 -187.2 44.2 -183.9V-164.4C44.2 -161 41.5 -158.4 38.2 -158.4H32.2V-157.8C32.2 -156.6 32.7 -155.5 33.5 -154.7L34.7999 -153.4C35.1999 -153 35.2999 -152.3 35.0999 -151.8C34.8999 -151.2 34.3 -150.9 33.7 -150.9H15.7C15.1 -150.9 14.6 -151.2 14.3 -151.8C14.1 -152.3 14.2 -153 14.7 -153.4L15.9 -154.7C16.7 -155.5 17.2 -156.6 17.2 -157.8V-158.4H11.2C7.89995 -158.4 5.19995 -161 5.19995 -164.4V-183.9ZM8.19995 -183.9V-168.9C8.19995 -167.2 9.59995 -165.9 11.2 -165.9H38.2C39.9 -165.9 41.2 -167.2 41.2 -168.9V-183.9C41.2 -185.5 39.9 -186.9 38.2 -186.9H11.2C9.59995 -186.9 8.19995 -185.5 8.19995 -183.9ZM33.7 133.8H15.7V115.8H33.7V133.8Z" fill="#0F172A"/>
<path fill-rule="evenodd" clip-rule="evenodd" d="M146.4 135.3C146.4 138.6 143.7 141.3 140.4 141.3H110.4C107.1 141.3 104.4 138.6 104.4 135.3V120.3H146.4V135.3ZM111.9 129.3H123.9C124.7 129.3 125.4 128.7 125.4 127.8C125.4 127 124.7 126.3 123.9 126.3H111.9C111.1 126.3 110.4 127 110.4 127.8C110.4 128.7 111.1 129.3 111.9 129.3ZM111.9 132.3C111.1 132.3 110.4 133 110.4 133.8C110.4 134.7 111.1 135.3 111.9 135.3H117.9C118.7 135.3 119.4 134.7 119.4 133.8C119.4 133 118.7 132.3 117.9 132.3H111.9ZM12 4.1001H18.7C22.9 4.1001 26.2 7.4001 26.2 11.6001V15.3001C26.2 17.4001 27.9 19.1001 30 19.1001H33.7C37.9 19.1001 41.2 22.4001 41.2 26.6001V42.3001C41.2 44.4001 39.5 46.1001 37.5 46.1001H12C9.89995 46.1001 8.19995 44.4001 8.19995 42.3001V7.8001C8.19995 5.8001 9.89995 4.1001 12 4.1001ZM23.2 31.1001V37.1001C23.2 37.9001 23.9 38.6001 24.7 38.6001C25.5 38.6001 26.2 37.9001 26.2 37.1001V31.1001C26.2 30.3001 25.5 29.6001 24.7 29.6001C23.9 29.6001 23.2 30.3001 23.2 31.1001ZM20.2 35.6001C20.2 34.8001 19.5 34.1001 18.7 34.1001C17.9 34.1001 17.2 34.8001 17.2 35.6001V37.1001C17.2 37.9001 17.9 38.6001 18.7 38.6001C19.5 38.6001 20.2 37.9001 20.2 37.1001V35.6001ZM32.2 26.6001C32.2 25.8001 31.5 25.1001 30.7 25.1001C29.9 25.1001 29.2 25.8001 29.2 26.6001V37.1001C29.2 37.9001 29.9 38.6001 30.7 38.6001C31.5 38.6001 32.2 37.9001 32.2 37.1001V26.6001ZM29.2 11.6001C29.2 9.0001 28.2 6.6001 26.7 4.7001C33.5 6.5001 38.7999 11.8001 40.5999 18.6001C38.6999 17.0001 36.3 16.1001 33.7 16.1001H30C29.5 16.1001 29.2 15.7001 29.2 15.3001V11.6001ZM228.5 11.6001V15.4001C228.5 17.5001 230.2 19.1001 232.2 19.1001H236C240.1 19.1001 243.5 22.5001 243.5 26.6001V42.4001C243.5 44.5001 241.8 46.1001 239.7 46.1001H214.2C212.2 46.1001 210.5 44.5001 210.5 42.4001V7.9001C210.5 5.8001 212.2 4.1001 214.2 4.1001H221C225.1 4.1001 228.5 7.5001 228.5 11.6001ZM234.2 26.0001C234.7 25.3001 234.5 24.4001 233.9 23.9001C233.2 23.4001 232.3 23.6001 231.8 24.3001L225.3 33.3001L222.1 30.1001C221.5 29.5001 220.5 29.5001 219.9 30.1001C219.3 30.7001 219.3 31.6001 219.9 32.2001L224.4 36.7001C224.7 37.0001 225.2 37.2001 225.6 37.1001C226.1 37.1001 226.5 36.9001 226.7 36.5001L234.2 26.0001ZM242.9 18.7001C241 17.1001 238.6 16.1001 236 16.1001H232.2C231.8 16.1001 231.5 15.8001 231.5 15.4001V11.6001C231.5 9.0001 230.5 6.6001 228.9 4.8001C235.7 6.5001 241.1 11.9001 242.9 18.7001ZM120.9 30.4001C120.9 28.3001 122.6 26.6001 124.6 26.6001C126.7 26.6001 128.4 28.3001 128.4 30.4001C128.4 32.5001 126.7 34.1001 124.6 34.1001C122.6 34.1001 120.9 32.5001 120.9 30.4001Z" fill="#0F172A"/>
</g>
</g>
<defs>
<clipPath id="clip0_70_5439">
<rect width="50" height="50" fill="white"/>
</clipPath>
</defs>
</svg>
