<svg width="50" height="50" viewBox="0 0 50 50" fill="none" xmlns="http://www.w3.org/2000/svg">
<g clip-path="url(#clip0_70_5427)">
<mask id="mask0_70_5427" style="mask-type:luminance" maskUnits="userSpaceOnUse" x="-722" y="-762" width="1584" height="1224">
<path d="M-722 -762H862V462H-722V-762Z" fill="white"/>
</mask>
<g mask="url(#mask0_70_5427)">
<path fill-rule="evenodd" clip-rule="evenodd" d="M-168 -59.4C-168.8 -58.6 -170.1 -58.6 -170.9 -59.4L-190.5 -79V-63.5C-190.5 -62.4 -191.4 -61.5 -192.5 -61.5C-193.7 -61.5 -194.6 -62.4 -194.6 -63.5V-83.9C-194.6 -85 -193.7 -85.9 -192.5 -85.9H-172.2C-171.1 -85.9 -170.2 -85 -170.2 -83.9C-170.2 -82.8 -171.1 -81.9 -172.2 -81.9H-187.6L-168 -62.3C-167.2 -61.5 -167.2 -60.2 -168 -59.4ZM3.49985 25.1C3.49985 13.1 13.1999 3.39999 25.1999 3.39999C37.1999 3.39999 46.8998 13.1 46.8998 25.1C46.8998 37.1 37.1999 46.8 25.1999 46.8C13.1999 46.8 3.49985 37.1 3.49985 25.1ZM23.0999 33.9C23.0999 35 23.9998 35.9 25.1999 35.9C26.2999 35.9 27.1999 35 27.1999 33.9V21.5L32.4998 27.1C33.2998 28 34.4998 28 35.3998 27.3C36.1998 26.5 36.1999 25.2 35.4998 24.4L26.6999 14.9C26.2999 14.5 25.6999 14.2 25.1999 14.2C24.5999 14.2 24.0999 14.5 23.6999 14.9L14.8998 24.4C14.0999 25.2 14.0999 26.5 14.9998 27.3C15.7998 28 17.0998 28 17.7998 27.1L23.0999 21.5V33.9ZM-369.7 -72.4C-369.7 -71.3 -370.6 -70.4 -371.8 -70.4H-389.8L-383.9 -65.1C-383.1 -64.3 -383.1 -63 -383.9 -62.2C-384.6 -61.4 -385.9 -61.3 -386.7 -62.1L-396.2 -70.9C-396.6 -71.3 -396.9 -71.9 -396.9 -72.4C-396.9 -73 -396.6 -73.5 -396.2 -73.9L-386.7 -82.7C-385.9 -83.5 -384.6 -83.4 -383.9 -82.6C-383.1 -81.8 -383.1 -80.5 -383.9 -79.8L-389.8 -74.4H-371.8C-370.6 -74.4 -369.7 -73.5 -369.7 -72.4ZM205.5 14.2C204.3 14.2 203.4 15.1 203.4 16.2V39.3C203.4 40.4 204.3 41.3 205.5 41.3H228.6C229.7 41.3 230.6 40.4 230.6 39.3V28.4C230.6 27.3 231.5 26.4 232.6 26.4C233.8 26.4 234.7 27.3 234.7 28.4V39.3C234.7 42.7 231.9 45.4 228.6 45.4H205.5C202.1 45.4 199.3 42.7 199.3 39.3V16.2C199.3 12.8 202.1 10.1 205.5 10.1H219C220.2 10.1 221.1 11 221.1 12.1C221.1 13.3 220.2 14.2 219 14.2H205.5ZM211 31L235.6 8.7H228.6C227.5 8.7 226.6 7.8 226.6 6.7C226.6 5.59999 227.5 4.7 228.6 4.7H240.9C242 4.7 242.9 5.59999 242.9 6.7V18.9C242.9 20 242 21 240.9 21C239.7 21 238.8 20 238.8 18.9V11.3L213.7 34C212.9 34.8 211.6 34.7 210.8 33.9C210.1 33 210.1 31.8 211 31ZM-296.1 -72.4C-296.1 -73.5 -295.2 -74.4 -294.1 -74.4H-276L-281.9 -79.8C-282.7 -80.5 -282.7 -81.8 -282 -82.6C-281.2 -83.4 -279.9 -83.5 -279.1 -82.7L-269.6 -73.9C-269.2 -73.5 -269 -73 -269 -72.4C-269 -71.9 -269.2 -71.3 -269.6 -70.9L-279.1 -62.1C-279.9 -61.3 -281.2 -61.4 -282 -62.2C-282.7 -63 -282.7 -64.3 -281.9 -65.1L-276 -70.4H-294.1C-295.2 -70.4 -296.1 -71.3 -296.1 -72.4ZM-81.9001 -66.4C-81.1002 -65.6 -81.1002 -64.3 -81.9001 -63.5C-82.7001 -62.7 -84.0002 -62.7 -84.8002 -63.5L-89.4001 -68.1C-89.2668 -65.2333 -89.0335 -62.3667 -88.7001 -59.5C-88.6001 -58.7 -87.9001 -58 -87.0002 -57.9C-83.8001 -57.6333 -80.5335 -57.5 -77.2001 -57.5C-73.9335 -57.5 -70.7002 -57.6333 -67.5002 -57.9C-66.6002 -58 -65.9002 -58.7 -65.8002 -59.5C-65.6002 -60.9 -65.4668 -62.3333 -65.4001 -63.8C-65.3001 -64.9 -64.3002 -65.7 -63.2002 -65.6C-62.1002 -65.5 -61.2001 -64.6 -61.3001 -63.4C-61.4335 -61.9333 -61.6001 -60.5 -61.8001 -59.1C-62.1001 -56.3 -64.3002 -54.1 -67.1002 -53.9C-70.4335 -53.5667 -73.8001 -53.4 -77.2001 -53.4C-80.6668 -53.4 -84.0668 -53.5667 -87.4001 -53.9C-90.2001 -54.1 -92.4001 -56.3 -92.7001 -59.1C-93.1001 -62.1 -93.3335 -65.1333 -93.4001 -68.2L-98.2001 -63.5C-99.0001 -62.7 -100.3 -62.7 -101 -63.5C-101.8 -64.3 -101.8 -65.6 -101 -66.4L-92.9001 -74.5C-92.1002 -75.3 -90.8001 -75.3 -90.0002 -74.5L-81.9001 -66.4ZM-87.0002 -86.9C-87.9001 -86.8 -88.6001 -86.2 -88.7001 -85.3C-88.9001 -83.9 -89.0335 -82.5 -89.1002 -81.1C-89.2002 -80 -90.2002 -79.1 -91.3002 -79.2C-92.4002 -79.3 -93.3001 -80.3 -93.2001 -81.4C-93.0668 -82.8667 -92.9335 -84.3333 -92.8002 -85.8C-92.4002 -88.6 -90.2001 -90.7 -87.4001 -91C-84.0668 -91.2667 -80.7002 -91.4 -77.3002 -91.4C-73.8335 -91.4 -70.4335 -91.2667 -67.1002 -91C-64.3002 -90.7 -62.1001 -88.6 -61.8001 -85.8C-61.4001 -82.7333 -61.1668 -79.6667 -61.1002 -76.6L-56.3001 -81.3C-55.5002 -82.1 -54.2002 -82.1 -53.5002 -81.3C-52.7002 -80.5 -52.7002 -79.3 -53.5002 -78.5L-61.6002 -70.3C-62.4001 -69.5 -63.7002 -69.5 -64.5002 -70.3L-72.6002 -78.5C-73.4001 -79.3 -73.4001 -80.5 -72.6002 -81.3C-71.8002 -82.1 -70.5001 -82.1 -69.7001 -81.3L-65.1002 -76.8C-65.2335 -79.6667 -65.4668 -82.5 -65.8002 -85.3C-65.9002 -86.2 -66.6002 -86.8 -67.5002 -86.9C-70.7002 -87.2333 -73.9668 -87.4 -77.3002 -87.4C-80.5668 -87.4 -83.8001 -87.2333 -87.0002 -86.9ZM116.5 -83C113.8 -83 111.6 -85.2 111.6 -87.9C111.6 -90.7 113.8 -92.9 116.5 -92.9C119.3 -92.9 121.5 -90.7 121.5 -87.9C121.5 -85.2 119.3 -83 116.5 -83ZM125.8 -86.1C124.8 -86.1 124 -86.9 124 -87.9C124 -89 124.8 -89.8 125.8 -89.8H139.4C140.5 -89.8 141.3 -89 141.3 -87.9C141.3 -86.9 140.5 -86.1 139.4 -86.1H125.8ZM109.1 -87.9C109.1 -86.9 108.3 -86.1 107.3 -86.1H103.6C102.5 -86.1 101.7 -86.9 101.7 -87.9C101.7 -88.9 102.5 -89.8 103.6 -89.8H107.3C108.3 -89.8 109.1 -88.9 109.1 -87.9ZM103.6 -55.1C102.5 -55.1 101.7 -55.9 101.7 -57C101.7 -58 102.5 -58.8 103.6 -58.8H107.3C108.3 -58.8 109.1 -58 109.1 -57C109.1 -55.9 108.3 -55.1 107.3 -55.1H103.6ZM125.9 -55.1C124.8 -55.1 124 -55.9 124 -57C124 -58 124.8 -58.8 125.9 -58.8H139.5C140.5 -58.8 141.3 -58 141.3 -57C141.3 -55.9 140.5 -55.1 139.5 -55.1H125.9ZM119.1 -72.4C119.1 -71.4 118.2 -70.6 117.2 -70.6H103.6C102.6 -70.6 101.7 -71.4 101.7 -72.4C101.7 -73.5 102.6 -74.3 103.6 -74.3H117.2C118.2 -74.3 119.1 -73.5 119.1 -72.4ZM135.8 -70.6C134.8 -70.6 133.9 -71.4 133.9 -72.4C133.9 -73.5 134.8 -74.3 135.8 -74.3H139.5C140.5 -74.3 141.4 -73.5 141.4 -72.4C141.4 -71.4 140.5 -70.6 139.5 -70.6H135.8ZM126.5 -67.5C123.8 -67.5 121.6 -69.7 121.6 -72.4C121.6 -75.2 123.8 -77.4 126.5 -77.4C129.3 -77.4 131.5 -75.2 131.5 -72.4C131.5 -69.7 129.3 -67.5 126.5 -67.5ZM116.6 -52C113.9 -52 111.7 -54.2 111.7 -57C111.7 -59.7 113.9 -61.9 116.6 -61.9C119.3 -61.9 121.6 -59.7 121.6 -57C121.6 -54.2 119.3 -52 116.6 -52ZM511.8 -189.4C512.9 -189.4 513.8 -188.5 513.8 -187.4V-153.5C513.8 -152.4 512.9 -151.5 511.8 -151.5H507.7C506.6 -151.5 505.7 -152.4 505.7 -153.5V-187.4C505.7 -188.5 506.6 -189.4 507.7 -189.4H511.8ZM530.8 -189.4C531.9 -189.4 532.9 -188.5 532.9 -187.4V-153.5C532.9 -152.4 531.9 -151.5 530.8 -151.5H526.8C525.6 -151.5 524.7 -152.4 524.7 -153.5V-187.4C524.7 -188.5 525.6 -189.4 526.8 -189.4H530.8ZM411 -159.7L414.4 -168.2C415 -169.6 415.8 -170.8 416.8 -171.9L435.6 -190.6C437.8 -192.9 441.5 -192.9 443.7 -190.6C446 -188.4 446 -184.7 443.7 -182.5L425 -163.7C423.9 -162.7 422.7 -161.9 421.3 -161.3L412.8 -157.9C411.7 -157.4 410.6 -158.5 411 -159.7ZM405.8 -156C405.8 -154.2 407.3 -152.6 409.1 -152.6H434.9C436.8 -152.6 438.3 -154.2 438.3 -156V-170.3C438.3 -171.4 439.2 -172.3 440.3 -172.3C441.5 -172.3 442.4 -171.4 442.4 -170.3V-156C442.4 -151.9 439 -148.6 434.9 -148.6H409.1C405 -148.6 401.7 -151.9 401.7 -156V-181.8C401.7 -185.9 405 -189.3 409.1 -189.3H423.4C424.5 -189.3 425.4 -188.4 425.4 -187.2C425.4 -186.1 424.5 -185.2 423.4 -185.2H409.1C407.3 -185.2 405.8 -183.7 405.8 -181.8V-156ZM305.5 -161.8L335.1 -191.4C337.4 -193.7 341 -193.7 343.3 -191.4C345.5 -189.2 345.5 -185.5 343.3 -183.3L313.6 -153.7C312.6 -152.6 311.4 -151.8 310 -151.3L301.4 -147.8C300.3 -147.4 299.2 -148.5 299.7 -149.6L303.1 -158.1C303.6 -159.5 304.5 -160.8 305.5 -161.8ZM199.5 -90C199.5 -92.3 201.3 -94.1 203.5 -94.1H206.7C208.6 -94.1 210.2 -92.8 210.6 -90.9L212.6 -82.2C213 -80.1 211.8 -78 209.7 -77.4L207.2 -76.7C206.1 -76.3 205.4 -75.2 205.9 -74.1C209 -66.4 215.2 -60.3 222.8 -57.1C223.9 -56.7 225.1 -57.3 225.4 -58.4L226.1 -61C226.7 -63 228.8 -64.3 230.9 -63.8L239.7 -61.9C241.5 -61.5 242.9 -59.8 242.9 -57.9V-54.8C242.9 -52.5 241 -50.7 238.8 -50.7H234.7C231.6 -50.7 228.6 -51.1 225.7 -51.9C213.5 -55.1 203.9 -64.7 200.6 -77C199.9 -79.8 199.5 -82.9 199.5 -86V-90Z" fill="#0F172A"/>
<path fill-rule="evenodd" clip-rule="evenodd" d="M-205.4 -183.2C-205.4 -186.6 -202.7 -189.3 -199.3 -189.3H-162.7C-159.3 -189.3 -156.6 -186.6 -156.6 -183.2V-157.5C-156.6 -154.1 -159.3 -151.4 -162.7 -151.4H-199.3C-202.7 -151.4 -205.4 -154.1 -205.4 -157.5V-183.2ZM-201.4 -167.4V-157.4C-201.4 -156.3 -200.4 -155.4 -199.3 -155.4H-162.7C-161.6 -155.4 -160.7 -156.3 -160.7 -157.4V-164.7L-166.7 -170.7C-167.5 -171.5 -168.8 -171.5 -169.6 -170.7L-174.7 -165.5L-173.5 -164.3C-172.7 -163.5 -172.7 -162.2 -173.5 -161.4C-174.3 -160.6 -175.5 -160.6 -176.3 -161.4L-190.4 -175.5C-191.2 -176.3 -192.5 -176.3 -193.3 -175.5L-201.4 -167.4ZM-178.3 -181.1C-179.8 -181.1 -181.1 -179.9 -181.1 -178.4C-181.1 -176.9 -179.8 -175.7 -178.3 -175.7C-176.8 -175.7 -175.6 -176.9 -175.6 -178.4C-175.6 -179.9 -176.8 -181.1 -178.3 -181.1ZM3.39984 -170.2C3.39984 -182.2 13.0999 -191.9 25.0999 -191.9C37.0999 -191.9 46.7999 -182.2 46.7999 -170.2C46.7999 -158.3 37.0999 -148.5 25.0999 -148.5C13.0999 -148.5 3.39984 -158.3 3.39984 -170.2ZM19.6998 -176.3V-164.1C19.6998 -163.4 20.0999 -162.7 20.7999 -162.4C21.3999 -162 22.1998 -162 22.7999 -162.4L32.2999 -168.5C32.8999 -168.9 33.2999 -169.6 33.2999 -170.2C33.2999 -170.9 32.8999 -171.6 32.2999 -172L22.7999 -178.1C22.1998 -178.5 21.3999 -178.5 20.7999 -178.1C20.0999 -177.8 19.6998 -177.1 19.6998 -176.3ZM-68.6002 -186.5C-67.4002 -186.5 -66.5002 -185.6 -66.5002 -184.5V-156C-66.5002 -154.9 -67.4002 -154 -68.6002 -154H-69.9001C-71.0002 -154 -71.9001 -154.9 -71.9001 -156V-184.5C-71.9001 -185.6 -71.0002 -186.5 -69.9001 -186.5H-68.6002ZM-55.0002 -186.5C-53.9001 -186.5 -53.0002 -185.6 -53.0002 -184.5V-156C-53.0002 -154.9 -53.9001 -154 -55.0002 -154H-56.4001C-57.5002 -154 -58.4001 -154.9 -58.4001 -156V-184.5C-58.4001 -185.6 -57.5002 -186.5 -56.4001 -186.5H-55.0002ZM-78.4002 -173.7C-75.9001 -172.1 -75.9001 -168.4 -78.4002 -166.8L-95.6002 -156.2C-98.3001 -154.5 -101.8 -156.5 -101.8 -159.6V-180.8C-101.8 -184 -98.3001 -186 -95.6002 -184.3L-78.4002 -173.7ZM136.3 -173.7C138.8 -172.1 138.8 -168.4 136.3 -166.8L110.9 -150.8C108.2 -149.1 104.7 -151.1 104.7 -154.3V-186.2C104.7 -189.4 108.2 -191.4 110.9 -189.7L136.3 -173.7ZM99.7999 25.2001C99.7999 13.2001 109.5 3.50009 121.5 3.50009C133.5 3.50009 143.2 13.2001 143.2 25.2001C143.2 37.2001 133.5 46.9001 121.5 46.9001C109.5 46.9001 99.7999 37.2001 99.7999 25.2001ZM123.5 16.4001C123.5 15.3001 122.6 14.4001 121.5 14.4001C120.4 14.4001 119.4 15.3001 119.4 16.4001V23.2001H112.7C111.5 23.2001 110.6 24.1001 110.6 25.2001C110.6 26.4001 111.5 27.3001 112.7 27.3001H119.4V34.0001C119.4 35.2001 120.4 36.1001 121.5 36.1001C122.6 36.1001 123.5 35.2001 123.5 34.0001V27.3001H130.3C131.4 27.3001 132.3 26.4001 132.3 25.2001C132.3 24.1001 131.4 23.2001 130.3 23.2001H123.5V16.4001Z" fill="#0F172A"/>
<path fill-rule="evenodd" clip-rule="evenodd" d="M501.6 112.8C501.6 109.5 504.3 106.8 507.6 106.8H534.6C537.9 106.8 540.6 109.5 540.6 112.8V136.8C540.6 140.1 537.9 142.8 534.6 142.8H507.6C504.3 142.8 501.6 140.1 501.6 136.8V112.8ZM509.6 116.9L513 120.3L509.6 123.8C509 124.4 509 125.3 509.6 125.9C510.2 126.5 511.1 126.5 511.7 125.9L516.2 121.4C516.8 120.8 516.8 119.9 516.2 119.3L511.7 114.8C511.1 114.2 510.2 114.2 509.6 114.8C509 115.4 509 116.3 509.6 116.9ZM518.1 123.3C517.3 123.3 516.6 124 516.6 124.8C516.6 125.7 517.3 126.3 518.1 126.3H524.1C525 126.3 525.6 125.7 525.6 124.8C525.6 124 525 123.3 524.1 123.3H518.1ZM-402.8 -183.9C-402.8 -187.2 -400.1 -189.9 -396.8 -189.9H-369.8C-366.5 -189.9 -363.8 -187.2 -363.8 -183.9V-164.4C-363.8 -161 -366.5 -158.4 -369.8 -158.4H-375.8V-157.8C-375.8 -156.6 -375.3 -155.5 -374.5 -154.7L-373.2 -153.4C-372.8 -153 -372.7 -152.3 -372.9 -151.8C-373.1 -151.2 -373.7 -150.9 -374.3 -150.9H-392.3C-392.9 -150.9 -393.4 -151.2 -393.7 -151.8C-393.9 -152.3 -393.8 -153 -393.3 -153.4L-392.1 -154.7C-391.3 -155.5 -390.8 -156.6 -390.8 -157.8V-158.4H-396.8C-400.1 -158.4 -402.8 -161 -402.8 -164.4V-183.9ZM-399.8 -183.9V-168.9C-399.8 -167.2 -398.4 -165.9 -396.8 -165.9H-369.8C-368.1 -165.9 -366.8 -167.2 -366.8 -168.9V-183.9C-366.8 -185.5 -368.1 -186.9 -369.8 -186.9H-396.8C-398.4 -186.9 -399.8 -185.5 -399.8 -183.9ZM-374.3 133.8H-392.3V115.8H-374.3V133.8Z" fill="#0F172A"/>
<path fill-rule="evenodd" clip-rule="evenodd" d="M-295.4 4.1001H-288.6C-284.5 4.1001 -281.1 7.4001 -281.1 11.6001V15.3001C-281.1 17.4001 -279.4 19.1001 -277.4 19.1001H-273.6C-269.5 19.1001 -266.1 22.4001 -266.1 26.6001V42.3001C-266.1 44.4001 -267.8 46.1001 -269.9 46.1001H-295.4C-297.4 46.1001 -299.1 44.4001 -299.1 42.3001V7.8001C-299.1 5.8001 -297.4 4.1001 -295.4 4.1001ZM-283.4 37.1001C-282 37.1001 -280.8 36.7001 -279.8 36.0001L-277.7 38.1001C-277.1 38.7001 -276.1 38.7001 -275.6 38.1001C-275 37.6001 -275 36.6001 -275.6 36.0001L-277.7 33.9001C-277 32.9001 -276.6 31.7001 -276.6 30.3001C-276.6 26.6001 -279.6 23.6001 -283.4 23.6001C-287.1 23.6001 -290.1 26.6001 -290.1 30.3001C-290.1 34.1001 -287.1 37.1001 -283.4 37.1001ZM-278.1 11.6001C-278.1 9.0001 -279.1 6.6001 -280.7 4.7001C-273.9 6.5001 -268.5 11.8001 -266.7 18.6001C-268.6 17.0001 -271 16.1001 -273.6 16.1001H-277.4C-277.8 16.1001 -278.1 15.7001 -278.1 15.3001V11.6001ZM-92.3001 45.8001C-95.6001 45.8001 -98.3001 43.1001 -98.3001 39.8001V23.5001L-84.6001 31.5001L-91.5001 35.3001C-92.3001 35.7001 -92.5001 36.6001 -92.1001 37.3001C-91.8001 38.0001 -90.8001 38.3001 -90.1001 37.9001L-78.7001 31.8001C-77.9001 31.3001 -76.8001 31.3001 -75.9001 31.8001L-64.5001 37.9001C-63.8001 38.3001 -62.9001 38.0001 -62.5001 37.3001C-62.1001 36.6001 -62.4001 35.7001 -63.1001 35.3001L-70.1001 31.5001L-56.3001 23.5001V39.8001C-56.3001 43.1001 -59.0001 45.8001 -62.3001 45.8001H-92.3001ZM-98.3001 20.0001V18.5001C-98.3001 16.3001 -97.1001 14.3001 -95.2001 13.2001L-80.2001 5.2001C-78.4001 4.2001 -76.3001 4.2001 -74.5001 5.2001L-59.5001 13.2001C-57.5001 14.3001 -56.3001 16.3001 -56.3001 18.5001V20.0001L-73.2001 29.9001L-74.5001 29.2001C-76.3001 28.2001 -78.4001 28.2001 -80.2001 29.2001L-81.5001 29.9001L-98.3001 20.0001ZM22.1999 136.8C22.1999 135.2 23.5999 133.8 25.1999 133.8C26.8999 133.8 28.1999 135.2 28.1999 136.8C28.1999 138.5 26.8999 139.8 25.1999 139.8C23.5999 139.8 22.1999 138.5 22.1999 136.8ZM22.1999 124.8C22.1999 123.2 23.5999 121.8 25.1999 121.8C26.8999 121.8 28.1999 123.2 28.1999 124.8C28.1999 126.5 26.8999 127.8 25.1999 127.8C23.5999 127.8 22.1999 126.5 22.1999 124.8ZM22.1999 112.8C22.1999 111.2 23.5999 109.8 25.1999 109.8C26.8999 109.8 28.1999 111.2 28.1999 112.8C28.1999 114.5 26.8999 115.8 25.1999 115.8C23.5999 115.8 22.1999 114.5 22.1999 112.8ZM-80.4001 129.2C-78.5001 130.3 -76.1001 130.3 -74.1001 129.2L-56.3001 118.2V135.3C-56.3001 138.6 -59.0001 141.3 -62.3001 141.3H-92.3001C-95.6001 141.3 -98.3001 138.6 -98.3001 135.3V118.2L-80.4001 129.2ZM-75.7001 126.6C-76.6001 127.2 -77.8001 127.2 -78.8001 126.6L-98.2001 114.7V114.3C-98.2001 111 -95.5001 108.3 -92.2001 108.3H-62.2001C-58.9001 108.3 -56.2001 111 -56.2001 114.3V114.7L-75.7001 126.6ZM-189.6 135.3C-189.6 134.5 -188.9 133.8 -188.1 133.8H-164.1C-163.3 133.8 -162.6 134.5 -162.6 135.3C-162.6 136.1 -163.3 136.8 -164.1 136.8H-188.1C-188.9 136.8 -189.6 136.1 -189.6 135.3ZM-199.4 135.3C-199.4 134 -198.4 133 -197.1 133C-195.9 133 -194.9 134 -194.9 135.3C-194.9 136.5 -195.9 137.5 -197.1 137.5C-198.4 137.5 -199.4 136.5 -199.4 135.3ZM-189.6 124.8C-189.6 124 -188.9 123.3 -188.1 123.3H-164.1C-163.3 123.3 -162.6 124 -162.6 124.8C-162.6 125.6 -163.3 126.3 -164.1 126.3H-188.1C-188.9 126.3 -189.6 125.6 -189.6 124.8ZM-199.4 124.8C-199.4 123.5 -198.4 122.5 -197.1 122.5C-195.9 122.5 -194.9 123.5 -194.9 124.8C-194.9 126 -195.9 127 -197.1 127C-198.4 127 -199.4 126 -199.4 124.8ZM-189.6 114.3C-189.6 113.5 -188.9 112.8 -188.1 112.8H-164.1C-163.3 112.8 -162.6 113.5 -162.6 114.3C-162.6 115.1 -163.3 115.8 -164.1 115.8H-188.1C-188.9 115.8 -189.6 115.1 -189.6 114.3ZM-199.4 114.3C-199.4 113 -198.4 112 -197.1 112C-195.9 112 -194.9 113 -194.9 114.3C-194.9 115.5 -195.9 116.5 -197.1 116.5C-198.4 116.5 -199.4 115.5 -199.4 114.3ZM314.7 122.5C314.7 119.6 317 117.3 319.9 117.3C322.8 117.3 325.2 119.6 325.2 122.5C325.2 124 324.6 125.3 323.7 126.3C322.7 127.2 321.4 127.8 319.9 127.8C317 127.8 314.7 125.4 314.7 122.5Z" fill="#0F172A"/>
<path fill-rule="evenodd" clip-rule="evenodd" d="M341.7 124.8C341.7 135.6 332.9 144.3 322.2 144.3C311.4 144.3 302.7 135.6 302.7 124.8C302.7 114.1 311.4 105.3 322.2 105.3C332.9 105.3 341.7 114.1 341.7 124.8ZM319.9 114.3C315.4 114.3 311.7 118 311.7 122.6C311.7 127.1 315.4 130.8 319.9 130.8C321.7 130.8 323.3 130.3 324.6 129.4L328.6 133.4C329.2 134 330.1 134 330.7 133.4C331.3 132.8 331.3 131.9 330.7 131.3L326.7 127.3C327.6 125.9 328.2 124.3 328.2 122.6C328.2 118 324.5 114.3 319.9 114.3ZM240.6 105.3C241.4 105.3 242.1 106 242.1 106.8C242.1 107.7 241.4 108.3 240.6 108.3H239.1V129.3C239.1 132.6 236.4 135.3 233.1 135.3H230.7L233 142.4C233.3 143.1 232.8 144 232.1 144.3C231.3 144.5 230.4 144.1 230.2 143.3L229.5 141.3H212.7L212 143.3C211.7 144.1 210.9 144.5 210.1 144.3C209.3 144 208.9 143.1 209.2 142.4L211.5 135.3H209.1C205.8 135.3 203.1 132.6 203.1 129.3V108.3H201.6C200.7 108.3 200.1 107.7 200.1 106.8C200.1 106 200.7 105.3 201.6 105.3H240.6ZM222.6 118.8C222.6 118 221.9 117.3 221.1 117.3C220.2 117.3 219.6 118 219.6 118.8V126.3C219.6 127.2 220.2 127.8 221.1 127.8C221.9 127.8 222.6 127.2 222.6 126.3V118.8ZM228.6 114.3C228.6 113.5 227.9 112.8 227.1 112.8C226.2 112.8 225.6 113.5 225.6 114.3V126.3C225.6 127.2 226.2 127.8 227.1 127.8C227.9 127.8 228.6 127.2 228.6 126.3V114.3ZM228.5 138.3L227.5 135.3H214.7L213.7 138.3H228.5ZM216.5 123.3C216.5 122.5 215.9 121.8 215 121.8C214.2 121.8 213.5 122.5 213.5 123.3V126.3C213.5 127.2 214.2 127.8 215 127.8C215.9 127.8 216.5 127.2 216.5 126.3V123.3ZM431.7 4.0999C433.7 4.0999 435.4 5.7999 435.4 7.7999V13.7999C436.266 13.9332 437.133 14.0666 438 14.1999C440.9 14.5999 442.9 17.0999 442.9 19.9999V32.5999C442.9 35.8999 440.2 38.5999 436.9 38.5999H436.4L436.7 41.9999C436.9 44.1999 435.2 46.0999 433 46.0999H413.9C411.7 46.0999 410 44.1999 410.2 41.9999L410.5 38.5999H409.9C406.6 38.5999 403.9 35.8999 403.9 32.5999V19.9999C403.9 17.0999 406 14.5999 408.9 14.1999C409.7 14.0666 410.533 13.9332 411.4 13.7999V7.7999C411.4 5.7999 413.1 4.0999 415.2 4.0999H431.7ZM435.4 23.5999C436.3 23.5999 436.9 22.8999 436.9 22.0999C436.9 21.2999 436.3 20.5999 435.4 20.5999C434.6 20.5999 433.9 21.2999 433.9 22.0999C433.9 22.8999 434.6 23.5999 435.4 23.5999ZM423.4 29.5999C420.533 29.5999 417.7 29.7332 414.9 29.9999C414.5 30.0999 414.2 30.2999 414.2 30.6999L413.1 42.2999C413.1 42.6999 413.4 43.0999 413.9 43.0999H433C433.4 43.0999 433.7 42.6999 433.7 42.2999L432.7 30.6999C432.6 30.2999 432.3 30.0999 432 29.9999C429.2 29.7332 426.333 29.5999 423.4 29.5999ZM432.4 13.4999V7.7999C432.4 7.3999 432.1 7.0999 431.7 7.0999H415.2C414.8 7.0999 414.4 7.3999 414.4 7.7999V13.4999C417.4 13.2332 420.4 13.0999 423.4 13.0999C426.466 13.0999 429.466 13.2332 432.4 13.4999ZM429.4 20.5999C428.6 20.5999 427.9 21.2999 427.9 22.0999C427.9 22.8999 428.6 23.5999 429.4 23.5999C430.3 23.5999 430.9 22.8999 430.9 22.0999C430.9 21.2999 430.3 20.5999 429.4 20.5999ZM101.9 127.8C101.9 118.7 109.3 111.3 118.4 111.3C119.2 111.3 119.9 112 119.9 112.8V126.3H133.4C134.2 126.3 134.9 127 134.9 127.8C134.9 136.9 127.5 144.3 118.4 144.3C109.3 144.3 101.9 136.9 101.9 127.8ZM122.9 106.8C122.9 106 123.6 105.3 124.4 105.3C133.5 105.3 140.9 112.7 140.9 121.8C140.9 122.7 140.2 123.3 139.4 123.3H124.4C123.6 123.3 122.9 122.7 122.9 121.8V106.8ZM-263.6 -153.4C-263 -152.8 -263 -151.9 -263.6 -151.3C-264.2 -150.7 -265.1 -150.7 -265.7 -151.3L-301.7 -187.3C-302.3 -187.9 -302.3 -188.8 -301.7 -189.4C-301.1 -190 -300.2 -190 -299.6 -189.4L-263.6 -153.4ZM-261.7 -159C-261.7 -158 -262.1 -157.3 -262.7 -156.7L-272.2 -166.2V-178.5L-266.8 -183.9C-264.9 -185.7 -261.7 -184.4 -261.7 -181.7V-159ZM-275.2 -179.4V-169.3L-291.3 -185.4H-281.2C-277.8 -185.4 -275.2 -182.7 -275.2 -179.4ZM-303.7 -179.4C-303.7 -181 -303.1 -182.4 -302.1 -183.5L-276.4 -157.8C-277.5 -156.3 -279.2 -155.4 -281.2 -155.4H-297.7C-301 -155.4 -303.7 -158.1 -303.7 -161.4V-179.4Z" fill="#0F172A"/>
</g>
</g>
<defs>
<clipPath id="clip0_70_5427">
<rect width="50" height="50" fill="white"/>
</clipPath>
</defs>
</svg>
