<svg width="56" height="50" viewBox="0 0 56 50" fill="none" xmlns="http://www.w3.org/2000/svg">
<g clip-path="url(#clip0_70_5419)">
<mask id="mask0_70_5419" style="mask-type:luminance" maskUnits="userSpaceOnUse" x="-1519" y="-955" width="1972" height="1524">
<path d="M-1518.22 -954.378H452.978V568.822H-1518.22V-954.378Z" fill="white"/>
</mask>
<g mask="url(#mask0_70_5419)">
<path fill-rule="evenodd" clip-rule="evenodd" d="M-828.8 -80.0315C-829.796 -79.0359 -831.413 -79.0359 -832.409 -80.0315L-856.8 -104.423V-85.1337C-856.8 -83.7648 -857.92 -82.6448 -859.289 -82.6448C-860.782 -82.6448 -861.902 -83.7648 -861.902 -85.1337V-110.52C-861.902 -111.889 -860.782 -113.009 -859.289 -113.009H-834.027C-832.658 -113.009 -831.538 -111.889 -831.538 -110.52C-831.538 -109.152 -832.658 -108.031 -834.027 -108.031H-853.191L-828.8 -83.6404C-827.804 -82.6448 -827.804 -81.0271 -828.8 -80.0315ZM-615.378 25.1241C-615.378 10.1907 -603.307 -1.88037 -588.373 -1.88037C-573.44 -1.88037 -561.369 10.1907 -561.369 25.1241C-561.369 40.0574 -573.44 52.1285 -588.373 52.1285C-603.307 52.1285 -615.378 40.0574 -615.378 25.1241ZM-590.987 36.0752C-590.987 37.4441 -589.867 38.5641 -588.373 38.5641C-587.004 38.5641 -585.884 37.4441 -585.884 36.0752V20.6441L-579.289 27.6129C-578.293 28.7329 -576.8 28.7329 -575.68 27.8618C-574.684 26.8663 -574.684 25.2485 -575.555 24.253L-586.507 12.4307C-587.004 11.933 -587.751 11.5596 -588.373 11.5596C-589.12 11.5596 -589.742 11.933 -590.24 12.4307L-601.191 24.253C-602.187 25.2485 -602.187 26.8663 -601.067 27.8618C-600.071 28.7329 -598.453 28.7329 -597.582 27.6129L-590.987 20.6441V36.0752ZM-1079.8 -96.2093C-1079.8 -94.8404 -1080.92 -93.7204 -1082.42 -93.7204H-1104.82L-1097.48 -87.1248C-1096.48 -86.1293 -1096.48 -84.5115 -1097.48 -83.5159C-1098.35 -82.5204 -1099.96 -82.3959 -1100.96 -83.3915L-1112.78 -94.3426C-1113.28 -94.8404 -1113.65 -95.5871 -1113.65 -96.2093C-1113.65 -96.9559 -1113.28 -97.5782 -1112.78 -98.0759L-1100.96 -109.027C-1099.96 -110.023 -1098.35 -109.898 -1097.48 -108.903C-1096.48 -107.907 -1096.48 -106.289 -1097.48 -105.418L-1104.82 -98.6982H-1082.42C-1080.92 -98.6982 -1079.8 -97.5782 -1079.8 -96.2093ZM-364 11.5596C-365.493 11.5596 -366.613 12.6796 -366.613 14.0485V42.7952C-366.613 44.1641 -365.493 45.2841 -364 45.2841H-335.253C-333.884 45.2841 -332.764 44.1641 -332.764 42.7952V29.2307C-332.764 27.8618 -331.644 26.7419 -330.276 26.7419C-328.782 26.7419 -327.662 27.8618 -327.662 29.2307V42.7952C-327.662 47.0263 -331.147 50.3863 -335.253 50.3863H-364C-368.231 50.3863 -371.716 47.0263 -371.716 42.7952V14.0485C-371.716 9.81741 -368.231 6.4574 -364 6.4574H-347.2C-345.707 6.4574 -344.587 7.57739 -344.587 8.94629C-344.587 10.4396 -345.707 11.5596 -347.2 11.5596H-364ZM-357.155 32.4663L-326.542 4.71518H-335.253C-336.622 4.71518 -337.742 3.59518 -337.742 2.22629C-337.742 0.857407 -336.622 -0.262604 -335.253 -0.262604H-319.947C-318.578 -0.262604 -317.458 0.857407 -317.458 2.22629V17.4085C-317.458 18.7774 -318.578 20.0219 -319.947 20.0219C-321.44 20.0219 -322.56 18.7774 -322.56 17.4085V7.95073L-353.795 36.1996C-354.791 37.1952 -356.409 37.0707 -357.404 36.0752C-358.276 34.9552 -358.276 33.4619 -357.155 32.4663ZM-988.213 -96.2093C-988.213 -97.5782 -987.093 -98.6982 -985.724 -98.6982H-963.2L-970.542 -105.418C-971.538 -106.289 -971.538 -107.907 -970.667 -108.903C-969.671 -109.898 -968.053 -110.023 -967.058 -109.027L-955.235 -98.0759C-954.738 -97.5782 -954.489 -96.9559 -954.489 -96.2093C-954.489 -95.5871 -954.738 -94.8404 -955.235 -94.3426L-967.058 -83.3915C-968.053 -82.3959 -969.671 -82.5204 -970.667 -83.5159C-971.538 -84.5115 -971.538 -86.1293 -970.542 -87.1248L-963.2 -93.7204H-985.724C-987.093 -93.7204 -988.213 -94.8404 -988.213 -96.2093ZM-721.653 -88.7426C-720.658 -87.7471 -720.658 -86.1293 -721.653 -85.1337C-722.649 -84.1382 -724.267 -84.1382 -725.262 -85.1337L-730.987 -90.8582C-730.821 -87.2908 -730.53 -83.7233 -730.116 -80.1559C-729.991 -79.1604 -729.12 -78.2893 -728 -78.1648C-724.018 -77.833 -719.953 -77.667 -715.804 -77.667C-711.739 -77.667 -707.715 -77.833 -703.733 -78.1648C-702.613 -78.2893 -701.742 -79.1604 -701.618 -80.1559C-701.369 -81.8981 -701.203 -83.6819 -701.12 -85.507C-700.996 -86.8759 -699.751 -87.8715 -698.382 -87.7471C-697.013 -87.6226 -695.893 -86.5026 -696.018 -85.0093C-696.184 -83.1841 -696.391 -81.4004 -696.64 -79.6582C-697.013 -76.1737 -699.751 -73.4359 -703.235 -73.1871C-707.384 -72.7722 -711.573 -72.5648 -715.804 -72.5648C-720.118 -72.5648 -724.35 -72.7722 -728.498 -73.1871C-731.982 -73.4359 -734.72 -76.1737 -735.093 -79.6582C-735.591 -83.3915 -735.881 -87.1663 -735.964 -90.9826L-741.938 -85.1337C-742.933 -84.1382 -744.551 -84.1382 -745.422 -85.1337C-746.418 -86.1293 -746.418 -87.7471 -745.422 -88.7426L-735.342 -98.8226C-734.347 -99.8182 -732.729 -99.8182 -731.733 -98.8226L-721.653 -88.7426ZM-728 -114.254C-729.12 -114.129 -729.991 -113.383 -730.116 -112.263C-730.364 -110.52 -730.53 -108.778 -730.613 -107.036C-730.738 -105.667 -731.982 -104.547 -733.351 -104.671C-734.72 -104.796 -735.84 -106.04 -735.716 -107.409C-735.55 -109.234 -735.384 -111.06 -735.218 -112.885C-734.72 -116.369 -731.982 -118.983 -728.498 -119.356C-724.35 -119.688 -720.16 -119.854 -715.929 -119.854C-711.615 -119.854 -707.384 -119.688 -703.235 -119.356C-699.751 -118.983 -697.013 -116.369 -696.64 -112.885C-696.142 -109.069 -695.852 -105.252 -695.769 -101.436L-689.795 -107.285C-688.8 -108.28 -687.182 -108.28 -686.311 -107.285C-685.315 -106.289 -685.315 -104.796 -686.311 -103.8L-696.391 -93.5959C-697.387 -92.6004 -699.004 -92.6004 -700 -93.5959L-710.08 -103.8C-711.075 -104.796 -711.075 -106.289 -710.08 -107.285C-709.084 -108.28 -707.467 -108.28 -706.471 -107.285L-700.747 -101.685C-700.913 -105.252 -701.203 -108.778 -701.618 -112.263C-701.742 -113.383 -702.613 -114.129 -703.733 -114.254C-707.715 -114.669 -711.781 -114.876 -715.929 -114.876C-719.994 -114.876 -724.018 -114.669 -728 -114.254ZM-474.755 -109.4C-478.115 -109.4 -480.853 -112.138 -480.853 -115.498C-480.853 -118.983 -478.115 -121.72 -474.755 -121.72C-471.271 -121.72 -468.533 -118.983 -468.533 -115.498C-468.533 -112.138 -471.271 -109.4 -474.755 -109.4ZM-463.182 -113.258C-464.427 -113.258 -465.422 -114.254 -465.422 -115.498C-465.422 -116.867 -464.427 -117.863 -463.182 -117.863H-446.258C-444.889 -117.863 -443.893 -116.867 -443.893 -115.498C-443.893 -114.254 -444.889 -113.258 -446.258 -113.258H-463.182ZM-483.964 -115.498C-483.964 -114.254 -484.96 -113.258 -486.204 -113.258H-490.809C-492.178 -113.258 -493.173 -114.254 -493.173 -115.498C-493.173 -116.743 -492.178 -117.863 -490.809 -117.863H-486.204C-484.96 -117.863 -483.964 -116.743 -483.964 -115.498ZM-490.809 -74.6804C-492.178 -74.6804 -493.173 -75.6759 -493.173 -77.0448C-493.173 -78.2893 -492.178 -79.2848 -490.809 -79.2848H-486.204C-484.96 -79.2848 -483.964 -78.2893 -483.964 -77.0448C-483.964 -75.6759 -484.96 -74.6804 -486.204 -74.6804H-490.809ZM-463.058 -74.6804C-464.427 -74.6804 -465.422 -75.6759 -465.422 -77.0448C-465.422 -78.2893 -464.427 -79.2848 -463.058 -79.2848H-446.133C-444.889 -79.2848 -443.893 -78.2893 -443.893 -77.0448C-443.893 -75.6759 -444.889 -74.6804 -446.133 -74.6804H-463.058ZM-471.52 -96.2093C-471.52 -94.9648 -472.64 -93.9693 -473.884 -93.9693H-490.809C-492.053 -93.9693 -493.173 -94.9648 -493.173 -96.2093C-493.173 -97.5782 -492.053 -98.5737 -490.809 -98.5737H-473.884C-472.64 -98.5737 -471.52 -97.5782 -471.52 -96.2093ZM-450.738 -93.9693C-451.982 -93.9693 -453.102 -94.9648 -453.102 -96.2093C-453.102 -97.5782 -451.982 -98.5737 -450.738 -98.5737H-446.133C-444.889 -98.5737 -443.769 -97.5782 -443.769 -96.2093C-443.769 -94.9648 -444.889 -93.9693 -446.133 -93.9693H-450.738ZM-462.311 -90.1115C-465.671 -90.1115 -468.409 -92.8493 -468.409 -96.2093C-468.409 -99.6937 -465.671 -102.432 -462.311 -102.432C-458.827 -102.432 -456.089 -99.6937 -456.089 -96.2093C-456.089 -92.8493 -458.827 -90.1115 -462.311 -90.1115ZM-474.631 -70.8226C-477.991 -70.8226 -480.729 -73.5604 -480.729 -77.0448C-480.729 -80.4048 -477.991 -83.1426 -474.631 -83.1426C-471.271 -83.1426 -468.409 -80.4048 -468.409 -77.0448C-468.409 -73.5604 -471.271 -70.8226 -474.631 -70.8226ZM17.1735 -241.809C18.5422 -241.809 19.6622 -240.689 19.6622 -239.32V-197.134C19.6622 -195.765 18.5422 -194.645 17.1735 -194.645H12.0712C10.7023 -194.645 9.58228 -195.765 9.58228 -197.134V-239.32C9.58228 -240.689 10.7023 -241.809 12.0712 -241.809H17.1735ZM40.8179 -241.809C42.1868 -241.809 43.4313 -240.689 43.4313 -239.32V-197.134C43.4313 -195.765 42.1868 -194.645 40.8179 -194.645H35.8401C34.3467 -194.645 33.2268 -195.765 33.2268 -197.134V-239.32C33.2268 -240.689 34.3467 -241.809 35.8401 -241.809H40.8179ZM-108.267 -204.849L-104.035 -215.427C-103.289 -217.169 -102.293 -218.663 -101.049 -220.031L-77.6533 -243.303C-74.9155 -246.165 -70.311 -246.165 -67.5732 -243.303C-64.7111 -240.565 -64.7111 -235.96 -67.5732 -233.223L-90.8444 -209.827C-92.2133 -208.583 -93.7066 -207.587 -95.4489 -206.84L-106.027 -202.609C-107.396 -201.987 -108.764 -203.356 -108.267 -204.849ZM-114.738 -200.245C-114.738 -198.005 -112.871 -196.014 -110.631 -196.014H-78.5243C-76.1599 -196.014 -74.2932 -198.005 -74.2932 -200.245V-218.04C-74.2932 -219.409 -73.1732 -220.529 -71.8043 -220.529C-70.311 -220.529 -69.191 -219.409 -69.191 -218.04V-200.245C-69.191 -195.143 -73.4221 -191.036 -78.5243 -191.036H-110.631C-115.733 -191.036 -119.84 -195.143 -119.84 -200.245V-232.352C-119.84 -237.454 -115.733 -241.685 -110.631 -241.685H-92.8354C-91.4666 -241.685 -90.3466 -240.565 -90.3466 -239.071C-90.3466 -237.703 -91.4666 -236.583 -92.8354 -236.583H-110.631C-112.871 -236.583 -114.738 -234.716 -114.738 -232.352V-200.245ZM-239.555 -207.463L-202.72 -244.298C-199.858 -247.16 -195.378 -247.16 -192.516 -244.298C-189.778 -241.56 -189.778 -236.956 -192.516 -234.218L-229.476 -197.383C-230.72 -196.014 -232.213 -195.018 -233.956 -194.396L-244.658 -190.04C-246.027 -189.543 -247.395 -190.912 -246.773 -192.28L-242.542 -202.858C-241.92 -204.6 -240.8 -206.218 -239.555 -207.463ZM-371.467 -118.111C-371.467 -120.974 -369.227 -123.214 -366.489 -123.214H-362.507C-360.142 -123.214 -358.151 -121.596 -357.653 -119.231L-355.164 -108.405C-354.667 -105.791 -356.16 -103.178 -358.773 -102.432L-361.884 -101.56C-363.253 -101.063 -364.124 -99.6937 -363.502 -98.3248C-359.644 -88.7426 -351.929 -81.1515 -342.471 -77.1693C-341.102 -76.6715 -339.609 -77.4182 -339.235 -78.787L-338.364 -82.0226C-337.618 -84.5115 -335.004 -86.1293 -332.391 -85.507L-321.44 -83.1426C-319.2 -82.6448 -317.458 -80.5293 -317.458 -78.1648V-74.307C-317.458 -71.4448 -319.822 -69.2048 -322.56 -69.2048H-327.662C-331.52 -69.2048 -335.253 -69.7026 -338.862 -70.6982C-354.044 -74.6804 -365.991 -86.627 -370.098 -101.934C-370.969 -105.418 -371.467 -109.276 -371.467 -113.134V-118.111Z" fill="#0F172A"/>
<path fill-rule="evenodd" clip-rule="evenodd" d="M-249.138 -122.343C-249.138 -123.712 -248.018 -124.832 -246.649 -124.832H-191.022C-189.529 -124.832 -188.409 -123.712 -188.409 -122.343C-188.409 -120.974 -189.529 -119.729 -191.022 -119.729H-191.769V-90.236C-191.769 -85.1338 -196 -81.0271 -201.102 -81.0271H-204.711L-201.973 -70.6982C-201.724 -69.3293 -202.471 -67.9604 -203.84 -67.5871C-205.209 -67.2138 -206.578 -67.9604 -206.951 -69.3293L-207.324 -70.8227H-230.347L-230.72 -69.3293C-231.093 -67.9604 -232.462 -67.2138 -233.831 -67.5871C-235.2 -67.9604 -235.947 -69.3293 -235.573 -70.6982L-232.96 -81.0271H-236.569C-241.671 -81.0271 -245.778 -85.1338 -245.778 -90.236V-119.729H-246.649C-248.018 -119.729 -249.138 -120.974 -249.138 -122.343ZM-232.338 -98.6982V-93.596C-232.338 -92.2271 -231.218 -91.1071 -229.724 -91.1071C-228.355 -91.1071 -227.235 -92.2271 -227.235 -93.596V-98.6982C-227.235 -100.067 -228.355 -101.187 -229.724 -101.187C-231.218 -101.187 -232.338 -100.067 -232.338 -98.6982ZM-210.435 -112.138V-93.596C-210.435 -92.2271 -209.191 -91.1071 -207.822 -91.1071C-206.453 -91.1071 -205.333 -92.2271 -205.333 -93.596V-112.138C-205.333 -113.632 -206.453 -114.752 -207.822 -114.752C-209.191 -114.752 -210.435 -113.632 -210.435 -112.138ZM-227.733 -81.0271L-228.978 -75.9249H-208.569L-209.938 -81.0271H-227.733ZM-216.284 -105.418C-216.284 -106.787 -217.529 -108.032 -218.898 -108.032C-220.267 -108.032 -221.387 -106.787 -221.387 -105.418V-93.596C-221.387 -92.2271 -220.267 -91.1071 -218.898 -91.1071C-217.529 -91.1071 -216.284 -92.2271 -216.284 -93.596V-105.418ZM-232.462 8.32402C-231.591 9.19513 -231.591 10.6885 -232.462 11.5596C-239.929 19.0262 -239.929 31.2218 -232.462 38.6885C-224.995 46.1551 -212.8 46.1551 -205.333 38.6885C-197.742 31.2218 -197.742 19.0262 -205.333 11.5596C-206.204 10.6885 -206.204 9.19513 -205.333 8.32402C-204.462 7.57735 -202.969 7.57735 -202.098 8.32402C-192.889 17.6573 -192.889 32.5907 -202.098 41.7996C-211.431 51.0085 -226.364 51.0085 -235.573 41.7996C-244.782 32.5907 -244.782 17.6573 -235.573 8.32402C-234.702 7.57735 -233.333 7.57735 -232.462 8.32402ZM-218.898 1.47958C-217.653 1.47958 -216.658 2.47514 -216.658 3.71957V25.8707C-216.658 27.1151 -217.653 28.1107 -218.898 28.1107C-220.142 28.1107 -221.138 27.1151 -221.138 25.8707V3.71957C-221.138 2.47514 -220.142 1.47958 -218.898 1.47958ZM17.5468 2.72401C18.5423 2.72401 19.4134 3.59512 19.4134 4.59068C19.4134 5.58624 18.5423 6.45735 17.5468 6.45735H13.8134C11.6979 6.45735 10.0801 8.07513 10.0801 10.1907V13.924C10.0801 14.9196 9.20898 15.7907 8.21344 15.7907C7.21786 15.7907 6.34676 14.9196 6.34676 13.924V10.1907C6.34676 6.08401 9.70676 2.72401 13.8134 2.72401H17.5468ZM43.6801 2.72401C47.7867 2.72401 51.1468 6.08401 51.1468 10.1907V13.924C51.1468 14.9196 50.2756 15.7907 49.2801 15.7907C48.2845 15.7907 47.4134 14.9196 47.4134 13.924V10.1907C47.4134 8.07513 45.6712 6.45735 43.6801 6.45735H39.9467C38.9512 6.45735 38.0801 5.58624 38.0801 4.59068C38.0801 3.59512 38.9512 2.72401 39.9467 2.72401H43.6801ZM38.0801 25.124C38.0801 30.2262 33.849 34.4574 28.7468 34.4574C23.5201 34.4574 19.4134 30.2262 19.4134 25.124C19.4134 19.8974 23.5201 15.7907 28.7468 15.7907C33.849 15.7907 38.0801 19.8974 38.0801 25.124ZM10.0801 40.0574C10.0801 42.0485 11.6979 43.7907 13.8134 43.7907H17.5468C18.5423 43.7907 19.4134 44.6618 19.4134 45.6573C19.4134 46.6529 18.5423 47.524 17.5468 47.524H13.8134C9.70676 47.524 6.34676 44.164 6.34676 40.0574V36.324C6.34676 35.3285 7.21786 34.4574 8.21344 34.4574C9.20898 34.4574 10.0801 35.3285 10.0801 36.324V40.0574ZM51.1468 40.0574C51.1468 44.164 47.7867 47.524 43.6801 47.524H39.9467C38.9512 47.524 38.0801 46.6529 38.0801 45.6573C38.0801 44.6618 38.9512 43.7907 39.9467 43.7907H43.6801C45.6712 43.7907 47.4134 42.0485 47.4134 40.0574V36.324C47.4134 35.3285 48.2845 34.4574 49.2801 34.4574C50.2756 34.4574 51.1468 35.3285 51.1468 36.324V40.0574ZM26.1334 -81.0271C27.6268 -82.5204 29.9912 -82.5204 31.4845 -81.0271C32.1068 -80.2804 32.1068 -79.1604 31.4845 -78.4138L30.1156 -77.1693C29.7423 -76.796 29.2445 -76.5471 28.7468 -76.5471C28.249 -76.5471 27.8756 -76.796 27.5023 -77.1693L26.1334 -78.4138C25.3867 -79.1604 25.3867 -80.2804 26.1334 -81.0271ZM18.169 -88.9915C24.0179 -94.8404 33.4756 -94.8404 39.3246 -88.9915C40.0712 -88.2449 40.0712 -87.1249 39.3246 -86.3782L38.0801 -85.0093C37.7068 -84.636 37.209 -84.5115 36.7112 -84.5115C36.2134 -84.5115 35.7156 -84.636 35.3423 -85.0093C31.7334 -88.6182 25.8846 -88.6182 22.1512 -85.0093C21.4045 -84.2627 20.2845 -84.2627 19.5379 -85.0093L18.169 -86.3782C17.5468 -87.1249 17.5468 -88.2449 18.169 -88.9915ZM10.2045 -96.956C20.409 -107.16 36.9601 -107.16 47.1646 -96.956C47.9112 -96.2093 47.9112 -94.9649 47.1646 -94.2182L45.9201 -92.9738C45.5468 -92.6004 45.049 -92.3515 44.5512 -92.3515C44.0534 -92.3515 43.5556 -92.6004 43.3068 -92.9738C35.2179 -100.938 22.2756 -100.938 14.1867 -92.9738C13.4401 -92.2271 12.3201 -92.2271 11.5734 -92.9738L10.2045 -94.2182C9.95563 -94.5915 9.70676 -95.0893 9.70676 -95.5871C9.70676 -96.0849 9.95563 -96.5827 10.2045 -96.956ZM2.36452 -104.796C16.9245 -119.356 40.569 -119.356 55.129 -104.796C55.8756 -104.049 55.8756 -102.929 55.129 -102.183L53.7601 -100.814C53.5112 -100.565 53.0134 -100.316 52.5157 -100.316C52.0179 -100.316 51.5201 -100.565 51.1468 -100.814C38.8268 -113.258 18.6667 -113.258 6.34676 -100.814C5.97343 -100.565 5.47565 -100.316 4.97786 -100.316C4.48009 -100.316 3.9823 -100.565 3.60896 -100.814L2.36452 -102.183C1.61786 -102.929 1.61786 -104.049 2.36452 -104.796ZM-110.631 126.297C-104.824 125.385 -98.8918 124.928 -92.8355 124.928C-86.7792 124.928 -80.8473 125.385 -75.0399 126.297C-70.0621 126.92 -66.7021 131.275 -66.7021 136.128V151.062C-66.7021 155.915 -70.0621 160.271 -75.0399 161.017C-77.8607 161.432 -80.7229 161.764 -83.6266 162.013C-83.9999 162.013 -84.2488 162.137 -84.3732 162.386L-91.2177 172.715C-91.591 173.213 -92.2132 173.462 -92.8355 173.462C-93.4577 173.462 -94.0799 173.213 -94.3288 172.715L-101.173 162.386C-101.422 162.137 -101.671 162.013 -101.92 162.013C-104.907 161.764 -107.81 161.432 -110.631 161.017C-115.484 160.271 -118.969 155.915 -118.969 151.062V136.128C-118.969 131.275 -115.484 126.92 -110.631 126.297ZM-104.035 141.728H-81.6355C-80.6399 141.728 -79.7688 140.982 -79.7688 139.862C-79.7688 138.866 -80.6399 137.995 -81.6355 137.995H-104.035C-105.031 137.995 -105.902 138.866 -105.902 139.862C-105.902 140.982 -105.031 141.728 -104.035 141.728ZM-104.035 145.462C-105.031 145.462 -105.902 146.333 -105.902 147.328C-105.902 148.448 -105.031 149.195 -104.035 149.195H-92.8355C-91.8399 149.195 -90.9688 148.448 -90.9688 147.328C-90.9688 146.333 -91.8399 145.462 -92.8355 145.462H-104.035Z" fill="#0F172A"/>
<path fill-rule="evenodd" clip-rule="evenodd" d="M4.47998 134.262C4.47998 130.155 7.83997 126.795 11.9467 126.795H45.5466C49.6533 126.795 53.0133 130.155 53.0133 134.262V164.128C53.0133 168.235 49.6533 171.595 45.5466 171.595H11.9467C7.83997 171.595 4.47998 168.235 4.47998 164.128V134.262ZM14.4355 139.364L18.6666 143.595L14.4355 147.951C13.6888 148.697 13.6888 149.817 14.4355 150.564C15.1821 151.311 16.3022 151.311 17.0488 150.564L22.6489 144.964C23.3955 144.217 23.3955 143.097 22.6489 142.351L17.0488 136.751C16.3022 136.004 15.1821 136.004 14.4355 136.751C13.6888 137.497 13.6888 138.617 14.4355 139.364ZM25.0133 147.328C24.0177 147.328 23.1466 148.199 23.1466 149.195C23.1466 150.315 24.0177 151.062 25.0133 151.062H32.48C33.6 151.062 34.3466 150.315 34.3466 149.195C34.3466 148.199 33.6 147.328 32.48 147.328H25.0133ZM-1121 -234.965C-1121 -239.072 -1117.64 -242.432 -1113.53 -242.432H-1079.93C-1075.82 -242.432 -1072.46 -239.072 -1072.46 -234.965V-210.698C-1072.46 -206.467 -1075.82 -203.232 -1079.93 -203.232H-1087.4V-202.485C-1087.4 -200.992 -1086.77 -199.623 -1085.78 -198.627L-1084.16 -197.009C-1083.66 -196.512 -1083.54 -195.641 -1083.79 -195.018C-1084.04 -194.272 -1084.78 -193.898 -1085.53 -193.898H-1107.93C-1108.68 -193.898 -1109.3 -194.272 -1109.67 -195.018C-1109.92 -195.641 -1109.8 -196.512 -1109.17 -197.009L-1107.68 -198.627C-1106.68 -199.623 -1106.06 -200.992 -1106.06 -202.485V-203.232H-1113.53C-1117.64 -203.232 -1121 -206.467 -1121 -210.698V-234.965ZM-1117.26 -234.965V-216.298C-1117.26 -214.183 -1115.52 -212.565 -1113.53 -212.565H-1079.93C-1077.81 -212.565 -1076.2 -214.183 -1076.2 -216.298V-234.965C-1076.2 -236.956 -1077.81 -238.698 -1079.93 -238.698H-1113.53C-1115.52 -238.698 -1117.26 -236.956 -1117.26 -234.965ZM-1085.53 160.395H-1107.93V137.995H-1085.53V160.395Z" fill="#0F172A"/>
</g>
</g>
<defs>
<clipPath id="clip0_70_5419">
<rect width="56" height="50" fill="white"/>
</clipPath>
</defs>
</svg>
