<svg width="54" height="50" viewBox="0 0 54 50" fill="none" xmlns="http://www.w3.org/2000/svg">
<g clip-path="url(#clip0_70_5421)">
<mask id="mask0_70_5421" style="mask-type:luminance" maskUnits="userSpaceOnUse" x="-684" y="-735" width="1747" height="1350">
<path d="M-683.265 -734.857H1062.37V614.041H-683.265V-734.857Z" fill="white"/>
</mask>
<g mask="url(#mask0_70_5421)">
<path fill-rule="evenodd" clip-rule="evenodd" d="M-72.7346 39.4368C-73.6162 40.3185 -75.0489 40.3185 -75.9305 39.4368L-97.5305 17.8368V34.9184C-97.5305 36.1307 -98.5223 37.1225 -99.7346 37.1225C-101.057 37.1225 -102.049 36.1307 -102.049 34.9184V12.4368C-102.049 11.2246 -101.057 10.2327 -99.7346 10.2327H-77.3631C-76.1509 10.2327 -75.1591 11.2246 -75.1591 12.4368C-75.1591 13.6491 -76.1509 14.6409 -77.3631 14.6409H-94.3346L-72.7346 36.2409C-71.8529 37.1225 -71.8529 38.5552 -72.7346 39.4368ZM116.265 132.559C116.265 119.335 126.955 108.645 140.18 108.645C153.404 108.645 164.094 119.335 164.094 132.559C164.094 145.784 153.404 156.474 140.18 156.474C126.955 156.474 116.265 145.784 116.265 132.559ZM137.865 142.257C137.865 143.469 138.857 144.461 140.18 144.461C141.392 144.461 142.384 143.469 142.384 142.257V128.592L148.225 134.763C149.106 135.755 150.429 135.755 151.421 134.984C152.302 134.102 152.302 132.669 151.531 131.788L141.833 121.318C141.392 120.878 140.731 120.547 140.18 120.547C139.518 120.547 138.967 120.878 138.527 121.318L128.829 131.788C127.947 132.669 127.947 134.102 128.939 134.984C129.821 135.755 131.253 135.755 132.025 134.763L137.865 128.592V142.257ZM-295.016 25.1103C-295.016 26.3225 -296.008 27.3144 -297.33 27.3144H-317.167L-310.665 33.1552C-309.784 34.0368 -309.784 35.4695 -310.665 36.3511C-311.437 37.2327 -312.869 37.3429 -313.751 36.4613L-324.22 26.7633C-324.661 26.3225 -324.992 25.6613 -324.992 25.1103C-324.992 24.4491 -324.661 23.898 -324.22 23.4572L-313.751 13.7593C-312.869 12.8776 -311.437 12.9878 -310.665 13.8695C-309.784 14.7511 -309.784 16.1838 -310.665 16.9552L-317.167 22.9062H-297.33C-296.008 22.9062 -295.016 23.898 -295.016 25.1103ZM338.878 120.547C337.555 120.547 336.563 121.539 336.563 122.751V148.208C336.563 149.42 337.555 150.412 338.878 150.412H364.335C365.547 150.412 366.539 149.42 366.539 148.208V136.196C366.539 134.984 367.531 133.992 368.743 133.992C370.065 133.992 371.057 134.984 371.057 136.196V148.208C371.057 151.955 367.972 154.931 364.335 154.931H338.878C335.131 154.931 332.045 151.955 332.045 148.208V122.751C332.045 119.004 335.131 116.029 338.878 116.029H353.755C355.078 116.029 356.07 117.02 356.07 118.233C356.07 119.555 355.078 120.547 353.755 120.547H338.878ZM344.939 139.061L372.049 114.486H364.335C363.123 114.486 362.131 113.494 362.131 112.282C362.131 111.069 363.123 110.078 364.335 110.078H377.89C379.102 110.078 380.094 111.069 380.094 112.282V125.727C380.094 126.939 379.102 128.041 377.89 128.041C376.567 128.041 375.576 126.939 375.576 125.727V117.351L347.914 142.367C347.033 143.249 345.6 143.139 344.718 142.257C343.947 141.265 343.947 139.943 344.939 139.061ZM-213.906 25.1103C-213.906 23.898 -212.914 22.9062 -211.702 22.9062H-191.755L-198.257 16.9552C-199.139 16.1838 -199.139 14.7511 -198.367 13.8695C-197.486 12.9878 -196.053 12.8776 -195.171 13.7593L-184.702 23.4572C-184.261 23.898 -184.041 24.4491 -184.041 25.1103C-184.041 25.6613 -184.261 26.3225 -184.702 26.7633L-195.171 36.4613C-196.053 37.3429 -197.486 37.2327 -198.367 36.3511C-199.139 35.4695 -199.139 34.0368 -198.257 33.1552L-191.755 27.3144H-211.702C-212.914 27.3144 -213.906 26.3225 -213.906 25.1103ZM22.1512 31.7225C23.0328 32.6042 23.0328 34.0368 22.1512 34.9184C21.2695 35.8001 19.8369 35.8001 18.9552 34.9184L13.8858 29.8491C14.0328 33.0082 14.2899 36.1674 14.6573 39.3266C14.7675 40.2082 15.5389 40.9797 16.5307 41.0899C20.0573 41.3838 23.6573 41.5307 27.3307 41.5307C30.9307 41.5307 34.494 41.3838 38.0205 41.0899C39.0124 40.9797 39.7838 40.2082 39.894 39.3266C40.1144 37.7838 40.2614 36.2041 40.3348 34.5878C40.445 33.3756 41.547 32.494 42.7593 32.6042C43.9715 32.7144 44.9634 33.7062 44.8532 35.0287C44.7062 36.645 44.5226 38.2246 44.3022 39.7674C43.9716 42.8531 41.5471 45.2776 38.4613 45.498C34.7879 45.8654 31.0777 46.0491 27.3307 46.0491C23.5103 46.0491 19.7634 45.8654 16.0899 45.498C13.0042 45.2776 10.5797 42.8531 10.2491 39.7674C9.80826 36.4613 9.55115 33.1184 9.47766 29.7388L4.18787 34.9184C3.30621 35.8001 1.8736 35.8001 1.10214 34.9184C0.22052 34.0368 0.22052 32.6042 1.10214 31.7225L10.0287 22.796C10.9103 21.9144 12.343 21.9144 13.2246 22.796L22.1512 31.7225ZM16.5307 9.13068C15.5389 9.24089 14.7675 9.90212 14.6573 10.894C14.4368 12.4368 14.2899 13.9797 14.2164 15.5225C14.1062 16.7348 13.0042 17.7266 11.792 17.6164C10.5797 17.5062 9.58786 16.4042 9.69806 15.1919C9.845 13.5756 9.99197 11.9593 10.1389 10.3429C10.5797 7.25723 13.0042 4.94293 16.0899 4.61232C19.7634 4.31844 23.4736 4.1715 27.2206 4.1715C31.041 4.1715 34.7879 4.31844 38.4613 4.61232C41.5471 4.94293 43.9716 7.25723 44.3022 10.3429C44.743 13.7225 45.0001 17.1021 45.0736 20.4817L50.3634 15.3021C51.245 14.4205 52.6777 14.4205 53.4491 15.3021C54.3307 16.1838 54.3307 17.5062 53.4491 18.3878L44.5226 27.4246C43.6409 28.3062 42.2083 28.3062 41.3267 27.4246L32.4001 18.3878C31.5185 17.5062 31.5185 16.1838 32.4001 15.3021C33.2817 14.4205 34.7144 14.4205 35.596 15.3021L40.6654 20.2613C40.5185 17.1021 40.2614 13.9797 39.894 10.894C39.7838 9.90212 39.0124 9.24089 38.0205 9.13068C34.494 8.76334 30.894 8.57967 27.2206 8.57967C23.6205 8.57967 20.0573 8.76334 16.5307 9.13068ZM240.796 13.4286C237.821 13.4286 235.396 11.0042 235.396 8.02864C235.396 4.94293 237.821 2.51844 240.796 2.51844C243.882 2.51844 246.306 4.94293 246.306 8.02864C246.306 11.0042 243.882 13.4286 240.796 13.4286ZM251.045 10.0123C249.943 10.0123 249.061 9.13068 249.061 8.02864C249.061 6.8164 249.943 5.93478 251.045 5.93478H266.033C267.245 5.93478 268.127 6.8164 268.127 8.02864C268.127 9.13068 267.245 10.0123 266.033 10.0123H251.045ZM232.641 8.02864C232.641 9.13068 231.759 10.0123 230.657 10.0123H226.58C225.367 10.0123 224.486 9.13068 224.486 8.02864C224.486 6.92661 225.367 5.93478 226.58 5.93478H230.657C231.759 5.93478 232.641 6.92661 232.641 8.02864ZM226.58 44.1756C225.367 44.1756 224.486 43.2939 224.486 42.0817C224.486 40.9797 225.367 40.098 226.58 40.098H230.657C231.759 40.098 232.641 40.9797 232.641 42.0817C232.641 43.2939 231.759 44.1756 230.657 44.1756H226.58ZM251.155 44.1756C249.943 44.1756 249.061 43.2939 249.061 42.0817C249.061 40.9797 249.943 40.098 251.155 40.098H266.143C267.245 40.098 268.127 40.9797 268.127 42.0817C268.127 43.2939 267.245 44.1756 266.143 44.1756H251.155ZM243.661 25.1103C243.661 26.2123 242.669 27.0939 241.567 27.0939H226.58C225.478 27.0939 224.486 26.2123 224.486 25.1103C224.486 23.898 225.478 23.0164 226.58 23.0164H241.567C242.669 23.0164 243.661 23.898 243.661 25.1103ZM262.065 27.0939C260.963 27.0939 259.971 26.2123 259.971 25.1103C259.971 23.898 260.963 23.0164 262.065 23.0164H266.143C267.245 23.0164 268.237 23.898 268.237 25.1103C268.237 26.2123 267.245 27.0939 266.143 27.0939H262.065ZM251.816 30.5103C248.841 30.5103 246.416 28.0858 246.416 25.1103C246.416 22.0246 248.841 19.6001 251.816 19.6001C254.902 19.6001 257.327 22.0246 257.327 25.1103C257.327 28.0858 254.902 30.5103 251.816 30.5103ZM240.906 47.5919C237.931 47.5919 235.506 45.1674 235.506 42.0817C235.506 39.1062 237.931 36.6817 240.906 36.6817C243.882 36.6817 246.416 39.1062 246.416 42.0817C246.416 45.1674 243.882 47.5919 240.906 47.5919ZM676.433 -103.828C677.645 -103.828 678.637 -102.837 678.637 -101.624V-64.2652C678.637 -63.053 677.645 -62.0611 676.433 -62.0611H671.914C670.702 -62.0611 669.71 -63.053 669.71 -64.2652V-101.624C669.71 -102.837 670.702 -103.828 671.914 -103.828H676.433ZM697.371 -103.828C698.584 -103.828 699.686 -102.837 699.686 -101.624V-64.2652C699.686 -63.053 698.584 -62.0611 697.371 -62.0611H692.963C691.641 -62.0611 690.649 -63.053 690.649 -64.2652V-101.624C690.649 -102.837 691.641 -103.828 692.963 -103.828H697.371ZM565.347 -71.0979L569.094 -80.4652C569.755 -82.0081 570.637 -83.3305 571.739 -84.5428L592.457 -105.151C594.882 -107.686 598.959 -107.686 601.384 -105.151C603.918 -102.726 603.918 -98.6489 601.384 -96.2244L580.776 -75.506C579.563 -74.404 578.241 -73.5224 576.698 -72.8611L567.331 -69.1142C566.118 -68.5632 564.906 -69.7754 565.347 -71.0979ZM559.616 -67.0203C559.616 -65.0367 561.269 -63.2734 563.253 -63.2734H591.686C593.78 -63.2734 595.433 -65.0367 595.433 -67.0203V-82.7795C595.433 -83.9918 596.425 -84.9836 597.637 -84.9836C598.959 -84.9836 599.951 -83.9918 599.951 -82.7795V-67.0203C599.951 -62.502 596.204 -58.8652 591.686 -58.8652H563.253C558.735 -58.8652 555.098 -62.502 555.098 -67.0203V-95.453C555.098 -99.9714 558.735 -103.718 563.253 -103.718H579.012C580.225 -103.718 581.216 -102.726 581.216 -101.404C581.216 -100.192 580.225 -99.1999 579.012 -99.1999H563.253C561.269 -99.1999 559.616 -97.5469 559.616 -95.453V-67.0203ZM449.082 -73.4122L481.702 -106.033C484.237 -108.567 488.204 -108.567 490.739 -106.033C493.163 -103.608 493.163 -99.5305 490.739 -97.106L458.008 -64.4856C456.906 -63.2734 455.584 -62.3918 454.041 -61.8407L444.563 -57.9836C443.351 -57.5428 442.139 -58.755 442.69 -59.9673L446.437 -69.3346C446.988 -70.8775 447.98 -72.3101 449.082 -73.4122ZM332.265 5.71436C332.265 3.17966 334.249 1.19599 336.674 1.19599H340.2C342.294 1.19599 344.057 2.62865 344.498 4.72252L346.702 14.3103C347.143 16.6246 345.82 18.9389 343.506 19.6001L340.751 20.3715C339.539 20.8123 338.767 22.0246 339.318 23.2368C342.735 31.7225 349.567 38.445 357.943 41.9715C359.155 42.4123 360.478 41.7511 360.808 40.5388L361.58 37.6735C362.241 35.4695 364.555 34.0368 366.87 34.5878L376.567 36.6817C378.551 37.1225 380.094 38.996 380.094 41.0899V44.5062C380.094 47.0409 378 49.0246 375.576 49.0246H371.057C367.641 49.0246 364.335 48.5838 361.139 47.7021C347.694 44.1756 337.114 33.596 333.478 20.0409C332.706 16.9552 332.265 13.5388 332.265 10.1225V5.71436Z" fill="#0F172A"/>
<path fill-rule="evenodd" clip-rule="evenodd" d="M-113.951 -96.9957C-113.951 -100.743 -110.975 -103.718 -107.228 -103.718H-66.8935C-63.1466 -103.718 -60.1711 -100.743 -60.1711 -96.9957V-68.6733C-60.1711 -64.9264 -63.1466 -61.9508 -66.8935 -61.9508H-107.228C-110.975 -61.9508 -113.951 -64.9264 -113.951 -68.6733V-96.9957ZM-109.543 -79.5835V-68.5631C-109.543 -67.3508 -108.44 -66.359 -107.228 -66.359H-66.8935C-65.6813 -66.359 -64.6895 -67.3508 -64.6895 -68.5631V-76.608L-71.3017 -83.2202C-72.1833 -84.1019 -73.616 -84.1019 -74.4976 -83.2202L-80.118 -77.4896L-78.7956 -76.1672C-77.9139 -75.2855 -77.9139 -73.8529 -78.7956 -72.9713C-79.6772 -72.0896 -80.9997 -72.0896 -81.8813 -72.9713L-97.4201 -88.51C-98.3017 -89.3917 -99.7344 -89.3917 -100.616 -88.51L-109.543 -79.5835ZM-84.0854 -94.6815C-85.7384 -94.6815 -87.1711 -93.359 -87.1711 -91.7059C-87.1711 -90.0529 -85.7384 -88.7304 -84.0854 -88.7304C-82.4323 -88.7304 -81.1099 -90.0529 -81.1099 -91.7059C-81.1099 -93.359 -82.4323 -94.6815 -84.0854 -94.6815ZM116.155 -82.6692C116.155 -95.8937 126.845 -106.583 140.07 -106.583C153.294 -106.583 163.984 -95.8937 163.984 -82.6692C163.984 -69.5549 153.294 -58.7549 140.07 -58.7549C126.845 -58.7549 116.155 -69.5549 116.155 -82.6692ZM134.119 -89.3917V-75.9468C134.119 -75.1753 134.56 -74.4039 135.331 -74.0733C135.992 -73.6325 136.874 -73.6325 137.535 -74.0733L148.004 -80.7957C148.666 -81.2366 149.106 -82.008 149.106 -82.6692C149.106 -83.4406 148.666 -84.2121 148.004 -84.6529L137.535 -91.3753C136.874 -91.8161 135.992 -91.8161 135.331 -91.3753C134.56 -91.0447 134.119 -90.2733 134.119 -89.3917ZM36.8085 -100.632C38.131 -100.632 39.1228 -99.6406 39.1228 -98.4284V-67.0202C39.1228 -65.808 38.131 -64.8162 36.8085 -64.8162H35.3758C34.1636 -64.8162 33.1718 -65.808 33.1718 -67.0202V-98.4284C33.1718 -99.6406 34.1636 -100.632 35.3758 -100.632H36.8085ZM51.7962 -100.632C53.0085 -100.632 54.0003 -99.6406 54.0003 -98.4284V-67.0202C54.0003 -65.808 53.0085 -64.8162 51.7962 -64.8162H50.2534C49.0412 -64.8162 48.0493 -65.808 48.0493 -67.0202V-98.4284C48.0493 -99.6406 49.0412 -100.632 50.2534 -100.632H51.7962ZM26.0085 -86.5264C28.7636 -84.7631 28.7636 -80.6855 26.0085 -78.9223L7.0534 -67.2406C4.07789 -65.3672 0.220741 -67.5713 0.220741 -70.9876V-94.3508C0.220741 -97.8774 4.07789 -100.081 7.0534 -98.208L26.0085 -86.5264ZM262.617 -86.5264C265.372 -84.7631 265.372 -80.6855 262.617 -78.9223L234.625 -61.2896C231.649 -59.4161 227.792 -61.6202 227.792 -65.1468V-100.302C227.792 -103.828 231.649 -106.032 234.625 -104.159L262.617 -86.5264ZM222.392 132.67C222.392 119.445 233.082 108.755 246.306 108.755C259.531 108.755 270.221 119.445 270.221 132.67C270.221 145.894 259.531 156.584 246.306 156.584C233.082 156.584 222.392 145.894 222.392 132.67ZM248.511 122.972C248.511 121.759 247.519 120.768 246.306 120.768C245.094 120.768 243.992 121.759 243.992 122.972V130.465H236.608C235.286 130.465 234.294 131.457 234.294 132.67C234.294 133.992 235.286 134.984 236.608 134.984H243.992V142.368C243.992 143.69 245.094 144.682 246.306 144.682C247.519 144.682 248.511 143.69 248.511 142.368V134.984H256.004C257.217 134.984 258.208 133.992 258.208 132.67C258.208 131.457 257.217 130.465 256.004 130.465H248.511V122.972Z" fill="#0F172A"/>
<path fill-rule="evenodd" clip-rule="evenodd" d="M665.192 229.208C665.192 225.572 668.167 222.596 671.804 222.596H701.559C705.196 222.596 708.172 225.572 708.172 229.208V255.657C708.172 259.294 705.196 262.27 701.559 262.27H671.804C668.167 262.27 665.192 259.294 665.192 255.657V229.208ZM674.008 233.727L677.755 237.474L674.008 241.331C673.347 241.992 673.347 242.984 674.008 243.645C674.669 244.306 675.661 244.306 676.323 243.645L681.282 238.686C681.943 238.025 681.943 237.033 681.282 236.372L676.323 231.412C675.661 230.751 674.669 230.751 674.008 231.412C673.347 232.074 673.347 233.065 674.008 233.727ZM683.376 240.78C682.494 240.78 681.722 241.551 681.722 242.433C681.722 243.425 682.494 244.086 683.376 244.086H689.988C690.98 244.086 691.641 243.425 691.641 242.433C691.641 241.551 690.98 240.78 689.988 240.78H683.376ZM-331.494 -97.7671C-331.494 -101.404 -328.518 -104.379 -324.881 -104.379H-295.126C-291.49 -104.379 -288.514 -101.404 -288.514 -97.7671V-76.2774C-288.514 -72.5304 -291.49 -69.6651 -295.126 -69.6651H-301.739V-69.0039C-301.739 -67.6814 -301.188 -66.4692 -300.306 -65.5876L-298.873 -64.1549C-298.432 -63.7141 -298.322 -62.9427 -298.543 -62.3916C-298.763 -61.7304 -299.424 -61.3998 -300.085 -61.3998H-319.922C-320.583 -61.3998 -321.134 -61.7304 -321.465 -62.3916C-321.686 -62.9427 -321.575 -63.7141 -321.024 -64.1549L-319.702 -65.5876C-318.82 -66.4692 -318.269 -67.6814 -318.269 -69.0039V-69.6651H-324.881C-328.518 -69.6651 -331.494 -72.5304 -331.494 -76.2774V-97.7671ZM-328.188 -97.7671V-81.2365C-328.188 -79.3631 -326.645 -77.9304 -324.881 -77.9304H-295.126C-293.253 -77.9304 -291.82 -79.3631 -291.82 -81.2365V-97.7671C-291.82 -99.5304 -293.253 -101.073 -295.126 -101.073H-324.881C-326.645 -101.073 -328.188 -99.5304 -328.188 -97.7671ZM-300.085 252.351H-319.922V232.514H-300.085V252.351Z" fill="#0F172A"/>
<path fill-rule="evenodd" clip-rule="evenodd" d="M488.976 242.432C488.976 254.334 479.278 263.922 467.486 263.922C455.584 263.922 445.996 254.334 445.996 242.432C445.996 230.641 455.584 220.943 467.486 220.943C479.278 220.943 488.976 230.641 488.976 242.432ZM464.951 230.861C459.992 230.861 455.914 234.939 455.914 240.008C455.914 244.967 459.992 249.045 464.951 249.045C466.935 249.045 468.698 248.494 470.131 247.502L474.539 251.91C475.2 252.571 476.192 252.571 476.853 251.91C477.514 251.249 477.514 250.257 476.853 249.596L472.445 245.188C473.437 243.645 474.098 241.881 474.098 240.008C474.098 234.939 470.021 230.861 464.951 230.861ZM377.559 220.943C378.441 220.943 379.212 221.714 379.212 222.596C379.212 223.588 378.441 224.249 377.559 224.249H375.906V247.392C375.906 251.028 372.931 254.004 369.294 254.004H366.649L369.184 261.828C369.514 262.6 368.963 263.592 368.192 263.922C367.31 264.143 366.318 263.702 366.098 262.82L365.327 260.616H346.812L346.041 262.82C345.71 263.702 344.829 264.143 343.947 263.922C343.065 263.592 342.625 262.6 342.955 261.828L345.49 254.004H342.845C339.208 254.004 336.233 251.028 336.233 247.392V224.249H334.58C333.588 224.249 332.927 223.588 332.927 222.596C332.927 221.714 333.588 220.943 334.58 220.943H377.559ZM357.723 235.82C357.723 234.939 356.951 234.167 356.069 234.167C355.078 234.167 354.416 234.939 354.416 235.82V244.085C354.416 245.077 355.078 245.739 356.069 245.739C356.951 245.739 357.723 245.077 357.723 244.085V235.82ZM364.335 230.861C364.335 229.979 363.563 229.208 362.682 229.208C361.69 229.208 361.029 229.979 361.029 230.861V244.085C361.029 245.077 361.69 245.739 362.682 245.739C363.563 245.739 364.335 245.077 364.335 244.085V230.861ZM364.225 257.31L363.123 254.004H349.016L347.914 257.31H364.225ZM351 240.779C351 239.898 350.339 239.126 349.347 239.126C348.465 239.126 347.694 239.898 347.694 240.779V244.085C347.694 245.077 348.465 245.739 349.347 245.739C350.339 245.739 351 245.077 351 244.085V240.779ZM588.159 109.416C590.363 109.416 592.237 111.29 592.237 113.494V120.106C593.192 120.253 594.147 120.4 595.102 120.547C598.298 120.988 600.502 123.743 600.502 126.939V140.824C600.502 144.461 597.527 147.437 593.89 147.437H593.339L593.669 151.183C593.89 153.608 592.016 155.702 589.592 155.702H568.543C566.119 155.702 564.245 153.608 564.465 151.183L564.796 147.437H564.135C560.498 147.437 557.523 144.461 557.523 140.824V126.939C557.523 123.743 559.837 120.988 563.033 120.547C563.914 120.4 564.833 120.253 565.788 120.106V113.494C565.788 111.29 567.661 109.416 569.976 109.416H588.159ZM592.237 130.906C593.229 130.906 593.89 130.134 593.89 129.253C593.89 128.371 593.229 127.6 592.237 127.6C591.355 127.6 590.584 128.371 590.584 129.253C590.584 130.134 591.355 130.906 592.237 130.906ZM579.012 137.518C575.853 137.518 572.731 137.665 569.645 137.959C569.204 138.069 568.874 138.29 568.874 138.73L567.661 151.514C567.661 151.955 567.992 152.396 568.543 152.396H589.592C590.033 152.396 590.363 151.955 590.363 151.514L589.261 138.73C589.151 138.29 588.82 138.069 588.49 137.959C585.404 137.665 582.245 137.518 579.012 137.518ZM588.931 119.775V113.494C588.931 113.053 588.6 112.722 588.159 112.722H569.976C569.535 112.722 569.094 113.053 569.094 113.494V119.775C572.4 119.481 575.706 119.334 579.012 119.334C582.392 119.334 585.698 119.481 588.931 119.775ZM585.625 127.6C584.743 127.6 583.972 128.371 583.972 129.253C583.972 130.134 584.743 130.906 585.625 130.906C586.616 130.906 587.278 130.134 587.278 129.253C587.278 128.371 586.616 127.6 585.625 127.6ZM224.706 245.739C224.706 235.71 232.861 227.555 242.89 227.555C243.772 227.555 244.543 228.326 244.543 229.208V244.085H259.421C260.302 244.085 261.074 244.857 261.074 245.739C261.074 255.767 252.918 263.922 242.89 263.922C232.861 263.922 224.706 255.767 224.706 245.739ZM247.849 222.596C247.849 221.714 248.621 220.943 249.502 220.943C259.531 220.943 267.686 229.098 267.686 239.126C267.686 240.118 266.914 240.779 266.033 240.779H249.502C248.621 240.779 247.849 240.118 247.849 239.126V222.596ZM-178.09 -64.1553C-177.428 -63.4941 -177.428 -62.5023 -178.09 -61.841C-178.751 -61.1798 -179.743 -61.1798 -180.404 -61.841L-220.077 -101.515C-220.739 -102.176 -220.739 -103.168 -220.077 -103.829C-219.416 -104.49 -218.424 -104.49 -217.763 -103.829L-178.09 -64.1553ZM-175.996 -70.3267C-175.996 -69.2247 -176.437 -68.4533 -177.098 -67.7921L-187.567 -78.2614V-91.8165L-181.616 -97.7676C-179.522 -99.7512 -175.996 -98.3186 -175.996 -95.3431V-70.3267ZM-190.873 -92.8084V-81.6778L-208.616 -99.4206H-197.486C-193.739 -99.4206 -190.873 -96.4451 -190.873 -92.8084ZM-222.281 -92.8084C-222.281 -94.5716 -221.62 -96.1145 -220.518 -97.3267L-192.196 -69.0043C-193.408 -67.3512 -195.281 -66.3594 -197.486 -66.3594H-215.669C-219.306 -66.3594 -222.281 -69.3349 -222.281 -72.9716V-92.8084Z" fill="#0F172A"/>
</g>
</g>
<defs>
<clipPath id="clip0_70_5421">
<rect width="54" height="50" fill="white"/>
</clipPath>
</defs>
</svg>
