<svg width="54" height="50" viewBox="0 0 54 50" fill="none" xmlns="http://www.w3.org/2000/svg">
<g clip-path="url(#clip0_70_5404)">
<mask id="mask0_70_5404" style="mask-type:luminance" maskUnits="userSpaceOnUse" x="-863" y="-534" width="1496" height="1156">
<path d="M-862.151 -533.019H632.189V621.698H-862.151V-533.019Z" fill="white"/>
</mask>
<g mask="url(#mask0_70_5404)">
<path fill-rule="evenodd" clip-rule="evenodd" d="M-339.509 129.811C-340.264 130.566 -341.49 130.566 -342.245 129.811L-360.736 111.32V125.943C-360.736 126.981 -361.585 127.83 -362.622 127.83C-363.755 127.83 -364.604 126.981 -364.604 125.943V106.698C-364.604 105.66 -363.755 104.811 -362.622 104.811H-343.471C-342.434 104.811 -341.585 105.66 -341.585 106.698C-341.585 107.735 -342.434 108.585 -343.471 108.585H-358L-339.509 127.075C-338.755 127.83 -338.755 129.056 -339.509 129.811ZM-177.717 209.528C-177.717 198.207 -168.566 189.056 -157.245 189.056C-145.924 189.056 -136.773 198.207 -136.773 209.528C-136.773 220.849 -145.924 230 -157.245 230C-168.566 230 -177.717 220.849 -177.717 209.528ZM-159.226 217.83C-159.226 218.868 -158.377 219.717 -157.245 219.717C-156.207 219.717 -155.358 218.868 -155.358 217.83V206.132L-150.358 211.415C-149.604 212.264 -148.471 212.264 -147.622 211.603C-146.868 210.849 -146.868 209.622 -147.528 208.868L-155.83 199.905C-156.207 199.528 -156.773 199.245 -157.245 199.245C-157.811 199.245 -158.283 199.528 -158.66 199.905L-166.962 208.868C-167.717 209.622 -167.717 210.849 -166.868 211.603C-166.113 212.264 -164.887 212.264 -164.226 211.415L-159.226 206.132V217.83ZM-529.792 117.547C-529.792 118.585 -530.641 119.434 -531.773 119.434H-548.754L-543.188 124.434C-542.434 125.188 -542.434 126.415 -543.188 127.169C-543.849 127.924 -545.075 128.018 -545.83 127.264L-554.792 118.962C-555.17 118.585 -555.453 118.018 -555.453 117.547C-555.453 116.981 -555.17 116.509 -554.792 116.132L-545.83 107.83C-545.075 107.075 -543.849 107.169 -543.188 107.924C-542.434 108.679 -542.434 109.905 -543.188 110.566L-548.754 115.66H-531.773C-530.641 115.66 -529.792 116.509 -529.792 117.547ZM12.8492 199.245C11.7172 199.245 10.8682 200.094 10.8682 201.132V222.924C10.8682 223.962 11.7172 224.811 12.8492 224.811H34.6417C35.6794 224.811 36.5285 223.962 36.5285 222.924V212.641C36.5285 211.603 37.3776 210.754 38.4153 210.754C39.5474 210.754 40.3964 211.603 40.3964 212.641V222.924C40.3964 226.132 37.7549 228.679 34.6417 228.679H12.8492C9.64172 228.679 7.00018 226.132 7.00018 222.924V201.132C7.00018 197.924 9.64172 195.377 12.8492 195.377H25.5851C26.7172 195.377 27.5662 196.226 27.5662 197.264C27.5662 198.396 26.7172 199.245 25.5851 199.245H12.8492ZM18.038 215.094L41.2455 194.056H34.6417C33.6039 194.056 32.7549 193.207 32.7549 192.169C32.7549 191.132 33.6039 190.283 34.6417 190.283H46.2455C47.2833 190.283 48.1323 191.132 48.1323 192.169V203.679C48.1323 204.717 47.2833 205.66 46.2455 205.66C45.1135 205.66 44.2643 204.717 44.2643 203.679V196.509L20.5851 217.924C19.8304 218.679 18.6039 218.585 17.8492 217.83C17.1889 216.981 17.1889 215.849 18.038 215.094ZM-460.358 117.547C-460.358 116.509 -459.509 115.66 -458.471 115.66H-441.396L-446.962 110.566C-447.717 109.905 -447.717 108.679 -447.056 107.924C-446.302 107.169 -445.075 107.075 -444.321 107.83L-435.358 116.132C-434.981 116.509 -434.792 116.981 -434.792 117.547C-434.792 118.018 -434.981 118.585 -435.358 118.962L-444.321 127.264C-445.075 128.018 -446.302 127.924 -447.056 127.169C-447.717 126.415 -447.717 125.188 -446.962 124.434L-441.396 119.434H-458.471C-459.509 119.434 -460.358 118.585 -460.358 117.547ZM-258.283 123.207C-257.528 123.962 -257.528 125.188 -258.283 125.943C-259.038 126.698 -260.264 126.698 -261.019 125.943L-265.358 121.603C-265.232 124.308 -265.012 127.012 -264.698 129.717C-264.604 130.471 -263.943 131.132 -263.094 131.226C-260.075 131.478 -256.993 131.603 -253.849 131.603C-250.767 131.603 -247.717 131.478 -244.698 131.226C-243.849 131.132 -243.188 130.471 -243.094 129.717C-242.905 128.396 -242.78 127.044 -242.717 125.66C-242.622 124.622 -241.679 123.868 -240.641 123.962C-239.604 124.056 -238.754 124.905 -238.849 126.037C-238.975 127.421 -239.132 128.773 -239.321 130.094C-239.604 132.735 -241.679 134.811 -244.321 135C-247.465 135.314 -250.641 135.471 -253.849 135.471C-257.119 135.471 -260.327 135.314 -263.471 135C-266.113 134.811 -268.188 132.735 -268.471 130.094C-268.849 127.264 -269.069 124.402 -269.132 121.509L-273.66 125.943C-274.415 126.698 -275.641 126.698 -276.302 125.943C-277.056 125.188 -277.056 123.962 -276.302 123.207L-268.66 115.566C-267.905 114.811 -266.679 114.811 -265.924 115.566L-258.283 123.207ZM-263.094 103.868C-263.943 103.962 -264.604 104.528 -264.698 105.377C-264.887 106.698 -265.012 108.018 -265.075 109.339C-265.17 110.377 -266.113 111.226 -267.151 111.132C-268.188 111.037 -269.038 110.094 -268.943 109.056C-268.817 107.673 -268.692 106.289 -268.566 104.905C-268.188 102.264 -266.113 100.283 -263.471 99.9996C-260.327 99.748 -257.151 99.6223 -253.943 99.6223C-250.673 99.6223 -247.465 99.748 -244.321 99.9996C-241.679 100.283 -239.604 102.264 -239.321 104.905C-238.943 107.798 -238.723 110.691 -238.66 113.585L-234.132 109.151C-233.377 108.396 -232.151 108.396 -231.49 109.151C-230.736 109.905 -230.736 111.037 -231.49 111.792L-239.132 119.528C-239.887 120.283 -241.113 120.283 -241.868 119.528L-249.509 111.792C-250.264 111.037 -250.264 109.905 -249.509 109.151C-248.755 108.396 -247.528 108.396 -246.773 109.151L-242.434 113.396C-242.56 110.691 -242.78 108.018 -243.094 105.377C-243.188 104.528 -243.849 103.962 -244.698 103.868C-247.717 103.553 -250.799 103.396 -253.943 103.396C-257.025 103.396 -260.075 103.553 -263.094 103.868ZM-71.113 107.547C-73.6602 107.547 -75.7356 105.471 -75.7356 102.924C-75.7356 100.283 -73.6602 98.2072 -71.113 98.2072C-68.4715 98.2072 -66.396 100.283 -66.396 102.924C-66.396 105.471 -68.4715 107.547 -71.113 107.547ZM-62.3394 104.622C-63.2828 104.622 -64.0375 103.868 -64.0375 102.924C-64.0375 101.886 -63.2828 101.132 -62.3394 101.132H-49.5092C-48.4715 101.132 -47.7168 101.886 -47.7168 102.924C-47.7168 103.868 -48.4715 104.622 -49.5092 104.622H-62.3394ZM-78.0941 102.924C-78.0941 103.868 -78.8488 104.622 -79.7923 104.622H-83.2828C-84.3205 104.622 -85.0753 103.868 -85.0753 102.924C-85.0753 101.981 -84.3205 101.132 -83.2828 101.132H-79.7923C-78.8488 101.132 -78.0941 101.981 -78.0941 102.924ZM-83.2828 133.868C-84.3205 133.868 -85.0753 133.113 -85.0753 132.075C-85.0753 131.132 -84.3205 130.377 -83.2828 130.377H-79.7923C-78.8488 130.377 -78.0941 131.132 -78.0941 132.075C-78.0941 133.113 -78.8488 133.868 -79.7923 133.868H-83.2828ZM-62.2451 133.868C-63.2828 133.868 -64.0375 133.113 -64.0375 132.075C-64.0375 131.132 -63.2828 130.377 -62.2451 130.377H-49.4149C-48.4715 130.377 -47.7168 131.132 -47.7168 132.075C-47.7168 133.113 -48.4715 133.868 -49.4149 133.868H-62.2451ZM-68.6602 117.547C-68.6602 118.49 -69.5092 119.245 -70.4526 119.245H-83.2828C-84.2262 119.245 -85.0753 118.49 -85.0753 117.547C-85.0753 116.509 -84.2262 115.754 -83.2828 115.754H-70.4526C-69.5092 115.754 -68.6602 116.509 -68.6602 117.547ZM-52.9055 119.245C-53.8488 119.245 -54.6979 118.49 -54.6979 117.547C-54.6979 116.509 -53.8488 115.754 -52.9055 115.754H-49.4149C-48.4715 115.754 -47.6224 116.509 -47.6224 117.547C-47.6224 118.49 -48.4715 119.245 -49.4149 119.245H-52.9055ZM-61.679 122.169C-64.2262 122.169 -66.3017 120.094 -66.3017 117.547C-66.3017 114.905 -64.2262 112.83 -61.679 112.83C-59.0375 112.83 -56.9621 114.905 -56.9621 117.547C-56.9621 120.094 -59.0375 122.169 -61.679 122.169ZM-71.0187 136.792C-73.5659 136.792 -75.6413 134.717 -75.6413 132.075C-75.6413 129.528 -73.5659 127.452 -71.0187 127.452C-68.4715 127.452 -66.3017 129.528 -66.3017 132.075C-66.3017 134.717 -68.4715 136.792 -71.0187 136.792ZM301.812 7.16942C302.849 7.16942 303.698 8.01848 303.698 9.05622V41.0373C303.698 42.0751 302.849 42.9241 301.812 42.9241H297.944C296.906 42.9241 296.057 42.0751 296.057 41.0373V9.05622C296.057 8.01848 296.906 7.16942 297.944 7.16942H301.812ZM319.736 7.16942C320.774 7.16942 321.717 8.01848 321.717 9.05622V41.0373C321.717 42.0751 320.774 42.9241 319.736 42.9241H315.962C314.83 42.9241 313.981 42.0751 313.981 41.0373V9.05622C313.981 8.01848 314.83 7.16942 315.962 7.16942H319.736ZM206.717 35.1883L209.925 27.1694C210.491 25.8487 211.245 24.7166 212.189 23.6789L229.925 6.03735C232 3.86754 235.491 3.86754 237.566 6.03735C239.736 8.11282 239.736 11.6034 237.566 13.6789L219.925 31.4147C218.887 32.3581 217.755 33.1128 216.434 33.6789L208.415 36.8864C207.378 37.3581 206.34 36.3204 206.717 35.1883ZM201.812 38.6789C201.812 40.377 203.227 41.8864 204.925 41.8864H229.264C231.057 41.8864 232.472 40.377 232.472 38.6789V25.1883C232.472 24.1506 233.321 23.3015 234.359 23.3015C235.491 23.3015 236.34 24.1506 236.34 25.1883V38.6789C236.34 42.5468 233.132 45.66 229.264 45.66H204.925C201.057 45.66 197.944 42.5468 197.944 38.6789V14.3392C197.944 10.4713 201.057 7.26376 204.925 7.26376H218.415C219.453 7.26376 220.302 8.11282 220.302 9.2449C220.302 10.2826 219.453 11.1317 218.415 11.1317H204.925C203.227 11.1317 201.812 12.5468 201.812 14.3392V38.6789ZM107.189 33.2072L135.113 5.28263C137.283 3.11282 140.679 3.11282 142.849 5.28263C144.925 7.3581 144.925 10.8487 142.849 12.9241L114.83 40.8487C113.887 41.8864 112.755 42.6411 111.434 43.1128L103.321 46.4147C102.283 46.7921 101.245 45.7543 101.717 44.7166L104.925 36.6977C105.396 35.377 106.245 34.1506 107.189 33.2072ZM7.1889 100.943C7.1889 98.7732 8.88702 97.0751 10.9625 97.0751H13.9813C15.7738 97.0751 17.2832 98.3015 17.6606 100.094L19.5474 108.301C19.9247 110.283 18.7927 112.264 16.8115 112.83L14.4531 113.49C13.4153 113.868 12.7549 114.905 13.2266 115.943C16.1512 123.207 22.0002 128.962 29.17 131.981C30.2078 132.358 31.3398 131.792 31.6229 130.754L32.2832 128.301C32.8492 126.415 34.8304 125.188 36.8115 125.66L45.1134 127.452C46.8115 127.83 48.1323 129.434 48.1323 131.226V134.151C48.1323 136.32 46.3398 138.018 44.2643 138.018H40.3964C37.4719 138.018 34.6417 137.641 31.9059 136.886C20.3964 133.868 11.3398 124.811 8.22662 113.207C7.56622 110.566 7.1889 107.641 7.1889 104.717V100.943Z" fill="#0F172A"/>
<path fill-rule="evenodd" clip-rule="evenodd" d="M-139.981 99.7166C-136.868 99.7166 -134.226 102.264 -134.226 105.471V129.717C-134.226 132.924 -136.868 135.471 -139.981 135.471H-174.509C-177.717 135.471 -180.264 132.924 -180.264 129.717V105.471C-180.264 102.264 -177.717 99.7166 -174.509 99.7166H-139.981ZM-166.868 107.358C-166.868 108.396 -166.019 109.339 -164.981 109.339C-163.849 109.339 -163 108.396 -163 107.358C-163 106.32 -163.849 105.471 -164.981 105.471C-166.019 105.471 -166.868 106.32 -166.868 107.358ZM-172.623 105.377C-173.66 105.377 -174.604 106.226 -174.604 107.358C-174.604 108.396 -173.66 109.245 -172.623 109.245C-171.585 109.245 -170.736 108.396 -170.736 107.358C-170.736 106.226 -171.585 105.377 -172.623 105.377ZM-176.491 115V129.717C-176.491 130.754 -175.642 131.603 -174.509 131.603H-139.981C-138.943 131.603 -138.094 130.754 -138.094 129.717V115H-176.491ZM-157.245 105.377C-158.377 105.377 -159.226 106.226 -159.226 107.358C-159.226 108.396 -158.377 109.245 -157.245 109.245C-156.208 109.245 -155.359 108.396 -155.359 107.358C-155.359 106.226 -156.208 105.377 -157.245 105.377ZM223.604 132.924C225.019 132.924 226.151 134.056 226.151 135.471C226.151 136.886 225.019 138.019 223.604 138.019C222.189 138.019 221.057 136.886 221.057 135.471C221.057 134.056 222.189 132.924 223.604 132.924ZM233.792 135.471C233.792 134.056 234.924 132.924 236.34 132.924C237.755 132.924 238.981 134.056 238.981 135.471C238.981 136.886 237.755 138.019 236.34 138.019C234.924 138.019 233.792 136.886 233.792 135.471ZM236.34 120.094C237.755 120.094 238.981 121.32 238.981 122.736C238.981 124.151 237.755 125.283 236.34 125.283C234.924 125.283 233.792 124.151 233.792 122.736C233.792 121.32 234.924 120.094 236.34 120.094ZM220.962 122.736C220.962 121.32 222.094 120.094 223.509 120.094H223.604C225.019 120.094 226.151 121.32 226.151 122.736C226.151 124.151 225.019 125.283 223.604 125.283H223.509C222.094 125.283 220.962 124.151 220.962 122.736ZM229.924 126.509C231.34 126.509 232.472 127.736 232.472 129.151C232.472 130.566 231.34 131.698 229.924 131.698C228.509 131.698 227.377 130.566 227.377 129.151C227.377 127.736 228.509 126.509 229.924 126.509ZM211.34 120.188C213.887 120.188 215.868 122.169 215.868 124.622V133.585C215.868 136.037 213.887 138.113 211.34 138.113H202.472C199.925 138.113 197.943 136.037 197.943 133.585V124.622C197.943 122.169 199.925 120.188 202.472 120.188H211.34ZM220.868 101.603C220.868 99.1506 222.943 97.1695 225.396 97.1695H234.358C236.811 97.1695 238.792 99.1506 238.792 101.603V110.566C238.792 113.019 236.811 115 234.358 115H225.396C222.943 115 220.868 113.019 220.868 110.566V101.603ZM211.34 97.1695C213.792 97.1695 215.774 99.1506 215.774 101.603V110.566C215.774 113.019 213.792 115 211.34 115H202.377C199.83 115 197.849 113.019 197.849 110.566V101.603C197.849 99.1506 199.83 97.1695 202.377 97.1695H211.34ZM225.396 100.943C225.019 100.943 224.736 101.226 224.736 101.603V110.566C224.736 110.943 225.019 111.226 225.396 111.226H234.358C234.641 111.226 235.019 110.943 235.019 110.566V101.603C235.019 101.226 234.641 100.943 234.358 100.943H225.396ZM229.83 103.49C231.245 103.49 232.377 104.622 232.377 106.037V106.132C232.377 107.547 231.245 108.679 229.83 108.679C228.415 108.679 227.283 107.547 227.283 106.132V106.037C227.283 104.622 228.415 103.49 229.83 103.49ZM201.717 133.585C201.717 133.962 202 134.245 202.283 134.245H211.245C211.623 134.245 211.906 133.962 211.906 133.585V124.622C211.906 124.245 211.623 123.962 211.245 123.962H202.283C202 123.962 201.717 124.245 201.717 124.622V133.585ZM206.811 126.509C208.226 126.509 209.358 127.736 209.358 129.151C209.358 130.566 208.226 131.698 206.811 131.698C205.396 131.698 204.17 130.566 204.17 129.151C204.17 127.736 205.396 126.509 206.811 126.509ZM201.623 110.566C201.623 110.943 201.906 111.226 202.283 111.226H211.245C211.623 111.226 211.906 110.943 211.906 110.566V101.603C211.906 101.226 211.623 100.943 211.245 100.943H202.283C201.906 100.943 201.623 101.226 201.623 101.603V110.566ZM206.811 103.49C208.226 103.49 209.358 104.717 209.358 106.132C209.358 107.547 208.226 108.679 206.811 108.679H206.717C205.302 108.679 204.17 107.547 204.17 106.132C204.17 104.717 205.302 103.49 206.717 103.49H206.811ZM36.5283 14.9053C39.7358 14.7795 42.9119 14.4965 46.0566 14.0563C47.0943 13.9619 48.0377 14.7167 48.2264 15.7544C48.6038 18.3959 48.8553 21.1003 48.9811 23.8676C49.0755 25.2827 47.9434 26.5091 46.5283 26.5091C45.4906 26.5091 44.6415 25.8487 43.9811 25.094C43.3207 24.3393 42.4717 23.9619 41.5283 23.9619C39.4528 23.9619 37.6604 26.2261 37.6604 29.0563C37.6604 31.8865 39.4528 34.1506 41.5283 34.1506C42.4717 34.1506 43.3207 33.7733 43.9811 33.0185C44.6415 32.2638 45.4906 31.6034 46.5283 31.6034C48.0377 31.6034 49.1698 32.8299 49.1698 34.2449C49.044 37.6412 48.761 41.006 48.3207 44.3393C48.132 45.1883 47.4717 45.9431 46.6226 46.0374C43.2893 46.4777 39.9245 46.7607 36.5283 46.8865C35.0188 46.9808 33.8868 45.7544 33.8868 44.3393C33.8868 43.3016 34.5471 42.3582 35.3019 41.6978C35.9622 41.0374 36.4339 40.1883 36.4339 39.2449C36.4339 37.1695 34.1698 35.4714 31.3396 35.4714C28.5094 35.4714 26.1509 37.1695 26.1509 39.2449C26.1509 40.1883 26.6226 41.0374 27.3773 41.6978C28.132 42.3582 28.6981 43.2072 28.6981 44.245C28.6981 45.66 27.566 46.8865 26.1509 46.7921C23.3836 46.6034 20.6478 46.3204 17.9434 45.9431C16.9056 45.7544 16.1509 44.811 16.3396 43.7733C16.7799 40.6286 17.0629 37.4525 17.1887 34.2449C17.1887 32.8299 16.0566 31.6034 14.5472 31.6034C13.5094 31.6034 12.6604 32.2638 12 33.0185C11.3396 33.7733 10.4906 34.1506 9.54715 34.1506C7.47168 34.1506 5.67923 31.8865 5.67923 29.0563C5.67923 26.2261 7.47168 23.9619 9.54715 23.9619C10.4906 23.9619 11.3396 24.3393 12 25.094C12.6604 25.8487 13.5094 26.5091 14.5472 26.5091C15.9622 26.5091 17.0943 25.2827 17 23.8676C16.8742 21.289 16.6226 18.7104 16.2453 16.1317C16.1509 15.5657 16.3396 14.9053 16.8113 14.528C17.1887 14.0563 17.849 13.8676 18.4151 13.9619C20.9308 14.3393 23.5094 14.6223 26.1509 14.811C27.566 14.811 28.6981 13.6789 28.6981 12.2638C28.6981 11.2261 28.132 10.377 27.3773 9.71665C26.6226 9.05627 26.1509 8.20722 26.1509 7.26382C26.1509 5.18835 28.5094 3.49023 31.3396 3.49023C34.1698 3.49023 36.4339 5.18835 36.4339 7.26382C36.4339 8.20722 35.9622 9.05627 35.3019 9.71665C34.5471 10.377 33.8868 11.3204 33.8868 12.3582C33.8868 13.7733 35.0188 14.9053 36.5283 14.9053Z" fill="#0F172A"/>
<path fill-rule="evenodd" clip-rule="evenodd" d="M292.189 292.264C292.189 289.151 294.736 286.603 297.849 286.603H323.321C326.434 286.603 328.981 289.151 328.981 292.264V314.905C328.981 318.018 326.434 320.566 323.321 320.566H297.849C294.736 320.566 292.189 318.018 292.189 314.905V292.264ZM299.736 296.132L302.943 299.339L299.736 302.641C299.17 303.207 299.17 304.056 299.736 304.622C300.302 305.188 301.151 305.188 301.717 304.622L305.962 300.377C306.528 299.811 306.528 298.962 305.962 298.396L301.717 294.151C301.151 293.585 300.302 293.585 299.736 294.151C299.17 294.717 299.17 295.566 299.736 296.132ZM307.755 302.169C307 302.169 306.34 302.83 306.34 303.585C306.34 304.434 307 305 307.755 305H313.415C314.264 305 314.83 304.434 314.83 303.585C314.83 302.83 314.264 302.169 313.415 302.169H307.755ZM-561.019 12.3581C-561.019 9.24492 -558.472 6.69775 -555.358 6.69775H-529.887C-526.774 6.69775 -524.226 9.24492 -524.226 12.3581V30.7544C-524.226 33.9619 -526.774 36.4147 -529.887 36.4147H-535.547V36.9808C-535.547 38.1128 -535.075 39.1506 -534.321 39.9053L-533.094 41.1317C-532.717 41.5091 -532.623 42.1695 -532.811 42.6411C-533 43.2072 -533.566 43.4902 -534.132 43.4902H-551.113C-551.679 43.4902 -552.151 43.2072 -552.434 42.6411C-552.623 42.1695 -552.528 41.5091 -552.057 41.1317L-550.924 39.9053C-550.17 39.1506 -549.698 38.1128 -549.698 36.9808V36.4147H-555.358C-558.472 36.4147 -561.019 33.9619 -561.019 30.7544V12.3581ZM-558.189 12.3581V26.5091C-558.189 28.1128 -556.868 29.3393 -555.358 29.3393H-529.887C-528.283 29.3393 -527.057 28.1128 -527.057 26.5091V12.3581C-527.057 10.8487 -528.283 9.52794 -529.887 9.52794H-555.358C-556.868 9.52794 -558.189 10.8487 -558.189 12.3581ZM-534.132 312.075H-551.113V295.094H-534.132V312.075Z" fill="#0F172A"/>
<path fill-rule="evenodd" clip-rule="evenodd" d="M141.34 303.585C141.34 313.773 133.038 321.981 122.943 321.981C112.755 321.981 104.547 313.773 104.547 303.585C104.547 293.49 112.755 285.188 122.943 285.188C133.038 285.188 141.34 293.49 141.34 303.585ZM120.774 293.679C116.528 293.679 113.038 297.17 113.038 301.509C113.038 305.755 116.528 309.245 120.774 309.245C122.472 309.245 123.981 308.773 125.208 307.924L128.981 311.698C129.547 312.264 130.396 312.264 130.962 311.698C131.528 311.132 131.528 310.283 130.962 309.717L127.189 305.943C128.038 304.622 128.604 303.113 128.604 301.509C128.604 297.17 125.113 293.679 120.774 293.679ZM45.9622 285.188C46.7169 285.188 47.3773 285.849 47.3773 286.604C47.3773 287.453 46.7169 288.019 45.9622 288.019H44.5471V307.83C44.5471 310.943 42 313.49 38.8867 313.49H36.6227L38.7924 320.188C39.0755 320.849 38.6037 321.698 37.9434 321.981C37.1886 322.17 36.3396 321.792 36.1509 321.038L35.4905 319.151H19.6415L18.9811 321.038C18.6981 321.792 17.9434 322.17 17.1886 321.981C16.4339 321.698 16.0566 320.849 16.3396 320.188L18.5094 313.49H16.2452C13.132 313.49 10.5849 310.943 10.5849 307.83V288.019H9.1698C8.32074 288.019 7.7547 287.453 7.7547 286.604C7.7547 285.849 8.32074 285.188 9.1698 285.188H45.9622ZM28.9811 297.924C28.9811 297.17 28.3207 296.509 27.566 296.509C26.7169 296.509 26.1509 297.17 26.1509 297.924V305C26.1509 305.849 26.7169 306.415 27.566 306.415C28.3207 306.415 28.9811 305.849 28.9811 305V297.924ZM34.6415 293.679C34.6415 292.924 33.9811 292.264 33.2264 292.264C32.3773 292.264 31.8113 292.924 31.8113 293.679V305C31.8113 305.849 32.3773 306.415 33.2264 306.415C33.9811 306.415 34.6415 305.849 34.6415 305V293.679ZM34.5471 316.321L33.6038 313.49H21.5283L20.5849 316.321H34.5471ZM23.2264 302.17C23.2264 301.415 22.6604 300.755 21.8113 300.755C21.0566 300.755 20.3962 301.415 20.3962 302.17V305C20.3962 305.849 21.0566 306.415 21.8113 306.415C22.6604 306.415 23.2264 305.849 23.2264 305V302.17ZM226.245 189.717C228.132 189.717 229.736 191.321 229.736 193.207V198.868C230.553 198.994 231.371 199.119 232.189 199.245C234.924 199.622 236.811 201.981 236.811 204.717V216.604C236.811 219.717 234.264 222.264 231.151 222.264H230.679L230.962 225.472C231.151 227.547 229.547 229.339 227.472 229.339H209.453C207.377 229.339 205.774 227.547 205.962 225.472L206.245 222.264H205.679C202.566 222.264 200.019 219.717 200.019 216.604V204.717C200.019 201.981 202 199.622 204.736 199.245C205.491 199.119 206.277 198.994 207.094 198.868V193.207C207.094 191.321 208.698 189.717 210.679 189.717H226.245ZM229.736 208.113C230.585 208.113 231.151 207.453 231.151 206.698C231.151 205.943 230.585 205.283 229.736 205.283C228.981 205.283 228.321 205.943 228.321 206.698C228.321 207.453 228.981 208.113 229.736 208.113ZM218.415 213.773C215.711 213.773 213.038 213.899 210.396 214.151C210.019 214.245 209.736 214.434 209.736 214.811L208.698 225.755C208.698 226.132 208.981 226.509 209.453 226.509H227.472C227.849 226.509 228.132 226.132 228.132 225.755L227.189 214.811C227.094 214.434 226.811 214.245 226.528 214.151C223.887 213.899 221.182 213.773 218.415 213.773ZM226.906 198.585V193.207C226.906 192.83 226.623 192.547 226.245 192.547H210.679C210.302 192.547 209.924 192.83 209.924 193.207V198.585C212.755 198.333 215.585 198.207 218.415 198.207C221.308 198.207 224.138 198.333 226.906 198.585ZM224.075 205.283C223.321 205.283 222.66 205.943 222.66 206.698C222.66 207.453 223.321 208.113 224.075 208.113C224.924 208.113 225.491 207.453 225.491 206.698C225.491 205.943 224.924 205.283 224.075 205.283ZM-84.8868 306.415C-84.8868 297.83 -77.9057 290.849 -69.3208 290.849C-68.5661 290.849 -67.9057 291.509 -67.9057 292.264V305H-55.1698C-54.4151 305 -53.7547 305.66 -53.7547 306.415C-53.7547 315 -60.7359 321.981 -69.3208 321.981C-77.9057 321.981 -84.8868 315 -84.8868 306.415ZM-65.0755 286.604C-65.0755 285.849 -64.4151 285.188 -63.6604 285.188C-55.0755 285.188 -48.0944 292.17 -48.0944 300.755C-48.0944 301.604 -48.7547 302.17 -49.5095 302.17H-63.6604C-64.4151 302.17 -65.0755 301.604 -65.0755 300.755V286.604ZM-429.698 41.1319C-429.132 41.6979 -429.132 42.547 -429.698 43.113C-430.264 43.6791 -431.113 43.6791 -431.679 43.113L-465.642 9.15078C-466.208 8.58474 -466.208 7.73568 -465.642 7.16965C-465.075 6.60361 -464.226 6.60361 -463.66 7.16965L-429.698 41.1319ZM-427.906 35.8489C-427.906 36.7923 -428.283 37.4527 -428.849 38.0187L-437.811 29.0564V17.4527L-432.717 12.3583C-430.925 10.6602 -427.906 11.8866 -427.906 14.4338V35.8489ZM-440.642 16.6036V26.1319L-455.83 10.9432H-446.302C-443.094 10.9432 -440.642 13.4904 -440.642 16.6036ZM-467.528 16.6036C-467.528 15.0942 -466.962 13.7734 -466.019 12.7357L-441.774 36.981C-442.811 38.3961 -444.415 39.2451 -446.302 39.2451H-461.868C-464.981 39.2451 -467.528 36.6979 -467.528 33.5847V16.6036Z" fill="#0F172A"/>
</g>
</g>
<defs>
<clipPath id="clip0_70_5404">
<rect width="54" height="50" fill="white"/>
</clipPath>
</defs>
</svg>
