<svg width="50" height="50" viewBox="0 0 50 50" fill="none" xmlns="http://www.w3.org/2000/svg">
<g clip-path="url(#clip0_70_5437)">
<mask id="mask0_70_5437" style="mask-type:luminance" maskUnits="userSpaceOnUse" x="-1218" y="-862" width="1584" height="1224">
<path d="M-1218 -862H366V362H-1218V-862Z" fill="white"/>
</mask>
<g mask="url(#mask0_70_5437)">
<path fill-rule="evenodd" clip-rule="evenodd" d="M-198.2 -193.4C-198.2 -194.5 -197.3 -195.4 -196.2 -195.4H-151.5C-150.3 -195.4 -149.4 -194.5 -149.4 -193.4C-149.4 -192.3 -150.3 -191.3 -151.5 -191.3H-152.1V-167.6C-152.1 -163.5 -155.5 -160.2 -159.6 -160.2H-162.5L-160.3 -151.9C-160.1 -150.8 -160.7 -149.7 -161.8 -149.4C-162.9 -149.1 -164 -149.7 -164.3 -150.8L-164.6 -152H-183.1L-183.4 -150.8C-183.7 -149.7 -184.8 -149.1 -185.9 -149.4C-187 -149.7 -187.6 -150.8 -187.3 -151.9L-185.2 -160.2H-188.1C-192.2 -160.2 -195.5 -163.5 -195.5 -167.6V-191.3H-196.2C-197.3 -191.3 -198.2 -192.3 -198.2 -193.4ZM-184.7 -174.4V-170.3C-184.7 -169.2 -183.8 -168.3 -182.6 -168.3C-181.5 -168.3 -180.6 -169.2 -180.6 -170.3V-174.4C-180.6 -175.5 -181.5 -176.4 -182.6 -176.4C-183.8 -176.4 -184.7 -175.5 -184.7 -174.4ZM-167.1 -185.2V-170.3C-167.1 -169.2 -166.1 -168.3 -165 -168.3C-163.9 -168.3 -163 -169.2 -163 -170.3V-185.2C-163 -186.4 -163.9 -187.3 -165 -187.3C-166.1 -187.3 -167.1 -186.4 -167.1 -185.2ZM-181 -160.2L-182 -156.1H-165.6L-166.7 -160.2H-181ZM-171.8 -179.8C-171.8 -180.9 -172.8 -181.9 -173.9 -181.9C-175 -181.9 -175.9 -180.9 -175.9 -179.8V-170.3C-175.9 -169.2 -175 -168.3 -173.9 -168.3C-172.8 -168.3 -171.8 -169.2 -171.8 -170.3V-179.8ZM-184.8 -88.3999C-184.1 -87.6999 -184.1 -86.4999 -184.8 -85.7999C-190.8 -79.7999 -190.8 -69.9999 -184.8 -63.9999C-178.8 -57.9999 -169 -57.9999 -163 -63.9999C-156.9 -69.9999 -156.9 -79.7999 -163 -85.7999C-163.7 -86.4999 -163.7 -87.6999 -163 -88.3999C-162.3 -88.9999 -161.1 -88.9999 -160.4 -88.3999C-153 -80.8999 -153 -68.8999 -160.4 -61.4999C-167.9 -54.0999 -179.9 -54.0999 -187.3 -61.4999C-194.7 -68.8999 -194.7 -80.8999 -187.3 -88.3999C-186.6 -88.9999 -185.5 -88.9999 -184.8 -88.3999ZM-173.9 -93.8999C-172.9 -93.8999 -172.1 -93.0999 -172.1 -92.0999V-74.2999C-172.1 -73.2999 -172.9 -72.4999 -173.9 -72.4999C-174.9 -72.4999 -175.7 -73.2999 -175.7 -74.2999V-92.0999C-175.7 -93.0999 -174.9 -93.8999 -173.9 -93.8999ZM16.0998 -92.8999C16.8998 -92.8999 17.5998 -92.1999 17.5998 -91.3999C17.5998 -90.5999 16.8998 -89.8999 16.0998 -89.8999H13.0998C11.3998 -89.8999 10.0998 -88.5999 10.0998 -86.8999V-83.8999C10.0998 -83.0999 9.39981 -82.3999 8.59981 -82.3999C7.7998 -82.3999 7.09981 -83.0999 7.09981 -83.8999V-86.8999C7.09981 -90.1999 9.7998 -92.8999 13.0998 -92.8999H16.0998ZM37.0998 -92.8999C40.3998 -92.8999 43.0998 -90.1999 43.0998 -86.8999V-83.8999C43.0998 -83.0999 42.3998 -82.3999 41.5998 -82.3999C40.7998 -82.3999 40.0998 -83.0999 40.0998 -83.8999V-86.8999C40.0998 -88.5999 38.6998 -89.8999 37.0998 -89.8999H34.0998C33.2998 -89.8999 32.5998 -90.5999 32.5998 -91.3999C32.5998 -92.1999 33.2998 -92.8999 34.0998 -92.8999H37.0998ZM32.5998 -74.8999C32.5998 -70.7999 29.1998 -67.3999 25.0998 -67.3999C20.8998 -67.3999 17.5998 -70.7999 17.5998 -74.8999C17.5998 -79.0999 20.8998 -82.3999 25.0998 -82.3999C29.1998 -82.3999 32.5998 -79.0999 32.5998 -74.8999ZM10.0998 -62.8999C10.0998 -61.2999 11.3998 -59.8999 13.0998 -59.8999H16.0998C16.8998 -59.8999 17.5998 -59.1999 17.5998 -58.3999C17.5998 -57.5999 16.8998 -56.8999 16.0998 -56.8999H13.0998C9.7998 -56.8999 7.09981 -59.5999 7.09981 -62.8999V-65.8999C7.09981 -66.6999 7.7998 -67.3999 8.59981 -67.3999C9.39981 -67.3999 10.0998 -66.6999 10.0998 -65.8999V-62.8999ZM43.0998 -62.8999C43.0998 -59.5999 40.3998 -56.8999 37.0998 -56.8999H34.0998C33.2998 -56.8999 32.5998 -57.5999 32.5998 -58.3999C32.5998 -59.1999 33.2998 -59.8999 34.0998 -59.8999H37.0998C38.6998 -59.8999 40.0998 -61.2999 40.0998 -62.8999V-65.8999C40.0998 -66.6999 40.7998 -67.3999 41.5998 -67.3999C42.3998 -67.3999 43.0998 -66.6999 43.0998 -65.8999V-62.8999ZM22.9998 -160.2C24.1998 -161.4 26.0998 -161.4 27.2998 -160.2C27.7998 -159.6 27.7998 -158.7 27.2998 -158.1L26.1998 -157.1C25.8998 -156.8 25.4998 -156.6 25.0998 -156.6C24.6998 -156.6 24.3998 -156.8 24.0998 -157.1L22.9998 -158.1C22.3998 -158.7 22.3998 -159.6 22.9998 -160.2ZM16.5998 -166.6C21.2998 -171.3 28.8998 -171.3 33.5998 -166.6C34.1998 -166 34.1998 -165.1 33.5998 -164.5L32.5998 -163.4C32.2998 -163.1 31.8998 -163 31.4998 -163C31.0998 -163 30.6998 -163.1 30.3998 -163.4C27.4998 -166.3 22.7998 -166.3 19.7998 -163.4C19.1998 -162.8 18.2998 -162.8 17.6998 -163.4L16.5998 -164.5C16.0998 -165.1 16.0998 -166 16.5998 -166.6ZM10.1998 -173C18.3998 -181.2 31.6998 -181.2 39.8998 -173C40.4998 -172.4 40.4998 -171.4 39.8998 -170.8L38.8998 -169.8C38.5998 -169.5 38.1998 -169.3 37.7998 -169.3C37.3998 -169.3 36.9998 -169.5 36.7998 -169.8C30.2998 -176.2 19.8998 -176.2 13.3998 -169.8C12.7998 -169.2 11.8998 -169.2 11.2998 -169.8L10.1998 -170.8C9.9998 -171.1 9.7998 -171.5 9.7998 -171.9C9.7998 -172.3 9.9998 -172.7 10.1998 -173ZM3.8998 -179.3C15.5998 -191 34.5998 -191 46.2998 -179.3C46.8998 -178.7 46.8998 -177.8 46.2998 -177.2L45.1998 -176.1C44.9998 -175.9 44.5998 -175.7 44.1998 -175.7C43.7998 -175.7 43.3998 -175.9 43.0998 -176.1C33.1998 -186.1 16.9998 -186.1 7.09981 -176.1C6.7998 -175.9 6.3998 -175.7 5.9998 -175.7C5.59981 -175.7 5.1998 -175.9 4.8998 -176.1L3.8998 -177.2C3.29979 -177.8 3.29979 -178.7 3.8998 -179.3ZM-86.9002 6.40009C-82.2335 5.66675 -77.4669 5.30009 -72.6002 5.30009C-67.7335 5.30009 -62.9669 5.66675 -58.3002 6.40009C-54.3002 6.90009 -51.6002 10.4001 -51.6002 14.3001V26.3001C-51.6002 30.2001 -54.3002 33.7001 -58.3002 34.3001C-60.5669 34.6334 -62.8669 34.9001 -65.2002 35.1001C-65.5002 35.1001 -65.7002 35.2001 -65.8002 35.4001L-71.3002 43.7001C-71.6002 44.1001 -72.1002 44.3001 -72.6002 44.3001C-73.1002 44.3001 -73.6002 44.1001 -73.8002 43.7001L-79.3002 35.4001C-79.5002 35.2001 -79.7002 35.1001 -79.9002 35.1001C-82.3002 34.9001 -84.6335 34.6334 -86.9002 34.3001C-90.8002 33.7001 -93.6002 30.2001 -93.6002 26.3001V14.3001C-93.6002 10.4001 -90.8002 6.90009 -86.9002 6.40009ZM-81.6002 18.8001H-63.6002C-62.8002 18.8001 -62.1002 18.2001 -62.1002 17.3001C-62.1002 16.5001 -62.8002 15.8001 -63.6002 15.8001H-81.6002C-82.4002 15.8001 -83.1002 16.5001 -83.1002 17.3001C-83.1002 18.2001 -82.4002 18.8001 -81.6002 18.8001ZM-81.6002 21.8001C-82.4002 21.8001 -83.1002 22.5001 -83.1002 23.3001C-83.1002 24.2001 -82.4002 24.8001 -81.6002 24.8001H-72.6002C-71.8002 24.8001 -71.1002 24.2001 -71.1002 23.3001C-71.1002 22.5001 -71.8002 21.8001 -72.6002 21.8001H-81.6002Z" fill="#0F172A"/>
<path fill-rule="evenodd" clip-rule="evenodd" d="M5.59991 12.8001C5.59991 9.50009 8.29993 6.80008 11.5999 6.80008H38.5999C41.8999 6.80008 44.5999 9.50009 44.5999 12.8001V36.8001C44.5999 40.1001 41.8999 42.8001 38.5999 42.8001H11.5999C8.29993 42.8001 5.59991 40.1001 5.59991 36.8001V12.8001ZM13.5999 16.9001L16.9999 20.3001L13.5999 23.8001C12.9999 24.4001 12.9999 25.3001 13.5999 25.9001C14.1999 26.5001 15.1 26.5001 15.7 25.9001L20.2 21.4001C20.7999 20.8001 20.7999 19.9001 20.2 19.3001L15.7 14.8001C15.1 14.2001 14.1999 14.2001 13.5999 14.8001C12.9999 15.4001 12.9999 16.3001 13.5999 16.9001ZM22.0999 23.3001C21.2999 23.3001 20.5999 24.0001 20.5999 24.8001C20.5999 25.7001 21.2999 26.3001 22.0999 26.3001H28.0999C28.9999 26.3001 29.5999 25.7001 29.5999 24.8001C29.5999 24.0001 28.9999 23.3001 28.0999 23.3001H22.0999ZM-898.8 -283.9C-898.8 -287.2 -896.1 -289.9 -892.8 -289.9H-865.8C-862.5 -289.9 -859.8 -287.2 -859.8 -283.9V-264.4C-859.8 -261 -862.5 -258.4 -865.8 -258.4H-871.8V-257.8C-871.8 -256.6 -871.3 -255.5 -870.5 -254.7L-869.2 -253.4C-868.8 -253 -868.7 -252.3 -868.9 -251.8C-869.1 -251.2 -869.7 -250.9 -870.3 -250.9H-888.3C-888.9 -250.9 -889.4 -251.2 -889.7 -251.8C-889.9 -252.3 -889.8 -253 -889.3 -253.4L-888.1 -254.7C-887.3 -255.5 -886.8 -256.6 -886.8 -257.8V-258.4H-892.8C-896.1 -258.4 -898.8 -261 -898.8 -264.4V-283.9ZM-895.8 -283.9V-268.9C-895.8 -267.2 -894.4 -265.9 -892.8 -265.9H-865.8C-864.1 -265.9 -862.8 -267.2 -862.8 -268.9V-283.9C-862.8 -285.5 -864.1 -286.9 -865.8 -286.9H-892.8C-894.4 -286.9 -895.8 -285.5 -895.8 -283.9ZM-870.3 33.8001H-888.3V15.8001H-870.3V33.8001Z" fill="#0F172A"/>
</g>
</g>
<defs>
<clipPath id="clip0_70_5437">
<rect width="50" height="50" fill="white"/>
</clipPath>
</defs>
</svg>
