<svg width="50" height="50" viewBox="0 0 50 50" fill="none" xmlns="http://www.w3.org/2000/svg">
<g clip-path="url(#clip0_70_5410)">
<mask id="mask0_70_5410" style="mask-type:luminance" maskUnits="userSpaceOnUse" x="-865" y="-821" width="1564" height="1371">
<path d="M-864.701 -820.635H698.25V549.207H-864.701V-820.635Z" fill="white"/>
</mask>
<g mask="url(#mask0_70_5410)">
<path fill-rule="evenodd" clip-rule="evenodd" d="M-323.936 -60.5553C-324.657 -59.7617 -325.83 -59.7617 -326.551 -60.5553L-344.589 -80.3172L-344.138 -64.7617C-344.138 -63.6505 -344.949 -62.6982 -345.941 -62.6982C-346.933 -62.6982 -347.745 -63.6505 -347.835 -64.7617L-348.376 -85.3172C-348.376 -86.4283 -347.655 -87.3807 -346.663 -87.3807H-328.355C-327.363 -87.3807 -326.551 -86.4283 -326.461 -85.3172C-326.461 -84.2061 -327.273 -83.2537 -328.265 -83.2537H-342.063L-324.026 -63.4918C-323.304 -62.6982 -323.304 -61.349 -323.936 -60.5553ZM-168.813 24.0479C-168.993 12.0638 -160.426 2.38121 -149.693 2.38121C-138.961 2.38121 -130.123 12.1431 -130.032 24.0479C-129.852 36.032 -138.51 45.7145 -149.152 45.7145C-159.884 45.6352 -168.723 36.032 -168.813 24.0479ZM-151.136 32.8574C-151.136 33.9685 -150.325 34.9209 -149.332 34.9209C-148.34 34.9209 -147.529 33.9685 -147.529 32.8574L-147.709 20.4765L-142.839 26.1114C-142.208 26.9844 -141.035 26.9844 -140.314 26.2701C-139.592 25.4764 -139.502 24.2066 -140.224 23.3336L-148.25 13.8891C-148.611 13.4923 -149.062 13.2542 -149.603 13.2542C-150.054 13.2542 -150.595 13.4923 -150.866 13.8891L-158.712 23.3336C-159.343 24.2066 -159.253 25.4764 -158.532 26.2701C-157.81 26.9844 -156.638 26.9844 -156.006 26.1114L-151.317 20.4765L-151.136 32.8574ZM-504.401 -73.4918C-504.401 -72.3013 -505.123 -71.4283 -506.115 -71.4283H-522.168L-516.757 -66.0315C-516.035 -65.2378 -515.945 -63.968 -516.576 -63.1743C-517.208 -62.3807 -518.38 -62.3013 -519.102 -63.095L-527.94 -71.9839C-528.301 -72.3807 -528.571 -72.8569 -528.571 -73.4124C-528.571 -73.968 -528.391 -74.5236 -528.03 -74.9204L-520.003 -83.8093C-519.282 -84.6029 -518.2 -84.6029 -517.388 -83.7299C-516.667 -82.9363 -516.667 -81.6664 -517.388 -80.8728L-522.348 -75.4759H-506.295C-505.303 -75.5553 -504.491 -74.6029 -504.401 -73.4918ZM12.3739 13.2542C11.2916 13.2542 10.48 14.1272 10.48 15.2383V38.3336C10.48 39.5241 11.2916 40.3971 12.2837 40.3971H33.117C34.1091 40.3971 34.9208 39.5241 34.9208 38.413V27.5399C34.9208 26.4288 35.7324 25.4764 36.8147 25.4764C37.8068 25.4764 38.6185 26.4288 38.6185 27.5399V38.413C38.5283 41.7463 36.0933 44.4447 33.0269 44.4447H12.2837C9.3075 44.4447 6.78223 41.7463 6.78223 38.3336L6.87244 15.2383C6.87244 11.905 9.3075 9.12723 12.3739 9.12723H24.5492C25.6315 9.12723 26.4431 10.0796 26.4431 11.1907C26.4431 12.3018 25.6315 13.2542 24.5492 13.2542H12.3739ZM17.244 30.0796L39.5203 7.77803H33.2072C32.2151 7.77803 31.4034 6.90501 31.4034 5.71454C31.4034 4.60342 32.2151 3.73041 33.2072 3.73041H44.3003C45.2924 3.73041 46.1041 4.60342 46.1041 5.71454L46.0139 18.0161C46.0139 19.1272 45.2021 20.0796 44.2101 20.0796C43.218 20.0796 42.4063 19.1272 42.4063 18.0161V10.3177L19.679 33.0955C18.9575 33.8891 17.7851 33.8098 17.1538 32.9368C16.4323 32.1431 16.5225 30.7939 17.244 30.0796ZM-438.835 -73.5712C-438.835 -74.6823 -438.023 -75.6347 -437.031 -75.6347H-420.978L-426.389 -80.9521C-427.11 -81.7458 -427.2 -83.095 -426.569 -83.8886C-425.848 -84.6823 -424.765 -84.7617 -423.954 -83.968L-415.206 -75.0791C-414.845 -74.6823 -414.574 -74.1267 -414.574 -73.5712C-414.574 -73.0156 -414.755 -72.4601 -415.115 -72.1426L-423.232 -63.1743C-423.954 -62.4601 -425.126 -62.4601 -425.848 -63.2537C-426.569 -64.0474 -426.569 -65.3966 -425.848 -66.1902L-420.797 -71.5077H-436.941C-437.933 -71.5077 -438.744 -72.3807 -438.835 -73.5712ZM-246.825 -67.6982C-246.104 -66.9045 -246.104 -65.6347 -246.825 -64.841C-247.547 -63.968 -248.629 -63.968 -249.351 -64.841L-253.589 -69.4442C-253.409 -66.5341 -253.138 -63.6505 -252.778 -60.7934C-252.687 -59.9204 -252.056 -59.2855 -251.244 -59.2061C-248.358 -58.8886 -245.442 -58.7299 -242.496 -58.7299C-239.55 -58.7299 -236.634 -58.8886 -233.748 -59.2061C-232.936 -59.2855 -232.305 -59.9204 -232.305 -60.7934C-232.185 -62.222 -232.065 -63.6505 -231.944 -65.0791C-231.944 -66.1902 -231.042 -67.0632 -230.05 -66.9839C-229.058 -66.9045 -228.247 -65.8728 -228.337 -64.7617C-228.397 -63.2802 -228.487 -61.7987 -228.607 -60.3172C-228.878 -57.5394 -230.862 -55.3172 -233.297 -55.0791C-236.303 -54.7617 -239.34 -54.6029 -242.406 -54.6029C-245.472 -54.6029 -248.509 -54.7617 -251.515 -55.0791C-254.04 -55.3172 -256.115 -57.5394 -256.385 -60.3172C-256.806 -63.386 -257.107 -66.4812 -257.287 -69.6029L-261.436 -64.7617C-262.157 -63.968 -263.239 -63.968 -263.961 -64.7617C-264.773 -65.5553 -264.773 -66.9045 -264.051 -67.6982L-256.926 -75.9521C-256.205 -76.7458 -255.032 -76.7458 -254.311 -75.9521L-246.825 -67.6982ZM-251.876 -88.4125C-252.687 -88.3331 -253.229 -87.6982 -253.319 -86.7458C-253.439 -85.3701 -253.529 -83.968 -253.589 -82.5394C-253.68 -81.349 -254.581 -80.5553 -255.573 -80.6347C-256.566 -80.714 -257.377 -81.6664 -257.287 -82.8569C-257.227 -84.3384 -257.137 -85.8199 -257.016 -87.3013C-256.746 -90.0791 -254.762 -92.3013 -252.237 -92.5394C-249.29 -92.8569 -246.254 -93.0156 -243.128 -93.0156C-240.061 -93.0156 -237.025 -92.8569 -234.019 -92.5394C-231.493 -92.3013 -229.509 -90.1585 -229.148 -87.3013C-228.728 -84.2326 -228.457 -81.1373 -228.337 -78.0156L-224.098 -82.7775C-223.467 -83.6505 -222.294 -83.6505 -221.573 -82.7775C-220.851 -81.9839 -220.761 -80.714 -221.483 -79.9204L-228.698 -71.6664C-229.329 -70.8728 -230.501 -70.8728 -231.223 -71.6664L-238.708 -79.841C-239.43 -80.714 -239.43 -81.9839 -238.799 -82.7775C-238.077 -83.5712 -236.905 -83.5712 -236.183 -82.7775L-231.944 -78.1743C-232.125 -81.0844 -232.395 -83.968 -232.756 -86.8251C-232.846 -87.6982 -233.478 -88.4125 -234.289 -88.4125C-237.175 -88.7299 -240.091 -88.8886 -243.037 -88.8886C-246.044 -88.8886 -248.99 -88.7299 -251.876 -88.4125ZM-68.1636 -84.6823C-70.5987 -84.6823 -72.673 -86.9045 -72.673 -89.7617C-72.673 -92.5394 -70.6889 -94.7617 -68.1636 -94.7617C-65.7286 -94.7617 -63.6543 -92.5394 -63.6543 -89.7617C-63.6543 -86.9839 -65.6384 -84.6823 -68.1636 -84.6823ZM-59.7762 -87.8569C-60.6781 -87.8569 -61.3996 -88.7299 -61.3996 -89.7617C-61.3996 -90.7934 -60.6781 -91.6664 -59.7762 -91.6664H-47.4205C-46.5186 -91.6664 -45.707 -90.7934 -45.707 -89.7617C-45.707 -88.7299 -46.4284 -87.8569 -47.4205 -87.8569H-59.7762ZM-74.9277 -89.7617C-74.9277 -88.7299 -75.6492 -87.8569 -76.5511 -87.8569H-79.9782C-80.8801 -87.8569 -81.6016 -88.6505 -81.6016 -89.7617C-81.6016 -90.7934 -80.8801 -91.5871 -79.9782 -91.5871L-76.6413 -91.6664C-75.6492 -91.6664 -74.9277 -90.7934 -74.9277 -89.7617ZM-79.7077 -56.4283C-80.6997 -56.4283 -81.4212 -57.3013 -81.4212 -58.3331C-81.4212 -59.3648 -80.6997 -60.2379 -79.7979 -60.2379H-76.3707C-75.4688 -60.2379 -74.7473 -59.3648 -74.7473 -58.3331C-74.7473 -57.3013 -75.4688 -56.4283 -76.3707 -56.4283H-79.7077ZM-59.5958 -56.4283C-60.4977 -56.4283 -61.3094 -57.3013 -61.3094 -58.3331C-61.3094 -59.3648 -60.4977 -60.2379 -59.5958 -60.2379H-47.3303C-46.3383 -60.2379 -45.6167 -59.3648 -45.6167 -58.3331C-45.6167 -57.3013 -46.3382 -56.5077 -47.2401 -56.5077L-59.5958 -56.4283ZM-65.9089 -73.968C-65.9089 -72.9362 -66.6305 -72.0632 -67.5323 -72.0632H-79.888C-80.7899 -72.0632 -81.5114 -72.9362 -81.6016 -73.968C-81.6016 -74.9997 -80.7899 -75.7934 -79.888 -75.7934L-67.5323 -75.8728C-66.6305 -75.8728 -65.9089 -74.9997 -65.9089 -73.968ZM-50.7574 -72.0632C-51.6593 -72.0632 -52.471 -72.9362 -52.471 -73.968C-52.471 -74.9997 -51.6593 -75.8728 -50.7574 -75.8728H-47.4205C-46.5186 -75.8728 -45.707 -74.9997 -45.707 -73.968C-45.707 -72.9362 -46.4284 -72.0632 -47.4205 -72.0632H-50.7574ZM-59.1449 -68.968C-61.58 -68.968 -63.5641 -71.1902 -63.6543 -73.968C-63.6543 -76.7458 -61.6701 -78.968 -59.1449 -78.968C-56.7098 -79.0474 -54.6355 -76.7458 -54.6355 -73.968C-54.6355 -71.1902 -56.6196 -68.968 -59.1449 -68.968ZM-67.9833 -53.2537C-70.4183 -53.2537 -72.4926 -55.4759 -72.4926 -58.2537C-72.4926 -61.0315 -70.5085 -63.2537 -68.0735 -63.2537C-65.5482 -63.2537 -63.5641 -61.0315 -63.5641 -58.2537C-63.5641 -55.4759 -65.5482 -53.2537 -67.9833 -53.2537ZM294.391 -195.079C295.383 -195.079 296.284 -194.127 296.194 -192.936L295.383 -157.778C295.383 -156.587 294.481 -155.635 293.489 -155.635H289.701C288.709 -155.635 287.897 -156.587 287.897 -157.778L288.709 -192.936C288.709 -194.127 289.611 -195.079 290.603 -195.079H294.391ZM311.977 -195.158C312.969 -195.158 313.871 -194.206 313.781 -193.016L312.879 -157.778C312.879 -156.666 312.067 -155.714 310.985 -155.714H307.197C306.205 -155.714 305.393 -156.587 305.393 -157.778L306.295 -193.016C306.295 -194.127 307.197 -195.079 308.189 -195.079L311.977 -195.158ZM200.866 -163.968L204.203 -172.778C204.744 -174.206 205.466 -175.476 206.458 -176.587L224.134 -196.111C226.209 -198.492 229.546 -198.492 231.62 -196.19C233.604 -193.809 233.604 -190.079 231.44 -187.698L213.853 -168.174C212.861 -167.063 211.688 -166.27 210.426 -165.714L202.489 -162.143C201.497 -161.666 200.505 -162.778 200.866 -163.968ZM195.996 -160.158C195.996 -158.254 197.349 -156.666 199.062 -156.666L222.781 -156.746C224.495 -156.746 225.938 -158.333 225.938 -160.238L226.209 -175C226.209 -176.19 227.111 -177.143 228.103 -177.143C229.185 -177.143 229.997 -176.19 229.997 -175L229.726 -160.317C229.636 -156.031 226.479 -152.539 222.691 -152.539L198.972 -152.46C195.274 -152.46 192.208 -155.952 192.298 -160.158L192.659 -186.905C192.749 -191.111 195.906 -194.603 199.693 -194.603L212.771 -194.682C213.853 -194.682 214.665 -193.73 214.665 -192.539C214.665 -191.428 213.763 -190.476 212.771 -190.476L199.603 -190.397C197.89 -190.397 196.447 -188.809 196.447 -186.905L195.996 -160.158ZM104.004 -165.873L131.512 -196.587C133.586 -198.968 137.013 -198.968 138.997 -196.666C141.072 -194.285 140.981 -190.555 138.907 -188.174L111.4 -157.46C110.498 -156.428 109.326 -155.555 108.063 -155L100.217 -151.428C99.2245 -150.952 98.2324 -152.063 98.5932 -153.254L101.84 -162.063C102.291 -163.492 103.103 -164.762 104.004 -165.873ZM6.96265 -91.9839C6.96265 -94.2855 8.67615 -96.1902 10.6603 -96.1902H13.5463C15.2599 -96.1902 16.793 -94.841 17.1538 -92.9363L18.8674 -84.0474C19.3183 -81.9045 18.1459 -79.7617 16.252 -79.1267L13.9973 -78.4124C13.0052 -78.095 12.3739 -76.8251 12.8248 -75.7934C15.6206 -68.0156 21.2123 -61.7458 28.1567 -58.5712C29.1487 -58.095 30.231 -58.7299 30.5016 -59.9204L31.1329 -62.4601C31.674 -64.5236 33.5679 -65.7934 35.4619 -65.3966L43.3984 -63.4124C45.112 -63.0156 46.2844 -61.2696 46.2844 -59.3648V-56.1902C46.2844 -53.968 44.661 -52.0632 42.5867 -52.0632H38.889C36.0933 -52.0632 33.3876 -52.4601 30.7722 -53.2537C19.6791 -56.5077 10.9309 -66.2696 8.04486 -78.6505C7.32336 -81.5871 6.96265 -84.6823 6.96265 -87.8569V-91.9839Z" fill="#0F172A"/>
<path fill-rule="evenodd" clip-rule="evenodd" d="M278.066 111.826C278.157 108.572 280.592 105.874 283.568 105.874L308.009 105.953C310.985 105.953 313.33 108.572 313.24 111.905L312.608 135.635C312.518 138.889 310.083 141.588 307.107 141.588L282.756 141.508C279.78 141.508 277.435 138.81 277.525 135.556L278.066 111.826ZM285.101 115.874L288.167 119.286L284.921 122.699C284.38 123.254 284.38 124.207 284.921 124.762C285.462 125.318 286.273 125.318 286.815 124.762L290.963 120.318C291.504 119.762 291.595 118.81 291.053 118.254L287.085 113.731C286.544 113.175 285.732 113.175 285.191 113.731C284.65 114.366 284.65 115.318 285.101 115.874ZM292.677 122.223C291.955 122.223 291.324 122.937 291.324 123.731C291.324 124.524 291.865 125.239 292.587 125.239H297.998C298.81 125.239 299.441 124.604 299.441 123.731C299.441 122.937 298.81 122.302 298.088 122.302L292.677 122.223ZM-538.763 -186.666C-538.853 -190.079 -536.598 -192.857 -533.622 -192.857L-509.361 -192.936C-506.385 -192.936 -503.86 -190.238 -503.68 -186.825L-502.958 -166.825C-502.778 -163.492 -505.123 -160.714 -508.009 -160.714H-513.42V-160.158C-513.33 -158.968 -512.879 -157.777 -512.067 -156.904L-510.895 -155.634C-510.534 -155.238 -510.353 -154.523 -510.534 -153.968C-510.714 -153.412 -511.255 -153.015 -511.796 -153.015H-527.85C-528.391 -153.015 -528.932 -153.333 -529.203 -153.968C-529.383 -154.523 -529.293 -155.158 -528.932 -155.634L-527.85 -156.904C-527.219 -157.777 -526.768 -158.888 -526.858 -160.158V-160.634H-532.269C-535.245 -160.634 -537.77 -163.333 -537.861 -166.746L-538.763 -186.666ZM-536.057 -186.666L-535.426 -171.349C-535.335 -169.603 -534.073 -168.253 -532.63 -168.253L-508.369 -168.333C-506.926 -168.333 -505.754 -169.682 -505.844 -171.428L-506.475 -186.746C-506.566 -188.492 -507.828 -189.841 -509.271 -189.841L-533.532 -189.761C-534.975 -189.761 -536.147 -188.412 -536.057 -186.666ZM-500.162 130.715H-515.945L-516.667 113.175H-500.884L-500.162 130.715Z" fill="#0F172A"/>
<path fill-rule="evenodd" clip-rule="evenodd" d="M-435.498 3.0957H-429.455C-425.758 3.0957 -422.691 6.42904 -422.601 10.556L-422.421 14.2862C-422.33 16.3497 -420.797 18.0163 -418.994 18.0163H-415.657C-411.959 18.0163 -408.893 21.3497 -408.802 25.4767L-408.261 41.0322C-408.171 43.0957 -409.614 44.7624 -411.418 44.7624H-433.965C-435.859 44.7624 -437.392 43.0957 -437.482 41.0322L-438.654 6.82586C-438.745 4.76237 -437.302 3.0957 -435.498 3.0957ZM-423.683 35.8735C-422.511 35.8735 -421.429 35.4767 -420.527 34.8417L-418.633 36.9052C-418.092 37.4608 -417.28 37.4608 -416.739 36.9052C-416.198 36.3497 -416.288 35.3973 -416.829 34.8417L-418.723 32.6989C-418.182 31.6671 -417.911 30.4767 -417.911 29.2068C-418.092 25.4767 -420.887 22.4608 -424.134 22.4608C-427.471 22.4608 -429.996 25.4767 -429.906 29.1275C-429.726 32.8576 -427.02 35.8735 -423.683 35.8735ZM-419.895 10.556C-419.986 7.93697 -420.887 5.55602 -422.421 3.73062C-416.288 5.47666 -411.418 10.7941 -409.614 17.5401C-411.237 15.9528 -413.402 15.0005 -415.747 15.0005H-419.084C-419.444 15.0005 -419.805 14.683 -419.805 14.2862L-419.895 10.556ZM-253.86 44.6036C-256.836 44.6036 -259.271 41.9052 -259.361 38.6513L-259.722 22.3814L-247.276 30.3973L-253.409 34.1275C-254.04 34.5243 -254.311 35.3973 -253.86 36.1116C-253.499 36.8259 -252.688 37.1433 -252.056 36.7465L-242.045 30.6354C-241.324 30.1592 -240.332 30.1592 -239.52 30.6354L-229.329 36.7465C-228.608 37.1433 -227.796 36.9052 -227.525 36.1909C-227.165 35.3973 -227.435 34.5243 -228.066 34.1275L-234.38 30.3973L-222.204 22.3814L-221.934 38.6513C-221.843 41.9846 -224.188 44.6036 -227.165 44.6036H-253.86ZM-259.722 18.9687L-259.812 17.4608C-259.812 15.2386 -258.82 13.2544 -257.107 12.2227L-243.849 4.12745C-242.316 3.17507 -240.422 3.17507 -238.799 4.12745L-225.271 12.2227C-223.467 13.2544 -222.385 15.2386 -222.294 17.4608V18.9687L-237.175 28.7306L-238.348 28.0957C-239.881 27.1433 -241.865 27.1433 -243.398 28.0957L-244.571 28.7306L-259.722 18.9687ZM-150.685 134.604C-150.685 133.016 -149.513 131.667 -147.98 131.667C-146.537 131.667 -145.364 133.016 -145.364 134.604C-145.274 136.27 -146.447 137.54 -147.98 137.54C-149.423 137.54 -150.595 136.27 -150.685 134.604ZM-150.776 122.858C-150.776 121.191 -149.603 119.921 -148.16 119.921C-146.717 119.921 -145.455 121.191 -145.455 122.858C-145.455 124.445 -146.627 125.794 -148.07 125.794C-149.603 125.794 -150.776 124.445 -150.776 122.858ZM-150.956 111.032C-150.956 109.445 -149.784 108.096 -148.341 108.096C-146.807 108.096 -145.635 109.445 -145.635 111.032C-145.545 112.699 -146.807 114.048 -148.25 113.969C-149.693 113.969 -150.956 112.699 -150.956 111.032ZM-241.595 126.905C-239.881 128.016 -237.716 128.016 -236.093 126.905L-220.491 116.191L-220.13 132.937C-220.13 136.191 -222.475 138.81 -225.361 138.81L-251.876 138.731C-254.762 138.731 -257.197 136.112 -257.287 132.858L-257.648 116.112L-241.595 126.905ZM-237.446 124.366C-238.348 124.921 -239.34 124.921 -240.242 124.366L-257.648 112.62V112.302C-257.738 109.048 -255.393 106.429 -252.507 106.429L-225.902 106.508C-223.016 106.508 -220.581 109.127 -220.491 112.381V112.699L-237.446 124.366ZM-337.735 132.699C-337.735 131.826 -337.193 131.191 -336.472 131.191L-315.368 131.27C-314.556 131.27 -314.015 131.905 -313.925 132.699C-313.925 133.493 -314.556 134.207 -315.278 134.207L-336.382 134.127C-337.103 134.127 -337.735 133.493 -337.735 132.699ZM-346.302 132.62C-346.393 131.429 -345.491 130.477 -344.408 130.477C-343.326 130.477 -342.424 131.429 -342.334 132.62C-342.334 133.889 -343.236 134.842 -344.318 134.842C-345.4 134.842 -346.302 133.889 -346.302 132.62ZM-338.005 122.381C-338.095 121.588 -337.464 120.953 -336.742 120.953H-315.548C-314.827 120.953 -314.286 121.667 -314.196 122.461C-314.196 123.254 -314.827 123.889 -315.548 123.889H-336.652C-337.374 123.889 -338.005 123.175 -338.005 122.381ZM-346.663 122.381C-346.663 121.191 -345.761 120.159 -344.679 120.159C-343.597 120.159 -342.695 121.191 -342.695 122.381C-342.605 123.572 -343.507 124.604 -344.589 124.604C-345.671 124.604 -346.573 123.572 -346.663 122.381ZM-338.366 112.143C-338.366 111.27 -337.735 110.635 -337.013 110.635L-315.819 110.715C-315.097 110.715 -314.556 111.35 -314.466 112.143C-314.466 113.016 -315.007 113.651 -315.819 113.651L-336.923 113.572C-337.735 113.572 -338.276 112.937 -338.366 112.143ZM-346.934 112.064C-346.934 110.873 -346.122 109.921 -345.04 109.921C-343.867 109.921 -342.965 110.873 -342.965 112.143C-342.875 113.334 -343.777 114.286 -344.859 114.286C-345.942 114.286 -346.843 113.334 -346.934 112.064ZM110.047 121.191C110.047 118.334 112.211 115.953 114.827 115.953C117.352 115.953 119.517 118.334 119.426 121.191C119.426 122.62 118.885 123.889 118.074 124.842C117.172 125.794 115.999 126.35 114.737 126.35C112.121 126.35 110.047 124.048 110.047 121.191Z" fill="#0F172A"/>
<path fill-rule="evenodd" clip-rule="evenodd" d="M134.037 123.413C133.947 133.969 126.01 142.54 116.36 142.54C106.71 142.54 99.044 133.889 99.1342 123.334C99.2244 112.699 107.071 104.048 116.721 104.127C126.371 104.127 134.127 112.778 134.037 123.413ZM114.646 113.016C110.588 112.937 107.251 116.588 107.161 121.111C107.161 125.635 110.408 129.286 114.466 129.286C116.089 129.286 117.533 128.73 118.705 127.857L122.222 131.826C122.763 132.381 123.575 132.381 124.116 131.826C124.657 131.191 124.657 130.318 124.206 129.683L120.599 125.715C121.411 124.445 121.952 122.857 121.952 121.111C122.042 116.667 118.705 113.016 114.646 113.016ZM43.6689 103.969C44.3904 103.969 44.9315 104.603 44.9315 105.476C44.9315 106.27 44.3904 106.905 43.6689 106.905H42.316L42.2258 127.619C42.2258 130.873 39.7907 133.492 36.8146 133.492H34.6501L36.7244 140.397C36.995 141.191 36.6342 141.984 35.9127 142.302C35.1912 142.54 34.4697 142.143 34.1992 141.349L33.658 139.365H18.5967L18.0555 141.27C17.785 142.064 17.0635 142.461 16.342 142.223C15.6205 141.984 15.2598 141.111 15.4402 140.397L17.6046 133.492H15.4402C12.464 133.413 10.119 130.794 10.119 127.54V106.826H8.76624C8.04474 106.826 7.41342 106.191 7.41342 105.397C7.41342 104.524 8.04474 103.889 8.76624 103.889L43.6689 103.969ZM27.5252 117.223C27.5252 116.429 26.894 115.794 26.1724 115.794C25.4509 115.794 24.8196 116.429 24.8196 117.223V124.603C24.8196 125.476 25.4509 126.111 26.1724 126.111C26.894 126.111 27.5252 125.476 27.5252 124.683V117.223ZM32.8463 112.778C32.8463 111.905 32.3052 111.27 31.5837 111.27C30.772 111.27 30.2309 111.905 30.2309 112.778L30.1407 124.603C30.1407 125.397 30.772 126.032 31.4935 126.032C32.215 126.032 32.8463 125.397 32.8463 124.603V112.778ZM32.7561 136.35L31.8542 133.413H20.4005L19.4986 136.35H32.7561ZM22.114 121.588C22.114 120.794 21.5729 120.08 20.7612 120.08C20.0397 120.08 19.4986 120.794 19.4986 121.588L19.4084 124.524C19.4084 125.318 20.0397 126.032 20.7612 126.032C21.4827 126.032 22.114 125.318 22.114 124.524V121.588ZM217.009 3.01616C218.813 3.01616 220.346 4.76219 220.346 6.82568L220.166 12.8574C220.948 12.9633 221.729 13.0691 222.511 13.1749C225.126 13.6511 226.93 16.1908 226.93 19.0479L226.659 31.667C226.569 35.0003 224.134 37.6987 221.068 37.6987H220.617L220.797 41.1114C220.978 43.3336 219.354 45.2384 217.37 45.2384L200.144 45.159C198.16 45.159 196.627 43.2543 196.807 41.1114L197.168 37.6987H196.717C193.651 37.6987 191.306 35.0003 191.306 31.667L191.576 19.0479C191.576 16.1908 193.47 13.6511 196.086 13.1749C196.867 13.0691 197.649 12.9633 198.431 12.8574L198.521 6.82568C198.521 4.76219 200.144 3.01616 201.948 3.01616H217.009ZM220.076 22.6987H220.166C220.888 22.6987 221.519 21.9844 221.519 21.1908V21.1114C221.519 20.3177 220.888 19.6035 220.166 19.6035C219.444 19.6035 218.813 20.3177 218.813 21.1114C218.723 21.9844 219.354 22.6987 220.076 22.6987ZM209.163 28.6511C206.518 28.6511 203.932 28.8098 201.407 29.1273C201.046 29.1273 200.776 29.4447 200.776 29.7622L199.603 41.3495C199.603 41.8257 199.874 42.2225 200.234 42.2225H217.551C217.911 42.2225 218.272 41.8257 218.182 41.3495L217.46 29.7622C217.46 29.4447 217.19 29.1273 216.919 29.1273C214.334 28.8098 211.748 28.6511 209.163 28.6511ZM217.551 12.54L217.641 6.82568C217.641 6.42886 217.37 6.03204 217.009 6.03204H202.038C201.677 6.03204 201.317 6.42886 201.317 6.82568L201.227 12.54C203.932 12.2225 206.668 12.0638 209.434 12.0638C212.199 12.0638 214.905 12.2225 217.551 12.54ZM214.755 19.6035C213.943 19.6035 213.312 20.3177 213.312 21.1114V21.1908C213.312 21.9844 213.943 22.6987 214.664 22.6987C215.476 22.6987 216.017 21.9844 216.108 21.1908V21.1114C216.108 20.3177 215.476 19.6035 214.755 19.6035ZM-79.9783 125.794C-79.9783 116.826 -73.4849 109.603 -65.368 109.603C-64.6465 109.603 -64.0152 110.238 -64.0152 111.111L-63.925 124.365H-51.93C-51.2085 124.365 -50.5772 125.08 -50.5772 125.873C-50.5772 134.842 -57.0707 142.064 -65.1876 141.984C-73.3045 141.984 -79.8882 134.762 -79.9783 125.794ZM-61.3997 105.159C-61.3997 104.365 -60.7684 103.651 -60.0469 103.73C-51.93 103.73 -45.2561 111.032 -45.2561 120C-45.2561 120.794 -45.8874 121.429 -46.6089 121.429H-59.9567C-60.6782 121.429 -61.3095 120.715 -61.3095 119.921L-61.3997 105.159ZM-412.41 -155.952C-411.869 -155.317 -411.869 -154.365 -412.32 -153.73C-412.861 -153.174 -413.672 -153.174 -414.214 -153.73L-447.944 -190.555C-448.485 -191.111 -448.485 -192.143 -447.944 -192.698C-447.493 -193.333 -446.591 -193.333 -446.05 -192.698L-412.41 -155.952ZM-410.877 -161.666C-410.877 -160.714 -411.147 -159.92 -411.688 -159.365L-420.617 -169.047L-420.978 -181.587L-416.378 -187.143C-414.664 -189.127 -411.779 -187.777 -411.688 -185L-410.877 -161.666ZM-423.683 -182.539L-423.323 -172.143L-438.474 -188.651H-429.275C-426.299 -188.651 -423.773 -185.873 -423.683 -182.539ZM-449.387 -182.46C-449.387 -184.047 -448.936 -185.476 -448.034 -186.587L-424.044 -160.317C-424.946 -158.889 -426.479 -157.936 -428.283 -157.936L-443.074 -157.857C-446.05 -157.857 -448.575 -160.635 -448.665 -163.968L-449.387 -182.46Z" fill="#0F172A"/>
</g>
</g>
<defs>
<clipPath id="clip0_70_5410">
<rect width="50" height="50" fill="white"/>
</clipPath>
</defs>
</svg>
