<svg width="50" height="50" viewBox="0 0 50 50" fill="none" xmlns="http://www.w3.org/2000/svg">
<g clip-path="url(#clip0_70_5435)">
<mask id="mask0_70_5435" style="mask-type:luminance" maskUnits="userSpaceOnUse" x="-1019" y="-861" width="1584" height="1224">
<path d="M-1019 -861H565V363H-1019V-861Z" fill="white"/>
</mask>
<g mask="url(#mask0_70_5435)">
<path fill-rule="evenodd" clip-rule="evenodd" d="M0.799805 -192.4C0.799805 -193.5 1.6998 -194.4 2.7998 -194.4H47.4998C48.6998 -194.4 49.5998 -193.5 49.5998 -192.4C49.5998 -191.3 48.6998 -190.3 47.4998 -190.3H46.8998V-166.6C46.8998 -162.5 43.4998 -159.2 39.3998 -159.2H36.4998L38.6998 -150.9C38.8998 -149.8 38.2998 -148.7 37.1998 -148.4C36.0998 -148.1 34.9998 -148.7 34.6998 -149.8L34.3998 -151H15.8998L15.5998 -149.8C15.2998 -148.7 14.1998 -148.1 13.0998 -148.4C11.9998 -148.7 11.3998 -149.8 11.6998 -150.9L13.7998 -159.2H10.8998C6.7998 -159.2 3.4998 -162.5 3.4998 -166.6V-190.3H2.7998C1.6998 -190.3 0.799805 -191.3 0.799805 -192.4ZM14.2998 -173.4V-169.3C14.2998 -168.2 15.1998 -167.3 16.3998 -167.3C17.4998 -167.3 18.3998 -168.2 18.3998 -169.3V-173.4C18.3998 -174.5 17.4998 -175.4 16.3998 -175.4C15.1998 -175.4 14.2998 -174.5 14.2998 -173.4ZM31.8998 -184.2V-169.3C31.8998 -168.2 32.8998 -167.3 33.9998 -167.3C35.0998 -167.3 35.9998 -168.2 35.9998 -169.3V-184.2C35.9998 -185.4 35.0998 -186.3 33.9998 -186.3C32.8998 -186.3 31.8998 -185.4 31.8998 -184.2ZM17.9998 -159.2L16.9998 -155.1H33.3998L32.2998 -159.2H17.9998ZM27.1998 -178.8C27.1998 -179.9 26.1998 -180.9 25.0998 -180.9C23.9998 -180.9 23.0998 -179.9 23.0998 -178.8V-169.3C23.0998 -168.2 23.9998 -167.3 25.0998 -167.3C26.1998 -167.3 27.1998 -168.2 27.1998 -169.3V-178.8ZM14.1998 -87.3999C14.8998 -86.6999 14.8998 -85.4999 14.1998 -84.7999C8.1998 -78.7999 8.1998 -68.9999 14.1998 -62.9999C20.1998 -56.9999 29.9998 -56.9999 35.9998 -62.9999C42.0998 -68.9999 42.0998 -78.7999 35.9998 -84.7999C35.2998 -85.4999 35.2998 -86.6999 35.9998 -87.3999C36.6998 -87.9999 37.8998 -87.9999 38.5998 -87.3999C45.9998 -79.8999 45.9998 -67.8999 38.5998 -60.4999C31.0998 -53.0999 19.0998 -53.0999 11.6998 -60.4999C4.2998 -67.8999 4.2998 -79.8999 11.6998 -87.3999C12.3998 -87.9999 13.4998 -87.9999 14.1998 -87.3999ZM25.0998 -92.8999C26.0998 -92.8999 26.8998 -92.0999 26.8998 -91.0999V-73.2999C26.8998 -72.2999 26.0998 -71.4999 25.0998 -71.4999C24.0998 -71.4999 23.2998 -72.2999 23.2998 -73.2999V-91.0999C23.2998 -92.0999 24.0998 -92.8999 25.0998 -92.8999ZM215.1 -91.8999C215.9 -91.8999 216.6 -91.1999 216.6 -90.3999C216.6 -89.5999 215.9 -88.8999 215.1 -88.8999H212.1C210.4 -88.8999 209.1 -87.5999 209.1 -85.8999V-82.8999C209.1 -82.0999 208.4 -81.3999 207.6 -81.3999C206.8 -81.3999 206.1 -82.0999 206.1 -82.8999V-85.8999C206.1 -89.1999 208.8 -91.8999 212.1 -91.8999H215.1ZM236.1 -91.8999C239.4 -91.8999 242.1 -89.1999 242.1 -85.8999V-82.8999C242.1 -82.0999 241.4 -81.3999 240.6 -81.3999C239.8 -81.3999 239.1 -82.0999 239.1 -82.8999V-85.8999C239.1 -87.5999 237.7 -88.8999 236.1 -88.8999H233.1C232.3 -88.8999 231.6 -89.5999 231.6 -90.3999C231.6 -91.1999 232.3 -91.8999 233.1 -91.8999H236.1ZM231.6 -73.8999C231.6 -69.7999 228.2 -66.3999 224.1 -66.3999C219.9 -66.3999 216.6 -69.7999 216.6 -73.8999C216.6 -78.0999 219.9 -81.3999 224.1 -81.3999C228.2 -81.3999 231.6 -78.0999 231.6 -73.8999ZM209.1 -61.8999C209.1 -60.2999 210.4 -58.8999 212.1 -58.8999H215.1C215.9 -58.8999 216.6 -58.1999 216.6 -57.3999C216.6 -56.5999 215.9 -55.8999 215.1 -55.8999H212.1C208.8 -55.8999 206.1 -58.5999 206.1 -61.8999V-64.8999C206.1 -65.6999 206.8 -66.3999 207.6 -66.3999C208.4 -66.3999 209.1 -65.6999 209.1 -64.8999V-61.8999ZM242.1 -61.8999C242.1 -58.5999 239.4 -55.8999 236.1 -55.8999H233.1C232.3 -55.8999 231.6 -56.5999 231.6 -57.3999C231.6 -58.1999 232.3 -58.8999 233.1 -58.8999H236.1C237.7 -58.8999 239.1 -60.2999 239.1 -61.8999V-64.8999C239.1 -65.6999 239.8 -66.3999 240.6 -66.3999C241.4 -66.3999 242.1 -65.6999 242.1 -64.8999V-61.8999ZM222 -159.2C223.2 -160.4 225.1 -160.4 226.3 -159.2C226.8 -158.6 226.8 -157.7 226.3 -157.1L225.2 -156.1C224.9 -155.8 224.5 -155.6 224.1 -155.6C223.7 -155.6 223.4 -155.8 223.1 -156.1L222 -157.1C221.4 -157.7 221.4 -158.6 222 -159.2ZM215.6 -165.6C220.3 -170.3 227.9 -170.3 232.6 -165.6C233.2 -165 233.2 -164.1 232.6 -163.5L231.6 -162.4C231.3 -162.1 230.9 -162 230.5 -162C230.1 -162 229.7 -162.1 229.4 -162.4C226.5 -165.3 221.8 -165.3 218.8 -162.4C218.2 -161.8 217.3 -161.8 216.7 -162.4L215.6 -163.5C215.1 -164.1 215.1 -165 215.6 -165.6ZM209.2 -172C217.4 -180.2 230.7 -180.2 238.9 -172C239.5 -171.4 239.5 -170.4 238.9 -169.8L237.9 -168.8C237.6 -168.5 237.2 -168.3 236.8 -168.3C236.4 -168.3 236 -168.5 235.8 -168.8C229.3 -175.2 218.9 -175.2 212.4 -168.8C211.8 -168.2 210.9 -168.2 210.3 -168.8L209.2 -169.8C209 -170.1 208.8 -170.5 208.8 -170.9C208.8 -171.3 209 -171.7 209.2 -172ZM202.9 -178.3C214.6 -190 233.6 -190 245.3 -178.3C245.9 -177.7 245.9 -176.8 245.3 -176.2L244.2 -175.1C244 -174.9 243.6 -174.7 243.2 -174.7C242.8 -174.7 242.4 -174.9 242.1 -175.1C232.2 -185.1 216 -185.1 206.1 -175.1C205.8 -174.9 205.4 -174.7 205 -174.7C204.6 -174.7 204.2 -174.9 203.9 -175.1L202.9 -176.2C202.3 -176.8 202.3 -177.7 202.9 -178.3ZM112.1 7.40009C116.766 6.66675 121.533 6.30009 126.4 6.30009C131.266 6.30009 136.033 6.66675 140.7 7.40009C144.7 7.90009 147.4 11.4001 147.4 15.3001V27.3001C147.4 31.2001 144.7 34.7001 140.7 35.3001C138.433 35.6334 136.133 35.9001 133.8 36.1001C133.5 36.1001 133.3 36.2001 133.2 36.4001L127.7 44.7001C127.4 45.1001 126.9 45.3001 126.4 45.3001C125.9 45.3001 125.4 45.1001 125.2 44.7001L119.7 36.4001C119.5 36.2001 119.3 36.1001 119.1 36.1001C116.7 35.9001 114.366 35.6334 112.1 35.3001C108.2 34.7001 105.4 31.2001 105.4 27.3001V15.3001C105.4 11.4001 108.2 7.90009 112.1 7.40009ZM117.4 19.8001H135.4C136.2 19.8001 136.9 19.2001 136.9 18.3001C136.9 17.5001 136.2 16.8001 135.4 16.8001H117.4C116.6 16.8001 115.9 17.5001 115.9 18.3001C115.9 19.2001 116.6 19.8001 117.4 19.8001ZM117.4 22.8001C116.6 22.8001 115.9 23.5001 115.9 24.3001C115.9 25.2001 116.6 25.8001 117.4 25.8001H126.4C127.2 25.8001 127.9 25.2001 127.9 24.3001C127.9 23.5001 127.2 22.8001 126.4 22.8001H117.4Z" fill="#0F172A"/>
<path fill-rule="evenodd" clip-rule="evenodd" d="M204.6 13.8001C204.6 10.5001 207.3 7.80008 210.6 7.80008H237.6C240.9 7.80008 243.6 10.5001 243.6 13.8001V37.8001C243.6 41.1001 240.9 43.8001 237.6 43.8001H210.6C207.3 43.8001 204.6 41.1001 204.6 37.8001V13.8001ZM212.6 17.9001L216 21.3001L212.6 24.8001C212 25.4001 212 26.3001 212.6 26.9001C213.2 27.5001 214.1 27.5001 214.7 26.9001L219.2 22.4001C219.8 21.8001 219.8 20.9001 219.2 20.3001L214.7 15.8001C214.1 15.2001 213.2 15.2001 212.6 15.8001C212 16.4001 212 17.3001 212.6 17.9001ZM221.1 24.3001C220.3 24.3001 219.6 25.0001 219.6 25.8001C219.6 26.7001 220.3 27.3001 221.1 27.3001H227.1C228 27.3001 228.6 26.7001 228.6 25.8001C228.6 25.0001 228 24.3001 227.1 24.3001H221.1ZM-699.8 -282.9C-699.8 -286.2 -697.1 -288.9 -693.8 -288.9H-666.8C-663.5 -288.9 -660.8 -286.2 -660.8 -282.9V-263.4C-660.8 -260 -663.5 -257.4 -666.8 -257.4H-672.8V-256.8C-672.8 -255.6 -672.3 -254.5 -671.5 -253.7L-670.2 -252.4C-669.8 -252 -669.7 -251.3 -669.9 -250.8C-670.1 -250.2 -670.7 -249.9 -671.3 -249.9H-689.3C-689.9 -249.9 -690.4 -250.2 -690.7 -250.8C-690.9 -251.3 -690.8 -252 -690.3 -252.4L-689.1 -253.7C-688.3 -254.5 -687.8 -255.6 -687.8 -256.8V-257.4H-693.8C-697.1 -257.4 -699.8 -260 -699.8 -263.4V-282.9ZM-696.8 -282.9V-267.9C-696.8 -266.2 -695.4 -264.9 -693.8 -264.9H-666.8C-665.1 -264.9 -663.8 -266.2 -663.8 -267.9V-282.9C-663.8 -284.5 -665.1 -285.9 -666.8 -285.9H-693.8C-695.4 -285.9 -696.8 -284.5 -696.8 -282.9ZM-671.3 34.8001H-689.3V16.8001H-671.3V34.8001Z" fill="#0F172A"/>
<path fill-rule="evenodd" clip-rule="evenodd" d="M-592.4 -94.8999H-585.6C-581.5 -94.8999 -578.1 -91.5999 -578.1 -87.3999V-83.6999C-578.1 -81.5999 -576.4 -79.8999 -574.4 -79.8999H-570.6C-566.5 -79.8999 -563.1 -76.5999 -563.1 -72.3999V-56.6999C-563.1 -54.5999 -564.8 -52.8999 -566.9 -52.8999H-592.4C-594.4 -52.8999 -596.1 -54.5999 -596.1 -56.6999V-91.1999C-596.1 -93.1999 -594.4 -94.8999 -592.4 -94.8999ZM-580.4 -61.8999C-579 -61.8999 -577.8 -62.2999 -576.8 -62.9999L-574.7 -60.8999C-574.1 -60.2999 -573.1 -60.2999 -572.6 -60.8999C-572 -61.3999 -572 -62.3999 -572.6 -62.9999L-574.7 -65.0999C-574 -66.0999 -573.6 -67.2999 -573.6 -68.6999C-573.6 -72.3999 -576.6 -75.3999 -580.4 -75.3999C-584.1 -75.3999 -587.1 -72.3999 -587.1 -68.6999C-587.1 -64.8999 -584.1 -61.8999 -580.4 -61.8999ZM-575.1 -87.3999C-575.1 -89.9999 -576.1 -92.3999 -577.7 -94.2999C-570.9 -92.4999 -565.5 -87.1999 -563.7 -80.3999C-565.6 -81.9999 -568 -82.8999 -570.6 -82.8999H-574.4C-574.8 -82.8999 -575.1 -83.2999 -575.1 -83.6999V-87.3999ZM-389.3 -53.1999C-392.6 -53.1999 -395.3 -55.8999 -395.3 -59.1999V-75.4999L-381.6 -67.4999L-388.5 -63.6999C-389.3 -63.2999 -389.5 -62.3999 -389.1 -61.6999C-388.8 -60.9999 -387.8 -60.6999 -387.1 -61.0999L-375.7 -67.1999C-374.9 -67.6999 -373.8 -67.6999 -372.9 -67.1999L-361.5 -61.0999C-360.8 -60.6999 -359.9 -60.9999 -359.5 -61.6999C-359.1 -62.3999 -359.4 -63.2999 -360.1 -63.6999L-367.1 -67.4999L-353.3 -75.4999V-59.1999C-353.3 -55.8999 -356 -53.1999 -359.3 -53.1999H-389.3ZM-395.3 -78.9999V-80.4999C-395.3 -82.6999 -394.1 -84.6999 -392.2 -85.7999L-377.2 -93.7999C-375.4 -94.7999 -373.3 -94.7999 -371.5 -93.7999L-356.5 -85.7999C-354.5 -84.6999 -353.3 -82.6999 -353.3 -80.4999V-78.9999L-370.2 -69.0999L-371.5 -69.7999C-373.3 -70.7999 -375.4 -70.7999 -377.2 -69.7999L-378.5 -69.0999L-395.3 -78.9999ZM-274.8 37.8001C-274.8 36.2001 -273.4 34.8001 -271.8 34.8001C-270.1 34.8001 -268.8 36.2001 -268.8 37.8001C-268.8 39.5001 -270.1 40.8001 -271.8 40.8001C-273.4 40.8001 -274.8 39.5001 -274.8 37.8001ZM-274.8 25.8001C-274.8 24.2001 -273.4 22.8001 -271.8 22.8001C-270.1 22.8001 -268.8 24.2001 -268.8 25.8001C-268.8 27.5001 -270.1 28.8001 -271.8 28.8001C-273.4 28.8001 -274.8 27.5001 -274.8 25.8001ZM-274.8 13.8001C-274.8 12.2001 -273.4 10.8001 -271.8 10.8001C-270.1 10.8001 -268.8 12.2001 -268.8 13.8001C-268.8 15.5001 -270.1 16.8001 -271.8 16.8001C-273.4 16.8001 -274.8 15.5001 -274.8 13.8001ZM-377.4 30.2001C-375.5 31.3001 -373.1 31.3001 -371.1 30.2001L-353.3 19.2001V36.3001C-353.3 39.6001 -356 42.3001 -359.3 42.3001H-389.3C-392.6 42.3001 -395.3 39.6001 -395.3 36.3001V19.2001L-377.4 30.2001ZM-372.7 27.6001C-373.6 28.2001 -374.8 28.2001 -375.8 27.6001L-395.2 15.7001V15.3001C-395.2 12.0001 -392.5 9.3001 -389.2 9.3001H-359.2C-355.9 9.3001 -353.2 12.0001 -353.2 15.3001V15.7001L-372.7 27.6001ZM-486.6 36.3001C-486.6 35.5001 -485.9 34.8001 -485.1 34.8001H-461.1C-460.3 34.8001 -459.6 35.5001 -459.6 36.3001C-459.6 37.1001 -460.3 37.8001 -461.1 37.8001H-485.1C-485.9 37.8001 -486.6 37.1001 -486.6 36.3001ZM-496.4 36.3001C-496.4 35.0001 -495.4 34.0001 -494.1 34.0001C-492.9 34.0001 -491.9 35.0001 -491.9 36.3001C-491.9 37.5001 -492.9 38.5001 -494.1 38.5001C-495.4 38.5001 -496.4 37.5001 -496.4 36.3001ZM-486.6 25.8001C-486.6 25.0001 -485.9 24.3001 -485.1 24.3001H-461.1C-460.3 24.3001 -459.6 25.0001 -459.6 25.8001C-459.6 26.6001 -460.3 27.3001 -461.1 27.3001H-485.1C-485.9 27.3001 -486.6 26.6001 -486.6 25.8001ZM-496.4 25.8001C-496.4 24.5001 -495.4 23.5001 -494.1 23.5001C-492.9 23.5001 -491.9 24.5001 -491.9 25.8001C-491.9 27.0001 -492.9 28.0001 -494.1 28.0001C-495.4 28.0001 -496.4 27.0001 -496.4 25.8001ZM-486.6 15.3001C-486.6 14.5001 -485.9 13.8001 -485.1 13.8001H-461.1C-460.3 13.8001 -459.6 14.5001 -459.6 15.3001C-459.6 16.1001 -460.3 16.8001 -461.1 16.8001H-485.1C-485.9 16.8001 -486.6 16.1001 -486.6 15.3001ZM-496.4 15.3001C-496.4 14.0001 -495.4 13.0001 -494.1 13.0001C-492.9 13.0001 -491.9 14.0001 -491.9 15.3001C-491.9 16.5001 -492.9 17.5001 -494.1 17.5001C-495.4 17.5001 -496.4 16.5001 -496.4 15.3001ZM17.6999 23.5001C17.6999 20.6001 19.9999 18.3001 22.8999 18.3001C25.7999 18.3001 28.1999 20.6001 28.1999 23.5001C28.1999 25.0001 27.5999 26.3001 26.6999 27.3001C25.6999 28.2001 24.3999 28.8001 22.8999 28.8001C19.9999 28.8001 17.6999 26.4001 17.6999 23.5001Z" fill="#0F172A"/>
<path fill-rule="evenodd" clip-rule="evenodd" d="M44.6998 25.7999C44.6998 36.5999 35.8998 45.2999 25.1998 45.2999C14.3998 45.2999 5.69983 36.5999 5.69983 25.7999C5.69983 15.0999 14.3998 6.2999 25.1998 6.2999C35.8998 6.2999 44.6998 15.0999 44.6998 25.7999ZM22.8998 15.2999C18.3998 15.2999 14.6998 18.9999 14.6998 23.5999C14.6998 28.0999 18.3998 31.7999 22.8998 31.7999C24.6998 31.7999 26.2998 31.2999 27.5998 30.3999L31.5998 34.3999C32.1998 34.9999 33.0999 34.9999 33.6998 34.3999C34.2998 33.7999 34.2998 32.8999 33.6998 32.2999L29.6998 28.2999C30.5999 26.8999 31.1998 25.2999 31.1998 23.5999C31.1998 18.9999 27.4998 15.2999 22.8998 15.2999ZM-56.4002 6.2999C-55.6002 6.2999 -54.9002 6.99991 -54.9002 7.7999C-54.9002 8.69989 -55.6002 9.2999 -56.4002 9.2999H-57.9002V30.2999C-57.9002 33.5999 -60.6002 36.2999 -63.9002 36.2999H-66.3002L-64.0002 43.3999C-63.7002 44.0999 -64.2002 44.9999 -64.9002 45.2999C-65.7002 45.4999 -66.6002 45.0999 -66.8002 44.2999L-67.5002 42.2999H-84.3002L-85.0002 44.2999C-85.3002 45.0999 -86.1002 45.4999 -86.9002 45.2999C-87.7002 44.9999 -88.1002 44.0999 -87.8002 43.3999L-85.5002 36.2999H-87.9002C-91.2002 36.2999 -93.9002 33.5999 -93.9002 30.2999V9.2999H-95.4002C-96.3002 9.2999 -96.9002 8.69989 -96.9002 7.7999C-96.9002 6.99991 -96.3002 6.2999 -95.4002 6.2999H-56.4002ZM-74.4002 19.7999C-74.4002 18.9999 -75.1002 18.2999 -75.9002 18.2999C-76.8002 18.2999 -77.4002 18.9999 -77.4002 19.7999V27.2999C-77.4002 28.1999 -76.8002 28.7999 -75.9002 28.7999C-75.1002 28.7999 -74.4002 28.1999 -74.4002 27.2999V19.7999ZM-68.4002 15.2999C-68.4002 14.4999 -69.1002 13.7999 -69.9002 13.7999C-70.8002 13.7999 -71.4002 14.4999 -71.4002 15.2999V27.2999C-71.4002 28.1999 -70.8002 28.7999 -69.9002 28.7999C-69.1002 28.7999 -68.4002 28.1999 -68.4002 27.2999V15.2999ZM-68.5002 39.2999L-69.5002 36.2999H-82.3002L-83.3002 39.2999H-68.5002ZM-80.5002 24.2999C-80.5002 23.4999 -81.1002 22.7999 -82.0002 22.7999C-82.8002 22.7999 -83.5002 23.4999 -83.5002 24.2999V27.2999C-83.5002 28.1999 -82.8002 28.7999 -82.0002 28.7999C-81.1002 28.7999 -80.5002 28.1999 -80.5002 27.2999V24.2999ZM134.7 -94.9001C136.7 -94.9001 138.4 -93.2001 138.4 -91.2001V-85.2001C139.266 -85.0668 140.133 -84.9334 141 -84.8001C143.9 -84.4001 145.9 -81.9001 145.9 -79.0001V-66.4001C145.9 -63.1001 143.2 -60.4001 139.9 -60.4001H139.4L139.7 -57.0001C139.9 -54.8001 138.2 -52.9001 136 -52.9001H116.9C114.7 -52.9001 113 -54.8001 113.2 -57.0001L113.5 -60.4001H112.9C109.6 -60.4001 106.9 -63.1001 106.9 -66.4001V-79.0001C106.9 -81.9001 109 -84.4001 111.9 -84.8001C112.7 -84.9334 113.533 -85.0668 114.4 -85.2001V-91.2001C114.4 -93.2001 116.1 -94.9001 118.2 -94.9001H134.7ZM138.4 -75.4001C139.3 -75.4001 139.9 -76.1001 139.9 -76.9001C139.9 -77.7001 139.3 -78.4001 138.4 -78.4001C137.6 -78.4001 136.9 -77.7001 136.9 -76.9001C136.9 -76.1001 137.6 -75.4001 138.4 -75.4001ZM126.4 -69.4001C123.533 -69.4001 120.7 -69.2668 117.9 -69.0001C117.5 -68.9001 117.2 -68.7001 117.2 -68.3001L116.1 -56.7001C116.1 -56.3001 116.4 -55.9001 116.9 -55.9001H136C136.4 -55.9001 136.7 -56.3001 136.7 -56.7001L135.7 -68.3001C135.6 -68.7001 135.3 -68.9001 135 -69.0001C132.2 -69.2668 129.333 -69.4001 126.4 -69.4001ZM135.4 -85.5001V-91.2001C135.4 -91.6001 135.1 -91.9001 134.7 -91.9001H118.2C117.8 -91.9001 117.4 -91.6001 117.4 -91.2001V-85.5001C120.4 -85.7668 123.4 -85.9001 126.4 -85.9001C129.466 -85.9001 132.466 -85.7668 135.4 -85.5001ZM132.4 -78.4001C131.6 -78.4001 130.9 -77.7001 130.9 -76.9001C130.9 -76.1001 131.6 -75.4001 132.4 -75.4001C133.3 -75.4001 133.9 -76.1001 133.9 -76.9001C133.9 -77.7001 133.3 -78.4001 132.4 -78.4001ZM-195.1 28.7999C-195.1 19.6999 -187.7 12.2999 -178.6 12.2999C-177.8 12.2999 -177.1 12.9999 -177.1 13.7999V27.2999H-163.6C-162.8 27.2999 -162.1 27.9999 -162.1 28.7999C-162.1 37.8999 -169.5 45.2999 -178.6 45.2999C-187.7 45.2999 -195.1 37.8999 -195.1 28.7999ZM-174.1 7.7999C-174.1 6.99991 -173.4 6.2999 -172.6 6.2999C-163.5 6.2999 -156.1 13.6999 -156.1 22.7999C-156.1 23.6999 -156.8 24.2999 -157.6 24.2999H-172.6C-173.4 24.2999 -174.1 23.6999 -174.1 22.7999V7.7999ZM-560.6 -252.4C-560 -251.8 -560 -250.9 -560.6 -250.3C-561.2 -249.7 -562.1 -249.7 -562.7 -250.3L-598.7 -286.3C-599.3 -286.9 -599.3 -287.8 -598.7 -288.4C-598.1 -289 -597.2 -289 -596.6 -288.4L-560.6 -252.4ZM-558.7 -258C-558.7 -257 -559.1 -256.3 -559.7 -255.7L-569.2 -265.2V-277.5L-563.8 -282.9C-561.9 -284.7 -558.7 -283.4 -558.7 -280.7V-258ZM-572.2 -278.4V-268.3L-588.3 -284.4H-578.2C-574.8 -284.4 -572.2 -281.7 -572.2 -278.4ZM-600.7 -278.4C-600.7 -280 -600.1 -281.4 -599.1 -282.5L-573.4 -256.8C-574.5 -255.3 -576.2 -254.4 -578.2 -254.4H-594.7C-598 -254.4 -600.7 -257.1 -600.7 -260.4V-278.4Z" fill="#0F172A"/>
</g>
</g>
<defs>
<clipPath id="clip0_70_5435">
<rect width="50" height="50" fill="white"/>
</clipPath>
</defs>
</svg>
