<svg width="50" height="50" viewBox="0 0 50 50" fill="none" xmlns="http://www.w3.org/2000/svg">
<g clip-path="url(#clip0_70_5432)">
<mask id="mask0_70_5432" style="mask-type:luminance" maskUnits="userSpaceOnUse" x="-619" y="-861" width="1584" height="1224">
<path d="M-619 -861H965V363H-619V-861Z" fill="white"/>
</mask>
<g mask="url(#mask0_70_5432)">
<path fill-rule="evenodd" clip-rule="evenodd" d="M604.6 13.8001C604.6 10.5001 607.3 7.80008 610.6 7.80008H637.6C640.9 7.80008 643.6 10.5001 643.6 13.8001V37.8001C643.6 41.1001 640.9 43.8001 637.6 43.8001H610.6C607.3 43.8001 604.6 41.1001 604.6 37.8001V13.8001ZM612.6 17.9001L616 21.3001L612.6 24.8001C612 25.4001 612 26.3001 612.6 26.9001C613.2 27.5001 614.1 27.5001 614.7 26.9001L619.2 22.4001C619.8 21.8001 619.8 20.9001 619.2 20.3001L614.7 15.8001C614.1 15.2001 613.2 15.2001 612.6 15.8001C612 16.4001 612 17.3001 612.6 17.9001ZM621.1 24.3001C620.3 24.3001 619.6 25.0001 619.6 25.8001C619.6 26.7001 620.3 27.3001 621.1 27.3001H627.1C628 27.3001 628.6 26.7001 628.6 25.8001C628.6 25.0001 628 24.3001 627.1 24.3001H621.1ZM-299.8 -282.9C-299.8 -286.2 -297.1 -288.9 -293.8 -288.9H-266.8C-263.5 -288.9 -260.8 -286.2 -260.8 -282.9V-263.4C-260.8 -260 -263.5 -257.4 -266.8 -257.4H-272.8V-256.8C-272.8 -255.6 -272.3 -254.5 -271.5 -253.7L-270.2 -252.4C-269.8 -252 -269.7 -251.3 -269.9 -250.8C-270.1 -250.2 -270.7 -249.9 -271.3 -249.9H-289.3C-289.9 -249.9 -290.4 -250.2 -290.7 -250.8C-290.9 -251.3 -290.8 -252 -290.3 -252.4L-289.1 -253.7C-288.3 -254.5 -287.8 -255.6 -287.8 -256.8V-257.4H-293.8C-297.1 -257.4 -299.8 -260 -299.8 -263.4V-282.9ZM-296.8 -282.9V-267.9C-296.8 -266.2 -295.4 -264.9 -293.8 -264.9H-266.8C-265.1 -264.9 -263.8 -266.2 -263.8 -267.9V-282.9C-263.8 -284.5 -265.1 -285.9 -266.8 -285.9H-293.8C-295.4 -285.9 -296.8 -284.5 -296.8 -282.9ZM-271.3 34.8001H-289.3V16.8001H-271.3V34.8001Z" fill="#0F172A"/>
<path fill-rule="evenodd" clip-rule="evenodd" d="M-192.4 -94.8999H-185.6C-181.5 -94.8999 -178.1 -91.5999 -178.1 -87.3999V-83.6999C-178.1 -81.5999 -176.4 -79.8999 -174.4 -79.8999H-170.6C-166.5 -79.8999 -163.1 -76.5999 -163.1 -72.3999V-56.6999C-163.1 -54.5999 -164.8 -52.8999 -166.9 -52.8999H-192.4C-194.4 -52.8999 -196.1 -54.5999 -196.1 -56.6999V-91.1999C-196.1 -93.1999 -194.4 -94.8999 -192.4 -94.8999ZM-180.4 -61.8999C-179 -61.8999 -177.8 -62.2999 -176.8 -62.9999L-174.7 -60.8999C-174.1 -60.2999 -173.1 -60.2999 -172.6 -60.8999C-172 -61.3999 -172 -62.3999 -172.6 -62.9999L-174.7 -65.0999C-174 -66.0999 -173.6 -67.2999 -173.6 -68.6999C-173.6 -72.3999 -176.6 -75.3999 -180.4 -75.3999C-184.1 -75.3999 -187.1 -72.3999 -187.1 -68.6999C-187.1 -64.8999 -184.1 -61.8999 -180.4 -61.8999ZM-175.1 -87.3999C-175.1 -89.9999 -176.1 -92.3999 -177.7 -94.2999C-170.9 -92.4999 -165.5 -87.1999 -163.7 -80.3999C-165.6 -81.9999 -168 -82.8999 -170.6 -82.8999H-174.4C-174.8 -82.8999 -175.1 -83.2999 -175.1 -83.6999V-87.3999ZM10.6999 -53.1999C7.3999 -53.1999 4.69991 -55.8999 4.69991 -59.1999V-75.4999L18.3999 -67.4999L11.4999 -63.6999C10.6999 -63.2999 10.4999 -62.3999 10.8999 -61.6999C11.1999 -60.9999 12.1999 -60.6999 12.8999 -61.0999L24.2999 -67.1999C25.0999 -67.6999 26.1999 -67.6999 27.0999 -67.1999L38.4999 -61.0999C39.1999 -60.6999 40.0999 -60.9999 40.4999 -61.6999C40.8999 -62.3999 40.5999 -63.2999 39.8999 -63.6999L32.8999 -67.4999L46.6999 -75.4999V-59.1999C46.6999 -55.8999 43.9999 -53.1999 40.6999 -53.1999H10.6999ZM4.69991 -78.9999V-80.4999C4.69991 -82.6999 5.89992 -84.6999 7.79991 -85.7999L22.7999 -93.7999C24.5999 -94.7999 26.6999 -94.7999 28.4999 -93.7999L43.4999 -85.7999C45.4999 -84.6999 46.6999 -82.6999 46.6999 -80.4999V-78.9999L29.7999 -69.0999L28.4999 -69.7999C26.6999 -70.7999 24.5999 -70.7999 22.7999 -69.7999L21.4999 -69.0999L4.69991 -78.9999ZM125.2 37.8001C125.2 36.2001 126.6 34.8001 128.2 34.8001C129.9 34.8001 131.2 36.2001 131.2 37.8001C131.2 39.5001 129.9 40.8001 128.2 40.8001C126.6 40.8001 125.2 39.5001 125.2 37.8001ZM125.2 25.8001C125.2 24.2001 126.6 22.8001 128.2 22.8001C129.9 22.8001 131.2 24.2001 131.2 25.8001C131.2 27.5001 129.9 28.8001 128.2 28.8001C126.6 28.8001 125.2 27.5001 125.2 25.8001ZM125.2 13.8001C125.2 12.2001 126.6 10.8001 128.2 10.8001C129.9 10.8001 131.2 12.2001 131.2 13.8001C131.2 15.5001 129.9 16.8001 128.2 16.8001C126.6 16.8001 125.2 15.5001 125.2 13.8001ZM22.5999 30.2001C24.4999 31.3001 26.8999 31.3001 28.8999 30.2001L46.6999 19.2001V36.3001C46.6999 39.6001 43.9999 42.3001 40.6999 42.3001H10.6999C7.3999 42.3001 4.69991 39.6001 4.69991 36.3001V19.2001L22.5999 30.2001ZM27.2999 27.6001C26.3999 28.2001 25.1999 28.2001 24.1999 27.6001L4.79991 15.7001V15.3001C4.79991 12.0001 7.49991 9.3001 10.7999 9.3001H40.7999C44.0999 9.3001 46.7999 12.0001 46.7999 15.3001V15.7001L27.2999 27.6001ZM-86.6001 36.3001C-86.6001 35.5001 -85.9001 34.8001 -85.1001 34.8001H-61.1001C-60.3001 34.8001 -59.6001 35.5001 -59.6001 36.3001C-59.6001 37.1001 -60.3001 37.8001 -61.1001 37.8001H-85.1001C-85.9001 37.8001 -86.6001 37.1001 -86.6001 36.3001ZM-96.4001 36.3001C-96.4001 35.0001 -95.4001 34.0001 -94.1001 34.0001C-92.9001 34.0001 -91.9001 35.0001 -91.9001 36.3001C-91.9001 37.5001 -92.9001 38.5001 -94.1001 38.5001C-95.4001 38.5001 -96.4001 37.5001 -96.4001 36.3001ZM-86.6001 25.8001C-86.6001 25.0001 -85.9001 24.3001 -85.1001 24.3001H-61.1001C-60.3001 24.3001 -59.6001 25.0001 -59.6001 25.8001C-59.6001 26.6001 -60.3001 27.3001 -61.1001 27.3001H-85.1001C-85.9001 27.3001 -86.6001 26.6001 -86.6001 25.8001ZM-96.4001 25.8001C-96.4001 24.5001 -95.4001 23.5001 -94.1001 23.5001C-92.9001 23.5001 -91.9001 24.5001 -91.9001 25.8001C-91.9001 27.0001 -92.9001 28.0001 -94.1001 28.0001C-95.4001 28.0001 -96.4001 27.0001 -96.4001 25.8001ZM-86.6001 15.3001C-86.6001 14.5001 -85.9001 13.8001 -85.1001 13.8001H-61.1001C-60.3001 13.8001 -59.6001 14.5001 -59.6001 15.3001C-59.6001 16.1001 -60.3001 16.8001 -61.1001 16.8001H-85.1001C-85.9001 16.8001 -86.6001 16.1001 -86.6001 15.3001ZM-96.4001 15.3001C-96.4001 14.0001 -95.4001 13.0001 -94.1001 13.0001C-92.9001 13.0001 -91.9001 14.0001 -91.9001 15.3001C-91.9001 16.5001 -92.9001 17.5001 -94.1001 17.5001C-95.4001 17.5001 -96.4001 16.5001 -96.4001 15.3001ZM417.7 23.5001C417.7 20.6001 420 18.3001 422.9 18.3001C425.8 18.3001 428.2 20.6001 428.2 23.5001C428.2 25.0001 427.6 26.3001 426.7 27.3001C425.7 28.2001 424.4 28.8001 422.9 28.8001C420 28.8001 417.7 26.4001 417.7 23.5001Z" fill="#0F172A"/>
<path fill-rule="evenodd" clip-rule="evenodd" d="M444.7 25.7999C444.7 36.5999 435.9 45.2999 425.2 45.2999C414.4 45.2999 405.7 36.5999 405.7 25.7999C405.7 15.0999 414.4 6.2999 425.2 6.2999C435.9 6.2999 444.7 15.0999 444.7 25.7999ZM422.9 15.2999C418.4 15.2999 414.7 18.9999 414.7 23.5999C414.7 28.0999 418.4 31.7999 422.9 31.7999C424.7 31.7999 426.3 31.2999 427.6 30.3999L431.6 34.3999C432.2 34.9999 433.1 34.9999 433.7 34.3999C434.3 33.7999 434.3 32.8999 433.7 32.2999L429.7 28.2999C430.6 26.8999 431.2 25.2999 431.2 23.5999C431.2 18.9999 427.5 15.2999 422.9 15.2999ZM343.6 6.2999C344.4 6.2999 345.1 6.99991 345.1 7.7999C345.1 8.69989 344.4 9.2999 343.6 9.2999H342.1V30.2999C342.1 33.5999 339.4 36.2999 336.1 36.2999H333.7L336 43.3999C336.3 44.0999 335.8 44.9999 335.1 45.2999C334.3 45.4999 333.4 45.0999 333.2 44.2999L332.5 42.2999H315.7L315 44.2999C314.7 45.0999 313.9 45.4999 313.1 45.2999C312.3 44.9999 311.9 44.0999 312.2 43.3999L314.5 36.2999H312.1C308.8 36.2999 306.1 33.5999 306.1 30.2999V9.2999H304.6C303.7 9.2999 303.1 8.69989 303.1 7.7999C303.1 6.99991 303.7 6.2999 304.6 6.2999H343.6ZM325.6 19.7999C325.6 18.9999 324.9 18.2999 324.1 18.2999C323.2 18.2999 322.6 18.9999 322.6 19.7999V27.2999C322.6 28.1999 323.2 28.7999 324.1 28.7999C324.9 28.7999 325.6 28.1999 325.6 27.2999V19.7999ZM331.6 15.2999C331.6 14.4999 330.9 13.7999 330.1 13.7999C329.2 13.7999 328.6 14.4999 328.6 15.2999V27.2999C328.6 28.1999 329.2 28.7999 330.1 28.7999C330.9 28.7999 331.6 28.1999 331.6 27.2999V15.2999ZM331.5 39.2999L330.5 36.2999H317.7L316.7 39.2999H331.5ZM319.5 24.2999C319.5 23.4999 318.9 22.7999 318 22.7999C317.2 22.7999 316.5 23.4999 316.5 24.2999V27.2999C316.5 28.1999 317.2 28.7999 318 28.7999C318.9 28.7999 319.5 28.1999 319.5 27.2999V24.2999ZM534.7 -94.9001C536.7 -94.9001 538.4 -93.2001 538.4 -91.2001V-85.2001C539.267 -85.0668 540.133 -84.9334 541 -84.8001C543.9 -84.4001 545.9 -81.9001 545.9 -79.0001V-66.4001C545.9 -63.1001 543.2 -60.4001 539.9 -60.4001H539.4L539.7 -57.0001C539.9 -54.8001 538.2 -52.9001 536 -52.9001H516.9C514.7 -52.9001 513 -54.8001 513.2 -57.0001L513.5 -60.4001H512.9C509.6 -60.4001 506.9 -63.1001 506.9 -66.4001V-79.0001C506.9 -81.9001 509 -84.4001 511.9 -84.8001C512.7 -84.9334 513.533 -85.0668 514.4 -85.2001V-91.2001C514.4 -93.2001 516.1 -94.9001 518.2 -94.9001H534.7ZM538.4 -75.4001C539.3 -75.4001 539.9 -76.1001 539.9 -76.9001C539.9 -77.7001 539.3 -78.4001 538.4 -78.4001C537.6 -78.4001 536.9 -77.7001 536.9 -76.9001C536.9 -76.1001 537.6 -75.4001 538.4 -75.4001ZM526.4 -69.4001C523.533 -69.4001 520.7 -69.2668 517.9 -69.0001C517.5 -68.9001 517.2 -68.7001 517.2 -68.3001L516.1 -56.7001C516.1 -56.3001 516.4 -55.9001 516.9 -55.9001H536C536.4 -55.9001 536.7 -56.3001 536.7 -56.7001L535.7 -68.3001C535.6 -68.7001 535.3 -68.9001 535 -69.0001C532.2 -69.2668 529.333 -69.4001 526.4 -69.4001ZM535.4 -85.5001V-91.2001C535.4 -91.6001 535.1 -91.9001 534.7 -91.9001H518.2C517.8 -91.9001 517.4 -91.6001 517.4 -91.2001V-85.5001C520.4 -85.7668 523.4 -85.9001 526.4 -85.9001C529.467 -85.9001 532.467 -85.7668 535.4 -85.5001ZM532.4 -78.4001C531.6 -78.4001 530.9 -77.7001 530.9 -76.9001C530.9 -76.1001 531.6 -75.4001 532.4 -75.4001C533.3 -75.4001 533.9 -76.1001 533.9 -76.9001C533.9 -77.7001 533.3 -78.4001 532.4 -78.4001ZM204.9 28.7999C204.9 19.6999 212.3 12.2999 221.4 12.2999C222.2 12.2999 222.9 12.9999 222.9 13.7999V27.2999H236.4C237.2 27.2999 237.9 27.9999 237.9 28.7999C237.9 37.8999 230.5 45.2999 221.4 45.2999C212.3 45.2999 204.9 37.8999 204.9 28.7999ZM225.9 7.7999C225.9 6.99991 226.6 6.2999 227.4 6.2999C236.5 6.2999 243.9 13.6999 243.9 22.7999C243.9 23.6999 243.2 24.2999 242.4 24.2999H227.4C226.6 24.2999 225.9 23.6999 225.9 22.7999V7.7999ZM-160.6 -252.4C-160 -251.8 -160 -250.9 -160.6 -250.3C-161.2 -249.7 -162.1 -249.7 -162.7 -250.3L-198.7 -286.3C-199.3 -286.9 -199.3 -287.8 -198.7 -288.4C-198.1 -289 -197.2 -289 -196.6 -288.4L-160.6 -252.4ZM-158.7 -258C-158.7 -257 -159.1 -256.3 -159.7 -255.7L-169.2 -265.2V-277.5L-163.8 -282.9C-161.9 -284.7 -158.7 -283.4 -158.7 -280.7V-258ZM-172.2 -278.4V-268.3L-188.3 -284.4H-178.2C-174.8 -284.4 -172.2 -281.7 -172.2 -278.4ZM-200.7 -278.4C-200.7 -280 -200.1 -281.4 -199.1 -282.5L-173.4 -256.8C-174.5 -255.3 -176.2 -254.4 -178.2 -254.4H-194.7C-198 -254.4 -200.7 -257.1 -200.7 -260.4V-278.4Z" fill="#0F172A"/>
</g>
</g>
<defs>
<clipPath id="clip0_70_5432">
<rect width="50" height="50" fill="white"/>
</clipPath>
</defs>
</svg>
