<svg width="50" height="50" viewBox="0 0 50 50" fill="none" xmlns="http://www.w3.org/2000/svg">
<g clip-path="url(#clip0_72_5505)">
<mask id="mask0_72_5505" style="mask-type:luminance" maskUnits="userSpaceOnUse" x="-818" y="-664" width="1584" height="1224">
<path d="M-818 -664H766V560H-818V-664Z" fill="white"/>
</mask>
<g mask="url(#mask0_72_5505)">
<path fill-rule="evenodd" clip-rule="evenodd" d="M-264 38.6C-264.8 39.4 -266.1 39.4 -266.9 38.6L-286.5 19V34.5C-286.5 35.6 -287.4 36.5 -288.5 36.5C-289.7 36.5 -290.6 35.6 -290.6 34.5V14.1C-290.6 13 -289.7 12.1 -288.5 12.1H-268.2C-267.1 12.1 -266.2 13 -266.2 14.1C-266.2 15.2 -267.1 16.1 -268.2 16.1H-283.6L-264 35.7C-263.2 36.5 -263.2 37.8 -264 38.6ZM-92.5002 123.1C-92.5002 111.1 -82.8002 101.4 -70.8002 101.4C-58.8002 101.4 -49.1002 111.1 -49.1002 123.1C-49.1002 135.1 -58.8002 144.8 -70.8002 144.8C-82.8002 144.8 -92.5002 135.1 -92.5002 123.1ZM-72.9001 131.9C-72.9001 133 -72.0002 133.9 -70.8002 133.9C-69.7002 133.9 -68.8002 133 -68.8002 131.9V119.5L-63.5002 125.1C-62.7002 126 -61.5002 126 -60.6002 125.3C-59.8002 124.5 -59.8001 123.2 -60.5002 122.4L-69.3002 112.9C-69.7002 112.5 -70.3002 112.2 -70.8002 112.2C-71.4002 112.2 -71.9002 112.5 -72.3002 112.9L-81.1002 122.4C-81.9001 123.2 -81.9001 124.5 -81.0002 125.3C-80.2002 126 -78.9001 126 -78.2001 125.1L-72.9001 119.5V131.9ZM-465.7 25.6C-465.7 26.7 -466.6 27.6 -467.8 27.6H-485.8L-479.9 32.9C-479.1 33.7 -479.1 35 -479.9 35.8C-480.6 36.6 -481.9 36.7 -482.7 35.9L-492.2 27.1C-492.6 26.7 -492.9 26.1 -492.9 25.6C-492.9 25 -492.6 24.5 -492.2 24.1L-482.7 15.3C-481.9 14.5 -480.6 14.6 -479.9 15.4C-479.1 16.2 -479.1 17.5 -479.9 18.2L-485.8 23.6H-467.8C-466.6 23.6 -465.7 24.5 -465.7 25.6ZM109.5 112.2C108.3 112.2 107.4 113.1 107.4 114.2V137.3C107.4 138.4 108.3 139.3 109.5 139.3H132.6C133.7 139.3 134.6 138.4 134.6 137.3V126.4C134.6 125.3 135.5 124.4 136.6 124.4C137.8 124.4 138.7 125.3 138.7 126.4V137.3C138.7 140.7 135.9 143.4 132.6 143.4H109.5C106.1 143.4 103.3 140.7 103.3 137.3V114.2C103.3 110.8 106.1 108.1 109.5 108.1H123C124.2 108.1 125.1 109 125.1 110.1C125.1 111.3 124.2 112.2 123 112.2H109.5ZM115 129L139.6 106.7H132.6C131.5 106.7 130.6 105.8 130.6 104.7C130.6 103.6 131.5 102.7 132.6 102.7H144.9C146 102.7 146.9 103.6 146.9 104.7V116.9C146.9 118 146 119 144.9 119C143.7 119 142.8 118 142.8 116.9V109.3L117.7 132C116.9 132.8 115.6 132.7 114.8 131.9C114.1 131 114.1 129.8 115 129ZM-392.1 25.6C-392.1 24.5 -391.2 23.6 -390.1 23.6H-372L-377.9 18.2C-378.7 17.5 -378.7 16.2 -378 15.4C-377.2 14.6 -375.9 14.5 -375.1 15.3L-365.6 24.1C-365.2 24.5 -365 25 -365 25.6C-365 26.1 -365.2 26.7 -365.6 27.1L-375.1 35.9C-375.9 36.7 -377.2 36.6 -378 35.8C-378.7 35 -378.7 33.7 -377.9 32.9L-372 27.6H-390.1C-391.2 27.6 -392.1 26.7 -392.1 25.6ZM-177.9 31.6C-177.1 32.4 -177.1 33.7 -177.9 34.5C-178.7 35.3 -180 35.3 -180.8 34.5L-185.4 29.9C-185.267 32.7667 -185.033 35.6333 -184.7 38.5C-184.6 39.3 -183.9 40 -183 40.1C-179.8 40.3667 -176.533 40.5 -173.2 40.5C-169.933 40.5 -166.7 40.3667 -163.5 40.1C-162.6 40 -161.9 39.3 -161.8 38.5C-161.6 37.1 -161.467 35.6667 -161.4 34.2C-161.3 33.1 -160.3 32.3 -159.2 32.4C-158.1 32.5 -157.2 33.4 -157.3 34.6C-157.434 36.0667 -157.6 37.5 -157.8 38.9C-158.1 41.7 -160.3 43.9 -163.1 44.1C-166.434 44.4333 -169.8 44.6 -173.2 44.6C-176.667 44.6 -180.067 44.4333 -183.4 44.1C-186.2 43.9 -188.4 41.7 -188.7 38.9C-189.1 35.9 -189.333 32.8667 -189.4 29.8L-194.2 34.5C-195 35.3 -196.3 35.3 -197 34.5C-197.8 33.7 -197.8 32.4 -197 31.6L-188.9 23.5C-188.1 22.7 -186.8 22.7 -186 23.5L-177.9 31.6ZM-183 11.1C-183.9 11.2 -184.6 11.8 -184.7 12.7C-184.9 14.1 -185.033 15.5 -185.1 16.9C-185.2 18 -186.2 18.9 -187.3 18.8C-188.4 18.7 -189.3 17.7 -189.2 16.6C-189.067 15.1333 -188.934 13.6667 -188.8 12.2C-188.4 9.4 -186.2 7.3 -183.4 7C-180.067 6.73333 -176.7 6.6 -173.3 6.6C-169.833 6.6 -166.434 6.73333 -163.1 7C-160.3 7.3 -158.1 9.4 -157.8 12.2C-157.4 15.2667 -157.167 18.3333 -157.1 21.4L-152.3 16.7C-151.5 15.9 -150.2 15.9 -149.5 16.7C-148.7 17.5 -148.7 18.7 -149.5 19.5L-157.6 27.7C-158.4 28.5 -159.7 28.5 -160.5 27.7L-168.6 19.5C-169.4 18.7 -169.4 17.5 -168.6 16.7C-167.8 15.9 -166.5 15.9 -165.7 16.7L-161.1 21.2C-161.233 18.3333 -161.467 15.5 -161.8 12.7C-161.9 11.8 -162.6 11.2 -163.5 11.1C-166.7 10.7667 -169.967 10.6 -173.3 10.6C-176.567 10.6 -179.8 10.7667 -183 11.1ZM20.4999 15C17.7999 15 15.5999 12.8 15.5999 10.1C15.5999 7.3 17.7999 5.1 20.4999 5.1C23.2999 5.1 25.4999 7.3 25.4999 10.1C25.4999 12.8 23.2999 15 20.4999 15ZM29.7999 11.9C28.7999 11.9 27.9999 11.1 27.9999 10.1C27.9999 9 28.7999 8.2 29.7999 8.2H43.3998C44.4998 8.2 45.2999 9 45.2999 10.1C45.2999 11.1 44.4998 11.9 43.3998 11.9H29.7999ZM13.0999 10.1C13.0999 11.1 12.2998 11.9 11.2998 11.9H7.59985C6.49985 11.9 5.69986 11.1 5.69986 10.1C5.69986 9.1 6.49985 8.2 7.59985 8.2H11.2998C12.2998 8.2 13.0999 9.1 13.0999 10.1ZM7.59985 42.9C6.49985 42.9 5.69986 42.1 5.69986 41C5.69986 40 6.49985 39.2 7.59985 39.2H11.2998C12.2998 39.2 13.0999 40 13.0999 41C13.0999 42.1 12.2998 42.9 11.2998 42.9H7.59985ZM29.8998 42.9C28.7999 42.9 27.9999 42.1 27.9999 41C27.9999 40 28.7999 39.2 29.8998 39.2H43.4999C44.4999 39.2 45.2999 40 45.2999 41C45.2999 42.1 44.4999 42.9 43.4999 42.9H29.8998ZM23.0999 25.6C23.0999 26.6 22.1998 27.4 21.1998 27.4H7.59985C6.59985 27.4 5.69986 26.6 5.69986 25.6C5.69986 24.5 6.59985 23.7 7.59985 23.7H21.1998C22.1998 23.7 23.0999 24.5 23.0999 25.6ZM39.7999 27.4C38.7999 27.4 37.8998 26.6 37.8998 25.6C37.8998 24.5 38.7999 23.7 39.7999 23.7H43.4999C44.4999 23.7 45.3998 24.5 45.3998 25.6C45.3998 26.6 44.4999 27.4 43.4999 27.4H39.7999ZM30.4999 30.5C27.7999 30.5 25.5999 28.3 25.5999 25.6C25.5999 22.8 27.7999 20.6 30.4999 20.6C33.2999 20.6 35.4999 22.8 35.4999 25.6C35.4999 28.3 33.2999 30.5 30.4999 30.5ZM20.5999 46C17.8998 46 15.6999 43.8 15.6999 41C15.6999 38.3 17.8998 36.1 20.5999 36.1C23.2999 36.1 25.5999 38.3 25.5999 41C25.5999 43.8 23.2999 46 20.5999 46ZM415.8 -91.4C416.9 -91.4 417.8 -90.5 417.8 -89.4V-55.5C417.8 -54.4 416.9 -53.5 415.8 -53.5H411.7C410.6 -53.5 409.7 -54.4 409.7 -55.5V-89.4C409.7 -90.5 410.6 -91.4 411.7 -91.4H415.8ZM434.8 -91.4C435.9 -91.4 436.9 -90.5 436.9 -89.4V-55.5C436.9 -54.4 435.9 -53.5 434.8 -53.5H430.8C429.6 -53.5 428.7 -54.4 428.7 -55.5V-89.4C428.7 -90.5 429.6 -91.4 430.8 -91.4H434.8ZM315 -61.7L318.4 -70.2C319 -71.6 319.8 -72.8 320.8 -73.9L339.6 -92.6C341.8 -94.9 345.5 -94.9 347.7 -92.6C350 -90.4 350 -86.7 347.7 -84.5L329 -65.7C327.9 -64.7 326.7 -63.9 325.3 -63.3L316.8 -59.9C315.7 -59.4 314.6 -60.5 315 -61.7ZM309.8 -58C309.8 -56.2 311.3 -54.6 313.1 -54.6H338.9C340.8 -54.6 342.3 -56.2 342.3 -58V-72.3C342.3 -73.4 343.2 -74.3 344.3 -74.3C345.5 -74.3 346.4 -73.4 346.4 -72.3V-58C346.4 -53.9 343 -50.6 338.9 -50.6H313.1C309 -50.6 305.7 -53.9 305.7 -58V-83.8C305.7 -87.9 309 -91.3 313.1 -91.3H327.4C328.5 -91.3 329.4 -90.4 329.4 -89.2C329.4 -88.1 328.5 -87.2 327.4 -87.2H313.1C311.3 -87.2 309.8 -85.7 309.8 -83.8V-58ZM209.5 -63.8L239.1 -93.4C241.4 -95.7 245 -95.7 247.3 -93.4C249.5 -91.2 249.5 -87.5 247.3 -85.3L217.6 -55.7C216.6 -54.6 215.4 -53.8 214 -53.3L205.4 -49.8C204.3 -49.4 203.2 -50.5 203.7 -51.6L207.1 -60.1C207.6 -61.5 208.5 -62.8 209.5 -63.8ZM103.5 8C103.5 5.7 105.3 3.9 107.5 3.9H110.7C112.6 3.9 114.2 5.2 114.6 7.1L116.6 15.8C117 17.9 115.8 20 113.7 20.6L111.2 21.3C110.1 21.7 109.4 22.8 109.9 23.9C113 31.6 119.2 37.7 126.8 40.9C127.9 41.3 129.1 40.7 129.4 39.6L130.1 37C130.7 35 132.8 33.7 134.9 34.2L143.7 36.1C145.5 36.5 146.9 38.2 146.9 40.1V43.2C146.9 45.5 145 47.3 142.8 47.3H138.7C135.6 47.3 132.6 46.9 129.7 46.1C117.5 42.9 107.9 33.3 104.6 21C103.9 18.2 103.5 15.1 103.5 12V8Z" fill="#0F172A"/>
<path fill-rule="evenodd" clip-rule="evenodd" d="M-301.4 -85.1999C-301.4 -88.5999 -298.7 -91.2999 -295.3 -91.2999H-258.7C-255.3 -91.2999 -252.6 -88.5999 -252.6 -85.1999V-59.4999C-252.6 -56.0999 -255.3 -53.3999 -258.7 -53.3999H-295.3C-298.7 -53.3999 -301.4 -56.0999 -301.4 -59.4999V-85.1999ZM-297.4 -69.3999V-59.3999C-297.4 -58.2999 -296.4 -57.3999 -295.3 -57.3999H-258.7C-257.6 -57.3999 -256.7 -58.2999 -256.7 -59.3999V-66.6999L-262.7 -72.6999C-263.5 -73.4999 -264.8 -73.4999 -265.6 -72.6999L-270.7 -67.4999L-269.5 -66.2999C-268.7 -65.4999 -268.7 -64.1999 -269.5 -63.3999C-270.3 -62.5999 -271.5 -62.5999 -272.3 -63.3999L-286.4 -77.4999C-287.2 -78.2999 -288.5 -78.2999 -289.3 -77.4999L-297.4 -69.3999ZM-274.3 -83.0999C-275.8 -83.0999 -277.1 -81.8999 -277.1 -80.3999C-277.1 -78.8999 -275.8 -77.6999 -274.3 -77.6999C-272.8 -77.6999 -271.6 -78.8999 -271.6 -80.3999C-271.6 -81.8999 -272.8 -83.0999 -274.3 -83.0999ZM-92.6002 -72.1999C-92.6002 -84.1999 -82.9001 -93.8999 -70.9001 -93.8999C-58.9001 -93.8999 -49.2001 -84.1999 -49.2001 -72.1999C-49.2001 -60.2999 -58.9001 -50.4999 -70.9001 -50.4999C-82.9001 -50.4999 -92.6002 -60.2999 -92.6002 -72.1999ZM-76.3002 -78.2999V-66.0999C-76.3002 -65.3999 -75.9001 -64.6999 -75.2001 -64.3999C-74.6001 -63.9999 -73.8002 -63.9999 -73.2001 -64.3999L-63.7001 -70.4999C-63.1001 -70.8999 -62.7001 -71.5999 -62.7001 -72.1999C-62.7001 -72.8999 -63.1001 -73.5999 -63.7001 -73.9999L-73.2001 -80.0999C-73.8002 -80.4999 -74.6001 -80.4999 -75.2001 -80.0999C-75.9001 -79.7999 -76.3002 -79.0999 -76.3002 -78.2999ZM-164.6 -88.4999C-163.4 -88.4999 -162.5 -87.5999 -162.5 -86.4999V-57.9999C-162.5 -56.8999 -163.4 -55.9999 -164.6 -55.9999H-165.9C-167 -55.9999 -167.9 -56.8999 -167.9 -57.9999V-86.4999C-167.9 -87.5999 -167 -88.4999 -165.9 -88.4999H-164.6ZM-151 -88.4999C-149.9 -88.4999 -149 -87.5999 -149 -86.4999V-57.9999C-149 -56.8999 -149.9 -55.9999 -151 -55.9999H-152.4C-153.5 -55.9999 -154.4 -56.8999 -154.4 -57.9999V-86.4999C-154.4 -87.5999 -153.5 -88.4999 -152.4 -88.4999H-151ZM-174.4 -75.6999C-171.9 -74.0999 -171.9 -70.3999 -174.4 -68.7999L-191.6 -58.1999C-194.3 -56.4999 -197.8 -58.4999 -197.8 -61.5999V-82.7999C-197.8 -85.9999 -194.3 -87.9999 -191.6 -86.2999L-174.4 -75.6999ZM40.2998 -75.6999C42.7998 -74.0999 42.7998 -70.3999 40.2998 -68.7999L14.8998 -52.7999C12.1998 -51.0999 8.69986 -53.0999 8.69986 -56.2999V-88.1999C8.69986 -91.3999 12.1998 -93.3999 14.8998 -91.6999L40.2998 -75.6999ZM3.79984 123.2C3.79984 111.2 13.4998 101.5 25.4998 101.5C37.4998 101.5 47.1999 111.2 47.1999 123.2C47.1999 135.2 37.4998 144.9 25.4998 144.9C13.4998 144.9 3.79984 135.2 3.79984 123.2ZM27.4998 114.4C27.4998 113.3 26.5999 112.4 25.4998 112.4C24.3998 112.4 23.3998 113.3 23.3998 114.4V121.2H16.6999C15.4998 121.2 14.5999 122.1 14.5999 123.2C14.5999 124.4 15.4998 125.3 16.6999 125.3H23.3998V132C23.3998 133.2 24.3998 134.1 25.4998 134.1C26.5999 134.1 27.4998 133.2 27.4998 132V125.3H34.2998C35.3998 125.3 36.2998 124.4 36.2998 123.2C36.2998 122.1 35.3998 121.2 34.2998 121.2H27.4998V114.4Z" fill="#0F172A"/>
<path fill-rule="evenodd" clip-rule="evenodd" d="M-52.5002 6.7002C-49.2002 6.7002 -46.4002 9.4002 -46.4002 12.8002V38.5002C-46.4002 41.9002 -49.2002 44.6002 -52.5002 44.6002H-89.1002C-92.5002 44.6002 -95.2002 41.9002 -95.2002 38.5002V12.8002C-95.2002 9.4002 -92.5002 6.7002 -89.1002 6.7002H-52.5002ZM-81.0002 14.8002C-81.0002 15.9002 -80.1002 16.9002 -79.0002 16.9002C-77.8002 16.9002 -76.9002 15.9002 -76.9002 14.8002C-76.9002 13.7002 -77.8002 12.8002 -79.0002 12.8002C-80.1002 12.8002 -81.0002 13.7002 -81.0002 14.8002ZM-87.1002 12.7002C-88.2002 12.7002 -89.2002 13.6002 -89.2002 14.8002C-89.2002 15.9002 -88.2002 16.8002 -87.1002 16.8002C-86.0002 16.8002 -85.1002 15.9002 -85.1002 14.8002C-85.1002 13.6002 -86.0002 12.7002 -87.1002 12.7002ZM-91.2002 22.9002V38.5002C-91.2002 39.6002 -90.3002 40.5002 -89.1002 40.5002H-52.5002C-51.4002 40.5002 -50.5002 39.6002 -50.5002 38.5002V22.9002H-91.2002ZM-70.8002 12.7002C-72.0002 12.7002 -72.9002 13.6002 -72.9002 14.8002C-72.9002 15.9002 -72.0002 16.8002 -70.8002 16.8002C-69.7002 16.8002 -68.8002 15.9002 -68.8002 14.8002C-68.8002 13.6002 -69.7002 12.7002 -70.8002 12.7002ZM332.9 41.9002C334.4 41.9002 335.6 43.1002 335.6 44.6002C335.6 46.1002 334.4 47.3002 332.9 47.3002C331.4 47.3002 330.2 46.1002 330.2 44.6002C330.2 43.1002 331.4 41.9002 332.9 41.9002ZM343.7 44.6002C343.7 43.1002 344.9 41.9002 346.4 41.9002C347.9 41.9002 349.2 43.1002 349.2 44.6002C349.2 46.1002 347.9 47.3002 346.4 47.3002C344.9 47.3002 343.7 46.1002 343.7 44.6002ZM346.4 28.3002C347.9 28.3002 349.2 29.6002 349.2 31.1002C349.2 32.6002 347.9 33.8002 346.4 33.8002C344.9 33.8002 343.7 32.6002 343.7 31.1002C343.7 29.6002 344.9 28.3002 346.4 28.3002ZM330.1 31.1002C330.1 29.6002 331.3 28.3002 332.8 28.3002H332.9C334.4 28.3002 335.6 29.6002 335.6 31.1002C335.6 32.6002 334.4 33.8002 332.9 33.8002H332.8C331.3 33.8002 330.1 32.6002 330.1 31.1002ZM339.6 35.1002C341.1 35.1002 342.3 36.4002 342.3 37.9002C342.3 39.4002 341.1 40.6002 339.6 40.6002C338.1 40.6002 336.9 39.4002 336.9 37.9002C336.9 36.4002 338.1 35.1002 339.6 35.1002ZM319.9 28.4002C322.6 28.4002 324.7 30.5002 324.7 33.1002V42.6002C324.7 45.2002 322.6 47.4002 319.9 47.4002H310.5C307.8 47.4002 305.7 45.2002 305.7 42.6002V33.1002C305.7 30.5002 307.8 28.4002 310.5 28.4002H319.9ZM330 8.7002C330 6.1002 332.2 4.0002 334.8 4.0002H344.3C346.9 4.0002 349 6.1002 349 8.7002V18.2002C349 20.8002 346.9 22.9002 344.3 22.9002H334.8C332.2 22.9002 330 20.8002 330 18.2002V8.7002ZM319.9 4.0002C322.5 4.0002 324.6 6.1002 324.6 8.7002V18.2002C324.6 20.8002 322.5 22.9002 319.9 22.9002H310.4C307.7 22.9002 305.6 20.8002 305.6 18.2002V8.7002C305.6 6.1002 307.7 4.0002 310.4 4.0002H319.9ZM334.8 8.0002C334.4 8.0002 334.1 8.30019 334.1 8.7002V18.2002C334.1 18.6002 334.4 18.9002 334.8 18.9002H344.3C344.6 18.9002 345 18.6002 345 18.2002V8.7002C345 8.30019 344.6 8.0002 344.3 8.0002H334.8ZM339.5 10.7002C341 10.7002 342.2 11.9002 342.2 13.4002V13.5002C342.2 15.0002 341 16.2002 339.5 16.2002C338 16.2002 336.8 15.0002 336.8 13.5002V13.4002C336.8 11.9002 338 10.7002 339.5 10.7002ZM309.7 42.6002C309.7 43.0002 310 43.3002 310.3 43.3002H319.8C320.2 43.3002 320.5 43.0002 320.5 42.6002V33.1002C320.5 32.7002 320.2 32.4002 319.8 32.4002H310.3C310 32.4002 309.7 32.7002 309.7 33.1002V42.6002ZM315.1 35.1002C316.6 35.1002 317.8 36.4002 317.8 37.9002C317.8 39.4002 316.6 40.6002 315.1 40.6002C313.6 40.6002 312.3 39.4002 312.3 37.9002C312.3 36.4002 313.6 35.1002 315.1 35.1002ZM309.6 18.2002C309.6 18.6002 309.9 18.9002 310.3 18.9002H319.8C320.2 18.9002 320.5 18.6002 320.5 18.2002V8.7002C320.5 8.30019 320.2 8.0002 319.8 8.0002H310.3C309.9 8.0002 309.6 8.30019 309.6 8.7002V18.2002ZM315.1 10.7002C316.6 10.7002 317.8 12.0002 317.8 13.5002C317.8 15.0002 316.6 16.2002 315.1 16.2002H315C313.5 16.2002 312.3 15.0002 312.3 13.5002C312.3 12.0002 313.5 10.7002 315 10.7002H315.1ZM134.6 -83.1998C138 -83.3331 141.366 -83.6331 144.7 -84.0998C145.8 -84.1998 146.8 -83.3998 147 -82.2998C147.4 -79.4998 147.666 -76.6331 147.8 -73.6998C147.9 -72.1998 146.7 -70.8998 145.2 -70.8998C144.1 -70.8998 143.2 -71.5998 142.5 -72.3998C141.8 -73.1998 140.9 -73.5998 139.9 -73.5998C137.7 -73.5998 135.8 -71.1998 135.8 -68.1998C135.8 -65.1998 137.7 -62.7998 139.9 -62.7998C140.9 -62.7998 141.8 -63.1998 142.5 -63.9998C143.2 -64.7998 144.1 -65.4998 145.2 -65.4998C146.8 -65.4998 148 -64.1998 148 -62.6998C147.866 -59.0998 147.566 -55.5331 147.1 -51.9998C146.9 -51.0998 146.2 -50.2998 145.3 -50.1998C141.766 -49.7331 138.2 -49.4331 134.6 -49.2998C133 -49.1998 131.8 -50.4998 131.8 -51.9998C131.8 -53.0998 132.5 -54.0998 133.3 -54.7998C134 -55.4998 134.5 -56.3998 134.5 -57.3998C134.5 -59.5998 132.1 -61.3998 129.1 -61.3998C126.1 -61.3998 123.6 -59.5998 123.6 -57.3998C123.6 -56.3998 124.1 -55.4998 124.9 -54.7998C125.7 -54.0998 126.3 -53.1998 126.3 -52.0998C126.3 -50.5998 125.1 -49.2998 123.6 -49.3998C120.666 -49.5998 117.766 -49.8998 114.9 -50.2998C113.8 -50.4998 113 -51.4998 113.2 -52.5998C113.666 -55.9331 113.966 -59.2998 114.1 -62.6998C114.1 -64.1998 112.9 -65.4998 111.3 -65.4998C110.2 -65.4998 109.3 -64.7998 108.6 -63.9998C107.9 -63.1998 107 -62.7998 106 -62.7998C103.8 -62.7998 101.9 -65.1998 101.9 -68.1998C101.9 -71.1998 103.8 -73.5998 106 -73.5998C107 -73.5998 107.9 -73.1998 108.6 -72.3998C109.3 -71.5998 110.2 -70.8998 111.3 -70.8998C112.8 -70.8998 114 -72.1998 113.9 -73.6998C113.766 -76.4331 113.5 -79.1665 113.1 -81.8998C113 -82.4998 113.2 -83.1998 113.7 -83.5998C114.1 -84.0998 114.8 -84.2998 115.4 -84.1998C118.066 -83.7998 120.8 -83.4998 123.6 -83.2998C125.1 -83.2998 126.3 -84.4998 126.3 -85.9998C126.3 -87.0998 125.7 -87.9998 124.9 -88.6998C124.1 -89.3998 123.6 -90.2998 123.6 -91.2998C123.6 -93.4998 126.1 -95.2998 129.1 -95.2998C132.1 -95.2998 134.5 -93.4998 134.5 -91.2998C134.5 -90.2998 134 -89.3998 133.3 -88.6998C132.5 -87.9998 131.8 -86.9998 131.8 -85.8998C131.8 -84.3998 133 -83.1998 134.6 -83.1998Z" fill="#0F172A"/>
<path fill-rule="evenodd" clip-rule="evenodd" d="M405.6 210.8C405.6 207.5 408.3 204.8 411.6 204.8H438.6C441.9 204.8 444.6 207.5 444.6 210.8V234.8C444.6 238.1 441.9 240.8 438.6 240.8H411.6C408.3 240.8 405.6 238.1 405.6 234.8V210.8ZM413.6 214.9L417 218.3L413.6 221.8C413 222.4 413 223.3 413.6 223.9C414.2 224.5 415.1 224.5 415.7 223.9L420.2 219.4C420.8 218.8 420.8 217.9 420.2 217.3L415.7 212.8C415.1 212.2 414.2 212.2 413.6 212.8C413 213.4 413 214.3 413.6 214.9ZM422.1 221.3C421.3 221.3 420.6 222 420.6 222.8C420.6 223.7 421.3 224.3 422.1 224.3H428.1C429 224.3 429.6 223.7 429.6 222.8C429.6 222 429 221.3 428.1 221.3H422.1ZM-498.8 -85.8999C-498.8 -89.1999 -496.1 -91.8999 -492.8 -91.8999H-465.8C-462.5 -91.8999 -459.8 -89.1999 -459.8 -85.8999V-66.3999C-459.8 -62.9999 -462.5 -60.3999 -465.8 -60.3999H-471.8V-59.7999C-471.8 -58.5999 -471.3 -57.4999 -470.5 -56.6999L-469.2 -55.3999C-468.8 -54.9999 -468.7 -54.2999 -468.9 -53.7999C-469.1 -53.1999 -469.7 -52.8999 -470.3 -52.8999H-488.3C-488.9 -52.8999 -489.4 -53.1999 -489.7 -53.7999C-489.9 -54.2999 -489.8 -54.9999 -489.3 -55.3999L-488.1 -56.6999C-487.3 -57.4999 -486.8 -58.5999 -486.8 -59.7999V-60.3999H-492.8C-496.1 -60.3999 -498.8 -62.9999 -498.8 -66.3999V-85.8999ZM-495.8 -85.8999V-70.8999C-495.8 -69.1999 -494.4 -67.8999 -492.8 -67.8999H-465.8C-464.1 -67.8999 -462.8 -69.1999 -462.8 -70.8999V-85.8999C-462.8 -87.4999 -464.1 -88.8999 -465.8 -88.8999H-492.8C-494.4 -88.8999 -495.8 -87.4999 -495.8 -85.8999ZM-470.3 231.8H-488.3V213.8H-470.3V231.8Z" fill="#0F172A"/>
<path fill-rule="evenodd" clip-rule="evenodd" d="M245.7 222.8C245.7 233.6 236.9 242.3 226.2 242.3C215.4 242.3 206.7 233.6 206.7 222.8C206.7 212.1 215.4 203.3 226.2 203.3C236.9 203.3 245.7 212.1 245.7 222.8ZM223.9 212.3C219.4 212.3 215.7 216 215.7 220.6C215.7 225.1 219.4 228.8 223.9 228.8C225.7 228.8 227.3 228.3 228.6 227.4L232.6 231.4C233.2 232 234.1 232 234.7 231.4C235.3 230.8 235.3 229.9 234.7 229.3L230.7 225.3C231.6 223.9 232.2 222.3 232.2 220.6C232.2 216 228.5 212.3 223.9 212.3ZM144.6 203.3C145.4 203.3 146.1 204 146.1 204.8C146.1 205.7 145.4 206.3 144.6 206.3H143.1V227.3C143.1 230.6 140.4 233.3 137.1 233.3H134.7L137 240.4C137.3 241.1 136.8 242 136.1 242.3C135.3 242.5 134.4 242.1 134.2 241.3L133.5 239.3H116.7L116 241.3C115.7 242.1 114.9 242.5 114.1 242.3C113.3 242 112.9 241.1 113.2 240.4L115.5 233.3H113.1C109.8 233.3 107.1 230.6 107.1 227.3V206.3H105.6C104.7 206.3 104.1 205.7 104.1 204.8C104.1 204 104.7 203.3 105.6 203.3H144.6ZM126.6 216.8C126.6 216 125.9 215.3 125.1 215.3C124.2 215.3 123.6 216 123.6 216.8V224.3C123.6 225.2 124.2 225.8 125.1 225.8C125.9 225.8 126.6 225.2 126.6 224.3V216.8ZM132.6 212.3C132.6 211.5 131.9 210.8 131.1 210.8C130.2 210.8 129.6 211.5 129.6 212.3V224.3C129.6 225.2 130.2 225.8 131.1 225.8C131.9 225.8 132.6 225.2 132.6 224.3V212.3ZM132.5 236.3L131.5 233.3H118.7L117.7 236.3H132.5ZM120.5 221.3C120.5 220.5 119.9 219.8 119 219.8C118.2 219.8 117.5 220.5 117.5 221.3V224.3C117.5 225.2 118.2 225.8 119 225.8C119.9 225.8 120.5 225.2 120.5 224.3V221.3ZM335.7 102.1C337.7 102.1 339.4 103.8 339.4 105.8V111.8C340.266 111.933 341.133 112.067 342 112.2C344.9 112.6 346.9 115.1 346.9 118V130.6C346.9 133.9 344.2 136.6 340.9 136.6H340.4L340.7 140C340.9 142.2 339.2 144.1 337 144.1H317.9C315.7 144.1 314 142.2 314.2 140L314.5 136.6H313.9C310.6 136.6 307.9 133.9 307.9 130.6V118C307.9 115.1 310 112.6 312.9 112.2C313.7 112.067 314.533 111.933 315.4 111.8V105.8C315.4 103.8 317.1 102.1 319.2 102.1H335.7ZM339.4 121.6C340.3 121.6 340.9 120.9 340.9 120.1C340.9 119.3 340.3 118.6 339.4 118.6C338.6 118.6 337.9 119.3 337.9 120.1C337.9 120.9 338.6 121.6 339.4 121.6ZM327.4 127.6C324.533 127.6 321.7 127.733 318.9 128C318.5 128.1 318.2 128.3 318.2 128.7L317.1 140.3C317.1 140.7 317.4 141.1 317.9 141.1H337C337.4 141.1 337.7 140.7 337.7 140.3L336.7 128.7C336.6 128.3 336.3 128.1 336 128C333.2 127.733 330.333 127.6 327.4 127.6ZM336.4 111.5V105.8C336.4 105.4 336.1 105.1 335.7 105.1H319.2C318.8 105.1 318.4 105.4 318.4 105.8V111.5C321.4 111.233 324.4 111.1 327.4 111.1C330.466 111.1 333.466 111.233 336.4 111.5ZM333.4 118.6C332.6 118.6 331.9 119.3 331.9 120.1C331.9 120.9 332.6 121.6 333.4 121.6C334.3 121.6 334.9 120.9 334.9 120.1C334.9 119.3 334.3 118.6 333.4 118.6ZM5.89981 225.8C5.89981 216.7 13.2998 209.3 22.3998 209.3C23.1998 209.3 23.8998 210 23.8998 210.8V224.3H37.3998C38.1998 224.3 38.8998 225 38.8998 225.8C38.8998 234.9 31.4998 242.3 22.3998 242.3C13.2998 242.3 5.89981 234.9 5.89981 225.8ZM26.8998 204.8C26.8998 204 27.5998 203.3 28.3998 203.3C37.4998 203.3 44.8998 210.7 44.8998 219.8C44.8998 220.7 44.1998 221.3 43.3998 221.3H28.3998C27.5998 221.3 26.8998 220.7 26.8998 219.8V204.8ZM-359.6 -55.4001C-359 -54.8001 -359 -53.9001 -359.6 -53.3001C-360.2 -52.7001 -361.1 -52.7001 -361.7 -53.3001L-397.7 -89.3001C-398.3 -89.9001 -398.3 -90.8001 -397.7 -91.4001C-397.1 -92.0001 -396.2 -92.0001 -395.6 -91.4001L-359.6 -55.4001ZM-357.7 -61.0001C-357.7 -60.0001 -358.1 -59.3001 -358.7 -58.7001L-368.2 -68.2001V-80.5001L-362.8 -85.9001C-360.9 -87.7001 -357.7 -86.4001 -357.7 -83.7001V-61.0001ZM-371.2 -81.4001V-71.3001L-387.3 -87.4001H-377.2C-373.8 -87.4001 -371.2 -84.7001 -371.2 -81.4001ZM-399.7 -81.4001C-399.7 -83.0001 -399.1 -84.4001 -398.1 -85.5001L-372.4 -59.8001C-373.5 -58.3001 -375.2 -57.4001 -377.2 -57.4001H-393.7C-397 -57.4001 -399.7 -60.1001 -399.7 -63.4001V-81.4001Z" fill="#0F172A"/>
</g>
</g>
<defs>
<clipPath id="clip0_72_5505">
<rect width="50" height="50" fill="white"/>
</clipPath>
</defs>
</svg>
