<svg width="50" height="50" viewBox="0 0 50 50" fill="none" xmlns="http://www.w3.org/2000/svg">
<g clip-path="url(#clip0_72_5527)">
<mask id="mask0_72_5527" style="mask-type:luminance" maskUnits="userSpaceOnUse" x="-1019" y="-762" width="1584" height="1224">
<path d="M-1019 -762H565V462H-1019V-762Z" fill="white"/>
</mask>
<g mask="url(#mask0_72_5527)">
<path fill-rule="evenodd" clip-rule="evenodd" d="M-465 -59.4C-465.8 -58.6 -467.1 -58.6 -467.9 -59.4L-487.5 -79V-63.5C-487.5 -62.4 -488.4 -61.5 -489.5 -61.5C-490.7 -61.5 -491.6 -62.4 -491.6 -63.5V-83.9C-491.6 -85 -490.7 -85.9 -489.5 -85.9H-469.2C-468.1 -85.9 -467.2 -85 -467.2 -83.9C-467.2 -82.8 -468.1 -81.9 -469.2 -81.9H-484.6L-465 -62.3C-464.2 -61.5 -464.2 -60.2 -465 -59.4ZM-293.5 25.1C-293.5 13.1 -283.8 3.39999 -271.8 3.39999C-259.8 3.39999 -250.1 13.1 -250.1 25.1C-250.1 37.1 -259.8 46.8 -271.8 46.8C-283.8 46.8 -293.5 37.1 -293.5 25.1ZM-273.9 33.9C-273.9 35 -273 35.9 -271.8 35.9C-270.7 35.9 -269.8 35 -269.8 33.9V21.5L-264.5 27.1C-263.7 28 -262.5 28 -261.6 27.3C-260.8 26.5 -260.8 25.2 -261.5 24.4L-270.3 14.9C-270.7 14.5 -271.3 14.2 -271.8 14.2C-272.4 14.2 -272.9 14.5 -273.3 14.9L-282.1 24.4C-282.9 25.2 -282.9 26.5 -282 27.3C-281.2 28 -279.9 28 -279.2 27.1L-273.9 21.5V33.9ZM-666.7 -72.4C-666.7 -71.3 -667.6 -70.4 -668.8 -70.4H-686.8L-680.9 -65.1C-680.1 -64.3 -680.1 -63 -680.9 -62.2C-681.6 -61.4 -682.9 -61.3 -683.7 -62.1L-693.2 -70.9C-693.6 -71.3 -693.9 -71.9 -693.9 -72.4C-693.9 -73 -693.6 -73.5 -693.2 -73.9L-683.7 -82.7C-682.9 -83.5 -681.6 -83.4 -680.9 -82.6C-680.1 -81.8 -680.1 -80.5 -680.9 -79.8L-686.8 -74.4H-668.8C-667.6 -74.4 -666.7 -73.5 -666.7 -72.4ZM-91.5001 14.2C-92.7001 14.2 -93.6001 15.1 -93.6001 16.2V39.3C-93.6001 40.4 -92.7001 41.3 -91.5001 41.3H-68.4001C-67.3002 41.3 -66.4001 40.4 -66.4001 39.3V28.4C-66.4001 27.3 -65.5001 26.4 -64.4001 26.4C-63.2001 26.4 -62.3001 27.3 -62.3001 28.4V39.3C-62.3001 42.7 -65.1002 45.4 -68.4001 45.4H-91.5001C-94.9001 45.4 -97.7001 42.7 -97.7001 39.3V16.2C-97.7001 12.8 -94.9001 10.1 -91.5001 10.1H-78.0001C-76.8001 10.1 -75.9001 11 -75.9001 12.1C-75.9001 13.3 -76.8001 14.2 -78.0001 14.2H-91.5001ZM-86.0001 31L-61.4001 8.7H-68.4001C-69.5001 8.7 -70.4001 7.8 -70.4001 6.7C-70.4001 5.59999 -69.5001 4.7 -68.4001 4.7H-56.1001C-55.0001 4.7 -54.1001 5.59999 -54.1001 6.7V18.9C-54.1001 20 -55.0001 21 -56.1001 21C-57.3001 21 -58.2001 20 -58.2001 18.9V11.3L-83.3001 34C-84.1001 34.8 -85.4001 34.7 -86.2001 33.9C-86.9001 33 -86.9001 31.8 -86.0001 31ZM-593.1 -72.4C-593.1 -73.5 -592.2 -74.4 -591.1 -74.4H-573L-578.9 -79.8C-579.7 -80.5 -579.7 -81.8 -579 -82.6C-578.2 -83.4 -576.9 -83.5 -576.1 -82.7L-566.6 -73.9C-566.2 -73.5 -566 -73 -566 -72.4C-566 -71.9 -566.2 -71.3 -566.6 -70.9L-576.1 -62.1C-576.9 -61.3 -578.2 -61.4 -579 -62.2C-579.7 -63 -579.7 -64.3 -578.9 -65.1L-573 -70.4H-591.1C-592.2 -70.4 -593.1 -71.3 -593.1 -72.4ZM-378.9 -66.4C-378.1 -65.6 -378.1 -64.3 -378.9 -63.5C-379.7 -62.7 -381 -62.7 -381.8 -63.5L-386.4 -68.1C-386.267 -65.2333 -386.033 -62.3667 -385.7 -59.5C-385.6 -58.7 -384.9 -58 -384 -57.9C-380.8 -57.6333 -377.533 -57.5 -374.2 -57.5C-370.933 -57.5 -367.7 -57.6333 -364.5 -57.9C-363.6 -58 -362.9 -58.7 -362.8 -59.5C-362.6 -60.9 -362.467 -62.3333 -362.4 -63.8C-362.3 -64.9 -361.3 -65.7 -360.2 -65.6C-359.1 -65.5 -358.2 -64.6 -358.3 -63.4C-358.433 -61.9333 -358.6 -60.5 -358.8 -59.1C-359.1 -56.3 -361.3 -54.1 -364.1 -53.9C-367.433 -53.5667 -370.8 -53.4 -374.2 -53.4C-377.667 -53.4 -381.067 -53.5667 -384.4 -53.9C-387.2 -54.1 -389.4 -56.3 -389.7 -59.1C-390.1 -62.1 -390.333 -65.1333 -390.4 -68.2L-395.2 -63.5C-396 -62.7 -397.3 -62.7 -398 -63.5C-398.8 -64.3 -398.8 -65.6 -398 -66.4L-389.9 -74.5C-389.1 -75.3 -387.8 -75.3 -387 -74.5L-378.9 -66.4ZM-384 -86.9C-384.9 -86.8 -385.6 -86.2 -385.7 -85.3C-385.9 -83.9 -386.033 -82.5 -386.1 -81.1C-386.2 -80 -387.2 -79.1 -388.3 -79.2C-389.4 -79.3 -390.3 -80.3 -390.2 -81.4C-390.067 -82.8667 -389.933 -84.3333 -389.8 -85.8C-389.4 -88.6 -387.2 -90.7 -384.4 -91C-381.067 -91.2667 -377.7 -91.4 -374.3 -91.4C-370.833 -91.4 -367.433 -91.2667 -364.1 -91C-361.3 -90.7 -359.1 -88.6 -358.8 -85.8C-358.4 -82.7333 -358.167 -79.6667 -358.1 -76.6L-353.3 -81.3C-352.5 -82.1 -351.2 -82.1 -350.5 -81.3C-349.7 -80.5 -349.7 -79.3 -350.5 -78.5L-358.6 -70.3C-359.4 -69.5 -360.7 -69.5 -361.5 -70.3L-369.6 -78.5C-370.4 -79.3 -370.4 -80.5 -369.6 -81.3C-368.8 -82.1 -367.5 -82.1 -366.7 -81.3L-362.1 -76.8C-362.233 -79.6667 -362.467 -82.5 -362.8 -85.3C-362.9 -86.2 -363.6 -86.8 -364.5 -86.9C-367.7 -87.2333 -370.967 -87.4 -374.3 -87.4C-377.567 -87.4 -380.8 -87.2333 -384 -86.9ZM-180.5 -83C-183.2 -83 -185.4 -85.2 -185.4 -87.9C-185.4 -90.7 -183.2 -92.9 -180.5 -92.9C-177.7 -92.9 -175.5 -90.7 -175.5 -87.9C-175.5 -85.2 -177.7 -83 -180.5 -83ZM-171.2 -86.1C-172.2 -86.1 -173 -86.9 -173 -87.9C-173 -89 -172.2 -89.8 -171.2 -89.8H-157.6C-156.5 -89.8 -155.7 -89 -155.7 -87.9C-155.7 -86.9 -156.5 -86.1 -157.6 -86.1H-171.2ZM-187.9 -87.9C-187.9 -86.9 -188.7 -86.1 -189.7 -86.1H-193.4C-194.5 -86.1 -195.3 -86.9 -195.3 -87.9C-195.3 -88.9 -194.5 -89.8 -193.4 -89.8H-189.7C-188.7 -89.8 -187.9 -88.9 -187.9 -87.9ZM-193.4 -55.1C-194.5 -55.1 -195.3 -55.9 -195.3 -57C-195.3 -58 -194.5 -58.8 -193.4 -58.8H-189.7C-188.7 -58.8 -187.9 -58 -187.9 -57C-187.9 -55.9 -188.7 -55.1 -189.7 -55.1H-193.4ZM-171.1 -55.1C-172.2 -55.1 -173 -55.9 -173 -57C-173 -58 -172.2 -58.8 -171.1 -58.8H-157.5C-156.5 -58.8 -155.7 -58 -155.7 -57C-155.7 -55.9 -156.5 -55.1 -157.5 -55.1H-171.1ZM-177.9 -72.4C-177.9 -71.4 -178.8 -70.6 -179.8 -70.6H-193.4C-194.4 -70.6 -195.3 -71.4 -195.3 -72.4C-195.3 -73.5 -194.4 -74.3 -193.4 -74.3H-179.8C-178.8 -74.3 -177.9 -73.5 -177.9 -72.4ZM-161.2 -70.6C-162.2 -70.6 -163.1 -71.4 -163.1 -72.4C-163.1 -73.5 -162.2 -74.3 -161.2 -74.3H-157.5C-156.5 -74.3 -155.6 -73.5 -155.6 -72.4C-155.6 -71.4 -156.5 -70.6 -157.5 -70.6H-161.2ZM-170.5 -67.5C-173.2 -67.5 -175.4 -69.7 -175.4 -72.4C-175.4 -75.2 -173.2 -77.4 -170.5 -77.4C-167.7 -77.4 -165.5 -75.2 -165.5 -72.4C-165.5 -69.7 -167.7 -67.5 -170.5 -67.5ZM-180.4 -52C-183.1 -52 -185.3 -54.2 -185.3 -57C-185.3 -59.7 -183.1 -61.9 -180.4 -61.9C-177.7 -61.9 -175.4 -59.7 -175.4 -57C-175.4 -54.2 -177.7 -52 -180.4 -52ZM214.8 -189.4C215.9 -189.4 216.8 -188.5 216.8 -187.4V-153.5C216.8 -152.4 215.9 -151.5 214.8 -151.5H210.7C209.6 -151.5 208.7 -152.4 208.7 -153.5V-187.4C208.7 -188.5 209.6 -189.4 210.7 -189.4H214.8ZM233.8 -189.4C234.9 -189.4 235.9 -188.5 235.9 -187.4V-153.5C235.9 -152.4 234.9 -151.5 233.8 -151.5H229.8C228.6 -151.5 227.7 -152.4 227.7 -153.5V-187.4C227.7 -188.5 228.6 -189.4 229.8 -189.4H233.8ZM114 -159.7L117.4 -168.2C118 -169.6 118.8 -170.8 119.8 -171.9L138.6 -190.6C140.8 -192.9 144.5 -192.9 146.7 -190.6C149 -188.4 149 -184.7 146.7 -182.5L128 -163.7C126.9 -162.7 125.7 -161.9 124.3 -161.3L115.8 -157.9C114.7 -157.4 113.6 -158.5 114 -159.7ZM108.8 -156C108.8 -154.2 110.3 -152.6 112.1 -152.6H137.9C139.8 -152.6 141.3 -154.2 141.3 -156V-170.3C141.3 -171.4 142.2 -172.3 143.3 -172.3C144.5 -172.3 145.4 -171.4 145.4 -170.3V-156C145.4 -151.9 142 -148.6 137.9 -148.6H112.1C108 -148.6 104.7 -151.9 104.7 -156V-181.8C104.7 -185.9 108 -189.3 112.1 -189.3H126.4C127.5 -189.3 128.4 -188.4 128.4 -187.2C128.4 -186.1 127.5 -185.2 126.4 -185.2H112.1C110.3 -185.2 108.8 -183.7 108.8 -181.8V-156ZM8.49988 -161.8L38.0999 -191.4C40.3998 -193.7 43.9999 -193.7 46.2999 -191.4C48.4999 -189.2 48.4999 -185.5 46.2999 -183.3L16.5999 -153.7C15.5999 -152.6 14.3999 -151.8 12.9999 -151.3L4.3999 -147.8C3.29993 -147.4 2.19989 -148.5 2.69989 -149.6L6.09985 -158.1C6.59985 -159.5 7.49988 -160.8 8.49988 -161.8ZM-97.5001 -90C-97.5001 -92.3 -95.7001 -94.1 -93.5001 -94.1H-90.3001C-88.4001 -94.1 -86.8002 -92.8 -86.4001 -90.9L-84.4001 -82.2C-84.0001 -80.1 -85.2001 -78 -87.3001 -77.4L-89.8001 -76.7C-90.9001 -76.3 -91.6001 -75.2 -91.1001 -74.1C-88.0001 -66.4 -81.8001 -60.3 -74.2001 -57.1C-73.1002 -56.7 -71.9001 -57.3 -71.6001 -58.4L-70.9001 -61C-70.3002 -63 -68.2001 -64.3 -66.1001 -63.8L-57.3001 -61.9C-55.5001 -61.5 -54.1001 -59.8 -54.1001 -57.9V-54.8C-54.1001 -52.5 -56.0001 -50.7 -58.2001 -50.7H-62.3001C-65.4001 -50.7 -68.4001 -51.1 -71.3001 -51.9C-83.5001 -55.1 -93.1002 -64.7 -96.4001 -77C-97.1002 -79.8 -97.5001 -82.9 -97.5001 -86V-90Z" fill="#0F172A"/>
<path fill-rule="evenodd" clip-rule="evenodd" d="M0.799805 -93.3999C0.799805 -94.4999 1.6998 -95.3999 2.7998 -95.3999H47.4998C48.6998 -95.3999 49.5998 -94.4999 49.5998 -93.3999C49.5998 -92.2999 48.6998 -91.2999 47.4998 -91.2999H46.8998V-67.5999C46.8998 -63.4999 43.4998 -60.1999 39.3998 -60.1999H36.4998L38.6998 -51.8999C38.8998 -50.7999 38.2998 -49.6999 37.1998 -49.3999C36.0998 -49.0999 34.9998 -49.6999 34.6998 -50.7999L34.3998 -51.9999H15.8998L15.5998 -50.7999C15.2998 -49.6999 14.1998 -49.0999 13.0998 -49.3999C11.9998 -49.6999 11.3998 -50.7999 11.6998 -51.8999L13.7998 -60.1999H10.8998C6.7998 -60.1999 3.4998 -63.4999 3.4998 -67.5999V-91.2999H2.7998C1.6998 -91.2999 0.799805 -92.2999 0.799805 -93.3999ZM14.2998 -74.3999V-70.2999C14.2998 -69.1999 15.1998 -68.2999 16.3998 -68.2999C17.4998 -68.2999 18.3998 -69.1999 18.3998 -70.2999V-74.3999C18.3998 -75.4999 17.4998 -76.3999 16.3998 -76.3999C15.1998 -76.3999 14.2998 -75.4999 14.2998 -74.3999ZM31.8998 -85.1999V-70.2999C31.8998 -69.1999 32.8998 -68.2999 33.9998 -68.2999C35.0998 -68.2999 35.9998 -69.1999 35.9998 -70.2999V-85.1999C35.9998 -86.3999 35.0998 -87.2999 33.9998 -87.2999C32.8998 -87.2999 31.8998 -86.3999 31.8998 -85.1999ZM17.9998 -60.1999L16.9998 -56.0999H33.3998L32.2998 -60.1999H17.9998ZM27.1998 -79.7999C27.1998 -80.8999 26.1998 -81.8999 25.0998 -81.8999C23.9998 -81.8999 23.0998 -80.8999 23.0998 -79.7999V-70.2999C23.0998 -69.1999 23.9998 -68.2999 25.0998 -68.2999C26.1998 -68.2999 27.1998 -69.1999 27.1998 -70.2999V-79.7999ZM14.1998 11.6001C14.8998 12.3001 14.8998 13.5001 14.1998 14.2001C8.1998 20.2001 8.1998 30.0001 14.1998 36.0001C20.1998 42.0001 29.9998 42.0001 35.9998 36.0001C42.0998 30.0001 42.0998 20.2001 35.9998 14.2001C35.2998 13.5001 35.2998 12.3001 35.9998 11.6001C36.6998 11.0001 37.8998 11.0001 38.5998 11.6001C45.9998 19.1001 45.9998 31.1001 38.5998 38.5001C31.0998 45.9001 19.0998 45.9001 11.6998 38.5001C4.2998 31.1001 4.2998 19.1001 11.6998 11.6001C12.3998 11.0001 13.4998 11.0001 14.1998 11.6001ZM25.0998 6.1001C26.0998 6.1001 26.8998 6.9001 26.8998 7.9001V25.7001C26.8998 26.7001 26.0998 27.5001 25.0998 27.5001C24.0998 27.5001 23.2998 26.7001 23.2998 25.7001V7.9001C23.2998 6.9001 24.0998 6.1001 25.0998 6.1001ZM215.1 7.1001C215.9 7.1001 216.6 7.80009 216.6 8.6001C216.6 9.4001 215.9 10.1001 215.1 10.1001H212.1C210.4 10.1001 209.1 11.4001 209.1 13.1001V16.1001C209.1 16.9001 208.4 17.6001 207.6 17.6001C206.8 17.6001 206.1 16.9001 206.1 16.1001V13.1001C206.1 9.80009 208.8 7.1001 212.1 7.1001H215.1ZM236.1 7.1001C239.4 7.1001 242.1 9.80009 242.1 13.1001V16.1001C242.1 16.9001 241.4 17.6001 240.6 17.6001C239.8 17.6001 239.1 16.9001 239.1 16.1001V13.1001C239.1 11.4001 237.7 10.1001 236.1 10.1001H233.1C232.3 10.1001 231.6 9.4001 231.6 8.6001C231.6 7.80009 232.3 7.1001 233.1 7.1001H236.1ZM231.6 25.1001C231.6 29.2001 228.2 32.6001 224.1 32.6001C219.9 32.6001 216.6 29.2001 216.6 25.1001C216.6 20.9001 219.9 17.6001 224.1 17.6001C228.2 17.6001 231.6 20.9001 231.6 25.1001ZM209.1 37.1001C209.1 38.7001 210.4 40.1001 212.1 40.1001H215.1C215.9 40.1001 216.6 40.8001 216.6 41.6001C216.6 42.4001 215.9 43.1001 215.1 43.1001H212.1C208.8 43.1001 206.1 40.4001 206.1 37.1001V34.1001C206.1 33.3001 206.8 32.6001 207.6 32.6001C208.4 32.6001 209.1 33.3001 209.1 34.1001V37.1001ZM242.1 37.1001C242.1 40.4001 239.4 43.1001 236.1 43.1001H233.1C232.3 43.1001 231.6 42.4001 231.6 41.6001C231.6 40.8001 232.3 40.1001 233.1 40.1001H236.1C237.7 40.1001 239.1 38.7001 239.1 37.1001V34.1001C239.1 33.3001 239.8 32.6001 240.6 32.6001C241.4 32.6001 242.1 33.3001 242.1 34.1001V37.1001ZM222 -60.1999C223.2 -61.3999 225.1 -61.3999 226.3 -60.1999C226.8 -59.5999 226.8 -58.6999 226.3 -58.0999L225.2 -57.0999C224.9 -56.7999 224.5 -56.5999 224.1 -56.5999C223.7 -56.5999 223.4 -56.7999 223.1 -57.0999L222 -58.0999C221.4 -58.6999 221.4 -59.5999 222 -60.1999ZM215.6 -66.5999C220.3 -71.2999 227.9 -71.2999 232.6 -66.5999C233.2 -65.9999 233.2 -65.0999 232.6 -64.4999L231.6 -63.3999C231.3 -63.0999 230.9 -62.9999 230.5 -62.9999C230.1 -62.9999 229.7 -63.0999 229.4 -63.3999C226.5 -66.2999 221.8 -66.2999 218.8 -63.3999C218.2 -62.7999 217.3 -62.7999 216.7 -63.3999L215.6 -64.4999C215.1 -65.0999 215.1 -65.9999 215.6 -66.5999ZM209.2 -72.9999C217.4 -81.1999 230.7 -81.1999 238.9 -72.9999C239.5 -72.3999 239.5 -71.3999 238.9 -70.7999L237.9 -69.7999C237.6 -69.4999 237.2 -69.2999 236.8 -69.2999C236.4 -69.2999 236 -69.4999 235.8 -69.7999C229.3 -76.1999 218.9 -76.1999 212.4 -69.7999C211.8 -69.1999 210.9 -69.1999 210.3 -69.7999L209.2 -70.7999C209 -71.0999 208.8 -71.4999 208.8 -71.8999C208.8 -72.2999 209 -72.6999 209.2 -72.9999ZM202.9 -79.2999C214.6 -90.9999 233.6 -90.9999 245.3 -79.2999C245.9 -78.6999 245.9 -77.7999 245.3 -77.1999L244.2 -76.0999C244 -75.8999 243.6 -75.6999 243.2 -75.6999C242.8 -75.6999 242.4 -75.8999 242.1 -76.0999C232.2 -86.0999 216 -86.0999 206.1 -76.0999C205.8 -75.8999 205.4 -75.6999 205 -75.6999C204.6 -75.6999 204.2 -75.8999 203.9 -76.0999L202.9 -77.1999C202.3 -77.7999 202.3 -78.6999 202.9 -79.2999ZM112.1 106.4C116.766 105.667 121.533 105.3 126.4 105.3C131.266 105.3 136.033 105.667 140.7 106.4C144.7 106.9 147.4 110.4 147.4 114.3V126.3C147.4 130.2 144.7 133.7 140.7 134.3C138.433 134.633 136.133 134.9 133.8 135.1C133.5 135.1 133.3 135.2 133.2 135.4L127.7 143.7C127.4 144.1 126.9 144.3 126.4 144.3C125.9 144.3 125.4 144.1 125.2 143.7L119.7 135.4C119.5 135.2 119.3 135.1 119.1 135.1C116.7 134.9 114.366 134.633 112.1 134.3C108.2 133.7 105.4 130.2 105.4 126.3V114.3C105.4 110.4 108.2 106.9 112.1 106.4ZM117.4 118.8H135.4C136.2 118.8 136.9 118.2 136.9 117.3C136.9 116.5 136.2 115.8 135.4 115.8H117.4C116.6 115.8 115.9 116.5 115.9 117.3C115.9 118.2 116.6 118.8 117.4 118.8ZM117.4 121.8C116.6 121.8 115.9 122.5 115.9 123.3C115.9 124.2 116.6 124.8 117.4 124.8H126.4C127.2 124.8 127.9 124.2 127.9 123.3C127.9 122.5 127.2 121.8 126.4 121.8H117.4Z" fill="#0F172A"/>
<path fill-rule="evenodd" clip-rule="evenodd" d="M204.6 112.8C204.6 109.5 207.3 106.8 210.6 106.8H237.6C240.9 106.8 243.6 109.5 243.6 112.8V136.8C243.6 140.1 240.9 142.8 237.6 142.8H210.6C207.3 142.8 204.6 140.1 204.6 136.8V112.8ZM212.6 116.9L216 120.3L212.6 123.8C212 124.4 212 125.3 212.6 125.9C213.2 126.5 214.1 126.5 214.7 125.9L219.2 121.4C219.8 120.8 219.8 119.9 219.2 119.3L214.7 114.8C214.1 114.2 213.2 114.2 212.6 114.8C212 115.4 212 116.3 212.6 116.9ZM221.1 123.3C220.3 123.3 219.6 124 219.6 124.8C219.6 125.7 220.3 126.3 221.1 126.3H227.1C228 126.3 228.6 125.7 228.6 124.8C228.6 124 228 123.3 227.1 123.3H221.1ZM-699.8 -183.9C-699.8 -187.2 -697.1 -189.9 -693.8 -189.9H-666.8C-663.5 -189.9 -660.8 -187.2 -660.8 -183.9V-164.4C-660.8 -161 -663.5 -158.4 -666.8 -158.4H-672.8V-157.8C-672.8 -156.6 -672.3 -155.5 -671.5 -154.7L-670.2 -153.4C-669.8 -153 -669.7 -152.3 -669.9 -151.8C-670.1 -151.2 -670.7 -150.9 -671.3 -150.9H-689.3C-689.9 -150.9 -690.4 -151.2 -690.7 -151.8C-690.9 -152.3 -690.8 -153 -690.3 -153.4L-689.1 -154.7C-688.3 -155.5 -687.8 -156.6 -687.8 -157.8V-158.4H-693.8C-697.1 -158.4 -699.8 -161 -699.8 -164.4V-183.9ZM-696.8 -183.9V-168.9C-696.8 -167.2 -695.4 -165.9 -693.8 -165.9H-666.8C-665.1 -165.9 -663.8 -167.2 -663.8 -168.9V-183.9C-663.8 -185.5 -665.1 -186.9 -666.8 -186.9H-693.8C-695.4 -186.9 -696.8 -185.5 -696.8 -183.9ZM-671.3 133.8H-689.3V115.8H-671.3V133.8Z" fill="#0F172A"/>
<path fill-rule="evenodd" clip-rule="evenodd" d="M-592.4 4.1001H-585.6C-581.5 4.1001 -578.1 7.4001 -578.1 11.6001V15.3001C-578.1 17.4001 -576.4 19.1001 -574.4 19.1001H-570.6C-566.5 19.1001 -563.1 22.4001 -563.1 26.6001V42.3001C-563.1 44.4001 -564.8 46.1001 -566.9 46.1001H-592.4C-594.4 46.1001 -596.1 44.4001 -596.1 42.3001V7.8001C-596.1 5.8001 -594.4 4.1001 -592.4 4.1001ZM-580.4 37.1001C-579 37.1001 -577.8 36.7001 -576.8 36.0001L-574.7 38.1001C-574.1 38.7001 -573.1 38.7001 -572.6 38.1001C-572 37.6001 -572 36.6001 -572.6 36.0001L-574.7 33.9001C-574 32.9001 -573.6 31.7001 -573.6 30.3001C-573.6 26.6001 -576.6 23.6001 -580.4 23.6001C-584.1 23.6001 -587.1 26.6001 -587.1 30.3001C-587.1 34.1001 -584.1 37.1001 -580.4 37.1001ZM-575.1 11.6001C-575.1 9.0001 -576.1 6.6001 -577.7 4.7001C-570.9 6.5001 -565.5 11.8001 -563.7 18.6001C-565.6 17.0001 -568 16.1001 -570.6 16.1001H-574.4C-574.8 16.1001 -575.1 15.7001 -575.1 15.3001V11.6001ZM-389.3 45.8001C-392.6 45.8001 -395.3 43.1001 -395.3 39.8001V23.5001L-381.6 31.5001L-388.5 35.3001C-389.3 35.7001 -389.5 36.6001 -389.1 37.3001C-388.8 38.0001 -387.8 38.3001 -387.1 37.9001L-375.7 31.8001C-374.9 31.3001 -373.8 31.3001 -372.9 31.8001L-361.5 37.9001C-360.8 38.3001 -359.9 38.0001 -359.5 37.3001C-359.1 36.6001 -359.4 35.7001 -360.1 35.3001L-367.1 31.5001L-353.3 23.5001V39.8001C-353.3 43.1001 -356 45.8001 -359.3 45.8001H-389.3ZM-395.3 20.0001V18.5001C-395.3 16.3001 -394.1 14.3001 -392.2 13.2001L-377.2 5.2001C-375.4 4.2001 -373.3 4.2001 -371.5 5.2001L-356.5 13.2001C-354.5 14.3001 -353.3 16.3001 -353.3 18.5001V20.0001L-370.2 29.9001L-371.5 29.2001C-373.3 28.2001 -375.4 28.2001 -377.2 29.2001L-378.5 29.9001L-395.3 20.0001ZM-274.8 136.8C-274.8 135.2 -273.4 133.8 -271.8 133.8C-270.1 133.8 -268.8 135.2 -268.8 136.8C-268.8 138.5 -270.1 139.8 -271.8 139.8C-273.4 139.8 -274.8 138.5 -274.8 136.8ZM-274.8 124.8C-274.8 123.2 -273.4 121.8 -271.8 121.8C-270.1 121.8 -268.8 123.2 -268.8 124.8C-268.8 126.5 -270.1 127.8 -271.8 127.8C-273.4 127.8 -274.8 126.5 -274.8 124.8ZM-274.8 112.8C-274.8 111.2 -273.4 109.8 -271.8 109.8C-270.1 109.8 -268.8 111.2 -268.8 112.8C-268.8 114.5 -270.1 115.8 -271.8 115.8C-273.4 115.8 -274.8 114.5 -274.8 112.8ZM-377.4 129.2C-375.5 130.3 -373.1 130.3 -371.1 129.2L-353.3 118.2V135.3C-353.3 138.6 -356 141.3 -359.3 141.3H-389.3C-392.6 141.3 -395.3 138.6 -395.3 135.3V118.2L-377.4 129.2ZM-372.7 126.6C-373.6 127.2 -374.8 127.2 -375.8 126.6L-395.2 114.7V114.3C-395.2 111 -392.5 108.3 -389.2 108.3H-359.2C-355.9 108.3 -353.2 111 -353.2 114.3V114.7L-372.7 126.6ZM-486.6 135.3C-486.6 134.5 -485.9 133.8 -485.1 133.8H-461.1C-460.3 133.8 -459.6 134.5 -459.6 135.3C-459.6 136.1 -460.3 136.8 -461.1 136.8H-485.1C-485.9 136.8 -486.6 136.1 -486.6 135.3ZM-496.4 135.3C-496.4 134 -495.4 133 -494.1 133C-492.9 133 -491.9 134 -491.9 135.3C-491.9 136.5 -492.9 137.5 -494.1 137.5C-495.4 137.5 -496.4 136.5 -496.4 135.3ZM-486.6 124.8C-486.6 124 -485.9 123.3 -485.1 123.3H-461.1C-460.3 123.3 -459.6 124 -459.6 124.8C-459.6 125.6 -460.3 126.3 -461.1 126.3H-485.1C-485.9 126.3 -486.6 125.6 -486.6 124.8ZM-496.4 124.8C-496.4 123.5 -495.4 122.5 -494.1 122.5C-492.9 122.5 -491.9 123.5 -491.9 124.8C-491.9 126 -492.9 127 -494.1 127C-495.4 127 -496.4 126 -496.4 124.8ZM-486.6 114.3C-486.6 113.5 -485.9 112.8 -485.1 112.8H-461.1C-460.3 112.8 -459.6 113.5 -459.6 114.3C-459.6 115.1 -460.3 115.8 -461.1 115.8H-485.1C-485.9 115.8 -486.6 115.1 -486.6 114.3ZM-496.4 114.3C-496.4 113 -495.4 112 -494.1 112C-492.9 112 -491.9 113 -491.9 114.3C-491.9 115.5 -492.9 116.5 -494.1 116.5C-495.4 116.5 -496.4 115.5 -496.4 114.3ZM17.6999 122.5C17.6999 119.6 19.9999 117.3 22.8999 117.3C25.7999 117.3 28.1999 119.6 28.1999 122.5C28.1999 124 27.5999 125.3 26.6999 126.3C25.6999 127.2 24.3999 127.8 22.8999 127.8C19.9999 127.8 17.6999 125.4 17.6999 122.5Z" fill="#0F172A"/>
<path fill-rule="evenodd" clip-rule="evenodd" d="M44.6998 124.8C44.6998 135.6 35.8998 144.3 25.1998 144.3C14.3998 144.3 5.69983 135.6 5.69983 124.8C5.69983 114.1 14.3998 105.3 25.1998 105.3C35.8998 105.3 44.6998 114.1 44.6998 124.8ZM22.8998 114.3C18.3998 114.3 14.6998 118 14.6998 122.6C14.6998 127.1 18.3998 130.8 22.8998 130.8C24.6998 130.8 26.2998 130.3 27.5998 129.4L31.5998 133.4C32.1998 134 33.0999 134 33.6998 133.4C34.2998 132.8 34.2998 131.9 33.6998 131.3L29.6998 127.3C30.5999 125.9 31.1998 124.3 31.1998 122.6C31.1998 118 27.4998 114.3 22.8998 114.3ZM-56.4002 105.3C-55.6002 105.3 -54.9002 106 -54.9002 106.8C-54.9002 107.7 -55.6002 108.3 -56.4002 108.3H-57.9002V129.3C-57.9002 132.6 -60.6002 135.3 -63.9002 135.3H-66.3002L-64.0002 142.4C-63.7002 143.1 -64.2002 144 -64.9002 144.3C-65.7002 144.5 -66.6002 144.1 -66.8002 143.3L-67.5002 141.3H-84.3002L-85.0002 143.3C-85.3002 144.1 -86.1002 144.5 -86.9002 144.3C-87.7002 144 -88.1002 143.1 -87.8002 142.4L-85.5002 135.3H-87.9002C-91.2002 135.3 -93.9002 132.6 -93.9002 129.3V108.3H-95.4002C-96.3002 108.3 -96.9002 107.7 -96.9002 106.8C-96.9002 106 -96.3002 105.3 -95.4002 105.3H-56.4002ZM-74.4002 118.8C-74.4002 118 -75.1002 117.3 -75.9002 117.3C-76.8002 117.3 -77.4002 118 -77.4002 118.8V126.3C-77.4002 127.2 -76.8002 127.8 -75.9002 127.8C-75.1002 127.8 -74.4002 127.2 -74.4002 126.3V118.8ZM-68.4002 114.3C-68.4002 113.5 -69.1002 112.8 -69.9002 112.8C-70.8002 112.8 -71.4002 113.5 -71.4002 114.3V126.3C-71.4002 127.2 -70.8002 127.8 -69.9002 127.8C-69.1002 127.8 -68.4002 127.2 -68.4002 126.3V114.3ZM-68.5002 138.3L-69.5002 135.3H-82.3002L-83.3002 138.3H-68.5002ZM-80.5002 123.3C-80.5002 122.5 -81.1002 121.8 -82.0002 121.8C-82.8002 121.8 -83.5002 122.5 -83.5002 123.3V126.3C-83.5002 127.2 -82.8002 127.8 -82.0002 127.8C-81.1002 127.8 -80.5002 127.2 -80.5002 126.3V123.3ZM134.7 4.0999C136.7 4.0999 138.4 5.7999 138.4 7.7999V13.7999C139.266 13.9332 140.133 14.0666 141 14.1999C143.9 14.5999 145.9 17.0999 145.9 19.9999V32.5999C145.9 35.8999 143.2 38.5999 139.9 38.5999H139.4L139.7 41.9999C139.9 44.1999 138.2 46.0999 136 46.0999H116.9C114.7 46.0999 113 44.1999 113.2 41.9999L113.5 38.5999H112.9C109.6 38.5999 106.9 35.8999 106.9 32.5999V19.9999C106.9 17.0999 109 14.5999 111.9 14.1999C112.7 14.0666 113.533 13.9332 114.4 13.7999V7.7999C114.4 5.7999 116.1 4.0999 118.2 4.0999H134.7ZM138.4 23.5999C139.3 23.5999 139.9 22.8999 139.9 22.0999C139.9 21.2999 139.3 20.5999 138.4 20.5999C137.6 20.5999 136.9 21.2999 136.9 22.0999C136.9 22.8999 137.6 23.5999 138.4 23.5999ZM126.4 29.5999C123.533 29.5999 120.7 29.7332 117.9 29.9999C117.5 30.0999 117.2 30.2999 117.2 30.6999L116.1 42.2999C116.1 42.6999 116.4 43.0999 116.9 43.0999H136C136.4 43.0999 136.7 42.6999 136.7 42.2999L135.7 30.6999C135.6 30.2999 135.3 30.0999 135 29.9999C132.2 29.7332 129.333 29.5999 126.4 29.5999ZM135.4 13.4999V7.7999C135.4 7.3999 135.1 7.0999 134.7 7.0999H118.2C117.8 7.0999 117.4 7.3999 117.4 7.7999V13.4999C120.4 13.2332 123.4 13.0999 126.4 13.0999C129.466 13.0999 132.466 13.2332 135.4 13.4999ZM132.4 20.5999C131.6 20.5999 130.9 21.2999 130.9 22.0999C130.9 22.8999 131.6 23.5999 132.4 23.5999C133.3 23.5999 133.9 22.8999 133.9 22.0999C133.9 21.2999 133.3 20.5999 132.4 20.5999ZM-195.1 127.8C-195.1 118.7 -187.7 111.3 -178.6 111.3C-177.8 111.3 -177.1 112 -177.1 112.8V126.3H-163.6C-162.8 126.3 -162.1 127 -162.1 127.8C-162.1 136.9 -169.5 144.3 -178.6 144.3C-187.7 144.3 -195.1 136.9 -195.1 127.8ZM-174.1 106.8C-174.1 106 -173.4 105.3 -172.6 105.3C-163.5 105.3 -156.1 112.7 -156.1 121.8C-156.1 122.7 -156.8 123.3 -157.6 123.3H-172.6C-173.4 123.3 -174.1 122.7 -174.1 121.8V106.8ZM-560.6 -153.4C-560 -152.8 -560 -151.9 -560.6 -151.3C-561.2 -150.7 -562.1 -150.7 -562.7 -151.3L-598.7 -187.3C-599.3 -187.9 -599.3 -188.8 -598.7 -189.4C-598.1 -190 -597.2 -190 -596.6 -189.4L-560.6 -153.4ZM-558.7 -159C-558.7 -158 -559.1 -157.3 -559.7 -156.7L-569.2 -166.2V-178.5L-563.8 -183.9C-561.9 -185.7 -558.7 -184.4 -558.7 -181.7V-159ZM-572.2 -179.4V-169.3L-588.3 -185.4H-578.2C-574.8 -185.4 -572.2 -182.7 -572.2 -179.4ZM-600.7 -179.4C-600.7 -181 -600.1 -182.4 -599.1 -183.5L-573.4 -157.8C-574.5 -156.3 -576.2 -155.4 -578.2 -155.4H-594.7C-598 -155.4 -600.7 -158.1 -600.7 -161.4V-179.4Z" fill="#0F172A"/>
</g>
</g>
<defs>
<clipPath id="clip0_72_5527">
<rect width="50" height="50" fill="white"/>
</clipPath>
</defs>
</svg>
