<svg width="50" height="50" viewBox="0 0 50 50" fill="none" xmlns="http://www.w3.org/2000/svg">
<g clip-path="url(#clip0_70_5436)">
<mask id="mask0_70_5436" style="mask-type:luminance" maskUnits="userSpaceOnUse" x="-1120" y="-861" width="1584" height="1224">
<path d="M-1120 -861H464V363H-1120V-861Z" fill="white"/>
</mask>
<g mask="url(#mask0_70_5436)">
<path fill-rule="evenodd" clip-rule="evenodd" d="M-100.2 -192.4C-100.2 -193.5 -99.3002 -194.4 -98.2002 -194.4H-53.5002C-52.3002 -194.4 -51.4002 -193.5 -51.4002 -192.4C-51.4002 -191.3 -52.3002 -190.3 -53.5002 -190.3H-54.1002V-166.6C-54.1002 -162.5 -57.5002 -159.2 -61.6002 -159.2H-64.5002L-62.3002 -150.9C-62.1002 -149.8 -62.7002 -148.7 -63.8002 -148.4C-64.9002 -148.1 -66.0002 -148.7 -66.3002 -149.8L-66.6002 -151H-85.1002L-85.4002 -149.8C-85.7002 -148.7 -86.8002 -148.1 -87.9002 -148.4C-89.0002 -148.7 -89.6002 -149.8 -89.3002 -150.9L-87.2002 -159.2H-90.1002C-94.2002 -159.2 -97.5002 -162.5 -97.5002 -166.6V-190.3H-98.2002C-99.3002 -190.3 -100.2 -191.3 -100.2 -192.4ZM-86.7002 -173.4V-169.3C-86.7002 -168.2 -85.8002 -167.3 -84.6002 -167.3C-83.5002 -167.3 -82.6002 -168.2 -82.6002 -169.3V-173.4C-82.6002 -174.5 -83.5002 -175.4 -84.6002 -175.4C-85.8002 -175.4 -86.7002 -174.5 -86.7002 -173.4ZM-69.1002 -184.2V-169.3C-69.1002 -168.2 -68.1002 -167.3 -67.0002 -167.3C-65.9002 -167.3 -65.0002 -168.2 -65.0002 -169.3V-184.2C-65.0002 -185.4 -65.9002 -186.3 -67.0002 -186.3C-68.1002 -186.3 -69.1002 -185.4 -69.1002 -184.2ZM-83.0002 -159.2L-84.0002 -155.1H-67.6002L-68.7002 -159.2H-83.0002ZM-73.8002 -178.8C-73.8002 -179.9 -74.8002 -180.9 -75.9002 -180.9C-77.0002 -180.9 -77.9002 -179.9 -77.9002 -178.8V-169.3C-77.9002 -168.2 -77.0002 -167.3 -75.9002 -167.3C-74.8002 -167.3 -73.8002 -168.2 -73.8002 -169.3V-178.8ZM-86.8002 -87.3999C-86.1002 -86.6999 -86.1002 -85.4999 -86.8002 -84.7999C-92.8002 -78.7999 -92.8002 -68.9999 -86.8002 -62.9999C-80.8002 -56.9999 -71.0002 -56.9999 -65.0002 -62.9999C-58.9002 -68.9999 -58.9002 -78.7999 -65.0002 -84.7999C-65.7002 -85.4999 -65.7002 -86.6999 -65.0002 -87.3999C-64.3002 -87.9999 -63.1002 -87.9999 -62.4002 -87.3999C-55.0002 -79.8999 -55.0002 -67.8999 -62.4002 -60.4999C-69.9002 -53.0999 -81.9002 -53.0999 -89.3002 -60.4999C-96.7002 -67.8999 -96.7002 -79.8999 -89.3002 -87.3999C-88.6002 -87.9999 -87.5002 -87.9999 -86.8002 -87.3999ZM-75.9002 -92.8999C-74.9002 -92.8999 -74.1002 -92.0999 -74.1002 -91.0999V-73.2999C-74.1002 -72.2999 -74.9002 -71.4999 -75.9002 -71.4999C-76.9002 -71.4999 -77.7002 -72.2999 -77.7002 -73.2999V-91.0999C-77.7002 -92.0999 -76.9002 -92.8999 -75.9002 -92.8999ZM114.1 -91.8999C114.9 -91.8999 115.6 -91.1999 115.6 -90.3999C115.6 -89.5999 114.9 -88.8999 114.1 -88.8999H111.1C109.4 -88.8999 108.1 -87.5999 108.1 -85.8999V-82.8999C108.1 -82.0999 107.4 -81.3999 106.6 -81.3999C105.8 -81.3999 105.1 -82.0999 105.1 -82.8999V-85.8999C105.1 -89.1999 107.8 -91.8999 111.1 -91.8999H114.1ZM135.1 -91.8999C138.4 -91.8999 141.1 -89.1999 141.1 -85.8999V-82.8999C141.1 -82.0999 140.4 -81.3999 139.6 -81.3999C138.8 -81.3999 138.1 -82.0999 138.1 -82.8999V-85.8999C138.1 -87.5999 136.7 -88.8999 135.1 -88.8999H132.1C131.3 -88.8999 130.6 -89.5999 130.6 -90.3999C130.6 -91.1999 131.3 -91.8999 132.1 -91.8999H135.1ZM130.6 -73.8999C130.6 -69.7999 127.2 -66.3999 123.1 -66.3999C118.9 -66.3999 115.6 -69.7999 115.6 -73.8999C115.6 -78.0999 118.9 -81.3999 123.1 -81.3999C127.2 -81.3999 130.6 -78.0999 130.6 -73.8999ZM108.1 -61.8999C108.1 -60.2999 109.4 -58.8999 111.1 -58.8999H114.1C114.9 -58.8999 115.6 -58.1999 115.6 -57.3999C115.6 -56.5999 114.9 -55.8999 114.1 -55.8999H111.1C107.8 -55.8999 105.1 -58.5999 105.1 -61.8999V-64.8999C105.1 -65.6999 105.8 -66.3999 106.6 -66.3999C107.4 -66.3999 108.1 -65.6999 108.1 -64.8999V-61.8999ZM141.1 -61.8999C141.1 -58.5999 138.4 -55.8999 135.1 -55.8999H132.1C131.3 -55.8999 130.6 -56.5999 130.6 -57.3999C130.6 -58.1999 131.3 -58.8999 132.1 -58.8999H135.1C136.7 -58.8999 138.1 -60.2999 138.1 -61.8999V-64.8999C138.1 -65.6999 138.8 -66.3999 139.6 -66.3999C140.4 -66.3999 141.1 -65.6999 141.1 -64.8999V-61.8999ZM121 -159.2C122.2 -160.4 124.1 -160.4 125.3 -159.2C125.8 -158.6 125.8 -157.7 125.3 -157.1L124.2 -156.1C123.9 -155.8 123.5 -155.6 123.1 -155.6C122.7 -155.6 122.4 -155.8 122.1 -156.1L121 -157.1C120.4 -157.7 120.4 -158.6 121 -159.2ZM114.6 -165.6C119.3 -170.3 126.9 -170.3 131.6 -165.6C132.2 -165 132.2 -164.1 131.6 -163.5L130.6 -162.4C130.3 -162.1 129.9 -162 129.5 -162C129.1 -162 128.7 -162.1 128.4 -162.4C125.5 -165.3 120.8 -165.3 117.8 -162.4C117.2 -161.8 116.3 -161.8 115.7 -162.4L114.6 -163.5C114.1 -164.1 114.1 -165 114.6 -165.6ZM108.2 -172C116.4 -180.2 129.7 -180.2 137.9 -172C138.5 -171.4 138.5 -170.4 137.9 -169.8L136.9 -168.8C136.6 -168.5 136.2 -168.3 135.8 -168.3C135.4 -168.3 135 -168.5 134.8 -168.8C128.3 -175.2 117.9 -175.2 111.4 -168.8C110.8 -168.2 109.9 -168.2 109.3 -168.8L108.2 -169.8C108 -170.1 107.8 -170.5 107.8 -170.9C107.8 -171.3 108 -171.7 108.2 -172ZM101.9 -178.3C113.6 -190 132.6 -190 144.3 -178.3C144.9 -177.7 144.9 -176.8 144.3 -176.2L143.2 -175.1C143 -174.9 142.6 -174.7 142.2 -174.7C141.8 -174.7 141.4 -174.9 141.1 -175.1C131.2 -185.1 115 -185.1 105.1 -175.1C104.8 -174.9 104.4 -174.7 104 -174.7C103.6 -174.7 103.2 -174.9 102.9 -175.1L101.9 -176.2C101.3 -176.8 101.3 -177.7 101.9 -178.3ZM11.0998 7.40009C15.7665 6.66675 20.5331 6.30009 25.3998 6.30009C30.2665 6.30009 35.0331 6.66675 39.6998 7.40009C43.6998 7.90009 46.3998 11.4001 46.3998 15.3001V27.3001C46.3998 31.2001 43.6998 34.7001 39.6998 35.3001C37.4331 35.6334 35.1331 35.9001 32.7998 36.1001C32.4998 36.1001 32.2998 36.2001 32.1998 36.4001L26.6998 44.7001C26.3998 45.1001 25.8998 45.3001 25.3998 45.3001C24.8998 45.3001 24.3998 45.1001 24.1998 44.7001L18.6998 36.4001C18.4998 36.2001 18.2998 36.1001 18.0998 36.1001C15.6998 35.9001 13.3665 35.6334 11.0998 35.3001C7.1998 34.7001 4.3998 31.2001 4.3998 27.3001V15.3001C4.3998 11.4001 7.1998 7.90009 11.0998 7.40009ZM16.3998 19.8001H34.3998C35.1998 19.8001 35.8998 19.2001 35.8998 18.3001C35.8998 17.5001 35.1998 16.8001 34.3998 16.8001H16.3998C15.5998 16.8001 14.8998 17.5001 14.8998 18.3001C14.8998 19.2001 15.5998 19.8001 16.3998 19.8001ZM16.3998 22.8001C15.5998 22.8001 14.8998 23.5001 14.8998 24.3001C14.8998 25.2001 15.5998 25.8001 16.3998 25.8001H25.3998C26.1998 25.8001 26.8998 25.2001 26.8998 24.3001C26.8998 23.5001 26.1998 22.8001 25.3998 22.8001H16.3998Z" fill="#0F172A"/>
<path fill-rule="evenodd" clip-rule="evenodd" d="M103.6 13.8001C103.6 10.5001 106.3 7.80008 109.6 7.80008H136.6C139.9 7.80008 142.6 10.5001 142.6 13.8001V37.8001C142.6 41.1001 139.9 43.8001 136.6 43.8001H109.6C106.3 43.8001 103.6 41.1001 103.6 37.8001V13.8001ZM111.6 17.9001L115 21.3001L111.6 24.8001C111 25.4001 111 26.3001 111.6 26.9001C112.2 27.5001 113.1 27.5001 113.7 26.9001L118.2 22.4001C118.8 21.8001 118.8 20.9001 118.2 20.3001L113.7 15.8001C113.1 15.2001 112.2 15.2001 111.6 15.8001C111 16.4001 111 17.3001 111.6 17.9001ZM120.1 24.3001C119.3 24.3001 118.6 25.0001 118.6 25.8001C118.6 26.7001 119.3 27.3001 120.1 27.3001H126.1C127 27.3001 127.6 26.7001 127.6 25.8001C127.6 25.0001 127 24.3001 126.1 24.3001H120.1ZM-800.8 -282.9C-800.8 -286.2 -798.1 -288.9 -794.8 -288.9H-767.8C-764.5 -288.9 -761.8 -286.2 -761.8 -282.9V-263.4C-761.8 -260 -764.5 -257.4 -767.8 -257.4H-773.8V-256.8C-773.8 -255.6 -773.3 -254.5 -772.5 -253.7L-771.2 -252.4C-770.8 -252 -770.7 -251.3 -770.9 -250.8C-771.1 -250.2 -771.7 -249.9 -772.3 -249.9H-790.3C-790.9 -249.9 -791.4 -250.2 -791.7 -250.8C-791.9 -251.3 -791.8 -252 -791.3 -252.4L-790.1 -253.7C-789.3 -254.5 -788.8 -255.6 -788.8 -256.8V-257.4H-794.8C-798.1 -257.4 -800.8 -260 -800.8 -263.4V-282.9ZM-797.8 -282.9V-267.9C-797.8 -266.2 -796.4 -264.9 -794.8 -264.9H-767.8C-766.1 -264.9 -764.8 -266.2 -764.8 -267.9V-282.9C-764.8 -284.5 -766.1 -285.9 -767.8 -285.9H-794.8C-796.4 -285.9 -797.8 -284.5 -797.8 -282.9ZM-772.3 34.8001H-790.3V16.8001H-772.3V34.8001Z" fill="#0F172A"/>
<path fill-rule="evenodd" clip-rule="evenodd" d="M-56.3002 25.7999C-56.3002 36.5999 -65.1002 45.2999 -75.8002 45.2999C-86.6002 45.2999 -95.3002 36.5999 -95.3002 25.7999C-95.3002 15.0999 -86.6002 6.2999 -75.8002 6.2999C-65.1002 6.2999 -56.3002 15.0999 -56.3002 25.7999ZM-78.1002 15.2999C-82.6002 15.2999 -86.3002 18.9999 -86.3002 23.5999C-86.3002 28.0999 -82.6002 31.7999 -78.1002 31.7999C-76.3002 31.7999 -74.7002 31.2999 -73.4002 30.3999L-69.4002 34.3999C-68.8002 34.9999 -67.9001 34.9999 -67.3002 34.3999C-66.7002 33.7999 -66.7002 32.8999 -67.3002 32.2999L-71.3002 28.2999C-70.4001 26.8999 -69.8002 25.2999 -69.8002 23.5999C-69.8002 18.9999 -73.5002 15.2999 -78.1002 15.2999ZM-157.4 6.2999C-156.6 6.2999 -155.9 6.99991 -155.9 7.7999C-155.9 8.69989 -156.6 9.2999 -157.4 9.2999H-158.9V30.2999C-158.9 33.5999 -161.6 36.2999 -164.9 36.2999H-167.3L-165 43.3999C-164.7 44.0999 -165.2 44.9999 -165.9 45.2999C-166.7 45.4999 -167.6 45.0999 -167.8 44.2999L-168.5 42.2999H-185.3L-186 44.2999C-186.3 45.0999 -187.1 45.4999 -187.9 45.2999C-188.7 44.9999 -189.1 44.0999 -188.8 43.3999L-186.5 36.2999H-188.9C-192.2 36.2999 -194.9 33.5999 -194.9 30.2999V9.2999H-196.4C-197.3 9.2999 -197.9 8.69989 -197.9 7.7999C-197.9 6.99991 -197.3 6.2999 -196.4 6.2999H-157.4ZM-175.4 19.7999C-175.4 18.9999 -176.1 18.2999 -176.9 18.2999C-177.8 18.2999 -178.4 18.9999 -178.4 19.7999V27.2999C-178.4 28.1999 -177.8 28.7999 -176.9 28.7999C-176.1 28.7999 -175.4 28.1999 -175.4 27.2999V19.7999ZM-169.4 15.2999C-169.4 14.4999 -170.1 13.7999 -170.9 13.7999C-171.8 13.7999 -172.4 14.4999 -172.4 15.2999V27.2999C-172.4 28.1999 -171.8 28.7999 -170.9 28.7999C-170.1 28.7999 -169.4 28.1999 -169.4 27.2999V15.2999ZM-169.5 39.2999L-170.5 36.2999H-183.3L-184.3 39.2999H-169.5ZM-181.5 24.2999C-181.5 23.4999 -182.1 22.7999 -183 22.7999C-183.8 22.7999 -184.5 23.4999 -184.5 24.2999V27.2999C-184.5 28.1999 -183.8 28.7999 -183 28.7999C-182.1 28.7999 -181.5 28.1999 -181.5 27.2999V24.2999ZM33.6998 -94.9001C35.6998 -94.9001 37.3998 -93.2001 37.3998 -91.2001V-85.2001C38.2665 -85.0668 39.1332 -84.9334 39.9998 -84.8001C42.8998 -84.4001 44.8998 -81.9001 44.8998 -79.0001V-66.4001C44.8998 -63.1001 42.1998 -60.4001 38.8998 -60.4001H38.3998L38.6998 -57.0001C38.8998 -54.8001 37.1998 -52.9001 34.9998 -52.9001H15.8998C13.6998 -52.9001 11.9998 -54.8001 12.1998 -57.0001L12.4998 -60.4001H11.8998C8.59985 -60.4001 5.89984 -63.1001 5.89984 -66.4001V-79.0001C5.89984 -81.9001 7.99982 -84.4001 10.8998 -84.8001C11.6998 -84.9334 12.5332 -85.0668 13.3998 -85.2001V-91.2001C13.3998 -93.2001 15.0999 -94.9001 17.1998 -94.9001H33.6998ZM37.3998 -75.4001C38.2999 -75.4001 38.8998 -76.1001 38.8998 -76.9001C38.8998 -77.7001 38.2999 -78.4001 37.3998 -78.4001C36.5999 -78.4001 35.8998 -77.7001 35.8998 -76.9001C35.8998 -76.1001 36.5999 -75.4001 37.3998 -75.4001ZM25.3998 -69.4001C22.5332 -69.4001 19.6998 -69.2668 16.8998 -69.0001C16.4998 -68.9001 16.1998 -68.7001 16.1998 -68.3001L15.0998 -56.7001C15.0998 -56.3001 15.3998 -55.9001 15.8998 -55.9001H34.9998C35.3998 -55.9001 35.6998 -56.3001 35.6998 -56.7001L34.6998 -68.3001C34.5999 -68.7001 34.2998 -68.9001 33.9998 -69.0001C31.1998 -69.2668 28.3332 -69.4001 25.3998 -69.4001ZM34.3998 -85.5001V-91.2001C34.3998 -91.6001 34.0999 -91.9001 33.6998 -91.9001H17.1998C16.7998 -91.9001 16.3998 -91.6001 16.3998 -91.2001V-85.5001C19.3998 -85.7668 22.3998 -85.9001 25.3998 -85.9001C28.4665 -85.9001 31.4665 -85.7668 34.3998 -85.5001ZM31.3998 -78.4001C30.5999 -78.4001 29.8998 -77.7001 29.8998 -76.9001C29.8998 -76.1001 30.5999 -75.4001 31.3998 -75.4001C32.2999 -75.4001 32.8998 -76.1001 32.8998 -76.9001C32.8998 -77.7001 32.2999 -78.4001 31.3998 -78.4001ZM-296.1 28.7999C-296.1 19.6999 -288.7 12.2999 -279.6 12.2999C-278.8 12.2999 -278.1 12.9999 -278.1 13.7999V27.2999H-264.6C-263.8 27.2999 -263.1 27.9999 -263.1 28.7999C-263.1 37.8999 -270.5 45.2999 -279.6 45.2999C-288.7 45.2999 -296.1 37.8999 -296.1 28.7999ZM-275.1 7.7999C-275.1 6.99991 -274.4 6.2999 -273.6 6.2999C-264.5 6.2999 -257.1 13.6999 -257.1 22.7999C-257.1 23.6999 -257.8 24.2999 -258.6 24.2999H-273.6C-274.4 24.2999 -275.1 23.6999 -275.1 22.7999V7.7999ZM-661.6 -252.4C-661 -251.8 -661 -250.9 -661.6 -250.3C-662.2 -249.7 -663.1 -249.7 -663.7 -250.3L-699.7 -286.3C-700.3 -286.9 -700.3 -287.8 -699.7 -288.4C-699.1 -289 -698.2 -289 -697.6 -288.4L-661.6 -252.4ZM-659.7 -258C-659.7 -257 -660.1 -256.3 -660.7 -255.7L-670.2 -265.2V-277.5L-664.8 -282.9C-662.9 -284.7 -659.7 -283.4 -659.7 -280.7V-258ZM-673.2 -278.4V-268.3L-689.3 -284.4H-679.2C-675.8 -284.4 -673.2 -281.7 -673.2 -278.4ZM-701.7 -278.4C-701.7 -280 -701.1 -281.4 -700.1 -282.5L-674.4 -256.8C-675.5 -255.3 -677.2 -254.4 -679.2 -254.4H-695.7C-699 -254.4 -701.7 -257.1 -701.7 -260.4V-278.4Z" fill="#0F172A"/>
</g>
</g>
<defs>
<clipPath id="clip0_70_5436">
<rect width="50" height="50" fill="white"/>
</clipPath>
</defs>
</svg>
