<svg width="50" height="50" viewBox="0 0 50 50" fill="none" xmlns="http://www.w3.org/2000/svg">
<g clip-path="url(#clip0_70_5411)">
<mask id="mask0_70_5411" style="mask-type:luminance" maskUnits="userSpaceOnUse" x="-816" y="-603" width="1413" height="1113">
<path d="M-815.463 -602.728H596.301V510H-815.463V-602.728Z" fill="white"/>
</mask>
<g mask="url(#mask0_70_5411)">
<path fill-rule="evenodd" clip-rule="evenodd" d="M-321.702 35.9998C-322.415 36.7271 -323.574 36.7271 -324.287 35.9998L-341.756 18.1816V32.2726C-341.756 33.2726 -342.558 34.0907 -343.538 34.0907C-344.608 34.0907 -345.41 33.2726 -345.41 32.2726V13.7271C-345.41 12.7271 -344.608 11.9089 -343.538 11.9089H-325.445C-324.465 11.9089 -323.663 12.7271 -323.663 13.7271C-323.663 14.7271 -324.465 15.5453 -325.445 15.5453H-339.171L-321.702 33.3635C-320.989 34.0907 -320.989 35.2726 -321.702 35.9998ZM-168.85 112.818C-168.85 101.909 -160.205 93.0907 -149.51 93.0907C-138.814 93.0907 -130.169 101.909 -130.169 112.818C-130.169 123.727 -138.814 132.545 -149.51 132.545C-160.205 132.545 -168.85 123.727 -168.85 112.818ZM-151.381 120.818C-151.381 121.818 -150.579 122.636 -149.51 122.636C-148.529 122.636 -147.727 121.818 -147.727 120.818V109.545L-143.003 114.636C-142.29 115.454 -141.221 115.454 -140.419 114.818C-139.706 114.091 -139.706 112.909 -140.33 112.182L-148.173 103.545C-148.529 103.182 -149.064 102.909 -149.51 102.909C-150.044 102.909 -150.49 103.182 -150.847 103.545L-158.69 112.182C-159.403 112.909 -159.403 114.091 -158.601 114.818C-157.888 115.454 -156.729 115.454 -156.105 114.636L-151.381 109.545V120.818ZM-501.47 24.1816C-501.47 25.1816 -502.273 25.9998 -503.342 25.9998H-519.385L-514.126 30.818C-513.413 31.5453 -513.413 32.7271 -514.126 33.4544C-514.75 34.1816 -515.909 34.2726 -516.622 33.5453L-525.089 25.5453C-525.446 25.1816 -525.713 24.6362 -525.713 24.1816C-525.713 23.6362 -525.446 23.1816 -525.089 22.818L-516.622 14.818C-515.909 14.0907 -514.75 14.1816 -514.126 14.9089C-513.413 15.6362 -513.413 16.818 -514.126 17.4544L-519.385 22.3635H-503.342C-502.273 22.3635 -501.47 23.1816 -501.47 24.1816ZM11.1855 102.909C10.116 102.909 9.3139 103.727 9.3139 104.727V125.727C9.3139 126.727 10.116 127.545 11.1855 127.545H31.7737C32.7542 127.545 33.5563 126.727 33.5563 125.727V115.818C33.5563 114.818 34.3585 114 35.3388 114C36.4083 114 37.2105 114.818 37.2105 115.818V125.727C37.2105 128.818 34.715 131.273 31.7737 131.273H11.1855C8.15527 131.273 5.65967 128.818 5.65967 125.727V104.727C5.65967 101.636 8.15527 99.1817 11.1855 99.1817H23.2177C24.2872 99.1817 25.0893 99.9998 25.0893 101C25.0893 102.091 24.2872 102.909 23.2177 102.909H11.1855ZM16.0875 118.182L38.0126 97.9089H31.7737C30.7934 97.9089 29.9912 97.0907 29.9912 96.0907C29.9912 95.0907 30.7934 94.2726 31.7737 94.2726H42.7364C43.7167 94.2726 44.5189 95.0907 44.5189 96.0907V107.182C44.5189 108.182 43.7167 109.091 42.7364 109.091C41.6669 109.091 40.8647 108.182 40.8647 107.182V100.273L18.494 120.909C17.7809 121.636 16.6223 121.545 15.9092 120.818C15.2853 120 15.2853 118.909 16.0875 118.182ZM-435.873 24.1816C-435.873 23.1816 -435.071 22.3635 -434.091 22.3635H-417.959L-423.217 17.4544C-423.93 16.818 -423.93 15.6362 -423.306 14.9089C-422.593 14.1816 -421.435 14.0907 -420.722 14.818L-412.255 22.818C-411.898 23.1816 -411.72 23.6362 -411.72 24.1816C-411.72 24.6362 -411.898 25.1816 -412.255 25.5453L-420.722 33.5453C-421.435 34.2726 -422.593 34.1816 -423.306 33.4544C-423.93 32.7271 -423.93 31.5453 -423.217 30.818L-417.959 25.9998H-434.091C-435.071 25.9998 -435.873 25.1816 -435.873 24.1816ZM-244.964 29.6362C-244.251 30.3635 -244.251 31.5453 -244.964 32.2726C-245.677 32.9998 -246.836 32.9998 -247.549 32.2726L-251.649 28.0907C-251.53 30.6968 -251.322 33.3029 -251.025 35.9089C-250.936 36.6362 -250.312 37.2726 -249.51 37.3635C-246.658 37.6059 -243.746 37.7271 -240.775 37.7271C-237.864 37.7271 -234.982 37.6059 -232.13 37.3635C-231.328 37.2726 -230.704 36.6362 -230.615 35.9089C-230.437 34.6362 -230.318 33.3332 -230.258 31.9998C-230.169 30.9998 -229.278 30.2726 -228.298 30.3635C-227.317 30.4544 -226.515 31.2726 -226.604 32.3635C-226.723 33.6968 -226.871 34.9998 -227.05 36.2726C-227.317 38.818 -229.278 40.818 -231.773 40.9998C-234.744 41.3029 -237.745 41.4544 -240.775 41.4544C-243.865 41.4544 -246.895 41.3029 -249.866 40.9998C-252.362 40.818 -254.323 38.818 -254.59 36.2726C-254.946 33.5453 -255.154 30.7877 -255.214 27.9998L-259.492 32.2726C-260.205 32.9998 -261.363 32.9998 -261.987 32.2726C-262.7 31.5453 -262.7 30.3635 -261.987 29.6362L-254.768 22.2726C-254.055 21.5453 -252.896 21.5453 -252.183 22.2726L-244.964 29.6362ZM-249.51 10.9998C-250.312 11.0907 -250.936 11.6362 -251.025 12.4544C-251.203 13.7271 -251.322 14.9998 -251.381 16.2726C-251.47 17.2726 -252.362 18.0907 -253.342 17.9998C-254.322 17.9089 -255.125 16.9998 -255.036 15.9998C-254.917 14.6665 -254.798 13.3332 -254.679 11.9998C-254.322 9.45438 -252.362 7.54528 -249.866 7.27255C-246.895 7.03013 -243.895 6.90891 -240.864 6.90891C-237.775 6.90891 -234.744 7.03013 -231.773 7.27255C-229.278 7.54528 -227.317 9.45438 -227.05 11.9998C-226.693 14.7877 -226.485 17.5756 -226.426 20.3635L-222.148 16.0907C-221.435 15.3635 -220.276 15.3635 -219.652 16.0907C-218.939 16.818 -218.939 17.9089 -219.652 18.6362L-226.872 26.0907C-227.585 26.818 -228.743 26.818 -229.456 26.0907L-236.675 18.6362C-237.388 17.9089 -237.388 16.818 -236.675 16.0907C-235.962 15.3635 -234.804 15.3635 -234.091 16.0907L-229.991 20.1816C-230.11 17.5756 -230.318 14.9998 -230.615 12.4544C-230.704 11.6362 -231.328 11.0907 -232.13 10.9998C-234.982 10.6968 -237.893 10.5453 -240.864 10.5453C-243.776 10.5453 -246.658 10.6968 -249.51 10.9998ZM-68.1371 14.5453C-70.5435 14.5453 -72.5043 12.5453 -72.5043 10.0907C-72.5043 7.54528 -70.5435 5.54528 -68.1371 5.54528C-65.6415 5.54528 -63.6808 7.54528 -63.6808 10.0907C-63.6808 12.5453 -65.6415 14.5453 -68.1371 14.5453ZM-59.8483 11.7271C-60.7396 11.7271 -61.4526 10.9998 -61.4526 10.0907C-61.4526 9.09074 -60.7396 8.36346 -59.8483 8.36346H-47.7271C-46.7467 8.36346 -46.0337 9.09074 -46.0337 10.0907C-46.0337 10.9998 -46.7467 11.7271 -47.7271 11.7271H-59.8483ZM-74.7325 10.0907C-74.7325 10.9998 -75.4455 11.7271 -76.3368 11.7271H-79.6344C-80.6148 11.7271 -81.3278 10.9998 -81.3278 10.0907C-81.3278 9.18164 -80.6148 8.36346 -79.6344 8.36346H-76.3368C-75.4455 8.36346 -74.7325 9.18164 -74.7325 10.0907ZM-79.6344 39.9089C-80.6148 39.9089 -81.3278 39.1816 -81.3278 38.1816C-81.3278 37.2726 -80.6148 36.5453 -79.6344 36.5453H-76.3368C-75.4455 36.5453 -74.7325 37.2726 -74.7325 38.1816C-74.7325 39.1816 -75.4455 39.9089 -76.3368 39.9089H-79.6344ZM-59.7592 39.9089C-60.7396 39.9089 -61.4526 39.1816 -61.4526 38.1816C-61.4526 37.2726 -60.7396 36.5453 -59.7592 36.5453H-47.638C-46.7467 36.5453 -46.0337 37.2726 -46.0337 38.1816C-46.0337 39.1816 -46.7467 39.9089 -47.638 39.9089H-59.7592ZM-65.8198 24.1816C-65.8198 25.0907 -66.6219 25.818 -67.5132 25.818H-79.6344C-80.5257 25.818 -81.3278 25.0907 -81.3278 24.1816C-81.3278 23.1816 -80.5257 22.4544 -79.6344 22.4544H-67.5132C-66.6219 22.4544 -65.8198 23.1816 -65.8198 24.1816ZM-50.9357 25.818C-51.8269 25.818 -52.6291 25.0907 -52.6291 24.1816C-52.6291 23.1816 -51.8269 22.4544 -50.9357 22.4544H-47.638C-46.7467 22.4544 -45.9445 23.1816 -45.9445 24.1816C-45.9445 25.0907 -46.7467 25.818 -47.638 25.818H-50.9357ZM-59.2244 28.6362C-61.6309 28.6362 -63.5917 26.6362 -63.5917 24.1816C-63.5917 21.6362 -61.6309 19.6362 -59.2244 19.6362C-56.7289 19.6362 -54.7681 21.6362 -54.7681 24.1816C-54.7681 26.6362 -56.7289 28.6362 -59.2244 28.6362ZM-68.048 42.7271C-70.4544 42.7271 -72.4152 40.7271 -72.4152 38.1816C-72.4152 35.7271 -70.4544 33.7271 -68.048 33.7271C-65.6416 33.7271 -63.5917 35.7271 -63.5917 38.1816C-63.5917 40.7271 -65.6416 42.7271 -68.048 42.7271ZM284.18 -82.182C285.161 -82.182 285.963 -81.3638 285.963 -80.3638V-49.5456C285.963 -48.5456 285.161 -47.7274 284.18 -47.7274H280.526C279.546 -47.7274 278.744 -48.5456 278.744 -49.5456V-80.3638C278.744 -81.3638 279.546 -82.182 280.526 -82.182H284.18ZM301.114 -82.182C302.095 -82.182 302.986 -81.3638 302.986 -80.3638V-49.5456C302.986 -48.5456 302.095 -47.7274 301.114 -47.7274H297.549C296.48 -47.7274 295.678 -48.5456 295.678 -49.5456V-80.3638C295.678 -81.3638 296.48 -82.182 297.549 -82.182H301.114ZM194.341 -55.182L197.371 -62.9093C197.906 -64.182 198.619 -65.2729 199.51 -66.2729L216.266 -83.2729C218.227 -85.3638 221.524 -85.3638 223.485 -83.2729C225.535 -81.2729 225.535 -77.9093 223.485 -75.9093L206.818 -58.8184C205.838 -57.9093 204.768 -57.182 203.521 -56.6365L195.945 -53.5456C194.965 -53.0911 193.984 -54.0911 194.341 -55.182ZM189.706 -51.8184C189.706 -50.182 191.043 -48.7274 192.647 -48.7274H215.642C217.335 -48.7274 218.672 -50.182 218.672 -51.8184V-64.8184C218.672 -65.8184 219.474 -66.6365 220.455 -66.6365C221.524 -66.6365 222.326 -65.8184 222.326 -64.8184V-51.8184C222.326 -48.0911 219.296 -45.0911 215.642 -45.0911H192.647C188.993 -45.0911 186.052 -48.0911 186.052 -51.8184V-75.2729C186.052 -79.0002 188.993 -82.0911 192.647 -82.0911H205.392C206.373 -82.0911 207.175 -81.2729 207.175 -80.182C207.175 -79.182 206.373 -78.3638 205.392 -78.3638H192.647C191.043 -78.3638 189.706 -77.0002 189.706 -75.2729V-51.8184ZM100.312 -57.0911L126.694 -84.0002C128.743 -86.0911 131.952 -86.0911 134.002 -84.0002C135.963 -82.0002 135.963 -78.6365 134.002 -76.6365L107.531 -49.7275C106.64 -48.7275 105.571 -48.0002 104.323 -47.5456L96.658 -44.3638C95.6776 -44.0002 94.6971 -45.0002 95.1428 -46.0002L98.173 -53.7274C98.6187 -55.0002 99.4208 -56.182 100.312 -57.0911ZM5.83795 8.18164C5.83795 6.09074 7.44226 4.45437 9.40302 4.45437H12.2551C13.9485 4.45437 15.3745 5.63618 15.731 7.36346L17.5135 15.2726C17.87 17.1816 16.8005 19.0907 14.9289 19.6362L12.7007 20.2726C11.7203 20.6362 11.0964 21.6362 11.5421 22.6362C14.305 29.6362 19.8308 35.1817 26.6044 38.0907C27.5848 38.4544 28.6544 37.9089 28.9218 36.9089L29.5456 34.5453C30.0804 32.7271 31.9521 31.5453 33.8237 31.9998L41.6669 33.7271C43.2711 34.0907 44.5189 35.6362 44.5189 37.3635V40.1816C44.5189 42.2726 42.8254 43.9089 40.8647 43.9089H37.2105C34.4476 43.9089 31.7738 43.5453 29.1891 42.818C18.3157 39.9089 9.75952 31.1816 6.8183 19.9998C6.19446 17.4544 5.83795 14.6362 5.83795 11.818V8.18164Z" fill="#0F172A"/>
<path fill-rule="evenodd" clip-rule="evenodd" d="M-133.2 6.99974C-130.258 6.99974 -127.763 9.45429 -127.763 12.5452V35.9088C-127.763 38.9997 -130.258 41.4543 -133.2 41.4543H-165.82C-168.85 41.4543 -171.257 38.9997 -171.257 35.9088V12.5452C-171.257 9.45429 -168.85 6.99974 -165.82 6.99974H-133.2ZM-158.601 14.3634C-158.601 15.3634 -157.798 16.2725 -156.818 16.2725C-155.749 16.2725 -154.946 15.3634 -154.946 14.3634C-154.946 13.3634 -155.749 12.5452 -156.818 12.5452C-157.798 12.5452 -158.601 13.3634 -158.601 14.3634ZM-164.037 12.4543C-165.018 12.4543 -165.909 13.2725 -165.909 14.3634C-165.909 15.3634 -165.018 16.1816 -164.037 16.1816C-163.057 16.1816 -162.255 15.3634 -162.255 14.3634C-162.255 13.2725 -163.057 12.4543 -164.037 12.4543ZM-167.692 21.727V35.9088C-167.692 36.9088 -166.889 37.727 -165.82 37.727H-133.2C-132.219 37.727 -131.417 36.9088 -131.417 35.9088V21.727H-167.692ZM-149.51 12.4543C-150.579 12.4543 -151.381 13.2725 -151.381 14.3634C-151.381 15.3634 -150.579 16.1816 -149.51 16.1816C-148.529 16.1816 -147.727 15.3634 -147.727 14.3634C-147.727 13.2725 -148.529 12.4543 -149.51 12.4543ZM210.294 38.9998C211.631 38.9998 212.701 40.0907 212.701 41.4543C212.701 42.8179 211.631 43.9088 210.294 43.9088C208.957 43.9088 207.888 42.8179 207.888 41.4543C207.888 40.0907 208.957 38.9998 210.294 38.9998ZM219.92 41.4543C219.92 40.0907 220.989 38.9998 222.326 38.9998C223.663 38.9998 224.822 40.0907 224.822 41.4543C224.822 42.8179 223.663 43.9088 222.326 43.9088C220.989 43.9088 219.92 42.8179 219.92 41.4543ZM222.326 26.6361C223.663 26.6361 224.822 27.8179 224.822 29.1816C224.822 30.5452 223.663 31.6361 222.326 31.6361C220.989 31.6361 219.92 30.5452 219.92 29.1816C219.92 27.8179 220.989 26.6361 222.326 26.6361ZM207.799 29.1816C207.799 27.8179 208.868 26.6361 210.205 26.6361H210.294C211.631 26.6361 212.701 27.8179 212.701 29.1816C212.701 30.5452 211.631 31.6361 210.294 31.6361H210.205C208.868 31.6361 207.799 30.5452 207.799 29.1816ZM216.266 32.8179C217.603 32.8179 218.672 33.9998 218.672 35.3634C218.672 36.727 217.603 37.8179 216.266 37.8179C214.929 37.8179 213.859 36.727 213.859 35.3634C213.859 33.9998 214.929 32.8179 216.266 32.8179ZM198.708 26.727C201.114 26.727 202.986 28.6361 202.986 30.9997V39.6361C202.986 41.9997 201.114 43.9998 198.708 43.9998H190.33C187.923 43.9998 186.052 41.9997 186.052 39.6361V30.9997C186.052 28.6361 187.923 26.727 190.33 26.727H198.708ZM207.71 8.81792C207.71 6.45428 209.67 4.5452 211.988 4.5452H220.455C222.772 4.5452 224.644 6.45428 224.644 8.81792V17.4543C224.644 19.8179 222.772 21.727 220.455 21.727H211.988C209.67 21.727 207.71 19.8179 207.71 17.4543V8.81792ZM198.708 4.5452C201.025 4.5452 202.897 6.45428 202.897 8.81792V17.4543C202.897 19.8179 201.025 21.727 198.708 21.727H190.241C187.834 21.727 185.963 19.8179 185.963 17.4543V8.81792C185.963 6.45428 187.834 4.5452 190.241 4.5452H198.708ZM211.988 8.18156C211.631 8.18156 211.364 8.45428 211.364 8.81792V17.4543C211.364 17.8179 211.631 18.0907 211.988 18.0907H220.455C220.722 18.0907 221.079 17.8179 221.079 17.4543V8.81792C221.079 8.45428 220.722 8.18156 220.455 8.18156H211.988ZM216.177 10.6361C217.513 10.6361 218.583 11.727 218.583 13.0907V13.1816C218.583 14.5452 217.513 15.6361 216.177 15.6361C214.84 15.6361 213.77 14.5452 213.77 13.1816V13.0907C213.77 11.727 214.84 10.6361 216.177 10.6361ZM189.617 39.6361C189.617 39.9997 189.884 40.2725 190.152 40.2725H198.619C198.975 40.2725 199.243 39.9997 199.243 39.6361V30.9997C199.243 30.6361 198.975 30.3634 198.619 30.3634H190.152C189.884 30.3634 189.617 30.6361 189.617 30.9997V39.6361ZM194.43 32.8179C195.767 32.8179 196.836 33.9998 196.836 35.3634C196.836 36.727 195.767 37.8179 194.43 37.8179C193.093 37.8179 191.934 36.727 191.934 35.3634C191.934 33.9998 193.093 32.8179 194.43 32.8179ZM189.528 17.4543C189.528 17.8179 189.795 18.0907 190.152 18.0907H198.619C198.975 18.0907 199.243 17.8179 199.243 17.4543V8.81792C199.243 8.45428 198.975 8.18156 198.619 8.18156H190.152C189.795 8.18156 189.528 8.45428 189.528 8.81792V17.4543ZM194.43 10.6361C195.767 10.6361 196.836 11.8179 196.836 13.1816C196.836 14.5452 195.767 15.6361 194.43 15.6361H194.341C193.004 15.6361 191.934 14.5452 191.934 13.1816C191.934 11.8179 193.004 10.6361 194.341 10.6361H194.43ZM33.5562 -74.7275C36.5865 -74.8487 39.5871 -75.1215 42.558 -75.5457C43.5384 -75.6366 44.4297 -74.9094 44.6079 -73.9094C44.9644 -71.3639 45.2021 -68.7578 45.321 -66.0912C45.4101 -64.7275 44.3406 -63.5457 43.0037 -63.5457C42.0233 -63.5457 41.2211 -64.1821 40.5972 -64.9094C39.9734 -65.6366 39.1712 -66.0003 38.28 -66.0003C36.3192 -66.0003 34.6258 -63.8184 34.6258 -61.0912C34.6258 -58.3639 36.3192 -56.1821 38.28 -56.1821C39.1712 -56.1821 39.9734 -56.5457 40.5972 -57.273C41.2211 -58.0003 42.0233 -58.6366 43.0037 -58.6366C44.4297 -58.6366 45.4992 -57.4548 45.4992 -56.0912C45.3804 -52.8184 45.113 -49.576 44.6971 -46.3639C44.5188 -45.5457 43.8949 -44.8184 43.0928 -44.7275C39.9436 -44.3033 36.7648 -44.0306 33.5562 -43.9094C32.1302 -43.8184 31.0607 -45.0003 31.0607 -46.3639C31.0607 -47.3639 31.6846 -48.273 32.3976 -48.9094C33.0215 -49.5457 33.4671 -50.3639 33.4671 -51.273C33.4671 -53.273 31.3281 -54.9094 28.6543 -54.9094C25.9805 -54.9094 23.7523 -53.273 23.7523 -51.273C23.7523 -50.3639 24.198 -49.5457 24.911 -48.9094C25.624 -48.273 26.1588 -47.4548 26.1588 -46.4548C26.1588 -45.0912 25.0892 -43.9094 23.7523 -44.0003C21.138 -44.1821 18.5533 -44.4548 15.9983 -44.8184C15.0179 -45.0003 14.3049 -45.9093 14.4832 -46.9093C14.8991 -49.9397 15.1665 -53.0003 15.2853 -56.0912C15.2853 -57.4548 14.2158 -58.6366 12.7898 -58.6366C11.8094 -58.6366 11.0072 -58.0003 10.3833 -57.273C9.75946 -56.5457 8.95732 -56.1821 8.06606 -56.1821C6.10527 -56.1821 4.41185 -58.3639 4.41185 -61.0912C4.41185 -63.8184 6.10527 -66.0003 8.06606 -66.0003C8.95732 -66.0003 9.75946 -65.6366 10.3833 -64.9094C11.0072 -64.1821 11.8094 -63.5457 12.7898 -63.5457C14.1267 -63.5457 15.1962 -64.7275 15.107 -66.0912C14.9882 -68.576 14.7505 -71.0609 14.394 -73.5457C14.3049 -74.0912 14.4832 -74.7275 14.9288 -75.0912C15.2853 -75.5457 15.9092 -75.7275 16.4439 -75.6366C18.8206 -75.273 21.2568 -75.0003 23.7523 -74.8184C25.0892 -74.8184 26.1588 -75.9094 26.1588 -77.273C26.1588 -78.273 25.624 -79.0912 24.911 -79.7275C24.198 -80.3639 23.7523 -81.1821 23.7523 -82.0912C23.7523 -84.0912 25.9805 -85.7275 28.6543 -85.7275C31.3281 -85.7275 33.4671 -84.0912 33.4671 -82.0912C33.4671 -81.1821 33.0215 -80.3639 32.3976 -79.7275C31.6846 -79.0912 31.0607 -78.1821 31.0607 -77.1821C31.0607 -75.8184 32.1302 -74.7275 33.5562 -74.7275Z" fill="#0F172A"/>
<path fill-rule="evenodd" clip-rule="evenodd" d="M275.089 192.546C275.089 189.546 277.496 187.091 280.437 187.091H304.501C307.442 187.091 309.849 189.546 309.849 192.546V214.364C309.849 217.364 307.442 219.818 304.501 219.818H280.437C277.496 219.818 275.089 217.364 275.089 214.364V192.546ZM282.219 196.273L285.25 199.364L282.219 202.546C281.685 203.091 281.685 203.909 282.219 204.455C282.754 205 283.556 205 284.091 204.455L288.102 200.364C288.636 199.818 288.636 199 288.102 198.455L284.091 194.364C283.556 193.818 282.754 193.818 282.219 194.364C281.685 194.909 281.685 195.727 282.219 196.273ZM289.795 202.091C289.082 202.091 288.458 202.727 288.458 203.455C288.458 204.273 289.082 204.818 289.795 204.818H295.143C295.945 204.818 296.48 204.273 296.48 203.455C296.48 202.727 295.945 202.091 295.143 202.091H289.795ZM-530.971 -77.1817C-530.971 -80.1817 -528.565 -82.6362 -525.624 -82.6362H-501.56C-498.618 -82.6362 -496.212 -80.1817 -496.212 -77.1817V-59.4544C-496.212 -56.3635 -498.618 -53.9999 -501.56 -53.9999H-506.907V-53.4544C-506.907 -52.3635 -506.462 -51.3635 -505.749 -50.6362L-504.59 -49.4544C-504.233 -49.0908 -504.144 -48.4544 -504.323 -47.9999C-504.501 -47.4544 -505.036 -47.1817 -505.57 -47.1817H-521.613C-522.148 -47.1817 -522.594 -47.4544 -522.861 -47.9999C-523.039 -48.4544 -522.95 -49.0908 -522.504 -49.4544L-521.435 -50.6362C-520.722 -51.3635 -520.276 -52.3635 -520.276 -53.4544V-53.9999H-525.624C-528.565 -53.9999 -530.971 -56.3635 -530.971 -59.4544V-77.1817ZM-528.298 -77.1817V-63.5453C-528.298 -61.9999 -527.05 -60.818 -525.624 -60.818H-501.56C-500.045 -60.818 -498.886 -61.9999 -498.886 -63.5453V-77.1817C-498.886 -78.6362 -500.045 -79.909 -501.56 -79.909H-525.624C-527.05 -79.909 -528.298 -78.6362 -528.298 -77.1817ZM-505.57 211.637H-521.613V195.273H-505.57V211.637Z" fill="#0F172A"/>
<path fill-rule="evenodd" clip-rule="evenodd" d="M132.576 203.455C132.576 213.273 124.733 221.182 115.196 221.182C105.571 221.182 97.8166 213.273 97.8166 203.455C97.8166 193.727 105.571 185.727 115.196 185.727C124.733 185.727 132.576 193.727 132.576 203.455ZM113.146 193.909C109.136 193.909 105.838 197.273 105.838 201.455C105.838 205.546 109.136 208.909 113.146 208.909C114.751 208.909 116.177 208.455 117.335 207.636L120.9 211.273C121.435 211.818 122.237 211.818 122.772 211.273C123.307 210.727 123.307 209.909 122.772 209.364L119.207 205.727C120.009 204.455 120.544 203 120.544 201.455C120.544 197.273 117.246 193.909 113.146 193.909ZM42.4689 185.727C43.1819 185.727 43.8058 186.364 43.8058 187.091C43.8058 187.909 43.1819 188.455 42.4689 188.455H41.132V207.546C41.132 210.546 38.7256 213 35.7844 213H33.6454L35.6953 219.455C35.9627 220.091 35.5171 220.909 34.8932 221.182C34.1802 221.364 33.3781 221 33.1998 220.273L32.5759 218.455H17.6027L16.9788 220.273C16.7114 221 15.9984 221.364 15.2853 221.182C14.5723 220.909 14.2159 220.091 14.4832 219.455L16.5331 213H14.3941C11.4529 213 9.04651 210.546 9.04651 207.546V188.455H7.70959C6.90747 188.455 6.37271 187.909 6.37271 187.091C6.37271 186.364 6.90747 185.727 7.70959 185.727H42.4689ZM26.4261 198C26.4261 197.273 25.8023 196.636 25.0893 196.636C24.2871 196.636 23.7523 197.273 23.7523 198V204.818C23.7523 205.636 24.2871 206.182 25.0893 206.182C25.8023 206.182 26.4261 205.636 26.4261 204.818V198ZM31.7737 193.909C31.7737 193.182 31.1499 192.546 30.4369 192.546C29.6347 192.546 29.0999 193.182 29.0999 193.909V204.818C29.0999 205.636 29.6347 206.182 30.4369 206.182C31.1499 206.182 31.7737 205.636 31.7737 204.818V193.909ZM31.6846 215.727L30.7934 213H19.3852L18.4939 215.727H31.6846ZM20.9894 202.091C20.9894 201.364 20.4547 200.727 19.6526 200.727C18.9395 200.727 18.3156 201.364 18.3156 202.091V204.818C18.3156 205.636 18.9395 206.182 19.6526 206.182C20.4547 206.182 20.9894 205.636 20.9894 204.818V202.091ZM212.79 93.7274C214.572 93.7274 216.087 95.2728 216.087 97.091V102.546C216.86 102.667 217.632 102.788 218.405 102.909C220.989 103.273 222.772 105.546 222.772 108.182V119.636C222.772 122.636 220.366 125.091 217.424 125.091H216.979L217.246 128.182C217.424 130.182 215.909 131.909 213.948 131.909H196.925C194.964 131.909 193.449 130.182 193.628 128.182L193.895 125.091H193.36C190.419 125.091 188.013 122.636 188.013 119.636V108.182C188.013 105.546 189.884 103.273 192.469 102.909C193.182 102.788 193.925 102.667 194.697 102.546V97.091C194.697 95.2728 196.212 93.7274 198.084 93.7274H212.79ZM216.087 111.455C216.89 111.455 217.424 110.818 217.424 110.091C217.424 109.364 216.89 108.727 216.087 108.727C215.374 108.727 214.751 109.364 214.751 110.091C214.751 110.818 215.374 111.455 216.087 111.455ZM205.392 116.909C202.837 116.909 200.312 117.03 197.817 117.273C197.46 117.364 197.193 117.546 197.193 117.909L196.212 128.455C196.212 128.818 196.48 129.182 196.925 129.182H213.948C214.305 129.182 214.572 128.818 214.572 128.455L213.681 117.909C213.592 117.546 213.325 117.364 213.057 117.273C210.562 117.03 208.007 116.909 205.392 116.909ZM213.414 102.273V97.091C213.414 96.7274 213.146 96.4546 212.79 96.4546H198.084C197.727 96.4546 197.371 96.7274 197.371 97.091V102.273C200.045 102.03 202.719 101.909 205.392 101.909C208.125 101.909 210.799 102.03 213.414 102.273ZM210.74 108.727C210.027 108.727 209.403 109.364 209.403 110.091C209.403 110.818 210.027 111.455 210.74 111.455C211.542 111.455 212.077 110.818 212.077 110.091C212.077 109.364 211.542 108.727 210.74 108.727ZM-81.1496 206.182C-81.1496 197.909 -74.5542 191.182 -66.4437 191.182C-65.7307 191.182 -65.1068 191.818 -65.1068 192.546V204.818H-53.0747C-52.3617 204.818 -51.7378 205.455 -51.7378 206.182C-51.7378 214.455 -58.3332 221.182 -66.4437 221.182C-74.5542 221.182 -81.1496 214.455 -81.1496 206.182ZM-62.433 187.091C-62.433 186.364 -61.8091 185.727 -61.0961 185.727C-52.9856 185.727 -46.3902 192.455 -46.3902 200.727C-46.3902 201.546 -47.0141 202.091 -47.7271 202.091H-61.0961C-61.8091 202.091 -62.433 201.546 -62.433 200.727V187.091ZM-406.907 -49.4545C-406.372 -48.909 -406.372 -48.0908 -406.907 -47.5454C-407.442 -46.9999 -408.244 -46.9999 -408.779 -47.5454L-440.864 -80.2726C-441.399 -80.8181 -441.399 -81.6363 -440.864 -82.1817C-440.33 -82.7272 -439.528 -82.7272 -438.993 -82.1817L-406.907 -49.4545ZM-405.214 -54.5454C-405.214 -53.6363 -405.57 -52.9999 -406.105 -52.4545L-414.572 -61.0908V-72.2726L-409.759 -77.1817C-408.066 -78.8181 -405.214 -77.6363 -405.214 -75.1817V-54.5454ZM-417.246 -73.0908V-63.909L-431.595 -78.5454H-422.593C-419.563 -78.5454 -417.246 -76.0908 -417.246 -73.0908ZM-442.647 -73.0908C-442.647 -74.5454 -442.112 -75.8181 -441.221 -76.8181L-418.315 -53.4545C-419.296 -52.0908 -420.811 -51.2726 -422.593 -51.2726H-437.299C-440.241 -51.2726 -442.647 -53.7272 -442.647 -56.7272V-73.0908Z" fill="#0F172A"/>
</g>
</g>
<defs>
<clipPath id="clip0_70_5411">
<rect width="50" height="50" fill="white"/>
</clipPath>
</defs>
</svg>
