<svg width="50" height="50" viewBox="0 0 50 50" fill="none" xmlns="http://www.w3.org/2000/svg">
<g clip-path="url(#clip0_70_5438)">
<mask id="mask0_70_5438" style="mask-type:luminance" maskUnits="userSpaceOnUse" x="-415" y="-762" width="1584" height="1224">
<path d="M-415 -762H1169V462H-415V-762Z" fill="white"/>
</mask>
<g mask="url(#mask0_70_5438)">
<path fill-rule="evenodd" clip-rule="evenodd" d="M139 -59.4C138.2 -58.6 136.9 -58.6 136.1 -59.4L116.5 -79V-63.5C116.5 -62.4 115.6 -61.5 114.5 -61.5C113.3 -61.5 112.4 -62.4 112.4 -63.5V-83.9C112.4 -85 113.3 -85.9 114.5 -85.9H134.8C135.9 -85.9 136.8 -85 136.8 -83.9C136.8 -82.8 135.9 -81.9 134.8 -81.9H119.4L139 -62.3C139.8 -61.5 139.8 -60.2 139 -59.4ZM310.5 25.1C310.5 13.1 320.2 3.39999 332.2 3.39999C344.2 3.39999 353.9 13.1 353.9 25.1C353.9 37.1 344.2 46.8 332.2 46.8C320.2 46.8 310.5 37.1 310.5 25.1ZM330.1 33.9C330.1 35 331 35.9 332.2 35.9C333.3 35.9 334.2 35 334.2 33.9V21.5L339.5 27.1C340.3 28 341.5 28 342.4 27.3C343.2 26.5 343.2 25.2 342.5 24.4L333.7 14.9C333.3 14.5 332.7 14.2 332.2 14.2C331.6 14.2 331.1 14.5 330.7 14.9L321.9 24.4C321.1 25.2 321.1 26.5 322 27.3C322.8 28 324.1 28 324.8 27.1L330.1 21.5V33.9ZM-62.7001 -72.4C-62.7001 -71.3 -63.6001 -70.4 -64.8001 -70.4H-82.8001L-76.9001 -65.1C-76.1001 -64.3 -76.1001 -63 -76.9001 -62.2C-77.6001 -61.4 -78.9001 -61.3 -79.7001 -62.1L-89.2001 -70.9C-89.6001 -71.3 -89.9001 -71.9 -89.9001 -72.4C-89.9001 -73 -89.6001 -73.5 -89.2001 -73.9L-79.7001 -82.7C-78.9001 -83.5 -77.6001 -83.4 -76.9001 -82.6C-76.1001 -81.8 -76.1001 -80.5 -76.9001 -79.8L-82.8001 -74.4H-64.8001C-63.6001 -74.4 -62.7001 -73.5 -62.7001 -72.4ZM512.5 14.2C511.3 14.2 510.4 15.1 510.4 16.2V39.3C510.4 40.4 511.3 41.3 512.5 41.3H535.6C536.7 41.3 537.6 40.4 537.6 39.3V28.4C537.6 27.3 538.5 26.4 539.6 26.4C540.8 26.4 541.7 27.3 541.7 28.4V39.3C541.7 42.7 538.9 45.4 535.6 45.4H512.5C509.1 45.4 506.3 42.7 506.3 39.3V16.2C506.3 12.8 509.1 10.1 512.5 10.1H526C527.2 10.1 528.1 11 528.1 12.1C528.1 13.3 527.2 14.2 526 14.2H512.5ZM518 31L542.6 8.7H535.6C534.5 8.7 533.6 7.8 533.6 6.7C533.6 5.59999 534.5 4.7 535.6 4.7H547.9C549 4.7 549.9 5.59999 549.9 6.7V18.9C549.9 20 549 21 547.9 21C546.7 21 545.8 20 545.8 18.9V11.3L520.7 34C519.9 34.8 518.6 34.7 517.8 33.9C517.1 33 517.1 31.8 518 31ZM10.8999 -72.4C10.8999 -73.5 11.7999 -74.4 12.8999 -74.4H30.9999L25.0999 -79.8C24.2999 -80.5 24.2999 -81.8 24.9999 -82.6C25.7999 -83.4 27.0999 -83.5 27.8999 -82.7L37.3999 -73.9C37.7999 -73.5 37.9999 -73 37.9999 -72.4C37.9999 -71.9 37.7999 -71.3 37.3999 -70.9L27.8999 -62.1C27.0999 -61.3 25.7999 -61.4 24.9999 -62.2C24.2999 -63 24.2999 -64.3 25.0999 -65.1L30.9999 -70.4H12.8999C11.7999 -70.4 10.8999 -71.3 10.8999 -72.4ZM225.1 -66.4C225.9 -65.6 225.9 -64.3 225.1 -63.5C224.3 -62.7 223 -62.7 222.2 -63.5L217.6 -68.1C217.733 -65.2333 217.967 -62.3667 218.3 -59.5C218.4 -58.7 219.1 -58 220 -57.9C223.2 -57.6333 226.467 -57.5 229.8 -57.5C233.067 -57.5 236.3 -57.6333 239.5 -57.9C240.4 -58 241.1 -58.7 241.2 -59.5C241.4 -60.9 241.533 -62.3333 241.6 -63.8C241.7 -64.9 242.7 -65.7 243.8 -65.6C244.9 -65.5 245.8 -64.6 245.7 -63.4C245.567 -61.9333 245.4 -60.5 245.2 -59.1C244.9 -56.3 242.7 -54.1 239.9 -53.9C236.566 -53.5667 233.2 -53.4 229.8 -53.4C226.333 -53.4 222.933 -53.5667 219.6 -53.9C216.8 -54.1 214.6 -56.3 214.3 -59.1C213.9 -62.1 213.667 -65.1333 213.6 -68.2L208.8 -63.5C208 -62.7 206.7 -62.7 206 -63.5C205.2 -64.3 205.2 -65.6 206 -66.4L214.1 -74.5C214.9 -75.3 216.2 -75.3 217 -74.5L225.1 -66.4ZM220 -86.9C219.1 -86.8 218.4 -86.2 218.3 -85.3C218.1 -83.9 217.967 -82.5 217.9 -81.1C217.8 -80 216.8 -79.1 215.7 -79.2C214.6 -79.3 213.7 -80.3 213.8 -81.4C213.933 -82.8667 214.067 -84.3333 214.2 -85.8C214.6 -88.6 216.8 -90.7 219.6 -91C222.933 -91.2667 226.3 -91.4 229.7 -91.4C233.167 -91.4 236.566 -91.2667 239.9 -91C242.7 -90.7 244.9 -88.6 245.2 -85.8C245.6 -82.7333 245.833 -79.6667 245.9 -76.6L250.7 -81.3C251.5 -82.1 252.8 -82.1 253.5 -81.3C254.3 -80.5 254.3 -79.3 253.5 -78.5L245.4 -70.3C244.6 -69.5 243.3 -69.5 242.5 -70.3L234.4 -78.5C233.6 -79.3 233.6 -80.5 234.4 -81.3C235.2 -82.1 236.5 -82.1 237.3 -81.3L241.9 -76.8C241.767 -79.6667 241.533 -82.5 241.2 -85.3C241.1 -86.2 240.4 -86.8 239.5 -86.9C236.3 -87.2333 233.033 -87.4 229.7 -87.4C226.433 -87.4 223.2 -87.2333 220 -86.9ZM423.5 -83C420.8 -83 418.6 -85.2 418.6 -87.9C418.6 -90.7 420.8 -92.9 423.5 -92.9C426.3 -92.9 428.5 -90.7 428.5 -87.9C428.5 -85.2 426.3 -83 423.5 -83ZM432.8 -86.1C431.8 -86.1 431 -86.9 431 -87.9C431 -89 431.8 -89.8 432.8 -89.8H446.4C447.5 -89.8 448.3 -89 448.3 -87.9C448.3 -86.9 447.5 -86.1 446.4 -86.1H432.8ZM416.1 -87.9C416.1 -86.9 415.3 -86.1 414.3 -86.1H410.6C409.5 -86.1 408.7 -86.9 408.7 -87.9C408.7 -88.9 409.5 -89.8 410.6 -89.8H414.3C415.3 -89.8 416.1 -88.9 416.1 -87.9ZM410.6 -55.1C409.5 -55.1 408.7 -55.9 408.7 -57C408.7 -58 409.5 -58.8 410.6 -58.8H414.3C415.3 -58.8 416.1 -58 416.1 -57C416.1 -55.9 415.3 -55.1 414.3 -55.1H410.6ZM432.9 -55.1C431.8 -55.1 431 -55.9 431 -57C431 -58 431.8 -58.8 432.9 -58.8H446.5C447.5 -58.8 448.3 -58 448.3 -57C448.3 -55.9 447.5 -55.1 446.5 -55.1H432.9ZM426.1 -72.4C426.1 -71.4 425.2 -70.6 424.2 -70.6H410.6C409.6 -70.6 408.7 -71.4 408.7 -72.4C408.7 -73.5 409.6 -74.3 410.6 -74.3H424.2C425.2 -74.3 426.1 -73.5 426.1 -72.4ZM442.8 -70.6C441.8 -70.6 440.9 -71.4 440.9 -72.4C440.9 -73.5 441.8 -74.3 442.8 -74.3H446.5C447.5 -74.3 448.4 -73.5 448.4 -72.4C448.4 -71.4 447.5 -70.6 446.5 -70.6H442.8ZM433.5 -67.5C430.8 -67.5 428.6 -69.7 428.6 -72.4C428.6 -75.2 430.8 -77.4 433.5 -77.4C436.3 -77.4 438.5 -75.2 438.5 -72.4C438.5 -69.7 436.3 -67.5 433.5 -67.5ZM423.6 -52C420.9 -52 418.7 -54.2 418.7 -57C418.7 -59.7 420.9 -61.9 423.6 -61.9C426.3 -61.9 428.6 -59.7 428.6 -57C428.6 -54.2 426.3 -52 423.6 -52ZM818.8 -189.4C819.9 -189.4 820.8 -188.5 820.8 -187.4V-153.5C820.8 -152.4 819.9 -151.5 818.8 -151.5H814.7C813.6 -151.5 812.7 -152.4 812.7 -153.5V-187.4C812.7 -188.5 813.6 -189.4 814.7 -189.4H818.8ZM837.8 -189.4C838.9 -189.4 839.9 -188.5 839.9 -187.4V-153.5C839.9 -152.4 838.9 -151.5 837.8 -151.5H833.8C832.6 -151.5 831.7 -152.4 831.7 -153.5V-187.4C831.7 -188.5 832.6 -189.4 833.8 -189.4H837.8ZM718 -159.7L721.4 -168.2C722 -169.6 722.8 -170.8 723.8 -171.9L742.6 -190.6C744.8 -192.9 748.5 -192.9 750.7 -190.6C753 -188.4 753 -184.7 750.7 -182.5L732 -163.7C730.9 -162.7 729.7 -161.9 728.3 -161.3L719.8 -157.9C718.7 -157.4 717.6 -158.5 718 -159.7ZM712.8 -156C712.8 -154.2 714.3 -152.6 716.1 -152.6H741.9C743.8 -152.6 745.3 -154.2 745.3 -156V-170.3C745.3 -171.4 746.2 -172.3 747.3 -172.3C748.5 -172.3 749.4 -171.4 749.4 -170.3V-156C749.4 -151.9 746 -148.6 741.9 -148.6H716.1C712 -148.6 708.7 -151.9 708.7 -156V-181.8C708.7 -185.9 712 -189.3 716.1 -189.3H730.4C731.5 -189.3 732.4 -188.4 732.4 -187.2C732.4 -186.1 731.5 -185.2 730.4 -185.2H716.1C714.3 -185.2 712.8 -183.7 712.8 -181.8V-156ZM612.5 -161.8L642.1 -191.4C644.4 -193.7 648 -193.7 650.3 -191.4C652.5 -189.2 652.5 -185.5 650.3 -183.3L620.6 -153.7C619.6 -152.6 618.4 -151.8 617 -151.3L608.4 -147.8C607.3 -147.4 606.2 -148.5 606.7 -149.6L610.1 -158.1C610.6 -159.5 611.5 -160.8 612.5 -161.8ZM506.5 -90C506.5 -92.3 508.3 -94.1 510.5 -94.1H513.7C515.6 -94.1 517.2 -92.8 517.6 -90.9L519.6 -82.2C520 -80.1 518.8 -78 516.7 -77.4L514.2 -76.7C513.1 -76.3 512.4 -75.2 512.9 -74.1C516 -66.4 522.2 -60.3 529.8 -57.1C530.9 -56.7 532.1 -57.3 532.4 -58.4L533.1 -61C533.7 -63 535.8 -64.3 537.9 -63.8L546.7 -61.9C548.5 -61.5 549.9 -59.8 549.9 -57.9V-54.8C549.9 -52.5 548 -50.7 545.8 -50.7H541.7C538.6 -50.7 535.6 -51.1 532.7 -51.9C520.5 -55.1 510.9 -64.7 507.6 -77C506.9 -79.8 506.5 -82.9 506.5 -86V-90Z" fill="#0F172A"/>
<path fill-rule="evenodd" clip-rule="evenodd" d="M808.6 112.8C808.6 109.5 811.3 106.8 814.6 106.8H841.6C844.9 106.8 847.6 109.5 847.6 112.8V136.8C847.6 140.1 844.9 142.8 841.6 142.8H814.6C811.3 142.8 808.6 140.1 808.6 136.8V112.8ZM816.6 116.9L820 120.3L816.6 123.8C816 124.4 816 125.3 816.6 125.9C817.2 126.5 818.1 126.5 818.7 125.9L823.2 121.4C823.8 120.8 823.8 119.9 823.2 119.3L818.7 114.8C818.1 114.2 817.2 114.2 816.6 114.8C816 115.4 816 116.3 816.6 116.9ZM825.1 123.3C824.3 123.3 823.6 124 823.6 124.8C823.6 125.7 824.3 126.3 825.1 126.3H831.1C832 126.3 832.6 125.7 832.6 124.8C832.6 124 832 123.3 831.1 123.3H825.1ZM-95.8 -183.9C-95.8 -187.2 -93.1 -189.9 -89.8 -189.9H-62.8C-59.5 -189.9 -56.8 -187.2 -56.8 -183.9V-164.4C-56.8 -161 -59.5 -158.4 -62.8 -158.4H-68.8V-157.8C-68.8 -156.6 -68.3 -155.5 -67.5 -154.7L-66.2 -153.4C-65.8 -153 -65.7 -152.3 -65.9 -151.8C-66.1 -151.2 -66.7 -150.9 -67.3 -150.9H-85.3C-85.9 -150.9 -86.4 -151.2 -86.7 -151.8C-86.9 -152.3 -86.8 -153 -86.3 -153.4L-85.1 -154.7C-84.3 -155.5 -83.8 -156.6 -83.8 -157.8V-158.4H-89.8C-93.1 -158.4 -95.8 -161 -95.8 -164.4V-183.9ZM-92.8 -183.9V-168.9C-92.8 -167.2 -91.4 -165.9 -89.8 -165.9H-62.8C-61.1 -165.9 -59.8 -167.2 -59.8 -168.9V-183.9C-59.8 -185.5 -61.1 -186.9 -62.8 -186.9H-89.8C-91.4 -186.9 -92.8 -185.5 -92.8 -183.9ZM-67.3 133.8H-85.3V115.8H-67.3V133.8Z" fill="#0F172A"/>
<path fill-rule="evenodd" clip-rule="evenodd" d="M45.4 135.3C45.4 138.6 42.7 141.3 39.4 141.3H9.39996C6.09995 141.3 3.39996 138.6 3.39996 135.3V120.3H45.4V135.3ZM10.9 129.3H22.9C23.7 129.3 24.4 128.7 24.4 127.8C24.4 127 23.7 126.3 22.9 126.3H10.9C10.1 126.3 9.39996 127 9.39996 127.8C9.39996 128.7 10.1 129.3 10.9 129.3ZM10.9 132.3C10.1 132.3 9.39996 133 9.39996 133.8C9.39996 134.7 10.1 135.3 10.9 135.3H16.9C17.7 135.3 18.4 134.7 18.4 133.8C18.4 133 17.7 132.3 16.9 132.3H10.9ZM-89 4.1001H-82.3C-78.1 4.1001 -74.8 7.4001 -74.8 11.6001V15.3001C-74.8 17.4001 -73.1 19.1001 -71 19.1001H-67.3C-63.1 19.1001 -59.8 22.4001 -59.8 26.6001V42.3001C-59.8 44.4001 -61.5 46.1001 -63.5 46.1001H-89C-91.1 46.1001 -92.8 44.4001 -92.8 42.3001V7.8001C-92.8 5.8001 -91.1 4.1001 -89 4.1001ZM-77.8 31.1001V37.1001C-77.8 37.9001 -77.1 38.6001 -76.3 38.6001C-75.5 38.6001 -74.8 37.9001 -74.8 37.1001V31.1001C-74.8 30.3001 -75.5 29.6001 -76.3 29.6001C-77.1 29.6001 -77.8 30.3001 -77.8 31.1001ZM-80.8 35.6001C-80.8 34.8001 -81.5 34.1001 -82.3 34.1001C-83.1 34.1001 -83.8 34.8001 -83.8 35.6001V37.1001C-83.8 37.9001 -83.1 38.6001 -82.3 38.6001C-81.5 38.6001 -80.8 37.9001 -80.8 37.1001V35.6001ZM-68.8 26.6001C-68.8 25.8001 -69.5 25.1001 -70.3 25.1001C-71.1 25.1001 -71.8 25.8001 -71.8 26.6001V37.1001C-71.8 37.9001 -71.1 38.6001 -70.3 38.6001C-69.5 38.6001 -68.8 37.9001 -68.8 37.1001V26.6001ZM-71.8 11.6001C-71.8 9.0001 -72.8 6.6001 -74.3 4.7001C-67.5 6.5001 -62.2 11.8001 -60.4 18.6001C-62.3 17.0001 -64.7 16.1001 -67.3 16.1001H-71C-71.5 16.1001 -71.8 15.7001 -71.8 15.3001V11.6001ZM127.5 11.6001V15.4001C127.5 17.5001 129.2 19.1001 131.2 19.1001H135C139.1 19.1001 142.5 22.5001 142.5 26.6001V42.4001C142.5 44.5001 140.8 46.1001 138.7 46.1001H113.2C111.2 46.1001 109.5 44.5001 109.5 42.4001V7.9001C109.5 5.8001 111.2 4.1001 113.2 4.1001H120C124.1 4.1001 127.5 7.5001 127.5 11.6001ZM133.2 26.0001C133.7 25.3001 133.5 24.4001 132.9 23.9001C132.2 23.4001 131.3 23.6001 130.8 24.3001L124.3 33.3001L121.1 30.1001C120.5 29.5001 119.5 29.5001 118.9 30.1001C118.3 30.7001 118.3 31.6001 118.9 32.2001L123.4 36.7001C123.7 37.0001 124.2 37.2001 124.6 37.1001C125.1 37.1001 125.5 36.9001 125.7 36.5001L133.2 26.0001ZM141.9 18.7001C140 17.1001 137.6 16.1001 135 16.1001H131.2C130.8 16.1001 130.5 15.8001 130.5 15.4001V11.6001C130.5 9.0001 129.5 6.6001 127.9 4.8001C134.7 6.5001 140.1 11.9001 141.9 18.7001ZM19.9 30.4001C19.9 28.3001 21.6 26.6001 23.6 26.6001C25.7 26.6001 27.4 28.3001 27.4 30.4001C27.4 32.5001 25.7 34.1001 23.6 34.1001C21.6 34.1001 19.9 32.5001 19.9 30.4001Z" fill="#0F172A"/>
<path fill-rule="evenodd" clip-rule="evenodd" d="M11.5999 4.1001H18.3999C22.4999 4.1001 25.8999 7.4001 25.8999 11.6001V15.3001C25.8999 17.4001 27.5999 19.1001 29.5999 19.1001H33.3999C37.4999 19.1001 40.8999 22.4001 40.8999 26.6001V42.3001C40.8999 44.4001 39.1999 46.1001 37.0999 46.1001H11.5999C9.5999 46.1001 7.8999 44.4001 7.8999 42.3001V7.8001C7.8999 5.8001 9.5999 4.1001 11.5999 4.1001ZM23.5999 37.1001C24.9999 37.1001 26.1999 36.7001 27.1999 36.0001L29.2999 38.1001C29.8999 38.7001 30.8999 38.7001 31.3999 38.1001C31.9999 37.6001 31.9999 36.6001 31.3999 36.0001L29.2999 33.9001C29.9999 32.9001 30.3999 31.7001 30.3999 30.3001C30.3999 26.6001 27.3999 23.6001 23.5999 23.6001C19.8999 23.6001 16.8999 26.6001 16.8999 30.3001C16.8999 34.1001 19.8999 37.1001 23.5999 37.1001ZM28.8999 11.6001C28.8999 9.0001 27.8999 6.6001 26.2999 4.7001C33.0999 6.5001 38.4999 11.8001 40.2999 18.6001C38.3999 17.0001 35.9999 16.1001 33.3999 16.1001H29.5999C29.1999 16.1001 28.8999 15.7001 28.8999 15.3001V11.6001ZM214.7 45.8001C211.4 45.8001 208.7 43.1001 208.7 39.8001V23.5001L222.4 31.5001L215.5 35.3001C214.7 35.7001 214.5 36.6001 214.9 37.3001C215.2 38.0001 216.2 38.3001 216.9 37.9001L228.3 31.8001C229.1 31.3001 230.2 31.3001 231.1 31.8001L242.5 37.9001C243.2 38.3001 244.1 38.0001 244.5 37.3001C244.9 36.6001 244.6 35.7001 243.9 35.3001L236.9 31.5001L250.7 23.5001V39.8001C250.7 43.1001 248 45.8001 244.7 45.8001H214.7ZM208.7 20.0001V18.5001C208.7 16.3001 209.9 14.3001 211.8 13.2001L226.8 5.2001C228.6 4.2001 230.7 4.2001 232.5 5.2001L247.5 13.2001C249.5 14.3001 250.7 16.3001 250.7 18.5001V20.0001L233.8 29.9001L232.5 29.2001C230.7 28.2001 228.6 28.2001 226.8 29.2001L225.5 29.9001L208.7 20.0001ZM329.2 136.8C329.2 135.2 330.6 133.8 332.2 133.8C333.9 133.8 335.2 135.2 335.2 136.8C335.2 138.5 333.9 139.8 332.2 139.8C330.6 139.8 329.2 138.5 329.2 136.8ZM329.2 124.8C329.2 123.2 330.6 121.8 332.2 121.8C333.9 121.8 335.2 123.2 335.2 124.8C335.2 126.5 333.9 127.8 332.2 127.8C330.6 127.8 329.2 126.5 329.2 124.8ZM329.2 112.8C329.2 111.2 330.6 109.8 332.2 109.8C333.9 109.8 335.2 111.2 335.2 112.8C335.2 114.5 333.9 115.8 332.2 115.8C330.6 115.8 329.2 114.5 329.2 112.8ZM226.6 129.2C228.5 130.3 230.9 130.3 232.9 129.2L250.7 118.2V135.3C250.7 138.6 248 141.3 244.7 141.3H214.7C211.4 141.3 208.7 138.6 208.7 135.3V118.2L226.6 129.2ZM231.3 126.6C230.4 127.2 229.2 127.2 228.2 126.6L208.8 114.7V114.3C208.8 111 211.5 108.3 214.8 108.3H244.8C248.1 108.3 250.8 111 250.8 114.3V114.7L231.3 126.6ZM117.4 135.3C117.4 134.5 118.1 133.8 118.9 133.8H142.9C143.7 133.8 144.4 134.5 144.4 135.3C144.4 136.1 143.7 136.8 142.9 136.8H118.9C118.1 136.8 117.4 136.1 117.4 135.3ZM107.6 135.3C107.6 134 108.6 133 109.9 133C111.1 133 112.1 134 112.1 135.3C112.1 136.5 111.1 137.5 109.9 137.5C108.6 137.5 107.6 136.5 107.6 135.3ZM117.4 124.8C117.4 124 118.1 123.3 118.9 123.3H142.9C143.7 123.3 144.4 124 144.4 124.8C144.4 125.6 143.7 126.3 142.9 126.3H118.9C118.1 126.3 117.4 125.6 117.4 124.8ZM107.6 124.8C107.6 123.5 108.6 122.5 109.9 122.5C111.1 122.5 112.1 123.5 112.1 124.8C112.1 126 111.1 127 109.9 127C108.6 127 107.6 126 107.6 124.8ZM117.4 114.3C117.4 113.5 118.1 112.8 118.9 112.8H142.9C143.7 112.8 144.4 113.5 144.4 114.3C144.4 115.1 143.7 115.8 142.9 115.8H118.9C118.1 115.8 117.4 115.1 117.4 114.3ZM107.6 114.3C107.6 113 108.6 112 109.9 112C111.1 112 112.1 113 112.1 114.3C112.1 115.5 111.1 116.5 109.9 116.5C108.6 116.5 107.6 115.5 107.6 114.3ZM621.7 122.5C621.7 119.6 624 117.3 626.9 117.3C629.8 117.3 632.2 119.6 632.2 122.5C632.2 124 631.6 125.3 630.7 126.3C629.7 127.2 628.4 127.8 626.9 127.8C624 127.8 621.7 125.4 621.7 122.5Z" fill="#0F172A"/>
<path fill-rule="evenodd" clip-rule="evenodd" d="M648.7 124.8C648.7 135.6 639.9 144.3 629.2 144.3C618.4 144.3 609.7 135.6 609.7 124.8C609.7 114.1 618.4 105.3 629.2 105.3C639.9 105.3 648.7 114.1 648.7 124.8ZM626.9 114.3C622.4 114.3 618.7 118 618.7 122.6C618.7 127.1 622.4 130.8 626.9 130.8C628.7 130.8 630.3 130.3 631.6 129.4L635.6 133.4C636.2 134 637.1 134 637.7 133.4C638.3 132.8 638.3 131.9 637.7 131.3L633.7 127.3C634.6 125.9 635.2 124.3 635.2 122.6C635.2 118 631.5 114.3 626.9 114.3ZM547.6 105.3C548.4 105.3 549.1 106 549.1 106.8C549.1 107.7 548.4 108.3 547.6 108.3H546.1V129.3C546.1 132.6 543.4 135.3 540.1 135.3H537.7L540 142.4C540.3 143.1 539.8 144 539.1 144.3C538.3 144.5 537.4 144.1 537.2 143.3L536.5 141.3H519.7L519 143.3C518.7 144.1 517.9 144.5 517.1 144.3C516.3 144 515.9 143.1 516.2 142.4L518.5 135.3H516.1C512.8 135.3 510.1 132.6 510.1 129.3V108.3H508.6C507.7 108.3 507.1 107.7 507.1 106.8C507.1 106 507.7 105.3 508.6 105.3H547.6ZM529.6 118.8C529.6 118 528.9 117.3 528.1 117.3C527.2 117.3 526.6 118 526.6 118.8V126.3C526.6 127.2 527.2 127.8 528.1 127.8C528.9 127.8 529.6 127.2 529.6 126.3V118.8ZM535.6 114.3C535.6 113.5 534.9 112.8 534.1 112.8C533.2 112.8 532.6 113.5 532.6 114.3V126.3C532.6 127.2 533.2 127.8 534.1 127.8C534.9 127.8 535.6 127.2 535.6 126.3V114.3ZM535.5 138.3L534.5 135.3H521.7L520.7 138.3H535.5ZM523.5 123.3C523.5 122.5 522.9 121.8 522 121.8C521.2 121.8 520.5 122.5 520.5 123.3V126.3C520.5 127.2 521.2 127.8 522 127.8C522.9 127.8 523.5 127.2 523.5 126.3V123.3ZM738.7 4.0999C740.7 4.0999 742.4 5.7999 742.4 7.7999V13.7999C743.267 13.9332 744.133 14.0666 745 14.1999C747.9 14.5999 749.9 17.0999 749.9 19.9999V32.5999C749.9 35.8999 747.2 38.5999 743.9 38.5999H743.4L743.7 41.9999C743.9 44.1999 742.2 46.0999 740 46.0999H720.9C718.7 46.0999 717 44.1999 717.2 41.9999L717.5 38.5999H716.9C713.6 38.5999 710.9 35.8999 710.9 32.5999V19.9999C710.9 17.0999 713 14.5999 715.9 14.1999C716.7 14.0666 717.533 13.9332 718.4 13.7999V7.7999C718.4 5.7999 720.1 4.0999 722.2 4.0999H738.7ZM742.4 23.5999C743.3 23.5999 743.9 22.8999 743.9 22.0999C743.9 21.2999 743.3 20.5999 742.4 20.5999C741.6 20.5999 740.9 21.2999 740.9 22.0999C740.9 22.8999 741.6 23.5999 742.4 23.5999ZM730.4 29.5999C727.533 29.5999 724.7 29.7332 721.9 29.9999C721.5 30.0999 721.2 30.2999 721.2 30.6999L720.1 42.2999C720.1 42.6999 720.4 43.0999 720.9 43.0999H740C740.4 43.0999 740.7 42.6999 740.7 42.2999L739.7 30.6999C739.6 30.2999 739.3 30.0999 739 29.9999C736.2 29.7332 733.333 29.5999 730.4 29.5999ZM739.4 13.4999V7.7999C739.4 7.3999 739.1 7.0999 738.7 7.0999H722.2C721.8 7.0999 721.4 7.3999 721.4 7.7999V13.4999C724.4 13.2332 727.4 13.0999 730.4 13.0999C733.467 13.0999 736.467 13.2332 739.4 13.4999ZM736.4 20.5999C735.6 20.5999 734.9 21.2999 734.9 22.0999C734.9 22.8999 735.6 23.5999 736.4 23.5999C737.3 23.5999 737.9 22.8999 737.9 22.0999C737.9 21.2999 737.3 20.5999 736.4 20.5999ZM408.9 127.8C408.9 118.7 416.3 111.3 425.4 111.3C426.2 111.3 426.9 112 426.9 112.8V126.3H440.4C441.2 126.3 441.9 127 441.9 127.8C441.9 136.9 434.5 144.3 425.4 144.3C416.3 144.3 408.9 136.9 408.9 127.8ZM429.9 106.8C429.9 106 430.6 105.3 431.4 105.3C440.5 105.3 447.9 112.7 447.9 121.8C447.9 122.7 447.2 123.3 446.4 123.3H431.4C430.6 123.3 429.9 122.7 429.9 121.8V106.8ZM43.4001 -153.4C44 -152.8 44 -151.9 43.4001 -151.3C42.8001 -150.7 41.9 -150.7 41.3 -151.3L5.30005 -187.3C4.70005 -187.9 4.70005 -188.8 5.30005 -189.4C5.90005 -190 6.80005 -190 7.40005 -189.4L43.4001 -153.4ZM45.3 -159C45.3 -158 44.9 -157.3 44.3 -156.7L34.8 -166.2V-178.5L40.2001 -183.9C42.1001 -185.7 45.3 -184.4 45.3 -181.7V-159ZM31.8 -179.4V-169.3L15.7 -185.4H25.8C29.2 -185.4 31.8 -182.7 31.8 -179.4ZM3.30005 -179.4C3.30005 -181 3.90005 -182.4 4.90005 -183.5L30.6 -157.8C29.5 -156.3 27.8 -155.4 25.8 -155.4H9.30005C6.00005 -155.4 3.30005 -158.1 3.30005 -161.4V-179.4Z" fill="#0F172A"/>
</g>
</g>
<defs>
<clipPath id="clip0_70_5438">
<rect width="50" height="50" fill="white"/>
</clipPath>
</defs>
</svg>
