<svg width="56" height="50" viewBox="0 0 56 50" fill="none" xmlns="http://www.w3.org/2000/svg">
<g clip-path="url(#clip0_72_5503)">
<mask id="mask0_72_5503" style="mask-type:luminance" maskUnits="userSpaceOnUse" x="-513" y="-566" width="1584" height="1224">
<path d="M-513 -566H1071V658H-513V-566Z" fill="white"/>
</mask>
<g mask="url(#mask0_72_5503)">
<path fill-rule="evenodd" clip-rule="evenodd" d="M40.9998 136.6C40.1998 137.4 38.8999 137.4 38.0999 136.6L18.4998 117V132.5C18.4998 133.6 17.5999 134.5 16.4998 134.5C15.2999 134.5 14.3998 133.6 14.3998 132.5V112.1C14.3998 111 15.2999 110.1 16.4998 110.1H36.7999C37.8999 110.1 38.7999 111 38.7999 112.1C38.7999 113.2 37.8999 114.1 36.7999 114.1H21.3998L40.9998 133.7C41.7999 134.5 41.7999 135.8 40.9998 136.6ZM212.5 221.1C212.5 209.1 222.2 199.4 234.2 199.4C246.2 199.4 255.9 209.1 255.9 221.1C255.9 233.1 246.2 242.8 234.2 242.8C222.2 242.8 212.5 233.1 212.5 221.1ZM232.1 229.9C232.1 231 233 231.9 234.2 231.9C235.3 231.9 236.2 231 236.2 229.9V217.5L241.5 223.1C242.3 224 243.5 224 244.4 223.3C245.2 222.5 245.2 221.2 244.5 220.4L235.7 210.9C235.3 210.5 234.7 210.2 234.2 210.2C233.6 210.2 233.1 210.5 232.7 210.9L223.9 220.4C223.1 221.2 223.1 222.5 224 223.3C224.8 224 226.1 224 226.8 223.1L232.1 217.5V229.9ZM-160.7 123.6C-160.7 124.7 -161.6 125.6 -162.8 125.6H-180.8L-174.9 130.9C-174.1 131.7 -174.1 133 -174.9 133.8C-175.6 134.6 -176.9 134.7 -177.7 133.9L-187.2 125.1C-187.6 124.7 -187.9 124.1 -187.9 123.6C-187.9 123 -187.6 122.5 -187.2 122.1L-177.7 113.3C-176.9 112.5 -175.6 112.6 -174.9 113.4C-174.1 114.2 -174.1 115.5 -174.9 116.2L-180.8 121.6H-162.8C-161.6 121.6 -160.7 122.5 -160.7 123.6ZM414.5 210.2C413.3 210.2 412.4 211.1 412.4 212.2V235.3C412.4 236.4 413.3 237.3 414.5 237.3H437.6C438.7 237.3 439.6 236.4 439.6 235.3V224.4C439.6 223.3 440.5 222.4 441.6 222.4C442.8 222.4 443.7 223.3 443.7 224.4V235.3C443.7 238.7 440.9 241.4 437.6 241.4H414.5C411.1 241.4 408.3 238.7 408.3 235.3V212.2C408.3 208.8 411.1 206.1 414.5 206.1H428C429.2 206.1 430.1 207 430.1 208.1C430.1 209.3 429.2 210.2 428 210.2H414.5ZM420 227L444.6 204.7H437.6C436.5 204.7 435.6 203.8 435.6 202.7C435.6 201.6 436.5 200.7 437.6 200.7H449.9C451 200.7 451.9 201.6 451.9 202.7V214.9C451.9 216 451 217 449.9 217C448.7 217 447.8 216 447.8 214.9V207.3L422.7 230C421.9 230.8 420.6 230.7 419.8 229.9C419.1 229 419.1 227.8 420 227ZM-87.1002 123.6C-87.1002 122.5 -86.2001 121.6 -85.1002 121.6H-67.0002L-72.9002 116.2C-73.7002 115.5 -73.7001 114.2 -73.0002 113.4C-72.2001 112.6 -70.9002 112.5 -70.1002 113.3L-60.6002 122.1C-60.2001 122.5 -60.0002 123 -60.0002 123.6C-60.0002 124.1 -60.2001 124.7 -60.6002 125.1L-70.1002 133.9C-70.9002 134.7 -72.2001 134.6 -73.0002 133.8C-73.7001 133 -73.7002 131.7 -72.9002 130.9L-67.0002 125.6H-85.1002C-86.2001 125.6 -87.1002 124.7 -87.1002 123.6ZM127.1 129.6C127.9 130.4 127.9 131.7 127.1 132.5C126.3 133.3 125 133.3 124.2 132.5L119.6 127.9C119.733 130.767 119.967 133.633 120.3 136.5C120.4 137.3 121.1 138 122 138.1C125.2 138.367 128.467 138.5 131.8 138.5C135.067 138.5 138.3 138.367 141.5 138.1C142.4 138 143.1 137.3 143.2 136.5C143.4 135.1 143.533 133.667 143.6 132.2C143.7 131.1 144.7 130.3 145.8 130.4C146.9 130.5 147.8 131.4 147.7 132.6C147.566 134.067 147.4 135.5 147.2 136.9C146.9 139.7 144.7 141.9 141.9 142.1C138.566 142.433 135.2 142.6 131.8 142.6C128.333 142.6 124.933 142.433 121.6 142.1C118.8 141.9 116.6 139.7 116.3 136.9C115.9 133.9 115.667 130.867 115.6 127.8L110.8 132.5C110 133.3 108.7 133.3 108 132.5C107.2 131.7 107.2 130.4 108 129.6L116.1 121.5C116.9 120.7 118.2 120.7 119 121.5L127.1 129.6ZM122 109.1C121.1 109.2 120.4 109.8 120.3 110.7C120.1 112.1 119.967 113.5 119.9 114.9C119.8 116 118.8 116.9 117.7 116.8C116.6 116.7 115.7 115.7 115.8 114.6C115.933 113.133 116.066 111.667 116.2 110.2C116.6 107.4 118.8 105.3 121.6 105C124.933 104.733 128.3 104.6 131.7 104.6C135.167 104.6 138.566 104.733 141.9 105C144.7 105.3 146.9 107.4 147.2 110.2C147.6 113.267 147.833 116.333 147.9 119.4L152.7 114.7C153.5 113.9 154.8 113.9 155.5 114.7C156.3 115.5 156.3 116.7 155.5 117.5L147.4 125.7C146.6 126.5 145.3 126.5 144.5 125.7L136.4 117.5C135.6 116.7 135.6 115.5 136.4 114.7C137.2 113.9 138.5 113.9 139.3 114.7L143.9 119.2C143.767 116.333 143.533 113.5 143.2 110.7C143.1 109.8 142.4 109.2 141.5 109.1C138.3 108.767 135.033 108.6 131.7 108.6C128.433 108.6 125.2 108.767 122 109.1ZM325.5 113C322.8 113 320.6 110.8 320.6 108.1C320.6 105.3 322.8 103.1 325.5 103.1C328.3 103.1 330.5 105.3 330.5 108.1C330.5 110.8 328.3 113 325.5 113ZM334.8 109.9C333.8 109.9 333 109.1 333 108.1C333 107 333.8 106.2 334.8 106.2H348.4C349.5 106.2 350.3 107 350.3 108.1C350.3 109.1 349.5 109.9 348.4 109.9H334.8ZM318.1 108.1C318.1 109.1 317.3 109.9 316.3 109.9H312.6C311.5 109.9 310.7 109.1 310.7 108.1C310.7 107.1 311.5 106.2 312.6 106.2H316.3C317.3 106.2 318.1 107.1 318.1 108.1ZM312.6 140.9C311.5 140.9 310.7 140.1 310.7 139C310.7 138 311.5 137.2 312.6 137.2H316.3C317.3 137.2 318.1 138 318.1 139C318.1 140.1 317.3 140.9 316.3 140.9H312.6ZM334.9 140.9C333.8 140.9 333 140.1 333 139C333 138 333.8 137.2 334.9 137.2H348.5C349.5 137.2 350.3 138 350.3 139C350.3 140.1 349.5 140.9 348.5 140.9H334.9ZM328.1 123.6C328.1 124.6 327.2 125.4 326.2 125.4H312.6C311.6 125.4 310.7 124.6 310.7 123.6C310.7 122.5 311.6 121.7 312.6 121.7H326.2C327.2 121.7 328.1 122.5 328.1 123.6ZM344.8 125.4C343.8 125.4 342.9 124.6 342.9 123.6C342.9 122.5 343.8 121.7 344.8 121.7H348.5C349.5 121.7 350.4 122.5 350.4 123.6C350.4 124.6 349.5 125.4 348.5 125.4H344.8ZM335.5 128.5C332.8 128.5 330.6 126.3 330.6 123.6C330.6 120.8 332.8 118.6 335.5 118.6C338.3 118.6 340.5 120.8 340.5 123.6C340.5 126.3 338.3 128.5 335.5 128.5ZM325.6 144C322.9 144 320.7 141.8 320.7 139C320.7 136.3 322.9 134.1 325.6 134.1C328.3 134.1 330.6 136.3 330.6 139C330.6 141.8 328.3 144 325.6 144ZM720.8 6.6C721.9 6.6 722.8 7.5 722.8 8.6V42.5C722.8 43.6 721.9 44.5 720.8 44.5H716.7C715.6 44.5 714.7 43.6 714.7 42.5V8.6C714.7 7.5 715.6 6.6 716.7 6.6H720.8ZM739.8 6.6C740.9 6.6 741.9 7.5 741.9 8.6V42.5C741.9 43.6 740.9 44.5 739.8 44.5H735.8C734.6 44.5 733.7 43.6 733.7 42.5V8.6C733.7 7.5 734.6 6.6 735.8 6.6H739.8ZM620 36.3L623.4 27.8C624 26.4 624.8 25.2 625.8 24.1L644.6 5.4C646.8 3.1 650.5 3.1 652.7 5.4C655 7.6 655 11.3 652.7 13.5L634 32.3C632.9 33.3 631.7 34.1 630.3 34.7L621.8 38.1C620.7 38.6 619.6 37.5 620 36.3ZM614.8 40C614.8 41.8 616.3 43.4 618.1 43.4H643.9C645.8 43.4 647.3 41.8 647.3 40V25.7C647.3 24.6 648.2 23.7 649.3 23.7C650.5 23.7 651.4 24.6 651.4 25.7V40C651.4 44.1 648 47.4 643.9 47.4H618.1C614 47.4 610.7 44.1 610.7 40V14.2C610.7 10.1 614 6.7 618.1 6.7H632.4C633.5 6.7 634.4 7.6 634.4 8.8C634.4 9.9 633.5 10.8 632.4 10.8H618.1C616.3 10.8 614.8 12.3 614.8 14.2V40ZM514.5 34.2L544.1 4.6C546.4 2.3 550 2.3 552.3 4.6C554.5 6.8 554.5 10.5 552.3 12.7L522.6 42.3C521.6 43.4 520.4 44.2 519 44.7L510.4 48.2C509.3 48.6 508.2 47.5 508.7 46.4L512.1 37.9C512.6 36.5 513.5 35.2 514.5 34.2ZM408.5 106C408.5 103.7 410.3 101.9 412.5 101.9H415.7C417.6 101.9 419.2 103.2 419.6 105.1L421.6 113.8C422 115.9 420.8 118 418.7 118.6L416.2 119.3C415.1 119.7 414.4 120.8 414.9 121.9C418 129.6 424.2 135.7 431.8 138.9C432.9 139.3 434.1 138.7 434.4 137.6L435.1 135C435.7 133 437.8 131.7 439.9 132.2L448.7 134.1C450.5 134.5 451.9 136.2 451.9 138.1V141.2C451.9 143.5 450 145.3 447.8 145.3H443.7C440.6 145.3 437.6 144.9 434.7 144.1C422.5 140.9 412.9 131.3 409.6 119C408.9 116.2 408.5 113.1 408.5 110V106Z" fill="#0F172A"/>
<path fill-rule="evenodd" clip-rule="evenodd" d="M3.59985 12.8001C3.59985 9.4001 6.29985 6.7001 9.69985 6.7001H46.2999C49.6999 6.7001 52.3999 9.4001 52.3999 12.8001V38.5001C52.3999 41.9001 49.6999 44.6001 46.2999 44.6001H9.69985C6.29985 44.6001 3.59985 41.9001 3.59985 38.5001V12.8001ZM7.59985 28.6001V38.6001C7.59985 39.7001 8.59985 40.6001 9.69985 40.6001H46.2999C47.3999 40.6001 48.2999 39.7001 48.2999 38.6001V31.3001L42.2999 25.3001C41.4999 24.5001 40.1999 24.5001 39.3999 25.3001L34.2999 30.5001L35.4999 31.7001C36.2999 32.5001 36.2999 33.8001 35.4999 34.6001C34.6999 35.4001 33.4999 35.4001 32.6999 34.6001L18.5999 20.5001C17.7999 19.7001 16.4999 19.7001 15.6999 20.5001L7.59985 28.6001ZM30.6999 14.9001C29.1999 14.9001 27.8999 16.1001 27.8999 17.6001C27.8999 19.1001 29.1999 20.3001 30.6999 20.3001C32.1999 20.3001 33.3999 19.1001 33.3999 17.6001C33.3999 16.1001 32.1999 14.9001 30.6999 14.9001ZM212.4 25.8001C212.4 13.8001 222.1 4.1001 234.1 4.1001C246.1 4.1001 255.8 13.8001 255.8 25.8001C255.8 37.7001 246.1 47.5001 234.1 47.5001C222.1 47.5001 212.4 37.7001 212.4 25.8001ZM228.7 19.7001V31.9001C228.7 32.6001 229.1 33.3001 229.8 33.6001C230.4 34.0001 231.2 34.0001 231.8 33.6001L241.3 27.5001C241.9 27.1001 242.3 26.4001 242.3 25.8001C242.3 25.1001 241.9 24.4001 241.3 24.0001L231.8 17.9001C231.2 17.5001 230.4 17.5001 229.8 17.9001C229.1 18.2001 228.7 18.9001 228.7 19.7001ZM140.4 9.5001C141.6 9.5001 142.5 10.4001 142.5 11.5001V40.0001C142.5 41.1001 141.6 42.0001 140.4 42.0001H139.1C138 42.0001 137.1 41.1001 137.1 40.0001V11.5001C137.1 10.4001 138 9.5001 139.1 9.5001H140.4ZM154 9.5001C155.1 9.5001 156 10.4001 156 11.5001V40.0001C156 41.1001 155.1 42.0001 154 42.0001H152.6C151.5 42.0001 150.6 41.1001 150.6 40.0001V11.5001C150.6 10.4001 151.5 9.5001 152.6 9.5001H154ZM130.6 22.3001C133.1 23.9001 133.1 27.6001 130.6 29.2001L113.4 39.8001C110.7 41.5001 107.2 39.5001 107.2 36.4001V15.2001C107.2 12.0001 110.7 10.0001 113.4 11.7001L130.6 22.3001ZM345.3 22.3001C347.8 23.9001 347.8 27.6001 345.3 29.2001L319.9 45.2001C317.2 46.9001 313.7 44.9001 313.7 41.7001V9.8001C313.7 6.6001 317.2 4.6001 319.9 6.3001L345.3 22.3001ZM308.8 221.2C308.8 209.2 318.5 199.5 330.5 199.5C342.5 199.5 352.2 209.2 352.2 221.2C352.2 233.2 342.5 242.9 330.5 242.9C318.5 242.9 308.8 233.2 308.8 221.2ZM332.5 212.4C332.5 211.3 331.6 210.4 330.5 210.4C329.4 210.4 328.4 211.3 328.4 212.4V219.2H321.7C320.5 219.2 319.6 220.1 319.6 221.2C319.6 222.4 320.5 223.3 321.7 223.3H328.4V230C328.4 231.2 329.4 232.1 330.5 232.1C331.6 232.1 332.5 231.2 332.5 230V223.3H339.3C340.4 223.3 341.3 222.4 341.3 221.2C341.3 220.1 340.4 219.2 339.3 219.2H332.5V212.4Z" fill="#0F172A"/>
<path fill-rule="evenodd" clip-rule="evenodd" d="M710.6 308.8C710.6 305.5 713.3 302.8 716.6 302.8H743.6C746.9 302.8 749.6 305.5 749.6 308.8V332.8C749.6 336.1 746.9 338.8 743.6 338.8H716.6C713.3 338.8 710.6 336.1 710.6 332.8V308.8ZM718.6 312.9L722 316.3L718.6 319.8C718 320.4 718 321.3 718.6 321.9C719.2 322.5 720.1 322.5 720.7 321.9L725.2 317.4C725.8 316.8 725.8 315.9 725.2 315.3L720.7 310.8C720.1 310.2 719.2 310.2 718.6 310.8C718 311.4 718 312.3 718.6 312.9ZM727.1 319.3C726.3 319.3 725.6 320 725.6 320.8C725.6 321.7 726.3 322.3 727.1 322.3H733.1C734 322.3 734.6 321.7 734.6 320.8C734.6 320 734 319.3 733.1 319.3H727.1ZM-193.8 12.1001C-193.8 8.8001 -191.1 6.1001 -187.8 6.1001H-160.8C-157.5 6.1001 -154.8 8.8001 -154.8 12.1001V31.6001C-154.8 35.0001 -157.5 37.6001 -160.8 37.6001H-166.8V38.2001C-166.8 39.4001 -166.3 40.5001 -165.5 41.3001L-164.2 42.6001C-163.8 43.0001 -163.7 43.7001 -163.9 44.2001C-164.1 44.8001 -164.7 45.1001 -165.3 45.1001H-183.3C-183.9 45.1001 -184.4 44.8001 -184.7 44.2001C-184.9 43.7001 -184.8 43.0001 -184.3 42.6001L-183.1 41.3001C-182.3 40.5001 -181.8 39.4001 -181.8 38.2001V37.6001H-187.8C-191.1 37.6001 -193.8 35.0001 -193.8 31.6001V12.1001ZM-190.8 12.1001V27.1001C-190.8 28.8001 -189.4 30.1001 -187.8 30.1001H-160.8C-159.1 30.1001 -157.8 28.8001 -157.8 27.1001V12.1001C-157.8 10.5001 -159.1 9.1001 -160.8 9.1001H-187.8C-189.4 9.1001 -190.8 10.5001 -190.8 12.1001ZM-165.3 329.8H-183.3V311.8H-165.3V329.8Z" fill="#0F172A"/>
<path fill-rule="evenodd" clip-rule="evenodd" d="M550.7 320.8C550.7 331.6 541.9 340.3 531.2 340.3C520.4 340.3 511.7 331.6 511.7 320.8C511.7 310.1 520.4 301.3 531.2 301.3C541.9 301.3 550.7 310.1 550.7 320.8ZM528.9 310.3C524.4 310.3 520.7 314 520.7 318.6C520.7 323.1 524.4 326.8 528.9 326.8C530.7 326.8 532.3 326.3 533.6 325.4L537.6 329.4C538.2 330 539.1 330 539.7 329.4C540.3 328.8 540.3 327.9 539.7 327.3L535.7 323.3C536.6 321.9 537.2 320.3 537.2 318.6C537.2 314 533.5 310.3 528.9 310.3ZM449.6 301.3C450.4 301.3 451.1 302 451.1 302.8C451.1 303.7 450.4 304.3 449.6 304.3H448.1V325.3C448.1 328.6 445.4 331.3 442.1 331.3H439.7L442 338.4C442.3 339.1 441.8 340 441.1 340.3C440.3 340.5 439.4 340.1 439.2 339.3L438.5 337.3H421.7L421 339.3C420.7 340.1 419.9 340.5 419.1 340.3C418.3 340 417.9 339.1 418.2 338.4L420.5 331.3H418.1C414.8 331.3 412.1 328.6 412.1 325.3V304.3H410.6C409.7 304.3 409.1 303.7 409.1 302.8C409.1 302 409.7 301.3 410.6 301.3H449.6ZM431.6 314.8C431.6 314 430.9 313.3 430.1 313.3C429.2 313.3 428.6 314 428.6 314.8V322.3C428.6 323.2 429.2 323.8 430.1 323.8C430.9 323.8 431.6 323.2 431.6 322.3V314.8ZM437.6 310.3C437.6 309.5 436.9 308.8 436.1 308.8C435.2 308.8 434.6 309.5 434.6 310.3V322.3C434.6 323.2 435.2 323.8 436.1 323.8C436.9 323.8 437.6 323.2 437.6 322.3V310.3ZM437.5 334.3L436.5 331.3H423.7L422.7 334.3H437.5ZM425.5 319.3C425.5 318.5 424.9 317.8 424 317.8C423.2 317.8 422.5 318.5 422.5 319.3V322.3C422.5 323.2 423.2 323.8 424 323.8C424.9 323.8 425.5 323.2 425.5 322.3V319.3ZM640.7 200.1C642.7 200.1 644.4 201.8 644.4 203.8V209.8C645.267 209.933 646.133 210.067 647 210.2C649.9 210.6 651.9 213.1 651.9 216V228.6C651.9 231.9 649.2 234.6 645.9 234.6H645.4L645.7 238C645.9 240.2 644.2 242.1 642 242.1H622.9C620.7 242.1 619 240.2 619.2 238L619.5 234.6H618.9C615.6 234.6 612.9 231.9 612.9 228.6V216C612.9 213.1 615 210.6 617.9 210.2C618.7 210.067 619.533 209.933 620.4 209.8V203.8C620.4 201.8 622.1 200.1 624.2 200.1H640.7ZM644.4 219.6C645.3 219.6 645.9 218.9 645.9 218.1C645.9 217.3 645.3 216.6 644.4 216.6C643.6 216.6 642.9 217.3 642.9 218.1C642.9 218.9 643.6 219.6 644.4 219.6ZM632.4 225.6C629.533 225.6 626.7 225.733 623.9 226C623.5 226.1 623.2 226.3 623.2 226.7L622.1 238.3C622.1 238.7 622.4 239.1 622.9 239.1H642C642.4 239.1 642.7 238.7 642.7 238.3L641.7 226.7C641.6 226.3 641.3 226.1 641 226C638.2 225.733 635.333 225.6 632.4 225.6ZM641.4 209.5V203.8C641.4 203.4 641.1 203.1 640.7 203.1H624.2C623.8 203.1 623.4 203.4 623.4 203.8V209.5C626.4 209.233 629.4 209.1 632.4 209.1C635.467 209.1 638.467 209.233 641.4 209.5ZM638.4 216.6C637.6 216.6 636.9 217.3 636.9 218.1C636.9 218.9 637.6 219.6 638.4 219.6C639.3 219.6 639.9 218.9 639.9 218.1C639.9 217.3 639.3 216.6 638.4 216.6ZM310.9 323.8C310.9 314.7 318.3 307.3 327.4 307.3C328.2 307.3 328.9 308 328.9 308.8V322.3H342.4C343.2 322.3 343.9 323 343.9 323.8C343.9 332.9 336.5 340.3 327.4 340.3C318.3 340.3 310.9 332.9 310.9 323.8ZM331.9 302.8C331.9 302 332.6 301.3 333.4 301.3C342.5 301.3 349.9 308.7 349.9 317.8C349.9 318.7 349.2 319.3 348.4 319.3H333.4C332.6 319.3 331.9 318.7 331.9 317.8V302.8ZM-54.6 42.5999C-54 43.1999 -54 44.0999 -54.6 44.6999C-55.2 45.2999 -56.1 45.2999 -56.7 44.6999L-92.7 8.6999C-93.3 8.0999 -93.3 7.1999 -92.7 6.5999C-92.1 5.9999 -91.2 5.9999 -90.6 6.5999L-54.6 42.5999ZM-52.7 36.9999C-52.7 37.9999 -53.1 38.6999 -53.7 39.2999L-63.2 29.7999V17.4999L-57.8 12.0999C-55.9 10.2999 -52.7 11.5999 -52.7 14.2999V36.9999ZM-66.2 16.5999V26.6999L-82.3 10.5999H-72.2C-68.8 10.5999 -66.2 13.2999 -66.2 16.5999ZM-94.7 16.5999C-94.7 14.9999 -94.1 13.5999 -93.1 12.4999L-67.4 38.1999C-68.5 39.6999 -70.2 40.5999 -72.2 40.5999H-88.7C-92 40.5999 -94.7 37.8999 -94.7 34.5999V16.5999Z" fill="#0F172A"/>
</g>
</g>
<defs>
<clipPath id="clip0_72_5503">
<rect width="56" height="50" fill="white"/>
</clipPath>
</defs>
</svg>
