<svg width="60" height="60" viewBox="0 0 60 60" fill="none" xmlns="http://www.w3.org/2000/svg">
<path fill-rule="evenodd" clip-rule="evenodd" d="M59.9727 30C59.9727 46.5383 46.5545 59.9443 30 59.9443C13.4454 59.9443 0.0272217 46.5383 0.0272217 30C0.0272217 13.4617 13.4454 0.0556641 30 0.0556641C46.5545 0.0556641 59.9727 13.4617 59.9727 30ZM43.4522 46.5731L24.2999 29.5406C24.0613 29.3318 23.7477 29.2134 23.4272 29.2134H11.9795C10.7727 29.2134 10.2068 30.703 11.1068 31.5035L30.2659 48.5359C30.5045 48.7517 30.8181 48.87 31.1386 48.87H42.5795C43.7931 48.87 44.359 47.3735 43.4522 46.5731ZM46.6704 11.7633L28.2681 16.3573C27.8659 16.4617 27.5318 16.7471 27.375 17.1299L23.9318 25.4339C23.5227 26.4292 24.4227 27.4733 25.4659 27.2088L43.8681 22.6148C44.2704 22.5174 44.6045 22.225 44.7613 21.8422L48.1977 13.5383C48.6136 12.5429 47.7136 11.5058 46.6704 11.7633Z" fill="white"/>
</svg>
