<svg width="150" height="31" viewBox="0 0 150 31" fill="none" xmlns="http://www.w3.org/2000/svg">
<path d="M14.8301 0.5C23.0182 0.5 29.6603 7.22142 29.6603 15.5C29.6603 23.7786 23.0182 30.5 14.8301 30.5C6.64207 30.5 0 23.7786 0 15.5C0 7.22142 6.64207 0.5 14.8301 0.5Z" fill="black"/>
<path d="M13.5321 10.2372C13.6085 10.0401 13.7803 9.90213 13.9711 9.8627L23.0753 7.55653C23.5907 7.41855 24.0488 7.95075 23.8388 8.44352L22.1401 12.6025C22.0638 12.7996 21.892 12.9376 21.7011 12.977L12.5778 15.2832C12.0625 15.4212 11.6235 14.889 11.8335 14.3962L13.5321 10.2372Z" fill="#E6E0E5"/>
<path d="M5.47792 17.4317C5.03893 17.0375 5.32523 16.2885 5.91691 16.2885H11.5856C11.7383 16.2885 11.891 16.3476 12.0055 16.4461L21.4914 24.981C21.9304 25.3752 21.6632 26.1242 21.0524 26.1242H15.3838C15.2311 26.1242 15.0784 26.0651 14.9639 25.9665L5.47792 17.4317Z" fill="#EAE3DA"/>
<path fill-rule="evenodd" clip-rule="evenodd" d="M53.4611 24.6459H48.6513L44.4332 19.0677C44.026 18.4763 43.7079 17.9047 43.4789 17.3528H41.1313V24.6459H37.1995V6.31472H41.1313V13.7063H43.4407C43.657 13.1281 43.9879 12.5434 44.4332 11.952L48.8422 6.31472H53.3084L48.136 13.0361C47.7797 13.5355 47.4998 13.9625 47.2962 14.3173C47.118 14.6853 47.029 15.0401 47.029 15.3817C47.029 15.7234 47.118 16.0782 47.2962 16.4461C47.4998 16.7878 47.7797 17.2083 48.136 17.7076L53.4611 24.6459ZM59.9314 25.0007C58.5571 25.0007 57.3229 24.6787 56.2286 24.0348C55.147 23.3909 54.2882 22.5302 53.6519 21.4527C53.0157 20.362 52.6976 19.1662 52.6976 17.8653C52.6976 16.5512 53.0157 15.362 53.6519 14.2976C54.2882 13.2201 55.1598 12.366 56.2668 11.7352C57.3611 11.0782 58.5826 10.7497 59.9314 10.7497C61.3056 10.7497 62.5335 11.0782 63.615 11.7352C64.7093 12.366 65.5746 13.2267 66.2108 14.3173C66.847 15.3817 67.1651 16.5644 67.1651 17.8653C67.1651 19.1662 66.847 20.362 66.2108 21.4527C65.5746 22.5302 64.7093 23.3909 63.615 24.0348C62.5208 24.6787 61.2929 25.0007 59.9314 25.0007ZM59.9314 21.3738C60.593 21.3738 61.172 21.2162 61.6682 20.9008C62.1899 20.5723 62.5971 20.1452 62.8898 19.6196C63.1951 19.094 63.3478 18.5158 63.3478 17.885C63.3478 17.2543 63.1951 16.6761 62.8898 16.1505C62.5971 15.6117 62.1899 15.1912 61.6682 14.889C61.172 14.5604 60.593 14.3962 59.9314 14.3962C59.2824 14.3962 58.6971 14.5604 58.1754 14.889C57.6664 15.1912 57.2593 15.6117 56.9539 16.1505C56.674 16.6761 56.534 17.2543 56.534 17.885C56.534 18.5158 56.674 19.094 56.9539 19.6196C57.2593 20.1452 57.6664 20.5723 58.1754 20.9008C58.6971 21.2162 59.2824 21.3738 59.9314 21.3738ZM75.6013 14.5342C74.876 14.5342 74.278 14.7181 73.8072 15.0861C73.3491 15.4277 73.0119 15.8876 72.7956 16.4658C72.5793 17.0309 72.4711 17.6682 72.4711 18.3778V24.6459H68.6348V17.9047C68.6348 16.6038 68.8893 15.4146 69.3982 14.3371C69.9199 13.2464 70.6897 12.3857 71.7077 11.7549C72.7383 11.0979 74.0362 10.7694 75.6013 10.7694C77.1537 10.7694 78.4452 11.0979 79.4758 11.7549C80.5192 12.3857 81.3018 13.2398 81.8235 14.3173C82.3452 15.3817 82.606 16.5775 82.606 17.9047V24.6459H78.7696V18.3778C78.7696 17.6813 78.6551 17.044 78.4261 16.4658C78.1971 15.8876 77.8471 15.4277 77.3763 15.0861C76.931 14.7181 76.3393 14.5342 75.6013 14.5342ZM89.9543 25.0204C88.5546 25.0204 87.3649 24.7641 86.3851 24.2516C85.4435 23.726 84.6928 22.9639 84.1329 21.9652L86.9577 20.3686C87.2631 20.9074 87.6385 21.3081 88.0838 21.571C88.5419 21.8075 89.1017 21.9258 89.7634 21.9258C90.1706 21.9258 90.5205 21.8798 90.8132 21.7878C91.1185 21.6695 91.3539 21.5184 91.5194 21.3344C91.6975 21.1373 91.7866 20.9074 91.7866 20.6445C91.7866 20.2766 91.6084 20.0072 91.2522 19.8364C90.8831 19.6656 90.4251 19.521 89.8779 19.4028C89.3308 19.2976 88.7455 19.1728 88.122 19.0283C87.4858 18.8837 86.8941 18.6735 86.3469 18.3975C85.7871 18.1216 85.329 17.7339 84.9727 17.2346C84.6292 16.7089 84.4574 16.0059 84.4574 15.1255C84.4574 14.3108 84.6737 13.5749 85.1063 12.9179C85.5517 12.274 86.1752 11.7615 86.9768 11.3804C87.7912 10.9993 88.7455 10.8088 89.8398 10.8088C90.8068 10.8088 91.6402 10.9402 92.3401 11.203C93.0526 11.479 93.638 11.8338 94.096 12.2674C94.5795 12.701 94.9613 13.1873 95.2412 13.726L92.3973 15.3226C92.2065 14.8364 91.8756 14.475 91.4048 14.2385C90.9595 14.002 90.4632 13.8837 89.9161 13.8837C89.6107 13.8837 89.3371 13.9363 89.0954 14.0414C88.8409 14.1334 88.6437 14.2714 88.5037 14.4553C88.351 14.613 88.2747 14.8101 88.2747 15.0466C88.2747 15.4146 88.4465 15.6971 88.79 15.8942C89.1463 16.0782 89.6044 16.2227 90.1642 16.3279C90.7241 16.433 91.3158 16.5644 91.9393 16.7221C92.5755 16.8666 93.1608 17.0834 93.6952 17.3725C94.2551 17.6353 94.7131 18.023 95.0694 18.5355C95.4257 19.048 95.6039 19.7181 95.6039 20.546C95.6039 21.4658 95.343 22.2608 94.8213 22.931C94.2996 23.5749 93.6125 24.0874 92.76 24.4685C91.8947 24.8364 90.9595 25.0204 89.9543 25.0204ZM104.04 25.0204C102.768 25.0204 101.699 24.7838 100.834 24.3108C99.9937 23.8246 99.3575 23.1544 98.9249 22.3003C98.4923 21.433 98.276 20.4343 98.276 19.3042V14.4159H95.8329V11.1636H98.276V7.71419H102.093V11.1636H106.827V14.4159H102.093V19.1859C102.106 19.935 102.316 20.5197 102.723 20.9402C103.13 21.3607 103.69 21.571 104.403 21.571C104.797 21.571 105.217 21.5118 105.662 21.3936C106.108 21.2884 106.496 21.1242 106.827 20.9008V24.3699C106.483 24.567 106.05 24.7181 105.529 24.8233C105.02 24.9547 104.524 25.0204 104.04 25.0204ZM114.289 25.0007C112.992 25.0007 111.846 24.6787 110.854 24.0348C109.874 23.3909 109.098 22.5302 108.525 21.4527C107.965 20.362 107.686 19.1662 107.686 17.8653C107.686 16.5644 107.997 15.3817 108.621 14.3173C109.27 13.2267 110.135 12.366 111.217 11.7352C112.311 11.0782 113.539 10.7497 114.9 10.7497C116.287 10.7497 117.528 11.065 118.622 11.6958C119.716 12.3134 120.582 13.161 121.218 14.2385C121.841 15.2897 122.153 16.4987 122.153 17.8653V24.6459H118.508V23.0493C118.139 23.5355 117.68 23.9494 117.133 24.2911C116.344 24.7641 115.396 25.0007 114.289 25.0007ZM118.508 23.0493C118.698 22.8127 118.864 22.5631 119.004 22.3003C119.449 21.4461 119.672 20.4934 119.672 19.4422L118.508 19.7576V23.0493ZM114.9 21.3738C115.575 21.3738 116.16 21.2227 116.656 20.9205C117.178 20.592 117.585 20.1649 117.878 19.6393C118.183 19.1137 118.336 18.5289 118.336 17.885C118.336 17.2543 118.183 16.6761 117.878 16.1505C117.585 15.6248 117.178 15.2043 116.656 14.889C116.16 14.5604 115.575 14.3962 114.9 14.3962C114.251 14.3962 113.672 14.5604 113.163 14.889C112.654 15.2043 112.247 15.6248 111.942 16.1505C111.649 16.6761 111.503 17.2543 111.503 17.885C111.503 18.5289 111.649 19.1137 111.942 19.6393C112.247 20.1649 112.654 20.592 113.163 20.9205C113.672 21.2227 114.251 21.3738 114.9 21.3738ZM131.238 14.5342C130.513 14.5342 129.921 14.7181 129.463 15.0861C128.992 15.4277 128.649 15.8876 128.432 16.4658C128.216 17.0309 128.108 17.6682 128.108 18.3778V24.6459H124.272V17.9244C124.272 16.6104 124.526 15.4212 125.035 14.3568C125.557 13.2661 126.327 12.3988 127.345 11.7549C128.375 11.111 129.673 10.7891 131.238 10.7891C132.803 10.7891 134.095 11.111 135.113 11.7549C136.156 12.3988 136.939 13.253 137.46 14.3173C137.982 15.3949 138.243 16.5972 138.243 17.9244V24.6459H134.407V18.3778C134.407 17.6945 134.292 17.0572 134.063 16.4658C133.834 15.8876 133.484 15.4277 133.013 15.0861C132.568 14.7181 131.976 14.5342 131.238 14.5342ZM147.233 25.0204C145.96 25.0204 144.891 24.7838 144.026 24.3108C143.186 23.8246 142.55 23.1544 142.117 22.3003C141.685 21.433 141.468 20.4343 141.468 19.3042V14.4356H139.006V11.1636H141.468V7.7339H145.286V11.1636H150V14.4356H145.286V19.2056C145.286 19.9415 145.496 20.5197 145.916 20.9402C146.323 21.3607 146.876 21.571 147.576 21.571C147.971 21.571 148.397 21.5184 148.855 21.4133C149.3 21.295 149.682 21.1307 150 20.9205V24.3699C149.669 24.567 149.243 24.7247 148.721 24.843C148.212 24.9612 147.716 25.0204 147.233 25.0204Z" fill="black"/>
</svg>
