<svg width="50" height="50" viewBox="0 0 50 50" fill="none" xmlns="http://www.w3.org/2000/svg">
<g clip-path="url(#clip0_70_5433)">
<mask id="mask0_70_5433" style="mask-type:luminance" maskUnits="userSpaceOnUse" x="-515" y="-861" width="1584" height="1224">
<path d="M-515 -861H1069V363H-515V-861Z" fill="white"/>
</mask>
<g mask="url(#mask0_70_5433)">
<path fill-rule="evenodd" clip-rule="evenodd" d="M708.6 13.8001C708.6 10.5001 711.3 7.80008 714.6 7.80008H741.6C744.9 7.80008 747.6 10.5001 747.6 13.8001V37.8001C747.6 41.1001 744.9 43.8001 741.6 43.8001H714.6C711.3 43.8001 708.6 41.1001 708.6 37.8001V13.8001ZM716.6 17.9001L720 21.3001L716.6 24.8001C716 25.4001 716 26.3001 716.6 26.9001C717.2 27.5001 718.1 27.5001 718.7 26.9001L723.2 22.4001C723.8 21.8001 723.8 20.9001 723.2 20.3001L718.7 15.8001C718.1 15.2001 717.2 15.2001 716.6 15.8001C716 16.4001 716 17.3001 716.6 17.9001ZM725.1 24.3001C724.3 24.3001 723.6 25.0001 723.6 25.8001C723.6 26.7001 724.3 27.3001 725.1 27.3001H731.1C732 27.3001 732.6 26.7001 732.6 25.8001C732.6 25.0001 732 24.3001 731.1 24.3001H725.1ZM-195.8 -282.9C-195.8 -286.2 -193.1 -288.9 -189.8 -288.9H-162.8C-159.5 -288.9 -156.8 -286.2 -156.8 -282.9V-263.4C-156.8 -260 -159.5 -257.4 -162.8 -257.4H-168.8V-256.8C-168.8 -255.6 -168.3 -254.5 -167.5 -253.7L-166.2 -252.4C-165.8 -252 -165.7 -251.3 -165.9 -250.8C-166.1 -250.2 -166.7 -249.9 -167.3 -249.9H-185.3C-185.9 -249.9 -186.4 -250.2 -186.7 -250.8C-186.9 -251.3 -186.8 -252 -186.3 -252.4L-185.1 -253.7C-184.3 -254.5 -183.8 -255.6 -183.8 -256.8V-257.4H-189.8C-193.1 -257.4 -195.8 -260 -195.8 -263.4V-282.9ZM-192.8 -282.9V-267.9C-192.8 -266.2 -191.4 -264.9 -189.8 -264.9H-162.8C-161.1 -264.9 -159.8 -266.2 -159.8 -267.9V-282.9C-159.8 -284.5 -161.1 -285.9 -162.8 -285.9H-189.8C-191.4 -285.9 -192.8 -284.5 -192.8 -282.9ZM-167.3 34.8001H-185.3V16.8001H-167.3V34.8001Z" fill="#0F172A"/>
<path fill-rule="evenodd" clip-rule="evenodd" d="M-54.6 36.3001C-54.6 39.6001 -57.3 42.3001 -60.6 42.3001H-90.6C-93.9 42.3001 -96.6 39.6001 -96.6 36.3001V21.3001H-54.6V36.3001ZM-89.1 30.3001H-77.1C-76.3 30.3001 -75.6 29.7001 -75.6 28.8001C-75.6 28.0001 -76.3 27.3001 -77.1 27.3001H-89.1C-89.9 27.3001 -90.6 28.0001 -90.6 28.8001C-90.6 29.7001 -89.9 30.3001 -89.1 30.3001ZM-89.1 33.3001C-89.9 33.3001 -90.6 34.0001 -90.6 34.8001C-90.6 35.7001 -89.9 36.3001 -89.1 36.3001H-83.1C-82.3 36.3001 -81.6 35.7001 -81.6 34.8001C-81.6 34.0001 -82.3 33.3001 -83.1 33.3001H-89.1ZM-189 -94.8999H-182.3C-178.1 -94.8999 -174.8 -91.5999 -174.8 -87.3999V-83.6999C-174.8 -81.5999 -173.1 -79.8999 -171 -79.8999H-167.3C-163.1 -79.8999 -159.8 -76.5999 -159.8 -72.3999V-56.6999C-159.8 -54.5999 -161.5 -52.8999 -163.5 -52.8999H-189C-191.1 -52.8999 -192.8 -54.5999 -192.8 -56.6999V-91.1999C-192.8 -93.1999 -191.1 -94.8999 -189 -94.8999ZM-177.8 -67.8999V-61.8999C-177.8 -61.0999 -177.1 -60.3999 -176.3 -60.3999C-175.5 -60.3999 -174.8 -61.0999 -174.8 -61.8999V-67.8999C-174.8 -68.6999 -175.5 -69.3999 -176.3 -69.3999C-177.1 -69.3999 -177.8 -68.6999 -177.8 -67.8999ZM-180.8 -63.3999C-180.8 -64.1999 -181.5 -64.8999 -182.3 -64.8999C-183.1 -64.8999 -183.8 -64.1999 -183.8 -63.3999V-61.8999C-183.8 -61.0999 -183.1 -60.3999 -182.3 -60.3999C-181.5 -60.3999 -180.8 -61.0999 -180.8 -61.8999V-63.3999ZM-168.8 -72.3999C-168.8 -73.1999 -169.5 -73.8999 -170.3 -73.8999C-171.1 -73.8999 -171.8 -73.1999 -171.8 -72.3999V-61.8999C-171.8 -61.0999 -171.1 -60.3999 -170.3 -60.3999C-169.5 -60.3999 -168.8 -61.0999 -168.8 -61.8999V-72.3999ZM-171.8 -87.3999C-171.8 -89.9999 -172.8 -92.3999 -174.3 -94.2999C-167.5 -92.4999 -162.2 -87.1999 -160.4 -80.3999C-162.3 -81.9999 -164.7 -82.8999 -167.3 -82.8999H-171C-171.5 -82.8999 -171.8 -83.2999 -171.8 -83.6999V-87.3999ZM27.5 -87.3999V-83.5999C27.5 -81.4999 29.2 -79.8999 31.2 -79.8999H35C39.1 -79.8999 42.5 -76.4999 42.5 -72.3999V-56.5999C42.5 -54.4999 40.8 -52.8999 38.7 -52.8999H13.2C11.2 -52.8999 9.49995 -54.4999 9.49995 -56.5999V-91.0999C9.49995 -93.1999 11.2 -94.8999 13.2 -94.8999H20C24.1 -94.8999 27.5 -91.4999 27.5 -87.3999ZM33.2 -72.9999C33.7 -73.6999 33.5 -74.5999 32.9 -75.0999C32.2 -75.5999 31.3 -75.3999 30.8 -74.6999L24.3 -65.6999L21.1 -68.8999C20.5 -69.4999 19.5 -69.4999 18.8999 -68.8999C18.2999 -68.2999 18.2999 -67.3999 18.8999 -66.7999L23.3999 -62.2999C23.7 -61.9999 24.2 -61.7999 24.6 -61.8999C25.1 -61.8999 25.5 -62.0999 25.7 -62.4999L33.2 -72.9999ZM41.9 -80.2999C40 -81.8999 37.6 -82.8999 35 -82.8999H31.2C30.8 -82.8999 30.5 -83.1999 30.5 -83.5999V-87.3999C30.5 -89.9999 29.5 -92.3999 27.8999 -94.1999C34.7 -92.4999 40.1 -87.0999 41.9 -80.2999ZM-80.1 -68.5999C-80.1 -70.6999 -78.4 -72.3999 -76.4 -72.3999C-74.3 -72.3999 -72.6 -70.6999 -72.6 -68.5999C-72.6 -66.4999 -74.3 -64.8999 -76.4 -64.8999C-78.4 -64.8999 -80.1 -66.4999 -80.1 -68.5999Z" fill="#0F172A"/>
<path fill-rule="evenodd" clip-rule="evenodd" d="M-88.4001 -94.8999H-81.6001C-77.5001 -94.8999 -74.1001 -91.5999 -74.1001 -87.3999V-83.6999C-74.1001 -81.5999 -72.4001 -79.8999 -70.4001 -79.8999H-66.6001C-62.5001 -79.8999 -59.1001 -76.5999 -59.1001 -72.3999V-56.6999C-59.1001 -54.5999 -60.8001 -52.8999 -62.9001 -52.8999H-88.4001C-90.4001 -52.8999 -92.1001 -54.5999 -92.1001 -56.6999V-91.1999C-92.1001 -93.1999 -90.4001 -94.8999 -88.4001 -94.8999ZM-76.4001 -61.8999C-75.0001 -61.8999 -73.8001 -62.2999 -72.8001 -62.9999L-70.7001 -60.8999C-70.1001 -60.2999 -69.1001 -60.2999 -68.6001 -60.8999C-68.0001 -61.3999 -68.0001 -62.3999 -68.6001 -62.9999L-70.7001 -65.0999C-70.0001 -66.0999 -69.6001 -67.2999 -69.6001 -68.6999C-69.6001 -72.3999 -72.6001 -75.3999 -76.4001 -75.3999C-80.1001 -75.3999 -83.1001 -72.3999 -83.1001 -68.6999C-83.1001 -64.8999 -80.1001 -61.8999 -76.4001 -61.8999ZM-71.1001 -87.3999C-71.1001 -89.9999 -72.1001 -92.3999 -73.7001 -94.2999C-66.9001 -92.4999 -61.5001 -87.1999 -59.7001 -80.3999C-61.6001 -81.9999 -64.0001 -82.8999 -66.6001 -82.8999H-70.4001C-70.8001 -82.8999 -71.1001 -83.2999 -71.1001 -83.6999V-87.3999ZM114.7 -53.1999C111.4 -53.1999 108.7 -55.8999 108.7 -59.1999V-75.4999L122.4 -67.4999L115.5 -63.6999C114.7 -63.2999 114.5 -62.3999 114.9 -61.6999C115.2 -60.9999 116.2 -60.6999 116.9 -61.0999L128.3 -67.1999C129.1 -67.6999 130.2 -67.6999 131.1 -67.1999L142.5 -61.0999C143.2 -60.6999 144.1 -60.9999 144.5 -61.6999C144.9 -62.3999 144.6 -63.2999 143.9 -63.6999L136.9 -67.4999L150.7 -75.4999V-59.1999C150.7 -55.8999 148 -53.1999 144.7 -53.1999H114.7ZM108.7 -78.9999V-80.4999C108.7 -82.6999 109.9 -84.6999 111.8 -85.7999L126.8 -93.7999C128.6 -94.7999 130.7 -94.7999 132.5 -93.7999L147.5 -85.7999C149.5 -84.6999 150.7 -82.6999 150.7 -80.4999V-78.9999L133.8 -69.0999L132.5 -69.7999C130.7 -70.7999 128.6 -70.7999 126.8 -69.7999L125.5 -69.0999L108.7 -78.9999ZM229.2 37.8001C229.2 36.2001 230.6 34.8001 232.2 34.8001C233.9 34.8001 235.2 36.2001 235.2 37.8001C235.2 39.5001 233.9 40.8001 232.2 40.8001C230.6 40.8001 229.2 39.5001 229.2 37.8001ZM229.2 25.8001C229.2 24.2001 230.6 22.8001 232.2 22.8001C233.9 22.8001 235.2 24.2001 235.2 25.8001C235.2 27.5001 233.9 28.8001 232.2 28.8001C230.6 28.8001 229.2 27.5001 229.2 25.8001ZM229.2 13.8001C229.2 12.2001 230.6 10.8001 232.2 10.8001C233.9 10.8001 235.2 12.2001 235.2 13.8001C235.2 15.5001 233.9 16.8001 232.2 16.8001C230.6 16.8001 229.2 15.5001 229.2 13.8001ZM126.6 30.2001C128.5 31.3001 130.9 31.3001 132.9 30.2001L150.7 19.2001V36.3001C150.7 39.6001 148 42.3001 144.7 42.3001H114.7C111.4 42.3001 108.7 39.6001 108.7 36.3001V19.2001L126.6 30.2001ZM131.3 27.6001C130.4 28.2001 129.2 28.2001 128.2 27.6001L108.8 15.7001V15.3001C108.8 12.0001 111.5 9.3001 114.8 9.3001H144.8C148.1 9.3001 150.8 12.0001 150.8 15.3001V15.7001L131.3 27.6001ZM17.3999 36.3001C17.3999 35.5001 18.0999 34.8001 18.8999 34.8001H42.8999C43.6999 34.8001 44.3999 35.5001 44.3999 36.3001C44.3999 37.1001 43.6999 37.8001 42.8999 37.8001H18.8999C18.0999 37.8001 17.3999 37.1001 17.3999 36.3001ZM7.5999 36.3001C7.5999 35.0001 8.5999 34.0001 9.8999 34.0001C11.0999 34.0001 12.0999 35.0001 12.0999 36.3001C12.0999 37.5001 11.0999 38.5001 9.8999 38.5001C8.5999 38.5001 7.5999 37.5001 7.5999 36.3001ZM17.3999 25.8001C17.3999 25.0001 18.0999 24.3001 18.8999 24.3001H42.8999C43.6999 24.3001 44.3999 25.0001 44.3999 25.8001C44.3999 26.6001 43.6999 27.3001 42.8999 27.3001H18.8999C18.0999 27.3001 17.3999 26.6001 17.3999 25.8001ZM7.5999 25.8001C7.5999 24.5001 8.5999 23.5001 9.8999 23.5001C11.0999 23.5001 12.0999 24.5001 12.0999 25.8001C12.0999 27.0001 11.0999 28.0001 9.8999 28.0001C8.5999 28.0001 7.5999 27.0001 7.5999 25.8001ZM17.3999 15.3001C17.3999 14.5001 18.0999 13.8001 18.8999 13.8001H42.8999C43.6999 13.8001 44.3999 14.5001 44.3999 15.3001C44.3999 16.1001 43.6999 16.8001 42.8999 16.8001H18.8999C18.0999 16.8001 17.3999 16.1001 17.3999 15.3001ZM7.5999 15.3001C7.5999 14.0001 8.5999 13.0001 9.8999 13.0001C11.0999 13.0001 12.0999 14.0001 12.0999 15.3001C12.0999 16.5001 11.0999 17.5001 9.8999 17.5001C8.5999 17.5001 7.5999 16.5001 7.5999 15.3001ZM521.7 23.5001C521.7 20.6001 524 18.3001 526.9 18.3001C529.8 18.3001 532.2 20.6001 532.2 23.5001C532.2 25.0001 531.6 26.3001 530.7 27.3001C529.7 28.2001 528.4 28.8001 526.9 28.8001C524 28.8001 521.7 26.4001 521.7 23.5001Z" fill="#0F172A"/>
<path fill-rule="evenodd" clip-rule="evenodd" d="M548.7 25.7999C548.7 36.5999 539.9 45.2999 529.2 45.2999C518.4 45.2999 509.7 36.5999 509.7 25.7999C509.7 15.0999 518.4 6.2999 529.2 6.2999C539.9 6.2999 548.7 15.0999 548.7 25.7999ZM526.9 15.2999C522.4 15.2999 518.7 18.9999 518.7 23.5999C518.7 28.0999 522.4 31.7999 526.9 31.7999C528.7 31.7999 530.3 31.2999 531.6 30.3999L535.6 34.3999C536.2 34.9999 537.1 34.9999 537.7 34.3999C538.3 33.7999 538.3 32.8999 537.7 32.2999L533.7 28.2999C534.6 26.8999 535.2 25.2999 535.2 23.5999C535.2 18.9999 531.5 15.2999 526.9 15.2999ZM447.6 6.2999C448.4 6.2999 449.1 6.99991 449.1 7.7999C449.1 8.69989 448.4 9.2999 447.6 9.2999H446.1V30.2999C446.1 33.5999 443.4 36.2999 440.1 36.2999H437.7L440 43.3999C440.3 44.0999 439.8 44.9999 439.1 45.2999C438.3 45.4999 437.4 45.0999 437.2 44.2999L436.5 42.2999H419.7L419 44.2999C418.7 45.0999 417.9 45.4999 417.1 45.2999C416.3 44.9999 415.9 44.0999 416.2 43.3999L418.5 36.2999H416.1C412.8 36.2999 410.1 33.5999 410.1 30.2999V9.2999H408.6C407.7 9.2999 407.1 8.69989 407.1 7.7999C407.1 6.99991 407.7 6.2999 408.6 6.2999H447.6ZM429.6 19.7999C429.6 18.9999 428.9 18.2999 428.1 18.2999C427.2 18.2999 426.6 18.9999 426.6 19.7999V27.2999C426.6 28.1999 427.2 28.7999 428.1 28.7999C428.9 28.7999 429.6 28.1999 429.6 27.2999V19.7999ZM435.6 15.2999C435.6 14.4999 434.9 13.7999 434.1 13.7999C433.2 13.7999 432.6 14.4999 432.6 15.2999V27.2999C432.6 28.1999 433.2 28.7999 434.1 28.7999C434.9 28.7999 435.6 28.1999 435.6 27.2999V15.2999ZM435.5 39.2999L434.5 36.2999H421.7L420.7 39.2999H435.5ZM423.5 24.2999C423.5 23.4999 422.9 22.7999 422 22.7999C421.2 22.7999 420.5 23.4999 420.5 24.2999V27.2999C420.5 28.1999 421.2 28.7999 422 28.7999C422.9 28.7999 423.5 28.1999 423.5 27.2999V24.2999ZM638.7 -94.9001C640.7 -94.9001 642.4 -93.2001 642.4 -91.2001V-85.2001C643.267 -85.0668 644.133 -84.9334 645 -84.8001C647.9 -84.4001 649.9 -81.9001 649.9 -79.0001V-66.4001C649.9 -63.1001 647.2 -60.4001 643.9 -60.4001H643.4L643.7 -57.0001C643.9 -54.8001 642.2 -52.9001 640 -52.9001H620.9C618.7 -52.9001 617 -54.8001 617.2 -57.0001L617.5 -60.4001H616.9C613.6 -60.4001 610.9 -63.1001 610.9 -66.4001V-79.0001C610.9 -81.9001 613 -84.4001 615.9 -84.8001C616.7 -84.9334 617.533 -85.0668 618.4 -85.2001V-91.2001C618.4 -93.2001 620.1 -94.9001 622.2 -94.9001H638.7ZM642.4 -75.4001C643.3 -75.4001 643.9 -76.1001 643.9 -76.9001C643.9 -77.7001 643.3 -78.4001 642.4 -78.4001C641.6 -78.4001 640.9 -77.7001 640.9 -76.9001C640.9 -76.1001 641.6 -75.4001 642.4 -75.4001ZM630.4 -69.4001C627.533 -69.4001 624.7 -69.2668 621.9 -69.0001C621.5 -68.9001 621.2 -68.7001 621.2 -68.3001L620.1 -56.7001C620.1 -56.3001 620.4 -55.9001 620.9 -55.9001H640C640.4 -55.9001 640.7 -56.3001 640.7 -56.7001L639.7 -68.3001C639.6 -68.7001 639.3 -68.9001 639 -69.0001C636.2 -69.2668 633.333 -69.4001 630.4 -69.4001ZM639.4 -85.5001V-91.2001C639.4 -91.6001 639.1 -91.9001 638.7 -91.9001H622.2C621.8 -91.9001 621.4 -91.6001 621.4 -91.2001V-85.5001C624.4 -85.7668 627.4 -85.9001 630.4 -85.9001C633.467 -85.9001 636.467 -85.7668 639.4 -85.5001ZM636.4 -78.4001C635.6 -78.4001 634.9 -77.7001 634.9 -76.9001C634.9 -76.1001 635.6 -75.4001 636.4 -75.4001C637.3 -75.4001 637.9 -76.1001 637.9 -76.9001C637.9 -77.7001 637.3 -78.4001 636.4 -78.4001ZM308.9 28.7999C308.9 19.6999 316.3 12.2999 325.4 12.2999C326.2 12.2999 326.9 12.9999 326.9 13.7999V27.2999H340.4C341.2 27.2999 341.9 27.9999 341.9 28.7999C341.9 37.8999 334.5 45.2999 325.4 45.2999C316.3 45.2999 308.9 37.8999 308.9 28.7999ZM329.9 7.7999C329.9 6.99991 330.6 6.2999 331.4 6.2999C340.5 6.2999 347.9 13.6999 347.9 22.7999C347.9 23.6999 347.2 24.2999 346.4 24.2999H331.4C330.6 24.2999 329.9 23.6999 329.9 22.7999V7.7999ZM-56.6 -252.4C-56 -251.8 -56 -250.9 -56.6 -250.3C-57.2 -249.7 -58.1 -249.7 -58.7 -250.3L-94.7 -286.3C-95.3 -286.9 -95.3 -287.8 -94.7 -288.4C-94.1 -289 -93.2 -289 -92.6 -288.4L-56.6 -252.4ZM-54.7 -258C-54.7 -257 -55.1 -256.3 -55.7 -255.7L-65.2 -265.2V-277.5L-59.8 -282.9C-57.9 -284.7 -54.7 -283.4 -54.7 -280.7V-258ZM-68.2 -278.4V-268.3L-84.3 -284.4H-74.2C-70.8 -284.4 -68.2 -281.7 -68.2 -278.4ZM-96.7 -278.4C-96.7 -280 -96.1 -281.4 -95.1 -282.5L-69.4 -256.8C-70.5 -255.3 -72.2 -254.4 -74.2 -254.4H-90.7C-94 -254.4 -96.7 -257.1 -96.7 -260.4V-278.4Z" fill="#0F172A"/>
</g>
</g>
<defs>
<clipPath id="clip0_70_5433">
<rect width="50" height="50" fill="white"/>
</clipPath>
</defs>
</svg>
