<svg width="50" height="50" viewBox="0 0 50 50" fill="none" xmlns="http://www.w3.org/2000/svg">
<g clip-path="url(#clip0_70_5426)">
<mask id="mask0_70_5426" style="mask-type:luminance" maskUnits="userSpaceOnUse" x="-619" y="-762" width="1584" height="1224">
<path d="M-619 -762H965V462H-619V-762Z" fill="white"/>
</mask>
<g mask="url(#mask0_70_5426)">
<path fill-rule="evenodd" clip-rule="evenodd" d="M-65.0002 -59.4C-65.8002 -58.6 -67.1001 -58.6 -67.9001 -59.4L-87.5002 -79V-63.5C-87.5002 -62.4 -88.4001 -61.5 -89.5002 -61.5C-90.7001 -61.5 -91.6002 -62.4 -91.6002 -63.5V-83.9C-91.6002 -85 -90.7001 -85.9 -89.5002 -85.9H-69.2001C-68.1001 -85.9 -67.2001 -85 -67.2001 -83.9C-67.2001 -82.8 -68.1001 -81.9 -69.2001 -81.9H-84.6002L-65.0002 -62.3C-64.2001 -61.5 -64.2001 -60.2 -65.0002 -59.4ZM106.5 25.1C106.5 13.1 116.2 3.39999 128.2 3.39999C140.2 3.39999 149.9 13.1 149.9 25.1C149.9 37.1 140.2 46.8 128.2 46.8C116.2 46.8 106.5 37.1 106.5 25.1ZM126.1 33.9C126.1 35 127 35.9 128.2 35.9C129.3 35.9 130.2 35 130.2 33.9V21.5L135.5 27.1C136.3 28 137.5 28 138.4 27.3C139.2 26.5 139.2 25.2 138.5 24.4L129.7 14.9C129.3 14.5 128.7 14.2 128.2 14.2C127.6 14.2 127.1 14.5 126.7 14.9L117.9 24.4C117.1 25.2 117.1 26.5 118 27.3C118.8 28 120.1 28 120.8 27.1L126.1 21.5V33.9ZM-266.7 -72.4C-266.7 -71.3 -267.6 -70.4 -268.8 -70.4H-286.8L-280.9 -65.1C-280.1 -64.3 -280.1 -63 -280.9 -62.2C-281.6 -61.4 -282.9 -61.3 -283.7 -62.1L-293.2 -70.9C-293.6 -71.3 -293.9 -71.9 -293.9 -72.4C-293.9 -73 -293.6 -73.5 -293.2 -73.9L-283.7 -82.7C-282.9 -83.5 -281.6 -83.4 -280.9 -82.6C-280.1 -81.8 -280.1 -80.5 -280.9 -79.8L-286.8 -74.4H-268.8C-267.6 -74.4 -266.7 -73.5 -266.7 -72.4ZM308.5 14.2C307.3 14.2 306.4 15.1 306.4 16.2V39.3C306.4 40.4 307.3 41.3 308.5 41.3H331.6C332.7 41.3 333.6 40.4 333.6 39.3V28.4C333.6 27.3 334.5 26.4 335.6 26.4C336.8 26.4 337.7 27.3 337.7 28.4V39.3C337.7 42.7 334.9 45.4 331.6 45.4H308.5C305.1 45.4 302.3 42.7 302.3 39.3V16.2C302.3 12.8 305.1 10.1 308.5 10.1H322C323.2 10.1 324.1 11 324.1 12.1C324.1 13.3 323.2 14.2 322 14.2H308.5ZM314 31L338.6 8.7H331.6C330.5 8.7 329.6 7.8 329.6 6.7C329.6 5.59999 330.5 4.7 331.6 4.7H343.9C345 4.7 345.9 5.59999 345.9 6.7V18.9C345.9 20 345 21 343.9 21C342.7 21 341.8 20 341.8 18.9V11.3L316.7 34C315.9 34.8 314.6 34.7 313.8 33.9C313.1 33 313.1 31.8 314 31ZM-193.1 -72.4C-193.1 -73.5 -192.2 -74.4 -191.1 -74.4H-173L-178.9 -79.8C-179.7 -80.5 -179.7 -81.8 -179 -82.6C-178.2 -83.4 -176.9 -83.5 -176.1 -82.7L-166.6 -73.9C-166.2 -73.5 -166 -73 -166 -72.4C-166 -71.9 -166.2 -71.3 -166.6 -70.9L-176.1 -62.1C-176.9 -61.3 -178.2 -61.4 -179 -62.2C-179.7 -63 -179.7 -64.3 -178.9 -65.1L-173 -70.4H-191.1C-192.2 -70.4 -193.1 -71.3 -193.1 -72.4ZM21.0999 -66.4C21.8998 -65.6 21.8998 -64.3 21.0999 -63.5C20.2999 -62.7 18.9998 -62.7 18.1999 -63.5L13.5999 -68.1C13.7332 -65.2333 13.9665 -62.3667 14.2998 -59.5C14.3998 -58.7 15.0999 -58 15.9998 -57.9C19.1999 -57.6333 22.4665 -57.5 25.7998 -57.5C29.0665 -57.5 32.2998 -57.6333 35.4998 -57.9C36.3998 -58 37.0999 -58.7 37.1999 -59.5C37.3999 -60.9 37.5332 -62.3333 37.5999 -63.8C37.6999 -64.9 38.6998 -65.7 39.7998 -65.6C40.8998 -65.5 41.7999 -64.6 41.6999 -63.4C41.5665 -61.9333 41.3999 -60.5 41.1999 -59.1C40.8999 -56.3 38.6998 -54.1 35.8998 -53.9C32.5665 -53.5667 29.1998 -53.4 25.7998 -53.4C22.3332 -53.4 18.9332 -53.5667 15.5999 -53.9C12.7999 -54.1 10.5998 -56.3 10.2998 -59.1C9.89984 -62.1 9.66653 -65.1333 9.59985 -68.2L4.79984 -63.5C3.99985 -62.7 2.69986 -62.7 1.99985 -63.5C1.19986 -64.3 1.19986 -65.6 1.99985 -66.4L10.0999 -74.5C10.8998 -75.3 12.1999 -75.3 12.9998 -74.5L21.0999 -66.4ZM15.9998 -86.9C15.0999 -86.8 14.3998 -86.2 14.2998 -85.3C14.0998 -83.9 13.9665 -82.5 13.8998 -81.1C13.7998 -80 12.7999 -79.1 11.6999 -79.2C10.5999 -79.3 9.69983 -80.3 9.79984 -81.4C9.93317 -82.8667 10.0665 -84.3333 10.1999 -85.8C10.5999 -88.6 12.7999 -90.7 15.5999 -91C18.9332 -91.2667 22.2999 -91.4 25.6999 -91.4C29.1665 -91.4 32.5665 -91.2667 35.8998 -91C38.6998 -90.7 40.8999 -88.6 41.1999 -85.8C41.5999 -82.7333 41.8332 -79.6667 41.8998 -76.6L46.6999 -81.3C47.4998 -82.1 48.7998 -82.1 49.4998 -81.3C50.2998 -80.5 50.2998 -79.3 49.4998 -78.5L41.3998 -70.3C40.5999 -69.5 39.2998 -69.5 38.4998 -70.3L30.3998 -78.5C29.5999 -79.3 29.5999 -80.5 30.3998 -81.3C31.1998 -82.1 32.4998 -82.1 33.2998 -81.3L37.8998 -76.8C37.7665 -79.6667 37.5332 -82.5 37.1999 -85.3C37.0999 -86.2 36.3998 -86.8 35.4998 -86.9C32.2998 -87.2333 29.0332 -87.4 25.6999 -87.4C22.4332 -87.4 19.1999 -87.2333 15.9998 -86.9ZM219.5 -83C216.8 -83 214.6 -85.2 214.6 -87.9C214.6 -90.7 216.8 -92.9 219.5 -92.9C222.3 -92.9 224.5 -90.7 224.5 -87.9C224.5 -85.2 222.3 -83 219.5 -83ZM228.8 -86.1C227.8 -86.1 227 -86.9 227 -87.9C227 -89 227.8 -89.8 228.8 -89.8H242.4C243.5 -89.8 244.3 -89 244.3 -87.9C244.3 -86.9 243.5 -86.1 242.4 -86.1H228.8ZM212.1 -87.9C212.1 -86.9 211.3 -86.1 210.3 -86.1H206.6C205.5 -86.1 204.7 -86.9 204.7 -87.9C204.7 -88.9 205.5 -89.8 206.6 -89.8H210.3C211.3 -89.8 212.1 -88.9 212.1 -87.9ZM206.6 -55.1C205.5 -55.1 204.7 -55.9 204.7 -57C204.7 -58 205.5 -58.8 206.6 -58.8H210.3C211.3 -58.8 212.1 -58 212.1 -57C212.1 -55.9 211.3 -55.1 210.3 -55.1H206.6ZM228.9 -55.1C227.8 -55.1 227 -55.9 227 -57C227 -58 227.8 -58.8 228.9 -58.8H242.5C243.5 -58.8 244.3 -58 244.3 -57C244.3 -55.9 243.5 -55.1 242.5 -55.1H228.9ZM222.1 -72.4C222.1 -71.4 221.2 -70.6 220.2 -70.6H206.6C205.6 -70.6 204.7 -71.4 204.7 -72.4C204.7 -73.5 205.6 -74.3 206.6 -74.3H220.2C221.2 -74.3 222.1 -73.5 222.1 -72.4ZM238.8 -70.6C237.8 -70.6 236.9 -71.4 236.9 -72.4C236.9 -73.5 237.8 -74.3 238.8 -74.3H242.5C243.5 -74.3 244.4 -73.5 244.4 -72.4C244.4 -71.4 243.5 -70.6 242.5 -70.6H238.8ZM229.5 -67.5C226.8 -67.5 224.6 -69.7 224.6 -72.4C224.6 -75.2 226.8 -77.4 229.5 -77.4C232.3 -77.4 234.5 -75.2 234.5 -72.4C234.5 -69.7 232.3 -67.5 229.5 -67.5ZM219.6 -52C216.9 -52 214.7 -54.2 214.7 -57C214.7 -59.7 216.9 -61.9 219.6 -61.9C222.3 -61.9 224.6 -59.7 224.6 -57C224.6 -54.2 222.3 -52 219.6 -52ZM614.8 -189.4C615.9 -189.4 616.8 -188.5 616.8 -187.4V-153.5C616.8 -152.4 615.9 -151.5 614.8 -151.5H610.7C609.6 -151.5 608.7 -152.4 608.7 -153.5V-187.4C608.7 -188.5 609.6 -189.4 610.7 -189.4H614.8ZM633.8 -189.4C634.9 -189.4 635.9 -188.5 635.9 -187.4V-153.5C635.9 -152.4 634.9 -151.5 633.8 -151.5H629.8C628.6 -151.5 627.7 -152.4 627.7 -153.5V-187.4C627.7 -188.5 628.6 -189.4 629.8 -189.4H633.8ZM514 -159.7L517.4 -168.2C518 -169.6 518.8 -170.8 519.8 -171.9L538.6 -190.6C540.8 -192.9 544.5 -192.9 546.7 -190.6C549 -188.4 549 -184.7 546.7 -182.5L528 -163.7C526.9 -162.7 525.7 -161.9 524.3 -161.3L515.8 -157.9C514.7 -157.4 513.6 -158.5 514 -159.7ZM508.8 -156C508.8 -154.2 510.3 -152.6 512.1 -152.6H537.9C539.8 -152.6 541.3 -154.2 541.3 -156V-170.3C541.3 -171.4 542.2 -172.3 543.3 -172.3C544.5 -172.3 545.4 -171.4 545.4 -170.3V-156C545.4 -151.9 542 -148.6 537.9 -148.6H512.1C508 -148.6 504.7 -151.9 504.7 -156V-181.8C504.7 -185.9 508 -189.3 512.1 -189.3H526.4C527.5 -189.3 528.4 -188.4 528.4 -187.2C528.4 -186.1 527.5 -185.2 526.4 -185.2H512.1C510.3 -185.2 508.8 -183.7 508.8 -181.8V-156ZM408.5 -161.8L438.1 -191.4C440.4 -193.7 444 -193.7 446.3 -191.4C448.5 -189.2 448.5 -185.5 446.3 -183.3L416.6 -153.7C415.6 -152.6 414.4 -151.8 413 -151.3L404.4 -147.8C403.3 -147.4 402.2 -148.5 402.7 -149.6L406.1 -158.1C406.6 -159.5 407.5 -160.8 408.5 -161.8ZM302.5 -90C302.5 -92.3 304.3 -94.1 306.5 -94.1H309.7C311.6 -94.1 313.2 -92.8 313.6 -90.9L315.6 -82.2C316 -80.1 314.8 -78 312.7 -77.4L310.2 -76.7C309.1 -76.3 308.4 -75.2 308.9 -74.1C312 -66.4 318.2 -60.3 325.8 -57.1C326.9 -56.7 328.1 -57.3 328.4 -58.4L329.1 -61C329.7 -63 331.8 -64.3 333.9 -63.8L342.7 -61.9C344.5 -61.5 345.9 -59.8 345.9 -57.9V-54.8C345.9 -52.5 344 -50.7 341.8 -50.7H337.7C334.6 -50.7 331.6 -51.1 328.7 -51.9C316.5 -55.1 306.9 -64.7 303.6 -77C302.9 -79.8 302.5 -82.9 302.5 -86V-90Z" fill="#0F172A"/>
<path fill-rule="evenodd" clip-rule="evenodd" d="M-102.4 -183.2C-102.4 -186.6 -99.7001 -189.3 -96.3001 -189.3H-59.7001C-56.3001 -189.3 -53.6001 -186.6 -53.6001 -183.2V-157.5C-53.6001 -154.1 -56.3001 -151.4 -59.7001 -151.4H-96.3001C-99.7001 -151.4 -102.4 -154.1 -102.4 -157.5V-183.2ZM-98.4001 -167.4V-157.4C-98.4001 -156.3 -97.4001 -155.4 -96.3001 -155.4H-59.7001C-58.6001 -155.4 -57.7001 -156.3 -57.7001 -157.4V-164.7L-63.7001 -170.7C-64.5001 -171.5 -65.8001 -171.5 -66.6001 -170.7L-71.7001 -165.5L-70.5001 -164.3C-69.7001 -163.5 -69.7001 -162.2 -70.5001 -161.4C-71.3001 -160.6 -72.5001 -160.6 -73.3001 -161.4L-87.4001 -175.5C-88.2001 -176.3 -89.5001 -176.3 -90.3001 -175.5L-98.4001 -167.4ZM-75.3001 -181.1C-76.8001 -181.1 -78.1001 -179.9 -78.1001 -178.4C-78.1001 -176.9 -76.8001 -175.7 -75.3001 -175.7C-73.8001 -175.7 -72.6001 -176.9 -72.6001 -178.4C-72.6001 -179.9 -73.8001 -181.1 -75.3001 -181.1ZM106.4 -170.2C106.4 -182.2 116.1 -191.9 128.1 -191.9C140.1 -191.9 149.8 -182.2 149.8 -170.2C149.8 -158.3 140.1 -148.5 128.1 -148.5C116.1 -148.5 106.4 -158.3 106.4 -170.2ZM122.7 -176.3V-164.1C122.7 -163.4 123.1 -162.7 123.8 -162.4C124.4 -162 125.2 -162 125.8 -162.4L135.3 -168.5C135.9 -168.9 136.3 -169.6 136.3 -170.2C136.3 -170.9 135.9 -171.6 135.3 -172L125.8 -178.1C125.2 -178.5 124.4 -178.5 123.8 -178.1C123.1 -177.8 122.7 -177.1 122.7 -176.3ZM34.3999 -186.5C35.5999 -186.5 36.4998 -185.6 36.4998 -184.5V-156C36.4998 -154.9 35.5999 -154 34.3999 -154H33.0999C31.9998 -154 31.0999 -154.9 31.0999 -156V-184.5C31.0999 -185.6 31.9998 -186.5 33.0999 -186.5H34.3999ZM47.9998 -186.5C49.0999 -186.5 49.9998 -185.6 49.9998 -184.5V-156C49.9998 -154.9 49.0999 -154 47.9998 -154H46.5999C45.4998 -154 44.5999 -154.9 44.5999 -156V-184.5C44.5999 -185.6 45.4998 -186.5 46.5999 -186.5H47.9998ZM24.5999 -173.7C27.0999 -172.1 27.0999 -168.4 24.5999 -166.8L7.39986 -156.2C4.69986 -154.5 1.19985 -156.5 1.19985 -159.6V-180.8C1.19985 -184 4.69986 -186 7.39986 -184.3L24.5999 -173.7ZM239.3 -173.7C241.8 -172.1 241.8 -168.4 239.3 -166.8L213.9 -150.8C211.2 -149.1 207.7 -151.1 207.7 -154.3V-186.2C207.7 -189.4 211.2 -191.4 213.9 -189.7L239.3 -173.7ZM202.8 25.2001C202.8 13.2001 212.5 3.50009 224.5 3.50009C236.5 3.50009 246.2 13.2001 246.2 25.2001C246.2 37.2001 236.5 46.9001 224.5 46.9001C212.5 46.9001 202.8 37.2001 202.8 25.2001ZM226.5 16.4001C226.5 15.3001 225.6 14.4001 224.5 14.4001C223.4 14.4001 222.4 15.3001 222.4 16.4001V23.2001H215.7C214.5 23.2001 213.6 24.1001 213.6 25.2001C213.6 26.4001 214.5 27.3001 215.7 27.3001H222.4V34.0001C222.4 35.2001 223.4 36.1001 224.5 36.1001C225.6 36.1001 226.5 35.2001 226.5 34.0001V27.3001H233.3C234.4 27.3001 235.3 26.4001 235.3 25.2001C235.3 24.1001 234.4 23.2001 233.3 23.2001H226.5V16.4001Z" fill="#0F172A"/>
<path fill-rule="evenodd" clip-rule="evenodd" d="M604.6 112.8C604.6 109.5 607.3 106.8 610.6 106.8H637.6C640.9 106.8 643.6 109.5 643.6 112.8V136.8C643.6 140.1 640.9 142.8 637.6 142.8H610.6C607.3 142.8 604.6 140.1 604.6 136.8V112.8ZM612.6 116.9L616 120.3L612.6 123.8C612 124.4 612 125.3 612.6 125.9C613.2 126.5 614.1 126.5 614.7 125.9L619.2 121.4C619.8 120.8 619.8 119.9 619.2 119.3L614.7 114.8C614.1 114.2 613.2 114.2 612.6 114.8C612 115.4 612 116.3 612.6 116.9ZM621.1 123.3C620.3 123.3 619.6 124 619.6 124.8C619.6 125.7 620.3 126.3 621.1 126.3H627.1C628 126.3 628.6 125.7 628.6 124.8C628.6 124 628 123.3 627.1 123.3H621.1ZM-299.8 -183.9C-299.8 -187.2 -297.1 -189.9 -293.8 -189.9H-266.8C-263.5 -189.9 -260.8 -187.2 -260.8 -183.9V-164.4C-260.8 -161 -263.5 -158.4 -266.8 -158.4H-272.8V-157.8C-272.8 -156.6 -272.3 -155.5 -271.5 -154.7L-270.2 -153.4C-269.8 -153 -269.7 -152.3 -269.9 -151.8C-270.1 -151.2 -270.7 -150.9 -271.3 -150.9H-289.3C-289.9 -150.9 -290.4 -151.2 -290.7 -151.8C-290.9 -152.3 -290.8 -153 -290.3 -153.4L-289.1 -154.7C-288.3 -155.5 -287.8 -156.6 -287.8 -157.8V-158.4H-293.8C-297.1 -158.4 -299.8 -161 -299.8 -164.4V-183.9ZM-296.8 -183.9V-168.9C-296.8 -167.2 -295.4 -165.9 -293.8 -165.9H-266.8C-265.1 -165.9 -263.8 -167.2 -263.8 -168.9V-183.9C-263.8 -185.5 -265.1 -186.9 -266.8 -186.9H-293.8C-295.4 -186.9 -296.8 -185.5 -296.8 -183.9ZM-271.3 133.8H-289.3V115.8H-271.3V133.8Z" fill="#0F172A"/>
<path fill-rule="evenodd" clip-rule="evenodd" d="M-192.4 4.1001H-185.6C-181.5 4.1001 -178.1 7.4001 -178.1 11.6001V15.3001C-178.1 17.4001 -176.4 19.1001 -174.4 19.1001H-170.6C-166.5 19.1001 -163.1 22.4001 -163.1 26.6001V42.3001C-163.1 44.4001 -164.8 46.1001 -166.9 46.1001H-192.4C-194.4 46.1001 -196.1 44.4001 -196.1 42.3001V7.8001C-196.1 5.8001 -194.4 4.1001 -192.4 4.1001ZM-180.4 37.1001C-179 37.1001 -177.8 36.7001 -176.8 36.0001L-174.7 38.1001C-174.1 38.7001 -173.1 38.7001 -172.6 38.1001C-172 37.6001 -172 36.6001 -172.6 36.0001L-174.7 33.9001C-174 32.9001 -173.6 31.7001 -173.6 30.3001C-173.6 26.6001 -176.6 23.6001 -180.4 23.6001C-184.1 23.6001 -187.1 26.6001 -187.1 30.3001C-187.1 34.1001 -184.1 37.1001 -180.4 37.1001ZM-175.1 11.6001C-175.1 9.0001 -176.1 6.6001 -177.7 4.7001C-170.9 6.5001 -165.5 11.8001 -163.7 18.6001C-165.6 17.0001 -168 16.1001 -170.6 16.1001H-174.4C-174.8 16.1001 -175.1 15.7001 -175.1 15.3001V11.6001ZM10.6999 45.8001C7.3999 45.8001 4.69991 43.1001 4.69991 39.8001V23.5001L18.3999 31.5001L11.4999 35.3001C10.6999 35.7001 10.4999 36.6001 10.8999 37.3001C11.1999 38.0001 12.1999 38.3001 12.8999 37.9001L24.2999 31.8001C25.0999 31.3001 26.1999 31.3001 27.0999 31.8001L38.4999 37.9001C39.1999 38.3001 40.0999 38.0001 40.4999 37.3001C40.8999 36.6001 40.5999 35.7001 39.8999 35.3001L32.8999 31.5001L46.6999 23.5001V39.8001C46.6999 43.1001 43.9999 45.8001 40.6999 45.8001H10.6999ZM4.69991 20.0001V18.5001C4.69991 16.3001 5.89992 14.3001 7.79991 13.2001L22.7999 5.2001C24.5999 4.2001 26.6999 4.2001 28.4999 5.2001L43.4999 13.2001C45.4999 14.3001 46.6999 16.3001 46.6999 18.5001V20.0001L29.7999 29.9001L28.4999 29.2001C26.6999 28.2001 24.5999 28.2001 22.7999 29.2001L21.4999 29.9001L4.69991 20.0001ZM125.2 136.8C125.2 135.2 126.6 133.8 128.2 133.8C129.9 133.8 131.2 135.2 131.2 136.8C131.2 138.5 129.9 139.8 128.2 139.8C126.6 139.8 125.2 138.5 125.2 136.8ZM125.2 124.8C125.2 123.2 126.6 121.8 128.2 121.8C129.9 121.8 131.2 123.2 131.2 124.8C131.2 126.5 129.9 127.8 128.2 127.8C126.6 127.8 125.2 126.5 125.2 124.8ZM125.2 112.8C125.2 111.2 126.6 109.8 128.2 109.8C129.9 109.8 131.2 111.2 131.2 112.8C131.2 114.5 129.9 115.8 128.2 115.8C126.6 115.8 125.2 114.5 125.2 112.8ZM22.5999 129.2C24.4999 130.3 26.8999 130.3 28.8999 129.2L46.6999 118.2V135.3C46.6999 138.6 43.9999 141.3 40.6999 141.3H10.6999C7.3999 141.3 4.69991 138.6 4.69991 135.3V118.2L22.5999 129.2ZM27.2999 126.6C26.3999 127.2 25.1999 127.2 24.1999 126.6L4.79991 114.7V114.3C4.79991 111 7.49991 108.3 10.7999 108.3H40.7999C44.0999 108.3 46.7999 111 46.7999 114.3V114.7L27.2999 126.6ZM-86.6001 135.3C-86.6001 134.5 -85.9001 133.8 -85.1001 133.8H-61.1001C-60.3001 133.8 -59.6001 134.5 -59.6001 135.3C-59.6001 136.1 -60.3001 136.8 -61.1001 136.8H-85.1001C-85.9001 136.8 -86.6001 136.1 -86.6001 135.3ZM-96.4001 135.3C-96.4001 134 -95.4001 133 -94.1001 133C-92.9001 133 -91.9001 134 -91.9001 135.3C-91.9001 136.5 -92.9001 137.5 -94.1001 137.5C-95.4001 137.5 -96.4001 136.5 -96.4001 135.3ZM-86.6001 124.8C-86.6001 124 -85.9001 123.3 -85.1001 123.3H-61.1001C-60.3001 123.3 -59.6001 124 -59.6001 124.8C-59.6001 125.6 -60.3001 126.3 -61.1001 126.3H-85.1001C-85.9001 126.3 -86.6001 125.6 -86.6001 124.8ZM-96.4001 124.8C-96.4001 123.5 -95.4001 122.5 -94.1001 122.5C-92.9001 122.5 -91.9001 123.5 -91.9001 124.8C-91.9001 126 -92.9001 127 -94.1001 127C-95.4001 127 -96.4001 126 -96.4001 124.8ZM-86.6001 114.3C-86.6001 113.5 -85.9001 112.8 -85.1001 112.8H-61.1001C-60.3001 112.8 -59.6001 113.5 -59.6001 114.3C-59.6001 115.1 -60.3001 115.8 -61.1001 115.8H-85.1001C-85.9001 115.8 -86.6001 115.1 -86.6001 114.3ZM-96.4001 114.3C-96.4001 113 -95.4001 112 -94.1001 112C-92.9001 112 -91.9001 113 -91.9001 114.3C-91.9001 115.5 -92.9001 116.5 -94.1001 116.5C-95.4001 116.5 -96.4001 115.5 -96.4001 114.3ZM417.7 122.5C417.7 119.6 420 117.3 422.9 117.3C425.8 117.3 428.2 119.6 428.2 122.5C428.2 124 427.6 125.3 426.7 126.3C425.7 127.2 424.4 127.8 422.9 127.8C420 127.8 417.7 125.4 417.7 122.5Z" fill="#0F172A"/>
<path fill-rule="evenodd" clip-rule="evenodd" d="M444.7 124.8C444.7 135.6 435.9 144.3 425.2 144.3C414.4 144.3 405.7 135.6 405.7 124.8C405.7 114.1 414.4 105.3 425.2 105.3C435.9 105.3 444.7 114.1 444.7 124.8ZM422.9 114.3C418.4 114.3 414.7 118 414.7 122.6C414.7 127.1 418.4 130.8 422.9 130.8C424.7 130.8 426.3 130.3 427.6 129.4L431.6 133.4C432.2 134 433.1 134 433.7 133.4C434.3 132.8 434.3 131.9 433.7 131.3L429.7 127.3C430.6 125.9 431.2 124.3 431.2 122.6C431.2 118 427.5 114.3 422.9 114.3ZM343.6 105.3C344.4 105.3 345.1 106 345.1 106.8C345.1 107.7 344.4 108.3 343.6 108.3H342.1V129.3C342.1 132.6 339.4 135.3 336.1 135.3H333.7L336 142.4C336.3 143.1 335.8 144 335.1 144.3C334.3 144.5 333.4 144.1 333.2 143.3L332.5 141.3H315.7L315 143.3C314.7 144.1 313.9 144.5 313.1 144.3C312.3 144 311.9 143.1 312.2 142.4L314.5 135.3H312.1C308.8 135.3 306.1 132.6 306.1 129.3V108.3H304.6C303.7 108.3 303.1 107.7 303.1 106.8C303.1 106 303.7 105.3 304.6 105.3H343.6ZM325.6 118.8C325.6 118 324.9 117.3 324.1 117.3C323.2 117.3 322.6 118 322.6 118.8V126.3C322.6 127.2 323.2 127.8 324.1 127.8C324.9 127.8 325.6 127.2 325.6 126.3V118.8ZM331.6 114.3C331.6 113.5 330.9 112.8 330.1 112.8C329.2 112.8 328.6 113.5 328.6 114.3V126.3C328.6 127.2 329.2 127.8 330.1 127.8C330.9 127.8 331.6 127.2 331.6 126.3V114.3ZM331.5 138.3L330.5 135.3H317.7L316.7 138.3H331.5ZM319.5 123.3C319.5 122.5 318.9 121.8 318 121.8C317.2 121.8 316.5 122.5 316.5 123.3V126.3C316.5 127.2 317.2 127.8 318 127.8C318.9 127.8 319.5 127.2 319.5 126.3V123.3ZM534.7 4.0999C536.7 4.0999 538.4 5.7999 538.4 7.7999V13.7999C539.267 13.9332 540.133 14.0666 541 14.1999C543.9 14.5999 545.9 17.0999 545.9 19.9999V32.5999C545.9 35.8999 543.2 38.5999 539.9 38.5999H539.4L539.7 41.9999C539.9 44.1999 538.2 46.0999 536 46.0999H516.9C514.7 46.0999 513 44.1999 513.2 41.9999L513.5 38.5999H512.9C509.6 38.5999 506.9 35.8999 506.9 32.5999V19.9999C506.9 17.0999 509 14.5999 511.9 14.1999C512.7 14.0666 513.533 13.9332 514.4 13.7999V7.7999C514.4 5.7999 516.1 4.0999 518.2 4.0999H534.7ZM538.4 23.5999C539.3 23.5999 539.9 22.8999 539.9 22.0999C539.9 21.2999 539.3 20.5999 538.4 20.5999C537.6 20.5999 536.9 21.2999 536.9 22.0999C536.9 22.8999 537.6 23.5999 538.4 23.5999ZM526.4 29.5999C523.533 29.5999 520.7 29.7332 517.9 29.9999C517.5 30.0999 517.2 30.2999 517.2 30.6999L516.1 42.2999C516.1 42.6999 516.4 43.0999 516.9 43.0999H536C536.4 43.0999 536.7 42.6999 536.7 42.2999L535.7 30.6999C535.6 30.2999 535.3 30.0999 535 29.9999C532.2 29.7332 529.333 29.5999 526.4 29.5999ZM535.4 13.4999V7.7999C535.4 7.3999 535.1 7.0999 534.7 7.0999H518.2C517.8 7.0999 517.4 7.3999 517.4 7.7999V13.4999C520.4 13.2332 523.4 13.0999 526.4 13.0999C529.467 13.0999 532.467 13.2332 535.4 13.4999ZM532.4 20.5999C531.6 20.5999 530.9 21.2999 530.9 22.0999C530.9 22.8999 531.6 23.5999 532.4 23.5999C533.3 23.5999 533.9 22.8999 533.9 22.0999C533.9 21.2999 533.3 20.5999 532.4 20.5999ZM204.9 127.8C204.9 118.7 212.3 111.3 221.4 111.3C222.2 111.3 222.9 112 222.9 112.8V126.3H236.4C237.2 126.3 237.9 127 237.9 127.8C237.9 136.9 230.5 144.3 221.4 144.3C212.3 144.3 204.9 136.9 204.9 127.8ZM225.9 106.8C225.9 106 226.6 105.3 227.4 105.3C236.5 105.3 243.9 112.7 243.9 121.8C243.9 122.7 243.2 123.3 242.4 123.3H227.4C226.6 123.3 225.9 122.7 225.9 121.8V106.8ZM-160.6 -153.4C-160 -152.8 -160 -151.9 -160.6 -151.3C-161.2 -150.7 -162.1 -150.7 -162.7 -151.3L-198.7 -187.3C-199.3 -187.9 -199.3 -188.8 -198.7 -189.4C-198.1 -190 -197.2 -190 -196.6 -189.4L-160.6 -153.4ZM-158.7 -159C-158.7 -158 -159.1 -157.3 -159.7 -156.7L-169.2 -166.2V-178.5L-163.8 -183.9C-161.9 -185.7 -158.7 -184.4 -158.7 -181.7V-159ZM-172.2 -179.4V-169.3L-188.3 -185.4H-178.2C-174.8 -185.4 -172.2 -182.7 -172.2 -179.4ZM-200.7 -179.4C-200.7 -181 -200.1 -182.4 -199.1 -183.5L-173.4 -157.8C-174.5 -156.3 -176.2 -155.4 -178.2 -155.4H-194.7C-198 -155.4 -200.7 -158.1 -200.7 -161.4V-179.4Z" fill="#0F172A"/>
</g>
</g>
<defs>
<clipPath id="clip0_70_5426">
<rect width="50" height="50" fill="white"/>
</clipPath>
</defs>
</svg>
