<svg width="45" height="50" viewBox="0 0 45 50" fill="none" xmlns="http://www.w3.org/2000/svg">
<g clip-path="url(#clip0_70_5424)">
<mask id="mask0_70_5424" style="mask-type:luminance" maskUnits="userSpaceOnUse" x="-1327" y="-619" width="1722" height="1331">
<path d="M-1326.96 -618.479H394.783V711.956H-1326.96V-618.479Z" fill="white"/>
</mask>
<g mask="url(#mask0_70_5424)">
<path fill-rule="evenodd" clip-rule="evenodd" d="M-724.783 145.217C-725.652 146.087 -727.065 146.087 -727.935 145.217L-749.239 123.913V140.761C-749.239 141.956 -750.217 142.934 -751.413 142.934C-752.717 142.934 -753.696 141.956 -753.696 140.761V118.587C-753.696 117.391 -752.717 116.413 -751.413 116.413H-729.348C-728.152 116.413 -727.174 117.391 -727.174 118.587C-727.174 119.782 -728.152 120.761 -729.348 120.761H-746.087L-724.783 142.065C-723.913 142.934 -723.913 144.347 -724.783 145.217ZM-538.37 237.065C-538.37 224.021 -527.826 213.478 -514.783 213.478C-501.739 213.478 -491.196 224.021 -491.196 237.065C-491.196 250.108 -501.739 260.652 -514.783 260.652C-527.826 260.652 -538.37 250.108 -538.37 237.065ZM-517.065 246.63C-517.065 247.826 -516.087 248.804 -514.783 248.804C-513.587 248.804 -512.609 247.826 -512.609 246.63V233.152L-506.848 239.239C-505.978 240.217 -504.674 240.217 -503.696 239.456C-502.826 238.587 -502.826 237.174 -503.587 236.304L-513.152 225.978C-513.587 225.543 -514.239 225.217 -514.783 225.217C-515.435 225.217 -515.978 225.543 -516.413 225.978L-525.978 236.304C-526.848 237.174 -526.848 238.587 -525.87 239.456C-525 240.217 -523.587 240.217 -522.826 239.239L-517.065 233.152V246.63ZM-944.022 131.087C-944.022 132.282 -945 133.26 -946.304 133.26H-965.869L-959.456 139.021C-958.587 139.891 -958.587 141.304 -959.456 142.174C-960.217 143.043 -961.63 143.152 -962.5 142.282L-972.826 132.717C-973.261 132.282 -973.587 131.63 -973.587 131.087C-973.587 130.434 -973.261 129.891 -972.826 129.456L-962.5 119.891C-961.63 119.021 -960.217 119.13 -959.456 120C-958.587 120.869 -958.587 122.282 -959.456 123.043L-965.869 128.913H-946.304C-945 128.913 -944.022 129.891 -944.022 131.087ZM-318.804 225.217C-320.109 225.217 -321.087 226.195 -321.087 227.391V252.5C-321.087 253.695 -320.109 254.674 -318.804 254.674H-293.696C-292.5 254.674 -291.522 253.695 -291.522 252.5V240.652C-291.522 239.456 -290.543 238.478 -289.348 238.478C-288.043 238.478 -287.065 239.456 -287.065 240.652V252.5C-287.065 256.195 -290.109 259.13 -293.696 259.13H-318.804C-322.5 259.13 -325.543 256.195 -325.543 252.5V227.391C-325.543 223.695 -322.5 220.761 -318.804 220.761H-304.13C-302.826 220.761 -301.848 221.739 -301.848 222.934C-301.848 224.239 -302.826 225.217 -304.13 225.217H-318.804ZM-312.826 243.478L-286.087 219.239H-293.696C-294.891 219.239 -295.87 218.26 -295.87 217.065C-295.87 215.869 -294.891 214.891 -293.696 214.891H-280.326C-279.13 214.891 -278.152 215.869 -278.152 217.065V230.326C-278.152 231.521 -279.13 232.608 -280.326 232.608C-281.63 232.608 -282.609 231.521 -282.609 230.326V222.065L-309.891 246.739C-310.761 247.608 -312.174 247.5 -313.043 246.63C-313.804 245.652 -313.804 244.347 -312.826 243.478ZM-864.022 131.087C-864.022 129.891 -863.043 128.913 -861.848 128.913H-842.174L-848.587 123.043C-849.456 122.282 -849.456 120.869 -848.696 120C-847.826 119.13 -846.413 119.021 -845.543 119.891L-835.217 129.456C-834.783 129.891 -834.565 130.434 -834.565 131.087C-834.565 131.63 -834.783 132.282 -835.217 132.717L-845.543 142.282C-846.413 143.152 -847.826 143.043 -848.696 142.174C-849.456 141.304 -849.456 139.891 -848.587 139.021L-842.174 133.26H-861.848C-863.043 133.26 -864.022 132.282 -864.022 131.087ZM-631.196 137.608C-630.326 138.478 -630.326 139.891 -631.196 140.761C-632.065 141.63 -633.478 141.63 -634.348 140.761L-639.348 135.761C-639.203 138.876 -638.949 141.992 -638.587 145.108C-638.478 145.978 -637.717 146.739 -636.739 146.847C-633.261 147.137 -629.71 147.282 -626.087 147.282C-622.536 147.282 -619.022 147.137 -615.543 146.847C-614.565 146.739 -613.804 145.978 -613.696 145.108C-613.478 143.587 -613.333 142.029 -613.261 140.434C-613.152 139.239 -612.065 138.369 -610.87 138.478C-609.674 138.587 -608.696 139.565 -608.804 140.869C-608.949 142.463 -609.13 144.021 -609.348 145.543C-609.674 148.587 -612.065 150.978 -615.109 151.195C-618.732 151.558 -622.391 151.739 -626.087 151.739C-629.855 151.739 -633.551 151.558 -637.174 151.195C-640.217 150.978 -642.609 148.587 -642.935 145.543C-643.37 142.282 -643.623 138.985 -643.696 135.652L-648.913 140.761C-649.783 141.63 -651.196 141.63 -651.956 140.761C-652.826 139.891 -652.826 138.478 -651.956 137.608L-643.152 128.804C-642.283 127.934 -640.87 127.934 -640 128.804L-631.196 137.608ZM-636.739 115.326C-637.717 115.434 -638.478 116.087 -638.587 117.065C-638.804 118.587 -638.949 120.108 -639.022 121.63C-639.13 122.826 -640.217 123.804 -641.413 123.695C-642.609 123.587 -643.587 122.5 -643.478 121.304C-643.333 119.71 -643.188 118.116 -643.043 116.521C-642.609 113.478 -640.217 111.195 -637.174 110.869C-633.551 110.579 -629.891 110.434 -626.196 110.434C-622.427 110.434 -618.732 110.579 -615.109 110.869C-612.065 111.195 -609.674 113.478 -609.348 116.521C-608.913 119.855 -608.659 123.188 -608.587 126.521L-603.369 121.413C-602.5 120.543 -601.087 120.543 -600.326 121.413C-599.456 122.282 -599.456 123.587 -600.326 124.456L-609.13 133.369C-610 134.239 -611.413 134.239 -612.283 133.369L-621.087 124.456C-621.956 123.587 -621.956 122.282 -621.087 121.413C-620.217 120.543 -618.804 120.543 -617.935 121.413L-612.935 126.304C-613.08 123.188 -613.333 120.108 -613.696 117.065C-613.804 116.087 -614.565 115.434 -615.543 115.326C-619.022 114.963 -622.572 114.782 -626.196 114.782C-629.746 114.782 -633.261 114.963 -636.739 115.326ZM-415.543 119.565C-418.478 119.565 -420.87 117.174 -420.87 114.239C-420.87 111.195 -418.478 108.804 -415.543 108.804C-412.5 108.804 -410.109 111.195 -410.109 114.239C-410.109 117.174 -412.5 119.565 -415.543 119.565ZM-405.435 116.195C-406.522 116.195 -407.391 115.326 -407.391 114.239C-407.391 113.043 -406.522 112.174 -405.435 112.174H-390.652C-389.456 112.174 -388.587 113.043 -388.587 114.239C-388.587 115.326 -389.456 116.195 -390.652 116.195H-405.435ZM-423.587 114.239C-423.587 115.326 -424.456 116.195 -425.543 116.195H-429.565C-430.761 116.195 -431.63 115.326 -431.63 114.239C-431.63 113.152 -430.761 112.174 -429.565 112.174H-425.543C-424.456 112.174 -423.587 113.152 -423.587 114.239ZM-429.565 149.891C-430.761 149.891 -431.63 149.021 -431.63 147.826C-431.63 146.739 -430.761 145.869 -429.565 145.869H-425.543C-424.456 145.869 -423.587 146.739 -423.587 147.826C-423.587 149.021 -424.456 149.891 -425.543 149.891H-429.565ZM-405.326 149.891C-406.522 149.891 -407.391 149.021 -407.391 147.826C-407.391 146.739 -406.522 145.869 -405.326 145.869H-390.543C-389.456 145.869 -388.587 146.739 -388.587 147.826C-388.587 149.021 -389.456 149.891 -390.543 149.891H-405.326ZM-412.717 131.087C-412.717 132.174 -413.696 133.043 -414.783 133.043H-429.565C-430.652 133.043 -431.63 132.174 -431.63 131.087C-431.63 129.891 -430.652 129.021 -429.565 129.021H-414.783C-413.696 129.021 -412.717 129.891 -412.717 131.087ZM-394.565 133.043C-395.652 133.043 -396.63 132.174 -396.63 131.087C-396.63 129.891 -395.652 129.021 -394.565 129.021H-390.543C-389.456 129.021 -388.478 129.891 -388.478 131.087C-388.478 132.174 -389.456 133.043 -390.543 133.043H-394.565ZM-404.674 136.413C-407.609 136.413 -410 134.021 -410 131.087C-410 128.043 -407.609 125.652 -404.674 125.652C-401.63 125.652 -399.239 128.043 -399.239 131.087C-399.239 134.021 -401.63 136.413 -404.674 136.413ZM-415.435 153.261C-418.37 153.261 -420.761 150.869 -420.761 147.826C-420.761 144.891 -418.37 142.5 -415.435 142.5C-412.5 142.5 -410 144.891 -410 147.826C-410 150.869 -412.5 153.261 -415.435 153.261ZM14.1305 3.91268C15.3261 3.91268 16.3044 4.89094 16.3044 6.0866V42.9344C16.3044 44.1301 15.3261 45.1083 14.1305 45.1083H9.67395C8.47833 45.1083 7.50006 44.1301 7.50006 42.9344V6.0866C7.50006 4.89094 8.47833 3.91268 9.67395 3.91268H14.1305ZM34.7827 3.91268C35.9783 3.91268 37.0653 4.89094 37.0653 6.0866V42.9344C37.0653 44.1301 35.9783 45.1083 34.7827 45.1083H30.4348C29.1305 45.1083 28.1522 44.1301 28.1522 42.9344V6.0866C28.1522 4.89094 29.1305 3.91268 30.4348 3.91268H34.7827ZM-95.4348 36.1953L-91.7391 26.9562C-91.0869 25.4344 -90.2173 24.1301 -89.1304 22.9344L-68.6956 2.60833C-66.3043 0.108335 -62.2825 0.108335 -59.8912 2.60833C-57.3912 4.99964 -57.3912 9.02138 -59.8912 11.4127L-80.2173 31.8475C-81.413 32.9344 -82.7173 33.804 -84.2391 34.4562L-93.4782 38.1518C-94.6739 38.6953 -95.8695 37.4996 -95.4348 36.1953ZM-101.087 40.217C-101.087 42.1735 -99.4565 43.9127 -97.5 43.9127H-69.4564C-67.3912 43.9127 -65.7608 42.1735 -65.7608 40.217V24.6736C-65.7608 23.4779 -64.7826 22.4996 -63.5869 22.4996C-62.2826 22.4996 -61.3043 23.4779 -61.3043 24.6736V40.217C-61.3043 44.6735 -64.9999 48.2605 -69.4564 48.2605H-97.5C-101.956 48.2605 -105.543 44.6735 -105.543 40.217V12.1736C-105.543 7.71703 -101.956 4.02138 -97.5 4.02138H-81.9564C-80.7608 4.02138 -79.7825 4.99964 -79.7825 6.30399C-79.7825 7.49964 -80.7608 8.4779 -81.9564 8.4779H-97.5C-99.4565 8.4779 -101.087 10.1083 -101.087 12.1736V40.217ZM-210.109 33.9127L-177.935 1.73877C-175.435 -0.761231 -171.522 -0.761231 -169.022 1.73877C-166.63 4.13007 -166.63 8.15181 -169.022 10.5431L-201.304 42.717C-202.391 43.9127 -203.696 44.7822 -205.217 45.3257L-214.565 49.1301C-215.761 49.5649 -216.956 48.3692 -216.413 47.1736L-212.717 37.9344C-212.174 36.4127 -211.196 34.9996 -210.109 33.9127ZM-325.326 111.956C-325.326 109.456 -323.37 107.5 -320.978 107.5H-317.5C-315.435 107.5 -313.696 108.913 -313.261 110.978L-311.087 120.434C-310.652 122.717 -311.956 125 -314.239 125.652L-316.956 126.413C-318.152 126.847 -318.913 128.043 -318.37 129.239C-315 137.608 -308.261 144.239 -300 147.717C-298.804 148.152 -297.5 147.5 -297.174 146.304L-296.413 143.478C-295.761 141.304 -293.478 139.891 -291.196 140.434L-281.63 142.5C-279.674 142.934 -278.152 144.782 -278.152 146.847V150.217C-278.152 152.717 -280.217 154.674 -282.609 154.674H-287.065C-290.435 154.674 -293.696 154.239 -296.848 153.369C-310.109 149.891 -320.543 139.456 -324.13 126.087C-324.891 123.043 -325.326 119.674 -325.326 116.304V111.956Z" fill="#0F172A"/>
<path fill-rule="evenodd" clip-rule="evenodd" d="M3.0434 332.391C3.0434 328.804 5.97821 325.869 9.56519 325.869H38.913C42.4999 325.869 45.4347 328.804 45.4347 332.391V358.478C45.4347 362.065 42.4999 365 38.913 365H9.56519C5.97821 365 3.0434 362.065 3.0434 358.478V332.391ZM11.7391 336.847L15.4348 340.543L11.7391 344.347C11.0869 345 11.0869 345.978 11.7391 346.63C12.3912 347.282 13.3696 347.282 14.0217 346.63L18.913 341.739C19.5652 341.087 19.5652 340.108 18.913 339.456L14.0217 334.565C13.3696 333.913 12.3912 333.913 11.7391 334.565C11.0869 335.217 11.0869 336.195 11.7391 336.847ZM20.9782 343.804C20.1086 343.804 19.3478 344.565 19.3478 345.434C19.3478 346.413 20.1086 347.065 20.9782 347.065H27.4999C28.4782 347.065 29.1304 346.413 29.1304 345.434C29.1304 344.565 28.4782 343.804 27.4999 343.804H20.9782ZM-980 9.89088C-980 6.30392 -977.065 3.36914 -973.478 3.36914H-944.13C-940.543 3.36914 -937.609 6.30392 -937.609 9.89088V31.0865C-937.609 34.7822 -940.543 37.6083 -944.13 37.6083H-950.652V38.2604C-950.652 39.5648 -950.109 40.7604 -949.239 41.63L-947.826 43.0431C-947.391 43.4778 -947.283 44.2387 -947.5 44.7822C-947.717 45.4344 -948.37 45.7604 -949.022 45.7604H-968.587C-969.239 45.7604 -969.783 45.4344 -970.109 44.7822C-970.326 44.2387 -970.217 43.4778 -969.674 43.0431L-968.37 41.63C-967.5 40.7604 -966.957 39.5648 -966.957 38.2604V37.6083H-973.478C-977.065 37.6083 -980 34.7822 -980 31.0865V9.89088ZM-976.739 9.89088V26.1952C-976.739 28.0431 -975.217 29.4561 -973.478 29.4561H-944.13C-942.283 29.4561 -940.87 28.0431 -940.87 26.1952V9.89088C-940.87 8.15175 -942.283 6.63001 -944.13 6.63001H-973.478C-975.217 6.63001 -976.739 8.15175 -976.739 9.89088ZM-949.022 355.217H-968.587V335.652H-949.022V355.217Z" fill="#0F172A"/>
</g>
</g>
<defs>
<clipPath id="clip0_70_5424">
<rect width="45" height="50" fill="white"/>
</clipPath>
</defs>
</svg>
