<svg width="50" height="50" viewBox="0 0 50 50" fill="none" xmlns="http://www.w3.org/2000/svg">
<g clip-path="url(#clip0_70_5403)">
<mask id="mask0_70_5403" style="mask-type:luminance" maskUnits="userSpaceOnUse" x="-960" y="-545" width="1494" height="1178">
<path d="M-959.634 -544.231H533.578V632.692H-959.634V-544.231Z" fill="white"/>
</mask>
<g mask="url(#mask0_70_5403)">
<path fill-rule="evenodd" clip-rule="evenodd" d="M-437.387 131.346C-438.141 132.116 -439.367 132.116 -440.121 131.346L-458.597 112.5V127.404C-458.597 128.462 -459.446 129.327 -460.483 129.327C-461.614 129.327 -462.462 128.462 -462.462 127.404V107.789C-462.462 106.731 -461.614 105.866 -460.483 105.866H-441.346C-440.309 105.866 -439.461 106.731 -439.461 107.789C-439.461 108.846 -440.309 109.712 -441.346 109.712H-455.864L-437.387 128.558C-436.633 129.327 -436.633 130.577 -437.387 131.346ZM-275.716 212.596C-275.716 201.058 -266.572 191.731 -255.26 191.731C-243.948 191.731 -234.804 201.058 -234.804 212.596C-234.804 224.135 -243.948 233.462 -255.26 233.462C-266.572 233.462 -275.716 224.135 -275.716 212.596ZM-257.24 221.058C-257.24 222.116 -256.391 222.981 -255.26 222.981C-254.223 222.981 -253.375 222.116 -253.375 221.058V209.135L-248.379 214.519C-247.624 215.385 -246.493 215.385 -245.645 214.712C-244.891 213.943 -244.891 212.693 -245.551 211.923L-253.846 202.789C-254.223 202.404 -254.789 202.116 -255.26 202.116C-255.826 202.116 -256.297 202.404 -256.674 202.789L-264.97 211.923C-265.724 212.693 -265.724 213.943 -264.876 214.712C-264.121 215.385 -262.896 215.385 -262.236 214.519L-257.24 209.135V221.058ZM-627.526 118.846C-627.526 119.904 -628.375 120.769 -629.506 120.769H-646.474L-640.913 125.866C-640.158 126.635 -640.158 127.885 -640.913 128.654C-641.572 129.423 -642.798 129.519 -643.552 128.75L-652.508 120.289C-652.885 119.904 -653.167 119.327 -653.167 118.846C-653.167 118.269 -652.885 117.789 -652.508 117.404L-643.552 108.943C-642.798 108.173 -641.572 108.269 -640.913 109.039C-640.158 109.808 -640.158 111.058 -640.913 111.731L-646.474 116.923H-629.506C-628.375 116.923 -627.526 117.789 -627.526 118.846ZM-85.2941 202.116C-86.4254 202.116 -87.2737 202.981 -87.2737 204.039V226.25C-87.2737 227.308 -86.4254 228.173 -85.2941 228.173H-63.5181C-62.4812 228.173 -61.6328 227.308 -61.6328 226.25V215.769C-61.6328 214.712 -60.7844 213.846 -59.7474 213.846C-58.6162 213.846 -57.7678 214.712 -57.7678 215.769V226.25C-57.7678 229.519 -60.4073 232.116 -63.5181 232.116H-85.2941C-88.4993 232.116 -91.1388 229.519 -91.1388 226.25V204.039C-91.1388 200.769 -88.4993 198.173 -85.2941 198.173H-72.5679C-71.4367 198.173 -70.5883 199.039 -70.5883 200.096C-70.5883 201.25 -71.4367 202.116 -72.5679 202.116H-85.2941ZM-80.1094 218.269L-56.9194 196.827H-63.5181C-64.5551 196.827 -65.4035 195.962 -65.4035 194.904C-65.4035 193.846 -64.5551 192.981 -63.5181 192.981H-51.9231C-50.8861 192.981 -50.0377 193.846 -50.0377 194.904V206.635C-50.0377 207.693 -50.8861 208.654 -51.9231 208.654C-53.0543 208.654 -53.9028 207.693 -53.9028 206.635V199.327L-77.5641 221.154C-78.3183 221.923 -79.5438 221.827 -80.2979 221.058C-80.9578 220.193 -80.9578 219.039 -80.1094 218.269ZM-558.145 118.846C-558.145 117.789 -557.296 116.923 -556.259 116.923H-539.197L-544.759 111.731C-545.513 111.058 -545.513 109.808 -544.853 109.039C-544.099 108.269 -542.873 108.173 -542.119 108.943L-533.164 117.404C-532.787 117.789 -532.598 118.269 -532.598 118.846C-532.598 119.327 -532.787 119.904 -533.164 120.289L-542.119 128.75C-542.873 129.519 -544.099 129.423 -544.853 128.654C-545.513 127.885 -545.513 126.635 -544.759 125.866L-539.197 120.769H-556.259C-557.296 120.769 -558.145 119.904 -558.145 118.846ZM-356.222 124.616C-355.468 125.385 -355.468 126.635 -356.222 127.404C-356.976 128.173 -358.201 128.173 -358.956 127.404L-363.292 122.981C-363.166 125.737 -362.946 128.494 -362.632 131.25C-362.538 132.019 -361.878 132.693 -361.029 132.789C-358.013 133.045 -354.933 133.173 -351.791 133.173C-348.712 133.173 -345.664 133.045 -342.647 132.789C-341.799 132.693 -341.139 132.019 -341.045 131.25C-340.856 129.904 -340.73 128.526 -340.667 127.116C-340.573 126.058 -339.631 125.289 -338.594 125.385C-337.557 125.481 -336.708 126.346 -336.802 127.5C-336.928 128.91 -337.085 130.289 -337.274 131.635C-337.557 134.327 -339.631 136.443 -342.27 136.635C-345.412 136.955 -348.586 137.116 -351.791 137.116C-355.059 137.116 -358.264 136.955 -361.407 136.635C-364.046 136.443 -366.12 134.327 -366.403 131.635C-366.78 128.75 -367 125.834 -367.063 122.885L-371.588 127.404C-372.342 128.173 -373.567 128.173 -374.227 127.404C-374.981 126.635 -374.981 125.385 -374.227 124.616L-366.591 116.827C-365.837 116.058 -364.612 116.058 -363.858 116.827L-356.222 124.616ZM-361.029 104.904C-361.878 105 -362.538 105.577 -362.632 106.443C-362.821 107.789 -362.946 109.135 -363.009 110.481C-363.103 111.539 -364.046 112.404 -365.083 112.308C-366.12 112.212 -366.968 111.25 -366.874 110.193C-366.748 108.782 -366.623 107.372 -366.497 105.962C-366.12 103.269 -364.046 101.25 -361.407 100.962C-358.264 100.705 -355.091 100.577 -351.885 100.577C-348.617 100.577 -345.412 100.705 -342.27 100.962C-339.631 101.25 -337.557 103.269 -337.274 105.962C-336.897 108.91 -336.677 111.859 -336.614 114.808L-332.089 110.289C-331.335 109.519 -330.109 109.519 -329.449 110.289C-328.695 111.058 -328.695 112.212 -329.449 112.981L-337.085 120.866C-337.839 121.635 -339.065 121.635 -339.819 120.866L-347.455 112.981C-348.209 112.212 -348.209 111.058 -347.455 110.289C-346.701 109.519 -345.475 109.519 -344.721 110.289L-340.385 114.616C-340.51 111.859 -340.73 109.135 -341.045 106.443C-341.139 105.577 -341.799 105 -342.647 104.904C-345.664 104.584 -348.743 104.423 -351.885 104.423C-354.965 104.423 -358.013 104.584 -361.029 104.904ZM-169.193 108.654C-171.738 108.654 -173.812 106.539 -173.812 103.943C-173.812 101.25 -171.738 99.1348 -169.193 99.1348C-166.554 99.1348 -164.48 101.25 -164.48 103.943C-164.48 106.539 -166.554 108.654 -169.193 108.654ZM-160.426 105.673C-161.369 105.673 -162.123 104.904 -162.123 103.943C-162.123 102.885 -161.369 102.116 -160.426 102.116H-147.606C-146.569 102.116 -145.815 102.885 -145.815 103.943C-145.815 104.904 -146.569 105.673 -147.606 105.673H-160.426ZM-176.169 103.943C-176.169 104.904 -176.923 105.673 -177.866 105.673H-181.354C-182.391 105.673 -183.145 104.904 -183.145 103.943C-183.145 102.981 -182.391 102.116 -181.354 102.116H-177.866C-176.923 102.116 -176.169 102.981 -176.169 103.943ZM-181.354 135.481C-182.391 135.481 -183.145 134.712 -183.145 133.654C-183.145 132.693 -182.391 131.923 -181.354 131.923H-177.866C-176.923 131.923 -176.169 132.693 -176.169 133.654C-176.169 134.712 -176.923 135.481 -177.866 135.481H-181.354ZM-160.332 135.481C-161.369 135.481 -162.123 134.712 -162.123 133.654C-162.123 132.693 -161.369 131.923 -160.332 131.923H-147.511C-146.569 131.923 -145.815 132.693 -145.815 133.654C-145.815 134.712 -146.569 135.481 -147.511 135.481H-160.332ZM-166.742 118.846C-166.742 119.808 -167.591 120.577 -168.533 120.577H-181.354C-182.296 120.577 -183.145 119.808 -183.145 118.846C-183.145 117.789 -182.296 117.019 -181.354 117.019H-168.533C-167.591 117.019 -166.742 117.789 -166.742 118.846ZM-150.999 120.577C-151.942 120.577 -152.79 119.808 -152.79 118.846C-152.79 117.789 -151.942 117.019 -150.999 117.019H-147.511C-146.569 117.019 -145.72 117.789 -145.72 118.846C-145.72 119.808 -146.569 120.577 -147.511 120.577H-150.999ZM-159.766 123.558C-162.311 123.558 -164.385 121.443 -164.385 118.846C-164.385 116.154 -162.311 114.039 -159.766 114.039C-157.127 114.039 -155.053 116.154 -155.053 118.846C-155.053 121.443 -157.127 123.558 -159.766 123.558ZM-169.099 138.462C-171.644 138.462 -173.718 136.346 -173.718 133.654C-173.718 131.058 -171.644 128.943 -169.099 128.943C-166.554 128.943 -164.385 131.058 -164.385 133.654C-164.385 136.346 -166.554 138.462 -169.099 138.462ZM203.45 6.34638C204.487 6.34638 205.336 7.21176 205.336 8.26946V40.8656C205.336 41.9233 204.487 42.7887 203.45 42.7887H199.585C198.548 42.7887 197.7 41.9233 197.7 40.8656V8.26946C197.7 7.21176 198.548 6.34638 199.585 6.34638H203.45ZM221.361 6.34638C222.398 6.34638 223.341 7.21176 223.341 8.26946V40.8656C223.341 41.9233 222.398 42.7887 221.361 42.7887H217.59C216.459 42.7887 215.611 41.9233 215.611 40.8656V8.26946C215.611 7.21176 216.459 6.34638 217.59 6.34638H221.361ZM108.428 34.9041L111.633 26.731C112.198 25.3848 112.952 24.231 113.895 23.1733L131.618 5.19253C133.691 2.98099 137.179 2.98099 139.253 5.19253C141.422 7.30792 141.422 10.8656 139.253 12.981L121.625 31.0579C120.588 32.0195 119.457 32.7887 118.137 33.3656L110.124 36.6348C109.087 37.1156 108.05 36.0579 108.428 34.9041ZM103.526 38.4618C103.526 40.1925 104.94 41.731 106.636 41.731H130.958C132.749 41.731 134.163 40.1925 134.163 38.4618V24.7118C134.163 23.6541 135.011 22.7887 136.048 22.7887C137.179 22.7887 138.028 23.6541 138.028 24.7118V38.4618C138.028 42.4041 134.823 45.5771 130.958 45.5771H106.636C102.771 45.5771 99.6606 42.4041 99.6606 38.4618V13.6541C99.6606 9.71176 102.771 6.44253 106.636 6.44253H120.117C121.154 6.44253 122.002 7.30792 122.002 8.46176C122.002 9.51946 121.154 10.3848 120.117 10.3848H106.636C104.94 10.3848 103.526 11.8271 103.526 13.6541V38.4618ZM8.9743 32.8848L36.8777 4.4233C39.046 2.21176 42.4396 2.21176 44.6078 4.4233C46.6817 6.53869 46.6817 10.0964 44.6078 12.2118L16.61 40.6733C15.6674 41.731 14.5362 42.5002 13.2164 42.981L5.10931 46.3464C4.07239 46.731 3.0354 45.6733 3.50677 44.6156L6.71185 36.4425C7.18323 35.0964 8.03162 33.8464 8.9743 32.8848ZM-90.9503 101.923C-90.9503 99.7118 -89.2534 97.981 -87.1795 97.981H-84.1629C-82.3718 97.981 -80.8636 99.231 -80.4865 101.058L-78.6011 109.423C-78.2241 111.443 -79.3552 113.462 -81.3348 114.039L-83.6916 114.712C-84.7285 115.096 -85.3884 116.154 -84.9171 117.212C-81.9948 124.616 -76.1501 130.481 -68.9857 133.558C-67.9488 133.943 -66.8175 133.366 -66.5347 132.308L-65.8749 129.808C-65.3093 127.885 -63.3296 126.635 -61.3499 127.116L-53.0543 128.943C-51.3575 129.327 -50.0377 130.962 -50.0377 132.789V135.769C-50.0377 137.981 -51.8289 139.712 -53.9028 139.712H-57.7678C-60.6901 139.712 -63.5181 139.327 -66.2519 138.558C-77.7527 135.481 -86.8025 126.25 -89.9133 114.423C-90.5732 111.731 -90.9503 108.75 -90.9503 105.769V101.923Z" fill="#0F172A"/>
<path fill-rule="evenodd" clip-rule="evenodd" d="M-238.009 100.673C-234.898 100.673 -232.259 103.269 -232.259 106.539V131.25C-232.259 134.519 -234.898 137.115 -238.009 137.115H-272.511C-275.716 137.115 -278.262 134.519 -278.262 131.25V106.539C-278.262 103.269 -275.716 100.673 -272.511 100.673H-238.009ZM-264.876 108.462C-264.876 109.519 -264.027 110.481 -262.99 110.481C-261.859 110.481 -261.011 109.519 -261.011 108.462C-261.011 107.404 -261.859 106.539 -262.99 106.539C-264.027 106.539 -264.876 107.404 -264.876 108.462ZM-270.626 106.442C-271.663 106.442 -272.606 107.308 -272.606 108.462C-272.606 109.519 -271.663 110.385 -270.626 110.385C-269.589 110.385 -268.741 109.519 -268.741 108.462C-268.741 107.308 -269.589 106.442 -270.626 106.442ZM-274.491 116.25V131.25C-274.491 132.308 -273.643 133.173 -272.511 133.173H-238.009C-236.972 133.173 -236.124 132.308 -236.124 131.25V116.25H-274.491ZM-255.26 106.442C-256.391 106.442 -257.24 107.308 -257.24 108.462C-257.24 109.519 -256.391 110.385 -255.26 110.385C-254.223 110.385 -253.375 109.519 -253.375 108.462C-253.375 107.308 -254.223 106.442 -255.26 106.442ZM125.302 134.519C126.716 134.519 127.847 135.673 127.847 137.115C127.847 138.558 126.716 139.712 125.302 139.712C123.888 139.712 122.756 138.558 122.756 137.115C122.756 135.673 123.888 134.519 125.302 134.519ZM135.483 137.115C135.483 135.673 136.614 134.519 138.028 134.519C139.442 134.519 140.667 135.673 140.667 137.115C140.667 138.558 139.442 139.712 138.028 139.712C136.614 139.712 135.483 138.558 135.483 137.115ZM138.028 121.442C139.442 121.442 140.667 122.692 140.667 124.135C140.667 125.577 139.442 126.731 138.028 126.731C136.614 126.731 135.483 125.577 135.483 124.135C135.483 122.692 136.614 121.442 138.028 121.442ZM122.662 124.135C122.662 122.692 123.793 121.442 125.207 121.442H125.302C126.716 121.442 127.847 122.692 127.847 124.135C127.847 125.577 126.716 126.731 125.302 126.731H125.207C123.793 126.731 122.662 125.577 122.662 124.135ZM131.618 127.981C133.032 127.981 134.163 129.231 134.163 130.673C134.163 132.115 133.032 133.269 131.618 133.269C130.204 133.269 129.072 132.115 129.072 130.673C129.072 129.231 130.204 127.981 131.618 127.981ZM113.047 121.538C115.592 121.538 117.572 123.558 117.572 126.058V135.192C117.572 137.692 115.592 139.808 113.047 139.808H104.186C101.64 139.808 99.6606 137.692 99.6606 135.192V126.058C99.6606 123.558 101.64 121.538 104.186 121.538H113.047ZM122.568 102.596C122.568 100.096 124.642 98.077 127.093 98.077H136.048C138.499 98.077 140.479 100.096 140.479 102.596V111.731C140.479 114.231 138.499 116.25 136.048 116.25H127.093C124.642 116.25 122.568 114.231 122.568 111.731V102.596ZM113.047 98.077C115.498 98.077 117.477 100.096 117.477 102.596V111.731C117.477 114.231 115.498 116.25 113.047 116.25H104.091C101.546 116.25 99.5663 114.231 99.5663 111.731V102.596C99.5663 100.096 101.546 98.077 104.091 98.077H113.047ZM127.093 101.923C126.716 101.923 126.433 102.212 126.433 102.596V111.731C126.433 112.115 126.716 112.404 127.093 112.404H136.048C136.331 112.404 136.708 112.115 136.708 111.731V102.596C136.708 102.212 136.331 101.923 136.048 101.923H127.093ZM131.523 104.519C132.937 104.519 134.069 105.673 134.069 107.115V107.212C134.069 108.654 132.937 109.808 131.523 109.808C130.109 109.808 128.978 108.654 128.978 107.212V107.115C128.978 105.673 130.109 104.519 131.523 104.519ZM103.431 135.192C103.431 135.577 103.714 135.865 103.997 135.865H112.952C113.33 135.865 113.612 135.577 113.612 135.192V126.058C113.612 125.673 113.33 125.385 112.952 125.385H103.997C103.714 125.385 103.431 125.673 103.431 126.058V135.192ZM108.522 127.981C109.936 127.981 111.067 129.231 111.067 130.673C111.067 132.115 109.936 133.269 108.522 133.269C107.108 133.269 105.882 132.115 105.882 130.673C105.882 129.231 107.108 127.981 108.522 127.981ZM103.337 111.731C103.337 112.115 103.62 112.404 103.997 112.404H112.952C113.33 112.404 113.612 112.115 113.612 111.731V102.596C113.612 102.212 113.33 101.923 112.952 101.923H103.997C103.62 101.923 103.337 102.212 103.337 102.596V111.731ZM108.522 104.519C109.936 104.519 111.067 105.769 111.067 107.212C111.067 108.654 109.936 109.808 108.522 109.808H108.428C107.014 109.808 105.882 108.654 105.882 107.212C105.882 105.769 107.014 104.519 108.428 104.519H108.522ZM-61.6327 14.2308C-58.4276 14.1026 -55.2539 13.8141 -52.1116 13.3654C-51.0747 13.2693 -50.132 14.0385 -49.9435 15.0962C-49.5664 17.7885 -49.315 20.5449 -49.1893 23.3654C-49.095 24.8077 -50.2263 26.0577 -51.6403 26.0577C-52.6772 26.0577 -53.5257 25.3847 -54.1855 24.6154C-54.8454 23.8462 -55.6938 23.4616 -56.6365 23.4616C-58.7104 23.4616 -60.5015 25.7693 -60.5015 28.6539C-60.5015 31.5385 -58.7104 33.8462 -56.6365 33.8462C-55.6938 33.8462 -54.8454 33.4616 -54.1855 32.6923C-53.5257 31.9231 -52.6772 31.25 -51.6403 31.25C-50.132 31.25 -49.0008 32.5 -49.0008 33.9423C-49.1265 37.4039 -49.4093 40.8334 -49.8492 44.2308C-50.0377 45.0962 -50.6976 45.8654 -51.546 45.9616C-54.8768 46.4103 -58.2391 46.6988 -61.6327 46.827C-63.141 46.9231 -64.2723 45.6731 -64.2723 44.2308C-64.2723 43.1731 -63.6124 42.2116 -62.8582 41.5385C-62.1983 40.8654 -61.727 40 -61.727 39.0385C-61.727 36.9231 -63.9895 35.1923 -66.8175 35.1923C-69.6456 35.1923 -72.0023 36.9231 -72.0023 39.0385C-72.0023 40 -71.5309 40.8654 -70.7768 41.5385C-70.0226 42.2116 -69.457 43.077 -69.457 44.1347C-69.457 45.577 -70.5882 46.827 -72.0023 46.7308C-74.7675 46.5385 -77.5013 46.25 -80.2036 45.8654C-81.2406 45.6731 -81.9947 44.7116 -81.8062 43.6539C-81.3663 40.4488 -81.0835 37.2116 -80.9578 33.9423C-80.9578 32.5 -82.089 31.25 -83.5973 31.25C-84.6342 31.25 -85.4827 31.9231 -86.1425 32.6923C-86.8024 33.4616 -87.6508 33.8462 -88.5935 33.8462C-90.6674 33.8462 -92.4585 31.5385 -92.4585 28.6539C-92.4585 25.7693 -90.6674 23.4616 -88.5935 23.4616C-87.6508 23.4616 -86.8024 23.8462 -86.1425 24.6154C-85.4827 25.3847 -84.6342 26.0577 -83.5973 26.0577C-82.1833 26.0577 -81.0521 24.8077 -81.1463 23.3654C-81.272 20.7372 -81.5234 18.109 -81.9005 15.4808C-81.9947 14.9039 -81.8062 14.2308 -81.3349 13.8462C-80.9578 13.3654 -80.2979 13.1731 -79.7323 13.2693C-77.2185 13.6539 -74.6418 13.9423 -72.0023 14.1347C-70.5882 14.1347 -69.457 12.9808 -69.457 11.5385C-69.457 10.4808 -70.0226 9.61542 -70.7768 8.94235C-71.5309 8.26927 -72.0023 7.40388 -72.0023 6.44234C-72.0023 4.32696 -69.6456 2.59619 -66.8175 2.59619C-63.9895 2.59619 -61.727 4.32696 -61.727 6.44234C-61.727 7.40388 -62.1983 8.26927 -62.8582 8.94235C-63.6124 9.61542 -64.2723 10.577 -64.2723 11.6347C-64.2723 13.077 -63.141 14.2308 -61.6327 14.2308Z" fill="#0F172A"/>
<path fill-rule="evenodd" clip-rule="evenodd" d="M193.835 296.923C193.835 293.75 196.38 291.154 199.491 291.154H224.943C228.054 291.154 230.6 293.75 230.6 296.923V320C230.6 323.173 228.054 325.769 224.943 325.769H199.491C196.38 325.769 193.835 323.173 193.835 320V296.923ZM201.376 300.865L204.581 304.134L201.376 307.5C200.811 308.077 200.811 308.942 201.376 309.519C201.942 310.096 202.79 310.096 203.356 309.519L207.598 305.192C208.164 304.615 208.164 303.75 207.598 303.173L203.356 298.846C202.79 298.269 201.942 298.269 201.376 298.846C200.811 299.423 200.811 300.288 201.376 300.865ZM209.389 307.019C208.635 307.019 207.975 307.692 207.975 308.461C207.975 309.327 208.635 309.904 209.389 309.904H215.045C215.894 309.904 216.459 309.327 216.459 308.461C216.459 307.692 215.894 307.019 215.045 307.019H209.389ZM-658.729 11.6345C-658.729 8.46139 -656.184 5.86523 -653.073 5.86523H-627.621C-624.51 5.86523 -621.965 8.46139 -621.965 11.6345V30.3845C-621.965 33.6537 -624.51 36.1537 -627.621 36.1537H-633.277V36.7306C-633.277 37.8845 -632.805 38.9422 -632.051 39.7114L-630.826 40.9614C-630.449 41.346 -630.354 42.0191 -630.543 42.4998C-630.732 43.0768 -631.297 43.3652 -631.863 43.3652H-648.831C-649.397 43.3652 -649.868 43.0768 -650.151 42.4998C-650.339 42.0191 -650.245 41.346 -649.774 40.9614L-648.643 39.7114C-647.888 38.9422 -647.417 37.8845 -647.417 36.7306V36.1537H-653.073C-656.184 36.1537 -658.729 33.6537 -658.729 30.3845V11.6345ZM-655.901 11.6345V26.0575C-655.901 27.6922 -654.581 28.9422 -653.073 28.9422H-627.621C-626.018 28.9422 -624.793 27.6922 -624.793 26.0575V11.6345C-624.793 10.096 -626.018 8.74985 -627.621 8.74985H-653.073C-654.581 8.74985 -655.901 10.096 -655.901 11.6345ZM-631.863 317.115H-648.831V299.807H-631.863V317.115Z" fill="#0F172A"/>
<path fill-rule="evenodd" clip-rule="evenodd" d="M43.0997 308.462C43.0997 318.846 34.8041 327.212 24.7173 327.212C14.5363 327.212 6.33496 318.846 6.33496 308.462C6.33496 298.173 14.5363 289.712 24.7173 289.712C34.8041 289.712 43.0997 298.173 43.0997 308.462ZM22.5492 298.366C18.3071 298.366 14.8192 301.923 14.8192 306.346C14.8192 310.673 18.3071 314.231 22.5492 314.231C24.246 314.231 25.7543 313.75 26.9797 312.885L30.7505 316.731C31.3161 317.308 32.1646 317.308 32.7302 316.731C33.2958 316.154 33.2958 315.289 32.7302 314.712L28.9594 310.866C29.8079 309.519 30.3735 307.981 30.3735 306.346C30.3735 301.923 26.8855 298.366 22.5492 298.366ZM-52.2057 289.712C-51.4516 289.712 -50.7917 290.385 -50.7917 291.154C-50.7917 292.019 -51.4516 292.596 -52.2057 292.596H-53.6198V312.789C-53.6198 315.962 -56.165 318.558 -59.2759 318.558H-61.5383L-59.3701 325.385C-59.0873 326.058 -59.5587 326.923 -60.2186 327.212C-60.9727 327.404 -61.8211 327.019 -62.0097 326.25L-62.6696 324.327H-78.5067L-79.1665 326.25C-79.4493 327.019 -80.2035 327.404 -80.9577 327.212C-81.7118 326.923 -82.0888 326.058 -81.806 325.385L-79.6379 318.558H-81.9003C-85.0112 318.558 -87.5564 315.962 -87.5564 312.789V292.596H-88.9705C-89.8189 292.596 -90.3845 292.019 -90.3845 291.154C-90.3845 290.385 -89.8189 289.712 -88.9705 289.712H-52.2057ZM-69.1741 302.692C-69.1741 301.923 -69.834 301.25 -70.5881 301.25C-71.4366 301.25 -72.0022 301.923 -72.0022 302.692V309.904C-72.0022 310.769 -71.4366 311.346 -70.5881 311.346C-69.834 311.346 -69.1741 310.769 -69.1741 309.904V302.692ZM-63.518 298.366C-63.518 297.596 -64.1779 296.923 -64.932 296.923C-65.7804 296.923 -66.346 297.596 -66.346 298.366V309.904C-66.346 310.769 -65.7804 311.346 -64.932 311.346C-64.1779 311.346 -63.518 310.769 -63.518 309.904V298.366ZM-63.6122 321.442L-64.5549 318.558H-76.6213L-77.564 321.442H-63.6122ZM-74.9244 307.019C-74.9244 306.25 -75.4901 305.577 -76.3385 305.577C-77.0926 305.577 -77.7525 306.25 -77.7525 307.019V309.904C-77.7525 310.769 -77.0926 311.346 -76.3385 311.346C-75.4901 311.346 -74.9244 310.769 -74.9244 309.904V307.019ZM127.941 192.404C129.827 192.404 131.429 194.039 131.429 195.962V201.731C132.246 201.859 133.063 201.987 133.88 202.116C136.614 202.5 138.499 204.904 138.499 207.692V219.808C138.499 222.981 135.954 225.577 132.843 225.577H132.372L132.655 228.846C132.843 230.962 131.241 232.789 129.167 232.789H111.162C109.088 232.789 107.485 230.962 107.674 228.846L107.956 225.577H107.391C104.28 225.577 101.735 222.981 101.735 219.808V207.692C101.735 204.904 103.714 202.5 106.448 202.116C107.202 201.987 107.988 201.859 108.805 201.731V195.962C108.805 194.039 110.407 192.404 112.387 192.404H127.941ZM131.429 211.154C132.278 211.154 132.843 210.481 132.843 209.712C132.843 208.942 132.278 208.269 131.429 208.269C130.675 208.269 130.015 208.942 130.015 209.712C130.015 210.481 130.675 211.154 131.429 211.154ZM120.117 216.923C117.415 216.923 114.744 217.051 112.104 217.308C111.727 217.404 111.444 217.596 111.444 217.981L110.407 229.135C110.407 229.519 110.69 229.904 111.162 229.904H129.167C129.544 229.904 129.827 229.519 129.827 229.135L128.884 217.981C128.79 217.596 128.507 217.404 128.224 217.308C125.585 217.051 122.882 216.923 120.117 216.923ZM128.601 201.442V195.962C128.601 195.577 128.318 195.289 127.941 195.289H112.387C112.01 195.289 111.633 195.577 111.633 195.962V201.442C114.461 201.186 117.289 201.058 120.117 201.058C123.008 201.058 125.836 201.186 128.601 201.442ZM125.773 208.269C125.019 208.269 124.359 208.942 124.359 209.712C124.359 210.481 125.019 211.154 125.773 211.154C126.622 211.154 127.187 210.481 127.187 209.712C127.187 208.942 126.622 208.269 125.773 208.269ZM-182.956 311.346C-182.956 302.596 -175.98 295.481 -167.402 295.481C-166.648 295.481 -165.988 296.154 -165.988 296.923V309.904H-153.262C-152.507 309.904 -151.848 310.577 -151.848 311.346C-151.848 320.096 -158.823 327.212 -167.402 327.212C-175.98 327.212 -182.956 320.096 -182.956 311.346ZM-163.16 291.154C-163.16 290.385 -162.5 289.712 -161.746 289.712C-153.167 289.712 -146.191 296.827 -146.191 305.577C-146.191 306.442 -146.851 307.019 -147.605 307.019H-161.746C-162.5 307.019 -163.16 306.442 -163.16 305.577V291.154ZM-527.507 40.9617C-526.942 41.5386 -526.942 42.404 -527.507 42.9809C-528.073 43.5578 -528.921 43.5578 -529.487 42.9809L-563.424 8.3655C-563.989 7.78857 -563.989 6.92319 -563.424 6.34627C-562.858 5.76934 -562.01 5.76934 -561.444 6.34627L-527.507 40.9617ZM-525.716 35.577C-525.716 36.5386 -526.093 37.2117 -526.659 37.7886L-535.615 28.654V16.827L-530.524 11.6347C-528.733 9.90396 -525.716 11.154 -525.716 13.7501V35.577ZM-538.443 15.9617V25.6732L-553.62 10.1924H-544.099C-540.894 10.1924 -538.443 12.7886 -538.443 15.9617ZM-565.309 15.9617C-565.309 14.4232 -564.743 13.077 -563.801 12.0193L-539.574 36.7309C-540.611 38.1732 -542.213 39.0386 -544.099 39.0386H-559.653C-562.764 39.0386 -565.309 36.4424 -565.309 33.2693V15.9617Z" fill="#0F172A"/>
</g>
</g>
<defs>
<clipPath id="clip0_70_5403">
<rect width="50" height="50" fill="white"/>
</clipPath>
</defs>
</svg>
