<svg width="50" height="50" viewBox="0 0 50 50" fill="none" xmlns="http://www.w3.org/2000/svg">
<g clip-path="url(#clip0_70_5402)">
<mask id="mask0_70_5402" style="mask-type:luminance" maskUnits="userSpaceOnUse" x="-1056" y="-555" width="1494" height="1201">
<path d="M-1055.79 -554.902H437.425V645.098H-1055.79V-554.902Z" fill="white"/>
</mask>
<g mask="url(#mask0_70_5402)">
<path fill-rule="evenodd" clip-rule="evenodd" d="M-533.541 133.921C-534.295 134.706 -535.521 134.706 -536.275 133.921L-554.751 114.706V129.902C-554.751 130.98 -555.6 131.862 -556.637 131.862C-557.768 131.862 -558.616 130.98 -558.616 129.902V109.902C-558.616 108.823 -557.768 107.941 -556.637 107.941H-537.5C-536.463 107.941 -535.615 108.823 -535.615 109.902C-535.615 110.98 -536.463 111.862 -537.5 111.862H-552.018L-533.541 131.078C-532.787 131.862 -532.787 133.137 -533.541 133.921ZM-371.871 216.764C-371.871 205 -362.727 195.49 -351.414 195.49C-340.102 195.49 -330.958 205 -330.958 216.764C-330.958 228.529 -340.102 238.039 -351.414 238.039C-362.727 238.039 -371.871 228.529 -371.871 216.764ZM-353.394 225.392C-353.394 226.47 -352.546 227.353 -351.414 227.353C-350.377 227.353 -349.529 226.47 -349.529 225.392V213.235L-344.533 218.725C-343.779 219.608 -342.647 219.608 -341.799 218.921C-341.045 218.137 -341.045 216.862 -341.705 216.078L-350 206.764C-350.377 206.372 -350.943 206.078 -351.414 206.078C-351.98 206.078 -352.451 206.372 -352.828 206.764L-361.124 216.078C-361.878 216.862 -361.878 218.137 -361.03 218.921C-360.276 219.608 -359.05 219.608 -358.39 218.725L-353.394 213.235V225.392ZM-723.68 121.176C-723.68 122.255 -724.529 123.137 -725.66 123.137H-742.628L-737.067 128.333C-736.312 129.117 -736.312 130.392 -737.067 131.176C-737.727 131.961 -738.952 132.059 -739.706 131.274L-748.662 122.647C-749.039 122.255 -749.322 121.666 -749.322 121.176C-749.322 120.588 -749.039 120.098 -748.662 119.706L-739.706 111.078C-738.952 110.294 -737.727 110.392 -737.067 111.176C-736.312 111.961 -736.312 113.235 -737.067 113.921L-742.628 119.215H-725.66C-724.529 119.215 -723.68 120.098 -723.68 121.176ZM-181.448 206.078C-182.579 206.078 -183.428 206.961 -183.428 208.039V230.686C-183.428 231.764 -182.579 232.647 -181.448 232.647H-159.672C-158.635 232.647 -157.787 231.764 -157.787 230.686V220C-157.787 218.921 -156.938 218.039 -155.901 218.039C-154.77 218.039 -153.922 218.921 -153.922 220V230.686C-153.922 234.019 -156.561 236.666 -159.672 236.666H-181.448C-184.653 236.666 -187.293 234.019 -187.293 230.686V208.039C-187.293 204.706 -184.653 202.059 -181.448 202.059H-168.722C-167.591 202.059 -166.742 202.941 -166.742 204.019C-166.742 205.196 -167.591 206.078 -168.722 206.078H-181.448ZM-176.263 222.549L-153.073 200.686H-159.672C-160.709 200.686 -161.558 199.804 -161.558 198.725C-161.558 197.647 -160.709 196.764 -159.672 196.764H-148.077C-147.04 196.764 -146.192 197.647 -146.192 198.725V210.686C-146.192 211.764 -147.04 212.745 -148.077 212.745C-149.208 212.745 -150.057 211.764 -150.057 210.686V203.235L-173.718 225.49C-174.472 226.274 -175.698 226.176 -176.452 225.392C-177.112 224.51 -177.112 223.333 -176.263 222.549ZM-654.299 121.176C-654.299 120.098 -653.45 119.215 -652.413 119.215H-635.351L-640.913 113.921C-641.667 113.235 -641.667 111.961 -641.007 111.176C-640.253 110.392 -639.027 110.294 -638.273 111.078L-629.318 119.706C-628.941 120.098 -628.752 120.588 -628.752 121.176C-628.752 121.666 -628.941 122.255 -629.318 122.647L-638.273 131.274C-639.027 132.059 -640.253 131.961 -641.007 131.176C-641.667 130.392 -641.667 129.117 -640.913 128.333L-635.351 123.137H-652.413C-653.45 123.137 -654.299 122.255 -654.299 121.176ZM-452.376 127.059C-451.622 127.843 -451.622 129.117 -452.376 129.902C-453.13 130.686 -454.355 130.686 -455.11 129.902L-459.446 125.392C-459.32 128.202 -459.1 131.013 -458.786 133.823C-458.692 134.608 -458.032 135.294 -457.184 135.392C-454.167 135.653 -451.087 135.784 -447.945 135.784C-444.866 135.784 -441.818 135.653 -438.801 135.392C-437.953 135.294 -437.293 134.608 -437.199 133.823C-437.01 132.451 -436.884 131.045 -436.822 129.608C-436.727 128.529 -435.785 127.745 -434.748 127.843C-433.711 127.941 -432.862 128.823 -432.957 130C-433.082 131.438 -433.239 132.843 -433.428 134.215C-433.711 136.961 -435.785 139.117 -438.424 139.313C-441.566 139.64 -444.74 139.804 -447.945 139.804C-451.213 139.804 -454.418 139.64 -457.561 139.313C-460.2 139.117 -462.274 136.961 -462.557 134.215C-462.934 131.274 -463.154 128.3 -463.217 125.294L-467.742 129.902C-468.496 130.686 -469.721 130.686 -470.381 129.902C-471.135 129.117 -471.135 127.843 -470.381 127.059L-462.745 119.117C-461.991 118.333 -460.766 118.333 -460.012 119.117L-452.376 127.059ZM-457.184 106.961C-458.032 107.059 -458.692 107.647 -458.786 108.529C-458.975 109.902 -459.1 111.274 -459.163 112.647C-459.257 113.725 -460.2 114.608 -461.237 114.51C-462.274 114.411 -463.122 113.431 -463.028 112.353C-462.902 110.915 -462.777 109.477 -462.651 108.039C-462.274 105.294 -460.2 103.235 -457.561 102.941C-454.418 102.679 -451.245 102.549 -448.039 102.549C-444.771 102.549 -441.566 102.679 -438.424 102.941C-435.785 103.235 -433.711 105.294 -433.428 108.039C-433.051 111.045 -432.831 114.052 -432.768 117.059L-428.243 112.451C-427.489 111.666 -426.263 111.666 -425.604 112.451C-424.849 113.235 -424.849 114.411 -425.604 115.196L-433.239 123.235C-433.993 124.019 -435.219 124.019 -435.973 123.235L-443.609 115.196C-444.363 114.411 -444.363 113.235 -443.609 112.451C-442.855 111.666 -441.629 111.666 -440.875 112.451L-436.539 116.862C-436.664 114.052 -436.884 111.274 -437.199 108.529C-437.293 107.647 -437.953 107.059 -438.801 106.961C-441.818 106.634 -444.897 106.47 -448.039 106.47C-451.119 106.47 -454.167 106.634 -457.184 106.961ZM-265.347 110.784C-267.892 110.784 -269.966 108.627 -269.966 105.98C-269.966 103.235 -267.892 101.078 -265.347 101.078C-262.708 101.078 -260.634 103.235 -260.634 105.98C-260.634 108.627 -262.708 110.784 -265.347 110.784ZM-256.58 107.745C-257.523 107.745 -258.277 106.961 -258.277 105.98C-258.277 104.902 -257.523 104.117 -256.58 104.117H-243.76C-242.723 104.117 -241.969 104.902 -241.969 105.98C-241.969 106.961 -242.723 107.745 -243.76 107.745H-256.58ZM-272.323 105.98C-272.323 106.961 -273.077 107.745 -274.02 107.745H-277.508C-278.545 107.745 -279.299 106.961 -279.299 105.98C-279.299 105 -278.545 104.117 -277.508 104.117H-274.02C-273.077 104.117 -272.323 105 -272.323 105.98ZM-277.508 138.137C-278.545 138.137 -279.299 137.353 -279.299 136.274C-279.299 135.294 -278.545 134.51 -277.508 134.51H-274.02C-273.077 134.51 -272.323 135.294 -272.323 136.274C-272.323 137.353 -273.077 138.137 -274.02 138.137H-277.508ZM-256.486 138.137C-257.523 138.137 -258.277 137.353 -258.277 136.274C-258.277 135.294 -257.523 134.51 -256.486 134.51H-243.665C-242.723 134.51 -241.969 135.294 -241.969 136.274C-241.969 137.353 -242.723 138.137 -243.665 138.137H-256.486ZM-262.896 121.176C-262.896 122.157 -263.745 122.941 -264.687 122.941H-277.508C-278.451 122.941 -279.299 122.157 -279.299 121.176C-279.299 120.098 -278.451 119.313 -277.508 119.313H-264.687C-263.745 119.313 -262.896 120.098 -262.896 121.176ZM-247.153 122.941C-248.096 122.941 -248.944 122.157 -248.944 121.176C-248.944 120.098 -248.096 119.313 -247.153 119.313H-243.665C-242.723 119.313 -241.874 120.098 -241.874 121.176C-241.874 122.157 -242.723 122.941 -243.665 122.941H-247.153ZM-255.92 125.98C-258.466 125.98 -260.54 123.823 -260.54 121.176C-260.54 118.431 -258.466 116.274 -255.92 116.274C-253.281 116.274 -251.207 118.431 -251.207 121.176C-251.207 123.823 -253.281 125.98 -255.92 125.98ZM-265.253 141.176C-267.798 141.176 -269.872 139.019 -269.872 136.274C-269.872 133.627 -267.798 131.47 -265.253 131.47C-262.708 131.47 -260.54 133.627 -260.54 136.274C-260.54 139.019 -262.708 141.176 -265.253 141.176ZM107.296 6.47032C108.333 6.47032 109.181 7.35267 109.181 8.4311V41.6664C109.181 42.7448 108.333 43.6272 107.296 43.6272H103.431C102.394 43.6272 101.546 42.7448 101.546 41.6664V8.4311C101.546 7.35267 102.394 6.47032 103.431 6.47032H107.296ZM125.207 6.47032C126.244 6.47032 127.187 7.35267 127.187 8.4311V41.6664C127.187 42.7448 126.244 43.6272 125.207 43.6272H121.436C120.305 43.6272 119.457 42.7448 119.457 41.6664V8.4311C119.457 7.35267 120.305 6.47032 121.436 6.47032H125.207ZM12.2734 35.588L15.4786 27.2546C16.0443 25.8821 16.7983 24.7056 17.741 23.6272L35.4635 5.29385C37.5374 3.03895 41.0254 3.03895 43.0992 5.29385C45.2675 7.45071 45.2675 11.0782 43.0992 13.235L25.4711 31.6664C24.4341 32.6468 23.3029 33.4311 21.9831 34.0193L13.9703 37.3527C12.9333 37.8429 11.8964 36.7644 12.2734 35.588ZM7.37152 39.2154C7.37152 40.9801 8.78552 42.5488 10.4824 42.5488H34.8036C36.5947 42.5488 38.0087 40.9801 38.0087 39.2154V25.1958C38.0087 24.1174 38.8572 23.235 39.8941 23.235C41.0253 23.235 41.8738 24.1174 41.8738 25.1958V39.2154C41.8738 43.235 38.6686 46.4703 34.8036 46.4703H10.4824C6.61731 46.4703 3.50653 43.235 3.50653 39.2154V13.9213C3.50653 9.90169 6.61731 6.56836 10.4824 6.56836H23.9628C24.9998 6.56836 25.8481 7.45071 25.8481 8.62718C25.8481 9.70561 24.9998 10.588 23.9628 10.588H10.4824C8.78552 10.588 7.37152 12.0586 7.37152 13.9213V39.2154ZM-87.1797 33.5291L-59.2763 4.50954C-57.1082 2.25463 -53.7145 2.25463 -51.5463 4.50954C-49.4724 6.6664 -49.4724 10.2938 -51.5463 12.4507L-79.5441 41.4703C-80.4868 42.5488 -81.6179 43.3331 -82.9377 43.8233L-91.0447 47.2546C-92.0817 47.6468 -93.1187 46.5684 -92.6473 45.4899L-89.4423 37.1566C-88.9709 35.784 -88.1224 34.5095 -87.1797 33.5291ZM-187.104 103.921C-187.104 101.666 -185.408 99.9017 -183.334 99.9017H-180.317C-178.526 99.9017 -177.018 101.176 -176.641 103.039L-174.755 111.568C-174.378 113.627 -175.509 115.686 -177.489 116.274L-179.846 116.961C-180.883 117.353 -181.542 118.431 -181.071 119.51C-178.149 127.059 -172.304 133.039 -165.14 136.176C-164.103 136.568 -162.972 135.98 -162.689 134.902L-162.029 132.353C-161.463 130.392 -159.484 129.117 -157.504 129.608L-149.208 131.47C-147.512 131.862 -146.192 133.529 -146.192 135.392V138.431C-146.192 140.686 -147.983 142.451 -150.057 142.451H-153.922C-156.844 142.451 -159.672 142.059 -162.406 141.274C-173.907 138.137 -182.957 128.725 -186.067 116.666C-186.727 113.921 -187.104 110.882 -187.104 107.843V103.921Z" fill="#0F172A"/>
<path fill-rule="evenodd" clip-rule="evenodd" d="M-334.163 102.647C-331.052 102.647 -328.413 105.294 -328.413 108.627V133.823C-328.413 137.157 -331.052 139.804 -334.163 139.804H-368.665C-371.871 139.804 -374.416 137.157 -374.416 133.823V108.627C-374.416 105.294 -371.871 102.647 -368.665 102.647H-334.163ZM-361.03 110.588C-361.03 111.667 -360.181 112.647 -359.144 112.647C-358.013 112.647 -357.165 111.667 -357.165 110.588C-357.165 109.51 -358.013 108.627 -359.144 108.627C-360.181 108.627 -361.03 109.51 -361.03 110.588ZM-366.78 108.529C-367.817 108.529 -368.76 109.412 -368.76 110.588C-368.76 111.667 -367.817 112.549 -366.78 112.549C-365.743 112.549 -364.895 111.667 -364.895 110.588C-364.895 109.412 -365.743 108.529 -366.78 108.529ZM-370.645 118.529V133.823C-370.645 134.902 -369.797 135.784 -368.665 135.784H-334.163C-333.126 135.784 -332.278 134.902 -332.278 133.823V118.529H-370.645ZM-351.414 108.529C-352.545 108.529 -353.394 109.412 -353.394 110.588C-353.394 111.667 -352.545 112.549 -351.414 112.549C-350.377 112.549 -349.529 111.667 -349.529 110.588C-349.529 109.412 -350.377 108.529 -351.414 108.529ZM29.1476 137.157C30.5616 137.157 31.6928 138.333 31.6928 139.804C31.6928 141.274 30.5616 142.451 29.1476 142.451C27.7336 142.451 26.6024 141.274 26.6024 139.804C26.6024 138.333 27.7336 137.157 29.1476 137.157ZM39.3286 139.804C39.3286 138.333 40.4598 137.157 41.8738 137.157C43.2878 137.157 44.5134 138.333 44.5134 139.804C44.5134 141.274 43.2878 142.451 41.8738 142.451C40.4598 142.451 39.3286 141.274 39.3286 139.804ZM41.8738 123.823C43.2878 123.823 44.5134 125.098 44.5134 126.569C44.5134 128.039 43.2878 129.216 41.8738 129.216C40.4598 129.216 39.3286 128.039 39.3286 126.569C39.3286 125.098 40.4598 123.823 41.8738 123.823ZM26.5081 126.569C26.5081 125.098 27.6393 123.823 29.0533 123.823H29.1476C30.5616 123.823 31.6928 125.098 31.6928 126.569C31.6928 128.039 30.5616 129.216 29.1476 129.216H29.0533C27.6393 129.216 26.5081 128.039 26.5081 126.569ZM35.4636 130.49C36.8776 130.49 38.0088 131.765 38.0088 133.235C38.0088 134.706 36.8776 135.882 35.4636 135.882C34.0496 135.882 32.9183 134.706 32.9183 133.235C32.9183 131.765 34.0496 130.49 35.4636 130.49ZM16.8927 123.921C19.4379 123.921 21.4176 125.98 21.4176 128.529V137.843C21.4176 140.392 19.4379 142.549 16.8927 142.549H8.03146C5.48621 142.549 3.50656 140.392 3.50656 137.843V128.529C3.50656 125.98 5.48621 123.921 8.03146 123.921H16.8927ZM26.4138 104.608C26.4138 102.059 28.4877 99.9999 30.9387 99.9999H39.8942C42.3452 99.9999 44.3248 102.059 44.3248 104.608V113.921C44.3248 116.471 42.3452 118.529 39.8942 118.529H30.9387C28.4877 118.529 26.4138 116.471 26.4138 113.921V104.608ZM16.8927 99.9999C19.3437 99.9999 21.3233 102.059 21.3233 104.608V113.921C21.3233 116.471 19.3437 118.529 16.8927 118.529H7.93716C5.39194 118.529 3.41229 116.471 3.41229 113.921V104.608C3.41229 102.059 5.39194 99.9999 7.93716 99.9999H16.8927ZM30.9387 103.921C30.5616 103.921 30.2788 104.216 30.2788 104.608V113.921C30.2788 114.314 30.5616 114.608 30.9387 114.608H39.8942C40.177 114.608 40.5541 114.314 40.5541 113.921V104.608C40.5541 104.216 40.177 103.921 39.8942 103.921H30.9387ZM35.3693 106.569C36.7833 106.569 37.9146 107.745 37.9146 109.216V109.314C37.9146 110.784 36.7833 111.961 35.3693 111.961C33.9553 111.961 32.824 110.784 32.824 109.314V109.216C32.824 107.745 33.9553 106.569 35.3693 106.569ZM7.27731 137.843C7.27731 138.235 7.56009 138.529 7.8429 138.529H16.7984C17.1755 138.529 17.4583 138.235 17.4583 137.843V128.529C17.4583 128.137 17.1755 127.843 16.7984 127.843H7.8429C7.56009 127.843 7.27731 128.137 7.27731 128.529V137.843ZM12.3678 130.49C13.7818 130.49 14.913 131.765 14.913 133.235C14.913 134.706 13.7818 135.882 12.3678 135.882C10.9538 135.882 9.72827 134.706 9.72827 133.235C9.72827 131.765 10.9538 130.49 12.3678 130.49ZM7.18304 113.921C7.18304 114.314 7.46582 114.608 7.8429 114.608H16.7984C17.1755 114.608 17.4583 114.314 17.4583 113.921V104.608C17.4583 104.216 17.1755 103.921 16.7984 103.921H7.8429C7.46582 103.921 7.18304 104.216 7.18304 104.608V113.921ZM12.3678 106.569C13.7818 106.569 14.913 107.843 14.913 109.314C14.913 110.784 13.7818 111.961 12.3678 111.961H12.2735C10.8595 111.961 9.72827 110.784 9.72827 109.314C9.72827 107.843 10.8595 106.569 12.2735 106.569H12.3678ZM-157.787 14.5097C-154.582 14.379 -151.408 14.0849 -148.266 13.6274C-147.229 13.5293 -146.286 14.3136 -146.098 15.3921C-145.72 18.1372 -145.469 20.9476 -145.343 23.8234C-145.249 25.294 -146.38 26.5685 -147.794 26.5685C-148.831 26.5685 -149.68 25.8823 -150.34 25.098C-150.999 24.3136 -151.848 23.9215 -152.791 23.9215C-154.864 23.9215 -156.656 26.2744 -156.656 29.2156C-156.656 32.1568 -154.864 34.5097 -152.791 34.5097C-151.848 34.5097 -150.999 34.1176 -150.34 33.3332C-149.68 32.5489 -148.831 31.8627 -147.794 31.8627C-146.286 31.8627 -145.155 33.1372 -145.155 34.6078C-145.281 38.1372 -145.563 41.6339 -146.003 45.098C-146.192 45.9803 -146.852 46.7646 -147.7 46.8627C-151.031 47.3202 -154.393 47.6143 -157.787 47.745C-159.295 47.8431 -160.426 46.5685 -160.426 45.098C-160.426 44.0195 -159.766 43.0391 -159.012 42.3529C-158.352 41.6666 -157.881 40.7842 -157.881 39.8038C-157.881 37.647 -160.144 35.8823 -162.972 35.8823C-165.8 35.8823 -168.156 37.647 -168.156 39.8038C-168.156 40.7842 -167.685 41.6666 -166.931 42.3529C-166.177 43.0391 -165.611 43.9215 -165.611 44.9999C-165.611 46.4705 -166.742 47.745 -168.156 47.647C-170.922 47.4509 -173.655 47.1568 -176.358 46.7646C-177.395 46.5685 -178.149 45.5882 -177.96 44.5097C-177.52 41.2417 -177.238 37.9411 -177.112 34.6078C-177.112 33.1372 -178.243 31.8627 -179.751 31.8627C-180.788 31.8627 -181.637 32.5489 -182.297 33.3332C-182.956 34.1176 -183.805 34.5097 -184.748 34.5097C-186.821 34.5097 -188.613 32.1568 -188.613 29.2156C-188.613 26.2744 -186.821 23.9215 -184.748 23.9215C-183.805 23.9215 -182.956 24.3136 -182.297 25.098C-181.637 25.8823 -180.788 26.5685 -179.751 26.5685C-178.337 26.5685 -177.206 25.294 -177.3 23.8234C-177.426 21.1437 -177.677 18.464 -178.055 15.7842C-178.149 15.196 -177.96 14.5097 -177.489 14.1176C-177.112 13.6274 -176.452 13.4313 -175.886 13.5293C-173.373 13.9215 -170.796 14.2156 -168.156 14.4117C-166.742 14.4117 -165.611 13.2352 -165.611 11.7646C-165.611 10.6862 -166.177 9.80384 -166.931 9.11756C-167.685 8.43129 -168.156 7.54893 -168.156 6.56854C-168.156 4.41168 -165.8 2.64697 -162.972 2.64697C-160.144 2.64697 -157.881 4.41168 -157.881 6.56854C-157.881 7.54893 -158.352 8.43129 -159.012 9.11756C-159.766 9.80384 -160.426 10.7842 -160.426 11.8627C-160.426 13.3332 -159.295 14.5097 -157.787 14.5097Z" fill="#0F172A"/>
<path fill-rule="evenodd" clip-rule="evenodd" d="M97.6807 302.745C97.6807 299.51 100.226 296.863 103.337 296.863H128.789C131.9 296.863 134.445 299.51 134.445 302.745V326.275C134.445 329.51 131.9 332.157 128.789 332.157H103.337C100.226 332.157 97.6807 329.51 97.6807 326.275V302.745ZM105.222 306.765L108.427 310.098L105.222 313.529C104.657 314.118 104.657 315 105.222 315.588C105.788 316.177 106.636 316.177 107.202 315.588L111.444 311.177C112.01 310.588 112.01 309.706 111.444 309.118L107.202 304.706C106.636 304.118 105.788 304.118 105.222 304.706C104.657 305.294 104.657 306.177 105.222 306.765ZM113.235 313.039C112.481 313.039 111.821 313.726 111.821 314.51C111.821 315.392 112.481 315.98 113.235 315.98H118.891C119.74 315.98 120.305 315.392 120.305 314.51C120.305 313.726 119.74 313.039 118.891 313.039H113.235ZM-754.883 11.8628C-754.883 8.62753 -752.338 5.98047 -749.227 5.98047H-723.775C-720.664 5.98047 -718.119 8.62753 -718.119 11.8628V30.9805C-718.119 34.3138 -720.664 36.8628 -723.775 36.8628H-729.431V37.4511C-729.431 38.6275 -728.959 39.706 -728.205 40.4903L-726.98 41.7648C-726.603 42.1569 -726.509 42.8432 -726.697 43.3334C-726.886 43.9216 -727.451 44.2158 -728.017 44.2158H-744.985C-745.551 44.2158 -746.022 43.9216 -746.305 43.3334C-746.493 42.8432 -746.399 42.1569 -745.928 41.7648L-744.797 40.4903C-744.042 39.706 -743.571 38.6275 -743.571 37.4511V36.8628H-749.227C-752.338 36.8628 -754.883 34.3138 -754.883 30.9805V11.8628ZM-752.055 11.8628V26.5687C-752.055 28.2354 -750.735 29.5099 -749.227 29.5099H-723.775C-722.172 29.5099 -720.947 28.2354 -720.947 26.5687V11.8628C-720.947 10.2942 -722.172 8.92165 -723.775 8.92165H-749.227C-750.735 8.92165 -752.055 10.2942 -752.055 11.8628ZM-728.017 323.333H-744.985V305.686H-728.017V323.333Z" fill="#0F172A"/>
<path fill-rule="evenodd" clip-rule="evenodd" d="M-53.0544 314.51C-53.0544 325.098 -61.35 333.627 -71.4367 333.627C-81.6177 333.627 -89.8191 325.098 -89.8191 314.51C-89.8191 304.02 -81.6177 295.392 -71.4367 295.392C-61.35 295.392 -53.0544 304.02 -53.0544 314.51ZM-73.6049 304.216C-77.847 304.216 -81.3349 307.843 -81.3349 312.353C-81.3349 316.765 -77.847 320.392 -73.6049 320.392C-71.908 320.392 -70.3998 319.902 -69.1743 319.02L-65.4036 322.941C-64.838 323.529 -63.9895 323.529 -63.4239 322.941C-62.8583 322.353 -62.8583 321.47 -63.4239 320.882L-67.1946 316.961C-66.3462 315.588 -65.7806 314.02 -65.7806 312.353C-65.7806 307.843 -69.2686 304.216 -73.6049 304.216ZM-148.36 295.392C-147.606 295.392 -146.946 296.078 -146.946 296.863C-146.946 297.745 -147.606 298.333 -148.36 298.333H-149.774V318.921C-149.774 322.157 -152.319 324.804 -155.43 324.804H-157.692L-155.524 331.765C-155.241 332.451 -155.713 333.333 -156.373 333.627C-157.127 333.823 -157.975 333.431 -158.164 332.647L-158.824 330.686H-174.661L-175.321 332.647C-175.603 333.431 -176.358 333.823 -177.112 333.627C-177.866 333.333 -178.243 332.451 -177.96 331.765L-175.792 324.804H-178.054C-181.165 324.804 -183.71 322.157 -183.71 318.921V298.333H-185.125C-185.973 298.333 -186.539 297.745 -186.539 296.863C-186.539 296.078 -185.973 295.392 -185.125 295.392H-148.36ZM-165.328 308.627C-165.328 307.843 -165.988 307.157 -166.742 307.157C-167.591 307.157 -168.156 307.843 -168.156 308.627V315.98C-168.156 316.863 -167.591 317.451 -166.742 317.451C-165.988 317.451 -165.328 316.863 -165.328 315.98V308.627ZM-159.672 304.216C-159.672 303.431 -160.332 302.745 -161.086 302.745C-161.934 302.745 -162.5 303.431 -162.5 304.216V315.98C-162.5 316.863 -161.934 317.451 -161.086 317.451C-160.332 317.451 -159.672 316.863 -159.672 315.98V304.216ZM-159.766 327.745L-160.709 324.804H-172.775L-173.718 327.745H-159.766ZM-171.078 313.039C-171.078 312.255 -171.644 311.569 -172.493 311.569C-173.247 311.569 -173.907 312.255 -173.907 313.039V315.98C-173.907 316.863 -173.247 317.451 -172.493 317.451C-171.644 317.451 -171.078 316.863 -171.078 315.98V313.039ZM31.7873 196.176C33.6726 196.176 35.2752 197.843 35.2752 199.804V205.686C36.0922 205.817 36.9092 205.948 37.7262 206.078C40.46 206.47 42.3453 208.921 42.3453 211.765V224.118C42.3453 227.353 39.8001 230 36.6893 230H36.2179L36.5007 233.333C36.6892 235.49 35.0867 237.353 33.0128 237.353H15.0075C12.9336 237.353 11.331 235.49 11.5195 233.333L11.8024 230H11.2368C8.12592 230 5.58063 227.353 5.58063 224.118V211.765C5.58063 208.921 7.5603 206.47 10.2941 206.078C11.0482 205.948 11.8338 205.817 12.6508 205.686V199.804C12.6508 197.843 14.2534 196.176 16.233 196.176H31.7873ZM35.2752 215.294C36.1237 215.294 36.6893 214.608 36.6893 213.823C36.6893 213.039 36.1237 212.353 35.2752 212.353C34.5211 212.353 33.8612 213.039 33.8612 213.823C33.8612 214.608 34.5211 215.294 35.2752 215.294ZM23.963 221.176C21.2606 221.176 18.5897 221.307 15.9502 221.569C15.5731 221.667 15.2903 221.863 15.2903 222.255L14.2533 233.627C14.2533 234.02 14.5361 234.412 15.0075 234.412H33.0128C33.3898 234.412 33.6726 234.02 33.6726 233.627L32.73 222.255C32.6357 221.863 32.3528 221.667 32.0701 221.569C29.4305 221.307 26.7282 221.176 23.963 221.176ZM32.4471 205.392V199.804C32.4471 199.412 32.1644 199.118 31.7873 199.118H16.233C15.8559 199.118 15.4788 199.412 15.4788 199.804V205.392C18.3069 205.131 21.1349 205 23.963 205C26.8539 205 29.6819 205.131 32.4471 205.392ZM29.6191 212.353C28.8649 212.353 28.2051 213.039 28.2051 213.823C28.2051 214.608 28.8649 215.294 29.6191 215.294C30.4675 215.294 31.0331 214.608 31.0331 213.823C31.0331 213.039 30.4675 212.353 29.6191 212.353ZM-279.11 317.451C-279.11 308.529 -272.134 301.274 -263.556 301.274C-262.802 301.274 -262.142 301.961 -262.142 302.745V315.98H-249.416C-248.661 315.98 -248.002 316.667 -248.002 317.451C-248.002 326.372 -254.977 333.627 -263.556 333.627C-272.134 333.627 -279.11 326.372 -279.11 317.451ZM-259.314 296.863C-259.314 296.078 -258.654 295.392 -257.9 295.392C-249.321 295.392 -242.345 302.647 -242.345 311.569C-242.345 312.451 -243.005 313.039 -243.76 313.039H-257.9C-258.654 313.039 -259.314 312.451 -259.314 311.569V296.863ZM-623.661 41.7646C-623.096 42.3528 -623.096 43.2352 -623.661 43.8234C-624.227 44.4117 -625.076 44.4117 -625.641 43.8234L-659.578 8.5293C-660.143 7.94106 -660.143 7.05871 -659.578 6.47047C-659.012 5.88224 -658.164 5.88224 -657.598 6.47047L-623.661 41.7646ZM-621.87 36.2744C-621.87 37.2548 -622.247 37.9411 -622.813 38.5293L-631.769 29.2156V17.1567L-626.678 11.8626C-624.887 10.0979 -621.87 11.3724 -621.87 14.0195V36.2744ZM-634.597 16.2744V26.1764L-649.774 10.392H-640.253C-637.048 10.392 -634.597 13.0391 -634.597 16.2744ZM-661.463 16.2744C-661.463 14.7058 -660.897 13.3332 -659.955 12.2548L-635.728 37.4509C-636.765 38.9215 -638.367 39.8038 -640.253 39.8038H-655.807C-658.918 39.8038 -661.463 37.1567 -661.463 33.9215V16.2744Z" fill="#0F172A"/>
</g>
</g>
<defs>
<clipPath id="clip0_70_5402">
<rect width="50" height="50" fill="white"/>
</clipPath>
</defs>
</svg>
