<svg width="50" height="50" viewBox="0 0 50 50" fill="none" xmlns="http://www.w3.org/2000/svg">
<g clip-path="url(#clip0_70_5430)">
<mask id="mask0_70_5430" style="mask-type:luminance" maskUnits="userSpaceOnUse" x="-818" y="-862" width="1584" height="1224">
<path d="M-818 -862H766V362H-818V-862Z" fill="white"/>
</mask>
<g mask="url(#mask0_70_5430)">
<path fill-rule="evenodd" clip-rule="evenodd" d="M405.6 12.8001C405.6 9.50009 408.3 6.80008 411.6 6.80008H438.6C441.9 6.80008 444.6 9.50009 444.6 12.8001V36.8001C444.6 40.1001 441.9 42.8001 438.6 42.8001H411.6C408.3 42.8001 405.6 40.1001 405.6 36.8001V12.8001ZM413.6 16.9001L417 20.3001L413.6 23.8001C413 24.4001 413 25.3001 413.6 25.9001C414.2 26.5001 415.1 26.5001 415.7 25.9001L420.2 21.4001C420.8 20.8001 420.8 19.9001 420.2 19.3001L415.7 14.8001C415.1 14.2001 414.2 14.2001 413.6 14.8001C413 15.4001 413 16.3001 413.6 16.9001ZM422.1 23.3001C421.3 23.3001 420.6 24.0001 420.6 24.8001C420.6 25.7001 421.3 26.3001 422.1 26.3001H428.1C429 26.3001 429.6 25.7001 429.6 24.8001C429.6 24.0001 429 23.3001 428.1 23.3001H422.1ZM-498.8 -283.9C-498.8 -287.2 -496.1 -289.9 -492.8 -289.9H-465.8C-462.5 -289.9 -459.8 -287.2 -459.8 -283.9V-264.4C-459.8 -261 -462.5 -258.4 -465.8 -258.4H-471.8V-257.8C-471.8 -256.6 -471.3 -255.5 -470.5 -254.7L-469.2 -253.4C-468.8 -253 -468.7 -252.3 -468.9 -251.8C-469.1 -251.2 -469.7 -250.9 -470.3 -250.9H-488.3C-488.9 -250.9 -489.4 -251.2 -489.7 -251.8C-489.9 -252.3 -489.8 -253 -489.3 -253.4L-488.1 -254.7C-487.3 -255.5 -486.8 -256.6 -486.8 -257.8V-258.4H-492.8C-496.1 -258.4 -498.8 -261 -498.8 -264.4V-283.9ZM-495.8 -283.9V-268.9C-495.8 -267.2 -494.4 -265.9 -492.8 -265.9H-465.8C-464.1 -265.9 -462.8 -267.2 -462.8 -268.9V-283.9C-462.8 -285.5 -464.1 -286.9 -465.8 -286.9H-492.8C-494.4 -286.9 -495.8 -285.5 -495.8 -283.9ZM-470.3 33.8001H-488.3V15.8001H-470.3V33.8001Z" fill="#0F172A"/>
<path fill-rule="evenodd" clip-rule="evenodd" d="M-391.4 -95.8999H-384.6C-380.5 -95.8999 -377.1 -92.5999 -377.1 -88.3999V-84.6999C-377.1 -82.5999 -375.4 -80.8999 -373.4 -80.8999H-369.6C-365.5 -80.8999 -362.1 -77.5999 -362.1 -73.3999V-57.6999C-362.1 -55.5999 -363.8 -53.8999 -365.9 -53.8999H-391.4C-393.4 -53.8999 -395.1 -55.5999 -395.1 -57.6999V-92.1999C-395.1 -94.1999 -393.4 -95.8999 -391.4 -95.8999ZM-379.4 -62.8999C-378 -62.8999 -376.8 -63.2999 -375.8 -63.9999L-373.7 -61.8999C-373.1 -61.2999 -372.1 -61.2999 -371.6 -61.8999C-371 -62.3999 -371 -63.3999 -371.6 -63.9999L-373.7 -66.0999C-373 -67.0999 -372.6 -68.2999 -372.6 -69.6999C-372.6 -73.3999 -375.6 -76.3999 -379.4 -76.3999C-383.1 -76.3999 -386.1 -73.3999 -386.1 -69.6999C-386.1 -65.8999 -383.1 -62.8999 -379.4 -62.8999ZM-374.1 -88.3999C-374.1 -90.9999 -375.1 -93.3999 -376.7 -95.2999C-369.9 -93.4999 -364.5 -88.1999 -362.7 -81.3999C-364.6 -82.9999 -367 -83.8999 -369.6 -83.8999H-373.4C-373.8 -83.8999 -374.1 -84.2999 -374.1 -84.6999V-88.3999ZM-188.3 -54.1999C-191.6 -54.1999 -194.3 -56.8999 -194.3 -60.1999V-76.4999L-180.6 -68.4999L-187.5 -64.6999C-188.3 -64.2999 -188.5 -63.3999 -188.1 -62.6999C-187.8 -61.9999 -186.8 -61.6999 -186.1 -62.0999L-174.7 -68.1999C-173.9 -68.6999 -172.8 -68.6999 -171.9 -68.1999L-160.5 -62.0999C-159.8 -61.6999 -158.9 -61.9999 -158.5 -62.6999C-158.1 -63.3999 -158.4 -64.2999 -159.1 -64.6999L-166.1 -68.4999L-152.3 -76.4999V-60.1999C-152.3 -56.8999 -155 -54.1999 -158.3 -54.1999H-188.3ZM-194.3 -79.9999V-81.4999C-194.3 -83.6999 -193.1 -85.6999 -191.2 -86.7999L-176.2 -94.7999C-174.4 -95.7999 -172.3 -95.7999 -170.5 -94.7999L-155.5 -86.7999C-153.5 -85.6999 -152.3 -83.6999 -152.3 -81.4999V-79.9999L-169.2 -70.0999L-170.5 -70.7999C-172.3 -71.7999 -174.4 -71.7999 -176.2 -70.7999L-177.5 -70.0999L-194.3 -79.9999ZM-73.8001 36.8001C-73.8001 35.2001 -72.4001 33.8001 -70.8001 33.8001C-69.1001 33.8001 -67.8001 35.2001 -67.8001 36.8001C-67.8001 38.5001 -69.1001 39.8001 -70.8001 39.8001C-72.4001 39.8001 -73.8001 38.5001 -73.8001 36.8001ZM-73.8001 24.8001C-73.8001 23.2001 -72.4001 21.8001 -70.8001 21.8001C-69.1001 21.8001 -67.8001 23.2001 -67.8001 24.8001C-67.8001 26.5001 -69.1001 27.8001 -70.8001 27.8001C-72.4001 27.8001 -73.8001 26.5001 -73.8001 24.8001ZM-73.8001 12.8001C-73.8001 11.2001 -72.4001 9.8001 -70.8001 9.8001C-69.1001 9.8001 -67.8001 11.2001 -67.8001 12.8001C-67.8001 14.5001 -69.1001 15.8001 -70.8001 15.8001C-72.4001 15.8001 -73.8001 14.5001 -73.8001 12.8001ZM-176.4 29.2001C-174.5 30.3001 -172.1 30.3001 -170.1 29.2001L-152.3 18.2001V35.3001C-152.3 38.6001 -155 41.3001 -158.3 41.3001H-188.3C-191.6 41.3001 -194.3 38.6001 -194.3 35.3001V18.2001L-176.4 29.2001ZM-171.7 26.6001C-172.6 27.2001 -173.8 27.2001 -174.8 26.6001L-194.2 14.7001V14.3001C-194.2 11.0001 -191.5 8.3001 -188.2 8.3001H-158.2C-154.9 8.3001 -152.2 11.0001 -152.2 14.3001V14.7001L-171.7 26.6001ZM-285.6 35.3001C-285.6 34.5001 -284.9 33.8001 -284.1 33.8001H-260.1C-259.3 33.8001 -258.6 34.5001 -258.6 35.3001C-258.6 36.1001 -259.3 36.8001 -260.1 36.8001H-284.1C-284.9 36.8001 -285.6 36.1001 -285.6 35.3001ZM-295.4 35.3001C-295.4 34.0001 -294.4 33.0001 -293.1 33.0001C-291.9 33.0001 -290.9 34.0001 -290.9 35.3001C-290.9 36.5001 -291.9 37.5001 -293.1 37.5001C-294.4 37.5001 -295.4 36.5001 -295.4 35.3001ZM-285.6 24.8001C-285.6 24.0001 -284.9 23.3001 -284.1 23.3001H-260.1C-259.3 23.3001 -258.6 24.0001 -258.6 24.8001C-258.6 25.6001 -259.3 26.3001 -260.1 26.3001H-284.1C-284.9 26.3001 -285.6 25.6001 -285.6 24.8001ZM-295.4 24.8001C-295.4 23.5001 -294.4 22.5001 -293.1 22.5001C-291.9 22.5001 -290.9 23.5001 -290.9 24.8001C-290.9 26.0001 -291.9 27.0001 -293.1 27.0001C-294.4 27.0001 -295.4 26.0001 -295.4 24.8001ZM-285.6 14.3001C-285.6 13.5001 -284.9 12.8001 -284.1 12.8001H-260.1C-259.3 12.8001 -258.6 13.5001 -258.6 14.3001C-258.6 15.1001 -259.3 15.8001 -260.1 15.8001H-284.1C-284.9 15.8001 -285.6 15.1001 -285.6 14.3001ZM-295.4 14.3001C-295.4 13.0001 -294.4 12.0001 -293.1 12.0001C-291.9 12.0001 -290.9 13.0001 -290.9 14.3001C-290.9 15.5001 -291.9 16.5001 -293.1 16.5001C-294.4 16.5001 -295.4 15.5001 -295.4 14.3001ZM218.7 22.5001C218.7 19.6001 221 17.3001 223.9 17.3001C226.8 17.3001 229.2 19.6001 229.2 22.5001C229.2 24.0001 228.6 25.3001 227.7 26.3001C226.7 27.2001 225.4 27.8001 223.9 27.8001C221 27.8001 218.7 25.4001 218.7 22.5001Z" fill="#0F172A"/>
<path fill-rule="evenodd" clip-rule="evenodd" d="M245.7 24.7999C245.7 35.5999 236.9 44.2999 226.2 44.2999C215.4 44.2999 206.7 35.5999 206.7 24.7999C206.7 14.0999 215.4 5.2999 226.2 5.2999C236.9 5.2999 245.7 14.0999 245.7 24.7999ZM223.9 14.2999C219.4 14.2999 215.7 17.9999 215.7 22.5999C215.7 27.0999 219.4 30.7999 223.9 30.7999C225.7 30.7999 227.3 30.2999 228.6 29.3999L232.6 33.3999C233.2 33.9999 234.1 33.9999 234.7 33.3999C235.3 32.7999 235.3 31.8999 234.7 31.2999L230.7 27.2999C231.6 25.8999 232.2 24.2999 232.2 22.5999C232.2 17.9999 228.5 14.2999 223.9 14.2999ZM144.6 5.2999C145.4 5.2999 146.1 5.99991 146.1 6.7999C146.1 7.69989 145.4 8.2999 144.6 8.2999H143.1V29.2999C143.1 32.5999 140.4 35.2999 137.1 35.2999H134.7L137 42.3999C137.3 43.0999 136.8 43.9999 136.1 44.2999C135.3 44.4999 134.4 44.0999 134.2 43.2999L133.5 41.2999H116.7L116 43.2999C115.7 44.0999 114.9 44.4999 114.1 44.2999C113.3 43.9999 112.9 43.0999 113.2 42.3999L115.5 35.2999H113.1C109.8 35.2999 107.1 32.5999 107.1 29.2999V8.2999H105.6C104.7 8.2999 104.1 7.69989 104.1 6.7999C104.1 5.99991 104.7 5.2999 105.6 5.2999H144.6ZM126.6 18.7999C126.6 17.9999 125.9 17.2999 125.1 17.2999C124.2 17.2999 123.6 17.9999 123.6 18.7999V26.2999C123.6 27.1999 124.2 27.7999 125.1 27.7999C125.9 27.7999 126.6 27.1999 126.6 26.2999V18.7999ZM132.6 14.2999C132.6 13.4999 131.9 12.7999 131.1 12.7999C130.2 12.7999 129.6 13.4999 129.6 14.2999V26.2999C129.6 27.1999 130.2 27.7999 131.1 27.7999C131.9 27.7999 132.6 27.1999 132.6 26.2999V14.2999ZM132.5 38.2999L131.5 35.2999H118.7L117.7 38.2999H132.5ZM120.5 23.2999C120.5 22.4999 119.9 21.7999 119 21.7999C118.2 21.7999 117.5 22.4999 117.5 23.2999V26.2999C117.5 27.1999 118.2 27.7999 119 27.7999C119.9 27.7999 120.5 27.1999 120.5 26.2999V23.2999ZM335.7 -95.9001C337.7 -95.9001 339.4 -94.2001 339.4 -92.2001V-86.2001C340.266 -86.0668 341.133 -85.9334 342 -85.8001C344.9 -85.4001 346.9 -82.9001 346.9 -80.0001V-67.4001C346.9 -64.1001 344.2 -61.4001 340.9 -61.4001H340.4L340.7 -58.0001C340.9 -55.8001 339.2 -53.9001 337 -53.9001H317.9C315.7 -53.9001 314 -55.8001 314.2 -58.0001L314.5 -61.4001H313.9C310.6 -61.4001 307.9 -64.1001 307.9 -67.4001V-80.0001C307.9 -82.9001 310 -85.4001 312.9 -85.8001C313.7 -85.9334 314.533 -86.0668 315.4 -86.2001V-92.2001C315.4 -94.2001 317.1 -95.9001 319.2 -95.9001H335.7ZM339.4 -76.4001C340.3 -76.4001 340.9 -77.1001 340.9 -77.9001C340.9 -78.7001 340.3 -79.4001 339.4 -79.4001C338.6 -79.4001 337.9 -78.7001 337.9 -77.9001C337.9 -77.1001 338.6 -76.4001 339.4 -76.4001ZM327.4 -70.4001C324.533 -70.4001 321.7 -70.2668 318.9 -70.0001C318.5 -69.9001 318.2 -69.7001 318.2 -69.3001L317.1 -57.7001C317.1 -57.3001 317.4 -56.9001 317.9 -56.9001H337C337.4 -56.9001 337.7 -57.3001 337.7 -57.7001L336.7 -69.3001C336.6 -69.7001 336.3 -69.9001 336 -70.0001C333.2 -70.2668 330.333 -70.4001 327.4 -70.4001ZM336.4 -86.5001V-92.2001C336.4 -92.6001 336.1 -92.9001 335.7 -92.9001H319.2C318.8 -92.9001 318.4 -92.6001 318.4 -92.2001V-86.5001C321.4 -86.7668 324.4 -86.9001 327.4 -86.9001C330.466 -86.9001 333.466 -86.7668 336.4 -86.5001ZM333.4 -79.4001C332.6 -79.4001 331.9 -78.7001 331.9 -77.9001C331.9 -77.1001 332.6 -76.4001 333.4 -76.4001C334.3 -76.4001 334.9 -77.1001 334.9 -77.9001C334.9 -78.7001 334.3 -79.4001 333.4 -79.4001ZM5.89981 27.7999C5.89981 18.6999 13.2998 11.2999 22.3998 11.2999C23.1998 11.2999 23.8998 11.9999 23.8998 12.7999V26.2999H37.3998C38.1998 26.2999 38.8998 26.9999 38.8998 27.7999C38.8998 36.8999 31.4998 44.2999 22.3998 44.2999C13.2998 44.2999 5.89981 36.8999 5.89981 27.7999ZM26.8998 6.7999C26.8998 5.99991 27.5998 5.2999 28.3998 5.2999C37.4998 5.2999 44.8998 12.6999 44.8998 21.7999C44.8998 22.6999 44.1998 23.2999 43.3998 23.2999H28.3998C27.5998 23.2999 26.8998 22.6999 26.8998 21.7999V6.7999ZM-359.6 -253.4C-359 -252.8 -359 -251.9 -359.6 -251.3C-360.2 -250.7 -361.1 -250.7 -361.7 -251.3L-397.7 -287.3C-398.3 -287.9 -398.3 -288.8 -397.7 -289.4C-397.1 -290 -396.2 -290 -395.6 -289.4L-359.6 -253.4ZM-357.7 -259C-357.7 -258 -358.1 -257.3 -358.7 -256.7L-368.2 -266.2V-278.5L-362.8 -283.9C-360.9 -285.7 -357.7 -284.4 -357.7 -281.7V-259ZM-371.2 -279.4V-269.3L-387.3 -285.4H-377.2C-373.8 -285.4 -371.2 -282.7 -371.2 -279.4ZM-399.7 -279.4C-399.7 -281 -399.1 -282.4 -398.1 -283.5L-372.4 -257.8C-373.5 -256.3 -375.2 -255.4 -377.2 -255.4H-393.7C-397 -255.4 -399.7 -258.1 -399.7 -261.4V-279.4Z" fill="#0F172A"/>
</g>
</g>
<defs>
<clipPath id="clip0_70_5430">
<rect width="50" height="50" fill="white"/>
</clipPath>
</defs>
</svg>
