<svg width="52" height="50" viewBox="0 0 52 50" fill="none" xmlns="http://www.w3.org/2000/svg">
<g clip-path="url(#clip0_70_5405)">
<mask id="mask0_70_5405" style="mask-type:luminance" maskUnits="userSpaceOnUse" x="-849" y="-590" width="1648" height="1274">
<path d="M-848.64 -589.64H798.72V683.32H-848.64V-589.64Z" fill="white"/>
</mask>
<g mask="url(#mask0_70_5405)">
<path fill-rule="evenodd" clip-rule="evenodd" d="M-272.48 141.064C-273.312 141.896 -274.664 141.896 -275.496 141.064L-295.88 120.68V136.8C-295.88 137.944 -296.816 138.88 -297.96 138.88C-299.208 138.88 -300.144 137.944 -300.144 136.8V115.584C-300.144 114.44 -299.208 113.504 -297.96 113.504H-276.848C-275.704 113.504 -274.768 114.44 -274.768 115.584C-274.768 116.728 -275.704 117.664 -276.848 117.664H-292.864L-272.48 138.048C-271.648 138.88 -271.648 140.232 -272.48 141.064ZM-94.1199 228.944C-94.1199 216.464 -84.0319 206.376 -71.5519 206.376C-59.0719 206.376 -48.9839 216.464 -48.9839 228.944C-48.9839 241.424 -59.0719 251.512 -71.5519 251.512C-84.0319 251.512 -94.1199 241.424 -94.1199 228.944ZM-73.7359 238.096C-73.7359 239.24 -72.7999 240.176 -71.5519 240.176C-70.4079 240.176 -69.4719 239.24 -69.4719 238.096V225.2L-63.9599 231.024C-63.1279 231.96 -61.8799 231.96 -60.9439 231.232C-60.1119 230.4 -60.1119 229.048 -60.8399 228.216L-69.9919 218.336C-70.4079 217.92 -71.0319 217.608 -71.5519 217.608C-72.1759 217.608 -72.6959 217.92 -73.1119 218.336L-82.2639 228.216C-83.0959 229.048 -83.0959 230.4 -82.1599 231.232C-81.3279 231.96 -79.9759 231.96 -79.2479 231.024L-73.7359 225.2V238.096ZM-482.248 127.544C-482.248 128.688 -483.184 129.624 -484.432 129.624H-503.152L-497.016 135.136C-496.184 135.968 -496.184 137.32 -497.016 138.152C-497.744 138.984 -499.096 139.088 -499.928 138.256L-509.808 129.104C-510.224 128.688 -510.536 128.064 -510.536 127.544C-510.536 126.92 -510.224 126.4 -509.808 125.984L-499.928 116.832C-499.096 116 -497.744 116.104 -497.016 116.936C-496.184 117.768 -496.184 119.12 -497.016 119.848L-503.152 125.464H-484.432C-483.184 125.464 -482.248 126.4 -482.248 127.544ZM115.96 217.608C114.712 217.608 113.776 218.544 113.776 219.688V243.712C113.776 244.856 114.712 245.792 115.96 245.792H139.984C141.128 245.792 142.064 244.856 142.064 243.712V232.376C142.064 231.232 143 230.296 144.144 230.296C145.392 230.296 146.328 231.232 146.328 232.376V243.712C146.328 247.248 143.416 250.056 139.984 250.056H115.96C112.424 250.056 109.512 247.248 109.512 243.712V219.688C109.512 216.152 112.424 213.344 115.96 213.344H130C131.248 213.344 132.184 214.28 132.184 215.424C132.184 216.672 131.248 217.608 130 217.608H115.96ZM121.68 235.08L147.264 211.888H139.984C138.84 211.888 137.904 210.952 137.904 209.808C137.904 208.664 138.84 207.728 139.984 207.728H152.776C153.92 207.728 154.856 208.664 154.856 209.808V222.496C154.856 223.64 153.92 224.68 152.776 224.68C151.528 224.68 150.592 223.64 150.592 222.496V214.592L124.488 238.2C123.656 239.032 122.304 238.928 121.472 238.096C120.744 237.16 120.744 235.912 121.68 235.08ZM-405.704 127.544C-405.704 126.4 -404.768 125.464 -403.624 125.464H-384.8L-390.936 119.848C-391.768 119.12 -391.768 117.768 -391.04 116.936C-390.208 116.104 -388.856 116 -388.024 116.832L-378.144 125.984C-377.728 126.4 -377.52 126.92 -377.52 127.544C-377.52 128.064 -377.728 128.688 -378.144 129.104L-388.024 138.256C-388.856 139.088 -390.208 138.984 -391.04 138.152C-391.768 137.32 -391.768 135.968 -390.936 135.136L-384.8 129.624H-403.624C-404.768 129.624 -405.704 128.688 -405.704 127.544ZM-182.936 133.784C-182.104 134.616 -182.104 135.968 -182.936 136.8C-183.768 137.632 -185.12 137.632 -185.952 136.8L-190.736 132.016C-190.597 134.997 -190.355 137.978 -190.008 140.96C-189.904 141.792 -189.176 142.52 -188.24 142.624C-184.912 142.901 -181.515 143.04 -178.048 143.04C-174.651 143.04 -171.288 142.901 -167.96 142.624C-167.024 142.52 -166.296 141.792 -166.192 140.96C-165.984 139.504 -165.845 138.013 -165.776 136.488C-165.672 135.344 -164.632 134.512 -163.488 134.616C-162.344 134.72 -161.408 135.656 -161.512 136.904C-161.651 138.429 -161.824 139.92 -162.032 141.376C-162.344 144.288 -164.632 146.576 -167.544 146.784C-171.011 147.13 -174.512 147.304 -178.048 147.304C-181.653 147.304 -185.189 147.13 -188.656 146.784C-191.568 146.576 -193.856 144.288 -194.168 141.376C-194.584 138.256 -194.827 135.101 -194.896 131.912L-199.888 136.8C-200.72 137.632 -202.072 137.632 -202.8 136.8C-203.632 135.968 -203.632 134.616 -202.8 133.784L-194.376 125.36C-193.544 124.528 -192.192 124.528 -191.36 125.36L-182.936 133.784ZM-188.24 112.464C-189.176 112.568 -189.904 113.192 -190.008 114.128C-190.216 115.584 -190.355 117.04 -190.424 118.496C-190.528 119.64 -191.568 120.576 -192.712 120.472C-193.856 120.368 -194.792 119.328 -194.688 118.184C-194.549 116.658 -194.411 115.133 -194.272 113.608C-193.856 110.696 -191.568 108.512 -188.656 108.2C-185.189 107.922 -181.688 107.784 -178.152 107.784C-174.547 107.784 -171.011 107.922 -167.544 108.2C-164.632 108.512 -162.344 110.696 -162.032 113.608C-161.616 116.797 -161.373 119.986 -161.304 123.176L-156.312 118.288C-155.48 117.456 -154.128 117.456 -153.4 118.288C-152.568 119.12 -152.568 120.368 -153.4 121.2L-161.824 129.728C-162.656 130.56 -164.008 130.56 -164.84 129.728L-173.264 121.2C-174.096 120.368 -174.096 119.12 -173.264 118.288C-172.432 117.456 -171.08 117.456 -170.248 118.288L-165.464 122.968C-165.603 119.986 -165.845 117.04 -166.192 114.128C-166.296 113.192 -167.024 112.568 -167.96 112.464C-171.288 112.117 -174.685 111.944 -178.152 111.944C-181.549 111.944 -184.912 112.117 -188.24 112.464ZM23.4001 116.52C20.5921 116.52 18.3041 114.232 18.3041 111.424C18.3041 108.512 20.5921 106.224 23.4001 106.224C26.3121 106.224 28.6001 108.512 28.6001 111.424C28.6001 114.232 26.3121 116.52 23.4001 116.52ZM33.0721 113.296C32.0321 113.296 31.2001 112.464 31.2001 111.424C31.2001 110.28 32.0321 109.448 33.0721 109.448H47.2161C48.3601 109.448 49.1921 110.28 49.1921 111.424C49.1921 112.464 48.3601 113.296 47.2161 113.296H33.0721ZM15.7041 111.424C15.7041 112.464 14.8721 113.296 13.8321 113.296H9.98407C8.84009 113.296 8.00812 112.464 8.00812 111.424C8.00812 110.384 8.84009 109.448 9.98407 109.448H13.8321C14.8721 109.448 15.7041 110.384 15.7041 111.424ZM9.98407 145.536C8.84009 145.536 8.00812 144.704 8.00812 143.56C8.00812 142.52 8.84009 141.688 9.98407 141.688H13.8321C14.8721 141.688 15.7041 142.52 15.7041 143.56C15.7041 144.704 14.8721 145.536 13.8321 145.536H9.98407ZM33.1761 145.536C32.0321 145.536 31.2001 144.704 31.2001 143.56C31.2001 142.52 32.0321 141.688 33.1761 141.688H47.3201C48.3601 141.688 49.1921 142.52 49.1921 143.56C49.1921 144.704 48.3601 145.536 47.3201 145.536H33.1761ZM26.1041 127.544C26.1041 128.584 25.1681 129.416 24.1281 129.416H9.98407C8.94409 129.416 8.00812 128.584 8.00812 127.544C8.00812 126.4 8.94409 125.568 9.98407 125.568H24.1281C25.1681 125.568 26.1041 126.4 26.1041 127.544ZM43.4721 129.416C42.4321 129.416 41.4961 128.584 41.4961 127.544C41.4961 126.4 42.4321 125.568 43.4721 125.568H47.3201C48.3601 125.568 49.2961 126.4 49.2961 127.544C49.2961 128.584 48.3601 129.416 47.3201 129.416H43.4721ZM33.8001 132.64C30.9921 132.64 28.7041 130.352 28.7041 127.544C28.7041 124.632 30.9921 122.344 33.8001 122.344C36.7121 122.344 39.0001 124.632 39.0001 127.544C39.0001 130.352 36.7121 132.64 33.8001 132.64ZM23.5041 148.76C20.6961 148.76 18.4081 146.472 18.4081 143.56C18.4081 140.752 20.6961 138.464 23.5041 138.464C26.3121 138.464 28.7041 140.752 28.7041 143.56C28.7041 146.472 26.3121 148.76 23.5041 148.76ZM434.512 5.86375C435.656 5.86375 436.592 6.79975 436.592 7.94375V43.1997C436.592 44.3437 435.656 45.2797 434.512 45.2797H430.248C429.104 45.2797 428.168 44.3437 428.168 43.1997V7.94375C428.168 6.79975 429.104 5.86375 430.248 5.86375H434.512ZM454.272 5.86375C455.416 5.86375 456.456 6.79975 456.456 7.94375V43.1997C456.456 44.3437 455.416 45.2797 454.272 45.2797H450.112C448.864 45.2797 447.928 44.3437 447.928 43.1997V7.94375C447.928 6.79975 448.864 5.86375 450.112 5.86375H454.272ZM329.68 36.7517L333.216 27.9117C333.84 26.4557 334.672 25.2077 335.712 24.0637L355.264 4.61575C357.552 2.22375 361.4 2.22375 363.688 4.61575C366.08 6.90375 366.08 10.7517 363.688 13.0397L344.24 32.5917C343.096 33.6317 341.848 34.4637 340.392 35.0877L331.552 38.6237C330.408 39.1437 329.264 37.9997 329.68 36.7517ZM324.272 40.5997C324.272 42.4717 325.832 44.1357 327.704 44.1357H354.536C356.512 44.1357 358.072 42.4717 358.072 40.5997V25.7277C358.072 24.5837 359.008 23.6477 360.152 23.6477C361.4 23.6477 362.336 24.5837 362.336 25.7277V40.5997C362.336 44.8637 358.8 48.2957 354.536 48.2957H327.704C323.44 48.2957 320.008 44.8637 320.008 40.5997V13.7677C320.008 9.50375 323.44 5.96775 327.704 5.96775H342.576C343.72 5.96775 344.656 6.90375 344.656 8.15175C344.656 9.29575 343.72 10.2317 342.576 10.2317H327.704C325.832 10.2317 324.272 11.7917 324.272 13.7677V40.5997ZM219.96 34.5677L250.744 3.78375C253.136 1.39175 256.88 1.39175 259.272 3.78375C261.56 6.07175 261.56 9.91975 259.272 12.2077L228.384 42.9917C227.344 44.1357 226.096 44.9677 224.64 45.4877L215.696 49.1277C214.552 49.5437 213.408 48.3997 213.928 47.2557L217.464 38.4157C217.984 36.9597 218.92 35.6077 219.96 34.5677ZM109.72 109.24C109.72 106.848 111.592 104.976 113.88 104.976H117.208C119.184 104.976 120.848 106.328 121.264 108.304L123.344 117.352C123.76 119.536 122.512 121.72 120.328 122.344L117.728 123.072C116.584 123.488 115.856 124.632 116.376 125.776C119.6 133.784 126.048 140.128 133.952 143.456C135.096 143.872 136.344 143.248 136.656 142.104L137.384 139.4C138.008 137.32 140.192 135.968 142.376 136.488L151.528 138.464C153.4 138.88 154.856 140.648 154.856 142.624V145.848C154.856 148.24 152.88 150.112 150.592 150.112H146.328C143.104 150.112 139.984 149.696 136.968 148.864C124.28 145.536 114.296 135.552 110.864 122.76C110.136 119.848 109.72 116.624 109.72 113.4V109.24Z" fill="#0F172A"/>
<path fill-rule="evenodd" clip-rule="evenodd" d="M-311.376 12.3117C-311.376 8.77567 -308.568 5.96767 -305.032 5.96767H-266.968C-263.432 5.96767 -260.624 8.77567 -260.624 12.3117V39.0397C-260.624 42.5757 -263.432 45.3837 -266.968 45.3837H-305.032C-308.568 45.3837 -311.376 42.5757 -311.376 39.0397V12.3117ZM-307.216 28.7437V39.1437C-307.216 40.2877 -306.176 41.2237 -305.032 41.2237H-266.968C-265.824 41.2237 -264.888 40.2877 -264.888 39.1437V31.5517L-271.128 25.3117C-271.96 24.4797 -273.312 24.4797 -274.144 25.3117L-279.448 30.7197L-278.2 31.9677C-277.368 32.7997 -277.368 34.1517 -278.2 34.9837C-279.032 35.8157 -280.28 35.8157 -281.112 34.9837L-295.776 20.3197C-296.608 19.4877 -297.96 19.4877 -298.792 20.3197L-307.216 28.7437ZM-283.192 14.4957C-284.752 14.4957 -286.104 15.7437 -286.104 17.3037C-286.104 18.8637 -284.752 20.1117 -283.192 20.1117C-281.632 20.1117 -280.384 18.8637 -280.384 17.3037C-280.384 15.7437 -281.632 14.4957 -283.192 14.4957ZM-94.224 25.8317C-94.224 13.3517 -84.136 3.26367 -71.656 3.26367C-59.176 3.26367 -49.088 13.3517 -49.088 25.8317C-49.088 38.2077 -59.176 48.3997 -71.656 48.3997C-84.136 48.3997 -94.224 38.2077 -94.224 25.8317ZM-77.272 19.4877V32.1757C-77.272 32.9037 -76.856 33.6317 -76.128 33.9437C-75.504 34.3597 -74.672 34.3597 -74.048 33.9437L-64.168 27.5997C-63.544 27.1837 -63.128 26.4557 -63.128 25.8317C-63.128 25.1037 -63.544 24.3757 -64.168 23.9597L-74.048 17.6157C-74.672 17.1997 -75.504 17.1997 -76.128 17.6157C-76.856 17.9277 -77.272 18.6557 -77.272 19.4877ZM-169.104 8.87967C-167.856 8.87967 -166.92 9.81567 -166.92 10.9597V40.5997C-166.92 41.7437 -167.856 42.6797 -169.104 42.6797H-170.456C-171.6 42.6797 -172.536 41.7437 -172.536 40.5997V10.9597C-172.536 9.81567 -171.6 8.87967 -170.456 8.87967H-169.104ZM-154.96 8.87967C-153.816 8.87967 -152.88 9.81567 -152.88 10.9597V40.5997C-152.88 41.7437 -153.816 42.6797 -154.96 42.6797H-156.416C-157.56 42.6797 -158.496 41.7437 -158.496 40.5997V10.9597C-158.496 9.81567 -157.56 8.87967 -156.416 8.87967H-154.96ZM-179.296 22.1917C-176.696 23.8557 -176.696 27.7037 -179.296 29.3677L-197.184 40.3917C-199.992 42.1597 -203.632 40.0797 -203.632 36.8557V14.8077C-203.632 11.4797 -199.992 9.39967 -197.184 11.1677L-179.296 22.1917ZM43.992 22.1917C46.592 23.8557 46.592 27.7037 43.992 29.3677L17.576 46.0077C14.768 47.7757 11.128 45.6957 11.128 42.3677V9.19167C11.128 5.86367 14.768 3.78367 17.576 5.55167L43.992 22.1917ZM6.03198 229.048C6.03198 216.568 16.12 206.48 28.6 206.48C41.08 206.48 51.168 216.568 51.168 229.048C51.168 241.528 41.08 251.616 28.6 251.616C16.12 251.616 6.03198 241.528 6.03198 229.048ZM30.68 219.896C30.68 218.752 29.744 217.816 28.6 217.816C27.456 217.816 26.416 218.752 26.416 219.896V226.968H19.448C18.2 226.968 17.264 227.904 17.264 229.048C17.264 230.296 18.2 231.232 19.448 231.232H26.416V238.2C26.416 239.448 27.456 240.384 28.6 240.384C29.744 240.384 30.68 239.448 30.68 238.2V231.232H37.752C38.896 231.232 39.832 230.296 39.832 229.048C39.832 227.904 38.896 226.968 37.752 226.968H30.68V219.896Z" fill="#0F172A"/>
<path fill-rule="evenodd" clip-rule="evenodd" d="M-52.5197 107.888C-49.0877 107.888 -46.1757 110.696 -46.1757 114.232V140.96C-46.1757 144.496 -49.0877 147.304 -52.5197 147.304H-90.5837C-94.1197 147.304 -96.9277 144.496 -96.9277 140.96V114.232C-96.9277 110.696 -94.1197 107.888 -90.5837 107.888H-52.5197ZM-82.1597 116.312C-82.1597 117.456 -81.2237 118.496 -80.0797 118.496C-78.8317 118.496 -77.8957 117.456 -77.8957 116.312C-77.8957 115.168 -78.8317 114.232 -80.0797 114.232C-81.2237 114.232 -82.1597 115.168 -82.1597 116.312ZM-88.5037 114.128C-89.6477 114.128 -90.6877 115.064 -90.6877 116.312C-90.6877 117.456 -89.6477 118.392 -88.5037 118.392C-87.3597 118.392 -86.4237 117.456 -86.4237 116.312C-86.4237 115.064 -87.3597 114.128 -88.5037 114.128ZM-92.7677 124.736V140.96C-92.7677 142.104 -91.8317 143.04 -90.5837 143.04H-52.5197C-51.3757 143.04 -50.4397 142.104 -50.4397 140.96V124.736H-92.7677ZM-71.5517 114.128C-72.7997 114.128 -73.7357 115.064 -73.7357 116.312C-73.7357 117.456 -72.7997 118.392 -71.5517 118.392C-70.4077 118.392 -69.4717 117.456 -69.4717 116.312C-69.4717 115.064 -70.4077 114.128 -71.5517 114.128ZM348.296 144.496C349.856 144.496 351.104 145.744 351.104 147.304C351.104 148.864 349.856 150.112 348.296 150.112C346.736 150.112 345.488 148.864 345.488 147.304C345.488 145.744 346.736 144.496 348.296 144.496ZM359.528 147.304C359.528 145.744 360.776 144.496 362.336 144.496C363.896 144.496 365.248 145.744 365.248 147.304C365.248 148.864 363.896 150.112 362.336 150.112C360.776 150.112 359.528 148.864 359.528 147.304ZM362.336 130.352C363.896 130.352 365.248 131.704 365.248 133.264C365.248 134.824 363.896 136.072 362.336 136.072C360.776 136.072 359.528 134.824 359.528 133.264C359.528 131.704 360.776 130.352 362.336 130.352ZM345.384 133.264C345.384 131.704 346.632 130.352 348.192 130.352H348.296C349.856 130.352 351.104 131.704 351.104 133.264C351.104 134.824 349.856 136.072 348.296 136.072H348.192C346.632 136.072 345.384 134.824 345.384 133.264ZM355.264 137.424C356.824 137.424 358.072 138.776 358.072 140.336C358.072 141.896 356.824 143.144 355.264 143.144C353.704 143.144 352.456 141.896 352.456 140.336C352.456 138.776 353.704 137.424 355.264 137.424ZM334.776 130.456C337.584 130.456 339.768 132.64 339.768 135.344V145.224C339.768 147.928 337.584 150.216 334.776 150.216H325C322.192 150.216 320.008 147.928 320.008 145.224V135.344C320.008 132.64 322.192 130.456 325 130.456H334.776ZM345.28 109.968C345.28 107.264 347.568 105.08 350.272 105.08H360.152C362.856 105.08 365.04 107.264 365.04 109.968V119.848C365.04 122.552 362.856 124.736 360.152 124.736H350.272C347.568 124.736 345.28 122.552 345.28 119.848V109.968ZM334.776 105.08C337.48 105.08 339.664 107.264 339.664 109.968V119.848C339.664 122.552 337.48 124.736 334.776 124.736H324.896C322.088 124.736 319.904 122.552 319.904 119.848V109.968C319.904 107.264 322.088 105.08 324.896 105.08H334.776ZM350.272 109.24C349.856 109.24 349.544 109.552 349.544 109.968V119.848C349.544 120.264 349.856 120.576 350.272 120.576H360.152C360.464 120.576 360.88 120.264 360.88 119.848V109.968C360.88 109.552 360.464 109.24 360.152 109.24H350.272ZM355.16 112.048C356.72 112.048 357.968 113.296 357.968 114.856V114.96C357.968 116.52 356.72 117.768 355.16 117.768C353.6 117.768 352.352 116.52 352.352 114.96V114.856C352.352 113.296 353.6 112.048 355.16 112.048ZM324.168 145.224C324.168 145.64 324.48 145.952 324.792 145.952H334.672C335.088 145.952 335.4 145.64 335.4 145.224V135.344C335.4 134.928 335.088 134.616 334.672 134.616H324.792C324.48 134.616 324.168 134.928 324.168 135.344V145.224ZM329.784 137.424C331.344 137.424 332.592 138.776 332.592 140.336C332.592 141.896 331.344 143.144 329.784 143.144C328.224 143.144 326.872 141.896 326.872 140.336C326.872 138.776 328.224 137.424 329.784 137.424ZM324.064 119.848C324.064 120.264 324.376 120.576 324.792 120.576H334.672C335.088 120.576 335.4 120.264 335.4 119.848V109.968C335.4 109.552 335.088 109.24 334.672 109.24H324.792C324.376 109.24 324.064 109.552 324.064 109.968V119.848ZM329.784 112.048C331.344 112.048 332.592 113.4 332.592 114.96C332.592 116.52 331.344 117.768 329.784 117.768H329.68C328.12 117.768 326.872 116.52 326.872 114.96C326.872 113.4 328.12 112.048 329.68 112.048H329.784ZM142.064 14.3916C145.6 14.253 149.102 13.9409 152.568 13.4556C153.712 13.3516 154.752 14.1836 154.96 15.3276C155.376 18.2396 155.654 21.2209 155.792 24.2716C155.896 25.8316 154.648 27.1836 153.088 27.1836C151.944 27.1836 151.008 26.4556 150.28 25.6236C149.552 24.7916 148.616 24.3756 147.576 24.3756C145.288 24.3756 143.312 26.8716 143.312 29.9916C143.312 33.1116 145.288 35.6076 147.576 35.6076C148.616 35.6076 149.552 35.1916 150.28 34.3596C151.008 33.5276 151.944 32.7996 153.088 32.7996C154.752 32.7996 156 34.1516 156 35.7116C155.862 39.4556 155.55 43.1649 155.064 46.8396C154.856 47.7756 154.128 48.6076 153.192 48.7116C149.518 49.1969 145.808 49.5089 142.064 49.6476C140.4 49.7516 139.152 48.3996 139.152 46.8396C139.152 45.6956 139.88 44.6556 140.712 43.9276C141.44 43.1996 141.96 42.2636 141.96 41.2236C141.96 38.9356 139.464 37.0636 136.344 37.0636C133.224 37.0636 130.624 38.9356 130.624 41.2236C130.624 42.2636 131.144 43.1996 131.976 43.9276C132.808 44.6556 133.432 45.5916 133.432 46.7356C133.432 48.2956 132.184 49.6476 130.624 49.5436C127.574 49.3356 124.558 49.0236 121.576 48.6076C120.432 48.3996 119.6 47.3596 119.808 46.2156C120.294 42.749 120.606 39.2476 120.744 35.7116C120.744 34.1516 119.496 32.7996 117.832 32.7996C116.688 32.7996 115.752 33.5276 115.024 34.3596C114.296 35.1916 113.36 35.6076 112.32 35.6076C110.032 35.6076 108.056 33.1116 108.056 29.9916C108.056 26.8716 110.032 24.3756 112.32 24.3756C113.36 24.3756 114.296 24.7916 115.024 25.6236C115.752 26.4556 116.688 27.1836 117.832 27.1836C119.392 27.1836 120.64 25.8316 120.536 24.2716C120.398 21.4289 120.12 18.5863 119.704 15.7436C119.6 15.1196 119.808 14.3916 120.328 13.9756C120.744 13.4556 121.472 13.2476 122.096 13.3516C124.87 13.7676 127.712 14.0796 130.624 14.2876C132.184 14.2876 133.432 13.0396 133.432 11.4796C133.432 10.3356 132.808 9.39962 131.976 8.67162C131.144 7.94362 130.624 7.00762 130.624 5.96762C130.624 3.67962 133.224 1.80762 136.344 1.80762C139.464 1.80762 141.96 3.67962 141.96 5.96762C141.96 7.00762 141.44 7.94362 140.712 8.67162C139.88 9.39962 139.152 10.4396 139.152 11.5836C139.152 13.1436 140.4 14.3916 142.064 14.3916Z" fill="#0F172A"/>
<path fill-rule="evenodd" clip-rule="evenodd" d="M423.904 320.152C423.904 316.72 426.712 313.912 430.144 313.912H458.224C461.656 313.912 464.464 316.72 464.464 320.152V345.112C464.464 348.544 461.656 351.352 458.224 351.352H430.144C426.712 351.352 423.904 348.544 423.904 345.112V320.152ZM432.224 324.416L435.76 327.952L432.224 331.592C431.6 332.216 431.6 333.152 432.224 333.776C432.848 334.4 433.784 334.4 434.408 333.776L439.088 329.096C439.712 328.472 439.712 327.536 439.088 326.912L434.408 322.232C433.784 321.608 432.848 321.608 432.224 322.232C431.6 322.856 431.6 323.792 432.224 324.416ZM441.064 331.072C440.232 331.072 439.504 331.8 439.504 332.632C439.504 333.568 440.232 334.192 441.064 334.192H447.304C448.24 334.192 448.864 333.568 448.864 332.632C448.864 331.8 448.24 331.072 447.304 331.072H441.064ZM-516.672 11.5838C-516.672 8.15175 -513.864 5.34375 -510.432 5.34375H-482.352C-478.92 5.34375 -476.112 8.15175 -476.112 11.5838V31.8637C-476.112 35.3997 -478.92 38.1037 -482.352 38.1037H-488.592V38.7278C-488.592 39.9757 -488.072 41.1198 -487.24 41.9517L-485.888 43.3037C-485.472 43.7197 -485.368 44.4478 -485.576 44.9678C-485.784 45.5918 -486.408 45.9037 -487.032 45.9037H-505.752C-506.376 45.9037 -506.896 45.5918 -507.208 44.9678C-507.416 44.4478 -507.312 43.7197 -506.792 43.3037L-505.544 41.9517C-504.712 41.1198 -504.192 39.9757 -504.192 38.7278V38.1037H-510.432C-513.864 38.1037 -516.672 35.3997 -516.672 31.8637V11.5838ZM-513.552 11.5838V27.1838C-513.552 28.9517 -512.096 30.3037 -510.432 30.3037H-482.352C-480.584 30.3037 -479.232 28.9517 -479.232 27.1838V11.5838C-479.232 9.91975 -480.584 8.46375 -482.352 8.46375H-510.432C-512.096 8.46375 -513.552 9.91975 -513.552 11.5838ZM-487.032 341.992H-505.752V323.272H-487.032V341.992Z" fill="#0F172A"/>
<path fill-rule="evenodd" clip-rule="evenodd" d="M257.608 332.632C257.608 343.863 248.456 352.911 237.328 352.911C226.096 352.911 217.048 343.863 217.048 332.632C217.048 321.503 226.096 312.352 237.328 312.352C248.456 312.352 257.608 321.503 257.608 332.632ZM234.936 321.711C230.256 321.711 226.408 325.56 226.408 330.344C226.408 335.023 230.256 338.871 234.936 338.871C236.808 338.871 238.472 338.352 239.824 337.415L243.984 341.576C244.608 342.199 245.544 342.199 246.168 341.576C246.792 340.952 246.792 340.016 246.168 339.391L242.008 335.231C242.944 333.775 243.568 332.112 243.568 330.344C243.568 325.56 239.72 321.711 234.936 321.711ZM152.464 312.352C153.296 312.352 154.024 313.079 154.024 313.911C154.024 314.848 153.296 315.471 152.464 315.471H150.904V337.311C150.904 340.743 148.096 343.551 144.664 343.551H142.168L144.56 350.935C144.872 351.663 144.352 352.599 143.624 352.911C142.792 353.119 141.856 352.703 141.648 351.871L140.92 349.792H123.448L122.72 351.871C122.408 352.703 121.576 353.119 120.744 352.911C119.912 352.599 119.496 351.663 119.808 350.935L122.2 343.551H119.704C116.272 343.551 113.464 340.743 113.464 337.311V315.471H111.904C110.968 315.471 110.344 314.848 110.344 313.911C110.344 313.079 110.968 312.352 111.904 312.352H152.464ZM133.744 326.391C133.744 325.559 133.016 324.831 132.184 324.831C131.248 324.831 130.624 325.559 130.624 326.391V334.191C130.624 335.128 131.248 335.751 132.184 335.751C133.016 335.751 133.744 335.128 133.744 334.191V326.391ZM139.984 321.711C139.984 320.879 139.256 320.151 138.424 320.151C137.488 320.151 136.864 320.879 136.864 321.711V334.191C136.864 335.128 137.488 335.751 138.424 335.751C139.256 335.751 139.984 335.128 139.984 334.191V321.711ZM139.88 346.671L138.84 343.551H125.528L124.488 346.671H139.88ZM127.4 331.072C127.4 330.24 126.776 329.511 125.84 329.511C125.008 329.511 124.28 330.24 124.28 331.072V334.191C124.28 335.128 125.008 335.751 125.84 335.751C126.776 335.751 127.4 335.128 127.4 334.191V331.072ZM351.208 207.104C353.288 207.104 355.056 208.872 355.056 210.952V217.192C355.957 217.33 356.859 217.469 357.76 217.607C360.776 218.023 362.856 220.624 362.856 223.64V236.744C362.856 240.176 360.048 242.984 356.616 242.984H356.096L356.408 246.52C356.616 248.808 354.848 250.784 352.56 250.784H332.696C330.408 250.784 328.64 248.808 328.848 246.52L329.16 242.984H328.536C325.104 242.984 322.296 240.176 322.296 236.744V223.64C322.296 220.624 324.48 218.023 327.496 217.607C328.328 217.469 329.195 217.33 330.096 217.192V210.952C330.096 208.872 331.864 207.104 334.048 207.104H351.208ZM355.056 227.384C355.992 227.384 356.616 226.656 356.616 225.824C356.616 224.992 355.992 224.264 355.056 224.264C354.224 224.264 353.496 224.992 353.496 225.824C353.496 226.656 354.224 227.384 355.056 227.384ZM342.576 233.624C339.595 233.624 336.648 233.762 333.736 234.04C333.32 234.144 333.008 234.352 333.008 234.768L331.864 246.832C331.864 247.248 332.176 247.664 332.696 247.664H352.56C352.976 247.664 353.288 247.248 353.288 246.832L352.248 234.768C352.144 234.352 351.832 234.144 351.52 234.04C348.608 233.762 345.627 233.624 342.576 233.624ZM351.936 216.88V210.952C351.936 210.536 351.624 210.224 351.208 210.224H334.048C333.632 210.224 333.216 210.536 333.216 210.952V216.88C336.336 216.602 339.456 216.464 342.576 216.464C345.765 216.464 348.885 216.602 351.936 216.88ZM348.816 224.264C347.984 224.264 347.256 224.992 347.256 225.824C347.256 226.656 347.984 227.384 348.816 227.384C349.752 227.384 350.376 226.656 350.376 225.824C350.376 224.992 349.752 224.264 348.816 224.264ZM8.21609 335.751C8.21609 326.287 15.9121 318.591 25.3761 318.591C26.2081 318.591 26.9361 319.319 26.9361 320.151V334.191H40.9761C41.8081 334.191 42.5361 334.919 42.5361 335.751C42.5361 345.215 34.8401 352.911 25.3761 352.911C15.9121 352.911 8.21609 345.215 8.21609 335.751ZM30.0561 313.911C30.0561 313.079 30.7841 312.352 31.6161 312.352C41.0801 312.352 48.7761 320.047 48.7761 329.511C48.7761 330.447 48.0481 331.072 47.2161 331.072H31.6161C30.7841 331.072 30.0561 330.447 30.0561 329.511V313.911ZM-371.904 43.3035C-371.28 43.9275 -371.28 44.8635 -371.904 45.4875C-372.528 46.1115 -373.464 46.1115 -374.088 45.4875L-411.528 8.04751C-412.152 7.42351 -412.152 6.48751 -411.528 5.86351C-410.904 5.23951 -409.968 5.23951 -409.344 5.86351L-371.904 43.3035ZM-369.928 37.4795C-369.928 38.5195 -370.344 39.2475 -370.968 39.8715L-380.848 29.9915V17.1995L-375.232 11.5835C-373.256 9.71151 -369.928 11.0635 -369.928 13.8715V37.4795ZM-383.968 16.2635V26.7675L-400.712 10.0235H-390.208C-386.672 10.0235 -383.968 12.8315 -383.968 16.2635ZM-413.608 16.2635C-413.608 14.5995 -412.984 13.1435 -411.944 11.9995L-385.216 38.7275C-386.36 40.2875 -388.128 41.2235 -390.208 41.2235H-407.368C-410.8 41.2235 -413.608 38.4155 -413.608 34.9835V16.2635Z" fill="#0F172A"/>
</g>
</g>
<defs>
<clipPath id="clip0_70_5405">
<rect width="52" height="50" fill="white"/>
</clipPath>
</defs>
</svg>
