<svg width="50" height="50" viewBox="0 0 50 50" fill="none" xmlns="http://www.w3.org/2000/svg">
<g clip-path="url(#clip0_70_5409)">
<mask id="mask0_70_5409" style="mask-type:luminance" maskUnits="userSpaceOnUse" x="-1169" y="-795" width="1651" height="1276">
<path d="M-1168.75 -794.792H481.25V480.208H-1168.75V-794.792Z" fill="white"/>
</mask>
<g mask="url(#mask0_70_5409)">
<path fill-rule="evenodd" clip-rule="evenodd" d="M-591.667 -62.9165C-592.5 -62.0832 -593.854 -62.0832 -594.688 -62.9165L-615.104 -83.3332V-67.1873C-615.104 -66.0415 -616.042 -65.104 -617.188 -65.104C-618.438 -65.104 -619.375 -66.0415 -619.375 -67.1873V-88.4373C-619.375 -89.5832 -618.438 -90.5207 -617.188 -90.5207H-596.042C-594.896 -90.5207 -593.958 -89.5832 -593.958 -88.4373C-593.958 -87.2915 -594.896 -86.354 -596.042 -86.354H-612.083L-591.667 -65.9373C-590.833 -65.104 -590.833 -63.7498 -591.667 -62.9165ZM-413.021 25.1043C-413.021 12.6043 -402.917 2.50015 -390.417 2.50015C-377.917 2.50015 -367.813 12.6043 -367.813 25.1043C-367.813 37.6043 -377.917 47.7085 -390.417 47.7085C-402.917 47.7085 -413.021 37.6043 -413.021 25.1043ZM-392.604 34.271C-392.604 35.4168 -391.667 36.3543 -390.417 36.3543C-389.271 36.3543 -388.333 35.4168 -388.333 34.271V21.3543L-382.813 27.1876C-381.979 28.1251 -380.729 28.1251 -379.792 27.396C-378.958 26.5626 -378.958 25.2085 -379.688 24.3752L-388.854 14.4793C-389.271 14.0627 -389.896 13.7502 -390.417 13.7502C-391.042 13.7502 -391.563 14.0627 -391.979 14.4793L-401.146 24.3752C-401.979 25.2085 -401.979 26.5626 -401.042 27.396C-400.208 28.1251 -398.854 28.1251 -398.125 27.1876L-392.604 21.3543V34.271ZM-801.771 -76.4582C-801.771 -75.3124 -802.708 -74.3749 -803.958 -74.3749H-822.708L-816.563 -68.854C-815.729 -68.0207 -815.729 -66.6665 -816.563 -65.8332C-817.292 -64.9999 -818.646 -64.8957 -819.479 -65.729L-829.375 -74.8957C-829.792 -75.3124 -830.104 -75.9374 -830.104 -76.4582C-830.104 -77.0832 -829.792 -77.604 -829.375 -78.0207L-819.479 -87.1873C-818.646 -88.0207 -817.292 -87.9165 -816.563 -87.0832C-815.729 -86.2498 -815.729 -84.8957 -816.563 -84.1665L-822.708 -78.5415H-803.958C-802.708 -78.5415 -801.771 -77.604 -801.771 -76.4582ZM-202.604 13.7502C-203.854 13.7502 -204.792 14.6877 -204.792 15.8335V39.896C-204.792 41.0418 -203.854 41.9793 -202.604 41.9793H-178.542C-177.396 41.9793 -176.458 41.0418 -176.458 39.896V28.5418C-176.458 27.396 -175.521 26.4585 -174.375 26.4585C-173.125 26.4585 -172.188 27.396 -172.188 28.5418V39.896C-172.188 43.4376 -175.104 46.2502 -178.542 46.2502H-202.604C-206.146 46.2502 -209.063 43.4376 -209.063 39.896V15.8335C-209.063 12.2918 -206.146 9.47931 -202.604 9.47931H-188.542C-187.292 9.47931 -186.354 10.4168 -186.354 11.5627C-186.354 12.8127 -187.292 13.7502 -188.542 13.7502H-202.604ZM-196.875 31.2502L-171.25 8.02098H-178.542C-179.688 8.02098 -180.625 7.08348 -180.625 5.93765C-180.625 4.79182 -179.688 3.85432 -178.542 3.85432H-165.729C-164.583 3.85432 -163.646 4.79182 -163.646 5.93765V18.646C-163.646 19.7918 -164.583 20.8335 -165.729 20.8335C-166.979 20.8335 -167.917 19.7918 -167.917 18.646V10.7293L-194.063 34.3752C-194.896 35.2085 -196.25 35.1043 -197.083 34.271C-197.813 33.3335 -197.813 32.0835 -196.875 31.2502ZM-725.104 -76.4582C-725.104 -77.604 -724.167 -78.5415 -723.021 -78.5415H-704.167L-710.313 -84.1665C-711.146 -84.8957 -711.146 -86.2498 -710.417 -87.0832C-709.583 -87.9165 -708.229 -88.0207 -707.396 -87.1873L-697.5 -78.0207C-697.083 -77.604 -696.875 -77.0832 -696.875 -76.4582C-696.875 -75.9374 -697.083 -75.3124 -697.5 -74.8957L-707.396 -65.729C-708.229 -64.8957 -709.583 -64.9999 -710.417 -65.8332C-711.146 -66.6665 -711.146 -68.0207 -710.313 -68.854L-704.167 -74.3749H-723.021C-724.167 -74.3749 -725.104 -75.3124 -725.104 -76.4582ZM-501.979 -70.2082C-501.146 -69.3748 -501.146 -68.0207 -501.979 -67.1873C-502.813 -66.354 -504.167 -66.354 -505 -67.1873L-509.792 -71.979C-509.653 -68.9929 -509.41 -66.0068 -509.063 -63.0207C-508.958 -62.1873 -508.229 -61.4582 -507.292 -61.354C-503.958 -61.0762 -500.556 -60.9373 -497.083 -60.9373C-493.681 -60.9373 -490.313 -61.0762 -486.979 -61.354C-486.042 -61.4582 -485.313 -62.1873 -485.208 -63.0207C-485 -64.479 -484.861 -65.9721 -484.792 -67.4998C-484.688 -68.6457 -483.646 -69.479 -482.5 -69.3748C-481.354 -69.2707 -480.417 -68.3332 -480.521 -67.0832C-480.66 -65.5554 -480.833 -64.0623 -481.042 -62.604C-481.354 -59.6873 -483.646 -57.3957 -486.563 -57.1873C-490.035 -56.8401 -493.542 -56.6665 -497.083 -56.6665C-500.695 -56.6665 -504.236 -56.8401 -507.708 -57.1873C-510.625 -57.3957 -512.917 -59.6873 -513.229 -62.604C-513.646 -65.729 -513.889 -68.8887 -513.958 -72.0832L-518.958 -67.1873C-519.792 -66.354 -521.146 -66.354 -521.875 -67.1873C-522.708 -68.0207 -522.708 -69.3748 -521.875 -70.2082L-513.438 -78.6457C-512.604 -79.479 -511.25 -79.479 -510.417 -78.6457L-501.979 -70.2082ZM-507.292 -91.5623C-508.229 -91.4582 -508.958 -90.8332 -509.063 -89.8957C-509.271 -88.4374 -509.41 -86.979 -509.479 -85.5207C-509.583 -84.3748 -510.625 -83.4373 -511.771 -83.5415C-512.917 -83.6457 -513.854 -84.6874 -513.75 -85.8332C-513.611 -87.361 -513.472 -88.8887 -513.333 -90.4165C-512.917 -93.3332 -510.625 -95.5207 -507.708 -95.8332C-504.236 -96.111 -500.729 -96.2498 -497.188 -96.2498C-493.576 -96.2498 -490.035 -96.111 -486.563 -95.8332C-483.646 -95.5207 -481.354 -93.3332 -481.042 -90.4165C-480.625 -87.2221 -480.382 -84.0276 -480.313 -80.8332L-475.313 -85.729C-474.479 -86.5624 -473.125 -86.5624 -472.396 -85.729C-471.563 -84.8957 -471.563 -83.6457 -472.396 -82.8123L-480.833 -74.2707C-481.667 -73.4373 -483.021 -73.4373 -483.854 -74.2707L-492.292 -82.8123C-493.125 -83.6457 -493.125 -84.8957 -492.292 -85.729C-491.458 -86.5624 -490.104 -86.5624 -489.271 -85.729L-484.479 -81.0415C-484.618 -84.0276 -484.861 -86.979 -485.208 -89.8957C-485.313 -90.8332 -486.042 -91.4582 -486.979 -91.5623C-490.313 -91.9096 -493.715 -92.0832 -497.188 -92.0832C-500.59 -92.0832 -503.958 -91.9096 -507.292 -91.5623ZM-295.313 -87.4998C-298.125 -87.4998 -300.417 -89.7915 -300.417 -92.604C-300.417 -95.5207 -298.125 -97.8123 -295.313 -97.8123C-292.396 -97.8123 -290.104 -95.5207 -290.104 -92.604C-290.104 -89.7915 -292.396 -87.4998 -295.313 -87.4998ZM-285.625 -90.729C-286.667 -90.729 -287.5 -91.5623 -287.5 -92.604C-287.5 -93.7498 -286.667 -94.5832 -285.625 -94.5832H-271.458C-270.313 -94.5832 -269.479 -93.7498 -269.479 -92.604C-269.479 -91.5623 -270.313 -90.729 -271.458 -90.729H-285.625ZM-303.021 -92.604C-303.021 -91.5623 -303.854 -90.729 -304.896 -90.729H-308.75C-309.896 -90.729 -310.729 -91.5623 -310.729 -92.604C-310.729 -93.6457 -309.896 -94.5832 -308.75 -94.5832H-304.896C-303.854 -94.5832 -303.021 -93.6457 -303.021 -92.604ZM-308.75 -58.4373C-309.896 -58.4373 -310.729 -59.2707 -310.729 -60.4165C-310.729 -61.4582 -309.896 -62.2915 -308.75 -62.2915H-304.896C-303.854 -62.2915 -303.021 -61.4582 -303.021 -60.4165C-303.021 -59.2707 -303.854 -58.4373 -304.896 -58.4373H-308.75ZM-285.521 -58.4373C-286.667 -58.4373 -287.5 -59.2707 -287.5 -60.4165C-287.5 -61.4582 -286.667 -62.2915 -285.521 -62.2915H-271.354C-270.313 -62.2915 -269.479 -61.4582 -269.479 -60.4165C-269.479 -59.2707 -270.313 -58.4373 -271.354 -58.4373H-285.521ZM-292.604 -76.4582C-292.604 -75.4165 -293.542 -74.5832 -294.583 -74.5832H-308.75C-309.792 -74.5832 -310.729 -75.4165 -310.729 -76.4582C-310.729 -77.604 -309.792 -78.4374 -308.75 -78.4374H-294.583C-293.542 -78.4374 -292.604 -77.604 -292.604 -76.4582ZM-275.208 -74.5832C-276.25 -74.5832 -277.188 -75.4165 -277.188 -76.4582C-277.188 -77.604 -276.25 -78.4374 -275.208 -78.4374H-271.354C-270.313 -78.4374 -269.375 -77.604 -269.375 -76.4582C-269.375 -75.4165 -270.313 -74.5832 -271.354 -74.5832H-275.208ZM-284.896 -71.354C-287.708 -71.354 -290 -73.6457 -290 -76.4582C-290 -79.3749 -287.708 -81.6665 -284.896 -81.6665C-281.979 -81.6665 -279.688 -79.3749 -279.688 -76.4582C-279.688 -73.6457 -281.979 -71.354 -284.896 -71.354ZM-295.208 -55.2082C-298.021 -55.2082 -300.313 -57.4998 -300.313 -60.4165C-300.313 -63.229 -298.021 -65.5207 -295.208 -65.5207C-292.396 -65.5207 -290 -63.229 -290 -60.4165C-290 -57.4998 -292.396 -55.2082 -295.208 -55.2082ZM116.458 -198.333C117.604 -198.333 118.542 -197.396 118.542 -196.25V-160.937C118.542 -159.792 117.604 -158.854 116.458 -158.854H112.187C111.042 -158.854 110.104 -159.792 110.104 -160.937V-196.25C110.104 -197.396 111.042 -198.333 112.187 -198.333H116.458ZM136.25 -198.333C137.396 -198.333 138.437 -197.396 138.437 -196.25V-160.937C138.437 -159.792 137.396 -158.854 136.25 -158.854H132.083C130.833 -158.854 129.896 -159.792 129.896 -160.937V-196.25C129.896 -197.396 130.833 -198.333 132.083 -198.333H136.25ZM11.4583 -167.396L14.9999 -176.25C15.6249 -177.708 16.4583 -178.958 17.4999 -180.104L37.0832 -199.583C39.3749 -201.979 43.2291 -201.979 45.5208 -199.583C47.9166 -197.292 47.9166 -193.437 45.5208 -191.146L26.0416 -171.562C24.8958 -170.521 23.6458 -169.687 22.1874 -169.062L13.3333 -165.521C12.1874 -165 11.0416 -166.146 11.4583 -167.396ZM6.04156 -163.542C6.04156 -161.667 7.60406 -160 9.47906 -160H36.3541C38.3333 -160 39.8958 -161.667 39.8958 -163.542V-178.437C39.8958 -179.583 40.8333 -180.521 41.9791 -180.521C43.2291 -180.521 44.1666 -179.583 44.1666 -178.437V-163.542C44.1666 -159.271 40.6249 -155.833 36.3541 -155.833H9.47906C5.20819 -155.833 1.77075 -159.271 1.77075 -163.542V-190.417C1.77075 -194.687 5.20819 -198.229 9.47906 -198.229H24.3749C25.5208 -198.229 26.4583 -197.292 26.4583 -196.042C26.4583 -194.896 25.5208 -193.958 24.3749 -193.958H9.47906C7.60406 -193.958 6.04156 -192.396 6.04156 -190.417V-163.542ZM-98.4376 -169.583L-67.6042 -200.417C-65.2084 -202.812 -61.4584 -202.812 -59.0626 -200.417C-56.7709 -198.125 -56.7709 -194.271 -59.0626 -191.979L-90.0001 -161.146C-91.0417 -160 -92.2917 -159.167 -93.7501 -158.646L-102.708 -155C-103.854 -154.583 -105 -155.729 -104.479 -156.875L-100.938 -165.729C-100.417 -167.187 -99.4792 -168.542 -98.4376 -169.583ZM-208.854 -94.7915C-208.854 -97.1873 -206.979 -99.0623 -204.688 -99.0623H-201.354C-199.375 -99.0623 -197.708 -97.7082 -197.292 -95.729L-195.208 -86.6665C-194.792 -84.479 -196.042 -82.2915 -198.229 -81.6665L-200.833 -80.9373C-201.979 -80.5207 -202.708 -79.3748 -202.188 -78.229C-198.958 -70.2082 -192.5 -63.854 -184.583 -60.5207C-183.438 -60.104 -182.188 -60.729 -181.875 -61.8748L-181.146 -64.5832C-180.521 -66.6665 -178.333 -68.0207 -176.146 -67.4998L-166.979 -65.5207C-165.104 -65.104 -163.646 -63.3332 -163.646 -61.354V-58.1248C-163.646 -55.729 -165.625 -53.854 -167.917 -53.854H-172.188C-175.417 -53.854 -178.542 -54.2707 -181.563 -55.104C-194.271 -58.4373 -204.271 -68.4373 -207.708 -81.2498C-208.438 -84.1665 -208.854 -87.3957 -208.854 -90.6248V-94.7915Z" fill="#0F172A"/>
<path fill-rule="evenodd" clip-rule="evenodd" d="M-106.458 -98.3332C-106.458 -99.479 -105.521 -100.417 -104.375 -100.417H-57.8127C-56.5627 -100.417 -55.6252 -99.479 -55.6252 -98.3332C-55.6252 -97.1873 -56.5627 -96.1457 -57.8127 -96.1457H-58.4377V-71.4582C-58.4377 -67.1873 -61.9793 -63.7498 -66.2502 -63.7498H-69.271L-66.9793 -55.104C-66.771 -53.9582 -67.396 -52.8123 -68.5418 -52.4998C-69.6877 -52.1873 -70.8335 -52.8123 -71.146 -53.9582L-71.4585 -55.2082H-90.7293L-91.0418 -53.9582C-91.3543 -52.8123 -92.5002 -52.1873 -93.646 -52.4998C-94.7918 -52.8123 -95.4168 -53.9582 -95.1043 -55.104L-92.9168 -63.7498H-95.9377C-100.208 -63.7498 -103.646 -67.1873 -103.646 -71.4582V-96.1457H-104.375C-105.521 -96.1457 -106.458 -97.1873 -106.458 -98.3332ZM-92.396 -78.5415V-74.2707C-92.396 -73.1248 -91.4585 -72.1873 -90.2085 -72.1873C-89.0627 -72.1873 -88.1252 -73.1248 -88.1252 -74.2707V-78.5415C-88.1252 -79.6873 -89.0627 -80.6248 -90.2085 -80.6248C-91.4585 -80.6248 -92.396 -79.6873 -92.396 -78.5415ZM-74.0627 -89.7915V-74.2707C-74.0627 -73.1248 -73.021 -72.1873 -71.8752 -72.1873C-70.7293 -72.1873 -69.7918 -73.1248 -69.7918 -74.2707V-89.7915C-69.7918 -91.0415 -70.7293 -91.979 -71.8752 -91.979C-73.021 -91.979 -74.0627 -91.0415 -74.0627 -89.7915ZM-88.5418 -63.7498L-89.5835 -59.479H-72.5002L-73.646 -63.7498H-88.5418ZM-78.9585 -84.1665C-78.9585 -85.3123 -80.0002 -86.354 -81.146 -86.354C-82.2918 -86.354 -83.2293 -85.3123 -83.2293 -84.1665V-74.2707C-83.2293 -73.1248 -82.2918 -72.1873 -81.146 -72.1873C-80.0002 -72.1873 -78.9585 -73.1248 -78.9585 -74.2707V-84.1665ZM-92.5002 11.0418C-91.771 11.771 -91.771 13.021 -92.5002 13.7502C-98.7502 20.0002 -98.7502 30.2085 -92.5002 36.4585C-86.2502 42.7085 -76.0418 42.7085 -69.7918 36.4585C-63.4377 30.2085 -63.4377 20.0002 -69.7918 13.7502C-70.521 13.021 -70.521 11.771 -69.7918 11.0418C-69.0627 10.4168 -67.8127 10.4168 -67.0835 11.0418C-59.3752 18.8543 -59.3752 31.3543 -67.0835 39.0627C-74.896 46.771 -87.396 46.771 -95.1043 39.0627C-102.813 31.3543 -102.813 18.8543 -95.1043 11.0418C-94.3752 10.4168 -93.2293 10.4168 -92.5002 11.0418ZM-81.146 5.31266C-80.1043 5.31266 -79.271 6.146 -79.271 7.18766V25.7293C-79.271 26.771 -80.1043 27.6043 -81.146 27.6043C-82.1877 27.6043 -83.021 26.771 -83.021 25.7293V7.18766C-83.021 6.146 -82.1877 5.31266 -81.146 5.31266ZM116.771 6.35432C117.604 6.35432 118.333 7.08349 118.333 7.91682C118.333 8.75016 117.604 9.47932 116.771 9.47932H113.646C111.875 9.47932 110.521 10.8335 110.521 12.6043V15.7293C110.521 16.5627 109.791 17.2918 108.958 17.2918C108.125 17.2918 107.396 16.5627 107.396 15.7293V12.6043C107.396 9.16682 110.208 6.35432 113.646 6.35432H116.771ZM138.646 6.35432C142.083 6.35432 144.896 9.16682 144.896 12.6043V15.7293C144.896 16.5627 144.167 17.2918 143.333 17.2918C142.5 17.2918 141.771 16.5627 141.771 15.7293V12.6043C141.771 10.8335 140.312 9.47932 138.646 9.47932H135.521C134.687 9.47932 133.958 8.75016 133.958 7.91682C133.958 7.08349 134.687 6.35432 135.521 6.35432H138.646ZM133.958 25.1043C133.958 29.3752 130.416 32.9168 126.146 32.9168C121.771 32.9168 118.333 29.3752 118.333 25.1043C118.333 20.7293 121.771 17.2918 126.146 17.2918C130.416 17.2918 133.958 20.7293 133.958 25.1043ZM110.521 37.6043C110.521 39.271 111.875 40.7293 113.646 40.7293H116.771C117.604 40.7293 118.333 41.4585 118.333 42.2918C118.333 43.1252 117.604 43.8543 116.771 43.8543H113.646C110.208 43.8543 107.396 41.0418 107.396 37.6043V34.4793C107.396 33.646 108.125 32.9168 108.958 32.9168C109.791 32.9168 110.521 33.646 110.521 34.4793V37.6043ZM144.896 37.6043C144.896 41.0418 142.083 43.8543 138.646 43.8543H135.521C134.687 43.8543 133.958 43.1252 133.958 42.2918C133.958 41.4585 134.687 40.7293 135.521 40.7293H138.646C140.312 40.7293 141.771 39.271 141.771 37.6043V34.4793C141.771 33.646 142.5 32.9168 143.333 32.9168C144.167 32.9168 144.896 33.646 144.896 34.4793V37.6043ZM123.958 -63.7498C125.208 -64.9998 127.187 -64.9998 128.437 -63.7498C128.958 -63.1248 128.958 -62.1873 128.437 -61.5623L127.291 -60.5207C126.979 -60.2082 126.562 -59.9998 126.146 -59.9998C125.729 -59.9998 125.416 -60.2082 125.104 -60.5207L123.958 -61.5623C123.333 -62.1873 123.333 -63.1248 123.958 -63.7498ZM117.291 -70.4165C122.187 -75.3123 130.104 -75.3123 135 -70.4165C135.625 -69.7915 135.625 -68.854 135 -68.229L133.958 -67.0832C133.646 -66.7707 133.229 -66.6665 132.812 -66.6665C132.396 -66.6665 131.979 -66.7707 131.667 -67.0832C128.646 -70.104 123.75 -70.104 120.625 -67.0832C120 -66.4582 119.062 -66.4582 118.437 -67.0832L117.291 -68.229C116.771 -68.854 116.771 -69.7915 117.291 -70.4165ZM110.625 -77.0832C119.166 -85.6248 133.021 -85.6248 141.562 -77.0832C142.187 -76.4582 142.187 -75.4165 141.562 -74.7915L140.521 -73.7498C140.208 -73.4373 139.791 -73.229 139.375 -73.229C138.958 -73.229 138.541 -73.4373 138.333 -73.7498C131.562 -80.4165 120.729 -80.4165 113.958 -73.7498C113.333 -73.1248 112.396 -73.1248 111.771 -73.7498L110.625 -74.7915C110.416 -75.104 110.208 -75.5207 110.208 -75.9373C110.208 -76.354 110.416 -76.7707 110.625 -77.0832ZM104.062 -83.6457C116.25 -95.8332 136.041 -95.8332 148.229 -83.6457C148.854 -83.0207 148.854 -82.0832 148.229 -81.4582L147.083 -80.3123C146.875 -80.104 146.458 -79.8957 146.041 -79.8957C145.625 -79.8957 145.208 -80.104 144.896 -80.3123C134.583 -90.729 117.708 -90.729 107.396 -80.3123C107.083 -80.104 106.666 -79.8957 106.25 -79.8957C105.833 -79.8957 105.417 -80.104 105.104 -80.3123L104.062 -81.4582C103.437 -82.0832 103.437 -83.0207 104.062 -83.6457ZM9.479 109.792C14.3401 109.028 19.3054 108.646 24.3748 108.646C29.4443 108.646 34.4095 109.028 39.2707 109.792C43.4373 110.313 46.2498 113.958 46.2498 118.021V130.521C46.2498 134.583 43.4373 138.229 39.2707 138.854C36.9095 139.202 34.5137 139.479 32.0832 139.688C31.7707 139.688 31.5623 139.792 31.4582 140L25.729 148.646C25.4165 149.063 24.8957 149.271 24.3748 149.271C23.854 149.271 23.3332 149.063 23.1248 148.646L17.3957 140C17.1873 139.792 16.979 139.688 16.7707 139.688C14.2707 139.479 11.8401 139.202 9.479 138.854C5.4165 138.229 2.49983 134.583 2.49983 130.521V118.021C2.49983 113.958 5.4165 110.313 9.479 109.792ZM14.9998 122.708H33.7498C34.5832 122.708 35.3123 122.083 35.3123 121.146C35.3123 120.313 34.5832 119.583 33.7498 119.583H14.9998C14.1665 119.583 13.4373 120.313 13.4373 121.146C13.4373 122.083 14.1665 122.708 14.9998 122.708ZM14.9998 125.833C14.1665 125.833 13.4373 126.563 13.4373 127.396C13.4373 128.333 14.1665 128.958 14.9998 128.958H24.3748C25.2082 128.958 25.9373 128.333 25.9373 127.396C25.9373 126.563 25.2082 125.833 24.3748 125.833H14.9998Z" fill="#0F172A"/>
<path fill-rule="evenodd" clip-rule="evenodd" d="M105.833 116.458C105.833 113.021 108.646 110.208 112.083 110.208H140.208C143.646 110.208 146.458 113.021 146.458 116.458V141.458C146.458 144.896 143.646 147.708 140.208 147.708H112.083C108.646 147.708 105.833 144.896 105.833 141.458V116.458ZM114.167 120.729L117.708 124.271L114.167 127.917C113.542 128.542 113.542 129.479 114.167 130.104C114.792 130.729 115.729 130.729 116.354 130.104L121.042 125.417C121.667 124.792 121.667 123.854 121.042 123.229L116.354 118.542C115.729 117.917 114.792 117.917 114.167 118.542C113.542 119.167 113.542 120.104 114.167 120.729ZM123.021 127.396C122.187 127.396 121.458 128.125 121.458 128.958C121.458 129.896 122.187 130.521 123.021 130.521H129.271C130.208 130.521 130.833 129.896 130.833 128.958C130.833 128.125 130.208 127.396 129.271 127.396H123.021ZM-836.25 -192.604C-836.25 -196.042 -833.438 -198.854 -830 -198.854H-801.875C-798.438 -198.854 -795.625 -196.042 -795.625 -192.604V-172.292C-795.625 -168.75 -798.438 -166.042 -801.875 -166.042H-808.125V-165.417C-808.125 -164.167 -807.604 -163.021 -806.771 -162.187L-805.417 -160.833C-805 -160.417 -804.896 -159.687 -805.104 -159.167C-805.313 -158.542 -805.938 -158.229 -806.563 -158.229H-825.312C-825.938 -158.229 -826.458 -158.542 -826.771 -159.167C-826.979 -159.687 -826.875 -160.417 -826.354 -160.833L-825.104 -162.187C-824.271 -163.021 -823.75 -164.167 -823.75 -165.417V-166.042H-830C-833.438 -166.042 -836.25 -168.75 -836.25 -172.292V-192.604ZM-833.125 -192.604V-176.979C-833.125 -175.208 -831.667 -173.854 -830 -173.854H-801.875C-800.104 -173.854 -798.75 -175.208 -798.75 -176.979V-192.604C-798.75 -194.271 -800.104 -195.729 -801.875 -195.729H-830C-831.667 -195.729 -833.125 -194.271 -833.125 -192.604ZM-806.563 138.333H-825.312V119.583H-806.563V138.333Z" fill="#0F172A"/>
<path fill-rule="evenodd" clip-rule="evenodd" d="M-60.7293 128.959C-60.7293 140.209 -69.896 149.271 -81.0418 149.271C-92.2918 149.271 -101.354 140.209 -101.354 128.959C-101.354 117.813 -92.2918 108.646 -81.0418 108.646C-69.896 108.646 -60.7293 117.813 -60.7293 128.959ZM-83.4376 118.021C-88.1251 118.021 -91.9793 121.875 -91.9793 126.667C-91.9793 131.354 -88.1251 135.209 -83.4376 135.209C-81.5626 135.209 -79.8961 134.688 -78.5419 133.75L-74.3752 137.917C-73.7502 138.542 -72.8127 138.542 -72.1877 137.917C-71.5627 137.292 -71.5627 136.354 -72.1877 135.729L-76.3543 131.563C-75.4168 130.104 -74.7918 128.438 -74.7918 126.667C-74.7918 121.875 -78.646 118.021 -83.4376 118.021ZM-166.042 108.646C-165.208 108.646 -164.479 109.375 -164.479 110.209C-164.479 111.146 -165.208 111.771 -166.042 111.771H-167.604V133.646C-167.604 137.084 -170.417 139.896 -173.854 139.896H-176.354L-173.958 147.292C-173.646 148.021 -174.167 148.959 -174.896 149.271C-175.729 149.479 -176.667 149.063 -176.875 148.229L-177.604 146.146H-195.104L-195.833 148.229C-196.146 149.063 -196.979 149.479 -197.813 149.271C-198.646 148.959 -199.063 148.021 -198.75 147.292L-196.354 139.896H-198.854C-202.292 139.896 -205.104 137.084 -205.104 133.646V111.771H-206.667C-207.604 111.771 -208.229 111.146 -208.229 110.209C-208.229 109.375 -207.604 108.646 -206.667 108.646H-166.042ZM-184.792 122.709C-184.792 121.875 -185.521 121.146 -186.354 121.146C-187.292 121.146 -187.917 121.875 -187.917 122.709V130.521C-187.917 131.459 -187.292 132.084 -186.354 132.084C-185.521 132.084 -184.792 131.459 -184.792 130.521V122.709ZM-178.542 118.021C-178.542 117.188 -179.271 116.459 -180.104 116.459C-181.042 116.459 -181.667 117.188 -181.667 118.021V130.521C-181.667 131.459 -181.042 132.084 -180.104 132.084C-179.271 132.084 -178.542 131.459 -178.542 130.521V118.021ZM-178.646 143.021L-179.688 139.896H-193.021L-194.063 143.021H-178.646ZM-191.146 127.396C-191.146 126.563 -191.771 125.834 -192.708 125.834C-193.542 125.834 -194.271 126.563 -194.271 127.396V130.521C-194.271 131.459 -193.542 132.084 -192.708 132.084C-191.771 132.084 -191.146 131.459 -191.146 130.521V127.396ZM33.0207 3.22948C35.104 3.22948 36.8748 5.00031 36.8748 7.08365V13.3336C37.7776 13.4725 38.6804 13.6114 39.5831 13.7503C42.604 14.167 44.6873 16.7711 44.6873 19.792V32.917C44.6873 36.3545 41.8748 39.167 38.4373 39.167H37.9165L38.229 42.7086C38.4373 45.0003 36.6665 46.9795 34.3748 46.9795H14.479C12.1873 46.9795 10.4165 45.0003 10.6248 42.7086L10.9373 39.167H10.3123C6.87482 39.167 4.06232 36.3545 4.06232 32.917V19.792C4.06232 16.7711 6.24982 14.167 9.27069 13.7503C10.104 13.6114 10.972 13.4725 11.8748 13.3336V7.08365C11.8748 5.00031 13.6457 3.22948 15.8332 3.22948H33.0207ZM36.8748 23.542C37.8123 23.542 38.4373 22.8128 38.4373 21.9795C38.4373 21.1461 37.8123 20.417 36.8748 20.417C36.0415 20.417 35.3123 21.1461 35.3123 21.9795C35.3123 22.8128 36.0415 23.542 36.8748 23.542ZM24.3748 29.792C21.3887 29.792 18.4373 29.9309 15.5207 30.2086C15.104 30.3128 14.7915 30.5211 14.7915 30.9378L13.6456 43.0211C13.6456 43.4378 13.9582 43.8545 14.479 43.8545H34.3748C34.7915 43.8545 35.104 43.4378 35.104 43.0211L34.0623 30.9378C33.9582 30.5211 33.6456 30.3128 33.3331 30.2086C30.4165 29.9309 27.4304 29.792 24.3748 29.792ZM33.7498 13.0211V7.08365C33.7498 6.66698 33.4373 6.35448 33.0207 6.35448H15.8332C15.4165 6.35448 14.9998 6.66698 14.9998 7.08365V13.0211C18.1248 12.7434 21.2498 12.6045 24.3748 12.6045C27.5693 12.6045 30.6943 12.7434 33.7498 13.0211ZM30.6248 20.417C29.7915 20.417 29.0623 21.1461 29.0623 21.9795C29.0623 22.8128 29.7915 23.542 30.6248 23.542C31.5623 23.542 32.1873 22.8128 32.1873 21.9795C32.1873 21.1461 31.5623 20.417 30.6248 20.417ZM-310.521 132.084C-310.521 122.604 -302.813 114.896 -293.333 114.896C-292.5 114.896 -291.771 115.625 -291.771 116.459V130.521H-277.708C-276.875 130.521 -276.146 131.25 -276.146 132.084C-276.146 141.563 -283.854 149.271 -293.333 149.271C-302.813 149.271 -310.521 141.563 -310.521 132.084ZM-288.646 110.209C-288.646 109.375 -287.917 108.646 -287.083 108.646C-277.604 108.646 -269.896 116.354 -269.896 125.834C-269.896 126.771 -270.625 127.396 -271.458 127.396H-287.083C-287.917 127.396 -288.646 126.771 -288.646 125.834V110.209ZM-691.25 -160.833C-690.625 -160.208 -690.625 -159.271 -691.25 -158.646C-691.875 -158.021 -692.813 -158.021 -693.438 -158.646L-730.938 -196.146C-731.563 -196.771 -731.563 -197.708 -730.938 -198.333C-730.313 -198.958 -729.375 -198.958 -728.75 -198.333L-691.25 -160.833ZM-689.271 -166.666C-689.271 -165.625 -689.688 -164.896 -690.313 -164.271L-700.208 -174.166V-186.979L-694.583 -192.604C-692.604 -194.479 -689.271 -193.125 -689.271 -190.312V-166.666ZM-703.333 -187.916V-177.396L-720.104 -194.166H-709.583C-706.042 -194.166 -703.333 -191.354 -703.333 -187.916ZM-733.021 -187.916C-733.021 -189.583 -732.396 -191.041 -731.354 -192.187L-704.584 -165.416C-705.729 -163.854 -707.5 -162.916 -709.583 -162.916H-726.771C-730.208 -162.916 -733.021 -165.729 -733.021 -169.166V-187.916Z" fill="#0F172A"/>
</g>
</g>
<defs>
<clipPath id="clip0_70_5409">
<rect width="50" height="50" fill="white"/>
</clipPath>
</defs>
</svg>
