<svg width="50" height="50" viewBox="0 0 50 50" fill="none" xmlns="http://www.w3.org/2000/svg">
<g clip-path="url(#clip0_70_5423)">
<mask id="mask0_70_5423" style="mask-type:luminance" maskUnits="userSpaceOnUse" x="-321" y="-591" width="1617" height="1276">
<path d="M-320.408 -590.369H1295.92V684.1H-320.408V-590.369Z" fill="white"/>
</mask>
<g mask="url(#mask0_70_5423)">
<path fill-rule="evenodd" clip-rule="evenodd" d="M244.898 141.202C244.082 142.035 242.755 142.035 241.939 141.202L221.939 120.794V136.933C221.939 138.078 221.021 139.015 219.898 139.015C218.674 139.015 217.755 138.078 217.755 136.933V115.692C217.755 114.546 218.674 113.609 219.898 113.609H240.612C241.735 113.609 242.653 114.546 242.653 115.692C242.653 116.837 241.735 117.774 240.612 117.774H224.898L244.898 138.182C245.714 139.015 245.714 140.369 244.898 141.202ZM419.898 229.186C419.898 216.691 429.796 206.591 442.041 206.591C454.286 206.591 464.184 216.691 464.184 229.186C464.184 241.681 454.286 251.781 442.041 251.781C429.796 251.781 419.898 241.681 419.898 229.186ZM439.898 238.349C439.898 239.494 440.816 240.431 442.041 240.431C443.163 240.431 444.082 239.494 444.082 238.349V225.437L449.49 231.268C450.306 232.206 451.531 232.206 452.449 231.477C453.265 230.644 453.265 229.29 452.551 228.457L443.572 218.565C443.163 218.149 442.551 217.836 442.041 217.836C441.429 217.836 440.918 218.149 440.51 218.565L431.531 228.457C430.714 229.29 430.714 230.644 431.633 231.477C432.449 232.206 433.776 232.206 434.49 231.268L439.898 225.437V238.349ZM39.0818 127.666C39.0818 128.811 38.1634 129.748 36.9389 129.748H18.5716L24.592 135.267C25.4083 136.1 25.4083 137.453 24.592 138.286C23.8777 139.119 22.5511 139.223 21.7348 138.39L12.0409 129.228C11.6328 128.811 11.3267 128.186 11.3267 127.666C11.3267 127.041 11.6328 126.52 12.0409 126.104L21.7348 116.941C22.5511 116.108 23.8777 116.212 24.592 117.045C25.4083 117.878 25.4083 119.232 24.592 119.961L18.5716 125.583H36.9389C38.1634 125.583 39.0818 126.52 39.0818 127.666ZM626.021 217.836C624.796 217.836 623.878 218.774 623.878 219.919V243.971C623.878 245.117 624.796 246.054 626.021 246.054H649.592C650.714 246.054 651.633 245.117 651.633 243.971V232.622C651.633 231.477 652.551 230.54 653.674 230.54C654.898 230.54 655.816 231.477 655.816 232.622V243.971C655.816 247.512 652.959 250.323 649.592 250.323H626.021C622.551 250.323 619.694 247.512 619.694 243.971V219.919C619.694 216.379 622.551 213.567 626.021 213.567H639.796C641.021 213.567 641.939 214.505 641.939 215.65C641.939 216.899 641.021 217.836 639.796 217.836H626.021ZM631.633 235.329L656.735 212.11H649.592C648.469 212.11 647.551 211.173 647.551 210.027C647.551 208.882 648.469 207.945 649.592 207.945H662.143C663.266 207.945 664.184 208.882 664.184 210.027V222.73C664.184 223.876 663.266 224.917 662.143 224.917C660.919 224.917 660 223.876 660 222.73V214.817L634.388 238.453C633.572 239.286 632.245 239.182 631.429 238.349C630.714 237.412 630.714 236.162 631.633 235.329ZM114.184 127.666C114.184 126.52 115.102 125.583 116.225 125.583H134.694L128.674 119.961C127.857 119.232 127.857 117.878 128.572 117.045C129.388 116.212 130.714 116.108 131.531 116.941L141.225 126.104C141.633 126.52 141.837 127.041 141.837 127.666C141.837 128.186 141.633 128.811 141.225 129.228L131.531 138.39C130.714 139.223 129.388 139.119 128.572 138.286C127.857 137.453 127.857 136.1 128.674 135.267L134.694 129.748H116.225C115.102 129.748 114.184 128.811 114.184 127.666ZM332.755 133.913C333.572 134.746 333.572 136.1 332.755 136.933C331.939 137.766 330.612 137.766 329.796 136.933L325.102 132.143C325.238 135.128 325.476 138.113 325.816 141.098C325.918 141.931 326.633 142.659 327.551 142.764C330.816 143.041 334.15 143.18 337.551 143.18C340.884 143.18 344.184 143.041 347.449 142.764C348.367 142.659 349.082 141.931 349.184 141.098C349.388 139.64 349.524 138.147 349.592 136.62C349.694 135.475 350.714 134.642 351.837 134.746C352.959 134.85 353.878 135.787 353.776 137.037C353.64 138.564 353.47 140.056 353.265 141.514C352.959 144.43 350.714 146.72 347.857 146.929C344.456 147.276 341.021 147.449 337.551 147.449C334.014 147.449 330.544 147.276 327.143 146.929C324.286 146.72 322.041 144.43 321.735 141.514C321.327 138.39 321.089 135.232 321.021 132.039L316.123 136.933C315.306 137.766 313.98 137.766 313.265 136.933C312.449 136.1 312.449 134.746 313.265 133.913L321.531 125.479C322.347 124.646 323.674 124.646 324.49 125.479L332.755 133.913ZM327.551 112.568C326.633 112.672 325.918 113.297 325.816 114.234C325.612 115.692 325.476 117.149 325.408 118.607C325.306 119.752 324.286 120.689 323.163 120.585C322.041 120.481 321.123 119.44 321.225 118.295C321.361 116.767 321.497 115.24 321.633 113.713C322.041 110.798 324.286 108.611 327.143 108.299C330.544 108.021 333.98 107.882 337.449 107.882C340.987 107.882 344.456 108.021 347.857 108.299C350.714 108.611 352.959 110.798 353.265 113.713C353.674 116.906 353.912 120.099 353.98 123.293L358.878 118.399C359.694 117.566 361.021 117.566 361.735 118.399C362.551 119.232 362.551 120.481 361.735 121.314L353.47 129.852C352.653 130.685 351.327 130.685 350.51 129.852L342.245 121.314C341.429 120.481 341.429 119.232 342.245 118.399C343.061 117.566 344.388 117.566 345.204 118.399L349.898 123.084C349.762 120.099 349.524 117.149 349.184 114.234C349.082 113.297 348.367 112.672 347.449 112.568C344.184 112.221 340.85 112.047 337.449 112.047C334.116 112.047 330.816 112.221 327.551 112.568ZM535.204 116.629C532.449 116.629 530.204 114.338 530.204 111.527C530.204 108.611 532.449 106.32 535.204 106.32C538.061 106.32 540.306 108.611 540.306 111.527C540.306 114.338 538.061 116.629 535.204 116.629ZM544.694 113.401C543.674 113.401 542.857 112.568 542.857 111.527C542.857 110.381 543.674 109.548 544.694 109.548H558.572C559.694 109.548 560.51 110.381 560.51 111.527C560.51 112.568 559.694 113.401 558.572 113.401H544.694ZM527.653 111.527C527.653 112.568 526.837 113.401 525.816 113.401H522.041C520.918 113.401 520.102 112.568 520.102 111.527C520.102 110.485 520.918 109.548 522.041 109.548H525.816C526.837 109.548 527.653 110.485 527.653 111.527ZM522.041 145.679C520.918 145.679 520.102 144.846 520.102 143.701C520.102 142.659 520.918 141.826 522.041 141.826H525.816C526.837 141.826 527.653 142.659 527.653 143.701C527.653 144.846 526.837 145.679 525.816 145.679H522.041ZM544.796 145.679C543.674 145.679 542.857 144.846 542.857 143.701C542.857 142.659 543.674 141.826 544.796 141.826H558.674C559.694 141.826 560.51 142.659 560.51 143.701C560.51 144.846 559.694 145.679 558.674 145.679H544.796ZM537.857 127.666C537.857 128.707 536.939 129.54 535.919 129.54H522.041C521.021 129.54 520.102 128.707 520.102 127.666C520.102 126.52 521.021 125.687 522.041 125.687H535.919C536.939 125.687 537.857 126.52 537.857 127.666ZM554.898 129.54C553.878 129.54 552.959 128.707 552.959 127.666C552.959 126.52 553.878 125.687 554.898 125.687H558.674C559.694 125.687 560.612 126.52 560.612 127.666C560.612 128.707 559.694 129.54 558.674 129.54H554.898ZM545.408 132.768C542.653 132.768 540.408 130.477 540.408 127.666C540.408 124.75 542.653 122.46 545.408 122.46C548.265 122.46 550.51 124.75 550.51 127.666C550.51 130.477 548.265 132.768 545.408 132.768ZM535.306 148.907C532.551 148.907 530.306 146.616 530.306 143.701C530.306 140.889 532.551 138.599 535.306 138.599C538.061 138.599 540.408 140.889 540.408 143.701C540.408 146.616 538.061 148.907 535.306 148.907ZM938.572 5.84148C939.694 5.84148 940.612 6.77859 940.612 7.92395V43.2217C940.612 44.3671 939.694 45.3042 938.572 45.3042H934.388C933.265 45.3042 932.347 44.3671 932.347 43.2217V7.92395C932.347 6.77859 933.265 5.84148 934.388 5.84148H938.572ZM957.959 5.84148C959.082 5.84148 960.102 6.77859 960.102 7.92395V43.2217C960.102 44.3671 959.082 45.3042 957.959 45.3042H953.878C952.653 45.3042 951.735 44.3671 951.735 43.2217V7.92395C951.735 6.77859 952.653 5.84148 953.878 5.84148H957.959ZM835.714 36.7661L839.184 27.9156C839.796 26.4579 840.612 25.2084 841.633 24.0631L860.816 4.592C863.061 2.19717 866.837 2.19717 869.082 4.592C871.429 6.88272 871.429 10.7353 869.082 13.026L850 32.6012C848.878 33.6424 847.653 34.4754 846.225 35.1001L837.551 38.6403C836.429 39.1609 835.306 38.0156 835.714 36.7661ZM830.408 40.6187C830.408 42.4929 831.939 44.1589 833.776 44.1589H860.102C862.041 44.1589 863.572 42.4929 863.572 40.6187V25.729C863.572 24.5837 864.49 23.6466 865.612 23.6466C866.837 23.6466 867.755 24.5837 867.755 25.729V40.6187C867.755 44.8877 864.286 48.3238 860.102 48.3238H833.776C829.592 48.3238 826.225 44.8877 826.225 40.6187V13.7549C826.225 9.4858 829.592 5.94561 833.776 5.94561H848.367C849.49 5.94561 850.408 6.88272 850.408 8.1322C850.408 9.27755 849.49 10.2147 848.367 10.2147H833.776C831.939 10.2147 830.408 11.7765 830.408 13.7549V40.6187ZM728.061 34.5795L758.265 3.75902C760.612 1.36418 764.286 1.36418 766.633 3.75902C768.878 6.04973 768.878 9.90229 766.633 12.193L736.327 43.0135C735.306 44.1589 734.082 44.9918 732.653 45.5125L723.878 49.1568C722.755 49.5733 721.633 48.4279 722.143 47.2826L725.612 38.4321C726.123 36.9743 727.041 35.6207 728.061 34.5795ZM619.898 109.34C619.898 106.945 621.735 105.071 623.98 105.071H627.245C629.184 105.071 630.816 106.425 631.225 108.403L633.265 117.462C633.674 119.648 632.449 121.835 630.306 122.46L627.755 123.188C626.633 123.605 625.919 124.75 626.429 125.896C629.592 133.913 635.919 140.265 643.674 143.597C644.796 144.013 646.021 143.388 646.327 142.243L647.041 139.536C647.653 137.453 649.796 136.1 651.939 136.62L660.919 138.599C662.755 139.015 664.184 140.785 664.184 142.764V145.991C664.184 148.386 662.245 150.26 660 150.26H655.816C652.653 150.26 649.592 149.844 646.633 149.011C634.184 145.679 624.388 135.683 621.021 122.876C620.306 119.961 619.898 116.733 619.898 113.505V109.34Z" fill="#0F172A"/>
<path fill-rule="evenodd" clip-rule="evenodd" d="M928.163 320.502C928.163 317.066 930.918 314.255 934.286 314.255H961.837C965.204 314.255 967.959 317.066 967.959 320.502V345.492C967.959 348.928 965.204 351.739 961.837 351.739H934.286C930.918 351.739 928.163 348.928 928.163 345.492V320.502ZM936.327 324.771L939.796 328.311L936.327 331.955C935.714 332.58 935.714 333.517 936.327 334.142C936.939 334.767 937.857 334.767 938.469 334.142L943.061 329.457C943.673 328.832 943.673 327.895 943.061 327.27L938.469 322.584C937.857 321.96 936.939 321.96 936.327 322.584C935.714 323.209 935.714 324.146 936.327 324.771ZM945 331.435C944.184 331.435 943.469 332.164 943.469 332.997C943.469 333.934 944.184 334.559 945 334.559H951.122C952.041 334.559 952.653 333.934 952.653 332.997C952.653 332.164 952.041 331.435 951.122 331.435H945ZM5.30615 11.5682C5.30615 8.13213 8.06125 5.3208 11.4286 5.3208H38.9796C42.347 5.3208 45.1021 8.13213 45.1021 11.5682V31.8722C45.1021 35.4124 42.347 38.1196 38.9796 38.1196H32.8572V38.7444C32.8572 39.9939 33.3674 41.1392 34.1837 41.9722L35.5102 43.3258C35.9184 43.7423 36.0204 44.4712 35.8164 44.9918C35.6123 45.6165 35 45.9289 34.3878 45.9289H16.0204C15.4082 45.9289 14.898 45.6165 14.5919 44.9918C14.3878 44.4712 14.4898 43.7423 15 43.3258L16.2245 41.9722C17.0408 41.1392 17.5511 39.9939 17.5511 38.7444V38.1196H11.4286C8.06125 38.1196 5.30615 35.4124 5.30615 31.8722V11.5682ZM8.36738 11.5682V27.1867C8.36738 28.9568 9.79595 30.3104 11.4286 30.3104H38.9796C40.7143 30.3104 42.0408 28.9568 42.0408 27.1867V11.5682C42.0408 9.90223 40.7143 8.4445 38.9796 8.4445H11.4286C9.79595 8.4445 8.36738 9.90223 8.36738 11.5682ZM34.3878 342.368H16.0204V323.626H34.3878V342.368Z" fill="#0F172A"/>
</g>
</g>
<defs>
<clipPath id="clip0_70_5423">
<rect width="50" height="50" fill="white"/>
</clipPath>
</defs>
</svg>
