<svg width="56" height="50" viewBox="0 0 56 50" fill="none" xmlns="http://www.w3.org/2000/svg">
<g clip-path="url(#clip0_70_5422)">
<mask id="mask0_70_5422" style="mask-type:luminance" maskUnits="userSpaceOnUse" x="-439" y="-597" width="1675" height="1294">
<path d="M-438.49 -596.812H1235.17V696.472H-438.49V-596.812Z" fill="white"/>
</mask>
<g mask="url(#mask0_70_5422)">
<path fill-rule="evenodd" clip-rule="evenodd" d="M146.868 145.559C146.023 146.404 144.649 146.404 143.804 145.559L123.094 124.849V141.226C123.094 142.389 122.143 143.34 120.981 143.34C119.713 143.34 118.762 142.389 118.762 141.226V119.672C118.762 118.509 119.713 117.559 120.981 117.559H142.43C143.592 117.559 144.543 118.509 144.543 119.672C144.543 120.834 143.592 121.785 142.43 121.785H126.158L146.868 142.494C147.713 143.34 147.713 144.713 146.868 145.559ZM328.075 234.842C328.075 222.162 338.324 211.913 351.004 211.913C363.683 211.913 373.932 222.162 373.932 234.842C373.932 247.521 363.683 257.77 351.004 257.77C338.324 257.77 328.075 247.521 328.075 234.842ZM348.785 244.14C348.785 245.302 349.736 246.253 351.004 246.253C352.166 246.253 353.117 245.302 353.117 244.14V231.038L358.717 236.955C359.562 237.906 360.83 237.906 361.781 237.166C362.626 236.321 362.626 234.947 361.887 234.102L352.589 224.064C352.166 223.642 351.532 223.325 351.004 223.325C350.37 223.325 349.841 223.642 349.419 224.064L340.121 234.102C339.275 234.947 339.275 236.321 340.226 237.166C341.072 237.906 342.445 237.906 343.185 236.955L348.785 231.038V244.14ZM-66.2491 131.823C-66.2491 132.985 -67.2001 133.936 -68.468 133.936H-87.4869L-81.2529 139.536C-80.4076 140.381 -80.4076 141.755 -81.2529 142.6C-81.9925 143.445 -83.3661 143.551 -84.2114 142.706L-94.2491 133.408C-94.6718 132.985 -94.9888 132.351 -94.9888 131.823C-94.9888 131.189 -94.6718 130.66 -94.2491 130.238L-84.2114 120.94C-83.3661 120.094 -81.9925 120.2 -81.2529 121.045C-80.4076 121.891 -80.4076 123.264 -81.2529 124.004L-87.4869 129.709H-68.468C-67.2001 129.709 -66.2491 130.66 -66.2491 131.823ZM541.509 223.325C540.241 223.325 539.29 224.275 539.29 225.438V249.845C539.29 251.008 540.241 251.959 541.509 251.959H565.917C567.079 251.959 568.03 251.008 568.03 249.845V238.328C568.03 237.166 568.981 236.215 570.143 236.215C571.411 236.215 572.362 237.166 572.362 238.328V249.845C572.362 253.438 569.404 256.291 565.917 256.291H541.509C537.917 256.291 534.958 253.438 534.958 249.845V225.438C534.958 221.845 537.917 218.992 541.509 218.992H555.774C557.041 218.992 557.992 219.943 557.992 221.106C557.992 222.374 557.041 223.325 555.774 223.325H541.509ZM547.321 241.075L573.313 217.513H565.917C564.755 217.513 563.804 216.562 563.804 215.4C563.804 214.238 564.755 213.287 565.917 213.287H578.913C580.075 213.287 581.026 214.238 581.026 215.4V228.291C581.026 229.453 580.075 230.509 578.913 230.509C577.645 230.509 576.694 229.453 576.694 228.291V220.26L550.174 244.245C549.328 245.091 547.955 244.985 547.109 244.14C546.37 243.189 546.37 241.921 547.321 241.075ZM11.5169 131.823C11.5169 130.66 12.4678 129.709 13.6301 129.709H32.7546L26.5207 124.004C25.6754 123.264 25.6754 121.891 26.415 121.045C27.2603 120.2 28.6339 120.094 29.4792 120.94L39.5169 130.238C39.9395 130.66 40.1509 131.189 40.1509 131.823C40.1509 132.351 39.9395 132.985 39.5169 133.408L29.4792 142.706C28.6339 143.551 27.2603 143.445 26.415 142.6C25.6754 141.755 25.6754 140.381 26.5207 139.536L32.7546 133.936H13.6301C12.4678 133.936 11.5169 132.985 11.5169 131.823ZM237.841 138.162C238.687 139.008 238.687 140.381 237.841 141.226C236.996 142.072 235.623 142.072 234.777 141.226L229.917 136.366C230.058 139.395 230.304 142.424 230.657 145.453C230.762 146.298 231.502 147.038 232.453 147.143C235.834 147.425 239.285 147.566 242.807 147.566C246.259 147.566 249.675 147.425 253.057 147.143C254.007 147.038 254.747 146.298 254.853 145.453C255.064 143.974 255.205 142.459 255.275 140.909C255.381 139.747 256.438 138.902 257.6 139.008C258.762 139.113 259.713 140.064 259.607 141.332C259.467 142.882 259.29 144.396 259.079 145.875C258.762 148.834 256.438 151.159 253.479 151.37C249.957 151.722 246.4 151.898 242.807 151.898C239.145 151.898 235.552 151.722 232.03 151.37C229.072 151.159 226.747 148.834 226.43 145.875C226.007 142.706 225.761 139.501 225.69 136.26L220.619 141.226C219.773 142.072 218.4 142.072 217.66 141.226C216.815 140.381 216.815 139.008 217.66 138.162L226.219 129.604C227.064 128.758 228.438 128.758 229.283 129.604L237.841 138.162ZM232.453 116.502C231.502 116.608 230.762 117.242 230.657 118.192C230.445 119.672 230.304 121.151 230.234 122.63C230.128 123.792 229.072 124.743 227.909 124.638C226.747 124.532 225.796 123.475 225.902 122.313C226.043 120.764 226.184 119.214 226.324 117.664C226.747 114.706 229.072 112.487 232.03 112.17C235.552 111.888 239.109 111.747 242.702 111.747C246.365 111.747 249.957 111.888 253.479 112.17C256.438 112.487 258.762 114.706 259.079 117.664C259.502 120.904 259.748 124.145 259.819 127.385L264.89 122.419C265.736 121.574 267.109 121.574 267.849 122.419C268.694 123.264 268.694 124.532 267.849 125.377L259.29 134.042C258.445 134.887 257.072 134.887 256.226 134.042L247.668 125.377C246.823 124.532 246.823 123.264 247.668 122.419C248.513 121.574 249.887 121.574 250.732 122.419L255.592 127.174C255.451 124.145 255.205 121.151 254.853 118.192C254.747 117.242 254.007 116.608 253.057 116.502C249.675 116.15 246.224 115.974 242.702 115.974C239.25 115.974 235.834 116.15 232.453 116.502ZM447.472 120.623C444.619 120.623 442.294 118.298 442.294 115.445C442.294 112.487 444.619 110.162 447.472 110.162C450.43 110.162 452.755 112.487 452.755 115.445C452.755 118.298 450.43 120.623 447.472 120.623ZM457.298 117.347C456.241 117.347 455.396 116.502 455.396 115.445C455.396 114.283 456.241 113.438 457.298 113.438H471.668C472.83 113.438 473.675 114.283 473.675 115.445C473.675 116.502 472.83 117.347 471.668 117.347H457.298ZM439.653 115.445C439.653 116.502 438.807 117.347 437.751 117.347H433.841C432.679 117.347 431.834 116.502 431.834 115.445C431.834 114.389 432.679 113.438 433.841 113.438H437.751C438.807 113.438 439.653 114.389 439.653 115.445ZM433.841 150.102C432.679 150.102 431.834 149.257 431.834 148.094C431.834 147.038 432.679 146.192 433.841 146.192H437.751C438.807 146.192 439.653 147.038 439.653 148.094C439.653 149.257 438.807 150.102 437.751 150.102H433.841ZM457.404 150.102C456.241 150.102 455.396 149.257 455.396 148.094C455.396 147.038 456.241 146.192 457.404 146.192H471.773C472.83 146.192 473.675 147.038 473.675 148.094C473.675 149.257 472.83 150.102 471.773 150.102H457.404ZM450.219 131.823C450.219 132.879 449.268 133.725 448.211 133.725H433.841C432.785 133.725 431.834 132.879 431.834 131.823C431.834 130.66 432.785 129.815 433.841 129.815H448.211C449.268 129.815 450.219 130.66 450.219 131.823ZM467.864 133.725C466.807 133.725 465.857 132.879 465.857 131.823C465.857 130.66 466.807 129.815 467.864 129.815H471.773C472.83 129.815 473.781 130.66 473.781 131.823C473.781 132.879 472.83 133.725 471.773 133.725H467.864ZM458.038 137C455.185 137 452.86 134.675 452.86 131.823C452.86 128.864 455.185 126.54 458.038 126.54C460.996 126.54 463.321 128.864 463.321 131.823C463.321 134.675 460.996 137 458.038 137ZM447.577 153.377C444.724 153.377 442.4 151.053 442.4 148.094C442.4 145.242 444.724 142.917 447.577 142.917C450.43 142.917 452.86 145.242 452.86 148.094C452.86 151.053 450.43 153.377 447.577 153.377ZM865.147 8.20001C866.309 8.20001 867.26 9.15095 867.26 10.3132V46.1321C867.26 47.2943 866.309 48.2453 865.147 48.2453H860.815C859.653 48.2453 858.702 47.2943 858.702 46.1321V10.3132C858.702 9.15095 859.653 8.20001 860.815 8.20001H865.147ZM885.223 8.20001C886.385 8.20001 887.441 9.15095 887.441 10.3132V46.1321C887.441 47.2943 886.385 48.2453 885.223 48.2453H880.996C879.728 48.2453 878.777 47.2943 878.777 46.1321V10.3132C878.777 9.15095 879.728 8.20001 880.996 8.20001H885.223ZM758.641 39.5811L762.234 30.6C762.868 29.1208 763.713 27.8528 764.77 26.6906L784.634 6.93208C786.958 4.5019 790.868 4.5019 793.192 6.93208C795.623 9.25661 795.623 13.166 793.192 15.4906L773.434 35.3547C772.272 36.4113 771.004 37.2566 769.524 37.8906L760.543 41.483C759.381 42.0113 758.219 40.8491 758.641 39.5811ZM753.147 43.4906C753.147 45.3925 754.732 47.083 756.634 47.083H783.894C785.902 47.083 787.487 45.3925 787.487 43.4906V28.3811C787.487 27.2189 788.438 26.2679 789.6 26.2679C790.868 26.2679 791.819 27.2189 791.819 28.3811V43.4906C791.819 47.8227 788.226 51.3094 783.894 51.3094H756.634C752.302 51.3094 748.815 47.8227 748.815 43.4906V16.2302C748.815 11.8981 752.302 8.30567 756.634 8.30567H771.743C772.906 8.30567 773.857 9.25661 773.857 10.5245C773.857 11.6868 772.906 12.6377 771.743 12.6377H756.634C754.732 12.6377 753.147 14.2227 753.147 16.2302V43.4906ZM647.17 37.3623L678.445 6.0868C680.875 3.65661 684.679 3.65661 687.109 6.0868C689.434 8.41133 689.434 12.3208 687.109 14.6453L655.728 45.9208C654.672 47.083 653.404 47.9283 651.924 48.4566L642.838 52.1547C641.675 52.5774 640.513 51.4151 641.041 50.2528L644.634 41.2717C645.162 39.7925 646.113 38.4189 647.17 37.3623ZM535.17 113.226C535.17 110.796 537.072 108.894 539.396 108.894H542.777C544.785 108.894 546.475 110.268 546.898 112.275L549.011 121.468C549.434 123.687 548.166 125.906 545.947 126.54L543.306 127.279C542.143 127.702 541.404 128.864 541.932 130.026C545.208 138.162 551.758 144.608 559.789 147.989C560.951 148.411 562.219 147.777 562.536 146.615L563.275 143.868C563.909 141.755 566.128 140.381 568.347 140.909L577.645 142.917C579.547 143.34 581.026 145.136 581.026 147.143V150.419C581.026 152.849 579.019 154.751 576.694 154.751H572.362C569.087 154.751 565.917 154.328 562.853 153.483C549.962 150.102 539.819 139.958 536.332 126.962C535.592 124.004 535.17 120.728 535.17 117.453V113.226Z" fill="#0F172A"/>
<path fill-rule="evenodd" clip-rule="evenodd" d="M854.37 327.505C854.37 324.019 857.223 321.166 860.709 321.166H889.238C892.724 321.166 895.577 324.019 895.577 327.505V352.864C895.577 356.351 892.724 359.203 889.238 359.203H860.709C857.223 359.203 854.37 356.351 854.37 352.864V327.505ZM862.823 331.837L866.415 335.43L862.823 339.128C862.189 339.762 862.189 340.713 862.823 341.347C863.457 341.981 864.408 341.981 865.042 341.347L869.796 336.592C870.43 335.958 870.43 335.007 869.796 334.373L865.042 329.619C864.408 328.985 863.457 328.985 862.823 329.619C862.189 330.253 862.189 331.203 862.823 331.837ZM871.804 338.6C870.958 338.6 870.219 339.339 870.219 340.185C870.219 341.136 870.958 341.77 871.804 341.77H878.143C879.094 341.77 879.728 341.136 879.728 340.185C879.728 339.339 879.094 338.6 878.143 338.6H871.804ZM-101.223 14.011C-101.223 10.5242 -98.3698 7.67139 -94.883 7.67139H-66.3547C-62.8679 7.67139 -60.0151 10.5242 -60.0151 14.011V34.6148C-60.0151 38.2072 -62.8679 40.9544 -66.3547 40.9544H-72.6944V41.5884C-72.6944 42.8563 -72.166 44.0186 -71.3208 44.8638L-69.9472 46.2374C-69.5245 46.6601 -69.4189 47.3997 -69.6302 47.928C-69.8415 48.562 -70.4755 48.8789 -71.1094 48.8789H-90.1283C-90.7623 48.8789 -91.2906 48.562 -91.6076 47.928C-91.8189 47.3997 -91.7132 46.6601 -91.1849 46.2374L-89.917 44.8638C-89.0717 44.0186 -88.5434 42.8563 -88.5434 41.5884V40.9544H-94.883C-98.3698 40.9544 -101.223 38.2072 -101.223 34.6148V14.011ZM-98.0528 14.011V29.8601C-98.0528 31.6563 -96.5736 33.0299 -94.883 33.0299H-66.3547C-64.5585 33.0299 -63.1849 31.6563 -63.1849 29.8601V14.011C-63.1849 12.3204 -64.5585 10.8412 -66.3547 10.8412H-94.883C-96.5736 10.8412 -98.0528 12.3204 -98.0528 14.011ZM-71.1094 349.694H-90.1283V330.675H-71.1094V349.694Z" fill="#0F172A"/>
<path fill-rule="evenodd" clip-rule="evenodd" d="M685.419 340.185C685.419 351.596 676.121 360.788 664.815 360.788C653.404 360.788 644.211 351.596 644.211 340.185C644.211 328.879 653.404 319.581 664.815 319.581C676.121 319.581 685.419 328.879 685.419 340.185ZM662.385 329.09C657.63 329.09 653.721 333 653.721 337.86C653.721 342.615 657.63 346.524 662.385 346.524C664.287 346.524 665.977 345.996 667.351 345.045L671.577 349.271C672.211 349.905 673.162 349.905 673.796 349.271C674.43 348.637 674.43 347.686 673.796 347.052L669.57 342.826C670.521 341.347 671.155 339.656 671.155 337.86C671.155 333 667.245 329.09 662.385 329.09ZM578.596 319.581C579.442 319.581 580.181 320.32 580.181 321.166C580.181 322.117 579.442 322.751 578.596 322.751H577.011V344.939C577.011 348.426 574.159 351.279 570.672 351.279H568.136L570.566 358.781C570.883 359.52 570.355 360.471 569.615 360.788C568.77 361 567.819 360.577 567.608 359.732L566.868 357.618H549.117L548.377 359.732C548.06 360.577 547.215 361 546.37 360.788C545.525 360.471 545.102 359.52 545.419 358.781L547.849 351.279H545.313C541.826 351.279 538.974 348.426 538.974 344.939V322.751H537.389C536.438 322.751 535.804 322.117 535.804 321.166C535.804 320.32 536.438 319.581 537.389 319.581H578.596ZM559.577 333.845C559.577 333 558.838 332.26 557.992 332.26C557.042 332.26 556.408 333 556.408 333.845V341.769C556.408 342.72 557.042 343.354 557.992 343.354C558.838 343.354 559.577 342.72 559.577 341.769V333.845ZM565.917 329.09C565.917 328.245 565.177 327.505 564.332 327.505C563.381 327.505 562.747 328.245 562.747 329.09V341.769C562.747 342.72 563.381 343.354 564.332 343.354C565.177 343.354 565.917 342.72 565.917 341.769V329.09ZM565.811 354.449L564.755 351.279H551.23L550.174 354.449H565.811ZM553.132 338.6C553.132 337.754 552.498 337.015 551.547 337.015C550.702 337.015 549.962 337.754 549.962 338.6V341.769C549.962 342.72 550.702 343.354 551.547 343.354C552.498 343.354 553.132 342.72 553.132 341.769V338.6ZM780.513 212.652C782.626 212.652 784.423 214.449 784.423 216.562V222.901C785.338 223.042 786.254 223.183 787.17 223.324C790.234 223.747 792.347 226.388 792.347 229.452V242.766C792.347 246.252 789.494 249.105 786.008 249.105H785.479L785.796 252.698C786.008 255.022 784.211 257.03 781.887 257.03H761.706C759.381 257.03 757.585 255.022 757.796 252.698L758.113 249.105H757.479C753.993 249.105 751.14 246.252 751.14 242.766V229.452C751.14 226.388 753.359 223.747 756.423 223.324C757.268 223.183 758.148 223.042 759.064 222.901V216.562C759.064 214.449 760.86 212.652 763.079 212.652H780.513ZM784.423 233.256C785.374 233.256 786.008 232.517 786.008 231.671C786.008 230.826 785.374 230.086 784.423 230.086C783.577 230.086 782.838 230.826 782.838 231.671C782.838 232.517 783.577 233.256 784.423 233.256ZM771.743 239.596C768.715 239.596 765.721 239.737 762.762 240.018C762.34 240.124 762.023 240.335 762.023 240.758L760.86 253.015C760.86 253.437 761.177 253.86 761.706 253.86H781.887C782.31 253.86 782.626 253.437 782.626 253.015L781.57 240.758C781.464 240.335 781.147 240.124 780.83 240.018C777.872 239.737 774.843 239.596 771.743 239.596ZM781.253 222.585V216.562C781.253 216.139 780.936 215.822 780.513 215.822H763.079C762.657 215.822 762.234 216.139 762.234 216.562V222.585C765.404 222.303 768.574 222.162 771.743 222.162C774.984 222.162 778.154 222.303 781.253 222.585ZM778.083 230.086C777.238 230.086 776.498 230.826 776.498 231.671C776.498 232.517 777.238 233.256 778.083 233.256C779.034 233.256 779.668 232.517 779.668 231.671C779.668 230.826 779.034 230.086 778.083 230.086ZM432.045 343.354C432.045 333.739 439.864 325.92 449.479 325.92C450.325 325.92 451.064 326.66 451.064 327.505V341.769H465.328C466.174 341.769 466.913 342.509 466.913 343.354C466.913 352.969 459.094 360.788 449.479 360.788C439.864 360.788 432.045 352.969 432.045 343.354ZM454.234 321.166C454.234 320.32 454.974 319.581 455.819 319.581C465.434 319.581 473.253 327.4 473.253 337.015C473.253 337.966 472.513 338.6 471.668 338.6H455.819C454.974 338.6 454.234 337.966 454.234 337.015V321.166ZM45.8566 46.2373C46.4906 46.8713 46.4906 47.8222 45.8566 48.4562C45.2227 49.0902 44.2717 49.0902 43.6378 48.4562L5.60002 10.4185C4.96606 9.7845 4.96606 8.83356 5.60002 8.19959C6.23399 7.56563 7.18493 7.56563 7.81889 8.19959L45.8566 46.2373ZM47.8642 40.3203C47.8642 41.377 47.4415 42.1166 46.8076 42.7505L36.7698 32.7128V19.7166L42.4755 14.0109C44.483 12.109 47.8642 13.4826 47.8642 16.3354V40.3203ZM33.6 18.7656V29.4373L16.5887 12.426H27.2604C30.8529 12.426 33.6 15.2788 33.6 18.7656ZM3.48682 18.7656C3.48682 17.0751 4.12078 15.5958 5.17738 14.4336L32.3321 41.5883C31.1698 43.1732 29.3736 44.1241 27.2604 44.1241H9.82644C6.33965 44.1241 3.48682 41.2713 3.48682 37.7845V18.7656Z" fill="#0F172A"/>
</g>
</g>
<defs>
<clipPath id="clip0_70_5422">
<rect width="56" height="50" fill="white"/>
</clipPath>
</defs>
</svg>
