<svg width="50" height="50" viewBox="0 0 50 50" fill="none" xmlns="http://www.w3.org/2000/svg">
<g clip-path="url(#clip0_70_5416)">
<mask id="mask0_70_5416" style="mask-type:luminance" maskUnits="userSpaceOnUse" x="-313" y="-862" width="1584" height="1224">
<path d="M-313 -862H1271V362H-313V-862Z" fill="white"/>
</mask>
<g mask="url(#mask0_70_5416)">
<path fill-rule="evenodd" clip-rule="evenodd" d="M910.6 12.8001C910.6 9.50009 913.3 6.80008 916.6 6.80008H943.6C946.9 6.80008 949.6 9.50009 949.6 12.8001V36.8001C949.6 40.1001 946.9 42.8001 943.6 42.8001H916.6C913.3 42.8001 910.6 40.1001 910.6 36.8001V12.8001ZM918.6 16.9001L922 20.3001L918.6 23.8001C918 24.4001 918 25.3001 918.6 25.9001C919.2 26.5001 920.1 26.5001 920.7 25.9001L925.2 21.4001C925.8 20.8001 925.8 19.9001 925.2 19.3001L920.7 14.8001C920.1 14.2001 919.2 14.2001 918.6 14.8001C918 15.4001 918 16.3001 918.6 16.9001ZM927.1 23.3001C926.3 23.3001 925.6 24.0001 925.6 24.8001C925.6 25.7001 926.3 26.3001 927.1 26.3001H933.1C934 26.3001 934.6 25.7001 934.6 24.8001C934.6 24.0001 934 23.3001 933.1 23.3001H927.1ZM6.19995 -283.9C6.19995 -287.2 8.89995 -289.9 12.2 -289.9H39.2C42.5 -289.9 45.2 -287.2 45.2 -283.9V-264.4C45.2 -261 42.5 -258.4 39.2 -258.4H33.2V-257.8C33.2 -256.6 33.7 -255.5 34.5 -254.7L35.7999 -253.4C36.1999 -253 36.2999 -252.3 36.0999 -251.8C35.8999 -251.2 35.3 -250.9 34.7 -250.9H16.7C16.1 -250.9 15.6 -251.2 15.3 -251.8C15.1 -252.3 15.2 -253 15.7 -253.4L16.9 -254.7C17.7 -255.5 18.2 -256.6 18.2 -257.8V-258.4H12.2C8.89995 -258.4 6.19995 -261 6.19995 -264.4V-283.9ZM9.19995 -283.9V-268.9C9.19995 -267.2 10.6 -265.9 12.2 -265.9H39.2C40.9 -265.9 42.2 -267.2 42.2 -268.9V-283.9C42.2 -285.5 40.9 -286.9 39.2 -286.9H12.2C10.6 -286.9 9.19995 -285.5 9.19995 -283.9ZM34.7 33.8001H16.7V15.8001H34.7V33.8001Z" fill="#0F172A"/>
<path fill-rule="evenodd" clip-rule="evenodd" d="M18.2 5.2998C19 5.2998 19.7 5.9998 19.7 6.7998V8.2998H24.2V6.7998C24.2 5.9998 24.9 5.2998 25.7 5.2998C26.5 5.2998 27.2 5.9998 27.2 6.7998V8.2998H31.7V6.7998C31.7 5.9998 32.4 5.2998 33.2 5.2998C34 5.2998 34.7 5.9998 34.7 6.7998V8.2998H36.2C39.5 8.2998 42.2 10.9998 42.2 14.2998V15.7998H43.7C44.5 15.7998 45.2 16.4998 45.2 17.2998C45.2 18.1998 44.5 18.7998 43.7 18.7998H42.2V23.2998H43.7C44.5 23.2998 45.2 23.9998 45.2 24.7998C45.2 25.6998 44.5 26.2998 43.7 26.2998H42.2V30.7998H43.7C44.5 30.7998 45.2 31.4998 45.2 32.2998C45.2 33.1998 44.5 33.7998 43.7 33.7998H42.2V35.2998C42.2 38.5998 39.5 41.2998 36.2 41.2998H34.7V42.7998C34.7 43.6998 34 44.2998 33.2 44.2998C32.4 44.2998 31.7 43.6998 31.7 42.7998V41.2998H27.2V42.7998C27.2 43.6998 26.5 44.2998 25.7 44.2998C24.9 44.2998 24.2 43.6998 24.2 42.7998V41.2998H19.7V42.7998C19.7 43.6998 19 44.2998 18.2 44.2998C17.4 44.2998 16.7 43.6998 16.7 42.7998V41.2998H15.2C11.9 41.2998 9.19995 38.5998 9.19995 35.2998V33.7998H7.69995C6.89995 33.7998 6.19995 33.1998 6.19995 32.2998C6.19995 31.4998 6.89995 30.7998 7.69995 30.7998H9.19995V26.2998H7.69995C6.89995 26.2998 6.19995 25.6998 6.19995 24.7998C6.19995 23.9998 6.89995 23.2998 7.69995 23.2998H9.19995V18.7998H7.69995C6.89995 18.7998 6.19995 18.1998 6.19995 17.2998C6.19995 16.4998 6.89995 15.7998 7.69995 15.7998H9.19995V14.2998C9.19995 10.9998 11.9 8.2998 15.2 8.2998H16.7V6.7998C16.7 5.9998 17.4 5.2998 18.2 5.2998ZM13.7 35.2998C13.7 36.1998 14.4 36.7998 15.2 36.7998H36.2C37 36.7998 37.7 36.1998 37.7 35.2998V14.2998C37.7 13.4998 37 12.7998 36.2 12.7998H15.2C14.4 12.7998 13.7 13.4998 13.7 14.2998V35.2998ZM141.4 8.2998C144.7 8.2998 147.4 10.9998 147.4 14.2998V15.7998H105.4V14.2998C105.4 10.9998 108.1 8.2998 111.4 8.2998H141.4Z" fill="#0F172A"/>
<path fill-rule="evenodd" clip-rule="evenodd" d="M147.4 35.3001C147.4 38.6001 144.7 41.3001 141.4 41.3001H111.4C108.1 41.3001 105.4 38.6001 105.4 35.3001V20.3001H147.4V35.3001ZM112.9 29.3001H124.9C125.7 29.3001 126.4 28.7001 126.4 27.8001C126.4 27.0001 125.7 26.3001 124.9 26.3001H112.9C112.1 26.3001 111.4 27.0001 111.4 27.8001C111.4 28.7001 112.1 29.3001 112.9 29.3001ZM112.9 32.3001C112.1 32.3001 111.4 33.0001 111.4 33.8001C111.4 34.7001 112.1 35.3001 112.9 35.3001H118.9C119.7 35.3001 120.4 34.7001 120.4 33.8001C120.4 33.0001 119.7 32.3001 118.9 32.3001H112.9ZM13 -95.8999H19.7C23.9 -95.8999 27.2 -92.5999 27.2 -88.3999V-84.6999C27.2 -82.5999 28.9 -80.8999 31 -80.8999H34.7C38.9 -80.8999 42.2 -77.5999 42.2 -73.3999V-57.6999C42.2 -55.5999 40.5 -53.8999 38.5 -53.8999H13C10.9 -53.8999 9.19995 -55.5999 9.19995 -57.6999V-92.1999C9.19995 -94.1999 10.9 -95.8999 13 -95.8999ZM24.2 -68.8999V-62.8999C24.2 -62.0999 24.9 -61.3999 25.7 -61.3999C26.5 -61.3999 27.2 -62.0999 27.2 -62.8999V-68.8999C27.2 -69.6999 26.5 -70.3999 25.7 -70.3999C24.9 -70.3999 24.2 -69.6999 24.2 -68.8999ZM21.2 -64.3999C21.2 -65.1999 20.5 -65.8999 19.7 -65.8999C18.9 -65.8999 18.2 -65.1999 18.2 -64.3999V-62.8999C18.2 -62.0999 18.9 -61.3999 19.7 -61.3999C20.5 -61.3999 21.2 -62.0999 21.2 -62.8999V-64.3999ZM33.2 -73.3999C33.2 -74.1999 32.5 -74.8999 31.7 -74.8999C30.9 -74.8999 30.2 -74.1999 30.2 -73.3999V-62.8999C30.2 -62.0999 30.9 -61.3999 31.7 -61.3999C32.5 -61.3999 33.2 -62.0999 33.2 -62.8999V-73.3999ZM30.2 -88.3999C30.2 -90.9999 29.2 -93.3999 27.7 -95.2999C34.5 -93.4999 39.7999 -88.1999 41.5999 -81.3999C39.6999 -82.9999 37.3 -83.8999 34.7 -83.8999H31C30.5 -83.8999 30.2 -84.2999 30.2 -84.6999V-88.3999ZM229.5 -88.3999V-84.5999C229.5 -82.4999 231.2 -80.8999 233.2 -80.8999H237C241.1 -80.8999 244.5 -77.4999 244.5 -73.3999V-57.5999C244.5 -55.4999 242.8 -53.8999 240.7 -53.8999H215.2C213.2 -53.8999 211.5 -55.4999 211.5 -57.5999V-92.0999C211.5 -94.1999 213.2 -95.8999 215.2 -95.8999H222C226.1 -95.8999 229.5 -92.4999 229.5 -88.3999ZM235.2 -73.9999C235.7 -74.6999 235.5 -75.5999 234.9 -76.0999C234.2 -76.5999 233.3 -76.3999 232.8 -75.6999L226.3 -66.6999L223.1 -69.8999C222.5 -70.4999 221.5 -70.4999 220.9 -69.8999C220.3 -69.2999 220.3 -68.3999 220.9 -67.7999L225.4 -63.2999C225.7 -62.9999 226.2 -62.7999 226.6 -62.8999C227.1 -62.8999 227.5 -63.0999 227.7 -63.4999L235.2 -73.9999ZM243.9 -81.2999C242 -82.8999 239.6 -83.8999 237 -83.8999H233.2C232.8 -83.8999 232.5 -84.1999 232.5 -84.5999V-88.3999C232.5 -90.9999 231.5 -93.3999 229.9 -95.1999C236.7 -93.4999 242.1 -88.0999 243.9 -81.2999ZM121.9 -69.5999C121.9 -71.6999 123.6 -73.3999 125.6 -73.3999C127.7 -73.3999 129.4 -71.6999 129.4 -69.5999C129.4 -67.4999 127.7 -65.8999 125.6 -65.8999C123.6 -65.8999 121.9 -67.4999 121.9 -69.5999Z" fill="#0F172A"/>
</g>
</g>
<defs>
<clipPath id="clip0_70_5416">
<rect width="50" height="50" fill="white"/>
</clipPath>
</defs>
</svg>
