<svg width="53" height="50" viewBox="0 0 53 50" fill="none" xmlns="http://www.w3.org/2000/svg">
<g clip-path="url(#clip0_70_5428)">
<mask id="mask0_70_5428" style="mask-type:luminance" maskUnits="userSpaceOnUse" x="-851" y="-793" width="1648" height="1273">
<path d="M-850.078 -792.863H796.039V479.137H-850.078V-792.863Z" fill="white"/>
</mask>
<g mask="url(#mask0_70_5428)">
<path fill-rule="evenodd" clip-rule="evenodd" d="M-274.353 -62.7096C-275.184 -61.8782 -276.535 -61.8782 -277.367 -62.7096L-297.735 -83.0782V-66.9704C-297.735 -65.8272 -298.671 -64.892 -299.814 -64.892C-301.061 -64.892 -301.996 -65.8272 -301.996 -66.9704V-88.1704C-301.996 -89.3135 -301.061 -90.2488 -299.814 -90.2488H-278.718C-277.575 -90.2488 -276.639 -89.3135 -276.639 -88.1704C-276.639 -87.0273 -277.575 -86.092 -278.718 -86.092H-294.722L-274.353 -65.7233C-273.522 -64.892 -273.522 -63.541 -274.353 -62.7096ZM-96.1275 25.1041C-96.1275 12.6335 -86.0472 2.55315 -73.5766 2.55315C-61.106 2.55315 -51.0256 12.6335 -51.0256 25.1041C-51.0256 37.5747 -61.106 47.6551 -73.5766 47.6551C-86.0472 47.6551 -96.1275 37.5747 -96.1275 25.1041ZM-75.7589 34.2492C-75.7589 35.3924 -74.8236 36.3277 -73.5766 36.3277C-72.4334 36.3277 -71.4981 35.3924 -71.4981 34.2492V21.363L-65.9903 27.1826C-65.1589 28.1178 -63.9119 28.1178 -62.9766 27.3904C-62.1452 26.559 -62.1452 25.2081 -62.8727 24.3767L-72.0178 14.5041C-72.4334 14.0884 -73.057 13.7767 -73.5766 13.7767C-74.2001 13.7767 -74.7197 14.0884 -75.1354 14.5041L-84.2805 24.3767C-85.1118 25.2081 -85.1118 26.559 -84.1765 27.3904C-83.3452 28.1178 -81.9942 28.1178 -81.2667 27.1826L-75.7589 21.363V34.2492ZM-483.963 -76.2194C-483.963 -75.0763 -484.898 -74.141 -486.145 -74.141H-504.851L-498.72 -68.6331C-497.888 -67.8018 -497.888 -66.4508 -498.72 -65.6194C-499.447 -64.788 -500.798 -64.6841 -501.63 -65.5155L-511.502 -74.6606C-511.918 -75.0763 -512.229 -75.6998 -512.229 -76.2194C-512.229 -76.8429 -511.918 -77.3625 -511.502 -77.7782L-501.63 -86.9233C-500.798 -87.7547 -499.447 -87.6508 -498.72 -86.8194C-497.888 -85.988 -497.888 -84.6371 -498.72 -83.9096L-504.851 -78.2978H-486.145C-484.898 -78.2978 -483.963 -77.3625 -483.963 -76.2194ZM113.794 13.7767C112.547 13.7767 111.612 14.712 111.612 15.8551V39.861C111.612 41.0041 112.547 41.9394 113.794 41.9394H137.8C138.943 41.9394 139.878 41.0041 139.878 39.861V28.5335C139.878 27.3904 140.814 26.4551 141.957 26.4551C143.204 26.4551 144.139 27.3904 144.139 28.5335V39.861C144.139 43.3943 141.229 46.2002 137.8 46.2002H113.794C110.261 46.2002 107.351 43.3943 107.351 39.861V15.8551C107.351 12.3218 110.261 9.51588 113.794 9.51588H127.823C129.071 9.51588 130.006 10.4512 130.006 11.5943C130.006 12.8414 129.071 13.7767 127.823 13.7767H113.794ZM119.51 31.2355L145.074 8.06099H137.8C136.657 8.06099 135.721 7.1257 135.721 5.98256C135.721 4.83942 136.657 3.90413 137.8 3.90413H150.582C151.725 3.90413 152.661 4.83942 152.661 5.98256V18.661C152.661 19.8041 151.725 20.8434 150.582 20.8434C149.335 20.8434 148.4 19.8041 148.4 18.661V10.7629L122.316 34.3531C121.484 35.1845 120.133 35.0806 119.302 34.2492C118.574 33.3139 118.574 32.0669 119.51 31.2355ZM-407.477 -76.2194C-407.477 -77.3625 -406.541 -78.2978 -405.398 -78.2978H-386.588L-392.72 -83.9096C-393.551 -84.6371 -393.551 -85.988 -392.824 -86.8194C-391.992 -87.6508 -390.641 -87.7547 -389.81 -86.9233L-379.937 -77.7782C-379.522 -77.3625 -379.314 -76.8429 -379.314 -76.2194C-379.314 -75.6998 -379.522 -75.0763 -379.937 -74.6606L-389.81 -65.5155C-390.641 -64.6841 -391.992 -64.788 -392.824 -65.6194C-393.551 -66.4508 -393.551 -67.8018 -392.72 -68.6331L-386.588 -74.141H-405.398C-406.541 -74.141 -407.477 -75.0763 -407.477 -76.2194ZM-184.877 -69.9841C-184.045 -69.1527 -184.045 -67.8018 -184.877 -66.9704C-185.708 -66.139 -187.059 -66.139 -187.89 -66.9704L-192.671 -71.7508C-192.532 -68.7717 -192.29 -65.7926 -191.943 -62.8135C-191.839 -61.9821 -191.112 -61.2547 -190.177 -61.1508C-186.851 -60.8737 -183.456 -60.7351 -179.992 -60.7351C-176.597 -60.7351 -173.237 -60.8737 -169.912 -61.1508C-168.977 -61.2547 -168.249 -61.9821 -168.145 -62.8135C-167.937 -64.2684 -167.799 -65.758 -167.729 -67.2822C-167.626 -68.4253 -166.586 -69.2567 -165.443 -69.1527C-164.3 -69.0488 -163.365 -68.1135 -163.469 -66.8665C-163.607 -65.3423 -163.78 -63.8527 -163.988 -62.3978C-164.3 -59.488 -166.586 -57.2018 -169.496 -56.9939C-172.96 -56.6475 -176.459 -56.4743 -179.992 -56.4743C-183.595 -56.4743 -187.128 -56.6475 -190.592 -56.9939C-193.502 -57.2018 -195.788 -59.488 -196.1 -62.3978C-196.516 -65.5155 -196.758 -68.6678 -196.828 -71.8547L-201.816 -66.9704C-202.647 -66.139 -203.998 -66.139 -204.726 -66.9704C-205.557 -67.8018 -205.557 -69.1527 -204.726 -69.9841L-196.308 -78.4018C-195.477 -79.2331 -194.126 -79.2331 -193.294 -78.4018L-184.877 -69.9841ZM-190.177 -91.288C-191.112 -91.1841 -191.839 -90.5606 -191.943 -89.6253C-192.151 -88.1704 -192.29 -86.7155 -192.359 -85.2606C-192.463 -84.1174 -193.502 -83.1821 -194.645 -83.2861C-195.788 -83.39 -196.724 -84.4292 -196.62 -85.5723C-196.481 -87.0965 -196.343 -88.6207 -196.204 -90.1449C-195.788 -93.0547 -193.502 -95.2371 -190.592 -95.5488C-187.128 -95.8259 -183.63 -95.9645 -180.096 -95.9645C-176.494 -95.9645 -172.96 -95.8259 -169.496 -95.5488C-166.586 -95.2371 -164.3 -93.0547 -163.988 -90.1449C-163.573 -86.958 -163.33 -83.771 -163.261 -80.5841L-158.273 -85.4684C-157.441 -86.2998 -156.09 -86.2998 -155.363 -85.4684C-154.531 -84.6371 -154.531 -83.39 -155.363 -82.5586L-163.78 -74.0371C-164.612 -73.2057 -165.963 -73.2057 -166.794 -74.0371L-175.212 -82.5586C-176.043 -83.39 -176.043 -84.6371 -175.212 -85.4684C-174.38 -86.2998 -173.029 -86.2998 -172.198 -85.4684L-167.418 -80.792C-167.556 -83.771 -167.799 -86.7155 -168.145 -89.6253C-168.249 -90.5606 -168.977 -91.1841 -169.912 -91.288C-173.237 -91.6344 -176.632 -91.8076 -180.096 -91.8076C-183.491 -91.8076 -186.851 -91.6344 -190.177 -91.288ZM21.3039 -87.2351C18.498 -87.2351 16.2117 -89.5214 16.2117 -92.3272C16.2117 -95.2371 18.498 -97.5233 21.3039 -97.5233C24.2137 -97.5233 26.4999 -95.2371 26.4999 -92.3272C26.4999 -89.5214 24.2137 -87.2351 21.3039 -87.2351ZM30.9686 -90.4567C29.9293 -90.4567 29.098 -91.288 29.098 -92.3272C29.098 -93.4704 29.9293 -94.3018 30.9686 -94.3018H45.1019C46.245 -94.3018 47.0764 -93.4704 47.0764 -92.3272C47.0764 -91.288 46.245 -90.4567 45.1019 -90.4567H30.9686ZM13.6136 -92.3272C13.6136 -91.288 12.7822 -90.4567 11.743 -90.4567H7.89795C6.75482 -90.4567 5.92346 -91.288 5.92346 -92.3272C5.92346 -93.3665 6.75482 -94.3018 7.89795 -94.3018H11.743C12.7822 -94.3018 13.6136 -93.3665 13.6136 -92.3272ZM7.89795 -58.241C6.75482 -58.241 5.92346 -59.0723 5.92346 -60.2155C5.92346 -61.2547 6.75482 -62.0861 7.89795 -62.0861H11.743C12.7822 -62.0861 13.6136 -61.2547 13.6136 -60.2155C13.6136 -59.0723 12.7822 -58.241 11.743 -58.241H7.89795ZM31.0724 -58.241C29.9293 -58.241 29.098 -59.0723 29.098 -60.2155C29.098 -61.2547 29.9293 -62.0861 31.0724 -62.0861H45.2058C46.2451 -62.0861 47.0764 -61.2547 47.0764 -60.2155C47.0764 -59.0723 46.2451 -58.241 45.2058 -58.241H31.0724ZM24.0058 -76.2194C24.0058 -75.1802 23.0705 -74.3488 22.0312 -74.3488H7.89795C6.85876 -74.3488 5.92346 -75.1802 5.92346 -76.2194C5.92346 -77.3625 6.85876 -78.1939 7.89795 -78.1939H22.0312C23.0705 -78.1939 24.0058 -77.3625 24.0058 -76.2194ZM41.3607 -74.3488C40.3215 -74.3488 39.3862 -75.1802 39.3862 -76.2194C39.3862 -77.3625 40.3215 -78.1939 41.3607 -78.1939H45.2058C46.2451 -78.1939 47.1803 -77.3625 47.1803 -76.2194C47.1803 -75.1802 46.2451 -74.3488 45.2058 -74.3488H41.3607ZM31.696 -71.1272C28.8901 -71.1272 26.6038 -73.4135 26.6038 -76.2194C26.6038 -79.1292 28.8901 -81.4155 31.696 -81.4155C34.6058 -81.4155 36.8921 -79.1292 36.8921 -76.2194C36.8921 -73.4135 34.6058 -71.1272 31.696 -71.1272ZM21.4078 -55.0194C18.6019 -55.0194 16.3156 -57.3057 16.3156 -60.2155C16.3156 -63.0214 18.6019 -65.3076 21.4078 -65.3076C24.2136 -65.3076 26.6038 -63.0214 26.6038 -60.2155C26.6038 -57.3057 24.2136 -55.0194 21.4078 -55.0194ZM432.106 -197.808C433.249 -197.808 434.184 -196.872 434.184 -195.729V-160.5C434.184 -159.357 433.249 -158.421 432.106 -158.421H427.845C426.702 -158.421 425.767 -159.357 425.767 -160.5V-195.729C425.767 -196.872 426.702 -197.808 427.845 -197.808H432.106ZM451.851 -197.808C452.994 -197.808 454.033 -196.872 454.033 -195.729V-160.5C454.033 -159.357 452.994 -158.421 451.851 -158.421H447.694C446.447 -158.421 445.512 -159.357 445.512 -160.5V-195.729C445.512 -196.872 446.447 -197.808 447.694 -197.808H451.851ZM327.353 -166.943L330.886 -175.776C331.51 -177.231 332.341 -178.478 333.38 -179.621L352.918 -199.055C355.204 -201.445 359.049 -201.445 361.335 -199.055C363.725 -196.768 363.725 -192.923 361.335 -190.637L341.902 -171.1C340.759 -170.061 339.512 -169.229 338.057 -168.606L329.223 -165.072C328.08 -164.553 326.937 -165.696 327.353 -166.943ZM321.949 -163.098C321.949 -161.227 323.508 -159.565 325.378 -159.565H352.19C354.165 -159.565 355.723 -161.227 355.723 -163.098V-177.959C355.723 -179.102 356.659 -180.037 357.802 -180.037C359.049 -180.037 359.984 -179.102 359.984 -177.959V-163.098C359.984 -158.837 356.451 -155.408 352.19 -155.408H325.378C321.118 -155.408 317.688 -158.837 317.688 -163.098V-189.91C317.688 -194.17 321.118 -197.704 325.378 -197.704H340.239C341.382 -197.704 342.318 -196.768 342.318 -195.521C342.318 -194.378 341.382 -193.443 340.239 -193.443H325.378C323.508 -193.443 321.949 -191.884 321.949 -189.91V-163.098ZM217.716 -169.125L248.476 -199.886C250.867 -202.276 254.608 -202.276 256.998 -199.886C259.284 -197.6 259.284 -193.755 256.998 -191.468L226.133 -160.708C225.094 -159.564 223.847 -158.733 222.392 -158.214L213.455 -154.576C212.312 -154.161 211.169 -155.304 211.688 -156.447L215.221 -165.28C215.741 -166.735 216.676 -168.086 217.716 -169.125ZM107.559 -94.5096C107.559 -96.8998 109.429 -98.7704 111.716 -98.7704H115.041C117.016 -98.7704 118.678 -97.4194 119.094 -95.4449L121.172 -86.4037C121.588 -84.2214 120.341 -82.039 118.159 -81.4155L115.561 -80.688C114.418 -80.2723 113.69 -79.1292 114.21 -77.9861C117.431 -69.9841 123.874 -63.6449 131.772 -60.3194C132.916 -59.9037 134.163 -60.5273 134.474 -61.6704L135.202 -64.3723C135.825 -66.4508 138.008 -67.8018 140.19 -67.2822L149.335 -65.3076C151.206 -64.892 152.661 -63.1253 152.661 -61.1508V-57.9292C152.661 -55.539 150.686 -53.6684 148.4 -53.6684H144.139C140.918 -53.6684 137.8 -54.0841 134.786 -54.9155C122.108 -58.241 112.131 -68.2174 108.702 -80.9998C107.974 -83.9096 107.559 -87.1312 107.559 -90.3527V-94.5096Z" fill="#0F172A"/>
<path fill-rule="evenodd" clip-rule="evenodd" d="M-313.22 -191.365C-313.22 -194.898 -310.414 -197.704 -306.881 -197.704H-268.845C-265.312 -197.704 -262.506 -194.898 -262.506 -191.365V-164.657C-262.506 -161.123 -265.312 -158.318 -268.845 -158.318H-306.881C-310.414 -158.318 -313.22 -161.123 -313.22 -164.657V-191.365ZM-309.063 -174.945V-164.553C-309.063 -163.41 -308.024 -162.474 -306.881 -162.474H-268.845C-267.702 -162.474 -266.767 -163.41 -266.767 -164.553V-172.139L-273.002 -178.374C-273.833 -179.206 -275.184 -179.206 -276.016 -178.374L-281.316 -172.97L-280.069 -171.723C-279.237 -170.892 -279.237 -169.541 -280.069 -168.71C-280.9 -167.878 -282.147 -167.878 -282.979 -168.71L-297.631 -183.363C-298.463 -184.194 -299.814 -184.194 -300.645 -183.363L-309.063 -174.945ZM-285.057 -189.182C-286.616 -189.182 -287.967 -187.935 -287.967 -186.376C-287.967 -184.818 -286.616 -183.57 -285.057 -183.57C-283.498 -183.57 -282.251 -184.818 -282.251 -186.376C-282.251 -187.935 -283.498 -189.182 -285.057 -189.182ZM-96.2315 -177.855C-96.2315 -190.325 -86.1511 -200.406 -73.6805 -200.406C-61.2099 -200.406 -51.1295 -190.325 -51.1295 -177.855C-51.1295 -165.488 -61.2099 -155.304 -73.6805 -155.304C-86.1511 -155.304 -96.2315 -165.488 -96.2315 -177.855ZM-79.2923 -184.194V-171.516C-79.2923 -170.788 -78.8766 -170.061 -78.1491 -169.749C-77.5256 -169.333 -76.6942 -169.333 -76.0707 -169.749L-66.1982 -176.088C-65.5746 -176.504 -65.159 -177.231 -65.159 -177.855C-65.159 -178.582 -65.5746 -179.31 -66.1982 -179.725L-76.0707 -186.065C-76.6942 -186.48 -77.5256 -186.48 -78.1491 -186.065C-78.8766 -185.753 -79.2923 -185.025 -79.2923 -184.194ZM-171.055 -194.794C-169.808 -194.794 -168.873 -193.859 -168.873 -192.716V-163.098C-168.873 -161.955 -169.808 -161.019 -171.055 -161.019H-172.406C-173.549 -161.019 -174.484 -161.955 -174.484 -163.098V-192.716C-174.484 -193.859 -173.549 -194.794 -172.406 -194.794H-171.055ZM-156.922 -194.794C-155.779 -194.794 -154.843 -193.859 -154.843 -192.716V-163.098C-154.843 -161.955 -155.779 -161.019 -156.922 -161.019H-158.377C-159.52 -161.019 -160.455 -161.955 -160.455 -163.098V-192.716C-160.455 -193.859 -159.52 -194.794 -158.377 -194.794H-156.922ZM-181.239 -181.492C-178.641 -179.829 -178.641 -175.984 -181.239 -174.321L-199.114 -163.306C-201.92 -161.539 -205.557 -163.618 -205.557 -166.839V-188.87C-205.557 -192.196 -201.92 -194.274 -199.114 -192.508L-181.239 -181.492ZM41.8802 -181.492C44.4783 -179.829 44.4783 -175.984 41.8802 -174.321L15.4842 -157.694C12.6783 -155.927 9.04108 -158.006 9.04108 -161.331V-194.482C9.04108 -197.808 12.6783 -199.886 15.4842 -198.119L41.8802 -181.492ZM3.94888 25.2079C3.94888 12.7374 14.0293 2.65698 26.4999 2.65698C38.9705 2.65698 49.0509 12.7374 49.0509 25.2079C49.0509 37.6785 38.9705 47.7589 26.4999 47.7589C14.0293 47.7589 3.94888 37.6785 3.94888 25.2079ZM28.5783 16.0629C28.5783 14.9197 27.643 13.9844 26.4999 13.9844C25.3568 13.9844 24.3175 14.9197 24.3175 16.0629V23.1295H17.3548C16.1077 23.1295 15.1724 24.0648 15.1724 25.2079C15.1724 26.455 16.1077 27.3903 17.3548 27.3903H24.3175V34.3531C24.3175 35.6001 25.3568 36.5354 26.4999 36.5354C27.643 36.5354 28.5783 35.6001 28.5783 34.3531V27.3903H35.645C36.7881 27.3903 37.7234 26.455 37.7234 25.2079C37.7234 24.0648 36.7881 23.1295 35.645 23.1295H28.5783V16.0629Z" fill="#0F172A"/>
<path fill-rule="evenodd" clip-rule="evenodd" d="M421.506 116.243C421.506 112.814 424.312 110.008 427.741 110.008H455.8C459.229 110.008 462.035 112.814 462.035 116.243V141.184C462.035 144.614 459.229 147.419 455.8 147.419H427.741C424.312 147.419 421.506 144.614 421.506 141.184V116.243ZM429.82 120.504L433.353 124.037L429.82 127.674C429.196 128.298 429.196 129.233 429.82 129.857C430.443 130.48 431.378 130.48 432.002 129.857L436.678 125.18C437.302 124.557 437.302 123.621 436.678 122.998L432.002 118.321C431.378 117.698 430.443 117.698 429.82 118.321C429.196 118.945 429.196 119.88 429.82 120.504ZM438.653 127.155C437.822 127.155 437.094 127.882 437.094 128.714C437.094 129.649 437.822 130.272 438.653 130.272H444.888C445.823 130.272 446.447 129.649 446.447 128.714C446.447 127.882 445.823 127.155 444.888 127.155H438.653ZM-518.361 -192.092C-518.361 -195.522 -515.555 -198.328 -512.126 -198.328H-484.067C-480.637 -198.328 -477.831 -195.522 -477.831 -192.092V-171.828C-477.831 -168.294 -480.637 -165.592 -484.067 -165.592H-490.302V-164.969C-490.302 -163.722 -489.782 -162.579 -488.951 -161.747L-487.6 -160.396C-487.184 -159.981 -487.08 -159.253 -487.288 -158.734C-487.496 -158.11 -488.12 -157.798 -488.743 -157.798H-507.449C-508.073 -157.798 -508.592 -158.11 -508.904 -158.734C-509.112 -159.253 -509.008 -159.981 -508.488 -160.396L-507.241 -161.747C-506.41 -162.579 -505.89 -163.722 -505.89 -164.969V-165.592H-512.126C-515.555 -165.592 -518.361 -168.294 -518.361 -171.828V-192.092ZM-515.243 -192.092V-176.504C-515.243 -174.737 -513.788 -173.386 -512.126 -173.386H-484.067C-482.3 -173.386 -480.949 -174.737 -480.949 -176.504V-192.092C-480.949 -193.755 -482.3 -195.21 -484.067 -195.21H-512.126C-513.788 -195.21 -515.243 -193.755 -515.243 -192.092ZM-488.743 138.066H-507.449V119.361H-488.743V138.066Z" fill="#0F172A"/>
<path fill-rule="evenodd" clip-rule="evenodd" d="M-406.749 3.28027H-399.682C-395.422 3.28027 -391.888 6.70969 -391.888 11.0744V14.9195C-391.888 17.1018 -390.122 18.8685 -388.043 18.8685H-384.094C-379.833 18.8685 -376.3 22.2979 -376.3 26.6626V42.9783C-376.3 45.1607 -378.067 46.9273 -380.249 46.9273H-406.749C-408.828 46.9273 -410.594 45.1607 -410.594 42.9783V7.12537C-410.594 5.04694 -408.828 3.28027 -406.749 3.28027ZM-394.279 37.5744C-392.824 37.5744 -391.577 37.1587 -390.537 36.4313L-388.355 38.6136C-387.731 39.2371 -386.692 39.2371 -386.173 38.6136C-385.549 38.094 -385.549 37.0548 -386.173 36.4313L-388.355 34.2489C-387.628 33.2097 -387.212 31.9626 -387.212 30.5077C-387.212 26.6626 -390.33 23.545 -394.279 23.545C-398.124 23.545 -401.241 26.6626 -401.241 30.5077C-401.241 34.4567 -398.124 37.5744 -394.279 37.5744ZM-388.771 11.0744C-388.771 8.37243 -389.81 5.87831 -391.473 3.9038C-384.406 5.77439 -378.794 11.2822 -376.924 18.3489C-378.898 16.6862 -381.392 15.7509 -384.094 15.7509H-388.043C-388.459 15.7509 -388.771 15.3352 -388.771 14.9195V11.0744ZM-195.684 46.6156C-199.114 46.6156 -201.92 43.8097 -201.92 40.3803V23.4411L-187.682 31.7548L-194.853 35.7038C-195.684 36.1195 -195.892 37.0548 -195.477 37.7822C-195.165 38.5097 -194.126 38.8215 -193.398 38.4058L-181.551 32.0665C-180.72 31.5469 -179.577 31.5469 -178.641 32.0665L-166.794 38.4058C-166.067 38.8215 -165.131 38.5097 -164.716 37.7822C-164.3 37.0548 -164.612 36.1195 -165.339 35.7038L-172.614 31.7548L-158.273 23.4411V40.3803C-158.273 43.8097 -161.079 46.6156 -164.508 46.6156H-195.684ZM-201.92 19.8038V18.245C-201.92 15.9587 -200.673 13.8803 -198.698 12.7371L-183.11 4.42341C-181.239 3.38419 -179.057 3.38419 -177.186 4.42341L-161.598 12.7371C-159.52 13.8803 -158.273 15.9587 -158.273 18.245V19.8038L-175.835 30.092L-177.186 29.3646C-179.057 28.3254 -181.239 28.3254 -183.11 29.3646L-184.461 30.092L-201.92 19.8038ZM-76.6942 141.184C-76.6942 139.521 -75.2393 138.067 -73.5766 138.067C-71.8099 138.067 -70.459 139.521 -70.459 141.184C-70.459 142.951 -71.8099 144.302 -73.5766 144.302C-75.2393 144.302 -76.6942 142.951 -76.6942 141.184ZM-76.6942 128.714C-76.6942 127.051 -75.2393 125.596 -73.5766 125.596C-71.8099 125.596 -70.459 127.051 -70.459 128.714C-70.459 130.48 -71.8099 131.831 -73.5766 131.831C-75.2393 131.831 -76.6942 130.48 -76.6942 128.714ZM-76.6942 116.243C-76.6942 114.58 -75.2393 113.125 -73.5766 113.125C-71.8099 113.125 -70.459 114.58 -70.459 116.243C-70.459 118.01 -71.8099 119.361 -73.5766 119.361C-75.2393 119.361 -76.6942 118.01 -76.6942 116.243ZM-183.318 133.286C-181.343 134.429 -178.849 134.429 -176.771 133.286L-158.273 121.855V139.625C-158.273 143.055 -161.079 145.861 -164.508 145.861H-195.684C-199.114 145.861 -201.92 143.055 -201.92 139.625V121.855L-183.318 133.286ZM-178.433 130.584C-179.369 131.208 -180.616 131.208 -181.655 130.584L-201.816 118.218V117.802C-201.816 114.372 -199.01 111.567 -195.581 111.567H-164.404C-160.975 111.567 -158.169 114.372 -158.169 117.802V118.218L-178.433 130.584ZM-296.8 139.625C-296.8 138.794 -296.073 138.067 -295.241 138.067H-270.3C-269.469 138.067 -268.741 138.794 -268.741 139.625C-268.741 140.457 -269.469 141.184 -270.3 141.184H-295.241C-296.073 141.184 -296.8 140.457 -296.8 139.625ZM-306.984 139.625C-306.984 138.274 -305.945 137.235 -304.594 137.235C-303.347 137.235 -302.308 138.274 -302.308 139.625C-302.308 140.872 -303.347 141.912 -304.594 141.912C-305.945 141.912 -306.984 140.872 -306.984 139.625ZM-296.8 128.714C-296.8 127.882 -296.073 127.155 -295.241 127.155H-270.3C-269.469 127.155 -268.741 127.882 -268.741 128.714C-268.741 129.545 -269.469 130.272 -270.3 130.272H-295.241C-296.073 130.272 -296.8 129.545 -296.8 128.714ZM-306.984 128.714C-306.984 127.363 -305.945 126.323 -304.594 126.323C-303.347 126.323 -302.308 127.363 -302.308 128.714C-302.308 129.961 -303.347 131 -304.594 131C-305.945 131 -306.984 129.961 -306.984 128.714ZM-296.8 117.802C-296.8 116.97 -296.073 116.243 -295.241 116.243H-270.3C-269.469 116.243 -268.741 116.97 -268.741 117.802C-268.741 118.633 -269.469 119.361 -270.3 119.361H-295.241C-296.073 119.361 -296.8 118.633 -296.8 117.802ZM-306.984 117.802C-306.984 116.451 -305.945 115.412 -304.594 115.412C-303.347 115.412 -302.308 116.451 -302.308 117.802C-302.308 119.049 -303.347 120.088 -304.594 120.088C-305.945 120.088 -306.984 119.049 -306.984 117.802ZM227.276 126.323C227.276 123.31 229.667 120.919 232.68 120.919C235.694 120.919 238.188 123.31 238.188 126.323C238.188 127.882 237.565 129.233 236.629 130.272C235.59 131.208 234.239 131.831 232.68 131.831C229.667 131.831 227.276 129.337 227.276 126.323Z" fill="#0F172A"/>
<path fill-rule="evenodd" clip-rule="evenodd" d="M255.335 128.714C255.335 139.937 246.19 148.979 235.071 148.979C223.847 148.979 214.806 139.937 214.806 128.714C214.806 117.594 223.847 108.449 235.071 108.449C246.19 108.449 255.335 117.594 255.335 128.714ZM232.68 117.802C228.004 117.802 224.159 121.647 224.159 126.428C224.159 131.104 228.004 134.949 232.68 134.949C234.551 134.949 236.214 134.43 237.565 133.494L241.722 137.651C242.345 138.275 243.28 138.275 243.904 137.651C244.527 137.028 244.527 136.092 243.904 135.469L239.747 131.312C240.682 129.857 241.306 128.194 241.306 126.428C241.306 121.647 237.461 117.802 232.68 117.802ZM150.271 108.449C151.102 108.449 151.829 109.177 151.829 110.008C151.829 110.943 151.102 111.567 150.271 111.567H148.712V133.39C148.712 136.82 145.906 139.626 142.477 139.626H139.982L142.373 147.004C142.684 147.731 142.165 148.667 141.437 148.979C140.606 149.186 139.671 148.771 139.463 147.939L138.735 145.861H121.276L120.549 147.939C120.237 148.771 119.406 149.186 118.575 148.979C117.743 148.667 117.327 147.731 117.639 147.004L120.029 139.626H117.535C114.106 139.626 111.3 136.82 111.3 133.39V111.567H109.741C108.806 111.567 108.182 110.943 108.182 110.008C108.182 109.177 108.806 108.449 109.741 108.449H150.271ZM131.565 122.479C131.565 121.647 130.837 120.92 130.006 120.92C129.071 120.92 128.447 121.647 128.447 122.479V130.273C128.447 131.208 129.071 131.831 130.006 131.831C130.837 131.831 131.565 131.208 131.565 130.273V122.479ZM137.8 117.802C137.8 116.971 137.073 116.243 136.241 116.243C135.306 116.243 134.682 116.971 134.682 117.802V130.273C134.682 131.208 135.306 131.831 136.241 131.831C137.073 131.831 137.8 131.208 137.8 130.273V117.802ZM137.696 142.743L136.657 139.626H123.355L122.316 142.743H137.696ZM125.226 127.155C125.226 126.324 124.602 125.596 123.667 125.596C122.835 125.596 122.108 126.324 122.108 127.155V130.273C122.108 131.208 122.835 131.831 123.667 131.831C124.602 131.831 125.226 131.208 125.226 130.273V127.155ZM348.865 3.28049C350.943 3.28049 352.71 5.04715 352.71 7.12558V13.3609C353.61 13.4994 354.511 13.638 355.412 13.7766C358.425 14.1922 360.504 16.7903 360.504 19.804V32.8981C360.504 36.3275 357.698 39.1334 354.269 39.1334H353.749L354.061 42.6668C354.269 44.953 352.502 46.9276 350.216 46.9276H330.367C328.08 46.9276 326.314 44.953 326.522 42.6668L326.833 39.1334H326.21C322.78 39.1334 319.974 36.3275 319.974 32.8981V19.804C319.974 16.7903 322.157 14.1922 325.171 13.7766C326.002 13.638 326.868 13.4994 327.769 13.3609V7.12558C327.769 5.04715 329.535 3.28049 331.718 3.28049H348.865ZM352.71 23.5452C353.645 23.5452 354.269 22.8177 354.269 21.9864C354.269 21.155 353.645 20.4276 352.71 20.4276C351.878 20.4276 351.151 21.155 351.151 21.9864C351.151 22.8177 351.878 23.5452 352.71 23.5452ZM340.239 29.7805C337.26 29.7805 334.316 29.919 331.406 30.1962C330.99 30.3001 330.678 30.5079 330.678 30.9236L329.535 42.9785C329.535 43.3942 329.847 43.8099 330.367 43.8099H350.216C350.631 43.8099 350.943 43.3942 350.943 42.9785L349.904 30.9236C349.8 30.5079 349.488 30.3001 349.176 30.1962C346.267 29.919 343.288 29.7805 340.239 29.7805ZM349.592 13.0491V7.12558C349.592 6.7099 349.28 6.39813 348.865 6.39813H331.718C331.302 6.39813 330.886 6.7099 330.886 7.12558V13.0491C334.004 12.772 337.122 12.6334 340.239 12.6334C343.426 12.6334 346.544 12.772 349.592 13.0491ZM346.474 20.4276C345.643 20.4276 344.916 21.155 344.916 21.9864C344.916 22.8177 345.643 23.5452 346.474 23.5452C347.41 23.5452 348.033 22.8177 348.033 21.9864C348.033 21.155 347.41 20.4276 346.474 20.4276ZM6.13138 131.831C6.13138 122.375 13.8216 114.684 23.2784 114.684C24.1098 114.684 24.8372 115.412 24.8372 116.243V130.273H38.8667C39.698 130.273 40.4255 131 40.4255 131.831C40.4255 141.288 32.7353 148.979 23.2784 148.979C13.8216 148.979 6.13138 141.288 6.13138 131.831ZM27.9549 110.008C27.9549 109.177 28.6823 108.449 29.5137 108.449C38.9706 108.449 46.6608 116.139 46.6608 125.596C46.6608 126.531 45.9333 127.155 45.102 127.155H29.5137C28.6823 127.155 27.9549 126.531 27.9549 125.596V110.008ZM-373.702 -160.396C-373.078 -159.772 -373.078 -158.837 -373.702 -158.214C-374.325 -157.59 -375.261 -157.59 -375.884 -158.214L-413.296 -195.625C-413.92 -196.249 -413.92 -197.184 -413.296 -197.808C-412.673 -198.431 -411.737 -198.431 -411.114 -197.808L-373.702 -160.396ZM-371.727 -166.216C-371.727 -165.176 -372.143 -164.449 -372.767 -163.825L-382.639 -173.698V-186.48L-377.027 -192.092C-375.053 -193.963 -371.727 -192.612 -371.727 -189.806V-166.216ZM-385.757 -187.416V-176.92L-402.488 -193.651H-391.992C-388.459 -193.651 -385.757 -190.845 -385.757 -187.416ZM-415.375 -187.416C-415.375 -189.078 -414.751 -190.533 -413.712 -191.676L-387.004 -164.969C-388.147 -163.41 -389.914 -162.474 -391.992 -162.474H-409.139C-412.569 -162.474 -415.375 -165.28 -415.375 -168.71V-187.416Z" fill="#0F172A"/>
</g>
</g>
<defs>
<clipPath id="clip0_70_5428">
<rect width="53" height="50" fill="white"/>
</clipPath>
</defs>
</svg>
