<svg width="24" height="24" viewBox="0 0 24 24" fill="none" xmlns="http://www.w3.org/2000/svg">
<g clip-path="url(#clip0_156_5124)">
<path d="M1.41737 17.1166C1.44744 16.9959 1.49717 16.7503 1.56965 16.5113C1.94401 15.28 1.68763 14.2257 0.735344 13.3359C-0.250869 12.4142 -0.244314 11.5873 0.750381 10.6536C1.6857 9.77543 1.93707 8.73303 1.57737 7.51831C1.19221 6.21686 1.6005 5.51409 2.9337 5.20877C4.16319 4.92735 4.91499 4.18217 5.19913 2.95743C5.22034 2.86568 5.24578 2.7747 5.27046 2.68373C5.54419 1.66715 6.32414 1.20532 7.31652 1.52876C8.67208 1.97093 9.80403 1.70686 10.7725 0.633237C11.5336 -0.210629 12.46 -0.210628 13.2195 0.630538C14.1869 1.70185 15.3169 1.97402 16.6744 1.5303C17.691 1.198 18.5018 1.65752 18.7289 2.72305C19.0323 4.14709 19.8582 4.97091 21.2831 5.2743C22.3622 5.50406 22.8002 6.31593 22.4606 7.37683C22.0369 8.69949 22.3067 9.80589 23.3434 10.7508C24.2248 11.5541 24.2175 12.4524 23.3296 13.2638C22.3098 14.1956 22.0357 15.2897 22.4505 16.5961C22.8033 17.7071 22.3634 18.4997 21.2214 18.7492C19.857 19.0468 19.0516 19.8378 18.7509 21.2056C18.4933 22.3771 17.7138 22.8039 16.5653 22.4454C15.2768 22.0429 14.1946 22.3166 13.2731 23.3189C12.4404 24.2252 11.5594 24.2275 10.7255 23.3228C9.78861 22.3066 8.69367 22.0414 7.389 22.4569C6.30139 22.8031 5.496 22.364 5.25966 21.2561C4.95933 19.8475 4.13813 19.0306 2.73283 18.7388C1.88348 18.5626 1.42006 17.9917 1.41852 17.1169L1.41737 17.1166ZM11.9831 21.1967C17.0692 21.2006 21.1825 17.1115 21.1933 12.0414C21.2041 6.9285 17.1208 2.82096 12.014 2.80786C6.92019 2.79475 2.7949 6.91616 2.80338 12.0102C2.81148 17.0942 6.90746 21.1929 11.9835 21.1963L11.9831 21.1967Z" fill="black"/>
<path d="M11.9842 19.6655C7.72627 19.6559 4.31848 16.2253 4.33428 11.9647C4.35048 7.73231 7.76945 4.33641 12.0119 4.33911C16.2621 4.34181 19.6757 7.7778 19.6626 12.0395C19.6495 16.267 16.2182 19.6748 11.9842 19.6655ZM10.417 12.9343C9.7438 12.2377 9.11884 11.5526 8.45186 10.9115C7.82805 10.3121 6.91085 10.3321 6.32753 10.9058C5.72493 11.4979 5.69331 12.437 6.30555 13.0681C7.32261 14.117 8.3574 15.149 9.40684 16.1652C10.0283 16.7669 10.9166 16.7685 11.5304 16.1625C13.3417 14.3749 15.1418 12.5754 16.9295 10.7639C17.5491 10.1359 17.5113 9.20724 16.8971 8.6074C16.2853 8.00987 15.3796 8.0145 14.7404 8.63515C14.132 9.22613 13.5387 9.83291 12.9372 10.4312C12.1253 11.2388 11.3122 12.0449 10.4166 12.9343H10.417Z" fill="black"/>
</g>
<defs>
<clipPath id="clip0_156_5124">
<rect width="24" height="24" fill="white"/>
</clipPath>
</defs>
</svg>
