<svg width="50" height="50" viewBox="0 0 50 50" fill="none" xmlns="http://www.w3.org/2000/svg">
<g clip-path="url(#clip0_70_5417)">
<mask id="mask0_70_5417" style="mask-type:luminance" maskUnits="userSpaceOnUse" x="-1099" y="-679" width="1554" height="1249">
<path d="M-1098.04 -678.02H454.902V569.981H-1098.04V-678.02Z" fill="white"/>
</mask>
<g mask="url(#mask0_70_5417)">
<path fill-rule="evenodd" clip-rule="evenodd" d="M-554.902 38.3573C-555.686 39.173 -556.961 39.173 -557.745 38.3573L-576.961 18.373V34.1769C-576.961 35.2985 -577.843 36.2161 -578.922 36.2161C-580.098 36.2161 -580.98 35.2985 -580.98 34.1769V13.3769C-580.98 12.2554 -580.098 11.3377 -578.922 11.3377H-559.02C-557.941 11.3377 -557.059 12.2554 -557.059 13.3769C-557.059 14.4985 -557.941 15.4161 -559.02 15.4161H-574.118L-554.902 35.4005C-554.118 36.2161 -554.118 37.5416 -554.902 38.3573ZM-386.765 124.514C-386.765 112.279 -377.255 102.389 -365.49 102.389C-353.725 102.389 -344.216 112.279 -344.216 124.514C-344.216 136.749 -353.725 146.64 -365.49 146.64C-377.255 146.64 -386.765 136.749 -386.765 124.514ZM-367.549 133.487C-367.549 134.608 -366.667 135.526 -365.49 135.526C-364.412 135.526 -363.529 134.608 -363.529 133.487V120.844L-358.333 126.553C-357.549 127.471 -356.372 127.471 -355.49 126.757C-354.706 125.942 -354.706 124.616 -355.392 123.8L-364.02 114.114C-364.412 113.706 -365 113.4 -365.49 113.4C-366.078 113.4 -366.569 113.706 -366.961 114.114L-375.588 123.8C-376.372 124.616 -376.372 125.942 -375.49 126.757C-374.706 127.471 -373.431 127.471 -372.745 126.553L-367.549 120.844V133.487ZM-752.647 25.1024C-752.647 26.224 -753.529 27.1416 -754.706 27.1416H-772.353L-766.569 32.5455C-765.784 33.3612 -765.784 34.6867 -766.569 35.5024C-767.255 36.3181 -768.529 36.4201 -769.314 35.6044L-778.627 26.6318C-779.02 26.224 -779.314 25.6122 -779.314 25.1024C-779.314 24.4907 -779.02 23.9809 -778.627 23.573L-769.314 14.6005C-768.529 13.7848 -767.255 13.8867 -766.569 14.7024C-765.784 15.5181 -765.784 16.8436 -766.569 17.5573L-772.353 23.0632H-754.706C-753.529 23.0632 -752.647 23.9809 -752.647 25.1024ZM-188.725 113.4C-189.902 113.4 -190.784 114.318 -190.784 115.44V138.993C-190.784 140.114 -189.902 141.032 -188.725 141.032H-166.078C-165 141.032 -164.118 140.114 -164.118 138.993V127.879C-164.118 126.757 -163.235 125.84 -162.157 125.84C-160.98 125.84 -160.098 126.757 -160.098 127.879V138.993C-160.098 142.459 -162.843 145.212 -166.078 145.212H-188.725C-192.059 145.212 -194.804 142.459 -194.804 138.993V115.44C-194.804 111.973 -192.059 109.22 -188.725 109.22H-175.49C-174.314 109.22 -173.431 110.138 -173.431 111.259C-173.431 112.483 -174.314 113.4 -175.49 113.4H-188.725ZM-183.333 130.53L-159.216 107.793H-166.078C-167.157 107.793 -168.039 106.875 -168.039 105.753C-168.039 104.632 -167.157 103.714 -166.078 103.714H-154.02C-152.941 103.714 -152.059 104.632 -152.059 105.753V118.193C-152.059 119.314 -152.941 120.334 -154.02 120.334C-155.196 120.334 -156.078 119.314 -156.078 118.193V110.444L-180.686 133.589C-181.471 134.404 -182.745 134.302 -183.529 133.487C-184.216 132.569 -184.216 131.346 -183.333 130.53ZM-680.49 25.1024C-680.49 23.9809 -679.608 23.0632 -678.529 23.0632H-660.784L-666.569 17.5573C-667.353 16.8436 -667.353 15.5181 -666.667 14.7024C-665.882 13.8867 -664.608 13.7848 -663.823 14.6005L-654.51 23.573C-654.118 23.9809 -653.922 24.4907 -653.922 25.1024C-653.922 25.6122 -654.118 26.224 -654.51 26.6318L-663.823 35.6044C-664.608 36.4201 -665.882 36.3181 -666.667 35.5024C-667.353 34.6867 -667.353 33.3612 -666.569 32.5455L-660.784 27.1416H-678.529C-679.608 27.1416 -680.49 26.224 -680.49 25.1024ZM-470.49 31.2201C-469.706 32.0358 -469.706 33.3612 -470.49 34.1769C-471.274 34.9926 -472.549 34.9926 -473.333 34.1769L-477.843 29.4867C-477.712 32.4096 -477.484 35.3325 -477.157 38.2554C-477.059 39.071 -476.372 39.7848 -475.49 39.8867C-472.353 40.1586 -469.15 40.2946 -465.882 40.2946C-462.68 40.2946 -459.51 40.1586 -456.372 39.8867C-455.49 39.7848 -454.804 39.071 -454.706 38.2554C-454.51 36.8279 -454.379 35.3665 -454.314 33.871C-454.216 32.7495 -453.235 31.9338 -452.157 32.0358C-451.078 32.1377 -450.196 33.0554 -450.294 34.2789C-450.425 35.7743 -450.588 37.2358 -450.784 38.6632C-451.078 41.5181 -453.235 43.7612 -455.98 43.9652C-459.248 44.305 -462.549 44.475 -465.882 44.475C-469.281 44.475 -472.614 44.305 -475.882 43.9652C-478.627 43.7612 -480.784 41.5181 -481.078 38.6632C-481.471 35.6044 -481.699 32.5116 -481.765 29.3848L-486.471 34.1769C-487.255 34.9926 -488.529 34.9926 -489.216 34.1769C-490 33.3612 -490 32.0358 -489.216 31.2201L-481.274 22.9612C-480.49 22.1456 -479.216 22.1456 -478.431 22.9612L-470.49 31.2201ZM-475.49 10.3181C-476.372 10.4201 -477.059 11.0318 -477.157 11.9495C-477.353 13.3769 -477.484 14.8044 -477.549 16.2318C-477.647 17.3534 -478.627 18.271 -479.706 18.1691C-480.784 18.0671 -481.667 17.0475 -481.569 15.9259C-481.438 14.4305 -481.307 12.9351 -481.176 11.4397C-480.784 8.58478 -478.627 6.4436 -475.882 6.13771C-472.614 5.86581 -469.314 5.72987 -465.98 5.72987C-462.582 5.72987 -459.248 5.86581 -455.98 6.13771C-453.235 6.4436 -451.078 8.58478 -450.784 11.4397C-450.392 14.5665 -450.163 17.6933 -450.098 20.8201L-445.392 16.0279C-444.608 15.2122 -443.333 15.2122 -442.647 16.0279C-441.863 16.8436 -441.863 18.0671 -442.647 18.8828L-450.588 27.2436C-451.372 28.0593 -452.647 28.0593 -453.431 27.2436L-461.372 18.8828C-462.157 18.0671 -462.157 16.8436 -461.372 16.0279C-460.588 15.2122 -459.314 15.2122 -458.529 16.0279L-454.02 20.6161C-454.15 17.6933 -454.379 14.8044 -454.706 11.9495C-454.804 11.0318 -455.49 10.4201 -456.372 10.3181C-459.51 9.97823 -462.712 9.8083 -465.98 9.8083C-469.183 9.8083 -472.353 9.97823 -475.49 10.3181ZM-275.98 14.2946C-278.627 14.2946 -280.784 12.0514 -280.784 9.29849C-280.784 6.44359 -278.627 4.20045 -275.98 4.20045C-273.235 4.20045 -271.078 6.44359 -271.078 9.29849C-271.078 12.0514 -273.235 14.2946 -275.98 14.2946ZM-266.863 11.1338C-267.843 11.1338 -268.627 10.3181 -268.627 9.29849C-268.627 8.17693 -267.843 7.36124 -266.863 7.36124H-253.529C-252.451 7.36124 -251.667 8.17693 -251.667 9.29849C-251.667 10.3181 -252.451 11.1338 -253.529 11.1338H-266.863ZM-283.235 9.29849C-283.235 10.3181 -284.02 11.1338 -285 11.1338H-288.627C-289.706 11.1338 -290.49 10.3181 -290.49 9.29849C-290.49 8.27888 -289.706 7.36124 -288.627 7.36124H-285C-284.02 7.36124 -283.235 8.27888 -283.235 9.29849ZM-288.627 42.7416C-289.706 42.7416 -290.49 41.9259 -290.49 40.8044C-290.49 39.7848 -289.706 38.9691 -288.627 38.9691H-285C-284.02 38.9691 -283.235 39.7848 -283.235 40.8044C-283.235 41.9259 -284.02 42.7416 -285 42.7416H-288.627ZM-266.765 42.7416C-267.843 42.7416 -268.627 41.9259 -268.627 40.8044C-268.627 39.7848 -267.843 38.9691 -266.765 38.9691H-253.431C-252.451 38.9691 -251.667 39.7848 -251.667 40.8044C-251.667 41.9259 -252.451 42.7416 -253.431 42.7416H-266.765ZM-273.431 25.1024C-273.431 26.122 -274.314 26.9377 -275.294 26.9377H-288.627C-289.608 26.9377 -290.49 26.122 -290.49 25.1024C-290.49 23.9809 -289.608 23.1652 -288.627 23.1652H-275.294C-274.314 23.1652 -273.431 23.9809 -273.431 25.1024ZM-257.059 26.9377C-258.039 26.9377 -258.922 26.122 -258.922 25.1024C-258.922 23.9809 -258.039 23.1652 -257.059 23.1652H-253.431C-252.451 23.1652 -251.569 23.9809 -251.569 25.1024C-251.569 26.122 -252.451 26.9377 -253.431 26.9377H-257.059ZM-266.176 30.0985C-268.823 30.0985 -270.98 27.8554 -270.98 25.1024C-270.98 22.2475 -268.823 20.0044 -266.176 20.0044C-263.431 20.0044 -261.274 22.2475 -261.274 25.1024C-261.274 27.8554 -263.431 30.0985 -266.176 30.0985ZM-275.882 45.9024C-278.529 45.9024 -280.686 43.6593 -280.686 40.8044C-280.686 38.0514 -278.529 35.8083 -275.882 35.8083C-273.235 35.8083 -270.98 38.0514 -270.98 40.8044C-270.98 43.6593 -273.235 45.9024 -275.882 45.9024ZM111.569 -94.1917C112.647 -94.1917 113.529 -93.2741 113.529 -92.1525V-57.5878C113.529 -56.4662 112.647 -55.5486 111.569 -55.5486H107.549C106.471 -55.5486 105.588 -56.4662 105.588 -57.5878V-92.1525C105.588 -93.2741 106.471 -94.1917 107.549 -94.1917H111.569ZM130.196 -94.1917C131.275 -94.1917 132.255 -93.2741 132.255 -92.1525V-57.5878C132.255 -56.4662 131.275 -55.5486 130.196 -55.5486H126.275C125.098 -55.5486 124.216 -56.4662 124.216 -57.5878V-92.1525C124.216 -93.2741 125.098 -94.1917 126.275 -94.1917H130.196ZM12.7452 -63.9094L16.0786 -72.576C16.6667 -74.0035 17.451 -75.227 18.4315 -76.3486L36.8628 -95.4152C39.0197 -97.7603 42.6472 -97.7603 44.804 -95.4152C47.0589 -93.1721 47.0589 -89.3995 44.804 -87.1564L26.4706 -67.9878C25.3922 -66.9682 24.2158 -66.1525 22.8432 -65.5407L14.5099 -62.0741C13.4315 -61.5643 12.353 -62.6858 12.7452 -63.9094ZM7.64709 -60.1368C7.64709 -58.3015 9.11768 -56.6701 10.8824 -56.6701H36.1766C38.0393 -56.6701 39.5099 -58.3015 39.5099 -60.1368V-74.7172C39.5099 -75.8388 40.3922 -76.7564 41.4706 -76.7564C42.6472 -76.7564 43.5295 -75.8388 43.5295 -74.7172V-60.1368C43.5295 -55.9564 40.1962 -52.5917 36.1766 -52.5917H10.8824C6.86279 -52.5917 3.62756 -55.9564 3.62756 -60.1368V-86.4427C3.62756 -90.6231 6.86279 -94.0897 10.8824 -94.0897H24.902C25.9805 -94.0897 26.8629 -93.1721 26.8629 -91.9486C26.8629 -90.827 25.9805 -89.9093 24.902 -89.9093H10.8824C9.11768 -89.9093 7.64709 -88.3799 7.64709 -86.4427V-60.1368ZM-90.6862 -66.0505L-61.6666 -96.2309C-59.4117 -98.576 -55.8823 -98.576 -53.6274 -96.2309C-51.4705 -93.9878 -51.4705 -90.2152 -53.6274 -87.9721L-82.7451 -57.7917C-83.7255 -56.6701 -84.9019 -55.8545 -86.2744 -55.3446L-94.7058 -51.776C-95.7842 -51.3682 -96.8627 -52.4897 -96.3724 -53.6113L-93.0392 -62.278C-92.549 -63.7054 -91.6666 -65.0309 -90.6862 -66.0505ZM-194.608 7.15732C-194.608 4.81222 -192.843 2.97693 -190.686 2.97693H-187.549C-185.686 2.97693 -184.118 4.30241 -183.725 6.23967L-181.765 15.1103C-181.372 17.2514 -182.549 19.3926 -184.608 20.0044L-187.059 20.7181C-188.137 21.126 -188.823 22.2475 -188.333 23.3691C-185.294 31.2201 -179.216 37.4397 -171.765 40.7024C-170.686 41.1103 -169.51 40.4985 -169.216 39.3769L-168.529 36.726C-167.941 34.6867 -165.882 33.3612 -163.823 33.871L-155.196 35.8083C-153.431 36.2162 -152.059 37.9495 -152.059 39.8867V43.0475C-152.059 45.3926 -153.922 47.2279 -156.078 47.2279H-160.098C-163.137 47.2279 -166.078 46.8201 -168.922 46.0044C-180.882 42.7416 -190.294 32.9534 -193.529 20.4122C-194.216 17.5573 -194.608 14.3965 -194.608 11.2357V7.15732Z" fill="#0F172A"/>
<path fill-rule="evenodd" clip-rule="evenodd" d="M-347.549 5.83155C-344.314 5.83155 -341.569 8.5845 -341.569 12.0512V38.2551C-341.569 41.7218 -344.314 44.4747 -347.549 44.4747H-383.431C-386.765 44.4747 -389.412 41.7218 -389.412 38.2551V12.0512C-389.412 8.5845 -386.765 5.83155 -383.431 5.83155H-347.549ZM-375.49 14.0904C-375.49 15.2119 -374.608 16.2316 -373.53 16.2316C-372.353 16.2316 -371.471 15.2119 -371.471 14.0904C-371.471 12.9688 -372.353 12.0512 -373.53 12.0512C-374.608 12.0512 -375.49 12.9688 -375.49 14.0904ZM-381.471 11.9492C-382.549 11.9492 -383.53 12.8669 -383.53 14.0904C-383.53 15.2119 -382.549 16.1296 -381.471 16.1296C-380.392 16.1296 -379.51 15.2119 -379.51 14.0904C-379.51 12.8669 -380.392 11.9492 -381.471 11.9492ZM-385.49 22.3492V38.2551C-385.49 39.3766 -384.608 40.2943 -383.431 40.2943H-347.549C-346.471 40.2943 -345.588 39.3766 -345.588 38.2551V22.3492H-385.49ZM-365.49 11.9492C-366.667 11.9492 -367.549 12.8669 -367.549 14.0904C-367.549 15.2119 -366.667 16.1296 -365.49 16.1296C-364.412 16.1296 -363.529 15.2119 -363.529 14.0904C-363.529 12.8669 -364.412 11.9492 -365.49 11.9492ZM30.294 41.7218C31.7646 41.7218 32.9411 42.9453 32.9411 44.4747C32.9411 46.0041 31.7646 47.2276 30.294 47.2276C28.8234 47.2276 27.6469 46.0041 27.6469 44.4747C27.6469 42.9453 28.8234 41.7218 30.294 41.7218ZM40.8823 44.4747C40.8823 42.9453 42.0587 41.7218 43.5293 41.7218C44.9999 41.7218 46.2744 42.9453 46.2744 44.4747C46.2744 46.0041 44.9999 47.2276 43.5293 47.2276C42.0587 47.2276 40.8823 46.0041 40.8823 44.4747ZM43.5293 27.8551C44.9999 27.8551 46.2744 29.1806 46.2744 30.71C46.2744 32.2394 44.9999 33.4629 43.5293 33.4629C42.0587 33.4629 40.8823 32.2394 40.8823 30.71C40.8823 29.1806 42.0587 27.8551 43.5293 27.8551ZM27.5489 30.71C27.5489 29.1806 28.7254 27.8551 30.196 27.8551H30.294C31.7646 27.8551 32.9411 29.1806 32.9411 30.71C32.9411 32.2394 31.7646 33.4629 30.294 33.4629H30.196C28.7254 33.4629 27.5489 32.2394 27.5489 30.71ZM36.8626 34.7884C38.3332 34.7884 39.5097 36.1139 39.5097 37.6433C39.5097 39.1727 38.3332 40.3963 36.8626 40.3963C35.3921 40.3963 34.2156 39.1727 34.2156 37.6433C34.2156 36.1139 35.3921 34.7884 36.8626 34.7884ZM17.5489 27.957C20.196 27.957 22.2548 30.0982 22.2548 32.7492V42.4355C22.2548 45.0864 20.196 47.3296 17.5489 47.3296H8.33322C5.68616 47.3296 3.62735 45.0864 3.62735 42.4355V32.7492C3.62735 30.0982 5.68616 27.957 8.33322 27.957H17.5489ZM27.4509 7.87077C27.4509 5.21979 29.6077 3.07861 32.1567 3.07861H41.4705C44.0195 3.07861 46.0783 5.21979 46.0783 7.87077V17.557C46.0783 20.208 44.0195 22.3492 41.4705 22.3492H32.1567C29.6077 22.3492 27.4509 20.208 27.4509 17.557V7.87077ZM17.5489 3.07861C20.0979 3.07861 22.1568 5.21979 22.1568 7.87077V17.557C22.1568 20.208 20.0979 22.3492 17.5489 22.3492H8.23517C5.5881 22.3492 3.5293 20.208 3.5293 17.557V7.87077C3.5293 5.21979 5.5881 3.07861 8.23517 3.07861H17.5489ZM32.1567 7.15704C31.7646 7.15704 31.4705 7.46292 31.4705 7.87077V17.557C31.4705 17.9649 31.7646 18.2708 32.1567 18.2708H41.4705C41.7646 18.2708 42.1567 17.9649 42.1567 17.557V7.87077C42.1567 7.46292 41.7646 7.15704 41.4705 7.15704H32.1567ZM36.7646 9.90998C38.2352 9.90998 39.4117 11.1335 39.4117 12.6629V12.7649C39.4117 14.2943 38.2352 15.5178 36.7646 15.5178C35.294 15.5178 34.1175 14.2943 34.1175 12.7649V12.6629C34.1175 11.1335 35.294 9.90998 36.7646 9.90998ZM7.54892 42.4355C7.54892 42.8433 7.84302 43.1492 8.13712 43.1492H17.4509C17.843 43.1492 18.1371 42.8433 18.1371 42.4355V32.7492C18.1371 32.3414 17.843 32.0355 17.4509 32.0355H8.13712C7.84302 32.0355 7.54892 32.3414 7.54892 32.7492V42.4355ZM12.843 34.7884C14.3136 34.7884 15.4901 36.1139 15.4901 37.6433C15.4901 39.1727 14.3136 40.3963 12.843 40.3963C11.3724 40.3963 10.0979 39.1727 10.0979 37.6433C10.0979 36.1139 11.3724 34.7884 12.843 34.7884ZM7.45087 17.557C7.45087 17.9649 7.74496 18.2708 8.13712 18.2708H17.4509C17.843 18.2708 18.1371 17.9649 18.1371 17.557V7.87077C18.1371 7.46292 17.843 7.15704 17.4509 7.15704H8.13712C7.74496 7.15704 7.45087 7.46292 7.45087 7.87077V17.557ZM12.843 9.90998C14.3136 9.90998 15.4901 11.2355 15.4901 12.7649C15.4901 14.2943 14.3136 15.5178 12.843 15.5178H12.745C11.2744 15.5178 10.0979 14.2943 10.0979 12.7649C10.0979 11.2355 11.2744 9.90998 12.745 9.90998H12.843ZM-164.118 -85.8312C-160.784 -85.9671 -157.484 -86.273 -154.216 -86.7488C-153.137 -86.8508 -152.157 -86.0351 -151.961 -84.9136C-151.569 -82.0587 -151.307 -79.1358 -151.177 -76.1449C-151.079 -74.6155 -152.255 -73.29 -153.726 -73.29C-154.804 -73.29 -155.686 -74.0037 -156.373 -74.8194C-157.059 -75.6351 -157.941 -76.043 -158.922 -76.043C-161.079 -76.043 -162.941 -73.5959 -162.941 -70.5371C-162.941 -67.4783 -161.079 -65.0312 -158.922 -65.0312C-157.941 -65.0312 -157.059 -65.439 -156.373 -66.2547C-155.686 -67.0704 -154.804 -67.7841 -153.726 -67.7841C-152.157 -67.7841 -150.98 -66.4586 -150.98 -64.9292C-151.111 -61.2586 -151.405 -57.622 -151.863 -54.0194C-152.059 -53.1018 -152.745 -52.2861 -153.628 -52.1841C-157.092 -51.7083 -160.588 -51.4024 -164.118 -51.2665C-165.686 -51.1645 -166.863 -52.49 -166.863 -54.0194C-166.863 -55.141 -166.177 -56.1606 -165.392 -56.8743C-164.706 -57.5881 -164.216 -58.5057 -164.216 -59.5253C-164.216 -61.7685 -166.569 -63.6037 -169.51 -63.6037C-172.451 -63.6037 -174.902 -61.7685 -174.902 -59.5253C-174.902 -58.5057 -174.412 -57.5881 -173.628 -56.8743C-172.843 -56.1606 -172.255 -55.243 -172.255 -54.1214C-172.255 -52.592 -173.431 -51.2665 -174.902 -51.3685C-177.778 -51.5724 -180.621 -51.8783 -183.431 -52.2861C-184.51 -52.49 -185.294 -53.5096 -185.098 -54.6312C-184.641 -58.0299 -184.346 -61.4626 -184.216 -64.9292C-184.216 -66.4586 -185.392 -67.7841 -186.961 -67.7841C-188.039 -67.7841 -188.922 -67.0704 -189.608 -66.2547C-190.294 -65.439 -191.177 -65.0312 -192.157 -65.0312C-194.314 -65.0312 -196.177 -67.4783 -196.177 -70.5371C-196.177 -73.5959 -194.314 -76.043 -192.157 -76.043C-191.177 -76.043 -190.294 -75.6351 -189.608 -74.8194C-188.922 -74.0037 -188.039 -73.29 -186.961 -73.29C-185.49 -73.29 -184.314 -74.6155 -184.412 -76.1449C-184.543 -78.9318 -184.804 -81.7188 -185.196 -84.5057C-185.294 -85.1175 -185.098 -85.8312 -184.608 -86.239C-184.216 -86.7488 -183.53 -86.9528 -182.941 -86.8508C-180.327 -86.443 -177.647 -86.1371 -174.902 -85.9332C-173.431 -85.9332 -172.255 -87.1567 -172.255 -88.6861C-172.255 -89.8077 -172.843 -90.7253 -173.628 -91.439C-174.412 -92.1528 -174.902 -93.0704 -174.902 -94.09C-174.902 -96.3332 -172.451 -98.1685 -169.51 -98.1685C-166.569 -98.1685 -164.216 -96.3332 -164.216 -94.09C-164.216 -93.0704 -164.706 -92.1528 -165.392 -91.439C-166.177 -90.7253 -166.863 -89.7057 -166.863 -88.5841C-166.863 -87.0547 -165.686 -85.8312 -164.118 -85.8312Z" fill="#0F172A"/>
<path fill-rule="evenodd" clip-rule="evenodd" d="M-98.2354 3.69058C-98.2354 2.56901 -97.353 1.65137 -96.2746 1.65137H-52.451C-51.2746 1.65137 -50.3922 2.56901 -50.3922 3.69058C-50.3922 4.81215 -51.2746 5.83176 -52.451 5.83176H-53.0393V29.9965C-53.0393 34.1769 -56.3726 37.5416 -60.3922 37.5416H-63.2354L-61.0785 46.0043C-60.8824 47.1259 -61.4706 48.2474 -62.5491 48.5533C-63.6275 48.8592 -64.7059 48.2475 -65.0001 47.1259L-65.2942 45.9024H-83.4314L-83.7256 47.1259C-84.0197 48.2475 -85.0981 48.8592 -86.1765 48.5533C-87.255 48.2474 -87.8432 47.1259 -87.5491 46.0043L-85.4903 37.5416H-88.3334C-92.353 37.5416 -95.5883 34.1769 -95.5883 29.9965V5.83176H-96.2746C-97.353 5.83176 -98.2354 4.81215 -98.2354 3.69058ZM-85.0001 23.0631V27.2435C-85.0001 28.3651 -84.1177 29.2827 -82.9412 29.2827C-81.8628 29.2827 -80.9804 28.3651 -80.9804 27.2435V23.0631C-80.9804 21.9416 -81.8628 21.0239 -82.9412 21.0239C-84.1177 21.0239 -85.0001 21.9416 -85.0001 23.0631ZM-67.7452 12.0514V27.2435C-67.7452 28.3651 -66.7648 29.2827 -65.6863 29.2827C-64.6079 29.2827 -63.7255 28.3651 -63.7255 27.2435V12.0514C-63.7255 10.8278 -64.6079 9.91019 -65.6863 9.91019C-66.7648 9.91019 -67.7452 10.8278 -67.7452 12.0514ZM-81.3726 37.5416L-82.353 41.722H-66.2746L-67.353 37.5416H-81.3726ZM-72.353 17.5573C-72.353 16.4357 -73.3334 15.4161 -74.4118 15.4161C-75.4903 15.4161 -76.3726 16.4357 -76.3726 17.5573V27.2435C-76.3726 28.3651 -75.4903 29.2827 -74.4118 29.2827C-73.3334 29.2827 -72.353 28.3651 -72.353 27.2435V17.5573ZM-85.0981 110.749C-84.4118 111.463 -84.4118 112.687 -85.0981 113.4C-90.9805 119.518 -90.9805 129.51 -85.0981 135.628C-79.2157 141.745 -69.6079 141.745 -63.7255 135.628C-57.7452 129.51 -57.7452 119.518 -63.7255 113.4C-64.4118 112.687 -64.4118 111.463 -63.7255 110.749C-63.0393 110.138 -61.8628 110.138 -61.1765 110.749C-53.9216 118.396 -53.9216 130.632 -61.1765 138.177C-68.5295 145.722 -80.2942 145.722 -87.5491 138.177C-94.804 130.632 -94.804 118.396 -87.5491 110.749C-86.8628 110.138 -85.7844 110.138 -85.0981 110.749ZM-74.4118 105.142C-73.4314 105.142 -72.6471 105.957 -72.6471 106.977V125.126C-72.6471 126.145 -73.4314 126.961 -74.4118 126.961C-75.3922 126.961 -76.1765 126.145 -76.1765 125.126V106.977C-76.1765 105.957 -75.3922 105.142 -74.4118 105.142ZM111.863 106.161C112.647 106.161 113.333 106.875 113.333 107.691C113.333 108.506 112.647 109.22 111.863 109.22H108.922C107.255 109.22 105.98 110.545 105.98 112.279V115.338C105.98 116.153 105.294 116.867 104.51 116.867C103.725 116.867 103.039 116.153 103.039 115.338V112.279C103.039 108.914 105.686 106.161 108.922 106.161H111.863ZM132.451 106.161C135.686 106.161 138.333 108.914 138.333 112.279V115.338C138.333 116.153 137.647 116.867 136.863 116.867C136.078 116.867 135.392 116.153 135.392 115.338V112.279C135.392 110.545 134.02 109.22 132.451 109.22H129.51C128.725 109.22 128.039 108.506 128.039 107.691C128.039 106.875 128.725 106.161 129.51 106.161H132.451ZM128.039 124.514C128.039 128.695 124.706 132.161 120.686 132.161C116.569 132.161 113.333 128.695 113.333 124.514C113.333 120.232 116.569 116.867 120.686 116.867C124.706 116.867 128.039 120.232 128.039 124.514ZM105.98 136.749C105.98 138.381 107.255 139.808 108.922 139.808H111.863C112.647 139.808 113.333 140.522 113.333 141.338C113.333 142.153 112.647 142.867 111.863 142.867H108.922C105.686 142.867 103.039 140.114 103.039 136.749V133.691C103.039 132.875 103.725 132.161 104.51 132.161C105.294 132.161 105.98 132.875 105.98 133.691V136.749ZM138.333 136.749C138.333 140.114 135.686 142.867 132.451 142.867H129.51C128.725 142.867 128.039 142.153 128.039 141.338C128.039 140.522 128.725 139.808 129.51 139.808H132.451C134.02 139.808 135.392 138.381 135.392 136.749V133.691C135.392 132.875 136.078 132.161 136.863 132.161C137.647 132.161 138.333 132.875 138.333 133.691V136.749ZM118.627 37.5416C119.804 36.318 121.667 36.318 122.843 37.5416C123.333 38.1533 123.333 39.071 122.843 39.6827L121.765 40.7024C121.471 41.0082 121.078 41.2122 120.686 41.2122C120.294 41.2122 120 41.0082 119.706 40.7024L118.627 39.6827C118.039 39.071 118.039 38.1533 118.627 37.5416ZM112.353 31.0161C116.961 26.2239 124.412 26.2239 129.02 31.0161C129.608 31.6278 129.608 32.5455 129.02 33.1573L128.039 34.2788C127.745 34.5847 127.353 34.6867 126.961 34.6867C126.569 34.6867 126.176 34.5847 125.882 34.2788C123.039 31.322 118.431 31.322 115.49 34.2788C114.902 34.8906 114.02 34.8906 113.431 34.2788L112.353 33.1573C111.863 32.5455 111.863 31.6278 112.353 31.0161ZM106.078 24.4906C114.118 16.1298 127.157 16.1298 135.196 24.4906C135.784 25.1023 135.784 26.122 135.196 26.7337L134.216 27.7533C133.922 28.0592 133.529 28.2631 133.137 28.2631C132.745 28.2631 132.353 28.0592 132.157 27.7533C125.784 21.2278 115.588 21.2278 109.216 27.7533C108.627 28.3651 107.745 28.3651 107.157 27.7533L106.078 26.7337C105.882 26.4278 105.686 26.02 105.686 25.6122C105.686 25.2043 105.882 24.7965 106.078 24.4906ZM99.9019 18.0671C111.373 6.13764 130 6.13764 141.471 18.0671C142.059 18.6788 142.059 19.5965 141.471 20.2082L140.392 21.3298C140.196 21.5337 139.804 21.7376 139.412 21.7376C139.02 21.7376 138.627 21.5337 138.333 21.3298C128.627 11.1337 112.745 11.1337 103.039 21.3298C102.745 21.5337 102.353 21.7376 101.961 21.7376C101.569 21.7376 101.176 21.5337 100.882 21.3298L99.9019 20.2082C99.3137 19.5965 99.3137 18.6788 99.9019 18.0671ZM10.8823 207.408C15.4575 206.661 20.1307 206.287 24.9019 206.287C29.6731 206.287 34.3463 206.661 38.9215 207.408C42.8431 207.918 45.4902 211.487 45.4902 215.463V227.698C45.4902 231.675 42.8431 235.244 38.9215 235.855C36.6993 236.195 34.4444 236.467 32.1568 236.671C31.8627 236.671 31.6666 236.773 31.5686 236.977L26.1764 245.44C25.8823 245.847 25.3921 246.051 24.9019 246.051C24.4117 246.051 23.9215 245.847 23.7254 245.44L18.3333 236.977C18.1372 236.773 17.9411 236.671 17.745 236.671C15.3921 236.467 13.1045 236.195 10.8823 235.855C7.05877 235.244 4.31367 231.675 4.31367 227.698V215.463C4.31367 211.487 7.05877 207.918 10.8823 207.408ZM16.0784 220.051H33.7254C34.5098 220.051 35.196 219.44 35.196 218.522C35.196 217.706 34.5098 216.993 33.7254 216.993H16.0784C15.2941 216.993 14.6078 217.706 14.6078 218.522C14.6078 219.44 15.2941 220.051 16.0784 220.051ZM16.0784 223.11C15.2941 223.11 14.6078 223.824 14.6078 224.64C14.6078 225.557 15.2941 226.169 16.0784 226.169H24.9019C25.6862 226.169 26.3725 225.557 26.3725 224.64C26.3725 223.824 25.6862 223.11 24.9019 223.11H16.0784Z" fill="#0F172A"/>
<path fill-rule="evenodd" clip-rule="evenodd" d="M101.569 213.934C101.569 210.569 104.216 207.816 107.451 207.816H133.922C137.157 207.816 139.804 210.569 139.804 213.934V238.404C139.804 241.769 137.157 244.522 133.922 244.522H107.451C104.216 244.522 101.569 241.769 101.569 238.404V213.934ZM109.412 218.114L112.745 221.581L109.412 225.149C108.823 225.761 108.823 226.679 109.412 227.29C110 227.902 110.882 227.902 111.471 227.29L115.882 222.702C116.471 222.091 116.471 221.173 115.882 220.561L111.471 215.973C110.882 215.361 110 215.361 109.412 215.973C108.823 216.585 108.823 217.502 109.412 218.114ZM117.745 224.64C116.961 224.64 116.274 225.353 116.274 226.169C116.274 227.087 116.961 227.698 117.745 227.698H123.627C124.51 227.698 125.098 227.087 125.098 226.169C125.098 225.353 124.51 224.64 123.627 224.64H117.745ZM-785.098 -88.584C-785.098 -91.9487 -782.451 -94.7017 -779.216 -94.7017H-752.745C-749.51 -94.7017 -746.863 -91.9487 -746.863 -88.584V-68.7017C-746.863 -65.235 -749.51 -62.584 -752.745 -62.584H-758.628V-61.9722C-758.628 -60.7487 -758.137 -59.6271 -757.353 -58.8115L-756.079 -57.486C-755.686 -57.0781 -755.588 -56.3644 -755.784 -55.8546C-755.981 -55.2428 -756.569 -54.937 -757.157 -54.937H-774.804C-775.392 -54.937 -775.882 -55.2428 -776.177 -55.8546C-776.373 -56.3644 -776.275 -57.0781 -775.784 -57.486L-774.608 -58.8115C-773.824 -59.6271 -773.333 -60.7487 -773.333 -61.9722V-62.584H-779.216C-782.451 -62.584 -785.098 -65.235 -785.098 -68.7017V-88.584ZM-782.157 -88.584V-73.2899C-782.157 -71.5566 -780.784 -70.2311 -779.216 -70.2311H-752.745C-751.079 -70.2311 -749.804 -71.5566 -749.804 -73.2899V-88.584C-749.804 -90.2154 -751.079 -91.6428 -752.745 -91.6428H-779.216C-780.784 -91.6428 -782.157 -90.2154 -782.157 -88.584ZM-757.157 235.345H-774.804V216.992H-757.157V235.345Z" fill="#0F172A"/>
<path fill-rule="evenodd" clip-rule="evenodd" d="M-55.196 226.169C-55.196 237.181 -63.8234 246.051 -74.3137 246.051C-84.9019 246.051 -93.4313 237.181 -93.4313 226.169C-93.4313 215.259 -84.9019 206.286 -74.3137 206.286C-63.8234 206.286 -55.196 215.259 -55.196 226.169ZM-76.5685 215.463C-80.9803 215.463 -84.6078 219.235 -84.6078 223.926C-84.6078 228.514 -80.9803 232.286 -76.5685 232.286C-74.8038 232.286 -73.2352 231.777 -71.9608 230.859L-68.0392 234.937C-67.4509 235.549 -66.5685 235.549 -65.9803 234.937C-65.3921 234.326 -65.3921 233.408 -65.9803 232.796L-69.9019 228.718C-69.0195 227.29 -68.4313 225.659 -68.4313 223.926C-68.4313 219.235 -72.0587 215.463 -76.5685 215.463ZM-154.314 206.286C-153.529 206.286 -152.843 207 -152.843 207.816C-152.843 208.733 -153.529 209.345 -154.314 209.345H-155.784V230.757C-155.784 234.122 -158.431 236.875 -161.667 236.875H-164.02L-161.765 244.114C-161.471 244.828 -161.961 245.745 -162.647 246.051C-163.431 246.255 -164.314 245.847 -164.51 245.031L-165.196 242.992H-181.667L-182.353 245.031C-182.647 245.847 -183.431 246.255 -184.216 246.051C-185 245.745 -185.392 244.828 -185.098 244.114L-182.843 236.875H-185.196C-188.431 236.875 -191.078 234.122 -191.078 230.757V209.345H-192.549C-193.431 209.345 -194.02 208.733 -194.02 207.816C-194.02 207 -193.431 206.286 -192.549 206.286H-154.314ZM-171.961 220.051C-171.961 219.235 -172.647 218.522 -173.431 218.522C-174.314 218.522 -174.902 219.235 -174.902 220.051V227.698C-174.902 228.616 -174.314 229.228 -173.431 229.228C-172.647 229.228 -171.961 228.616 -171.961 227.698V220.051ZM-166.078 215.463C-166.078 214.647 -166.765 213.933 -167.549 213.933C-168.431 213.933 -169.02 214.647 -169.02 215.463V227.698C-169.02 228.616 -168.431 229.228 -167.549 229.228C-166.765 229.228 -166.078 228.616 -166.078 227.698V215.463ZM-166.176 239.933L-167.157 236.875H-179.706L-180.686 239.933H-166.176ZM-177.941 224.639C-177.941 223.824 -178.529 223.11 -179.412 223.11C-180.196 223.11 -180.882 223.824 -180.882 224.639V227.698C-180.882 228.616 -180.196 229.228 -179.412 229.228C-178.529 229.228 -177.941 228.616 -177.941 227.698V224.639ZM33.0393 103.102C35.0001 103.102 36.6667 104.835 36.6667 106.875V112.992C37.5164 113.128 38.3661 113.264 39.2158 113.4C42.0589 113.808 44.0197 116.357 44.0197 119.314V132.161C44.0197 135.526 41.3726 138.279 38.1373 138.279H37.6472L37.9413 141.745C38.1373 143.988 36.4706 145.926 34.3138 145.926H15.5883C13.4315 145.926 11.7648 143.988 11.9609 141.745L12.2549 138.279H11.6667C8.43146 138.279 5.78442 135.526 5.78442 132.161V119.314C5.78442 116.357 7.8432 113.808 10.6863 113.4C11.4707 113.264 12.2877 113.128 13.1373 112.992V106.875C13.1373 104.835 14.804 103.102 16.8629 103.102H33.0393ZM36.6667 122.984C37.5491 122.984 38.1373 122.271 38.1373 121.455C38.1373 120.639 37.5491 119.926 36.6667 119.926C35.8824 119.926 35.1962 120.639 35.1962 121.455C35.1962 122.271 35.8824 122.984 36.6667 122.984ZM24.902 129.102C22.0916 129.102 19.3138 129.238 16.5687 129.51C16.1766 129.612 15.8824 129.816 15.8824 130.224L14.804 142.051C14.804 142.459 15.0981 142.867 15.5883 142.867H34.3138C34.7059 142.867 35.0001 142.459 35.0001 142.051L34.0197 130.224C33.9216 129.816 33.6275 129.612 33.3334 129.51C30.5883 129.238 27.7779 129.102 24.902 129.102ZM33.7256 112.686V106.875C33.7256 106.467 33.4315 106.161 33.0393 106.161H16.8629C16.4706 106.161 16.0786 106.467 16.0786 106.875V112.686C19.0197 112.415 21.9609 112.279 24.902 112.279C27.9086 112.279 30.8498 112.415 33.7256 112.686ZM30.7844 119.926C30.0001 119.926 29.3138 120.639 29.3138 121.455C29.3138 122.271 30.0001 122.984 30.7844 122.984C31.6667 122.984 32.255 122.271 32.255 121.455C32.255 120.639 31.6667 119.926 30.7844 119.926ZM-290.294 229.228C-290.294 219.949 -283.039 212.404 -274.118 212.404C-273.333 212.404 -272.647 213.118 -272.647 213.933V227.698H-259.412C-258.627 227.698 -257.941 228.412 -257.941 229.228C-257.941 238.506 -265.196 246.051 -274.118 246.051C-283.039 246.051 -290.294 238.506 -290.294 229.228ZM-269.706 207.816C-269.706 207 -269.02 206.286 -268.235 206.286C-259.314 206.286 -252.059 213.831 -252.059 223.11C-252.059 224.028 -252.745 224.639 -253.529 224.639H-268.235C-269.02 224.639 -269.706 224.028 -269.706 223.11V207.816ZM-648.627 -57.4862C-648.039 -56.8744 -648.039 -55.9568 -648.627 -55.345C-649.216 -54.7332 -650.098 -54.7332 -650.686 -55.345L-685.98 -92.0509C-686.569 -92.6626 -686.569 -93.5803 -685.98 -94.1921C-685.392 -94.8038 -684.51 -94.8038 -683.922 -94.1921L-648.627 -57.4862ZM-646.765 -63.196C-646.765 -62.1764 -647.157 -61.4626 -647.745 -60.8509L-657.059 -70.5371V-83.0783L-651.765 -88.5842C-649.902 -90.4195 -646.765 -89.094 -646.765 -86.3411V-63.196ZM-660 -83.996V-73.6979L-675.784 -90.1136H-665.882C-662.549 -90.1136 -660 -87.3607 -660 -83.996ZM-687.941 -83.996C-687.941 -85.6273 -687.353 -87.0548 -686.372 -88.1764L-661.176 -61.9724C-662.255 -60.443 -663.922 -59.5254 -665.882 -59.5254H-682.059C-685.294 -59.5254 -687.941 -62.2783 -687.941 -65.643V-83.996Z" fill="#0F172A"/>
</g>
</g>
<defs>
<clipPath id="clip0_70_5417">
<rect width="50" height="50" fill="white"/>
</clipPath>
</defs>
</svg>
